<svg width="33" height="33" viewBox="0 0 33 33" fill="none" xmlns="http://www.w3.org/2000/svg">
<path d="M2.6 0.0666504C1.20033 0.0666504 0.0666656 1.20032 0.0666656 2.59998V6.39998C0.0666656 7.09918 0.634132 7.66665 1.33333 7.66665H26.6667C27.3659 7.66665 27.9333 7.09918 27.9333 6.39998V2.59998C27.9333 1.20032 26.7997 0.0666504 25.4 0.0666504H2.6ZM1.33333 10.2C0.634132 10.2 0.0666656 10.7675 0.0666656 11.4667V16.5333C0.0666656 17.2325 0.634132 17.8 1.33333 17.8H18.6684C20.0946 14.8094 23.139 12.7333 26.6667 12.7333C27.0973 12.7333 27.5179 12.7752 27.9333 12.8347V11.4667C27.9333 10.7675 27.3659 10.2 26.6667 10.2H1.33333ZM26.6667 15.2667C23.1694 15.2667 20.3333 18.1027 20.3333 21.6C20.3333 22.3537 20.4872 23.0674 20.7292 23.7375L15.2667 29.2V32.9901L19.0667 33V30.4667H21.6L24.5292 27.5375C25.1992 27.7794 25.913 27.9333 26.6667 27.9333C30.1639 27.9333 33 25.0972 33 21.6C33 18.1027 30.1639 15.2667 26.6667 15.2667ZM27.3 19.0667C28.3488 19.0667 29.2 19.9179 29.2 20.9667C29.2 22.0154 28.3488 22.8666 27.3 22.8666C26.2512 22.8666 25.4 22.0154 25.4 20.9667C25.4 19.9179 26.2512 19.0667 27.3 19.0667ZM1.33333 20.3333C0.634132 20.3333 0.0666656 20.9008 0.0666656 21.6V25.4C0.0666656 26.7997 1.20033 27.9333 2.6 27.9333H12.951L13.4755 27.4088L17.9163 22.9681C17.839 22.5083 17.8 22.0522 17.8 21.6C17.8 21.1693 17.8419 20.7488 17.9014 20.3333H1.33333Z" fill="#0493D3"/>
</svg>