<svg width="34" height="33" viewBox="0 0 34 33" fill="none" xmlns="http://www.w3.org/2000/svg">
<path d="M18.2667 0.533325C17.9307 0.533325 17.6085 0.666777 17.371 0.904323C17.1334 1.14187 17 1.46405 17 1.79999C17 2.13593 17.1334 2.45811 17.371 2.69566C17.6085 2.93321 17.9307 3.06666 18.2667 3.06666C18.6026 3.06666 18.9248 2.93321 19.1623 2.69566C19.3999 2.45811 19.5333 2.13593 19.5333 1.79999C19.5333 1.46405 19.3999 1.14187 19.1623 0.904323C18.9248 0.666777 18.6026 0.533325 18.2667 0.533325ZM29.6667 0.533325C29.3307 0.533325 29.0085 0.666777 28.771 0.904323C28.5334 1.14187 28.4 1.46405 28.4 1.79999C28.4 2.13593 28.5334 2.45811 28.771 2.69566C29.0085 2.93321 29.3307 3.06666 29.6667 3.06666C30.0026 3.06666 30.3248 2.93321 30.5623 2.69566C30.7999 2.45811 30.9333 2.13593 30.9333 1.79999C30.9333 1.46405 30.7999 1.14187 30.5623 0.904323C30.3248 0.666777 30.0026 0.533325 29.6667 0.533325ZM23.3135 1.78267C22.978 1.78792 22.6583 1.92606 22.4245 2.16678C22.1908 2.40751 22.0621 2.73114 22.0667 3.06666V5.86965C21.1282 6.13548 20.2656 6.58893 19.5333 7.19322V5.59999C19.5356 5.43052 19.5039 5.26232 19.4401 5.10532C19.3762 4.94833 19.2815 4.80575 19.1615 4.68603C19.0416 4.5663 18.8988 4.47186 18.7417 4.4083C18.5846 4.34474 18.4163 4.31336 18.2469 4.31601C17.9114 4.32125 17.5916 4.45939 17.3579 4.70012C17.1241 4.94084 16.9954 5.26447 17 5.59999V12.5667C16.9997 12.6154 17.0021 12.6642 17.0074 12.7126C17.0859 16.4927 20.1678 19.5333 23.9667 19.5333C27.7689 19.5333 30.8527 16.4874 30.9259 12.7027C30.9308 12.6575 30.9333 12.6121 30.9333 12.5667V6.86666C30.9356 6.69719 30.9039 6.52898 30.8401 6.37199C30.7762 6.215 30.6815 6.07242 30.5615 5.95269C30.4416 5.83297 30.2988 5.73853 30.1417 5.67497C29.9846 5.61141 29.8163 5.58003 29.6469 5.58267C29.3114 5.58792 28.9916 5.72606 28.7579 5.96678C28.5241 6.20751 28.3954 6.53114 28.4 6.86666V7.19322C27.3482 6.32438 26.0372 5.76179 24.6 5.63215V3.06666C24.6023 2.89719 24.5706 2.72898 24.5067 2.57199C24.4429 2.415 24.3482 2.27242 24.2282 2.15269C24.1083 2.03297 23.9655 1.93853 23.8084 1.87497C23.6513 1.81141 23.483 1.78003 23.3135 1.78267ZM23.3308 8.13332H24.5975V9.29856C25.8186 9.45942 26.5365 10.0979 26.6163 11.1417H25.0676C24.9814 10.7325 24.5985 10.4811 23.9766 10.4811C23.3787 10.4811 22.935 10.7525 22.935 11.154C22.935 11.4644 23.2045 11.6544 23.791 11.7874L24.9835 12.0447C26.2147 12.3157 26.7672 12.8338 26.7672 13.7838C26.7672 14.8833 25.911 15.6473 24.6 15.8323V17H23.3333V15.8397C22.0413 15.6826 21.2662 15.0307 21.1661 13.9743H22.8014C22.9281 14.4063 23.3362 14.6522 24.0038 14.6522C24.6536 14.6522 25.1022 14.3822 25.1022 13.9743C25.1022 13.664 24.8604 13.4725 24.3031 13.3509L23.1527 13.0936C21.9215 12.8225 21.322 12.2358 21.322 11.2579C21.322 10.2243 22.106 9.49218 23.3308 9.30598V8.13332ZM8.13332 17C7.65191 17.0009 7.17505 17.0932 6.72812 17.2721H6.72317L0.533325 19.5333V29.6667L5.87955 27.3436C6.51035 27.07 7.22406 27.0604 7.86119 27.3213L19.3428 32.012C19.3428 32.012 19.3477 32.012 19.3478 32.012C19.6033 32.135 19.8831 32.1992 20.1667 32.2C20.4956 32.1993 20.8186 32.1132 21.1043 31.9501C21.1044 31.9501 21.1092 31.9502 21.1092 31.9501L32.4771 25.6341C32.7765 25.4706 33.0265 25.2295 33.2006 24.9361C33.3747 24.6427 33.4666 24.3078 33.4667 23.9667C33.4667 23.4627 33.2665 22.9795 32.9102 22.6232C32.5538 22.2668 32.0706 22.0667 31.5667 22.0667C31.2876 22.0677 31.0123 22.1302 30.7601 22.2497V22.2473L22.0667 25.8667H20.1667C20.6706 25.8667 21.1538 25.6665 21.5102 25.3102C21.8665 24.9538 22.0667 24.4706 22.0667 23.9667C22.066 23.5662 21.9389 23.1762 21.7034 22.8523C21.468 22.5284 21.1362 22.2872 20.7555 22.1631V22.1582L9.74387 17.3562H9.7315C9.23099 17.1228 8.68561 17.0012 8.13332 17Z" fill="#0493D3"/>
</svg>