<svg width="38" height="32" viewBox="0 0 38 32" fill="none" xmlns="http://www.w3.org/2000/svg">
<path d="M8.36198 0.799988C7.20425 0.799988 6.33333 2.06665 6.33333 2.06665C-0.297667 2.06665 3.36076 12.6508 1.41263 14.2113C1.41263 14.2113 2.6068 15.6883 6.33333 15.6883V16.9525C5.30353 19.6353 0 18.6435 0 23.6H10.163C11.0548 23.0604 13.9333 21.5639 13.9333 21.5639C13.2455 20.8293 12.2533 19.559 11.8923 18.5976C11.1019 18.2012 10.4335 17.7353 10.1333 16.9525V15.6734C10.374 15.6734 11.0837 15.6178 11.3332 15.5621C10.7683 14.6919 10.2917 12.7085 10.2917 11.5963C10.2917 8.76788 11.5097 6.44138 13.5301 4.98345C12.9208 2.65152 11.5679 0.799988 8.36198 0.799988ZM29.1333 0.799988C26.3175 0.799988 24.5886 2.73698 24.1706 5.27538C26.2175 6.37231 27.55 8.73716 27.55 11.7151C27.55 12.6461 27.3329 13.5419 27.0973 14.2361C27.1847 14.5793 27.2333 14.9621 27.2333 15.3864C27.2333 18.5151 24.0667 21.6357 24.0667 21.6357C24.7545 21.9359 26.955 23.0541 27.8543 23.6H38C38 16.95 32.6002 18.85 31.6667 16V14.1C32.0872 13.8885 33.0887 12.432 33.2154 11.2945C33.5447 11.2692 34.2 10.4641 34.2 9.74335C34.2 9.02261 33.9709 8.71938 33.772 8.60285C33.772 8.60285 34.2 7.65139 34.2 6.49999C34.2 4.19339 33.5768 2.06665 31.6667 2.06665C31.6667 2.06665 31.1182 0.799988 29.1333 0.799988ZM19 5.86665C15.5901 5.86665 12.825 7.92048 12.825 11.5963C12.825 13.1505 13.6958 14.3622 13.6958 14.3622C13.6958 14.3622 13.3 14.5568 13.3 15.3864C13.3 16.9989 14.3366 17.3854 14.3366 17.3854C14.481 18.6622 16.4667 20.5323 16.4667 20.5323V22.6673C15.4001 25.8669 8.86667 23.7583 8.86667 31.2H29.1333C29.1333 23.733 22.5999 25.8669 21.5333 22.6673V20.5323C21.5333 20.5323 23.519 18.6622 23.6634 17.3854C23.6634 17.3854 24.7 16.6696 24.7 15.3864C24.7 14.4972 24.3042 14.3622 24.3042 14.3622C24.3042 14.3622 25.0167 13.0071 25.0167 11.7151C25.0167 9.12476 23.7171 7.13332 21.5333 7.13332C21.5333 7.13332 20.6061 5.86665 19 5.86665Z" fill="#0493D3"/>
</svg>