<svg width="30" height="36" viewBox="0 0 30 36" fill="none" xmlns="http://www.w3.org/2000/svg">
<path d="M13.7143 1.1549L2.631 6.08065C1.48625 6.5889 0.75 7.72257 0.75 8.97498V16.4166C0.75 28.8141 10.9451 34.6028 15 35.4166C19.0549 34.6028 29.25 28.8141 29.25 16.4166V8.97498C29.25 7.72415 28.5138 6.5889 27.369 6.08065L16.2857 1.1549C15.4671 0.790733 14.5329 0.790733 13.7143 1.1549ZM12.2973 23.8694L7.91142 19.4836C7.29392 18.8661 7.29392 17.8622 7.91142 17.2447C8.52892 16.6272 9.53275 16.6272 10.1503 17.2447L13.4167 20.5111L21.4679 12.4599C22.0854 11.8424 23.0893 11.8424 23.7068 12.4599C24.3243 13.0774 24.3243 14.0812 23.7068 14.6987L14.5361 23.8694C13.9186 24.4869 12.9148 24.4869 12.2973 23.8694Z" fill="#0493D3"/>
</svg>