<svg width="82" height="31" viewBox="0 0 82 31" fill="none" xmlns="http://www.w3.org/2000/svg">
<path d="M13.7516 14.9834C13.6526 14.9834 13.5634 14.9487 13.4842 14.8794C13.4148 14.8001 13.3801 14.711 13.3801 14.6119V4.9531C13.3801 4.84413 13.4148 4.75497 13.4842 4.68562C13.5634 4.61628 13.6526 4.58161 13.7516 4.58161H15.3268C15.5744 4.58161 15.7428 4.67572 15.832 4.86394L19.4578 10.5701V4.9531C19.4578 4.84413 19.4924 4.75497 19.5618 4.68562C19.641 4.61628 19.7302 4.58161 19.8293 4.58161H21.6124C21.7214 4.58161 21.8105 4.61628 21.8799 4.68562C21.9492 4.75497 21.9839 4.84413 21.9839 4.9531V14.597C21.9839 14.706 21.9492 14.8001 21.8799 14.8794C21.8105 14.9487 21.7214 14.9834 21.6124 14.9834H20.0224C19.8045 14.9834 19.641 14.8893 19.5321 14.7011L15.9063 9.20297V14.6119C15.9063 14.711 15.8716 14.8001 15.8023 14.8794C15.7329 14.9487 15.6438 14.9834 15.5348 14.9834H13.7516ZM24.432 14.9834C24.333 14.9834 24.2438 14.9487 24.1646 14.8794C24.0952 14.8001 24.0605 14.711 24.0605 14.6119V4.9531C24.0605 4.84413 24.0952 4.75497 24.1646 4.68562C24.2438 4.61628 24.333 4.58161 24.432 4.58161H26.0369C26.2746 4.58161 26.448 4.69058 26.557 4.90852L29.1723 9.58933L31.7876 4.90852C31.8966 4.69058 32.0699 4.58161 32.3077 4.58161H33.8977C34.0066 4.58161 34.0958 4.61628 34.1651 4.68562C34.2444 4.75497 34.284 4.84413 34.284 4.9531V14.6119C34.284 14.7209 34.2444 14.81 34.1651 14.8794C34.0958 14.9487 34.0066 14.9834 33.8977 14.9834H32.1294C32.0204 14.9834 31.9263 14.9487 31.847 14.8794C31.7777 14.81 31.743 14.7209 31.743 14.6119V9.03952L30.0787 12.1452C29.9499 12.373 29.7766 12.487 29.5586 12.487H28.7859C28.6572 12.487 28.5531 12.4572 28.4739 12.3978C28.3946 12.3384 28.3253 12.2542 28.2658 12.1452L26.5867 9.03952V14.6119C26.5867 14.711 26.552 14.8001 26.4827 14.8794C26.4133 14.9487 26.3242 14.9834 26.2152 14.9834H24.432ZM39.3382 14.9834C39.0212 14.9834 38.8181 14.8348 38.7289 14.5376L35.6976 5.0274L35.6678 4.89366C35.6678 4.81441 35.6976 4.74506 35.757 4.68562C35.8263 4.61628 35.9056 4.58161 35.9948 4.58161H37.8374C37.976 4.58161 38.09 4.62123 38.1791 4.70048C38.2782 4.77974 38.3426 4.86889 38.3723 4.96796L40.4824 11.8331L42.5776 4.96796C42.6073 4.86889 42.6668 4.77974 42.7559 4.70048C42.855 4.62123 42.9739 4.58161 43.1125 4.58161H44.97C45.0493 4.58161 45.1186 4.61628 45.178 4.68562C45.2474 4.74506 45.2821 4.81441 45.2821 4.89366L45.2523 5.0274L42.221 14.5376C42.1318 14.8348 41.9287 14.9834 41.6117 14.9834H39.3382ZM49.3292 14.9834C49.2302 14.9834 49.141 14.9487 49.0618 14.8794C48.9924 14.8001 48.9577 14.711 48.9577 14.6119V6.91458H46.3127C46.2137 6.91458 46.1245 6.87991 46.0452 6.81056C45.9759 6.73131 45.9412 6.64215 45.9412 6.54309V4.9531C45.9412 4.84413 45.9759 4.75497 46.0452 4.68562C46.1245 4.61628 46.2137 4.58161 46.3127 4.58161H54.3072C54.4162 4.58161 54.5054 4.61628 54.5747 4.68562C54.6441 4.75497 54.6787 4.84413 54.6787 4.9531V6.54309C54.6787 6.65206 54.6441 6.74122 54.5747 6.81056C54.5054 6.87991 54.4162 6.91458 54.3072 6.91458H51.6622V14.6119C51.6622 14.711 51.6275 14.8001 51.5582 14.8794C51.4888 14.9487 51.3997 14.9834 51.2907 14.9834H49.3292ZM56.4007 14.9834C56.3017 14.9834 56.2125 14.9487 56.1332 14.8794C56.0639 14.8001 56.0292 14.711 56.0292 14.6119V4.9531C56.0292 4.84413 56.0639 4.75497 56.1332 4.68562C56.2125 4.61628 56.3017 4.58161 56.4007 4.58161H58.3919C58.5009 4.58161 58.59 4.61628 58.6594 4.68562C58.7386 4.75497 58.7783 4.84413 58.7783 4.9531V14.6119C58.7783 14.7209 58.7386 14.81 58.6594 14.8794C58.59 14.9487 58.5009 14.9834 58.3919 14.9834H56.4007ZM64.7254 15.132C63.7843 15.132 62.9769 14.9933 62.3033 14.7159C61.6296 14.4385 61.1194 14.077 60.7727 13.6312C60.4359 13.1755 60.2576 12.6801 60.2378 12.1452C60.2378 12.0659 60.2675 11.9966 60.3269 11.9372C60.3963 11.8678 60.4755 11.8331 60.5647 11.8331H62.437C62.5559 11.8331 62.65 11.8579 62.7193 11.9074C62.7986 11.9471 62.8778 12.0115 62.9571 12.1006C63.0859 12.3582 63.2939 12.5712 63.5812 12.7396C63.8685 12.908 64.2499 12.9922 64.7254 12.9922C65.2901 12.9922 65.721 12.903 66.0182 12.7247C66.3154 12.5464 66.464 12.3037 66.464 11.9966C66.464 11.7787 66.3847 11.6003 66.2262 11.4616C66.0776 11.323 65.8399 11.1991 65.513 11.0902C65.1861 10.9812 64.7006 10.8574 64.0567 10.7187C62.8679 10.471 61.9764 10.1094 61.382 9.63391C60.7975 9.14849 60.5052 8.45999 60.5052 7.56841C60.5052 6.96411 60.6737 6.42421 61.0105 5.9487C61.3473 5.47319 61.8278 5.1017 62.4519 4.83422C63.076 4.56675 63.8041 4.43301 64.6362 4.43301C65.4981 4.43301 66.246 4.58161 66.8801 4.8788C67.5141 5.17599 67.9945 5.55244 68.3214 6.00814C68.6583 6.45393 68.8366 6.89477 68.8564 7.33065C68.8564 7.41981 68.8267 7.49411 68.7672 7.55355C68.7078 7.61299 68.6335 7.64271 68.5443 7.64271H66.5829C66.464 7.64271 66.3649 7.62289 66.2857 7.58327C66.2163 7.54364 66.1519 7.47925 66.0925 7.39009C66.0331 7.16224 65.8696 6.96907 65.6021 6.81056C65.3446 6.65206 65.0226 6.57281 64.6362 6.57281C64.1905 6.57281 63.8487 6.65206 63.6109 6.81056C63.3732 6.96907 63.2543 7.20187 63.2543 7.50897C63.2543 7.717 63.3187 7.89037 63.4475 8.02906C63.5862 8.16775 63.8041 8.29653 64.1013 8.41541C64.4084 8.52438 64.8443 8.63831 65.4089 8.75718C66.3302 8.92559 67.0633 9.13858 67.6082 9.39615C68.1629 9.64381 68.5691 9.97073 68.8267 10.3769C69.0842 10.7731 69.213 11.2734 69.213 11.8777C69.213 12.5415 69.0199 13.121 68.6335 13.6163C68.2571 14.1017 67.7271 14.4782 67.0435 14.7456C66.3699 15.0032 65.5972 15.132 64.7254 15.132Z" fill="#0493D3"/>
<path d="M71.2869 7.78483C71.0151 7.78483 70.764 7.71826 70.5338 7.58512C70.3063 7.4492 70.1247 7.26752 69.9887 7.04006C69.8556 6.80984 69.789 6.55881 69.789 6.28697C69.789 6.01514 69.8556 5.7655 69.9887 5.53805C70.1247 5.30782 70.3063 5.12613 70.5338 4.99299C70.764 4.85707 71.0151 4.78912 71.2869 4.78912C71.5587 4.78912 71.8084 4.85707 72.0358 4.99299C72.266 5.12613 72.4477 5.30782 72.5809 5.53805C72.7168 5.7655 72.7847 6.01514 72.7847 6.28697C72.7847 6.55881 72.7168 6.80984 72.5809 7.04006C72.4477 7.26752 72.266 7.4492 72.0358 7.58512C71.8084 7.71826 71.5587 7.78483 71.2869 7.78483ZM71.2869 7.45197C71.4949 7.45197 71.6863 7.39927 71.8611 7.29387C72.0358 7.18846 72.1745 7.047 72.2771 6.86947C72.3798 6.68918 72.4311 6.49501 72.4311 6.28697C72.4311 6.07616 72.3798 5.882 72.2771 5.70447C72.1745 5.52695 72.0358 5.38549 71.8611 5.28008C71.6863 5.17468 71.4949 5.12197 71.2869 5.12197C71.0761 5.12197 70.8833 5.17468 70.7085 5.28008C70.5338 5.38271 70.3951 5.52418 70.2925 5.70447C70.1926 5.882 70.1427 6.07616 70.1427 6.28697C70.1427 6.49778 70.1926 6.69195 70.2925 6.86947C70.3951 7.047 70.5338 7.18846 70.7085 7.29387C70.8833 7.39927 71.0761 7.45197 71.2869 7.45197ZM70.771 7.04422C70.7432 7.04422 70.721 7.0359 70.7044 7.01926C70.6877 7.00262 70.6794 6.98043 70.6794 6.95269V5.61294C70.6794 5.5852 70.6877 5.56301 70.7044 5.54637C70.721 5.52972 70.7432 5.5214 70.771 5.5214H71.3493C71.5268 5.5214 71.6752 5.56301 71.7945 5.64622C71.9165 5.72666 71.9776 5.85426 71.9776 6.02901C71.9776 6.13441 71.954 6.22318 71.9068 6.2953C71.8597 6.36741 71.7973 6.4215 71.7196 6.45756L71.9443 6.89444C71.9554 6.91663 71.9609 6.93605 71.9609 6.95269C71.9609 6.97765 71.9526 6.99984 71.936 7.01926C71.9221 7.0359 71.8999 7.04422 71.8694 7.04422H71.6281C71.567 7.04422 71.5268 7.01787 71.5074 6.96517L71.3077 6.53662H71.1121V6.95269C71.1121 6.98043 71.1038 7.00262 71.0872 7.01926C71.0705 7.0359 71.0483 7.04422 71.0206 7.04422H70.771ZM71.3451 6.19128C71.4089 6.19128 71.4561 6.17602 71.4866 6.14551C71.5171 6.115 71.5324 6.07616 71.5324 6.02901C71.5324 5.97908 71.5171 5.93886 71.4866 5.90835C71.4561 5.87784 71.4089 5.86258 71.3451 5.86258H71.1121V6.19128H71.3451Z" fill="#0493D3"/>
<path d="M11.0649 20.0013C11.0352 20.0013 11.0084 19.9909 10.9847 19.9701C10.9639 19.9463 10.9535 19.9196 10.9535 19.8898V16.9922C10.9535 16.9595 10.9639 16.9328 10.9847 16.9119C11.0084 16.8911 11.0352 16.8807 11.0649 16.8807H11.5374C11.6117 16.8807 11.6623 16.909 11.689 16.9654L12.7767 18.6773V16.9922C12.7767 16.9595 12.7871 16.9328 12.8079 16.9119C12.8317 16.8911 12.8585 16.8807 12.8882 16.8807H13.4231C13.4558 16.8807 13.4826 16.8911 13.5034 16.9119C13.5242 16.9328 13.5346 16.9595 13.5346 16.9922V19.8854C13.5346 19.9181 13.5242 19.9463 13.5034 19.9701C13.4826 19.9909 13.4558 20.0013 13.4231 20.0013H12.9461C12.8808 20.0013 12.8317 19.973 12.799 19.9166L11.7113 18.2672V19.8898C11.7113 19.9196 11.7009 19.9463 11.6801 19.9701C11.6593 19.9909 11.6325 20.0013 11.5999 20.0013H11.0649ZM14.804 20.0459C14.6465 20.0459 14.5023 20.0161 14.3716 19.9567C14.2438 19.8943 14.1427 19.8111 14.0684 19.7071C13.9971 19.6001 13.9614 19.4827 13.9614 19.3549C13.9614 19.1498 14.0446 18.9849 14.2111 18.8601C14.3805 18.7352 14.6123 18.649 14.9065 18.6015L15.4637 18.5168V18.4544C15.4637 18.3415 15.44 18.2582 15.3924 18.2047C15.3449 18.1512 15.2646 18.1245 15.1517 18.1245C15.0833 18.1245 15.0269 18.1364 14.9823 18.1602C14.9377 18.1839 14.8916 18.2166 14.8441 18.2582C14.8025 18.2939 14.7713 18.3177 14.7505 18.3296C14.7416 18.3533 14.7252 18.3652 14.7014 18.3652H14.2155C14.1858 18.3652 14.1605 18.3563 14.1397 18.3385C14.1219 18.3177 14.1145 18.2939 14.1175 18.2672C14.1204 18.1869 14.1591 18.0978 14.2334 17.9997C14.3106 17.9016 14.4265 17.8169 14.5811 17.7456C14.7386 17.6743 14.9318 17.6386 15.1606 17.6386C15.5262 17.6386 15.7966 17.7203 15.9719 17.8838C16.1473 18.0443 16.235 18.2612 16.235 18.5346V19.8898C16.235 19.9196 16.2246 19.9463 16.2038 19.9701C16.183 19.9909 16.1562 20.0013 16.1235 20.0013H15.6064C15.5767 20.0013 15.5499 19.9909 15.5262 19.9701C15.5054 19.9463 15.495 19.9196 15.495 19.8898V19.7338C15.4296 19.8259 15.3374 19.9017 15.2186 19.9612C15.1027 20.0176 14.9645 20.0459 14.804 20.0459ZM15.0135 19.5377C15.1502 19.5377 15.2602 19.4931 15.3434 19.4039C15.4296 19.3148 15.4727 19.184 15.4727 19.0116V18.9492L15.0937 19.0161C14.8263 19.0636 14.6925 19.1573 14.6925 19.2969C14.6925 19.3712 14.7237 19.4307 14.7861 19.4752C14.8486 19.5169 14.9243 19.5377 15.0135 19.5377ZM17.9064 20.0013C17.2912 20.0013 16.9836 19.7085 16.9836 19.1231V18.2672H16.6359C16.6032 18.2672 16.575 18.2568 16.5512 18.2359C16.5304 18.2151 16.52 18.1884 16.52 18.1557V17.7946C16.52 17.7619 16.5304 17.7352 16.5512 17.7144C16.575 17.6936 16.6032 17.6832 16.6359 17.6832H16.9836V16.9476C16.9836 16.9149 16.994 16.8882 17.0148 16.8674C17.0386 16.8466 17.0653 16.8362 17.0951 16.8362H17.6122C17.6449 16.8362 17.6716 16.8466 17.6924 16.8674C17.7132 16.8882 17.7236 16.9149 17.7236 16.9476V17.6832H18.2809C18.3136 17.6832 18.3403 17.6936 18.3611 17.7144C18.3849 17.7352 18.3968 17.7619 18.3968 17.7946V18.1557C18.3968 18.1884 18.3849 18.2151 18.3611 18.2359C18.3403 18.2568 18.3136 18.2672 18.2809 18.2672H17.7236V19.0607C17.7236 19.2806 17.8083 19.3905 17.9777 19.3905H18.321C18.3537 19.3905 18.3804 19.4009 18.4012 19.4218C18.422 19.4426 18.4324 19.4693 18.4324 19.502V19.8898C18.4324 19.9196 18.422 19.9463 18.4012 19.9701C18.3804 19.9909 18.3537 20.0013 18.321 20.0013H17.9064ZM18.9085 17.3488C18.8758 17.3488 18.8491 17.3384 18.8283 17.3176C18.8075 17.2968 18.7971 17.2701 18.7971 17.2374V16.8362C18.7971 16.8035 18.8075 16.7767 18.8283 16.7559C18.8491 16.7351 18.8758 16.7247 18.9085 16.7247H19.4435C19.4762 16.7247 19.5029 16.7351 19.5237 16.7559C19.5445 16.7767 19.5549 16.8035 19.5549 16.8362V17.2374C19.5549 17.2701 19.5445 17.2968 19.5237 17.3176C19.5029 17.3384 19.4762 17.3488 19.4435 17.3488H18.9085ZM18.913 20.0013C18.8803 20.0013 18.8535 19.9909 18.8327 19.9701C18.8119 19.9493 18.8015 19.9225 18.8015 19.8898V17.7946C18.8015 17.7619 18.8119 17.7352 18.8327 17.7144C18.8535 17.6936 18.8803 17.6832 18.913 17.6832H19.439C19.4717 17.6832 19.4985 17.6936 19.5193 17.7144C19.5401 17.7352 19.5505 17.7619 19.5505 17.7946V19.8898C19.5505 19.9196 19.5401 19.9463 19.5193 19.9701C19.4985 19.9909 19.4717 20.0013 19.439 20.0013H18.913ZM21.1737 20.0459C20.8052 20.0459 20.5214 19.9582 20.3223 19.7828C20.1232 19.6075 20.0147 19.3608 19.9968 19.0428C19.9939 19.0042 19.9924 18.9373 19.9924 18.8422C19.9924 18.7471 19.9939 18.6803 19.9968 18.6416C20.0147 18.3266 20.1261 18.0814 20.3312 17.9061C20.5363 17.7277 20.8171 17.6386 21.1737 17.6386C21.5333 17.6386 21.8157 17.7277 22.0207 17.9061C22.2258 18.0814 22.3373 18.3266 22.3551 18.6416C22.3581 18.6803 22.3595 18.7471 22.3595 18.8422C22.3595 18.9373 22.3581 19.0042 22.3551 19.0428C22.3373 19.3608 22.2288 19.6075 22.0297 19.7828C21.8305 19.9582 21.5452 20.0459 21.1737 20.0459ZM21.1737 19.502C21.3045 19.502 21.4011 19.4634 21.4635 19.3861C21.5259 19.3058 21.5616 19.184 21.5705 19.0205C21.5735 18.9908 21.5749 18.9314 21.5749 18.8422C21.5749 18.7531 21.5735 18.6936 21.5705 18.6639C21.5616 18.5034 21.5244 18.3831 21.459 18.3028C21.3966 18.2226 21.3015 18.1825 21.1737 18.1825C20.9271 18.1825 20.7963 18.3429 20.7814 18.6639L20.777 18.8422L20.7814 19.0205C20.7874 19.184 20.8216 19.3058 20.884 19.3861C20.9494 19.4634 21.0459 19.502 21.1737 19.502ZM22.9138 20.0013C22.8811 20.0013 22.8543 19.9909 22.8335 19.9701C22.8127 19.9493 22.8023 19.9225 22.8023 19.8898V17.7946C22.8023 17.7619 22.8127 17.7352 22.8335 17.7144C22.8543 17.6936 22.8811 17.6832 22.9138 17.6832H23.4264C23.4591 17.6832 23.4859 17.6936 23.5067 17.7144C23.5305 17.7352 23.5423 17.7619 23.5423 17.7946V17.964C23.6226 17.8659 23.7251 17.7872 23.8499 17.7277C23.9777 17.6683 24.1219 17.6386 24.2824 17.6386C24.5439 17.6386 24.7564 17.7277 24.9198 17.9061C25.0833 18.0814 25.165 18.3281 25.165 18.6461V19.8898C25.165 19.9196 25.1546 19.9463 25.1338 19.9701C25.113 19.9909 25.0863 20.0013 25.0536 20.0013H24.4919C24.4622 20.0013 24.4354 19.9909 24.4116 19.9701C24.3908 19.9463 24.3804 19.9196 24.3804 19.8898V18.6728C24.3804 18.5331 24.3463 18.4262 24.2779 18.3519C24.2095 18.2746 24.1115 18.2359 23.9837 18.2359C23.8589 18.2359 23.7608 18.2746 23.6895 18.3519C23.6181 18.4262 23.5825 18.5331 23.5825 18.6728V19.8898C23.5825 19.9196 23.5721 19.9463 23.5513 19.9701C23.5305 19.9909 23.5037 20.0013 23.471 20.0013H22.9138ZM26.3623 20.0459C26.2048 20.0459 26.0607 20.0161 25.9299 19.9567C25.8021 19.8943 25.7011 19.8111 25.6268 19.7071C25.5554 19.6001 25.5198 19.4827 25.5198 19.3549C25.5198 19.1498 25.603 18.9849 25.7694 18.8601C25.9388 18.7352 26.1706 18.649 26.4649 18.6015L27.0221 18.5168V18.4544C27.0221 18.3415 26.9983 18.2582 26.9508 18.2047C26.9032 18.1512 26.823 18.1245 26.71 18.1245C26.6417 18.1245 26.5852 18.1364 26.5406 18.1602C26.4961 18.1839 26.45 18.2166 26.4024 18.2582C26.3608 18.2939 26.3296 18.3177 26.3088 18.3296C26.2999 18.3533 26.2836 18.3652 26.2598 18.3652H25.7739C25.7442 18.3652 25.7189 18.3563 25.6981 18.3385C25.6803 18.3177 25.6728 18.2939 25.6758 18.2672C25.6788 18.1869 25.7174 18.0978 25.7917 17.9997C25.869 17.9016 25.9849 17.8169 26.1394 17.7456C26.2969 17.6743 26.4901 17.6386 26.719 17.6386C27.0845 17.6386 27.355 17.7203 27.5303 17.8838C27.7056 18.0443 27.7933 18.2612 27.7933 18.5346V19.8898C27.7933 19.9196 27.7829 19.9463 27.7621 19.9701C27.7413 19.9909 27.7146 20.0013 27.6819 20.0013H27.1647C27.135 20.0013 27.1083 19.9909 27.0845 19.9701C27.0637 19.9463 27.0533 19.9196 27.0533 19.8898V19.7338C26.9879 19.8259 26.8958 19.9017 26.7769 19.9612C26.661 20.0176 26.5228 20.0459 26.3623 20.0459ZM26.5718 19.5377C26.7086 19.5377 26.8185 19.4931 26.9017 19.4039C26.9879 19.3148 27.031 19.184 27.031 19.0116V18.9492L26.6521 19.0161C26.3846 19.0636 26.2509 19.1573 26.2509 19.2969C26.2509 19.3712 26.2821 19.4307 26.3445 19.4752C26.4069 19.5169 26.4827 19.5377 26.5718 19.5377ZM28.4078 20.0013C28.3781 20.0013 28.3513 19.9909 28.3276 19.9701C28.3068 19.9463 28.2964 19.9196 28.2964 19.8898V16.9476C28.2964 16.9149 28.3068 16.8882 28.3276 16.8674C28.3513 16.8466 28.3781 16.8362 28.4078 16.8362H28.9338C28.9665 16.8362 28.9933 16.8466 29.0141 16.8674C29.0349 16.8882 29.0453 16.9149 29.0453 16.9476V19.8898C29.0453 19.9225 29.0349 19.9493 29.0141 19.9701C28.9933 19.9909 28.9665 20.0013 28.9338 20.0013H28.4078ZM30.6814 20.0013C30.6517 20.0013 30.625 19.9909 30.6012 19.9701C30.5804 19.9463 30.57 19.9196 30.57 19.8898V16.9922C30.57 16.9595 30.5804 16.9328 30.6012 16.9119C30.625 16.8911 30.6517 16.8807 30.6814 16.8807H31.1629C31.2342 16.8807 31.2862 16.9134 31.3189 16.9788L32.1035 18.3831L32.8881 16.9788C32.9208 16.9134 32.9728 16.8807 33.0441 16.8807H33.5211C33.5538 16.8807 33.5806 16.8911 33.6014 16.9119C33.6252 16.9328 33.637 16.9595 33.637 16.9922V19.8898C33.637 19.9225 33.6252 19.9493 33.6014 19.9701C33.5806 19.9909 33.5538 20.0013 33.5211 20.0013H32.9906C32.958 20.0013 32.9297 19.9909 32.9059 19.9701C32.8851 19.9493 32.8747 19.9225 32.8747 19.8898V18.2181L32.3755 19.1498C32.3368 19.2182 32.2848 19.2524 32.2194 19.2524H31.9876C31.949 19.2524 31.9178 19.2434 31.894 19.2256C31.8702 19.2078 31.8494 19.1825 31.8316 19.1498L31.3278 18.2181V19.8898C31.3278 19.9196 31.3174 19.9463 31.2966 19.9701C31.2758 19.9909 31.2491 20.0013 31.2164 20.0013H30.6814ZM35.3093 20.0459C34.9408 20.0459 34.657 19.9582 34.4579 19.7828C34.2587 19.6075 34.1503 19.3608 34.1324 19.0428C34.1295 19.0042 34.128 18.9373 34.128 18.8422C34.128 18.7471 34.1295 18.6803 34.1324 18.6416C34.1503 18.3266 34.2617 18.0814 34.4668 17.9061C34.6718 17.7277 34.9527 17.6386 35.3093 17.6386C35.6689 17.6386 35.9513 17.7277 36.1563 17.9061C36.3614 18.0814 36.4728 18.3266 36.4907 18.6416C36.4936 18.6803 36.4951 18.7471 36.4951 18.8422C36.4951 18.9373 36.4936 19.0042 36.4907 19.0428C36.4728 19.3608 36.3644 19.6075 36.1652 19.7828C35.9661 19.9582 35.6808 20.0459 35.3093 20.0459ZM35.3093 19.502C35.4401 19.502 35.5367 19.4634 35.5991 19.3861C35.6615 19.3058 35.6972 19.184 35.7061 19.0205C35.709 18.9908 35.7105 18.9314 35.7105 18.8422C35.7105 18.7531 35.709 18.6936 35.7061 18.6639C35.6972 18.5034 35.66 18.3831 35.5946 18.3028C35.5322 18.2226 35.4371 18.1825 35.3093 18.1825C35.0626 18.1825 34.9319 18.3429 34.917 18.6639L34.9126 18.8422L34.917 19.0205C34.923 19.184 34.9571 19.3058 35.0196 19.3861C35.0849 19.4634 35.1815 19.502 35.3093 19.502ZM38.115 20.0013C37.4998 20.0013 37.1922 19.7085 37.1922 19.1231V18.2672H36.8445C36.8118 18.2672 36.7836 18.2568 36.7598 18.2359C36.739 18.2151 36.7286 18.1884 36.7286 18.1557V17.7946C36.7286 17.7619 36.739 17.7352 36.7598 17.7144C36.7836 17.6936 36.8118 17.6832 36.8445 17.6832H37.1922V16.9476C37.1922 16.9149 37.2026 16.8882 37.2234 16.8674C37.2472 16.8466 37.274 16.8362 37.3037 16.8362H37.8208C37.8535 16.8362 37.8802 16.8466 37.901 16.8674C37.9218 16.8882 37.9322 16.9149 37.9322 16.9476V17.6832H38.4895C38.5222 17.6832 38.5489 17.6936 38.5697 17.7144C38.5935 17.7352 38.6054 17.7619 38.6054 17.7946V18.1557C38.6054 18.1884 38.5935 18.2151 38.5697 18.2359C38.5489 18.2568 38.5222 18.2672 38.4895 18.2672H37.9322V19.0607C37.9322 19.2806 38.0169 19.3905 38.1863 19.3905H38.5296C38.5623 19.3905 38.589 19.4009 38.6098 19.4218C38.6306 19.4426 38.641 19.4693 38.641 19.502V19.8898C38.641 19.9196 38.6306 19.9463 38.6098 19.9701C38.589 19.9909 38.5623 20.0013 38.5296 20.0013H38.115ZM40.1068 20.0459C39.7383 20.0459 39.4545 19.9582 39.2553 19.7828C39.0562 19.6075 38.9477 19.3608 38.9299 19.0428C38.9269 19.0042 38.9254 18.9373 38.9254 18.8422C38.9254 18.7471 38.9269 18.6803 38.9299 18.6416C38.9477 18.3266 39.0592 18.0814 39.2642 17.9061C39.4693 17.7277 39.7502 17.6386 40.1068 17.6386C40.4664 17.6386 40.7487 17.7277 40.9538 17.9061C41.1589 18.0814 41.2703 18.3266 41.2881 18.6416C41.2911 18.6803 41.2926 18.7471 41.2926 18.8422C41.2926 18.9373 41.2911 19.0042 41.2881 19.0428C41.2703 19.3608 41.1618 19.6075 40.9627 19.7828C40.7636 19.9582 40.4783 20.0459 40.1068 20.0459ZM40.1068 19.502C40.2376 19.502 40.3341 19.4634 40.3966 19.3861C40.459 19.3058 40.4946 19.184 40.5035 19.0205C40.5065 18.9908 40.508 18.9314 40.508 18.8422C40.508 18.7531 40.5065 18.6936 40.5035 18.6639C40.4946 18.5034 40.4575 18.3831 40.3921 18.3028C40.3297 18.2226 40.2346 18.1825 40.1068 18.1825C39.8601 18.1825 39.7294 18.3429 39.7145 18.6639L39.71 18.8422L39.7145 19.0205C39.7204 19.184 39.7546 19.3058 39.817 19.3861C39.8824 19.4634 39.979 19.502 40.1068 19.502ZM41.8468 20.0013C41.8141 20.0013 41.7874 19.9909 41.7666 19.9701C41.7458 19.9493 41.7354 19.9225 41.7354 19.8898V17.7946C41.7354 17.7619 41.7458 17.7352 41.7666 17.7144C41.7874 17.6936 41.8141 17.6832 41.8468 17.6832H42.3595C42.3922 17.6832 42.4189 17.6951 42.4397 17.7188C42.4635 17.7396 42.4754 17.7649 42.4754 17.7946V17.9729C42.6389 17.7798 42.8588 17.6832 43.1352 17.6832H43.3313C43.364 17.6832 43.3908 17.6936 43.4116 17.7144C43.4324 17.7352 43.4428 17.7619 43.4428 17.7946V18.2538C43.4428 18.2835 43.4324 18.3102 43.4116 18.334C43.3908 18.3548 43.364 18.3652 43.3313 18.3652H42.8989C42.7771 18.3652 42.682 18.3994 42.6136 18.4678C42.5482 18.5331 42.5155 18.6268 42.5155 18.7486V19.8898C42.5155 19.9225 42.5036 19.9493 42.4799 19.9701C42.4591 19.9909 42.4323 20.0013 42.3996 20.0013H41.8468ZM45.4448 20.0013C45.3497 20.0013 45.2888 19.9567 45.262 19.8675L44.3526 17.0145L44.3437 16.9744C44.3437 16.9506 44.3526 16.9298 44.3704 16.9119C44.3912 16.8911 44.415 16.8807 44.4418 16.8807H44.9945C45.0362 16.8807 45.0703 16.8926 45.0971 16.9164C45.1268 16.9402 45.1461 16.9669 45.155 16.9967L45.7881 19.0562L46.4166 16.9967C46.4255 16.9669 46.4434 16.9402 46.4701 16.9164C46.4998 16.8926 46.5355 16.8807 46.5771 16.8807H47.1343C47.1581 16.8807 47.1789 16.8911 47.1968 16.9119C47.2176 16.9298 47.228 16.9506 47.228 16.9744L47.219 17.0145L46.3096 19.8675C46.2829 19.9567 46.222 20.0013 46.1269 20.0013H45.4448ZM48.4256 20.0459C48.0689 20.0459 47.7881 19.9493 47.583 19.7561C47.378 19.5629 47.271 19.2821 47.2621 18.9136V18.7575C47.2739 18.4068 47.3824 18.1334 47.5875 17.9373C47.7955 17.7381 48.0734 17.6386 48.4211 17.6386C48.6737 17.6386 48.8862 17.6906 49.0586 17.7946C49.2339 17.8957 49.3647 18.0353 49.4509 18.2137C49.54 18.392 49.5846 18.597 49.5846 18.8289V18.9358C49.5846 18.9656 49.5742 18.9923 49.5534 19.0161C49.5326 19.0369 49.5059 19.0473 49.4732 19.0473H48.0466V19.0785C48.0526 19.2182 48.0868 19.3311 48.1492 19.4173C48.2116 19.5035 48.3022 19.5466 48.4211 19.5466C48.4954 19.5466 48.5563 19.5317 48.6039 19.502C48.6514 19.4693 48.6945 19.4307 48.7332 19.3861C48.7599 19.3534 48.7807 19.3341 48.7956 19.3281C48.8134 19.3192 48.8402 19.3148 48.8758 19.3148H49.4286C49.4553 19.3148 49.4776 19.3237 49.4955 19.3415C49.5163 19.3564 49.5267 19.3772 49.5267 19.4039C49.5267 19.4812 49.4821 19.5704 49.3929 19.6714C49.3067 19.7724 49.1804 19.8601 49.014 19.9344C48.8476 20.0087 48.6514 20.0459 48.4256 20.0459ZM48.8 18.606V18.597C48.8 18.4514 48.7659 18.337 48.6975 18.2538C48.6321 18.1676 48.54 18.1245 48.4211 18.1245C48.3052 18.1245 48.2131 18.1676 48.1447 18.2538C48.0793 18.337 48.0466 18.4514 48.0466 18.597V18.606H48.8ZM50.114 20.0013C50.0843 20.0013 50.0575 19.9909 50.0338 19.9701C50.013 19.9463 50.0026 19.9196 50.0026 19.8898V16.9476C50.0026 16.9149 50.013 16.8882 50.0338 16.8674C50.0575 16.8466 50.0843 16.8362 50.114 16.8362H50.6846C50.7173 16.8362 50.7441 16.8466 50.7649 16.8674C50.7857 16.8882 50.7961 16.9149 50.7961 16.9476V17.9417C50.9744 17.7396 51.2092 17.6386 51.5004 17.6386C51.6728 17.6386 51.8258 17.6772 51.9596 17.7545C52.0963 17.8318 52.2033 17.9462 52.2805 18.0978C52.3578 18.2493 52.3965 18.4321 52.3965 18.6461V19.8898C52.3965 19.9196 52.3861 19.9463 52.3652 19.9701C52.3444 19.9909 52.3177 20.0013 52.285 20.0013H51.7099C51.6802 20.0013 51.6535 19.9909 51.6297 19.9701C51.6089 19.9463 51.5985 19.9196 51.5985 19.8898V18.6728C51.5985 18.5331 51.5643 18.4262 51.496 18.3519C51.4306 18.2746 51.334 18.2359 51.2062 18.2359C51.0784 18.2359 50.9774 18.2746 50.9031 18.3519C50.8317 18.4262 50.7961 18.5331 50.7961 18.6728V19.8898C50.7961 19.9225 50.7857 19.9493 50.7649 19.9701C50.7441 19.9909 50.7173 20.0013 50.6846 20.0013H50.114ZM53.0089 17.3488C52.9762 17.3488 52.9495 17.3384 52.9287 17.3176C52.9079 17.2968 52.8975 17.2701 52.8975 17.2374V16.8362C52.8975 16.8035 52.9079 16.7767 52.9287 16.7559C52.9495 16.7351 52.9762 16.7247 53.0089 16.7247H53.5439C53.5766 16.7247 53.6033 16.7351 53.6241 16.7559C53.6449 16.7767 53.6553 16.8035 53.6553 16.8362V17.2374C53.6553 17.2701 53.6449 17.2968 53.6241 17.3176C53.6033 17.3384 53.5766 17.3488 53.5439 17.3488H53.0089ZM53.0134 20.0013C52.9807 20.0013 52.9539 19.9909 52.9331 19.9701C52.9123 19.9493 52.9019 19.9225 52.9019 19.8898V17.7946C52.9019 17.7619 52.9123 17.7352 52.9331 17.7144C52.9539 17.6936 52.9807 17.6832 53.0134 17.6832H53.5394C53.5721 17.6832 53.5989 17.6936 53.6197 17.7144C53.6405 17.7352 53.6509 17.7619 53.6509 17.7946V19.8898C53.6509 19.9196 53.6405 19.9463 53.6197 19.9701C53.5989 19.9909 53.5721 20.0013 53.5394 20.0013H53.0134ZM55.2429 20.0459C54.9071 20.0459 54.6352 19.9567 54.4271 19.7784C54.2191 19.5971 54.1077 19.346 54.0928 19.025L54.0883 18.8467L54.0928 18.6639C54.1047 18.3429 54.2146 18.0918 54.4227 17.9105C54.6337 17.7292 54.9071 17.6386 55.2429 17.6386C55.4955 17.6386 55.708 17.6847 55.8804 17.7768C56.0558 17.8659 56.185 17.9744 56.2683 18.1022C56.3544 18.227 56.4005 18.3415 56.4064 18.4455C56.4094 18.4752 56.399 18.5019 56.3752 18.5257C56.3544 18.5465 56.3277 18.5569 56.295 18.5569H55.7288C55.6962 18.5569 55.6709 18.5495 55.6531 18.5346C55.6352 18.5198 55.6189 18.4975 55.604 18.4678C55.5684 18.3756 55.5223 18.3102 55.4658 18.2716C55.4123 18.233 55.3425 18.2137 55.2563 18.2137C55.0126 18.2137 54.8863 18.3712 54.8774 18.6862L54.8729 18.8556L54.8774 19.0027C54.8833 19.1632 54.9175 19.2821 54.9799 19.3593C55.0453 19.4336 55.1374 19.4708 55.2563 19.4708C55.3484 19.4708 55.4212 19.4515 55.4747 19.4128C55.5282 19.3742 55.5713 19.3088 55.604 19.2167C55.6189 19.187 55.6352 19.1647 55.6531 19.1498C55.6709 19.135 55.6962 19.1275 55.7288 19.1275H56.295C56.3247 19.1275 56.35 19.1379 56.3708 19.1587C56.3946 19.1766 56.4064 19.2003 56.4064 19.2301C56.4064 19.3252 56.3648 19.4366 56.2816 19.5644C56.2014 19.6922 56.0736 19.8051 55.8982 19.9032C55.7229 19.9983 55.5045 20.0459 55.2429 20.0459ZM56.9184 20.0013C56.8887 20.0013 56.8619 19.9909 56.8382 19.9701C56.8174 19.9463 56.807 19.9196 56.807 19.8898V16.9476C56.807 16.9149 56.8174 16.8882 56.8382 16.8674C56.8619 16.8466 56.8887 16.8362 56.9184 16.8362H57.4444C57.4771 16.8362 57.5039 16.8466 57.5247 16.8674C57.5455 16.8882 57.5559 16.9149 57.5559 16.9476V19.8898C57.5559 19.9225 57.5455 19.9493 57.5247 19.9701C57.5039 19.9909 57.4771 20.0013 57.4444 20.0013H56.9184ZM59.1524 20.0459C58.7958 20.0459 58.5149 19.9493 58.3099 19.7561C58.1048 19.5629 57.9978 19.2821 57.9889 18.9136V18.7575C58.0008 18.4068 58.1093 18.1334 58.3143 17.9373C58.5224 17.7381 58.8002 17.6386 59.148 17.6386C59.4006 17.6386 59.6131 17.6906 59.7854 17.7946C59.9608 17.8957 60.0915 18.0353 60.1777 18.2137C60.2669 18.392 60.3115 18.597 60.3115 18.8289V18.9358C60.3115 18.9656 60.3011 18.9923 60.2803 19.0161C60.2595 19.0369 60.2327 19.0473 60.2 19.0473H58.7735V19.0785C58.7794 19.2182 58.8136 19.3311 58.876 19.4173C58.9384 19.5035 59.0291 19.5466 59.148 19.5466C59.2223 19.5466 59.2832 19.5317 59.3307 19.502C59.3783 19.4693 59.4214 19.4307 59.46 19.3861C59.4868 19.3534 59.5076 19.3341 59.5224 19.3281C59.5402 19.3192 59.567 19.3148 59.6027 19.3148H60.1554C60.1822 19.3148 60.2045 19.3237 60.2223 19.3415C60.2431 19.3564 60.2535 19.3772 60.2535 19.4039C60.2535 19.4812 60.2089 19.5704 60.1198 19.6714C60.0336 19.7724 59.9073 19.8601 59.7409 19.9344C59.5744 20.0087 59.3783 20.0459 59.1524 20.0459ZM59.5269 18.606V18.597C59.5269 18.4514 59.4927 18.337 59.4243 18.2538C59.359 18.1676 59.2668 18.1245 59.148 18.1245C59.032 18.1245 58.9399 18.1676 58.8716 18.2538C58.8062 18.337 58.7735 18.4514 58.7735 18.597V18.606H59.5269ZM62.421 20.0013C62.3912 20.0013 62.3645 19.9909 62.3407 19.9701C62.3199 19.9463 62.3095 19.9196 62.3095 19.8898V17.5806H61.516C61.4863 17.5806 61.4595 17.5702 61.4358 17.5494C61.415 17.5257 61.4046 17.4989 61.4046 17.4692V16.9922C61.4046 16.9595 61.415 16.9328 61.4358 16.9119C61.4595 16.8911 61.4863 16.8807 61.516 16.8807H63.9144C63.9471 16.8807 63.9738 16.8911 63.9946 16.9119C64.0154 16.9328 64.0258 16.9595 64.0258 16.9922V17.4692C64.0258 17.5019 64.0154 17.5286 63.9946 17.5494C63.9738 17.5702 63.9471 17.5806 63.9144 17.5806H63.1209V19.8898C63.1209 19.9196 63.1105 19.9463 63.0896 19.9701C63.0688 19.9909 63.0421 20.0013 63.0094 20.0013H62.421ZM64.4497 17.3488C64.417 17.3488 64.3903 17.3384 64.3695 17.3176C64.3487 17.2968 64.3383 17.2701 64.3383 17.2374V16.8362C64.3383 16.8035 64.3487 16.7767 64.3695 16.7559C64.3903 16.7351 64.417 16.7247 64.4497 16.7247H64.9847C65.0174 16.7247 65.0441 16.7351 65.0649 16.7559C65.0857 16.7767 65.0961 16.8035 65.0961 16.8362V17.2374C65.0961 17.2701 65.0857 17.2968 65.0649 17.3176C65.0441 17.3384 65.0174 17.3488 64.9847 17.3488H64.4497ZM64.4542 20.0013C64.4215 20.0013 64.3948 19.9909 64.3739 19.9701C64.3531 19.9493 64.3427 19.9225 64.3427 19.8898V17.7946C64.3427 17.7619 64.3531 17.7352 64.3739 17.7144C64.3948 17.6936 64.4215 17.6832 64.4542 17.6832H64.9802C65.0129 17.6832 65.0397 17.6936 65.0605 17.7144C65.0813 17.7352 65.0917 17.7619 65.0917 17.7946V19.8898C65.0917 19.9196 65.0813 19.9463 65.0605 19.9701C65.0397 19.9909 65.0129 20.0013 64.9802 20.0013H64.4542ZM66.8041 20.0013C66.1889 20.0013 65.8813 19.7085 65.8813 19.1231V18.2672H65.5336C65.5009 18.2672 65.4727 18.2568 65.4489 18.2359C65.4281 18.2151 65.4177 18.1884 65.4177 18.1557V17.7946C65.4177 17.7619 65.4281 17.7352 65.4489 17.7144C65.4727 17.6936 65.5009 17.6832 65.5336 17.6832H65.8813V16.9476C65.8813 16.9149 65.8917 16.8882 65.9125 16.8674C65.9363 16.8466 65.963 16.8362 65.9928 16.8362H66.5099C66.5426 16.8362 66.5693 16.8466 66.5901 16.8674C66.6109 16.8882 66.6213 16.9149 66.6213 16.9476V17.6832H67.1786C67.2113 17.6832 67.238 17.6936 67.2588 17.7144C67.2826 17.7352 67.2945 17.7619 67.2945 17.7946V18.1557C67.2945 18.1884 67.2826 18.2151 67.2588 18.2359C67.238 18.2568 67.2113 18.2672 67.1786 18.2672H66.6213V19.0607C66.6213 19.2806 66.706 19.3905 66.8754 19.3905H67.2187C67.2514 19.3905 67.2781 19.4009 67.2989 19.4218C67.3197 19.4426 67.3301 19.4693 67.3301 19.502V19.8898C67.3301 19.9196 67.3197 19.9463 67.2989 19.9701C67.2781 19.9909 67.2514 20.0013 67.2187 20.0013H66.8041ZM67.8107 20.0013C67.781 20.0013 67.7542 19.9909 67.7304 19.9701C67.7096 19.9463 67.6992 19.9196 67.6992 19.8898V16.9476C67.6992 16.9149 67.7096 16.8882 67.7304 16.8674C67.7542 16.8466 67.781 16.8362 67.8107 16.8362H68.3367C68.3694 16.8362 68.3962 16.8466 68.417 16.8674C68.4378 16.8882 68.4482 16.9149 68.4482 16.9476V19.8898C68.4482 19.9225 68.4378 19.9493 68.417 19.9701C68.3962 19.9909 68.3694 20.0013 68.3367 20.0013H67.8107ZM70.0447 20.0459C69.6881 20.0459 69.4072 19.9493 69.2021 19.7561C68.9971 19.5629 68.8901 19.2821 68.8812 18.9136V18.7575C68.8931 18.4068 69.0015 18.1334 69.2066 17.9373C69.4146 17.7381 69.6925 17.6386 70.0402 17.6386C70.2928 17.6386 70.5053 17.6906 70.6777 17.7946C70.8531 17.8957 70.9838 18.0353 71.07 18.2137C71.1592 18.392 71.2037 18.597 71.2037 18.8289V18.9358C71.2037 18.9656 71.1933 18.9923 71.1725 19.0161C71.1517 19.0369 71.125 19.0473 71.0923 19.0473H69.6658V19.0785C69.6717 19.2182 69.7059 19.3311 69.7683 19.4173C69.8307 19.5035 69.9214 19.5466 70.0402 19.5466C70.1145 19.5466 70.1755 19.5317 70.223 19.502C70.2706 19.4693 70.3137 19.4307 70.3523 19.3861C70.379 19.3534 70.3998 19.3341 70.4147 19.3281C70.4325 19.3192 70.4593 19.3148 70.4949 19.3148H71.0477C71.0745 19.3148 71.0968 19.3237 71.1146 19.3415C71.1354 19.3564 71.1458 19.3772 71.1458 19.4039C71.1458 19.4812 71.1012 19.5704 71.0121 19.6714C70.9259 19.7724 70.7996 19.8601 70.6331 19.9344C70.4667 20.0087 70.2706 20.0459 70.0447 20.0459ZM70.4192 18.606V18.597C70.4192 18.4514 70.385 18.337 70.3166 18.2538C70.2512 18.1676 70.1591 18.1245 70.0402 18.1245C69.9243 18.1245 69.8322 18.1676 69.7638 18.2538C69.6985 18.337 69.6658 18.4514 69.6658 18.597V18.606H70.4192ZM19.2428 25.0013C19.2131 25.0013 19.1863 24.9909 19.1626 24.9701C19.1418 24.9463 19.1314 24.9196 19.1314 24.8898V21.9922C19.1314 21.9595 19.1418 21.9328 19.1626 21.9119C19.1863 21.8911 19.2131 21.8807 19.2428 21.8807H19.8402C19.8729 21.8807 19.8996 21.8911 19.9204 21.9119C19.9442 21.9328 19.9561 21.9595 19.9561 21.9922V24.8898C19.9561 24.9225 19.9442 24.9493 19.9204 24.9701C19.8996 24.9909 19.8729 25.0013 19.8402 25.0013H19.2428ZM20.6391 25.0013C20.6064 25.0013 20.5797 24.9909 20.5589 24.9701C20.5381 24.9493 20.5277 24.9225 20.5277 24.8898V22.7946C20.5277 22.7619 20.5381 22.7352 20.5589 22.7144C20.5797 22.6936 20.6064 22.6832 20.6391 22.6832H21.1518C21.1845 22.6832 21.2112 22.6936 21.232 22.7144C21.2558 22.7352 21.2677 22.7619 21.2677 22.7946V22.964C21.3479 22.8659 21.4505 22.7872 21.5753 22.7277C21.7031 22.6683 21.8472 22.6386 22.0077 22.6386C22.2692 22.6386 22.4817 22.7277 22.6452 22.9061C22.8086 23.0814 22.8904 23.3281 22.8904 23.6461V24.8898C22.8904 24.9196 22.88 24.9463 22.8592 24.9701C22.8384 24.9909 22.8116 25.0013 22.7789 25.0013H22.2172C22.1875 25.0013 22.1608 24.9909 22.137 24.9701C22.1162 24.9463 22.1058 24.9196 22.1058 24.8898V23.6728C22.1058 23.5331 22.0716 23.4262 22.0032 23.3519C21.9349 23.2746 21.8368 23.2359 21.709 23.2359C21.5842 23.2359 21.4861 23.2746 21.4148 23.3519C21.3435 23.4262 21.3078 23.5331 21.3078 23.6728V24.8898C21.3078 24.9196 21.2974 24.9463 21.2766 24.9701C21.2558 24.9909 21.229 25.0013 21.1964 25.0013H20.6391ZM23.7406 25.0013C23.7109 25.0013 23.6841 24.9909 23.6603 24.9701C23.6395 24.9463 23.6291 24.9196 23.6291 24.8898V23.2672H23.2903C23.2576 23.2672 23.2309 23.2568 23.2101 23.2359C23.1893 23.2151 23.1789 23.1884 23.1789 23.1557V22.7946C23.1789 22.7619 23.1893 22.7352 23.2101 22.7144C23.2309 22.6936 23.2576 22.6832 23.2903 22.6832H23.6291V22.5405C23.6291 22.2463 23.7123 22.0338 23.8788 21.903C24.0482 21.7693 24.2904 21.7024 24.6054 21.7024H24.9531C24.9858 21.7024 25.0126 21.7128 25.0334 21.7336C25.0542 21.7544 25.0646 21.7812 25.0646 21.8139V22.175C25.0646 22.2047 25.0542 22.2314 25.0334 22.2552C25.0126 22.276 24.9858 22.2864 24.9531 22.2864H24.6411C24.543 22.2864 24.4732 22.3102 24.4315 22.3577C24.3899 22.4023 24.3691 22.4707 24.3691 22.5628V22.6832H24.9085C24.9412 22.6832 24.968 22.6936 24.9888 22.7144C25.0096 22.7352 25.02 22.7619 25.02 22.7946V23.1557C25.02 23.1854 25.0096 23.2122 24.9888 23.2359C24.968 23.2568 24.9412 23.2672 24.9085 23.2672H24.3691V24.8898C24.3691 24.9196 24.3587 24.9463 24.3379 24.9701C24.3171 24.9909 24.2904 25.0013 24.2577 25.0013H23.7406ZM26.4087 25.0459C26.0402 25.0459 25.7564 24.9582 25.5573 24.7828C25.3582 24.6075 25.2497 24.3608 25.2318 24.0428C25.2289 24.0042 25.2274 23.9373 25.2274 23.8422C25.2274 23.7471 25.2289 23.6803 25.2318 23.6416C25.2497 23.3266 25.3611 23.0814 25.5662 22.9061C25.7713 22.7277 26.0521 22.6386 26.4087 22.6386C26.7683 22.6386 27.0507 22.7277 27.2557 22.9061C27.4608 23.0814 27.5722 23.3266 27.5901 23.6416C27.5931 23.6803 27.5945 23.7471 27.5945 23.8422C27.5945 23.9373 27.5931 24.0042 27.5901 24.0428C27.5722 24.3608 27.4638 24.6075 27.2647 24.7828C27.0655 24.9582 26.7802 25.0459 26.4087 25.0459ZM26.4087 24.502C26.5395 24.502 26.6361 24.4634 26.6985 24.3861C26.7609 24.3058 26.7966 24.184 26.8055 24.0205C26.8085 23.9908 26.8099 23.9314 26.8099 23.8422C26.8099 23.7531 26.8085 23.6936 26.8055 23.6639C26.7966 23.5034 26.7594 23.3831 26.694 23.3028C26.6316 23.2226 26.5365 23.1825 26.4087 23.1825C26.1621 23.1825 26.0313 23.3429 26.0164 23.6639L26.012 23.8422L26.0164 24.0205C26.0224 24.184 26.0566 24.3058 26.119 24.3861C26.1844 24.4634 26.2809 24.502 26.4087 24.502ZM28.1488 25.0013C28.1161 25.0013 28.0893 24.9909 28.0685 24.9701C28.0477 24.9493 28.0373 24.9225 28.0373 24.8898V22.7946C28.0373 22.7619 28.0477 22.7352 28.0685 22.7144C28.0893 22.6936 28.1161 22.6832 28.1488 22.6832H28.6614C28.6941 22.6832 28.7209 22.6951 28.7417 22.7188C28.7655 22.7396 28.7773 22.7649 28.7773 22.7946V22.9729C28.9408 22.7798 29.1607 22.6832 29.4371 22.6832H29.6333C29.666 22.6832 29.6927 22.6936 29.7135 22.7144C29.7343 22.7352 29.7447 22.7619 29.7447 22.7946V23.2538C29.7447 23.2835 29.7343 23.3102 29.7135 23.334C29.6927 23.3548 29.666 23.3652 29.6333 23.3652H29.2008C29.079 23.3652 28.9839 23.3994 28.9155 23.4678C28.8502 23.5331 28.8175 23.6268 28.8175 23.7486V24.8898C28.8175 24.9225 28.8056 24.9493 28.7818 24.9701C28.761 24.9909 28.7343 25.0013 28.7016 25.0013H28.1488ZM30.1731 25.0013C30.1404 25.0013 30.1137 24.9909 30.0929 24.9701C30.0721 24.9493 30.0617 24.9225 30.0617 24.8898V22.7946C30.0617 22.7619 30.0721 22.7352 30.0929 22.7144C30.1137 22.6936 30.1404 22.6832 30.1731 22.6832H30.659C30.6917 22.6832 30.7185 22.6936 30.7393 22.7144C30.7601 22.7352 30.7705 22.7619 30.7705 22.7946V22.9462C30.8388 22.857 30.9295 22.7842 31.0424 22.7277C31.1583 22.6683 31.2876 22.6386 31.4303 22.6386C31.7572 22.6386 31.983 22.7664 32.1079 23.022C32.1792 22.909 32.2787 22.8169 32.4065 22.7456C32.5343 22.6743 32.671 22.6386 32.8167 22.6386C33.0604 22.6386 33.258 22.7218 33.4096 22.8882C33.5641 23.0517 33.6414 23.2969 33.6414 23.6238V24.8898C33.6414 24.9196 33.631 24.9463 33.6102 24.9701C33.5894 24.9909 33.5626 25.0013 33.5299 25.0013H33.0128C32.9801 25.0013 32.9519 24.9909 32.9281 24.9701C32.9073 24.9493 32.8969 24.9225 32.8969 24.8898V23.655C32.8969 23.5064 32.8657 23.3994 32.8033 23.334C32.7439 23.2686 32.6621 23.2359 32.5581 23.2359C32.463 23.2359 32.3842 23.2701 32.3218 23.3385C32.2594 23.4039 32.2282 23.5094 32.2282 23.655V24.8898C32.2282 24.9196 32.2178 24.9463 32.197 24.9701C32.1762 24.9909 32.1495 25.0013 32.1168 25.0013H31.5997C31.567 25.0013 31.5402 24.9909 31.5194 24.9701C31.4986 24.9493 31.4882 24.9225 31.4882 24.8898V23.655C31.4882 23.5094 31.4555 23.4039 31.3901 23.3385C31.3277 23.2701 31.2475 23.2359 31.1494 23.2359C31.0543 23.2359 30.9741 23.2701 30.9087 23.3385C30.8463 23.4039 30.8151 23.5079 30.8151 23.6505V24.8898C30.8151 24.9196 30.8047 24.9463 30.7839 24.9701C30.7631 24.9909 30.7363 25.0013 30.7036 25.0013H30.1731ZM34.8406 25.0459C34.6831 25.0459 34.539 25.0161 34.4082 24.9567C34.2804 24.8943 34.1794 24.8111 34.1051 24.7071C34.0337 24.6001 33.9981 24.4827 33.9981 24.3549C33.9981 24.1498 34.0813 23.9849 34.2477 23.8601C34.4171 23.7352 34.6489 23.649 34.9432 23.6015L35.5004 23.5168V23.4544C35.5004 23.3415 35.4766 23.2582 35.4291 23.2047C35.3815 23.1512 35.3013 23.1245 35.1883 23.1245C35.12 23.1245 35.0635 23.1364 35.0189 23.1602C34.9744 23.1839 34.9283 23.2166 34.8807 23.2582C34.8391 23.2939 34.8079 23.3177 34.7871 23.3296C34.7782 23.3533 34.7619 23.3652 34.7381 23.3652H34.2522C34.2225 23.3652 34.1972 23.3563 34.1764 23.3385C34.1586 23.3177 34.1511 23.2939 34.1541 23.2672C34.1571 23.1869 34.1957 23.0978 34.27 22.9997C34.3473 22.9016 34.4632 22.8169 34.6177 22.7456C34.7752 22.6743 34.9684 22.6386 35.1973 22.6386C35.5628 22.6386 35.8333 22.7203 36.0086 22.8838C36.1839 23.0443 36.2716 23.2612 36.2716 23.5346V24.8898C36.2716 24.9196 36.2612 24.9463 36.2404 24.9701C36.2196 24.9909 36.1929 25.0013 36.1602 25.0013H35.643C35.6133 25.0013 35.5866 24.9909 35.5628 24.9701C35.542 24.9463 35.5316 24.9196 35.5316 24.8898V24.7338C35.4662 24.8259 35.3741 24.9017 35.2552 24.9612C35.1393 25.0176 35.0011 25.0459 34.8406 25.0459ZM35.0501 24.5377C35.1869 24.5377 35.2968 24.4931 35.38 24.4039C35.4662 24.3148 35.5093 24.184 35.5093 24.0116V23.9492L35.1304 24.0161C34.8629 24.0636 34.7292 24.1573 34.7292 24.2969C34.7292 24.3712 34.7604 24.4307 34.8228 24.4752C34.8852 24.5169 34.961 24.5377 35.0501 24.5377ZM37.9431 25.0013C37.3279 25.0013 37.0203 24.7085 37.0203 24.1231V23.2672H36.6725C36.6399 23.2672 36.6116 23.2568 36.5878 23.2359C36.567 23.2151 36.5566 23.1884 36.5566 23.1557V22.7946C36.5566 22.7619 36.567 22.7352 36.5878 22.7144C36.6116 22.6936 36.6399 22.6832 36.6725 22.6832H37.0203V21.9476C37.0203 21.9149 37.0307 21.8882 37.0515 21.8674C37.0752 21.8466 37.102 21.8362 37.1317 21.8362H37.6488C37.6815 21.8362 37.7083 21.8466 37.7291 21.8674C37.7499 21.8882 37.7603 21.9149 37.7603 21.9476V22.6832H38.3175C38.3502 22.6832 38.377 22.6936 38.3978 22.7144C38.4215 22.7352 38.4334 22.7619 38.4334 22.7946V23.1557C38.4334 23.1884 38.4215 23.2151 38.3978 23.2359C38.377 23.2568 38.3502 23.2672 38.3175 23.2672H37.7603V24.0607C37.7603 24.2806 37.845 24.3905 38.0144 24.3905H38.3576C38.3903 24.3905 38.4171 24.4009 38.4379 24.4218C38.4587 24.4426 38.4691 24.4693 38.4691 24.502V24.8898C38.4691 24.9196 38.4587 24.9463 38.4379 24.9701C38.4171 24.9909 38.3903 25.0013 38.3576 25.0013H37.9431ZM38.9452 22.3488C38.9125 22.3488 38.8857 22.3384 38.8649 22.3176C38.8441 22.2968 38.8337 22.2701 38.8337 22.2374V21.8362C38.8337 21.8035 38.8441 21.7767 38.8649 21.7559C38.8857 21.7351 38.9125 21.7247 38.9452 21.7247H39.4801C39.5128 21.7247 39.5396 21.7351 39.5604 21.7559C39.5812 21.7767 39.5916 21.8035 39.5916 21.8362V22.2374C39.5916 22.2701 39.5812 22.2968 39.5604 22.3176C39.5396 22.3384 39.5128 22.3488 39.4801 22.3488H38.9452ZM38.9496 25.0013C38.9169 25.0013 38.8902 24.9909 38.8694 24.9701C38.8486 24.9493 38.8382 24.9225 38.8382 24.8898V22.7946C38.8382 22.7619 38.8486 22.7352 38.8694 22.7144C38.8902 22.6936 38.9169 22.6832 38.9496 22.6832H39.4757C39.5084 22.6832 39.5351 22.6936 39.5559 22.7144C39.5767 22.7352 39.5871 22.7619 39.5871 22.7946V24.8898C39.5871 24.9196 39.5767 24.9463 39.5559 24.9701C39.5351 24.9909 39.5084 25.0013 39.4757 25.0013H38.9496ZM41.2104 25.0459C40.8419 25.0459 40.558 24.9582 40.3589 24.7828C40.1598 24.6075 40.0513 24.3608 40.0335 24.0428C40.0305 24.0042 40.029 23.9373 40.029 23.8422C40.029 23.7471 40.0305 23.6803 40.0335 23.6416C40.0513 23.3266 40.1628 23.0814 40.3678 22.9061C40.5729 22.7277 40.8538 22.6386 41.2104 22.6386C41.57 22.6386 41.8523 22.7277 42.0574 22.9061C42.2625 23.0814 42.3739 23.3266 42.3917 23.6416C42.3947 23.6803 42.3962 23.7471 42.3962 23.8422C42.3962 23.9373 42.3947 24.0042 42.3917 24.0428C42.3739 24.3608 42.2654 24.6075 42.0663 24.7828C41.8672 24.9582 41.5819 25.0459 41.2104 25.0459ZM41.2104 24.502C41.3412 24.502 41.4377 24.4634 41.5002 24.3861C41.5626 24.3058 41.5982 24.184 41.6071 24.0205C41.6101 23.9908 41.6116 23.9314 41.6116 23.8422C41.6116 23.7531 41.6101 23.6936 41.6071 23.6639C41.5982 23.5034 41.5611 23.3831 41.4957 23.3028C41.4333 23.2226 41.3382 23.1825 41.2104 23.1825C40.9637 23.1825 40.8329 23.3429 40.8181 23.6639L40.8136 23.8422L40.8181 24.0205C40.824 24.184 40.8582 24.3058 40.9206 24.3861C40.986 24.4634 41.0826 24.502 41.2104 24.502ZM42.9504 25.0013C42.9177 25.0013 42.891 24.9909 42.8702 24.9701C42.8494 24.9493 42.839 24.9225 42.839 24.8898V22.7946C42.839 22.7619 42.8494 22.7352 42.8702 22.7144C42.891 22.6936 42.9177 22.6832 42.9504 22.6832H43.4631C43.4958 22.6832 43.5225 22.6936 43.5433 22.7144C43.5671 22.7352 43.579 22.7619 43.579 22.7946V22.964C43.6592 22.8659 43.7618 22.7872 43.8866 22.7277C44.0144 22.6683 44.1585 22.6386 44.319 22.6386C44.5805 22.6386 44.793 22.7277 44.9565 22.9061C45.12 23.0814 45.2017 23.3281 45.2017 23.6461V24.8898C45.2017 24.9196 45.1913 24.9463 45.1705 24.9701C45.1497 24.9909 45.1229 25.0013 45.0902 25.0013H44.5285C44.4988 25.0013 44.4721 24.9909 44.4483 24.9701C44.4275 24.9463 44.4171 24.9196 44.4171 24.8898V23.6728C44.4171 23.5331 44.3829 23.4262 44.3146 23.3519C44.2462 23.2746 44.1481 23.2359 44.0203 23.2359C43.8955 23.2359 43.7974 23.2746 43.7261 23.3519C43.6548 23.4262 43.6191 23.5331 43.6191 23.6728V24.8898C43.6191 24.9196 43.6087 24.9463 43.5879 24.9701C43.5671 24.9909 43.5404 25.0013 43.5077 25.0013H42.9504ZM47.8651 25.0459C47.5828 25.0459 47.3406 25.0043 47.1385 24.921C46.9364 24.8378 46.7834 24.7293 46.6793 24.5956C46.5783 24.4589 46.5248 24.3103 46.5189 24.1498C46.5189 24.126 46.5278 24.1052 46.5456 24.0874C46.5664 24.0666 46.5902 24.0562 46.6169 24.0562H47.1786C47.2143 24.0562 47.2425 24.0636 47.2633 24.0785C47.2871 24.0904 47.3109 24.1097 47.3346 24.1364C47.3733 24.2137 47.4357 24.2776 47.5219 24.3281C47.6081 24.3787 47.7225 24.4039 47.8651 24.4039C48.0345 24.4039 48.1638 24.3772 48.253 24.3237C48.3421 24.2702 48.3867 24.1974 48.3867 24.1052C48.3867 24.0399 48.3629 23.9864 48.3154 23.9448C48.2708 23.9031 48.1995 23.866 48.1014 23.8333C48.0033 23.8006 47.8577 23.7635 47.6645 23.7219C47.3079 23.6476 47.0404 23.5391 46.8621 23.3964C46.6868 23.2508 46.5991 23.0443 46.5991 22.7768C46.5991 22.5955 46.6496 22.4335 46.7507 22.2909C46.8517 22.1482 46.9958 22.0368 47.1831 21.9565C47.3703 21.8763 47.5888 21.8362 47.8384 21.8362C48.097 21.8362 48.3213 21.8807 48.5115 21.9699C48.7017 22.0591 48.8459 22.172 48.944 22.3087C49.045 22.4424 49.0985 22.5747 49.1044 22.7055C49.1044 22.7322 49.0955 22.7545 49.0777 22.7723C49.0599 22.7902 49.0376 22.7991 49.0108 22.7991H48.4224C48.3867 22.7991 48.357 22.7931 48.3332 22.7812C48.3124 22.7694 48.2931 22.75 48.2753 22.7233C48.2574 22.6549 48.2084 22.597 48.1282 22.5494C48.0509 22.5019 47.9543 22.4781 47.8384 22.4781C47.7047 22.4781 47.6021 22.5019 47.5308 22.5494C47.4595 22.597 47.4238 22.6668 47.4238 22.759C47.4238 22.8214 47.4431 22.8734 47.4818 22.915C47.5234 22.9566 47.5887 22.9952 47.6779 23.0309C47.77 23.0636 47.9008 23.0978 48.0702 23.1334C48.3466 23.1839 48.5665 23.2478 48.73 23.3251C48.8964 23.3994 49.0183 23.4975 49.0955 23.6193C49.1728 23.7382 49.2114 23.8883 49.2114 24.0696C49.2114 24.2687 49.1535 24.4426 49.0376 24.5912C48.9246 24.7368 48.7656 24.8497 48.5606 24.93C48.3585 25.0072 48.1267 25.0459 47.8651 25.0459ZM50.0279 25.8483C50.0012 25.8483 49.9789 25.8394 49.9611 25.8215C49.9432 25.8037 49.9343 25.7814 49.9343 25.7547C49.9343 25.7339 49.9388 25.7145 49.9477 25.6967L50.2954 24.8586L49.4395 22.8347C49.4306 22.811 49.4261 22.7931 49.4261 22.7812C49.432 22.7545 49.4439 22.7322 49.4618 22.7144C49.4796 22.6936 49.5019 22.6832 49.5286 22.6832H50.0368C50.0992 22.6832 50.1423 22.7144 50.1661 22.7768L50.6743 24.074L51.1959 22.7768C51.2256 22.7144 51.2702 22.6832 51.3296 22.6832H51.8289C51.8557 22.6832 51.878 22.6936 51.8958 22.7144C51.9166 22.7322 51.927 22.753 51.927 22.7768C51.927 22.7887 51.9225 22.808 51.9136 22.8347L50.652 25.7547C50.6283 25.8171 50.5837 25.8483 50.5183 25.8483H50.0279ZM53.1354 25.0459C52.8947 25.0459 52.6926 25.0117 52.5292 24.9433C52.3687 24.875 52.2498 24.7932 52.1725 24.6981C52.0953 24.603 52.0566 24.5183 52.0566 24.444C52.0566 24.4143 52.067 24.3905 52.0878 24.3727C52.1116 24.3519 52.1369 24.3415 52.1636 24.3415H52.6718C52.6896 24.3415 52.706 24.3489 52.7209 24.3638C52.7565 24.3876 52.7833 24.4069 52.8011 24.4218C52.8665 24.4693 52.9229 24.505 52.9705 24.5287C53.021 24.5495 53.0819 24.5599 53.1533 24.5599C53.2395 24.5599 53.3093 24.5436 53.3628 24.5109C53.4193 24.4752 53.4475 24.4262 53.4475 24.3638C53.4475 24.3133 53.4326 24.2732 53.4029 24.2434C53.3762 24.2137 53.3227 24.1855 53.2424 24.1587C53.1622 24.129 53.0403 24.0978 52.8769 24.0651C52.6302 24.0146 52.44 23.9329 52.3063 23.8199C52.1755 23.704 52.1101 23.5495 52.1101 23.3563C52.1101 23.2345 52.1488 23.1186 52.226 23.0086C52.3033 22.8986 52.4177 22.8095 52.5693 22.7411C52.7238 22.6728 52.9066 22.6386 53.1176 22.6386C53.3286 22.6386 53.5129 22.6713 53.6704 22.7367C53.8279 22.802 53.9468 22.8823 54.027 22.9774C54.1102 23.0695 54.1518 23.1542 54.1518 23.2315C54.1518 23.2582 54.1414 23.282 54.1206 23.3028C54.1028 23.3236 54.0805 23.334 54.0538 23.334H53.5901C53.5664 23.334 53.5441 23.3266 53.5233 23.3117C53.4846 23.2909 53.4505 23.2686 53.4207 23.2449C53.3702 23.2062 53.3227 23.1765 53.2781 23.1557C53.2335 23.1349 53.1785 23.1245 53.1131 23.1245C53.0359 23.1245 52.9735 23.1423 52.9259 23.178C52.8813 23.2137 52.859 23.2597 52.859 23.3162C52.859 23.3608 52.8709 23.3979 52.8947 23.4276C52.9215 23.4574 52.975 23.4871 53.0552 23.5168C53.1384 23.5435 53.2603 23.5718 53.4207 23.6015C53.709 23.652 53.9185 23.7412 54.0493 23.869C54.183 23.9968 54.2499 24.1468 54.2499 24.3192C54.2499 24.5391 54.1518 24.716 53.9557 24.8497C53.7595 24.9805 53.4861 25.0459 53.1354 25.0459ZM55.8182 25.0013C55.203 25.0013 54.8954 24.7085 54.8954 24.1231V23.2672H54.5477C54.515 23.2672 54.4868 23.2568 54.463 23.2359C54.4422 23.2151 54.4318 23.1884 54.4318 23.1557V22.7946C54.4318 22.7619 54.4422 22.7352 54.463 22.7144C54.4868 22.6936 54.515 22.6832 54.5477 22.6832H54.8954V21.9476C54.8954 21.9149 54.9058 21.8882 54.9266 21.8674C54.9504 21.8466 54.9772 21.8362 55.0069 21.8362H55.524C55.5567 21.8362 55.5834 21.8466 55.6042 21.8674C55.6251 21.8882 55.6355 21.9149 55.6355 21.9476V22.6832H56.1927C56.2254 22.6832 56.2521 22.6936 56.2729 22.7144C56.2967 22.7352 56.3086 22.7619 56.3086 22.7946V23.1557C56.3086 23.1884 56.2967 23.2151 56.2729 23.2359C56.2521 23.2568 56.2254 23.2672 56.1927 23.2672H55.6355V24.0607C55.6355 24.2806 55.7202 24.3905 55.8896 24.3905H56.2328C56.2655 24.3905 56.2923 24.4009 56.3131 24.4218C56.3339 24.4426 56.3443 24.4693 56.3443 24.502V24.8898C56.3443 24.9196 56.3339 24.9463 56.3131 24.9701C56.2923 24.9909 56.2655 25.0013 56.2328 25.0013H55.8182ZM57.7833 25.0459C57.4266 25.0459 57.1458 24.9493 56.9407 24.7561C56.7357 24.5629 56.6287 24.2821 56.6197 23.9136V23.7575C56.6316 23.4068 56.7401 23.1334 56.9452 22.9373C57.1532 22.7381 57.4311 22.6386 57.7788 22.6386C58.0314 22.6386 58.2439 22.6906 58.4163 22.7946C58.5916 22.8957 58.7224 23.0353 58.8086 23.2137C58.8977 23.392 58.9423 23.597 58.9423 23.8289V23.9358C58.9423 23.9656 58.9319 23.9923 58.9111 24.0161C58.8903 24.0369 58.8636 24.0473 58.8309 24.0473H57.4043V24.0785C57.4103 24.2182 57.4445 24.3311 57.5069 24.4173C57.5693 24.5035 57.6599 24.5466 57.7788 24.5466C57.8531 24.5466 57.914 24.5317 57.9616 24.502C58.0091 24.4693 58.0522 24.4307 58.0909 24.3861C58.1176 24.3534 58.1384 24.3341 58.1533 24.3281C58.1711 24.3192 58.1978 24.3148 58.2335 24.3148H58.7863C58.813 24.3148 58.8353 24.3237 58.8532 24.3415C58.874 24.3564 58.8844 24.3772 58.8844 24.4039C58.8844 24.4812 58.8398 24.5704 58.7506 24.6714C58.6644 24.7724 58.5381 24.8601 58.3717 24.9344C58.2053 25.0087 58.0091 25.0459 57.7833 25.0459ZM58.1577 23.606V23.597C58.1577 23.4514 58.1236 23.337 58.0552 23.2538C57.9898 23.1676 57.8977 23.1245 57.7788 23.1245C57.6629 23.1245 57.5708 23.1676 57.5024 23.2538C57.437 23.337 57.4043 23.4514 57.4043 23.597V23.606H58.1577ZM59.4717 25.0013C59.439 25.0013 59.4123 24.9909 59.3915 24.9701C59.3706 24.9493 59.3602 24.9225 59.3602 24.8898V22.7946C59.3602 22.7619 59.3706 22.7352 59.3915 22.7144C59.4123 22.6936 59.439 22.6832 59.4717 22.6832H59.9576C59.9903 22.6832 60.017 22.6936 60.0378 22.7144C60.0587 22.7352 60.0691 22.7619 60.0691 22.7946V22.9462C60.1374 22.857 60.2281 22.7842 60.341 22.7277C60.4569 22.6683 60.5862 22.6386 60.7288 22.6386C61.0557 22.6386 61.2816 22.7664 61.4064 23.022C61.4778 22.909 61.5773 22.8169 61.7051 22.7456C61.8329 22.6743 61.9696 22.6386 62.1152 22.6386C62.3589 22.6386 62.5566 22.7218 62.7081 22.8882C62.8627 23.0517 62.9399 23.2969 62.9399 23.6238V24.8898C62.9399 24.9196 62.9295 24.9463 62.9087 24.9701C62.8879 24.9909 62.8612 25.0013 62.8285 25.0013H62.3114C62.2787 25.0013 62.2505 24.9909 62.2267 24.9701C62.2059 24.9493 62.1955 24.9225 62.1955 24.8898V23.655C62.1955 23.5064 62.1643 23.3994 62.1019 23.334C62.0424 23.2686 61.9607 23.2359 61.8567 23.2359C61.7616 23.2359 61.6828 23.2701 61.6204 23.3385C61.558 23.4039 61.5268 23.5094 61.5268 23.655V24.8898C61.5268 24.9196 61.5164 24.9463 61.4956 24.9701C61.4748 24.9909 61.448 25.0013 61.4153 25.0013H60.8982C60.8655 25.0013 60.8388 24.9909 60.818 24.9701C60.7972 24.9493 60.7868 24.9225 60.7868 24.8898V23.655C60.7868 23.5094 60.7541 23.4039 60.6887 23.3385C60.6263 23.2701 60.546 23.2359 60.448 23.2359C60.3529 23.2359 60.2726 23.2701 60.2072 23.3385C60.1448 23.4039 60.1136 23.5079 60.1136 23.6505V24.8898C60.1136 24.9196 60.1032 24.9463 60.0824 24.9701C60.0616 24.9909 60.0349 25.0013 60.0022 25.0013H59.4717ZM20.4045 30.0013C20.3712 30.0013 20.345 29.9941 20.326 29.9799C20.3094 29.9632 20.2963 29.9407 20.2868 29.9121L19.7732 28.2609L19.7661 28.2253C19.7661 28.2039 19.7744 28.186 19.7911 28.1718C19.8077 28.1551 19.8267 28.1468 19.8481 28.1468H20.2155C20.244 28.1468 20.2678 28.1551 20.2868 28.1718C20.3058 28.186 20.3177 28.2027 20.3224 28.2217L20.622 29.2417L20.943 28.2253C20.9477 28.2062 20.9596 28.1884 20.9786 28.1718C20.9977 28.1551 21.0226 28.1468 21.0535 28.1468H21.2889C21.3198 28.1468 21.3448 28.1551 21.3638 28.1718C21.3828 28.1884 21.3947 28.2062 21.3995 28.2253L21.7204 29.2417L22.02 28.2217C22.0248 28.2027 22.0367 28.186 22.0557 28.1718C22.0747 28.1551 22.0985 28.1468 22.127 28.1468H22.4943C22.5157 28.1468 22.5348 28.1551 22.5514 28.1718C22.568 28.186 22.5764 28.2039 22.5764 28.2253L22.5692 28.2609L22.0557 29.9121C22.0462 29.9407 22.0319 29.9632 22.0129 29.9799C21.9962 29.9941 21.9713 30.0013 21.938 30.0013H21.617C21.5552 30.0013 21.516 29.9716 21.4993 29.9121L21.1712 28.9349L20.8431 29.9121C20.8265 29.9716 20.7873 30.0013 20.7254 30.0013H20.4045ZM23.3927 30.0013C23.3594 30.0013 23.3332 29.9941 23.3142 29.9799C23.2976 29.9632 23.2845 29.9407 23.275 29.9121L22.7614 28.2609L22.7543 28.2253C22.7543 28.2039 22.7626 28.186 22.7793 28.1718C22.7959 28.1551 22.8149 28.1468 22.8363 28.1468H23.2036C23.2322 28.1468 23.256 28.1551 23.275 28.1718C23.294 28.186 23.3059 28.2027 23.3106 28.2217L23.6102 29.2417L23.9312 28.2253C23.9359 28.2062 23.9478 28.1884 23.9668 28.1718C23.9859 28.1551 24.0108 28.1468 24.0417 28.1468H24.2771C24.308 28.1468 24.333 28.1551 24.352 28.1718C24.371 28.1884 24.3829 28.2062 24.3877 28.2253L24.7086 29.2417L25.0082 28.2217C25.013 28.2027 25.0249 28.186 25.0439 28.1718C25.0629 28.1551 25.0867 28.1468 25.1152 28.1468H25.4825C25.5039 28.1468 25.523 28.1551 25.5396 28.1718C25.5562 28.186 25.5646 28.2039 25.5646 28.2253L25.5574 28.2609L25.0439 29.9121C25.0344 29.9407 25.0201 29.9632 25.0011 29.9799C24.9844 29.9941 24.9595 30.0013 24.9262 30.0013H24.6052C24.5434 30.0013 24.5042 29.9716 24.4875 29.9121L24.1594 28.9349L23.8313 29.9121C23.8147 29.9716 23.7754 30.0013 23.7136 30.0013H23.3927ZM26.3809 30.0013C26.3476 30.0013 26.3214 29.9941 26.3024 29.9799C26.2858 29.9632 26.2727 29.9407 26.2632 29.9121L25.7496 28.2609L25.7425 28.2253C25.7425 28.2039 25.7508 28.186 25.7674 28.1718C25.7841 28.1551 25.8031 28.1468 25.8245 28.1468H26.1918C26.2204 28.1468 26.2441 28.1551 26.2632 28.1718C26.2822 28.186 26.2941 28.2027 26.2988 28.2217L26.5984 29.2417L26.9194 28.2253C26.9241 28.2062 26.936 28.1884 26.955 28.1718C26.9741 28.1551 26.999 28.1468 27.0299 28.1468H27.2653C27.2962 28.1468 27.3212 28.1551 27.3402 28.1718C27.3592 28.1884 27.3711 28.2062 27.3759 28.2253L27.6968 29.2417L27.9964 28.2217C28.0012 28.2027 28.013 28.186 28.0321 28.1718C28.0511 28.1551 28.0749 28.1468 28.1034 28.1468H28.4707C28.4921 28.1468 28.5111 28.1551 28.5278 28.1718C28.5444 28.186 28.5527 28.2039 28.5527 28.2253L28.5456 28.2609L28.0321 29.9121C28.0226 29.9407 28.0083 29.9632 27.9893 29.9799C27.9726 29.9941 27.9477 30.0013 27.9144 30.0013H27.5934C27.5316 30.0013 27.4924 29.9716 27.4757 29.9121L27.1476 28.9349L26.8195 29.9121C26.8029 29.9716 26.7636 30.0013 26.7018 30.0013H26.3809ZM28.7979 30.0013C28.7741 30.0013 28.7527 29.993 28.7337 29.9763C28.717 29.9573 28.7087 29.9359 28.7087 29.9121V29.4592C28.7087 29.433 28.717 29.4116 28.7337 29.395C28.7527 29.3784 28.7741 29.37 28.7979 29.37H29.2508C29.277 29.37 29.2984 29.3784 29.315 29.395C29.3316 29.4116 29.34 29.433 29.34 29.4592V29.9121C29.34 29.9359 29.3316 29.9573 29.315 29.9763C29.2984 29.993 29.277 30.0013 29.2508 30.0013H28.7979ZM30.2361 30.0013C30.2028 30.0013 30.1767 29.9941 30.1577 29.9799C30.141 29.9632 30.1267 29.9407 30.1149 29.9121L29.4408 28.2573L29.4337 28.2253C29.4337 28.2039 29.4408 28.186 29.4551 28.1718C29.4717 28.1551 29.4919 28.1468 29.5157 28.1468H29.9187C29.971 28.1468 30.0055 28.1718 30.0221 28.2217L30.4251 29.3165L30.8317 28.2217C30.8483 28.1718 30.8828 28.1468 30.9351 28.1468H31.3381C31.3595 28.1468 31.3785 28.1551 31.3952 28.1718C31.4118 28.186 31.4201 28.2039 31.4201 28.2253L31.413 28.2573L30.739 29.9121C30.7271 29.9407 30.7116 29.9632 30.6926 29.9799C30.6736 29.9941 30.6474 30.0013 30.6141 30.0013H30.2361ZM32.4836 30.0369C32.1983 30.0369 31.9736 29.9597 31.8096 29.8051C31.6455 29.6506 31.5599 29.4259 31.5528 29.1311V29.0063C31.5623 28.7257 31.6491 28.507 31.8131 28.3501C31.9796 28.1908 32.2019 28.1111 32.48 28.1111C32.6821 28.1111 32.8521 28.1527 32.99 28.2359C33.1303 28.3168 33.2349 28.4285 33.3039 28.5712C33.3752 28.7138 33.4108 28.8779 33.4108 29.0633V29.1489C33.4108 29.1727 33.4025 29.1941 33.3859 29.2131C33.3692 29.2298 33.3478 29.2381 33.3217 29.2381H32.1805V29.2631C32.1852 29.3748 32.2126 29.4651 32.2625 29.5341C32.3124 29.603 32.3849 29.6375 32.48 29.6375C32.5395 29.6375 32.5882 29.6256 32.6262 29.6019C32.6643 29.5757 32.6988 29.5448 32.7297 29.5091C32.7511 29.483 32.7677 29.4675 32.7796 29.4628C32.7939 29.4556 32.8153 29.4521 32.8438 29.4521H33.286C33.3074 29.4521 33.3252 29.4592 33.3395 29.4735C33.3562 29.4854 33.3645 29.502 33.3645 29.5234C33.3645 29.5852 33.3288 29.6565 33.2575 29.7374C33.1885 29.8182 33.0875 29.8883 32.9544 29.9478C32.8212 30.0072 32.6643 30.0369 32.4836 30.0369ZM32.7832 28.885V28.8779C32.7832 28.7614 32.7558 28.6699 32.7011 28.6033C32.6488 28.5343 32.5751 28.4999 32.48 28.4999C32.3873 28.4999 32.3136 28.5343 32.2589 28.6033C32.2066 28.6699 32.1805 28.7614 32.1805 28.8779V28.885H32.7832ZM33.8343 30.0013C33.8106 30.0013 33.7892 29.993 33.7701 29.9763C33.7535 29.9573 33.7452 29.9359 33.7452 29.9121V27.5583C33.7452 27.5322 33.7535 27.5108 33.7701 27.4942C33.7892 27.4775 33.8106 27.4692 33.8343 27.4692H34.2908C34.317 27.4692 34.3384 27.4775 34.355 27.4942C34.3717 27.5108 34.38 27.5322 34.38 27.5583V28.3536C34.5226 28.192 34.7105 28.1111 34.9435 28.1111C35.0814 28.1111 35.2038 28.142 35.3108 28.2039C35.4202 28.2657 35.5058 28.3572 35.5676 28.4785C35.6294 28.5997 35.6603 28.7459 35.6603 28.9171V29.9121C35.6603 29.9359 35.652 29.9573 35.6353 29.9763C35.6187 29.993 35.5973 30.0013 35.5711 30.0013H35.1111C35.0873 30.0013 35.0659 29.993 35.0469 29.9763C35.0303 29.9573 35.0219 29.9359 35.0219 29.9121V28.9385C35.0219 28.8268 34.9946 28.7412 34.9399 28.6817C34.8876 28.6199 34.8103 28.589 34.7081 28.589C34.6059 28.589 34.525 28.6199 34.4656 28.6817C34.4085 28.7412 34.38 28.8268 34.38 28.9385V29.9121C34.38 29.9383 34.3717 29.9597 34.355 29.9763C34.3384 29.993 34.317 30.0013 34.2908 30.0013H33.8343ZM36.1503 27.8793C36.1241 27.8793 36.1027 27.871 36.0861 27.8544C36.0694 27.8377 36.0611 27.8163 36.0611 27.7902V27.4692C36.0611 27.443 36.0694 27.4216 36.0861 27.405C36.1027 27.3884 36.1241 27.38 36.1503 27.38H36.5782C36.6044 27.38 36.6258 27.3884 36.6424 27.405C36.6591 27.4216 36.6674 27.443 36.6674 27.4692V27.7902C36.6674 27.8163 36.6591 27.8377 36.6424 27.8544C36.6258 27.871 36.6044 27.8793 36.5782 27.8793H36.1503ZM36.1539 30.0013C36.1277 30.0013 36.1063 29.993 36.0897 29.9763C36.073 29.9597 36.0647 29.9383 36.0647 29.9121V28.2359C36.0647 28.2098 36.073 28.1884 36.0897 28.1718C36.1063 28.1551 36.1277 28.1468 36.1539 28.1468H36.5747C36.6008 28.1468 36.6222 28.1551 36.6389 28.1718C36.6555 28.1884 36.6638 28.2098 36.6638 28.2359V29.9121C36.6638 29.9359 36.6555 29.9573 36.6389 29.9763C36.6222 29.993 36.6008 30.0013 36.5747 30.0013H36.1539ZM37.9375 30.0369C37.6688 30.0369 37.4513 29.9656 37.2848 29.823C37.1184 29.6779 37.0293 29.477 37.0174 29.2203L37.0138 29.0776L37.0174 28.9314C37.0269 28.6746 37.1149 28.4737 37.2813 28.3287C37.4501 28.1836 37.6688 28.1111 37.9375 28.1111C38.1396 28.1111 38.3096 28.148 38.4475 28.2217C38.5877 28.293 38.6912 28.3798 38.7577 28.482C38.8267 28.5819 38.8635 28.6734 38.8683 28.7566C38.8707 28.7804 38.8624 28.8018 38.8433 28.8208C38.8267 28.8375 38.8053 28.8458 38.7791 28.8458H38.3262C38.3001 28.8458 38.2799 28.8398 38.2656 28.828C38.2513 28.8161 38.2382 28.7982 38.2264 28.7745C38.1978 28.7008 38.161 28.6485 38.1158 28.6175C38.073 28.5866 38.0171 28.5712 37.9482 28.5712C37.7532 28.5712 37.6522 28.6972 37.645 28.9492L37.6415 29.0847L37.645 29.2024C37.6498 29.3308 37.6771 29.4259 37.7271 29.4877C37.7794 29.5472 37.8531 29.5769 37.9482 29.5769C38.0219 29.5769 38.0801 29.5614 38.1229 29.5305C38.1657 29.4996 38.2002 29.4473 38.2264 29.3736C38.2382 29.3498 38.2513 29.332 38.2656 29.3201C38.2799 29.3082 38.3001 29.3023 38.3262 29.3023H38.7791C38.8029 29.3023 38.8231 29.3106 38.8398 29.3272C38.8588 29.3415 38.8683 29.3605 38.8683 29.3843C38.8683 29.4604 38.835 29.5495 38.7684 29.6518C38.7042 29.754 38.602 29.8444 38.4617 29.9228C38.3215 29.9989 38.1467 30.0369 37.9375 30.0369ZM39.2779 30.0013C39.2541 30.0013 39.2327 29.993 39.2137 29.9763C39.197 29.9573 39.1887 29.9359 39.1887 29.9121V27.5583C39.1887 27.5322 39.197 27.5108 39.2137 27.4942C39.2327 27.4775 39.2541 27.4692 39.2779 27.4692H39.6987C39.7248 27.4692 39.7462 27.4775 39.7629 27.4942C39.7795 27.5108 39.7879 27.5322 39.7879 27.5583V29.9121C39.7879 29.9383 39.7795 29.9597 39.7629 29.9763C39.7462 29.993 39.7248 30.0013 39.6987 30.0013H39.2779ZM41.0651 30.0369C40.7798 30.0369 40.5551 29.9597 40.391 29.8051C40.227 29.6506 40.1414 29.4259 40.1343 29.1311V29.0063C40.1438 28.7257 40.2306 28.507 40.3946 28.3501C40.561 28.1908 40.7833 28.1111 41.0615 28.1111C41.2636 28.1111 41.4336 28.1527 41.5715 28.2359C41.7118 28.3168 41.8164 28.4285 41.8853 28.5712C41.9567 28.7138 41.9923 28.8779 41.9923 29.0633V29.1489C41.9923 29.1727 41.984 29.1941 41.9674 29.2131C41.9507 29.2298 41.9293 29.2381 41.9032 29.2381H40.7619V29.2631C40.7667 29.3748 40.794 29.4651 40.844 29.5341C40.8939 29.603 40.9664 29.6375 41.0615 29.6375C41.1209 29.6375 41.1697 29.6256 41.2077 29.6019C41.2458 29.5757 41.2802 29.5448 41.3112 29.5091C41.3325 29.483 41.3492 29.4675 41.3611 29.4628C41.3753 29.4556 41.3967 29.4521 41.4253 29.4521H41.8675C41.8889 29.4521 41.9067 29.4592 41.921 29.4735C41.9376 29.4854 41.946 29.502 41.946 29.5234C41.946 29.5852 41.9103 29.6565 41.839 29.7374C41.77 29.8182 41.669 29.8883 41.5358 29.9478C41.4027 30.0072 41.2458 30.0369 41.0651 30.0369ZM41.3646 28.885V28.8779C41.3646 28.7614 41.3373 28.6699 41.2826 28.6033C41.2303 28.5343 41.1566 28.4999 41.0615 28.4999C40.9688 28.4999 40.8951 28.5343 40.8404 28.6033C40.7881 28.6699 40.7619 28.7614 40.7619 28.8779V28.885H41.3646ZM42.4158 30.0013C42.392 30.0013 42.3706 29.993 42.3516 29.9763C42.335 29.9573 42.3267 29.9359 42.3267 29.9121V27.5583C42.3267 27.5322 42.335 27.5108 42.3516 27.4942C42.3706 27.4775 42.392 27.4692 42.4158 27.4692H42.8723C42.8985 27.4692 42.9199 27.4775 42.9365 27.4942C42.9531 27.5108 42.9615 27.5322 42.9615 27.5583V28.3536C43.1041 28.192 43.2919 28.1111 43.5249 28.1111C43.6628 28.1111 43.7853 28.142 43.8923 28.2039C44.0016 28.2657 44.0872 28.3572 44.1491 28.4785C44.2109 28.5997 44.2418 28.7459 44.2418 28.9171V29.9121C44.2418 29.9359 44.2335 29.9573 44.2168 29.9763C44.2002 29.993 44.1788 30.0013 44.1526 30.0013H43.6926C43.6688 30.0013 43.6474 29.993 43.6284 29.9763C43.6117 29.9573 43.6034 29.9359 43.6034 29.9121V28.9385C43.6034 28.8268 43.5761 28.7412 43.5214 28.6817C43.4691 28.6199 43.3918 28.589 43.2896 28.589C43.1873 28.589 43.1065 28.6199 43.0471 28.6817C42.99 28.7412 42.9615 28.8268 42.9615 28.9385V29.9121C42.9615 29.9383 42.9531 29.9597 42.9365 29.9763C42.9199 29.993 42.8985 30.0013 42.8723 30.0013H42.4158ZM44.7318 27.8793C44.7056 27.8793 44.6842 27.871 44.6676 27.8544C44.6509 27.8377 44.6426 27.8163 44.6426 27.7902V27.4692C44.6426 27.443 44.6509 27.4216 44.6676 27.405C44.6842 27.3884 44.7056 27.38 44.7318 27.38H45.1597C45.1859 27.38 45.2073 27.3884 45.2239 27.405C45.2406 27.4216 45.2489 27.443 45.2489 27.4692V27.7902C45.2489 27.8163 45.2406 27.8377 45.2239 27.8544C45.2073 27.871 45.1859 27.8793 45.1597 27.8793H44.7318ZM44.7353 30.0013C44.7092 30.0013 44.6878 29.993 44.6711 29.9763C44.6545 29.9597 44.6462 29.9383 44.6462 29.9121V28.2359C44.6462 28.2098 44.6545 28.1884 44.6711 28.1718C44.6878 28.1551 44.7092 28.1468 44.7353 28.1468H45.1562C45.1823 28.1468 45.2037 28.1551 45.2203 28.1718C45.237 28.1884 45.2453 28.2098 45.2453 28.2359V29.9121C45.2453 29.9359 45.237 29.9573 45.2203 29.9763C45.2037 29.993 45.1823 30.0013 45.1562 30.0013H44.7353ZM46.4298 30.0369C46.2372 30.0369 46.0756 30.0096 45.9448 29.9549C45.8164 29.9002 45.7213 29.8349 45.6595 29.7588C45.5977 29.6827 45.5668 29.6149 45.5668 29.5555C45.5668 29.5317 45.5751 29.5127 45.5917 29.4984C45.6107 29.4818 45.6309 29.4735 45.6523 29.4735H46.0589C46.0732 29.4735 46.0863 29.4794 46.0981 29.4913C46.1267 29.5103 46.1481 29.5258 46.1623 29.5377C46.2146 29.5757 46.2598 29.6042 46.2979 29.6233C46.3383 29.6399 46.387 29.6482 46.4441 29.6482C46.513 29.6482 46.5689 29.6351 46.6117 29.609C46.6569 29.5805 46.6795 29.5412 46.6795 29.4913C46.6795 29.4509 46.6676 29.4188 46.6438 29.395C46.6224 29.3712 46.5796 29.3486 46.5154 29.3272C46.4512 29.3035 46.3537 29.2785 46.223 29.2524C46.0256 29.2119 45.8735 29.1466 45.7665 29.0562C45.6619 28.9635 45.6096 28.8398 45.6096 28.6853C45.6096 28.5878 45.6405 28.4951 45.7023 28.4071C45.7641 28.3192 45.8556 28.2478 45.9769 28.1932C46.1005 28.1385 46.2467 28.1111 46.4155 28.1111C46.5843 28.1111 46.7318 28.1373 46.8578 28.1896C46.9838 28.2419 47.0789 28.3061 47.1431 28.3822C47.2096 28.4559 47.2429 28.5236 47.2429 28.5854C47.2429 28.6068 47.2346 28.6259 47.218 28.6425C47.2037 28.6592 47.1859 28.6675 47.1645 28.6675H46.7936C46.7746 28.6675 46.7567 28.6615 46.7401 28.6496C46.7092 28.633 46.6818 28.6152 46.6581 28.5961C46.6176 28.5652 46.5796 28.5415 46.5439 28.5248C46.5083 28.5082 46.4643 28.4999 46.412 28.4999C46.3502 28.4999 46.3002 28.5141 46.2622 28.5427C46.2265 28.5712 46.2087 28.608 46.2087 28.6532C46.2087 28.6889 46.2182 28.7186 46.2372 28.7424C46.2586 28.7661 46.3014 28.7899 46.3656 28.8137C46.4322 28.8351 46.5297 28.8577 46.6581 28.8815C46.8887 28.9219 47.0563 28.9932 47.1609 29.0954C47.2679 29.1977 47.3214 29.3177 47.3214 29.4556C47.3214 29.6316 47.2429 29.773 47.086 29.88C46.9291 29.9846 46.7104 30.0369 46.4298 30.0369ZM48.576 30.0013C48.0839 30.0013 47.8378 29.7671 47.8378 29.2987V28.614H47.5596C47.5335 28.614 47.5109 28.6057 47.4919 28.589C47.4752 28.5724 47.4669 28.551 47.4669 28.5248V28.2359C47.4669 28.2098 47.4752 28.1884 47.4919 28.1718C47.5109 28.1551 47.5335 28.1468 47.5596 28.1468H47.8378V27.5583C47.8378 27.5322 47.8461 27.5108 47.8628 27.4942C47.8818 27.4775 47.9032 27.4692 47.927 27.4692H48.3407C48.3668 27.4692 48.3882 27.4775 48.4049 27.4942C48.4215 27.5108 48.4298 27.5322 48.4298 27.5583V28.1468H48.8756C48.9018 28.1468 48.9232 28.1551 48.9398 28.1718C48.9588 28.1884 48.9683 28.2098 48.9683 28.2359V28.5248C48.9683 28.551 48.9588 28.5724 48.9398 28.589C48.9232 28.6057 48.9018 28.614 48.8756 28.614H48.4298V29.2488C48.4298 29.4247 48.4976 29.5127 48.6331 29.5127H48.9077C48.9339 29.5127 48.9553 29.521 48.9719 29.5377C48.9885 29.5543 48.9969 29.5757 48.9969 29.6019V29.9121C48.9969 29.9359 48.9885 29.9573 48.9719 29.9763C48.9553 29.993 48.9339 30.0013 48.9077 30.0013H48.576ZM50.1695 30.0369C49.8746 30.0369 49.6476 29.9668 49.4883 29.8265C49.329 29.6863 49.2422 29.4889 49.228 29.2345C49.2256 29.2036 49.2244 29.1501 49.2244 29.074C49.2244 28.998 49.2256 28.9445 49.228 28.9136C49.2422 28.6615 49.3314 28.4654 49.4954 28.3251C49.6595 28.1825 49.8842 28.1111 50.1695 28.1111C50.4571 28.1111 50.683 28.1825 50.8471 28.3251C51.0111 28.4654 51.1003 28.6615 51.1145 28.9136C51.1169 28.9445 51.1181 28.998 51.1181 29.074C51.1181 29.1501 51.1169 29.2036 51.1145 29.2345C51.1003 29.4889 51.0135 29.6863 50.8542 29.8265C50.6949 29.9668 50.4667 30.0369 50.1695 30.0369ZM50.1695 29.6019C50.2741 29.6019 50.3513 29.5709 50.4013 29.5091C50.4512 29.4449 50.4797 29.3475 50.4869 29.2167C50.4892 29.1929 50.4904 29.1454 50.4904 29.074C50.4904 29.0027 50.4892 28.9552 50.4869 28.9314C50.4797 28.803 50.45 28.7067 50.3977 28.6425C50.3478 28.5783 50.2717 28.5462 50.1695 28.5462C49.9721 28.5462 49.8675 28.6746 49.8556 28.9314L49.8521 29.074L49.8556 29.2167C49.8604 29.3475 49.8877 29.4449 49.9377 29.5091C49.99 29.5709 50.0672 29.6019 50.1695 29.6019ZM51.5615 30.0013C51.5354 30.0013 51.514 29.993 51.4973 29.9763C51.4807 29.9597 51.4723 29.9383 51.4723 29.9121V28.2359C51.4723 28.2098 51.4807 28.1884 51.4973 28.1718C51.514 28.1551 51.5354 28.1468 51.5615 28.1468H51.9716C51.9978 28.1468 52.0192 28.1563 52.0358 28.1753C52.0548 28.192 52.0644 28.2122 52.0644 28.2359V28.3786C52.1951 28.2241 52.3711 28.1468 52.5922 28.1468H52.7491C52.7752 28.1468 52.7966 28.1551 52.8133 28.1718C52.8299 28.1884 52.8382 28.2098 52.8382 28.2359V28.6033C52.8382 28.6271 52.8299 28.6485 52.8133 28.6675C52.7966 28.6841 52.7752 28.6924 52.7491 28.6924H52.4032C52.3057 28.6924 52.2296 28.7198 52.1749 28.7745C52.1226 28.8268 52.0965 28.9017 52.0965 28.9991V29.9121C52.0965 29.9383 52.0869 29.9597 52.0679 29.9763C52.0513 29.993 52.0299 30.0013 52.0037 30.0013H51.5615ZM53.4378 30.6789C53.4164 30.6789 53.3985 30.6718 53.3843 30.6575C53.37 30.6432 53.3629 30.6254 53.3629 30.604C53.3629 30.5873 53.3664 30.5719 53.3736 30.5576L53.6517 29.8872L52.967 28.268C52.9599 28.249 52.9563 28.2348 52.9563 28.2253C52.9611 28.2039 52.9706 28.186 52.9848 28.1718C52.9991 28.1551 53.0169 28.1468 53.0383 28.1468H53.4449C53.4948 28.1468 53.5293 28.1718 53.5483 28.2217L53.9549 29.2595L54.3721 28.2217C54.3959 28.1718 54.4316 28.1468 54.4791 28.1468H54.8786C54.9 28.1468 54.9178 28.1551 54.932 28.1718C54.9487 28.186 54.957 28.2027 54.957 28.2217C54.957 28.2312 54.9534 28.2466 54.9463 28.268L53.937 30.604C53.918 30.6539 53.8824 30.6789 53.8301 30.6789H53.4378ZM55.117 30.0013C55.0932 30.0013 55.0718 29.993 55.0528 29.9763C55.0361 29.9573 55.0278 29.9359 55.0278 29.9121V29.4592C55.0278 29.433 55.0361 29.4116 55.0528 29.395C55.0718 29.3784 55.0932 29.37 55.117 29.37H55.5699C55.596 29.37 55.6174 29.3784 55.6341 29.395C55.6507 29.4116 55.659 29.433 55.659 29.4592V29.9121C55.659 29.9359 55.6507 29.9573 55.6341 29.9763C55.6174 29.993 55.596 30.0013 55.5699 30.0013H55.117ZM56.9511 30.7859C56.7253 30.7859 56.5422 30.749 56.4019 30.6753C56.2616 30.6016 56.1606 30.5172 56.0988 30.4221C56.0393 30.327 56.0096 30.2474 56.0096 30.1832C56.0096 30.1618 56.0191 30.1427 56.0381 30.1261C56.0572 30.1095 56.0786 30.1011 56.1023 30.1011H56.5553C56.579 30.1011 56.5969 30.1059 56.6088 30.1154C56.623 30.1273 56.6361 30.1463 56.648 30.1725C56.6718 30.2271 56.7039 30.2699 56.7443 30.3009C56.7847 30.3341 56.8477 30.3508 56.9333 30.3508C57.0427 30.3508 57.1235 30.3234 57.1758 30.2688C57.2281 30.2165 57.2543 30.1273 57.2543 30.0013V29.7623C57.133 29.8955 56.9594 29.9621 56.7336 29.9621C56.4934 29.9621 56.3092 29.8919 56.1808 29.7516C56.0548 29.609 55.9858 29.4033 55.9739 29.1347L55.9704 29.0384C55.9704 28.7507 56.0346 28.5248 56.163 28.3608C56.2913 28.1943 56.4816 28.1111 56.7336 28.1111C56.8548 28.1111 56.9618 28.1349 57.0545 28.1825C57.1473 28.2276 57.2257 28.2894 57.2899 28.3679V28.2359C57.2899 28.2098 57.2982 28.1884 57.3149 28.1718C57.3339 28.1551 57.3553 28.1468 57.3791 28.1468H57.7892C57.8154 28.1468 57.8368 28.1563 57.8534 28.1753C57.8724 28.192 57.8819 28.2122 57.8819 28.2359V29.9514C57.8819 30.2224 57.8011 30.4292 57.6394 30.5719C57.4777 30.7145 57.2483 30.7859 56.9511 30.7859ZM56.9262 29.4984C57.0331 29.4984 57.1128 29.4663 57.1651 29.4021C57.2174 29.3356 57.2471 29.2524 57.2543 29.1525C57.2566 29.1359 57.2578 29.099 57.2578 29.0419C57.2578 28.9873 57.2566 28.9516 57.2543 28.9349C57.2495 28.8351 57.2198 28.7531 57.1651 28.6889C57.1128 28.6223 57.0331 28.589 56.9262 28.589C56.8144 28.589 56.7336 28.6223 56.6836 28.6889C56.6337 28.7554 56.6064 28.847 56.6016 28.9635L56.5981 29.0419C56.5981 29.1822 56.6218 29.294 56.6694 29.3772C56.7169 29.458 56.8025 29.4984 56.9262 29.4984ZM59.1793 30.0369C58.8845 30.0369 58.6574 29.9668 58.4982 29.8265C58.3389 29.6863 58.2521 29.4889 58.2378 29.2345C58.2354 29.2036 58.2342 29.1501 58.2342 29.074C58.2342 28.998 58.2354 28.9445 58.2378 28.9136C58.2521 28.6615 58.3412 28.4654 58.5053 28.3251C58.6693 28.1825 58.894 28.1111 59.1793 28.1111C59.467 28.1111 59.6929 28.1825 59.8569 28.3251C60.021 28.4654 60.1101 28.6615 60.1244 28.9136C60.1268 28.9445 60.128 28.998 60.128 29.074C60.128 29.1501 60.1268 29.2036 60.1244 29.2345C60.1101 29.4889 60.0234 29.6863 59.8641 29.8265C59.7048 29.9668 59.4765 30.0369 59.1793 30.0369ZM59.1793 29.6019C59.2839 29.6019 59.3612 29.5709 59.4111 29.5091C59.4611 29.4449 59.4896 29.3475 59.4967 29.2167C59.4991 29.1929 59.5003 29.1454 59.5003 29.074C59.5003 29.0027 59.4991 28.9552 59.4967 28.9314C59.4896 28.803 59.4599 28.7067 59.4076 28.6425C59.3576 28.5783 59.2816 28.5462 59.1793 28.5462C58.982 28.5462 58.8774 28.6746 58.8655 28.9314L58.8619 29.074L58.8655 29.2167C58.8702 29.3475 58.8976 29.4449 58.9475 29.5091C58.9998 29.5709 59.0771 29.6019 59.1793 29.6019ZM61.0723 30.0013C61.039 30.0013 61.0129 29.9941 60.9939 29.9799C60.9772 29.9632 60.9629 29.9407 60.9511 29.9121L60.277 28.2573L60.2699 28.2253C60.2699 28.2039 60.277 28.186 60.2913 28.1718C60.3079 28.1551 60.3281 28.1468 60.3519 28.1468H60.7549C60.8072 28.1468 60.8417 28.1718 60.8583 28.2217L61.2613 29.3165L61.6679 28.2217C61.6845 28.1718 61.719 28.1468 61.7713 28.1468H62.1743C62.1957 28.1468 62.2147 28.1551 62.2314 28.1718C62.248 28.186 62.2563 28.2039 62.2563 28.2253L62.2492 28.2573L61.5752 29.9121C61.5633 29.9407 61.5478 29.9632 61.5288 29.9799C61.5098 29.9941 61.4836 30.0013 61.4503 30.0013H61.0723Z" fill="#0493D3"/>
</svg>