<svg width="24" height="24" viewBox="0 0 24 24" fill="none" xmlns="http://www.w3.org/2000/svg">
<path d="M22.5 17.5001C22.5 18.6046 21.6045 19.5001 20.5 19.5001H3.5C2.3955 19.5001 1.5 18.6046 1.5 17.5001V6.50006C1.5 5.39556 2.3955 4.50006 3.5 4.50006H20.5C21.6045 4.50006 22.5 5.39556 22.5 6.50006V17.5001Z" fill="#1976D2"/>
<path d="M11.1275 10.0001L10.071 12.3416L9.0195 10.0001H7.672V13.3631L6.1705 10.0001H5.0335L3.5 13.4906H4.4075L4.743 12.7116H6.459L6.8 13.4906H8.5325V10.8981L9.682 13.4906H10.4635L11.639 10.9431V13.4906H12.5V10.0001H11.1275ZM5.0675 11.9576L5.5805 10.7376L6.1135 11.9576H5.0675ZM18.9415 11.7066L20.5 10.0091H19.3915L18.3945 11.0911L17.43 10.0001H14V13.4911H17.3175L18.3635 12.3356L19.3835 13.5001H20.4885L18.9415 11.7066ZM16.864 12.7581H14.8585V12.0676H16.7775V11.4061H14.8585V10.7521L16.9755 10.7581L17.822 11.7066L16.864 12.7581Z" fill="white"/>
</svg>