<svg xmlns="http://www.w3.org/2000/svg" xmlns:xlink="http://www.w3.org/1999/xlink" viewBox="0 0 399.61 353.13"><defs><style>.cls-1{fill:url(#linear-gradient);}.cls-2{fill:url(#linear-gradient-2);}.cls-3{fill:url(#linear-gradient-3);}.cls-4{fill-rule:evenodd;opacity:0.83;fill:url(#linear-gradient-4);}.cls-5{fill:#8b0020;}.cls-6{fill:#fff;}</style><linearGradient id="linear-gradient" y1="176.57" x2="399.61" y2="176.57" gradientUnits="userSpaceOnUse"><stop offset="0" stop-color="#ba002a" stop-opacity="0.48"/><stop offset="1" stop-color="#ba002a" stop-opacity="0.48"/></linearGradient><linearGradient id="linear-gradient-2" x1="199.8" y1="350.18" x2="199.8" y2="2.95" gradientUnits="userSpaceOnUse"><stop offset="0" stop-color="#dc8094"/><stop offset="0.97" stop-color="#f5dae0"/></linearGradient><linearGradient id="linear-gradient-3" x1="199.66" y1="325.57" x2="199.66" y2="29.68" gradientUnits="userSpaceOnUse"><stop offset="0" stop-color="#ea213b"/><stop offset="0.42" stop-color="#c51f33"/><stop offset="0.86" stop-color="#630f11"/></linearGradient><linearGradient id="linear-gradient-4" x1="193.64" y1="149.58" x2="193.64" y2="38.76" gradientUnits="userSpaceOnUse"><stop offset="0" stop-color="#ba002a"/><stop offset="0.19" stop-color="#bf143b"/><stop offset="0.57" stop-color="#cd4866"/><stop offset="1" stop-color="#df899c"/></linearGradient></defs><title>Asset 19ALERT-icon</title><g id="Layer_2" data-name="Layer 2"><g id="Layer_1-2" data-name="Layer 1"><path class="cls-1" d="M373.64,353.13h-348A25.65,25.65,0,0,1,3.91,313.87L177.54,13.37c.2-.36.4-.72.61-1.06l.16-.27h0a25.66,25.66,0,0,1,43.47,0h0l.14.24c.23.36.44.74.65,1.12L395.05,312.9a25.64,25.64,0,0,1-21.11,40.23Z"/><path class="cls-2" d="M392.46,314.36v0L220.1,15h0A22.71,22.71,0,0,0,180,15h0L6.58,315.16h0a22.69,22.69,0,0,0,19.08,35H373.25l0,0c.23,0,.44,0,.67,0a22.68,22.68,0,0,0,18.52-35.82Z"/><polygon class="cls-3" points="29.16 325.57 200.07 29.68 370.16 325.44 29.16 325.57"/><path class="cls-4" d="M200.18,38.76,135.39,149.58c47.64-45.05,60.43-47.93,116.5-23Z"/><path class="cls-5" d="M197.73,232.06c6.55,0,11.86-6,11.86-13.44l11.67-99.49c0-14.73-10.54-26.67-23.53-26.67s-23.52,11.94-23.52,26.67l11.66,99.49C185.87,226,191.18,232.06,197.73,232.06Zm.1,20.21c-12.37,0-22.4,9.76-22.4,21.81s10,21.8,22.4,21.8,22.4-9.76,22.4-21.8S210.2,252.27,197.83,252.27Z"/><path class="cls-6" d="M201.87,236.2c6.55,0,11.87-6,11.87-13.44l11.66-99.49c0-14.73-10.53-26.66-23.53-26.66s-23.52,11.93-23.52,26.66L190,222.76C190,230.18,195.32,236.2,201.87,236.2Zm0,22.91c-13,0-23.52,10.25-23.52,22.9s10.53,22.9,23.52,22.9S225.4,294.66,225.4,282,214.87,259.11,201.87,259.11Z"/></g></g></svg>