<svg width="60" height="60" viewBox="0 0 60 60" fill="none" xmlns="http://www.w3.org/2000/svg">
<path d="M21.5389 36.2501C21.3542 36.2475 21.1708 36.2822 20.9993 36.3522C20.8279 36.4222 20.6718 36.5261 20.5403 36.6579C20.4087 36.7897 20.3042 36.9468 20.2329 37.12C20.1616 37.2932 20.1249 37.4791 20.1249 37.6668C20.1249 37.8545 20.1616 38.0404 20.2329 38.2136C20.3042 38.3868 20.4087 38.5439 20.5403 38.6757C20.6718 38.8075 20.8279 38.9114 20.9993 38.9814C21.1708 39.0514 21.3542 39.0861 21.5389 39.0835H22.2687L20.5178 43.5354C19.4838 43.9498 18.7505 44.9684 18.7505 46.1667V51.197C18.7505 52.4224 19.5242 53.5081 20.6703 53.8892L21.8249 54.2738C22.0256 54.8651 22.3323 55.4265 22.7616 55.9173C23.5981 56.8735 24.9083 57.5 26.4188 57.5C27.9292 57.5 29.2394 56.8735 30.0759 55.9173C30.4075 55.5382 30.6497 55.1109 30.8438 54.6667H44.3014C44.4955 55.1109 44.7377 55.5382 45.0693 55.9173C45.9058 56.8735 47.216 57.5 48.7264 57.5C50.2369 57.5 51.5471 56.8735 52.3836 55.9173C52.865 55.3671 53.1822 54.726 53.3775 54.0552L55.0005 53.25V47.719C55.0005 46.3902 54.0937 45.2368 52.8166 44.9521C51.6131 44.6833 50.0071 44.3518 48.3016 44.0279L45.2681 39.4044C43.9771 37.4341 41.7974 36.2501 39.4679 36.2501H28.5101H24.3274H21.5389ZM25.2723 39.0835H28.5101H31.2986V43.3334H23.5976L25.2723 39.0835ZM34.087 39.0835H39.4679C40.8693 39.0835 42.1728 39.7929 42.948 40.976L44.5274 43.3805C44.4337 43.3667 44.3373 43.3467 44.2442 43.3334H34.087V39.0835ZM26.4188 50.4167C27.2321 50.4167 27.6646 50.6756 27.99 51.0476C28.3154 51.4195 28.5101 51.9711 28.5101 52.5417C28.5101 53.1123 28.3154 53.6639 27.99 54.0358C27.6646 54.4078 27.2321 54.6667 26.4188 54.6667C25.6055 54.6667 25.1729 54.4078 24.8475 54.0358C24.5221 53.6639 24.3274 53.1123 24.3274 52.5417C24.3274 51.9711 24.5221 51.4195 24.8475 51.0476C25.1729 50.6756 25.6055 50.4167 26.4188 50.4167ZM48.7264 50.4167C49.5398 50.4167 49.9723 50.6756 50.2977 51.0476C50.6231 51.4195 50.8178 51.9711 50.8178 52.5417C50.8178 53.1123 50.6231 53.6639 50.2977 54.0358C49.9723 54.4078 49.5398 54.6667 48.7264 54.6667C47.9131 54.6667 47.4806 54.4078 47.1552 54.0358C46.8298 53.6639 46.6351 53.1123 46.6351 52.5417C46.6351 51.9711 46.8298 51.4195 47.1552 51.0476C47.4806 50.6756 47.9131 50.4167 48.7264 50.4167Z" fill="#0493D3"/>
<path d="M25.1121 3.75067C24.7096 3.76267 24.3276 3.9309 24.0469 4.21972L14.7507 13.5159C14.602 13.6587 14.4833 13.8297 14.4015 14.0189C14.3197 14.2081 14.2765 14.4118 14.2744 14.6179C14.2723 14.824 14.3113 15.0285 14.3893 15.2194C14.4672 15.4102 14.5824 15.5836 14.7282 15.7293C14.8739 15.8751 15.0473 15.9903 15.2381 16.0682C15.429 16.1462 15.6335 16.1852 15.8396 16.1831C16.0457 16.181 16.2494 16.1378 16.4386 16.056C16.6278 15.9742 16.7988 15.8555 16.9416 15.7068L26.2379 6.41062C26.4617 6.193 26.6147 5.91281 26.6766 5.60678C26.7385 5.30074 26.7065 4.98315 26.5848 4.69561C26.4631 4.40807 26.2574 4.164 25.9946 3.99538C25.7318 3.82676 25.4242 3.74147 25.1121 3.75067ZM28.2411 8.41391C28.0355 8.41393 27.832 8.45488 27.6423 8.53437C27.4527 8.61386 27.2808 8.7303 27.1366 8.8769L19.4533 16.5662C19.2936 16.7111 19.166 16.8876 19.0784 17.0846C18.9909 17.2815 18.9454 17.4946 18.9449 17.7101C18.9446 17.936 18.9938 18.1593 19.089 18.3642C19.1841 18.5691 19.3229 18.7507 19.4956 18.8963L28.683 28.0897C28.8272 28.2372 28.9995 28.3544 29.1897 28.4344C29.3799 28.5144 29.5842 28.5557 29.7905 28.5557C29.9947 28.5557 30.1969 28.5153 30.3854 28.4369C30.5739 28.3584 30.745 28.2435 30.889 28.0987L38.6177 20.3701C38.7662 20.2257 38.8841 20.053 38.9647 19.8623C39.0453 19.6715 39.0868 19.4665 39.0868 19.2595C39.0868 19.0539 39.0458 18.8503 38.9663 18.6607C38.8868 18.471 38.7704 18.2991 38.6238 18.155L29.3517 8.88295C29.3457 8.87685 29.3397 8.8708 29.3336 8.8648C29.0433 8.57607 28.6506 8.41397 28.2411 8.41391ZM42.1553 20.7937C41.7528 20.8057 41.3707 20.9739 41.0901 21.2628L31.7938 30.559C31.6451 30.7017 31.5264 30.8727 31.4446 31.062C31.3628 31.2512 31.3196 31.4548 31.3175 31.661C31.3154 31.8671 31.3545 32.0716 31.4324 32.2624C31.5103 32.4533 31.6255 32.6266 31.7713 32.7724C31.9171 32.9182 32.0904 33.0334 32.2813 33.1113C32.4721 33.1892 32.6766 33.2283 32.8827 33.2262C33.0889 33.2241 33.2925 33.1809 33.4817 33.0991C33.671 33.0173 33.842 32.8986 33.9847 32.7499L43.281 23.4537C43.5049 23.236 43.6578 22.9559 43.7197 22.6498C43.7816 22.3438 43.7496 22.0262 43.628 21.7387C43.5063 21.4511 43.3006 21.207 43.0378 21.0384C42.775 20.8698 42.4674 20.7845 42.1553 20.7937ZM20.9482 24.3615L6.19581 36.9592C5.82403 37.2486 5.52313 37.619 5.316 38.0421C5.10888 38.4653 5.00097 38.9301 5.00049 39.4013C5.00049 40.2231 5.32696 41.0113 5.90809 41.5924C6.48922 42.1735 7.2774 42.5 8.09924 42.5C8.56107 42.4999 9.01703 42.3967 9.4338 42.1977C9.85057 41.9987 10.2176 41.7091 10.508 41.3501C10.5131 41.344 10.5182 41.338 10.5232 41.3319L10.5262 41.3289L23.1391 26.5524L20.9482 24.3615Z" fill="#0493D3"/>
</svg>