<?xml version="1.0" encoding="utf-8"?>
<!-- Generator: Adobe Illustrator 22.1.0, SVG Export Plug-In . SVG Version: 6.00 Build 0)  -->
<svg version="1.1" id="Layer_1" xmlns="http://www.w3.org/2000/svg" xmlns:xlink="http://www.w3.org/1999/xlink" x="0px" y="0px"
	 viewBox="0 0 637.4 727.8" style="enable-background:new 0 0 637.4 727.8;" xml:space="preserve">
<style type="text/css">
	.st0{fill:#F1F1F1;}
	.st1{fill:#D8D8D8;}
	.st2{fill:#BE001C;}
	.st3{fill:#454545;}
	.st4{fill:#FFFFFF;}
</style>
<title>Asset 1bbp-does-not-qualify</title>
<g id="Layer_2_1_">
	<g id="Layer_1-2">
		<path class="st0" d="M612.6,46.6c-181.8,0-190-39.2-294.7-39.6C213.2,7.4,205,46.6,23.2,46.6c-63.2,211.3,28.6,476.5,294.4,676.8
			v0.4l0.3-0.2l0.3,0.2v-0.4C584,523.1,675.8,257.9,612.6,46.6z"/>
		<path class="st1" d="M317.9,11.9c44.3,0.2,70.9,7.3,101.7,15.6c41.1,11.1,87.6,23.6,189.3,23.9c14.9,51.4,20.6,105.7,16.8,161.5
			c-3.9,57.9-17.8,116.5-41.5,174.2c-24.5,59.7-59.1,117.7-102.8,172.5c-45.3,56.7-100.3,109.7-163.5,157.6
			c-63.2-47.9-118.2-101-163.5-157.6C110.6,505,76,446.9,51.5,387.2C27.9,329.5,13.9,270.9,10,213c-3.7-55.8,2-110.1,16.8-161.5
			c101.7-0.3,148.2-12.8,189.3-23.9C247,19.3,273.5,12.1,317.9,11.9 M317.9,7C213.2,7.4,205,46.6,23.2,46.6
			c-63.2,211.3,28.6,476.5,294.4,676.8v0.4l0.3-0.2l0.3,0.2v-0.4C584,523.1,675.8,257.9,612.6,46.6C430.8,46.6,422.6,7.4,317.9,7z"
			/>
		<path class="st2" d="M124,197.9h-22.5v-57.8H124c18.2,0,30.7,12.5,30.7,28.7v0.2C154.7,185.3,142.2,197.9,124,197.9z M141.5,169
			c0-10.2-7-17.4-17.4-17.4h-9.8v34.8h9.8c10.4,0,17.4-7,17.4-17.3V169z"/>
		<path class="st2" d="M192.5,198.9c-17.8,0-30.6-13.3-30.6-29.7V169c0-16.4,13-29.9,30.8-29.9s30.6,13.3,30.6,29.7v0.2
			C223.3,185.4,210.3,198.9,192.5,198.9z M210,169c0-9.9-7.3-18.2-17.5-18.2s-17.3,8.1-17.3,18v0.2c0,9.8,7.3,18.2,17.5,18.2
			s17.3-8.1,17.3-18V169z"/>
		<path class="st2" d="M232.9,197.9v-57.8h43.6v11.3h-31v11.7h27.2v11.3h-27.2v12.1h31.4v11.3L232.9,197.9z"/>
		<path class="st2" d="M307.1,198.7c-9,0-17.8-3.3-24.5-9.2l7.5-9c5.2,4.3,10.6,7,17.3,7c5.2,0,8.3-2.1,8.3-5.4v-0.2
			c0-3.2-2-4.9-11.6-7.3c-11.6-3-19.1-6.2-19.1-17.7v-0.2c0-10.5,8.4-17.4,20.2-17.4c7.8-0.1,15.4,2.5,21.5,7.3l-6.6,9.6
			c-5.1-3.5-10.2-5.7-15-5.7c-4.9,0-7.4,2.2-7.4,5v0.2c0,3.8,2.5,5,12.5,7.6c11.7,3.1,18.3,7.3,18.3,17.3v0.2
			C328.4,192.3,319.6,198.7,307.1,198.7z"/>
		<path class="st2" d="M401.4,197.9l-28-36.7v36.7h-12.5v-57.8h11.7l27.1,35.6v-35.6h12.5v57.8L401.4,197.9z"/>
		<path class="st2" d="M452.5,198.9c-17.8,0-30.6-13.3-30.6-29.7V169c0-16.4,13-29.9,30.8-29.9c17.8,0,30.6,13.3,30.6,29.7v0.2
			C483.3,185.4,470.4,198.9,452.5,198.9z M470,169c0-9.9-7.3-18.2-17.5-18.2s-17.3,8.1-17.3,18v0.2c0,9.8,7.3,18.2,17.5,18.2
			s17.3-8.1,17.3-18V169z"/>
		<path class="st2" d="M516.7,151.8v46.1h-12.7v-46.1h-17.6v-11.7h47.9v11.7H516.7z"/>
		<path class="st2" d="M163.5,287.8l-7.4-6.7c-6,3.8-13,5.8-20.1,5.8c-20.8,0-35.8-15.5-35.8-34.7V252c0-19.2,15.1-34.9,36-34.9
			s35.8,15.5,35.8,34.7v0.2c0,6.9-2.1,13.7-6,19.4l6.9,5.9L163.5,287.8z M156.5,252c0-11.6-8.5-21.2-20.5-21.2
			c-12,0-20.3,9.5-20.3,21v0.2c0,11.6,8.5,21.2,20.5,21.2c3.1,0,6.1-0.6,8.9-1.8l-11-9.4l9.5-10.6l11.1,10c1.3-2.9,1.9-6.1,1.8-9.3
			L156.5,252z"/>
		<path class="st2" d="M211.4,286.8c-18.1,0-29.2-10.1-29.2-30v-38.6H197v38.2c0,11,5.5,16.7,14.6,16.7s14.6-5.5,14.6-16.2v-38.7
			H241v38.1C241,276.8,229.5,286.8,211.4,286.8z"/>
		<path class="st2" d="M302.1,285.7l-6.2-15.1h-28.6l-6.2,15.1H246l28.9-68h13.7l28.9,68H302.1z M281.6,235.6l-9,21.9h17.9
			L281.6,235.6z"/>
		<path class="st2" d="M326.1,285.7v-67.5H341v54h33.7v13.5H326.1z"/>
		<path class="st2" d="M384.6,285.7v-67.5h14.9v67.5H384.6z"/>
		<path class="st2" d="M429.2,231.7v14.4h32.2v13.5h-32.2v26.1h-14.9v-67.5h51.4v13.5L429.2,231.7z"/>
		<path class="st2" d="M509.6,258.8v26.9h-14.9v-26.6l-26-40.9h17.4l16.1,27.1l16.4-27.1h16.9L509.6,258.8z"/>
		<path class="st3" d="M125.8,337.5v8.1h18.2v7.6h-18.2V368h-8.4v-38.1h29v7.6L125.8,337.5z"/>
		<path class="st3" d="M170.5,368.7c-11.8,0-20.2-8.8-20.2-19.6V349c0-10.8,8.5-19.7,20.3-19.7s20.2,8.8,20.2,19.6v0.1
			C190.8,359.8,182.3,368.7,170.5,368.7z M182.1,349c0-6.5-4.8-12-11.5-12c-6.7,0-11.4,5.3-11.4,11.9v0.1c0,6.5,4.8,12,11.5,12
			c6.7,0,11.4-5.3,11.4-11.9V349z"/>
		<path class="st3" d="M220.3,368l-8.2-12.2h-6.6V368h-8.4v-38.1h17.4c9,0,14.4,4.7,14.4,12.6v0.1c0.3,5.3-3.1,10.2-8.2,11.8
			l9.3,13.6L220.3,368z M220.5,342.9c0-3.6-2.5-5.4-6.6-5.4h-8.3v10.9h8.5c4.1,0,6.4-2.2,6.4-5.4V342.9z"/>
		<path class="st3" d="M268.8,368h-18.1v-38.1h17.7c7.8,0,12.6,3.9,12.6,9.8v0.1c0.1,3.5-1.9,6.7-5,8.2c4.4,1.7,7.1,4.2,7.1,9.4v0.1
			C283.1,364.5,277.5,368,268.8,368z M272.7,341.2c0-2.5-2-3.9-5.5-3.9h-8.3v8.1h7.7C270.3,345.3,272.7,344.1,272.7,341.2
			L272.7,341.2z M274.8,356.4c0-2.6-1.9-4.1-6.2-4.1h-9.7v8.4h10c3.7,0,5.9-1.3,5.9-4.1L274.8,356.4z"/>
		<path class="st3" d="M304.8,368.6c-10.2,0-16.5-5.7-16.5-16.9v-21.8h8.4v21.6c0,6.2,3.1,9.4,8.2,9.4s8.2-3.1,8.2-9.1v-21.8h8.4
			v21.5C321.6,363,315.1,368.6,304.8,368.6z"/>
		<path class="st3" d="M348.1,352.8V368h-8.4v-15l-14.7-23.1h9.8l9.1,15.3l9.3-15.3h9.5L348.1,352.8z"/>
		<path class="st3" d="M385,368h-18.1v-38.1h17.7c7.8,0,12.6,3.9,12.6,9.8v0.1c0.1,3.5-1.9,6.7-5,8.2c4.4,1.7,7.1,4.2,7.1,9.4v0.1
			C399.3,364.5,393.6,368,385,368z M388.9,341.2c0-2.5-2-3.9-5.5-3.9h-8.3v8.1h7.7C386.5,345.3,388.9,344.1,388.9,341.2L388.9,341.2
			z M391,356.4c0-2.6-1.9-4.1-6.2-4.1h-9.7v8.4h10c3.7,0,5.9-1.3,5.9-4.1L391,356.4z"/>
		<path class="st3" d="M433.5,368l-3.5-8.5h-16.1l-3.5,8.5h-8.5l16.3-38.4h7.7l16.3,38.4H433.5z M422,339.7l-5.1,12.4H427L422,339.7
			z"/>
		<path class="st3" d="M462.5,368.7c-10.6,0.2-19.4-8.3-19.6-18.9c0-0.2,0-0.5,0-0.7V349c-0.2-10.7,8.4-19.5,19.1-19.7
			c0.3,0,0.5,0,0.8,0c7.2,0,11.5,2.4,15,5.9l-5.3,6.1c-3-2.7-5.9-4.3-9.7-4.3c-6.4,0-11.1,5.3-11.1,11.9v0.1c0,6.5,4.5,12,11.1,12
			c4.4,0,7-1.7,10-4.5l5.3,5.4C474.2,366.1,469.9,368.7,462.5,368.7z"/>
		<path class="st3" d="M508.3,368l-11.8-16.2l-4.4,4.6V368h-8.4v-38.1h8.4v16.7l15.5-16.7h10.1l-15.5,16.2l16.2,21.9L508.3,368z"/>
		<path class="st3" d="M154.5,410.8h-6.4v11.4h-8.4v-38.1h15.6c9.1,0,14.6,5.4,14.6,13.2v0.1C169.9,406.2,163,410.8,154.5,410.8z
			 M161.4,397.5c0-3.8-2.6-5.8-6.8-5.8h-6.5v11.7h6.6c4.2,0,6.6-2.5,6.6-5.8V397.5z"/>
		<path class="st3" d="M198.2,422.2L190,410h-6.6v12.2H175v-38.1h17.4c9,0,14.4,4.7,14.4,12.6v0.1c0.3,5.3-3.1,10.2-8.2,11.8
			l9.3,13.6L198.2,422.2z M198.3,397.1c0-3.6-2.5-5.4-6.6-5.4h-8.3v10.9h8.5c4.1,0,6.4-2.2,6.4-5.4V397.1z"/>
		<path class="st3" d="M231.8,422.8c-11.8,0-20.2-8.8-20.2-19.6v-0.1c0-10.8,8.5-19.7,20.3-19.7c11.8,0,20.2,8.8,20.2,19.6v0.1
			C252.1,414,243.6,422.8,231.8,422.8z M243.4,403.1c0-6.5-4.8-12-11.5-12c-6.8,0-11.4,5.3-11.4,11.9v0.1c0,6.5,4.8,12,11.5,12
			C238.7,415.1,243.3,409.8,243.4,403.1L243.4,403.1z"/>
		<path class="st3" d="M274.1,391.8v30.4h-8.4v-30.4h-11.6v-7.7h31.5v7.7H274.1z"/>
		<path class="st3" d="M291.1,422.2v-38.1h28.7v7.5h-20.4v7.7h18v7.5h-18v8h20.7v7.5L291.1,422.2z"/>
		<path class="st3" d="M344.3,422.8c-10.6,0.2-19.4-8.3-19.6-18.9c0-0.2,0-0.5,0-0.7v-0.1c-0.2-10.7,8.4-19.5,19.1-19.7
			c0.3,0,0.5,0,0.8,0c7.2,0,11.5,2.4,15,5.9l-5.3,6.1c-3-2.7-5.9-4.3-9.7-4.3c-6.4,0-11.1,5.3-11.1,11.9v0.1c0,6.5,4.5,12,11.1,12
			c4.4,0,7-1.7,10-4.5l5.3,5.4C356,420.2,351.7,422.8,344.3,422.8z"/>
		<path class="st3" d="M382.8,391.8v30.4h-8.4v-30.4h-11.6v-7.7h31.6v7.7H382.8z"/>
		<path class="st3" d="M400.1,422.2v-38.1h8.4v38.1H400.1z"/>
		<path class="st3" d="M435.4,422.8c-11.8,0-20.2-8.8-20.2-19.6v-0.1c0-10.8,8.5-19.7,20.3-19.7c11.8,0,20.2,8.8,20.2,19.6v0.1
			C455.8,414,447.2,422.8,435.4,422.8z M447,403.1c0-6.5-4.8-12-11.6-12c-6.8,0-11.4,5.3-11.4,11.9v0.1c0,6.5,4.8,12,11.5,12
			C442.3,415.1,447,409.8,447,403.1L447,403.1z"/>
		<path class="st3" d="M488.9,422.2L470.4,398v24.2h-8.3v-38.1h7.7l17.9,23.5v-23.5h8.3v38.1H488.9z"/>
		<circle class="st2" cx="317.9" cy="538" r="71.7"/>
		<rect x="306.4" y="566.1" class="st4" width="23" height="15.1"/>
		<polygon class="st4" points="323.9,550.7 311.8,550.7 305.1,512.6 305.1,502.1 330.7,502.1 330.7,512.6 		"/>
	</g>
</g>
</svg>
