<svg width="42" height="36" viewBox="0 0 42 36" fill="none" xmlns="http://www.w3.org/2000/svg">
<path d="M21 0.400024C9.51201 0.400024 0.200012 9.71202 0.200012 21.2C0.200012 26.8 2.43361 31.8608 6.03201 35.6H13C13 33.832 14.432 32.4 16.2 32.4H25.8C27.568 32.4 29 33.832 29 35.6H35.968C39.5664 31.8608 41.8 26.8 41.8 21.2C41.8 9.71202 32.488 0.400024 21 0.400024ZM3.40001 21.2C3.40001 20.3168 4.11681 19.6 5.00001 19.6C5.88321 19.6 6.60001 20.3168 6.60001 21.2C6.60001 22.0832 5.88321 22.8 5.00001 22.8C4.11681 22.8 3.40001 22.0832 3.40001 21.2ZM7.94401 30.5856C7.17921 31.0272 6.20001 30.7648 5.75841 30C5.31681 29.2352 5.57921 28.256 6.34401 27.8144C7.10881 27.3728 8.08801 27.6352 8.52961 28.4C8.97121 29.1648 8.70881 30.144 7.94401 30.5856ZM8.52961 14C8.08801 14.7648 7.10881 15.0272 6.34401 14.5856C5.57761 14.144 5.31681 13.1648 5.75841 12.4C6.20001 11.6352 7.17921 11.3728 7.94401 11.8144C8.70881 12.256 8.97121 13.2352 8.52961 14ZM13.8 8.72962C13.0352 9.17122 12.056 8.90882 11.6144 8.14402C11.1728 7.37922 11.4352 6.40002 12.2 5.95842C12.9648 5.51682 13.944 5.77922 14.3856 6.54402C14.8272 7.30882 14.5648 8.28802 13.8 8.72962ZM34.056 11.8144C34.8208 11.3728 35.8 11.6352 36.2416 12.4C36.6832 13.1648 36.4208 14.144 35.656 14.5856C34.8912 15.0272 33.912 14.7648 33.4704 14C33.0288 13.2352 33.2912 12.256 34.056 11.8144ZM21 3.60002C21.8832 3.60002 22.6 4.31682 22.6 5.20002C22.6 6.08322 21.8832 6.80002 21 6.80002C20.1168 6.80002 19.4 6.08322 19.4 5.20002C19.4 4.31682 20.1168 3.60002 21 3.60002ZM29.824 17.7712L24.1952 21.1488C24.1952 21.1664 24.2 21.1824 24.2 21.2C24.2 22.968 22.768 24.4 21 24.4C19.232 24.4 17.8 22.968 17.8 21.2C17.8 19.432 19.232 18 21 18C21.5616 18 22.08 18.1568 22.5392 18.4112L28.176 15.0288C28.9328 14.5744 29.9168 14.8208 30.3712 15.5776C30.8272 16.3344 30.5808 17.3168 29.824 17.7712ZM30.3856 8.14402C29.944 8.90882 28.9648 9.17122 28.2 8.72962C27.4352 8.28802 27.1728 7.30882 27.6144 6.54402C28.056 5.77922 29.0352 5.51682 29.8 5.95842C30.5648 6.40002 30.8272 7.37762 30.3856 8.14402ZM36.2416 30C35.8 30.7648 34.8208 31.0272 34.056 30.5856C33.2912 30.144 33.0288 29.1648 33.4704 28.4C33.912 27.6352 34.8912 27.3728 35.656 27.8144C36.4224 28.256 36.6832 29.2352 36.2416 30ZM37 22.8C36.1168 22.8 35.4 22.0832 35.4 21.2C35.4 20.3168 36.1168 19.6 37 19.6C37.8832 19.6 38.6 20.3168 38.6 21.2C38.6 22.0832 37.8832 22.8 37 22.8Z" fill="#0493D3"/>
</svg>