<svg width="42" height="33" viewBox="0 0 42 33" fill="none" xmlns="http://www.w3.org/2000/svg">
<path d="M16.5781 0.400024C15.3653 0.400024 14.258 1.08397 13.7156 2.16877L13.0843 3.43127C12.5419 4.51447 11.433 5.20002 10.2218 5.20002H3.39995C1.63195 5.20002 0.199951 6.63202 0.199951 8.40002V29.2C0.199951 30.968 1.63195 32.4 3.39995 32.4H38.5999C40.368 32.4 41.7999 30.968 41.7999 29.2V8.40002C41.7999 6.63202 40.368 5.20002 38.5999 5.20002H31.7781C30.5653 5.20002 29.458 4.51607 28.9156 3.43127L28.2843 2.16877C27.7419 1.08557 26.633 0.400024 25.4218 0.400024H16.5781ZM6.59995 2.00002C5.71675 2.00002 4.99995 2.71682 4.99995 3.60002H9.79995C9.79995 2.71682 9.08315 2.00002 8.19995 2.00002H6.59995ZM21 6.80002C27.1759 6.80002 32.1999 11.824 32.1999 18C32.1999 24.176 27.1759 29.2 21 29.2C14.824 29.2 9.79995 24.176 9.79995 18C9.79995 11.824 14.824 6.80002 21 6.80002ZM35.3999 8.40002C36.2831 8.40002 37 9.11682 37 10C37 10.8832 36.2831 11.6 35.3999 11.6C34.5168 11.6 33.7999 10.8832 33.7999 10C33.7999 9.11682 34.5168 8.40002 35.3999 8.40002ZM21 10C18.8782 10 16.8434 10.8429 15.3431 12.3432C13.8428 13.8435 13 15.8783 13 18C13 20.1218 13.8428 22.1566 15.3431 23.6569C16.8434 25.1572 18.8782 26 21 26C23.1217 26 25.1565 25.1572 26.6568 23.6569C28.1571 22.1566 29 20.1218 29 18C29 15.8783 28.1571 13.8435 26.6568 12.3432C25.1565 10.8429 23.1217 10 21 10Z" fill="#0493D3"/>
</svg>