<svg width="38" height="36" viewBox="0 0 38 36" fill="none" xmlns="http://www.w3.org/2000/svg">
<path d="M23.6 0.400024C22.5392 0.400024 21.5217 0.821452 20.7716 1.5716C20.0215 2.32174 19.6 3.33916 19.6 4.40002C19.6 5.46089 20.0215 6.47831 20.7716 7.22845C21.5217 7.9786 22.5392 8.40002 23.6 8.40002C24.6609 8.40002 25.6783 7.9786 26.4285 7.22845C27.1786 6.47831 27.6 5.46089 27.6 4.40002C27.6 3.33916 27.1786 2.32174 26.4285 1.5716C25.6783 0.821452 24.6609 0.400024 23.6 0.400024ZM0.400024 2.00002V5.20002H7.39377C8.75377 5.20002 9.96605 6.06057 10.4156 7.34377L12.2469 12.5813C12.5349 13.4053 11.8499 14.2361 10.9875 14.0969C8.19233 13.6457 4.68002 13.2876 0.400024 13.2156V19.6H3.60002C4.48322 19.6 5.20002 20.3168 5.20002 21.2C5.20002 22.0832 4.48322 22.8 3.60002 22.8H0.400024V30.7906C6.15522 30.7298 13.2 30.3813 13.2 30.3813V32.4C13.2 34.168 14.632 35.6 16.4 35.6C18.168 35.6 19.6 34.168 19.6 32.4V21.0469C19.6 19.956 19.3224 18.9138 18.8313 18H22.9156C23.2983 18.0008 23.6686 17.8645 23.9594 17.6156L23.9531 17.6313L24.0375 17.5438C24.0635 17.5165 24.0885 17.4884 24.1125 17.4594L25.7375 15.7313L28.7938 20.8156L26.5563 23.6625V23.6656C26.1858 24.1107 25.9887 24.6746 26.0014 25.2535C26.014 25.8324 26.2355 26.3872 26.625 26.8156L32.5969 34.7656C32.7343 35.0179 32.9372 35.2284 33.184 35.3752C33.4309 35.5221 33.7128 35.5997 34 35.6C34.2996 35.5997 34.5931 35.5152 34.847 35.3562C35.1009 35.1973 35.3051 34.9702 35.4364 34.7009C35.5676 34.4316 35.6206 34.1309 35.5893 33.8329C35.558 33.535 35.4437 33.2518 35.2594 33.0156L31.3969 26.6438L35.0563 23.9469L35.0532 23.9406C35.527 23.6921 35.9462 23.3509 36.2859 22.9374C36.6255 22.5239 36.8788 22.0464 37.0306 21.5333C37.1824 21.0201 37.2297 20.4817 37.1697 19.95C37.1097 19.4182 36.9436 18.9039 36.6813 18.4375L36.6875 18.4344L36.6531 18.3813L32.0375 10.7344C32.0334 10.7271 32.0292 10.7198 32.025 10.7125C31.7037 10.0219 31.1918 9.43743 30.5497 9.02777C29.9075 8.61812 29.1617 8.40033 28.4 8.40002C27.6158 8.40056 26.8491 8.63161 26.1951 9.06443C25.5411 9.49725 25.0288 10.1128 24.7219 10.8344L22.0625 14.8H16.4156L13.4375 6.28752C12.5399 3.72432 10.1106 2.00002 7.39377 2.00002H0.400024ZM12.4 19.6C13.7248 19.6 14.8 20.6752 14.8 22C14.8 23.3248 13.7248 24.4 12.4 24.4C11.0752 24.4 10 23.3248 10 22C10 20.6752 11.0752 19.6 12.4 19.6ZM25.3563 29.2094L24.4406 33.6313H24.4438C24.3881 33.8662 24.3864 34.1106 24.4386 34.3463C24.4909 34.582 24.5958 34.8028 24.7455 34.9922C24.8952 35.1816 25.0858 35.3347 25.3031 35.4399C25.5203 35.5452 25.7586 35.5999 26 35.6C26.3788 35.6 26.7453 35.4655 27.0343 35.2206C27.3233 34.9757 27.516 34.6362 27.5781 34.2625L28.0438 32.6688L25.3563 29.2094Z" fill="#0493D3"/>
</svg>