<svg width="42" height="34" viewBox="0 0 42 34" fill="none" xmlns="http://www.w3.org/2000/svg">
<path d="M39.4944 16.1568L37 15.5824L35.3871 9.41442C34.8703 6.81602 32.6656 3.55682 29.9007 3.12642L12.4064 0.400024C9.68955 0.400024 7.26075 2.12322 6.36475 4.68482L3.07195 12.0288C1.31355 13.1856 0.199951 15.184 0.199951 17.3824V30.8C0.199951 32.568 1.63195 34 3.39995 34C5.16795 34 6.59995 32.568 6.59995 30.8V26.7184C6.59995 26.7184 14.208 28.5808 19.896 29.3616C26.9248 30.3264 33.6287 29.6736 33.6287 29.6736L33.3167 30.384C33.0431 32.0784 34.2799 33.6784 36.0784 33.9584C37.8767 34.2384 39.5567 33.0928 39.8303 31.4L41.5872 21.7424C41.9279 19.6352 41.104 17.544 39.4944 16.1568ZM7.55195 8.91682L9.38555 5.74242C9.83515 4.45922 11.0464 3.60002 12.4064 3.60002L29.4063 6.19362C30.7903 6.40962 31.8911 8.64802 32.1488 9.94882L33.5567 11.9456C33.7231 12.7808 32.896 13.4672 32.0399 13.1968C28.9247 12.2144 26.4799 14.0528 21.3727 13.256C16.2671 12.4608 11.952 9.92482 8.81275 10.4304C7.95035 10.5712 7.26395 9.74082 7.55195 8.91682ZM7.39995 20.736C6.07515 20.736 4.99995 19.6608 4.99995 18.336C4.99995 17.0112 6.07515 15.936 7.39995 15.936C8.72475 15.936 9.79995 17.0112 9.79995 18.336C9.79995 19.6608 8.72475 20.736 7.39995 20.736ZM25.0303 20.8848L16.2 19.136C15.3168 19.136 14.6 18.4192 14.6 17.536C14.6 16.6528 15.3168 15.936 16.2 15.936L25.5264 17.8176C26.4256 17.9584 27.0447 18.7584 26.9071 19.6048C26.7695 20.4512 25.9295 21.024 25.0303 20.8848ZM33.2543 23.4016C32.08 22.4592 31.8527 20.8016 32.7455 19.7008L34.7999 21.5024L37 23.112C36.1055 24.2144 34.4287 24.344 33.2543 23.4016Z" fill="#0493D3"/>
</svg>