<svg width="42" height="32" viewBox="0 0 42 32" fill="none" xmlns="http://www.w3.org/2000/svg">
<path d="M3.40001 0C1.63201 0 0.200012 1.432 0.200012 3.2V4.8C0.200012 6.568 1.63201 8 3.40001 8H9.80001C11.568 8 13 6.568 13 4.8V3.2C13 1.432 11.568 0 9.80001 0H3.40001ZM32.2 0C30.432 0 29 1.432 29 3.2V4.8C29 6.568 30.432 8 32.2 8H38.6C40.368 8 41.8 6.568 41.8 4.8V3.2C41.8 1.432 40.368 0 38.6 0H32.2ZM6.57501 9.57812C6.15121 9.58475 5.74735 9.75925 5.45207 10.0633C5.15679 10.3674 4.99421 10.7762 5.00001 11.2V13.2344C4.51438 13.5148 4.11095 13.9178 3.83014 14.4032C3.54933 14.8886 3.401 15.4392 3.40001 16C3.40046 16.5613 3.54853 17.1126 3.82936 17.5986C4.1102 18.0845 4.51392 18.4881 5.00001 18.7688V20.8C4.99701 21.012 5.03618 21.2225 5.11525 21.4193C5.19431 21.616 5.31168 21.7951 5.46056 21.9461C5.60943 22.0971 5.78682 22.217 5.98243 22.2988C6.17805 22.3806 6.38797 22.4228 6.60001 22.4228C6.81205 22.4228 7.02198 22.3806 7.21759 22.2988C7.4132 22.217 7.5906 22.0971 7.73947 21.9461C7.88834 21.7951 8.00572 21.616 8.08478 21.4193C8.16384 21.2225 8.20301 21.012 8.20001 20.8V18.7656C8.68483 18.486 9.08782 18.0841 9.36876 17.6H32.6344C32.914 18.0848 33.3159 18.4878 33.8 18.7688V20.8C33.797 21.012 33.8362 21.2225 33.9152 21.4193C33.9943 21.616 34.1117 21.7951 34.2606 21.9461C34.4094 22.0971 34.5868 22.217 34.7824 22.2988C34.978 22.3806 35.188 22.4228 35.4 22.4228C35.612 22.4228 35.822 22.3806 36.0176 22.2988C36.2132 22.217 36.3906 22.0971 36.5395 21.9461C36.6883 21.7951 36.8057 21.616 36.8848 21.4193C36.9638 21.2225 37.003 21.012 37 20.8V18.7656C37.4856 18.4852 37.8891 18.0822 38.1699 17.5968C38.4507 17.1114 38.599 16.5608 38.6 16C38.5996 15.4387 38.4515 14.8874 38.1707 14.4014C37.8898 13.9155 37.4861 13.5119 37 13.2312V11.2C37.0029 10.9859 36.9629 10.7735 36.8822 10.5752C36.8016 10.3769 36.6819 10.1968 36.5304 10.0455C36.3789 9.89428 36.1985 9.77499 36.0001 9.69471C35.8016 9.61442 35.5891 9.57478 35.375 9.57812C34.9512 9.58475 34.5474 9.75925 34.2521 10.0633C33.9568 10.3674 33.7942 10.7762 33.8 11.2V13.2344C33.3152 13.514 32.9122 13.9159 32.6313 14.4H9.36564C9.08599 13.9152 8.68408 13.5122 8.20001 13.2312V11.2C8.20294 10.9859 8.16289 10.7735 8.08222 10.5752C8.00156 10.3769 7.88192 10.1968 7.7304 10.0455C7.57887 9.89428 7.39854 9.77499 7.20008 9.69471C7.00162 9.61442 6.78907 9.57478 6.57501 9.57812ZM3.40001 24C1.63201 24 0.200012 25.432 0.200012 27.2V28.8C0.200012 30.568 1.63201 32 3.40001 32H9.80001C11.568 32 13 30.568 13 28.8V27.2C13 25.432 11.568 24 9.80001 24H3.40001ZM32.2 24C30.432 24 29 25.432 29 27.2V28.8C29 30.568 30.432 32 32.2 32H38.6C40.368 32 41.8 30.568 41.8 28.8V27.2C41.8 25.432 40.368 24 38.6 24H32.2Z" fill="#0493D3"/>
</svg>