<svg width="44" height="40" viewBox="0 0 44 40" fill="none" xmlns="http://www.w3.org/2000/svg">
<path d="M13 0.800049C5.93115 0.800049 0.199951 6.53125 0.199951 13.6C0.199951 23.2 11.4 29.6 11.4 36C11.4 36.8832 12.1168 37.6 13 37.6C13.8832 37.6 14.6 36.8832 14.6 36C14.6 29.6 25.7999 23.2 25.7999 13.6C25.7999 6.53125 20.0688 0.800049 13 0.800049ZM4.99995 10.4H8.19995V13.6H11.4V10.4H14.6V13.6H17.7999V10.4H21V13.6H17.7999V16.8H14.6V13.6H11.4V16.8H8.19995V13.6H4.99995V10.4ZM28.6781 10.4C28.8893 11.4336 29 12.504 29 13.6C29 14.144 28.9606 14.6752 28.9062 15.2H33.9499C34.7052 15.2 35.3461 15.7156 35.5093 16.4532L36.5249 21.0282C34.117 20.513 31.1185 20.1065 27.6593 20.0313C26.9569 21.7369 26.0389 23.3232 25.0437 24.8H30.5999C31.4831 24.8 32.1999 25.5168 32.1999 26.4C32.1999 27.2832 31.4831 28 30.5999 28H22.6968C22.4184 28.3584 22.1422 28.7123 21.8718 29.0563C19.9534 31.4947 17.9928 34.0041 17.8312 35.7657C20.4376 35.8969 23.4639 36 26.5999 36C31.2589 36 35.4579 35.7861 38.5999 35.575V36.8C38.5999 38.1248 39.6751 39.2 41 39.2C42.3247 39.2 43.3999 38.1248 43.3999 36.8V35.2V31.2V26.5157C43.3999 24.4149 42.047 22.5537 40.0406 21.9313C40.0294 21.9281 40.0174 21.9251 40.0062 21.9219L38.6343 15.7594C38.1463 13.5642 36.1996 12 33.9499 12H31.9343L31.7656 11.4938C31.5464 10.8394 30.9364 10.4 30.2468 10.4H28.6781ZM37.7999 24.8C39.1247 24.8 40.1999 25.8752 40.1999 27.2C40.1999 28.5248 39.1247 29.6 37.7999 29.6C36.4751 29.6 35.3999 28.5248 35.3999 27.2C35.3999 25.8752 36.4751 24.8 37.7999 24.8Z" fill="#0493D3"/>
</svg>