<svg id="Layer_1" data-name="Layer 1" xmlns="http://www.w3.org/2000/svg" xmlns:xlink="http://www.w3.org/1999/xlink" viewBox="0 0 400 400"><defs><style>.cls-1,.cls-3,.cls-4{fill-rule:evenodd;}.cls-1{fill:url(#linear-gradient);}.cls-2{fill:#a1cf8b;}.cls-3{fill:url(#linear-gradient-2);}.cls-4{fill:url(#linear-gradient-3);}.cls-5{fill:url(#linear-gradient-4);}.cls-6{fill:#32581f;}.cls-7{fill:#fff;}</style><linearGradient id="linear-gradient" x1="200.02" y1="397.89" x2="200.02" y2="2.42" gradientUnits="userSpaceOnUse"><stop offset="0" stop-color="#a1cf8b"/><stop offset="1" stop-color="#e0efd8"/></linearGradient><linearGradient id="linear-gradient-2" x1="200.01" y1="373.08" x2="200.01" y2="27.21" gradientUnits="userSpaceOnUse"><stop offset="0" stop-color="#63af3d"/><stop offset="0.21" stop-color="#579a36"/><stop offset="0.74" stop-color="#3c6a25"/><stop offset="1" stop-color="#32581f"/></linearGradient><linearGradient id="linear-gradient-3" x1="202.81" y1="141.74" x2="202.81" y2="44.22" gradientUnits="userSpaceOnUse"><stop offset="0" stop-color="#4a832e"/><stop offset="1" stop-color="#63af3d"/></linearGradient><linearGradient id="linear-gradient-4" x1="202.82" y1="72.56" x2="202.82" y2="54.42" gradientUnits="userSpaceOnUse"><stop offset="0" stop-color="#82bf64"/><stop offset="0.2" stop-color="#87c16a"/><stop offset="0.46" stop-color="#94c87a"/><stop offset="0.76" stop-color="#aad395"/><stop offset="1" stop-color="#c1dfb1"/></linearGradient></defs><title>Green Check 3EXPORT</title><path class="cls-1" d="M200,2.42c109.69,0,198.62,88.5,198.62,197.71S309.71,397.89,200,397.89,1.4,309.35,1.4,200.13,90.32,2.42,200,2.42Z"/><path class="cls-2" d="M200,399.31C89.73,399.31,0,310,0,200.13S89.73,1,200,1,400,90.34,400,200.13,310.32,399.31,200,399.31ZM200,3.8C91.26,3.8,2.79,91.87,2.79,200.13S91.26,396.47,200,396.47s197.2-88.07,197.2-196.34S308.76,3.8,200,3.8Z"/><path class="cls-3" d="M200,27.21c96.15,0,174.08,77.43,174.08,172.9s-77.93,173-174.08,173-174.12-77.45-174.12-173S103.87,27.21,200,27.21Z"/><path class="cls-4" d="M198.77,104.38c-74.42,0-135.86,35.47-136.31,35.56,20.79-55.82,75.63-95.72,140-95.72,65.12,0,120.45,40.77,140.68,97.52C341,139.85,273.23,104.38,198.77,104.38Z"/><path class="cls-5" d="M141.88,72.28c-1.17-1.27,24.47-17.66,61-17.86,36.47.2,62.08,16.55,60.93,17.84C262.79,74.57,237,62,202.83,62,168.6,62,142.87,74.57,141.88,72.28Z"/><path class="cls-6" d="M149,296.78h-.69a21.29,21.29,0,0,1-14.87-6.84L81.9,233.66a21.11,21.11,0,0,1,15.56-35.38A21.18,21.18,0,0,1,113,205.12l37,40.39,139.53-131.7.34-.14a21.11,21.11,0,0,1,22.83,34.7L163.63,290.93A21.31,21.31,0,0,1,149,296.78Z"/><path class="cls-6" d="M148.41,294.69A19.13,19.13,0,0,1,135,288.53L83.43,232.26a19,19,0,1,1,28.07-25.73l38.44,41.94L290.73,115.58a19,19,0,0,1,20.59,31.29L162.2,289.43A19.25,19.25,0,0,1,149,294.7Z"/><path class="cls-7" d="M148.13,303.17h-.68a21.24,21.24,0,0,1-14.87-6.84L81,240.06a21.12,21.12,0,0,1,31.14-28.54l37,40.38L288.69,120.21l.34-.15a21.12,21.12,0,0,1,22.83,34.71L162.74,297.32A21.33,21.33,0,0,1,148.13,303.17Z"/><path class="cls-7" d="M147.52,301.08a19.13,19.13,0,0,1-13.41-6.16L82.54,238.65a19,19,0,1,1,28.06-25.73l38.45,41.94L289.84,122a19.11,19.11,0,0,1,7.43-1.5A18.88,18.88,0,0,1,311,126.35a19.07,19.07,0,0,1-.6,26.92L161.3,295.82a19.22,19.22,0,0,1-13.16,5.28Z"/></svg>