<svg width="52" height="50" viewBox="0 0 52 50" fill="none" xmlns="http://www.w3.org/2000/svg">
<path d="M36.2186 -0.000108988C35.7282 -0.00965666 35.2514 0.161335 34.8788 0.48036C31.1874 3.63915 27.9999 8.25973 27.9999 13.9999C27.9961 14.2649 28.0451 14.528 28.1439 14.774C28.2427 15.0199 28.3895 15.2438 28.5756 15.4325C28.7616 15.6212 28.9834 15.7711 29.2279 15.8734C29.4724 15.9757 29.7348 16.0284 29.9999 16.0284C30.2649 16.0284 30.5273 15.9757 30.7718 15.8734C31.0164 15.7711 31.2381 15.6212 31.4242 15.4325C31.6103 15.2438 31.757 15.0199 31.8558 14.774C31.9547 14.528 32.0036 14.2649 31.9999 13.9999C31.9999 12.9339 32.9759 11.9999 33.9999 11.9999C37.2839 11.9999 36.3862 17.7499 38.9022 19.3319C42.1862 21.3939 43.6549 17.8787 45.3749 18.5507C46.6429 19.0447 47.2262 22.3348 46.9842 25.9608H46.996C46.9863 26.4083 47.1269 26.8462 47.3953 27.2044C47.6637 27.5626 48.0444 27.8206 48.4766 27.9371C48.9088 28.0536 49.3676 28.0218 49.7797 27.847C50.1917 27.6722 50.5333 27.3643 50.7499 26.9725C50.7499 26.9725 51.144 26.2197 51.4374 25.0897C51.7308 23.9598 51.9999 22.3111 51.9999 20.0975C51.9999 13.6542 49.1357 9.82608 47.8319 7.1288C47.6352 6.72204 47.3065 6.39389 46.8994 6.19778C46.4924 6.00167 46.0309 5.94916 45.5902 6.04881C45.1495 6.14846 44.7555 6.39439 44.4724 6.74655C44.1893 7.0987 44.0337 7.53634 44.0311 7.98817C44.0311 7.98817 44.0007 9.23703 43.621 10.3593C43.4311 10.9204 43.158 11.3938 42.9061 11.6444C42.6543 11.895 42.4999 11.9999 41.9999 11.9999C41.9999 11.9999 41.641 11.8948 41.078 11.0311C40.515 10.1674 39.9431 8.7983 39.496 7.39442C38.6017 4.58666 38.1561 1.69911 38.1561 1.69911C38.0853 1.23294 37.852 0.806795 37.4975 0.495891C37.143 0.184987 36.6901 0.0093172 36.2186 -0.000108988ZM3.99988 19.9999C3.73485 19.9961 3.47173 20.0451 3.22579 20.1439C2.97986 20.2428 2.75601 20.3895 2.56727 20.5756C2.37853 20.7617 2.22866 20.9834 2.12637 21.2279C2.02407 21.4724 1.97139 21.7348 1.97139 21.9999C1.97139 22.2649 2.02407 22.5273 2.12637 22.7719C2.22866 23.0164 2.37853 23.2381 2.56727 23.4242C2.75601 23.6103 2.97986 23.757 3.22579 23.8559C3.47173 23.9547 3.73485 24.0036 3.99988 23.9999H5.04675L2.53503 30.285C1.05179 30.87 -0.00012207 32.3082 -0.00012207 33.9999V41.1015C-0.00012207 42.8315 1.10978 44.3642 2.75378 44.9022L4.41003 45.4452C4.69802 46.2799 5.1379 47.0726 5.75378 47.7655C6.95366 49.1154 8.83321 49.9999 10.9999 49.9999C13.1665 49.9999 15.0461 49.1154 16.246 47.7655C16.7217 47.2303 17.0691 46.6271 17.3475 45.9999H36.6522C36.9306 46.6271 37.278 47.2303 37.7538 47.7655C38.9537 49.1154 40.8332 49.9999 42.9999 49.9999C45.1665 49.9999 47.0461 49.1154 48.246 47.7655C48.9365 46.9886 49.3915 46.0836 49.6717 45.1366L51.9999 43.9999V36.1913C51.9999 34.3153 50.6991 32.687 48.8671 32.285C47.1407 31.9056 44.837 31.4377 42.3905 30.9804L38.0389 24.453C36.187 21.6713 33.0603 19.9999 29.7186 19.9999H13.9999H7.99988H3.99988ZM9.35535 23.9999H13.9999H17.9999V29.9999H6.953L9.35535 23.9999ZM21.9999 23.9999H29.7186C31.729 23.9999 33.5988 25.0015 34.7108 26.6718L36.9764 30.0663C36.842 30.0469 36.7038 30.0186 36.5702 29.9999H21.9999V23.9999ZM10.9999 39.9999C12.1665 39.9999 12.787 40.3654 13.2538 40.8905C13.7206 41.4157 13.9999 42.1943 13.9999 42.9999C13.9999 43.8054 13.7206 44.5841 13.2538 45.1093C12.787 45.6344 12.1665 45.9999 10.9999 45.9999C9.83321 45.9999 9.21276 45.6344 8.74597 45.1093C8.27918 44.5841 7.99988 43.8054 7.99988 42.9999C7.99988 42.1943 8.27918 41.4157 8.74597 40.8905C9.21276 40.3654 9.83321 39.9999 10.9999 39.9999ZM42.9999 39.9999C44.1665 39.9999 44.787 40.3654 45.2538 40.8905C45.7206 41.4157 45.9999 42.1943 45.9999 42.9999C45.9999 43.8054 45.7206 44.5841 45.2538 45.1093C44.787 45.6344 44.1665 45.9999 42.9999 45.9999C41.8332 45.9999 41.2128 45.6344 40.746 45.1093C40.2792 44.5841 39.9999 43.8054 39.9999 42.9999C39.9999 42.1943 40.2792 41.4157 40.746 40.8905C41.2128 40.3654 41.8332 39.9999 42.9999 39.9999Z" fill="#0493D3"/>
</svg>