<svg width="26" height="26" viewBox="0 0 26 26" fill="none" xmlns="http://www.w3.org/2000/svg">
<path d="M24.375 18.9583C24.375 20.15 23.4 21.125 22.2083 21.125H3.79167C2.6 21.125 1.625 20.15 1.625 18.9583V7.04167C1.625 5.85 2.6 4.875 3.79167 4.875H22.2083C23.4 4.875 24.375 5.85 24.375 7.04167V18.9583Z" fill="#E1E7EA"/>
<path d="M24.375 18.9583C24.375 20.15 23.4 21.125 22.2083 21.125H8.66663C8.66663 21.125 21.45 19.0667 24.375 13V18.9583ZM11.9166 13C11.9166 13.9208 12.6208 14.625 13.5416 14.625C14.4625 14.625 15.1666 13.9208 15.1666 13C15.1666 12.0792 14.4625 11.375 13.5416 11.375C12.6208 11.375 11.9166 12.0792 11.9166 13Z" fill="#FF6D00"/>
<path d="M6.06667 11.375H6.6625V14.625H6.06667V11.375ZM9.31667 13C9.31667 13.9208 10.0208 14.625 10.9417 14.625C11.2125 14.625 11.4292 14.5708 11.7 14.4625V13.7583C11.4833 13.975 11.2667 14.0833 10.9417 14.0833C10.3458 14.0833 9.9125 13.65 9.9125 13C9.9125 12.4042 10.3458 11.9167 10.9417 11.9167C11.2125 11.9167 11.4292 12.025 11.7 12.2417V11.5375C11.4292 11.4292 11.2125 11.3208 10.9417 11.3208C10.0208 11.375 9.31667 12.1333 9.31667 13ZM16.575 13.4875L15.7083 11.375H15.0583L16.4125 14.625H16.7375L18.0917 11.375H17.4417L16.575 13.4875ZM18.3625 14.625H20.0958V14.0833H18.9583V13.2167H20.0417V12.675H18.9583V11.9167H20.0958V11.375H18.3625V14.625ZM22.4792 12.35C22.4792 11.7542 22.1 11.375 21.3958 11.375H20.475V14.625H21.0708V13.325H21.125L21.9917 14.625H22.75L21.775 13.2708C22.2083 13.1625 22.4792 12.8375 22.4792 12.35ZM21.2333 12.8917H21.0708V11.9167H21.2333C21.6125 11.9167 21.8292 12.0792 21.8292 12.4042C21.8292 12.675 21.6667 12.8917 21.2333 12.8917ZM4.17083 11.375H3.25V14.625H4.11667C5.47083 14.625 5.79583 13.4875 5.79583 13C5.85 12.025 5.14583 11.375 4.17083 11.375ZM4.00833 14.0833H3.84583V11.9167H4.0625C4.875 11.9167 5.2 12.4583 5.2 13C5.2 13.2167 5.14583 14.0833 4.00833 14.0833ZM8.2875 12.6208C7.90833 12.4583 7.8 12.4042 7.8 12.2417C7.8 12.025 8.01667 11.9167 8.23333 11.9167C8.39583 11.9167 8.55833 11.9708 8.72083 12.1875L9.04583 11.7542C8.775 11.4833 8.50417 11.375 8.125 11.375C7.58333 11.375 7.15 11.7542 7.15 12.2958C7.15 12.7292 7.36667 12.9458 7.90833 13.1625C8.23333 13.2708 8.50417 13.3792 8.50417 13.65C8.50417 13.9208 8.2875 14.0833 8.01667 14.0833C7.74583 14.0833 7.475 13.9208 7.36667 13.65L6.9875 14.0292C7.25833 14.4625 7.58333 14.625 8.07083 14.625C8.72083 14.625 9.15417 14.1917 9.15417 13.5958C9.15417 13.1083 8.9375 12.8917 8.2875 12.6208Z" fill="black"/>
</svg>