<svg width="30" height="23" viewBox="0 0 30 23" fill="none" xmlns="http://www.w3.org/2000/svg">
<path d="M14 -6.80418e-06C13.8675 -0.00188085 13.7359 0.0226005 13.613 0.0720142C13.49 0.121428 13.3781 0.194789 13.2837 0.287833C13.1893 0.380878 13.1144 0.49175 13.0632 0.614007C13.0121 0.736265 12.9858 0.867468 12.9858 0.999993C12.9858 1.13252 13.0121 1.26372 13.0632 1.38598C13.1144 1.50824 13.1893 1.61911 13.2837 1.71215C13.3781 1.8052 13.49 1.87856 13.613 1.92797C13.7359 1.97739 13.8675 2.00187 14 1.99999H16V2.99999H19V1.99999H21C21.1325 2.00187 21.2641 1.97739 21.387 1.92797C21.51 1.87856 21.6219 1.8052 21.7163 1.71215C21.8107 1.61911 21.8856 1.50824 21.9368 1.38598C21.9879 1.26372 22.0142 1.13252 22.0142 0.999993C22.0142 0.867468 21.9879 0.736265 21.9368 0.614007C21.8856 0.49175 21.8107 0.380878 21.7163 0.287833C21.6219 0.194789 21.51 0.121428 21.387 0.0720142C21.2641 0.0226005 21.1325 -0.00188085 21 -6.80418e-06H14ZM11.8281 4.99999C11.2981 4.99999 10.7891 5.21093 10.4141 5.58593L7 8.99999H6C5.448 8.99999 5 9.44799 5 9.99999V19C5 19.552 5.448 20 6 20H7L9.41406 22.4141C9.78906 22.7891 10.2981 23 10.8281 23H19.1719C19.7019 23 20.2109 22.7891 20.5859 22.4141L24.4121 18.5859C24.7881 18.2109 25 17.7019 25 17.1719V6.99999C25 5.89499 24.105 4.99999 23 4.99999H11.8281ZM28.9844 7.98632C28.7195 7.99046 28.4671 8.09952 28.2825 8.28957C28.098 8.47961 27.9964 8.73511 28 8.99999V11H27V15H28V17C27.9981 17.1325 28.0226 17.2641 28.072 17.387C28.1214 17.51 28.1948 17.6219 28.2878 17.7163C28.3809 17.8107 28.4918 17.8856 28.614 17.9367C28.7363 17.9879 28.8675 18.0142 29 18.0142C29.1325 18.0142 29.2637 17.9879 29.386 17.9367C29.5082 17.8856 29.6191 17.8107 29.7122 17.7163C29.8052 17.6219 29.8786 17.51 29.928 17.387C29.9774 17.2641 30.0019 17.1325 30 17V8.99999C30.0018 8.8662 29.9768 8.73341 29.9264 8.60947C29.876 8.48553 29.8012 8.37296 29.7065 8.27844C29.6118 8.18392 29.4991 8.10936 29.375 8.05919C29.251 8.00901 29.1182 7.98423 28.9844 7.98632ZM16 7.99999C16.552 7.99999 17 8.44799 17 8.99999V13H19C19.552 13 20 13.448 20 14C20 14.287 19.8594 14.5137 19.8594 14.5137L16.877 19.4766C16.877 19.4766 16.573 20 16 20C15.448 20 15 19.552 15 19V15H13C12.448 15 12 14.552 12 14C12 13.759 12.1836 13.4453 12.1836 13.4453L15.0898 8.58593C15.0898 8.58593 15.466 7.99999 16 7.99999ZM0.984376 9.98632C0.719501 9.99046 0.467089 10.0995 0.282538 10.2896C0.0979861 10.4796 -0.0036265 10.7351 8.25567e-07 11V19C-0.00187322 19.1325 0.022608 19.2641 0.0720218 19.387C0.121436 19.51 0.194796 19.6219 0.287841 19.7163C0.380885 19.8107 0.491758 19.8856 0.614015 19.9367C0.736272 19.9879 0.867476 20.0142 1 20.0142C1.13253 20.0142 1.26373 19.9879 1.38599 19.9367C1.50824 19.8856 1.61912 19.8107 1.71216 19.7163C1.80521 19.6219 1.87857 19.51 1.92798 19.387C1.97739 19.2641 2.00187 19.1325 2 19V17H3V13H2V11C2.00183 10.8662 1.9768 10.7334 1.92638 10.6095C1.87597 10.4855 1.80119 10.373 1.70649 10.2784C1.61179 10.1839 1.49908 10.1094 1.37504 10.0592C1.25101 10.009 1.11816 9.98423 0.984376 9.98632Z" fill="#A5A5A5"/>
</svg>