<svg xmlns="http://www.w3.org/2000/svg" viewBox="0 0 399.89 324.39"><defs><style>.cls-1{fill:#fff;}</style></defs><title>Asset 22heading-recall</title><g id="Layer_2" data-name="Layer 2"><g id="Layer_1-2" data-name="Layer 1"><rect class="cls-1" x="177.6" y="177.15" width="54.21" height="3.25"/><path class="cls-1" d="M231.88,184.26H177.6a3.85,3.85,0,0,1-3.85-3.86v-3.25a3.85,3.85,0,0,1,3.85-3.86h54.28a3.85,3.85,0,0,1,3.86,3.86v3.25A3.94,3.94,0,0,1,231.88,184.26Z"/><path class="cls-1" d="M153.69,161.55a8.13,8.13,0,1,1-8.13,8.13A8.13,8.13,0,0,1,153.69,161.55Z"/><path class="cls-1" d="M255.79,161.55a8.13,8.13,0,1,1-8.13,8.13A8.13,8.13,0,0,1,255.79,161.55Z"/><path class="cls-1" d="M279.05,182.57c-.13-9.22-.61-19-.79-21.75-.42-5.42-8.49-15.18-14-20.24l6.56.12h.07a3.85,3.85,0,0,0,.06-7.7l-9.28-.12h-.06l-1.69.41c-3.07-7.64-7.89-17.16-10.36-19.63-1.57-1.57-5.06-3.8-17.59-5.31a243.82,243.82,0,0,0-26.5-1.32h-.85c-11.45.06-38.73.72-44.63,6.63-2.47,2.47-7.29,12-10.37,19.63l-1.68-.41-9.28-.07a3.83,3.83,0,0,0-.06,7.66l6.75.05c-5.55,5.06-13.68,14.88-14.1,20.3-.24,2.66-.66,12.47-.78,21.75-.06,5.36,0,9.69.18,13,.3,5.84,1,8,2.83,9.28a7.73,7.73,0,0,0,3.5,1.08v9a3.84,3.84,0,0,0,3.85,3.85h16.75a3.85,3.85,0,0,0,3.85-3.85v-9.4h86.8v9.4a3.85,3.85,0,0,0,3.86,3.85h16.68a3.84,3.84,0,0,0,3.86-3.85v-9a6.93,6.93,0,0,0,3.49-1.08C278.08,203.41,279.29,201.66,279.05,182.57ZM165.32,119.08c2.05-1.74,16-4.34,39.51-4.39h.67c23.37,0,36.68,2.52,38.67,4.39,1.5,1.56,6.08,10.6,9,17.76-5.06.86-17.59,1.93-48.25,1.64h-.06c-30.72.29-43.31-.84-48.37-1.64C159.23,129.62,163.87,120.58,165.32,119.08Zm-26.45,42.41c.06-.9,1.69-4.16,5.73-9,3.37-4.09,6.86-7.35,8.25-8.2l.54-.35c5.42,1.15,16.69,2.16,41.2,2.16,3.19,0,6.63,0,10.3-.06,31.69.31,45.3-.84,51.38-2.16l.55.35c3.67,2.12,13.61,13.92,13.91,17.12.55,6.86,1.27,30.36.36,36.86-3.73.3-13.13,0-21-.61h-1.44v-.05a4,4,0,0,0-4-4c-30.06.13-75.6.19-79,.06a4.09,4.09,0,0,0-4.34,2.71l-.18,1.32h-1.45c-7.88.61-17.28.91-21,.61C137.61,191.79,138.27,168.35,138.87,161.49Z"/><path class="cls-1" d="M98.09,153.86,57.68,116.29a12,12,0,0,0-16.91.62L3.2,157.32a12,12,0,0,0,17.53,16.29l17.9-19.26,23.91-.87,19.25,17.9a12,12,0,1,0,16.3-17.52Z"/><path class="cls-1" d="M303.24,164l39.82,37a11.78,11.78,0,0,0,16.66-.6l37-39.82a11.79,11.79,0,0,0-17.27-16.06l-17.64,19-23.56.86-19-17.64A11.79,11.79,0,1,0,303.24,164Z"/><path class="cls-1" d="M200.72,0A162,162,0,0,0,67.43,69.8a53.1,53.1,0,0,1,5.83,2A47,47,0,0,1,88.87,82.06a137.6,137.6,0,0,1,249.45,80.13c0,.73,0,1.46,0,2.18l23.54-.85,1.09-1.17v-.16A162.2,162.2,0,0,0,200.72,0Z"/><path class="cls-1" d="M327,244.19a50.37,50.37,0,0,1-11.3-6.44A137.59,137.59,0,0,1,63.13,162.19q0-4,.23-7.94l-.82-.77-23.82.87c-.12,2.6-.19,5.21-.19,7.84A162.2,162.2,0,0,0,338.7,247.48,50.88,50.88,0,0,1,327,244.19Z"/></g></g></svg>