<svg id="Layer_1" data-name="Layer 1" xmlns="http://www.w3.org/2000/svg" xmlns:xlink="http://www.w3.org/1999/xlink" viewBox="0 0 400 400"><defs><style>.cls-1,.cls-3,.cls-4{fill-rule:evenodd;}.cls-1{fill:url(#linear-gradient);}.cls-2{fill:#5497d1;}.cls-3{fill:url(#linear-gradient-2);}.cls-4{fill:url(#linear-gradient-3);}.cls-5{fill:url(#linear-gradient-4);}.cls-6{fill:#12284c;}.cls-7{fill:#fff;}</style><linearGradient id="linear-gradient" x1="200.02" y1="397.89" x2="200.02" y2="2.42" gradientUnits="userSpaceOnUse"><stop offset="0" stop-color="#5497d1"/><stop offset="0.32" stop-color="#7ab0e0"/><stop offset="1" stop-color="#c5e2ff"/></linearGradient><linearGradient id="linear-gradient-2" x1="200.01" y1="373.08" x2="200.01" y2="27.21" gradientUnits="userSpaceOnUse"><stop offset="0" stop-color="#367bbe"/><stop offset="0.63" stop-color="#185596"/><stop offset="1" stop-color="#0a4384"/></linearGradient><linearGradient id="linear-gradient-3" x1="202.81" y1="141.74" x2="202.81" y2="44.22" gradientUnits="userSpaceOnUse"><stop offset="0" stop-color="#1e64ab"/><stop offset="1" stop-color="#64a5de"/></linearGradient><linearGradient id="linear-gradient-4" x1="202.82" y1="72.56" x2="202.82" y2="54.42" gradientUnits="userSpaceOnUse"><stop offset="0" stop-color="#5a9bd4"/><stop offset="1" stop-color="#9dc9ea"/></linearGradient></defs><title>Green Check 2EXPORT4</title><path class="cls-1" d="M200,2.42c109.69,0,198.62,88.5,198.62,197.71S309.71,397.89,200,397.89,1.4,309.35,1.4,200.13,90.32,2.42,200,2.42Z"/><path class="cls-2" d="M200,399.31C89.73,399.31,0,310,0,200.13S89.73,1,200,1,400,90.34,400,200.13,310.32,399.31,200,399.31ZM200,3.8C91.26,3.8,2.79,91.87,2.79,200.13S91.26,396.47,200,396.47s197.2-88.07,197.2-196.34S308.76,3.8,200,3.8Z"/><path class="cls-3" d="M200,27.21c96.15,0,174.08,77.43,174.08,172.9s-77.93,173-174.08,173-174.12-77.45-174.12-173S103.87,27.21,200,27.21Z"/><path class="cls-4" d="M198.77,104.38c-74.42,0-135.86,35.47-136.31,35.56,20.79-55.82,75.63-95.72,140-95.72,65.12,0,120.45,40.77,140.68,97.52C341,139.85,273.23,104.38,198.77,104.38Z"/><path class="cls-5" d="M141.88,72.28c-1.17-1.27,24.47-17.66,61-17.86,36.47.2,62.08,16.55,60.93,17.84C262.79,74.57,237,62,202.83,62,168.6,62,142.87,74.57,141.88,72.28Z"/><circle class="cls-6" cx="199" cy="120" r="27.43"/><path class="cls-6" d="M199,302.44A27.43,27.43,0,0,1,171.57,275V189.05a27.43,27.43,0,1,1,54.86,0V275A27.43,27.43,0,0,1,199,302.44Z"/><circle class="cls-7" cx="202.8" cy="123.43" r="27.43"/><path class="cls-7" d="M202.8,305.88a27.45,27.45,0,0,1-27.44-27.44v-86a27.44,27.44,0,0,1,54.87,0v86A27.44,27.44,0,0,1,202.8,305.88Z"/></svg>