<svg width="30" height="27" viewBox="0 0 22 27" fill="none" xmlns="http://www.w3.org/2000/svg">
<path d="M11 0C4.925 0 0 4.925 0 11C0 18.234 7.152 21.697 8.048 22.503C8.963 23.326 9.719 25.171 10.024 26.217C10.172 26.725 10.588 26.982 11 26.993C11.413 26.981 11.828 26.724 11.976 26.217C12.281 25.171 13.037 23.327 13.952 22.503C14.848 21.697 22 18.234 22 11C22 4.925 17.075 0 11 0ZM11 14C9.343 14 8 12.657 8 11C8 9.343 9.343 8 11 8C12.657 8 14 9.343 14 11C14 12.657 12.657 14 11 14Z" fill="#A5A5A5"/>
</svg>