<svg width="24" height="24" viewBox="0 0 24 24" fill="none" xmlns="http://www.w3.org/2000/svg">
<path d="M16 5.00006C15.0807 5.00006 14.1705 5.18112 13.3212 5.5329C12.4719 5.88469 11.7003 6.4003 11.0503 7.05031C10.4002 7.70032 9.88463 8.472 9.53284 9.32128C9.18106 10.1706 9 11.0808 9 12.0001C9 12.9193 9.18106 13.8296 9.53284 14.6788C9.88463 15.5281 10.4002 16.2998 11.0503 16.9498C11.7003 17.5998 12.4719 18.1154 13.3212 18.4672C14.1705 18.819 15.0807 19.0001 16 19.0001C16.9193 19.0001 17.8295 18.819 18.6788 18.4672C19.5281 18.1154 20.2997 17.5998 20.9497 16.9498C21.5998 16.2998 22.1154 15.5281 22.4672 14.6788C22.8189 13.8296 23 12.9193 23 12.0001C23 11.0808 22.8189 10.1706 22.4672 9.32128C22.1154 8.472 21.5998 7.70032 20.9497 7.05031C20.2997 6.4003 19.5281 5.88469 18.6788 5.5329C17.8295 5.18112 16.9193 5.00006 16 5.00006Z" fill="#FF9800"/>
<path d="M8 5.00006C7.08075 5.00006 6.1705 5.18112 5.32122 5.5329C4.47194 5.88469 3.70026 6.4003 3.05025 7.05031C2.40024 7.70032 1.88463 8.472 1.53284 9.32128C1.18106 10.1706 1 11.0808 1 12.0001C1 12.9193 1.18106 13.8296 1.53284 14.6788C1.88463 15.5281 2.40024 16.2998 3.05025 16.9498C3.70026 17.5998 4.47194 18.1154 5.32122 18.4672C6.1705 18.819 7.08075 19.0001 8 19.0001C8.91925 19.0001 9.82951 18.819 10.6788 18.4672C11.5281 18.1154 12.2997 17.5998 12.9497 16.9498C13.5998 16.2998 14.1154 15.5281 14.4672 14.6788C14.8189 13.8296 15 12.9193 15 12.0001C15 11.0808 14.8189 10.1706 14.4672 9.32128C14.1154 8.472 13.5998 7.70032 12.9497 7.05031C12.2997 6.4003 11.5281 5.88469 10.6788 5.5329C9.82951 5.18112 8.91925 5.00006 8 5.00006Z" fill="#D50000"/>
<path d="M9 12C9 14.3775 10.188 16.475 12 17.74C13.812 16.475 15 14.3775 15 12C15 9.62254 13.812 7.52504 12 6.26004C10.188 7.52504 9 9.62254 9 12Z" fill="#FF3D00"/>
</svg>