<svg width="60" height="30" viewBox="0 0 60 30" fill="none" xmlns="http://www.w3.org/2000/svg">
<path fill-rule="evenodd" clip-rule="evenodd" d="M11.0888 6.20564H49.5434C54.2629 6.20564 58.0888 10.0316 58.0888 14.7511C58.0888 19.4706 54.2629 23.2966 49.5434 23.2966H11.0888V23.21C10.6901 23.267 10.2825 23.2966 9.86804 23.2966V24.5173H11.0888H49.5434C54.9371 24.5173 59.3096 20.1448 59.3096 14.7511C59.3096 9.35735 54.9371 4.98486 49.5434 4.98486H11.0888H9.86804V6.20564C10.2825 6.20564 10.6901 6.23515 11.0888 6.29218V6.20564Z" fill="#C7C7C7"/>
<path d="M16.7857 7.98105V8.95238H15.6667V7.83334H16.638C14.8721 6.10441 12.4578 5.03572 9.79167 5.03572C4.38387 5.03572 0 9.41959 0 14.8274C0 20.2352 4.38387 24.6191 9.79167 24.6191C15.1995 24.6191 19.5833 20.2352 19.5833 14.8274C19.5833 12.1613 18.5147 9.74691 16.7857 7.98105ZM9.79167 21.8214C5.92872 21.8214 2.79762 18.6903 2.79762 14.8274C2.79762 10.9644 5.92872 7.83334 9.79167 7.83334C11.7276 7.83334 13.4795 8.62003 14.7457 9.89126V9.87336H15.9112V11.0388H15.665C16.3717 12.131 16.7857 13.4297 16.7857 14.8274C16.7857 18.6903 13.6546 21.8214 9.79167 21.8214ZM20.1429 3.35714H21.2619V4.47619H20.1429V3.35714ZM23.5 2.2381H24.6191V3.35714H23.5V2.2381ZM23.5 0H24.6191V1.11905H23.5V0Z" fill="#FFC107"/>
<path d="M17.9048 3.3572H19.0239V5.59529H17.9048V3.3572ZM16.7858 5.59529H17.9048V6.71434H16.7858V5.59529ZM19.0239 5.59529H20.1429V6.71434H19.0239V5.59529ZM20.1429 2.23815H22.381V3.3572H20.1429V2.23815ZM20.1429 4.47624H21.262V5.59529H20.1429V4.47624ZM22.381 1.1191H23.5001V2.23815H22.381V1.1191ZM17.9048 6.71434V7.83339H16.7858V8.67267V8.95244H15.6667V7.83339H14.5477V8.95244H13.4286V9.51196V10.0715V11.1905H12.3096C11.4809 12.5071 10.9706 13.6105 9.79172 15.6667C9.79172 15.6667 7.12783 11.7579 5.59529 11.7579C5.59529 11.7579 5.03577 11.707 5.03577 12.2687C5.03577 12.8305 5.59529 13.2904 5.59529 13.2904C5.59529 13.2904 7.66553 15.2169 8.6363 18.5371C8.7387 18.8946 9.04476 19.5588 9.9137 19.5588C10.4245 19.5588 10.8845 19.1503 11.1911 18.5371C11.7019 17.5154 13.3878 14.4072 14.5482 12.8691V12.3096H15.1078H15.6673V11.862V11.1905H15.2197H14.5477V10.3512V10.0715H15.6667V11.1905H16.7858V10.0715H17.9048V9.51196V8.95244H19.0239V7.83339V6.71434H17.9048Z" fill="#36464E"/>
<path d="M15.6667 6.71424H17.9048V7.83329H15.6667V6.71424ZM17.9048 3.3571H20.1429V4.47614H17.9048V3.3571Z" fill="#36464E"/>
<path d="M23.498 13.9849C23.441 13.9849 23.3897 13.9649 23.3442 13.925C23.3043 13.8795 23.2843 13.8282 23.2843 13.7712V8.21667C23.2843 8.154 23.3043 8.10273 23.3442 8.06285C23.3897 8.02297 23.441 8.00303 23.498 8.00303H24.4038C24.5462 8.00303 24.6431 8.05716 24.6943 8.1654L26.7794 11.4469V8.21667C26.7794 8.154 26.7994 8.10273 26.8393 8.06285C26.8848 8.02297 26.9361 8.00303 26.9931 8.00303H28.0185C28.0812 8.00303 28.1325 8.02297 28.1723 8.06285C28.2122 8.10273 28.2322 8.154 28.2322 8.21667V13.7627C28.2322 13.8253 28.2122 13.8795 28.1723 13.925C28.1325 13.9649 28.0812 13.9849 28.0185 13.9849H27.1042C26.9788 13.9849 26.8848 13.9307 26.8222 13.8225L24.7371 10.6607V13.7712C24.7371 13.8282 24.7171 13.8795 24.6772 13.925C24.6374 13.9649 24.5861 13.9849 24.5234 13.9849H23.498ZM31.4346 14.0703C30.7281 14.0703 30.1841 13.9022 29.8024 13.5661C29.4207 13.23 29.2128 12.7572 29.1786 12.1476C29.1729 12.0735 29.17 11.9453 29.17 11.763C29.17 11.5807 29.1729 11.4526 29.1786 11.3785C29.2128 10.7746 29.4264 10.3046 29.8195 9.96849C30.2126 9.62667 30.7509 9.45576 31.4346 9.45576C32.1239 9.45576 32.6651 9.62667 33.0582 9.96849C33.4513 10.3046 33.6649 10.7746 33.6991 11.3785C33.7048 11.4526 33.7077 11.5807 33.7077 11.763C33.7077 11.9453 33.7048 12.0735 33.6991 12.1476C33.6649 12.7572 33.457 13.23 33.0753 13.5661C32.6936 13.9022 32.1467 14.0703 31.4346 14.0703ZM31.4346 13.0278C31.6852 13.0278 31.8704 12.9537 31.99 12.8056C32.1097 12.6518 32.178 12.4182 32.1951 12.1049C32.2008 12.0479 32.2037 11.9339 32.2037 11.763C32.2037 11.5921 32.2008 11.4782 32.1951 11.4212C32.178 11.1136 32.1068 10.8829 31.9815 10.729C31.8618 10.5752 31.6795 10.4983 31.4346 10.4983C30.9617 10.4983 30.7111 10.8059 30.6826 11.4212L30.674 11.763L30.6826 12.1049C30.694 12.4182 30.7595 12.6518 30.8791 12.8056C31.0044 12.9537 31.1896 13.0278 31.4346 13.0278ZM34.7701 13.9849C34.7074 13.9849 34.6562 13.9649 34.6163 13.925C34.5764 13.8852 34.5565 13.8339 34.5565 13.7712V9.75485C34.5565 9.69219 34.5764 9.64091 34.6163 9.60104C34.6562 9.56116 34.7074 9.54122 34.7701 9.54122H35.7528C35.8155 9.54122 35.8668 9.564 35.9066 9.60958C35.9522 9.64946 35.975 9.69788 35.975 9.75485V10.0967C36.2883 9.72637 36.7099 9.54122 37.2397 9.54122H37.6157C37.6784 9.54122 37.7297 9.56116 37.7696 9.60104C37.8094 9.64091 37.8294 9.69219 37.8294 9.75485V10.635C37.8294 10.692 37.8094 10.7433 37.7696 10.7889C37.7297 10.8287 37.6784 10.8487 37.6157 10.8487H36.7868C36.5533 10.8487 36.371 10.9142 36.2399 11.0452C36.1146 11.1706 36.0519 11.35 36.0519 11.5836V13.7712C36.0519 13.8339 36.0291 13.8852 35.9836 13.925C35.9437 13.9649 35.8924 13.9849 35.8297 13.9849H34.7701ZM40.7101 13.9849C39.5308 13.9849 38.9412 13.4237 38.9412 12.3014V10.6607H38.2746C38.2119 10.6607 38.1578 10.6407 38.1122 10.6009C38.0724 10.561 38.0524 10.5097 38.0524 10.447V9.75485C38.0524 9.69219 38.0724 9.64091 38.1122 9.60104C38.1578 9.56116 38.2119 9.54122 38.2746 9.54122H38.9412V8.13122C38.9412 8.06855 38.9611 8.01728 39.001 7.9774C39.0465 7.93752 39.0978 7.91758 39.1548 7.91758H40.1461C40.2087 7.91758 40.26 7.93752 40.2999 7.9774C40.3398 8.01728 40.3597 8.06855 40.3597 8.13122V9.54122H41.4279C41.4906 9.54122 41.5418 9.56116 41.5817 9.60104C41.6273 9.64091 41.6501 9.69219 41.6501 9.75485V10.447C41.6501 10.5097 41.6273 10.561 41.5817 10.6009C41.5418 10.6407 41.4906 10.6607 41.4279 10.6607H40.3597V12.1818C40.3597 12.6033 40.5221 12.8141 40.8468 12.8141H41.5048C41.5675 12.8141 41.6187 12.8341 41.6586 12.8739C41.6985 12.9138 41.7184 12.9651 41.7184 13.0278V13.7712C41.7184 13.8282 41.6985 13.8795 41.6586 13.925C41.6187 13.9649 41.5675 13.9849 41.5048 13.9849H40.7101ZM44.5281 14.0703C43.8217 14.0703 43.2777 13.9022 42.896 13.5661C42.5143 13.23 42.3063 12.7572 42.2721 12.1476C42.2665 12.0735 42.2636 11.9453 42.2636 11.763C42.2636 11.5807 42.2665 11.4526 42.2721 11.3785C42.3063 10.7746 42.52 10.3046 42.9131 9.96849C43.3061 9.62667 43.8445 9.45576 44.5281 9.45576C45.2175 9.45576 45.7587 9.62667 46.1518 9.96849C46.5449 10.3046 46.7585 10.7746 46.7927 11.3785C46.7984 11.4526 46.8012 11.5807 46.8012 11.763C46.8012 11.9453 46.7984 12.0735 46.7927 12.1476C46.7585 12.7572 46.5506 13.23 46.1689 13.5661C45.7872 13.9022 45.2403 14.0703 44.5281 14.0703ZM44.5281 13.0278C44.7788 13.0278 44.964 12.9537 45.0836 12.8056C45.2032 12.6518 45.2716 12.4182 45.2887 12.1049C45.2944 12.0479 45.2972 11.9339 45.2972 11.763C45.2972 11.5921 45.2944 11.4782 45.2887 11.4212C45.2716 11.1136 45.2004 10.8829 45.0751 10.729C44.9554 10.5752 44.7731 10.4983 44.5281 10.4983C44.0553 10.4983 43.8046 10.8059 43.7761 11.4212L43.7676 11.763L43.7761 12.1049C43.7875 12.4182 43.8531 12.6518 43.9727 12.8056C44.098 12.9537 44.2832 13.0278 44.5281 13.0278ZM47.8637 13.9849C47.801 13.9849 47.7497 13.9649 47.7099 13.925C47.67 13.8852 47.65 13.8339 47.65 13.7712V9.75485C47.65 9.69219 47.67 9.64091 47.7099 9.60104C47.7497 9.56116 47.801 9.54122 47.8637 9.54122H48.8464C48.9091 9.54122 48.9603 9.56116 49.0002 9.60104C49.0458 9.64091 49.0686 9.69219 49.0686 9.75485V10.0796C49.2224 9.89158 49.419 9.74061 49.6582 9.62667C49.9032 9.51273 50.1795 9.45576 50.4871 9.45576C50.9885 9.45576 51.3958 9.62667 51.7091 9.96849C52.0225 10.3046 52.1791 10.7775 52.1791 11.387V13.7712C52.1791 13.8282 52.1592 13.8795 52.1193 13.925C52.0794 13.9649 52.0282 13.9849 51.9655 13.9849H50.8888C50.8318 13.9849 50.7805 13.9649 50.735 13.925C50.6951 13.8795 50.6751 13.8282 50.6751 13.7712V11.4383C50.6751 11.1706 50.6096 10.9655 50.4786 10.823C50.3476 10.6749 50.1596 10.6009 49.9146 10.6009C49.6753 10.6009 49.4873 10.6749 49.3506 10.823C49.2139 10.9655 49.1455 11.1706 49.1455 11.4383V13.7712C49.1455 13.8282 49.1256 13.8795 49.0857 13.925C49.0458 13.9649 48.9945 13.9849 48.9319 13.9849H47.8637Z" fill="black"/>
<path d="M24.7065 21.0459C24.32 21.0459 23.9883 20.9889 23.7116 20.875C23.4349 20.761 23.2253 20.6125 23.0829 20.4294C22.9446 20.2422 22.8713 20.0388 22.8632 19.819C22.8632 19.7865 22.8754 19.758 22.8998 19.7336C22.9283 19.7051 22.9608 19.6908 22.9975 19.6908H23.7665C23.8154 19.6908 23.854 19.701 23.8825 19.7213C23.9151 19.7376 23.9476 19.7641 23.9802 19.8007C24.0331 19.9065 24.1185 19.994 24.2365 20.0632C24.3546 20.1323 24.5112 20.1669 24.7065 20.1669C24.9385 20.1669 25.1155 20.1303 25.2376 20.0571C25.3597 19.9838 25.4207 19.8841 25.4207 19.758C25.4207 19.6684 25.3881 19.5952 25.323 19.5382C25.262 19.4813 25.1643 19.4304 25.0301 19.3856C24.8958 19.3409 24.6964 19.29 24.4319 19.233C23.9436 19.1313 23.5773 18.9828 23.3332 18.7875C23.0931 18.5881 22.973 18.3052 22.973 17.939C22.973 17.6908 23.0422 17.469 23.1806 17.2737C23.3189 17.0784 23.5163 16.9258 23.7727 16.8159C24.029 16.706 24.3281 16.6511 24.6699 16.6511C25.024 16.6511 25.3312 16.7121 25.5916 16.8342C25.852 16.9563 26.0494 17.1109 26.1837 17.2981C26.322 17.4812 26.3953 17.6623 26.4034 17.8413C26.4034 17.878 26.3912 17.9085 26.3668 17.9329C26.3424 17.9573 26.3119 17.9695 26.2752 17.9695H25.4695C25.4207 17.9695 25.38 17.9614 25.3475 17.9451C25.319 17.9288 25.2925 17.9024 25.2681 17.8658C25.2437 17.7722 25.1765 17.6928 25.0667 17.6277C24.9609 17.5626 24.8286 17.53 24.6699 17.53C24.4868 17.53 24.3464 17.5626 24.2488 17.6277C24.1511 17.6928 24.1023 17.7884 24.1023 17.9146C24.1023 18 24.1287 18.0713 24.1816 18.1282C24.2386 18.1852 24.3281 18.2381 24.4502 18.2869C24.5763 18.3317 24.7554 18.3785 24.9873 18.4273C25.3658 18.4965 25.6669 18.584 25.8907 18.6898C26.1186 18.7915 26.2854 18.9258 26.3912 19.0926C26.497 19.2554 26.5499 19.4609 26.5499 19.7091C26.5499 19.9818 26.4706 20.2198 26.3119 20.4233C26.1572 20.6227 25.9395 20.7773 25.6588 20.8872C25.382 20.993 25.0646 21.0459 24.7065 21.0459ZM27.3134 20.9849C27.2727 20.9849 27.2361 20.9706 27.2036 20.9421C27.1751 20.9096 27.1608 20.873 27.1608 20.8323V16.8647C27.1608 16.82 27.1751 16.7833 27.2036 16.7549C27.2361 16.7264 27.2727 16.7121 27.3134 16.7121H30.164C30.2087 16.7121 30.2453 16.7264 30.2738 16.7549C30.3023 16.7833 30.3166 16.82 30.3166 16.8647V17.4385C30.3166 17.4792 30.3023 17.5158 30.2738 17.5484C30.2453 17.5768 30.2087 17.5911 30.164 17.5911H28.2168V18.4151H30.0297C30.0744 18.4151 30.1111 18.4314 30.1395 18.4639C30.168 18.4924 30.1823 18.5291 30.1823 18.5738V19.1049C30.1823 19.1455 30.168 19.1822 30.1395 19.2147C30.1111 19.2432 30.0744 19.2575 30.0297 19.2575H28.2168V20.1059H30.2128C30.2576 20.1059 30.2942 20.1201 30.3227 20.1486C30.3511 20.1771 30.3654 20.2137 30.3654 20.2585V20.8323C30.3654 20.873 30.3511 20.9096 30.3227 20.9421C30.2942 20.9706 30.2576 20.9849 30.2128 20.9849H27.3134ZM32.7753 21.0459C32.1934 21.0459 31.7376 20.9055 31.408 20.6247C31.0825 20.3399 30.9095 19.9289 30.8892 19.3917C30.8851 19.2819 30.8831 19.1028 30.8831 18.8546C30.8831 18.6023 30.8851 18.4192 30.8892 18.3052C30.9095 17.7762 31.0865 17.3693 31.4202 17.0845C31.7539 16.7955 32.2056 16.6511 32.7753 16.6511C33.1334 16.6511 33.4549 16.7121 33.7397 16.8342C34.0245 16.9522 34.2484 17.1231 34.4111 17.3469C34.578 17.5667 34.6634 17.8251 34.6675 18.1221V18.1343C34.6675 18.1669 34.6532 18.1954 34.6248 18.2198C34.6003 18.2401 34.5719 18.2503 34.5393 18.2503H33.7153C33.6624 18.2503 33.6217 18.2401 33.5932 18.2198C33.5647 18.1954 33.5403 18.1526 33.52 18.0916C33.463 17.8841 33.3735 17.7396 33.2514 17.6582C33.1293 17.5728 32.9686 17.53 32.7692 17.53C32.289 17.53 32.0408 17.7986 32.0245 18.3358C32.0204 18.4456 32.0184 18.6145 32.0184 18.8424C32.0184 19.0703 32.0204 19.2432 32.0245 19.3612C32.0408 19.8984 32.289 20.1669 32.7692 20.1669C32.9686 20.1669 33.1313 20.1242 33.2575 20.0388C33.3836 19.9492 33.4711 19.8048 33.52 19.6054C33.5362 19.5443 33.5586 19.5036 33.5871 19.4833C33.6156 19.4589 33.6583 19.4467 33.7153 19.4467H34.5393C34.5759 19.4467 34.6065 19.4589 34.6309 19.4833C34.6594 19.5077 34.6716 19.5382 34.6675 19.5749C34.6634 19.8719 34.578 20.1323 34.4111 20.3562C34.2484 20.5759 34.0245 20.7468 33.7397 20.8689C33.4549 20.9869 33.1334 21.0459 32.7753 21.0459ZM37.1039 21.0459C36.5301 21.0459 36.0804 20.9055 35.7549 20.6247C35.4334 20.3439 35.2727 19.9207 35.2727 19.3551V16.8647C35.2727 16.82 35.2869 16.7833 35.3154 16.7549C35.348 16.7264 35.3846 16.7121 35.4253 16.7121H36.2127C36.2574 16.7121 36.2941 16.7264 36.3226 16.7549C36.3551 16.7833 36.3714 16.82 36.3714 16.8647V19.349C36.3714 19.6135 36.4324 19.8129 36.5545 19.9472C36.6806 20.0774 36.8617 20.1425 37.0977 20.1425C37.3297 20.1425 37.5087 20.0754 37.6349 19.9411C37.761 19.8068 37.8241 19.6094 37.8241 19.349V16.8647C37.8241 16.82 37.8384 16.7833 37.8668 16.7549C37.8994 16.7264 37.936 16.7121 37.9767 16.7121H38.7702C38.815 16.7121 38.8516 16.7264 38.8801 16.7549C38.9086 16.7833 38.9228 16.82 38.9228 16.8647V19.3551C38.9228 19.9207 38.76 20.3439 38.4345 20.6247C38.113 20.9055 37.6695 21.0459 37.1039 21.0459ZM39.8848 20.9849C39.8442 20.9849 39.8075 20.9706 39.775 20.9421C39.7465 20.9096 39.7323 20.873 39.7323 20.8323V16.8647C39.7323 16.82 39.7465 16.7833 39.775 16.7549C39.8075 16.7264 39.8442 16.7121 39.8848 16.7121H41.5451C42.0782 16.7121 42.4932 16.8342 42.7903 17.0784C43.0914 17.3184 43.242 17.6603 43.242 18.1038C43.242 18.3887 43.1748 18.6308 43.0406 18.8302C42.9063 19.0296 42.7211 19.1822 42.4851 19.288L43.3213 20.7895C43.3336 20.8139 43.3397 20.8363 43.3397 20.8567C43.3397 20.8892 43.3254 20.9197 43.2969 20.9482C43.2725 20.9726 43.244 20.9849 43.2115 20.9849H42.3997C42.2816 20.9849 42.1982 20.9299 42.1494 20.8201L41.4536 19.4772H40.831V20.8323C40.831 20.877 40.8147 20.9136 40.7821 20.9421C40.7536 20.9706 40.717 20.9849 40.6723 20.9849H39.8848ZM41.5329 18.6104C41.7201 18.6104 41.8625 18.5657 41.9602 18.4762C42.0578 18.3826 42.1067 18.2544 42.1067 18.0916C42.1067 17.9288 42.0578 17.8007 41.9602 17.7071C41.8666 17.6094 41.7242 17.5606 41.5329 17.5606H40.831V18.6104H41.5329ZM44.1051 20.9849C44.0644 20.9849 44.0278 20.9706 43.9952 20.9421C43.9668 20.9096 43.9525 20.873 43.9525 20.8323V16.8647C43.9525 16.82 43.9668 16.7833 43.9952 16.7549C44.0278 16.7264 44.0644 16.7121 44.1051 16.7121H46.9556C47.0004 16.7121 47.037 16.7264 47.0655 16.7549C47.094 16.7833 47.1082 16.82 47.1082 16.8647V17.4385C47.1082 17.4792 47.094 17.5158 47.0655 17.5484C47.037 17.5768 47.0004 17.5911 46.9556 17.5911H45.0085V18.4151H46.8214C46.8661 18.4151 46.9027 18.4314 46.9312 18.4639C46.9597 18.4924 46.974 18.5291 46.974 18.5738V19.1049C46.974 19.1455 46.9597 19.1822 46.9312 19.2147C46.9027 19.2432 46.8661 19.2575 46.8214 19.2575H45.0085V20.1059H47.0045C47.0492 20.1059 47.0859 20.1201 47.1143 20.1486C47.1428 20.1771 47.1571 20.2137 47.1571 20.2585V20.8323C47.1571 20.873 47.1428 20.9096 47.1143 20.9421C47.0859 20.9706 47.0492 20.9849 47.0045 20.9849H44.1051ZM48.0035 20.9849C47.9628 20.9849 47.9262 20.9706 47.8936 20.9421C47.8652 20.9096 47.8509 20.873 47.8509 20.8323V16.8647C47.8509 16.82 47.8652 16.7833 47.8936 16.7549C47.9262 16.7264 47.9628 16.7121 48.0035 16.7121H49.5905C50.1887 16.7121 50.6526 16.8546 50.9822 17.1394C51.3118 17.4242 51.4848 17.8373 51.501 18.3785C51.5051 18.4965 51.5071 18.6532 51.5071 18.8485C51.5071 19.0438 51.5051 19.1984 51.501 19.3124C51.4807 19.878 51.3118 20.2992 50.9944 20.5759C50.6811 20.8485 50.2233 20.9849 49.621 20.9849H48.0035ZM49.5905 20.1059C49.8591 20.1059 50.0565 20.0428 50.1826 19.9167C50.3087 19.7865 50.3759 19.581 50.384 19.3002C50.3922 19.1822 50.3962 19.0296 50.3962 18.8424C50.3962 18.6552 50.3922 18.5046 50.384 18.3907C50.3759 18.1181 50.3026 17.9166 50.1643 17.7864C50.03 17.6562 49.8286 17.5911 49.56 17.5911H48.9496V20.1059H49.5905Z" fill="#ABABAB"/>
</svg>