<svg width="60" height="60" viewBox="0 0 60 60" fill="none" xmlns="http://www.w3.org/2000/svg">
<path d="M29.9995 7.99988C15.6395 7.99988 3.99945 19.6399 3.99945 33.9999C3.99945 40.9999 6.79145 47.3259 11.2895 51.9999H19.9995C19.9995 49.7899 21.7895 47.9999 23.9995 47.9999H35.9995C38.2095 47.9999 39.9995 49.7899 39.9995 51.9999H48.7095C53.2075 47.3259 55.9995 40.9999 55.9995 33.9999C55.9995 19.6399 44.3595 7.99988 29.9995 7.99988ZM7.99945 33.9999C7.99945 32.8959 8.89545 31.9999 9.99945 31.9999C11.1035 31.9999 11.9995 32.8959 11.9995 33.9999C11.9995 35.1039 11.1035 35.9999 9.99945 35.9999C8.89545 35.9999 7.99945 35.1039 7.99945 33.9999ZM13.6795 45.7319C12.7235 46.2839 11.4995 45.9559 10.9475 44.9999C10.3955 44.0439 10.7235 42.8199 11.6795 42.2679C12.6355 41.7159 13.8595 42.0439 14.4115 42.9999C14.9635 43.9559 14.6355 45.1799 13.6795 45.7319ZM14.4115 24.9999C13.8595 25.9559 12.6355 26.2839 11.6795 25.7319C10.7215 25.1799 10.3955 23.9559 10.9475 22.9999C11.4995 22.0439 12.7235 21.7159 13.6795 22.2679C14.6355 22.8199 14.9635 24.0439 14.4115 24.9999ZM20.9995 18.4119C20.0435 18.9639 18.8195 18.6359 18.2675 17.6799C17.7155 16.7239 18.0435 15.4999 18.9995 14.9479C19.9555 14.3959 21.1795 14.7239 21.7315 15.6799C22.2835 16.6359 21.9555 17.8599 20.9995 18.4119ZM46.3195 22.2679C47.2755 21.7159 48.4995 22.0439 49.0515 22.9999C49.6035 23.9559 49.2755 25.1799 48.3195 25.7319C47.3635 26.2839 46.1395 25.9559 45.5875 24.9999C45.0355 24.0439 45.3635 22.8199 46.3195 22.2679ZM29.9995 11.9999C31.1035 11.9999 31.9995 12.8959 31.9995 13.9999C31.9995 15.1039 31.1035 15.9999 29.9995 15.9999C28.8955 15.9999 27.9995 15.1039 27.9995 13.9999C27.9995 12.8959 28.8955 11.9999 29.9995 11.9999ZM41.0295 29.7139L33.9935 33.9359C33.9935 33.9579 33.9995 33.9779 33.9995 33.9999C33.9995 36.2099 32.2095 37.9999 29.9995 37.9999C27.7895 37.9999 25.9995 36.2099 25.9995 33.9999C25.9995 31.7899 27.7895 29.9999 29.9995 29.9999C30.7015 29.9999 31.3495 30.1959 31.9235 30.5139L38.9695 26.2859C39.9155 25.7179 41.1455 26.0259 41.7135 26.9719C42.2835 27.9179 41.9755 29.1459 41.0295 29.7139ZM41.7315 17.6799C41.1795 18.6359 39.9555 18.9639 38.9995 18.4119C38.0435 17.8599 37.7155 16.6359 38.2675 15.6799C38.8195 14.7239 40.0435 14.3959 40.9995 14.9479C41.9555 15.4999 42.2835 16.7219 41.7315 17.6799ZM49.0515 44.9999C48.4995 45.9559 47.2755 46.2839 46.3195 45.7319C45.3635 45.1799 45.0355 43.9559 45.5875 42.9999C46.1395 42.0439 47.3635 41.7159 48.3195 42.2679C49.2775 42.8199 49.6035 44.0439 49.0515 44.9999ZM49.9995 35.9999C48.8955 35.9999 47.9995 35.1039 47.9995 33.9999C47.9995 32.8959 48.8955 31.9999 49.9995 31.9999C51.1035 31.9999 51.9995 32.8959 51.9995 33.9999C51.9995 35.1039 51.1035 35.9999 49.9995 35.9999Z" fill="#0493D3"/>
</svg>