<svg xmlns="http://www.w3.org/2000/svg" xmlns:xlink="http://www.w3.org/1999/xlink" viewBox="0 0 240 87.64"><defs><style>.cls-1{fill:none;}.cls-2{fill:#ccc;}.cls-3{opacity:0.8;}.cls-4{fill:url(#radial-gradient);}.cls-5{opacity:0.25;fill:url(#radial-gradient-2);}.cls-6{clip-path:url(#clip-path);}.cls-7{fill:url(#linear-gradient);}.cls-8{fill:url(#linear-gradient-2);}.cls-9{fill:url(#linear-gradient-3);}.cls-10,.cls-19,.cls-26{opacity:0.4;}.cls-10{fill:url(#linear-gradient-4);}.cls-11{fill:#cdcdce;}.cls-12{fill:#b9b9ba;}.cls-13,.cls-20,.cls-27{opacity:0.7;}.cls-13{fill:url(#linear-gradient-5);}.cls-14{fill:url(#linear-gradient-6);}.cls-15{clip-path:url(#clip-path-2);}.cls-16{fill:url(#linear-gradient-7);}.cls-17{fill:url(#linear-gradient-8);}.cls-18{fill:url(#linear-gradient-9);}.cls-19{fill:url(#linear-gradient-10);}.cls-20{fill:url(#linear-gradient-11);}.cls-21{fill:url(#linear-gradient-12);}.cls-22{clip-path:url(#clip-path-3);}.cls-23{fill:url(#linear-gradient-13);}.cls-24{fill:url(#linear-gradient-14);}.cls-25{fill:url(#linear-gradient-15);}.cls-26{fill:url(#linear-gradient-16);}.cls-27{fill:url(#linear-gradient-17);}.cls-28{fill:url(#linear-gradient-18);}.cls-29{fill:#b2b2b2;opacity:0.3;}.cls-29,.cls-32,.cls-33,.cls-34,.cls-35,.cls-36,.cls-37{fill-rule:evenodd;}.cls-30{fill:url(#linear-gradient-19);}.cls-31{fill:url(#linear-gradient-20);}.cls-32{fill:url(#linear-gradient-21);}.cls-33{fill:url(#linear-gradient-22);}.cls-34{fill:url(#linear-gradient-23);}.cls-35{stroke:#cdcccb;stroke-miterlimit:10;stroke-width:0.25px;fill:url(#linear-gradient-24);}.cls-36{fill:url(#linear-gradient-25);}.cls-37{fill:url(#linear-gradient-26);}.cls-38{fill:#13284c;}.cls-39{fill:url(#linear-gradient-27);}.cls-40{fill:url(#linear-gradient-28);}.cls-41{fill:#162a4a;}.cls-42{fill:#fff;}.cls-43{fill:#004990;}</style><radialGradient id="radial-gradient" cx="49.59" cy="-23.11" r="51.69" gradientTransform="translate(3.45 85.72) scale(0.97 0.16)" gradientUnits="userSpaceOnUse"><stop offset="0" stop-color="#808184"/><stop offset="0.14" stop-color="#858689" stop-opacity="0.96"/><stop offset="0.33" stop-color="#959698" stop-opacity="0.84"/><stop offset="0.54" stop-color="#aeafb1" stop-opacity="0.64"/><stop offset="0.76" stop-color="#d2d2d3" stop-opacity="0.36"/><stop offset="1" stop-color="#fff" stop-opacity="0"/></radialGradient><radialGradient id="radial-gradient-2" cx="47.47" cy="-37.58" r="12.21" gradientTransform="translate(3.41 87.72) scale(0.99 0.18)" gradientUnits="userSpaceOnUse"><stop offset="0" stop-color="#58595b"/><stop offset="0.16" stop-color="#5c5d5f" stop-opacity="0.94"/><stop offset="0.38" stop-color="#66686a" stop-opacity="0.75"/><stop offset="0.62" stop-color="#78797c" stop-opacity="0.45"/><stop offset="0.89" stop-color="#909295" stop-opacity="0.04"/><stop offset="0.91" stop-color="#929497" stop-opacity="0"/></radialGradient><clipPath id="clip-path" transform="translate(0 -1.61)"><path class="cls-1" d="M70.55,48.07S64.79,17.38,72.45,15s21.06-.7,22.11,24.09c0,0-1.32,13.95-3.28,15.06S70.55,48.07,70.55,48.07Z"/></clipPath><linearGradient id="linear-gradient" x1="78.35" y1="15.79" x2="78.35" y2="28.42" gradientUnits="userSpaceOnUse"><stop offset="0" stop-color="#bfbfbf"/><stop offset="0.52" stop-color="#d3d4d4"/><stop offset="0.94" stop-color="#dfe0e0"/></linearGradient><linearGradient id="linear-gradient-2" x1="78.35" y1="29.21" x2="78.35" y2="15.01" gradientUnits="userSpaceOnUse"><stop offset="0" stop-color="#aeadad"/><stop offset="1" stop-color="#bbbbba"/></linearGradient><linearGradient id="linear-gradient-3" x1="78.35" y1="15.79" x2="78.35" y2="19.81" gradientUnits="userSpaceOnUse"><stop offset="0" stop-color="#f3f2f2"/><stop offset="0.05" stop-color="#edecec"/><stop offset="0.21" stop-color="#e0e0e0"/><stop offset="0.42" stop-color="#d9d9d9"/><stop offset="0.9" stop-color="#d7d7d7"/></linearGradient><linearGradient id="linear-gradient-4" x1="78.35" y1="17.05" x2="78.35" y2="16.29" gradientUnits="userSpaceOnUse"><stop offset="0" stop-color="#f3f2f2"/><stop offset="1" stop-color="#fff"/></linearGradient><linearGradient id="linear-gradient-5" x1="81.46" y1="52.22" x2="74.64" y2="29.65" gradientUnits="userSpaceOnUse"><stop offset="0.47" stop-color="#d7d7d7"/><stop offset="0.65" stop-color="#ebebeb"/><stop offset="0.84" stop-color="#fafafa"/><stop offset="1" stop-color="#fff"/></linearGradient><linearGradient id="linear-gradient-6" x1="78.55" y1="58.07" x2="78.55" y2="30.14" xlink:href="#linear-gradient-2"/><clipPath id="clip-path-2" transform="translate(0 -1.61)"><path class="cls-1" d="M34.31,31.3s2.2-21.47-12-17.56S8.49,45,10.9,49.48s22.9-1.41,22.9-1.41Z"/></clipPath><linearGradient id="linear-gradient-7" x1="24.83" y1="15.79" x2="24.83" y2="28.42" xlink:href="#linear-gradient"/><linearGradient id="linear-gradient-8" x1="24.83" y1="29.21" x2="24.83" y2="15.01" xlink:href="#linear-gradient-2"/><linearGradient id="linear-gradient-9" x1="24.83" y1="15.79" x2="24.83" y2="19.81" xlink:href="#linear-gradient-3"/><linearGradient id="linear-gradient-10" x1="24.83" y1="17.05" x2="24.83" y2="16.29" xlink:href="#linear-gradient-4"/><linearGradient id="linear-gradient-11" x1="27.94" y1="52.22" x2="21.12" y2="29.65" xlink:href="#linear-gradient-5"/><linearGradient id="linear-gradient-12" x1="25.03" y1="58.07" x2="25.03" y2="30.14" xlink:href="#linear-gradient-2"/><clipPath id="clip-path-3" transform="translate(0 -1.61)"><path class="cls-1" d="M27.12,53.11s36.22-4.48,48.71,0c0,0-3.78-53.11-25.3-53.11S27.12,39.42,27.12,53.11Z"/></clipPath><linearGradient id="linear-gradient-13" x1="50.53" y1="2.86" x2="50.53" y2="23.03" xlink:href="#linear-gradient"/><linearGradient id="linear-gradient-14" x1="50.53" y1="24.27" x2="50.53" y2="1.61" xlink:href="#linear-gradient-2"/><linearGradient id="linear-gradient-15" x1="50.53" y1="2.85" x2="50.53" y2="9.26" xlink:href="#linear-gradient-3"/><linearGradient id="linear-gradient-16" x1="50.53" y1="4.87" x2="50.53" y2="3.65" xlink:href="#linear-gradient-4"/><linearGradient id="linear-gradient-17" x1="55.49" y1="61.02" x2="44.6" y2="24.98" xlink:href="#linear-gradient-5"/><linearGradient id="linear-gradient-18" x1="50.84" y1="70.37" x2="50.84" y2="25.77" gradientUnits="userSpaceOnUse"><stop offset="0" stop-color="#bbbbba"/><stop offset="1" stop-color="#aeadad"/></linearGradient><linearGradient id="linear-gradient-19" y1="63.28" x2="36.16" y2="63.28" gradientUnits="userSpaceOnUse"><stop offset="0" stop-color="#3179bd"/><stop offset="0.78" stop-color="#172e56"/></linearGradient><linearGradient id="linear-gradient-20" x1="40.8" y1="63.28" x2="76.96" y2="63.28" gradientTransform="matrix(-1, 0, 0, 1, 143, 0)" xlink:href="#linear-gradient-19"/><linearGradient id="linear-gradient-21" x1="-32.5" y1="59.06" x2="24.82" y2="59.06" gradientUnits="userSpaceOnUse"><stop offset="0" stop-color="#092443"/><stop offset="1" stop-color="#040507"/></linearGradient><linearGradient id="linear-gradient-22" x1="66.03" y1="59.06" x2="91.77" y2="59.06" gradientUnits="userSpaceOnUse"><stop offset="0" stop-color="#040507"/><stop offset="1" stop-color="#092443"/></linearGradient><linearGradient id="linear-gradient-23" x1="7.43" y1="54.16" x2="95.55" y2="54.16" gradientUnits="userSpaceOnUse"><stop offset="0" stop-color="#114b87"/><stop offset="0.16" stop-color="#2263a3"/><stop offset="0.31" stop-color="#2e75b7"/><stop offset="0.42" stop-color="#337cbf"/><stop offset="0.68" stop-color="#2568a8"/><stop offset="1" stop-color="#114b87"/></linearGradient><linearGradient id="linear-gradient-24" x1="50.64" y1="79.04" x2="50.64" y2="53.1" gradientUnits="userSpaceOnUse"><stop offset="0" stop-color="#cdcccb"/><stop offset="0.27" stop-color="#d1d0cf"/><stop offset="0.56" stop-color="#dddddc"/><stop offset="0.85" stop-color="#f2f1f1"/><stop offset="1" stop-color="#fff"/></linearGradient><linearGradient id="linear-gradient-25" x1="50.64" y1="77.66" x2="50.64" y2="58.38" gradientUnits="userSpaceOnUse"><stop offset="0" stop-color="#347bbe"/><stop offset="0.56" stop-color="#205da0"/><stop offset="1" stop-color="#134b8e"/></linearGradient><linearGradient id="linear-gradient-26" x1="50.8" y1="64.76" x2="50.8" y2="59.33" gradientUnits="userSpaceOnUse"><stop offset="0" stop-color="#1c63aa"/><stop offset="1" stop-color="#5397d1"/></linearGradient><linearGradient id="linear-gradient-27" x1="50.85" y1="73.87" x2="50.85" y2="62.16" gradientUnits="userSpaceOnUse"><stop offset="0" stop-color="#b8b8b9"/><stop offset="1" stop-color="#fff"/></linearGradient><linearGradient id="linear-gradient-28" x1="50.8" y1="60.9" x2="50.8" y2="59.89" gradientUnits="userSpaceOnUse"><stop offset="0" stop-color="#599bd4"/><stop offset="0.22" stop-color="#5f9fd6"/><stop offset="0.5" stop-color="#6faadb"/><stop offset="0.82" stop-color="#8abce5"/><stop offset="1" stop-color="#9dc9eb"/></linearGradient></defs><title>Asset 4Score Dial</title><g id="Layer_2" data-name="Layer 2"><g id="Layer_1-2" data-name="Layer 1"><rect class="cls-2" x="112" y="56.68" width="128" height="1"/><g class="cls-3"><path class="cls-4" d="M102.19,80.71c0,4.71-22.87,8.54-51.09,8.54S0,85.42,0,80.71s22.88-8.55,51.1-8.55S102.19,76,102.19,80.71Z" transform="translate(0 -1.61)"/><path class="cls-5" d="M65,80.9C65,82.6,58.46,84,50.42,84S35.85,82.6,35.85,80.9s6.52-3.06,14.57-3.06S65,79.21,65,80.9Z" transform="translate(0 -1.61)"/></g><g class="cls-6"><path class="cls-7" d="M84.67,22.11a6.32,6.32,0,1,1-6.32-6.32A6.31,6.31,0,0,1,84.67,22.11Z" transform="translate(0 -1.61)"/><path class="cls-8" d="M78.35,15.79A6.32,6.32,0,1,1,72,22.11a6.32,6.32,0,0,1,6.31-6.32m0-.78a7.1,7.1,0,1,0,7.1,7.1,7.11,7.11,0,0,0-7.1-7.1Z" transform="translate(0 -1.61)"/><path class="cls-9" d="M78.35,15.79a6.28,6.28,0,0,0-5.9,4,12.81,12.81,0,0,1,11.8,0A6.28,6.28,0,0,0,78.35,15.79Z" transform="translate(0 -1.61)"/><path class="cls-10" d="M75.78,17a4.1,4.1,0,0,1,2.57-.75,4.18,4.18,0,0,1,2.58.75,14.59,14.59,0,0,0-2.58-.43A14.36,14.36,0,0,0,75.78,17Z" transform="translate(0 -1.61)"/><path class="cls-11" d="M90.3,33.66a4.27,4.27,0,0,0-.47-.51c-1.63-1.4-5.83-2.48-10.94-2.57v0c-5.43,0-9.92,1.11-11.62,2.58a3.29,3.29,0,0,0-.48.51c-1.35,1.78-2.28,5.9-1.9,10.62.47,5.73,2.21,10.34,4.27,10.88-.36-4.68-.9-14.29.24-18.15a.85.85,0,0,1,1-.45c.55.09.77.44.73.77C70,41.09,70,51.24,70.37,55.61c.1,1.23.34,2,2.11,2h5.61v0h6.53c1.76,0,2-.81,2.11-2,.33-4.36.37-14.51-.75-18.31,0-.33.18-.67.73-.76a.83.83,0,0,1,1,.45c1.14,3.85.59,13.47.24,18.14,2-.54,3.8-5.14,4.26-10.88C92.58,39.56,91.65,35.44,90.3,33.66Z" transform="translate(0 -1.61)"/><path class="cls-12" d="M84.62,57.87H77.89v0H72.48c-2,0-2.21-1-2.31-2.22-.33-4.37-.38-14.54.76-18.38,0-.24-.2-.45-.57-.52s-.72.13-.77.32C68.44,40.93,69,51,69.35,55.11l0,.28-.26-.07c-2.12-.56-3.93-5.11-4.41-11-.36-4.44.42-8.76,1.94-10.76h0a3.4,3.4,0,0,1,.5-.54c1.82-1.57,6.54-2.63,11.75-2.63h.19v.05C84,30.5,88.23,31.52,90,33a3.47,3.47,0,0,1,.51.54c1.51,2,2.29,6.31,1.94,10.75-.48,6-2.3,10.49-4.41,11.05l-.27.07,0-.27c.32-4.14.92-14.18-.23-18.08a.67.67,0,0,0-.77-.31c-.38.06-.6.28-.57.55,1.13,3.81,1.09,14,.75,18.35C86.83,56.87,86.59,57.87,84.62,57.87Zm-6.33-.39h6.33c1.65,0,1.82-.7,1.91-1.85.34-4.35.38-14.44-.74-18.24a.92.92,0,0,1,.88-1,1,1,0,0,1,1.22.59c1.1,3.75.65,12.7.27,17.92C90,54.05,91.57,49.7,92,44.27c.4-5-.69-8.94-1.87-10.49a2.38,2.38,0,0,0-.44-.48c-1.66-1.42-6-2.44-10.82-2.52h-.19v0c-5,0-9.56,1-11.29,2.54a2.59,2.59,0,0,0-.44.47c-1.19,1.56-2.27,5.5-1.87,10.49.44,5.44,2,9.78,3.85,10.61-.39-5.21-.84-14.17.27-17.91a1,1,0,0,1,1.21-.59.91.91,0,0,1,.89,1c-1.13,3.82-1.08,13.91-.75,18.26.09,1.16.27,1.86,1.92,1.86h5.81Z" transform="translate(0 -1.61)"/><path class="cls-13" d="M90.05,34a4.83,4.83,0,0,0-.37-.62,4.23,4.23,0,0,0-.36-.37c-1.29-1.12-5-2.3-10.45-2.39h-.75v0c-5.33.11-9.07,1.29-10.35,2.39a2,2,0,0,0-.36.4c-1.12,1.46-2.14,6-1.75,10.86.36,4.47,1.47,7.81,2.61,9.32-.35-5.34-.65-13.23.39-16.74a1.52,1.52,0,0,1,1.52-1,1.94,1.94,0,0,1,.34,0,1.51,1.51,0,0,1,1.36,1.63v.06l0,.06a19.42,19.42,0,0,0-.56,3.24C72.67,39.32,78.53,34,90.05,34Z" transform="translate(0 -1.61)"/><path class="cls-14" d="M84.62,58.07H77.69v0H72.48c-2.13,0-2.41-1.19-2.5-2.4-.34-4.37-.38-14.52.75-18.41,0-.15-.15-.27-.4-.31a.53.53,0,0,0-.56.17c-1.14,3.87-.54,13.88-.22,18l0,.55-.53-.14c-2.58-.68-4.14-6.13-4.56-11.23-.36-4.48.44-8.86,2-10.89h0a3.87,3.87,0,0,1,.53-.57c1.86-1.6,6.63-2.68,11.88-2.68h.39v.06c4.86.13,9.07,1.16,10.8,2.66a4,4,0,0,1,.54.58c1.54,2,2.33,6.39,2,10.88-.41,5.1-2,10.54-4.55,11.22l-.53.14,0-.55c.31-4.12.91-14.14-.23-18,0-.09-.24-.23-.55-.18s-.41.16-.41.31c1.14,3.9,1.1,14,.76,18.41C87,56.88,86.75,58.07,84.62,58.07Zm-6.14-.78h6.14c1.44,0,1.63-.51,1.72-1.68.33-4.33.38-14.39-.74-18.16v-.07a1.11,1.11,0,0,1,1-1.2,1.19,1.19,0,0,1,1.43.73c1.09,3.68.69,12.34.31,17.62,1.61-1.13,3-5.3,3.43-10.28S91.15,35.42,90,33.9a2.79,2.79,0,0,0-.42-.45C88,32.05,83.65,31.05,78.88,31H78.5v0c-5.65.05-9.57,1.28-11,2.49a4.63,4.63,0,0,0-.41.43c-1.16,1.54-2.22,5.43-1.83,10.37s1.83,9.14,3.44,10.27c-.38-5.27-.79-13.93.3-17.62a1.2,1.2,0,0,1,1.43-.72,1.1,1.1,0,0,1,1,1.2v.06c-1.11,3.77-1.07,13.83-.73,18.17.09,1.16.28,1.67,1.72,1.67h6Z" transform="translate(0 -1.61)"/></g><g class="cls-15"><path class="cls-16" d="M31.15,22.11a6.32,6.32,0,1,1-6.32-6.32A6.31,6.31,0,0,1,31.15,22.11Z" transform="translate(0 -1.61)"/><path class="cls-17" d="M24.83,15.79a6.32,6.32,0,1,1-6.31,6.32,6.32,6.32,0,0,1,6.31-6.32m0-.78a7.1,7.1,0,1,0,7.1,7.1,7.11,7.11,0,0,0-7.1-7.1Z" transform="translate(0 -1.61)"/><path class="cls-18" d="M24.83,15.79a6.28,6.28,0,0,0-5.9,4,11.54,11.54,0,0,1,5.9-1.44,11.5,11.5,0,0,1,5.9,1.44A6.28,6.28,0,0,0,24.83,15.79Z" transform="translate(0 -1.61)"/><path class="cls-19" d="M22.26,17a4.1,4.1,0,0,1,2.57-.75,4.18,4.18,0,0,1,2.58.75,14.59,14.59,0,0,0-2.58-.43A14.36,14.36,0,0,0,22.26,17Z" transform="translate(0 -1.61)"/><path class="cls-11" d="M36.78,33.66a4.27,4.27,0,0,0-.47-.51c-1.63-1.4-5.83-2.48-10.94-2.57v0c-5.43,0-9.92,1.11-11.62,2.58a3.29,3.29,0,0,0-.48.51c-1.35,1.78-2.28,5.9-1.9,10.62.47,5.73,2.21,10.34,4.27,10.88-.36-4.68-.9-14.29.24-18.15a.85.85,0,0,1,1-.45c.55.09.77.44.73.77-1.12,3.79-1.09,13.94-.75,18.31.1,1.23.34,2,2.11,2h5.61v0H31.1c1.76,0,2-.81,2.11-2,.33-4.36.37-14.51-.75-18.31,0-.33.18-.67.73-.76a.83.83,0,0,1,1,.45c1.14,3.85.59,13.47.24,18.14,2-.54,3.8-5.14,4.26-10.88C39.06,39.56,38.13,35.44,36.78,33.66Z" transform="translate(0 -1.61)"/><path class="cls-12" d="M31.1,57.87H24.37v0H19c-2,0-2.21-1-2.31-2.22-.34-4.37-.38-14.54.76-18.38,0-.24-.19-.45-.57-.52a.69.69,0,0,0-.78.32c-1.15,3.89-.54,13.94-.23,18.07l0,.28-.26-.07c-2.12-.56-3.93-5.11-4.41-11-.36-4.44.42-8.76,1.94-10.76h0a3.4,3.4,0,0,1,.5-.54c1.82-1.57,6.54-2.63,11.75-2.63h.19v.05c4.9.11,9.15,1.13,10.87,2.62a3.47,3.47,0,0,1,.51.54c1.51,2,2.29,6.31,1.94,10.75-.48,6-2.3,10.49-4.41,11.05l-.27.07,0-.27C34.54,51,35.14,41,34,37.07a.67.67,0,0,0-.77-.31c-.38.06-.6.28-.57.55,1.13,3.81,1.09,14,.75,18.35C33.31,56.87,33.07,57.87,31.1,57.87Zm-6.33-.39H31.1c1.65,0,1.82-.7,1.91-1.85.34-4.35.38-14.44-.74-18.24a.92.92,0,0,1,.88-1,1,1,0,0,1,1.22.59c1.1,3.75.65,12.7.27,17.92,1.81-.83,3.41-5.18,3.85-10.61.4-5-.69-8.94-1.87-10.49a2.38,2.38,0,0,0-.44-.48c-1.66-1.42-6-2.44-10.82-2.52h-.19v0c-5,0-9.56,1-11.29,2.54a2.59,2.59,0,0,0-.44.47c-1.19,1.56-2.27,5.5-1.87,10.49.44,5.44,2,9.78,3.85,10.61-.39-5.21-.83-14.17.27-17.91a1,1,0,0,1,1.21-.59.91.91,0,0,1,.89,1c-1.13,3.82-1.08,13.91-.75,18.26.09,1.16.27,1.86,1.92,1.86h5.81Z" transform="translate(0 -1.61)"/><path class="cls-20" d="M36.53,34a4.83,4.83,0,0,0-.37-.62A3,3,0,0,0,35.8,33c-1.29-1.12-5-2.3-10.45-2.39H24.6v0c-5.33.11-9.07,1.29-10.35,2.39a2,2,0,0,0-.36.4c-1.12,1.46-2.14,6-1.75,10.86.36,4.47,1.47,7.81,2.61,9.32-.35-5.34-.65-13.23.39-16.74a1.52,1.52,0,0,1,1.52-1,1.94,1.94,0,0,1,.34,0,1.51,1.51,0,0,1,1.36,1.63v.06l0,.06a19.42,19.42,0,0,0-.56,3.24C19.15,39.32,25,34,36.53,34Z" transform="translate(0 -1.61)"/><path class="cls-21" d="M31.1,58.07H24.17v0H19c-2.14,0-2.41-1.19-2.5-2.4-.34-4.37-.38-14.52.75-18.41,0-.15-.15-.27-.4-.31s-.53.08-.56.17C15.11,41,15.71,51,16,55.1l0,.55-.53-.14C13,54.83,11.4,49.38,11,44.28c-.36-4.48.44-8.86,2-10.89h0a3.87,3.87,0,0,1,.53-.57c1.86-1.6,6.63-2.68,11.88-2.68h.39v.06c4.86.13,9.07,1.16,10.8,2.66a4,4,0,0,1,.54.58c1.54,2,2.33,6.39,2,10.88-.41,5.1-2,10.54-4.55,11.22l-.53.14,0-.55c.31-4.12.91-14.14-.23-18,0-.09-.24-.23-.55-.18s-.41.16-.4.31c1.13,3.9,1.09,14,.75,18.41C33.5,56.88,33.23,58.07,31.1,58.07ZM25,57.29H31.1c1.43,0,1.63-.51,1.72-1.68.33-4.33.38-14.39-.74-18.16v-.07a1.11,1.11,0,0,1,1-1.2,1.19,1.19,0,0,1,1.43.73c1.09,3.68.69,12.34.31,17.62,1.61-1.13,3-5.3,3.43-10.28s-.66-8.83-1.82-10.35a2.79,2.79,0,0,0-.42-.45c-1.62-1.4-5.92-2.4-10.69-2.48H25v0c-5.65.05-9.57,1.28-11,2.49a4.63,4.63,0,0,0-.41.43c-1.16,1.54-2.22,5.43-1.83,10.37s1.83,9.14,3.44,10.27c-.38-5.27-.79-13.93.3-17.62a1.2,1.2,0,0,1,1.43-.72A1.1,1.1,0,0,1,18,37.35v.06c-1.11,3.77-1.07,13.83-.73,18.17.09,1.16.28,1.67,1.72,1.67h6Z" transform="translate(0 -1.61)"/></g><g class="cls-22"><path class="cls-23" d="M60.61,12.94A10.09,10.09,0,1,1,50.53,2.86,10.08,10.08,0,0,1,60.61,12.94Z" transform="translate(0 -1.61)"/><path class="cls-24" d="M50.53,2.86A10.09,10.09,0,1,1,40.44,12.94,10.08,10.08,0,0,1,50.53,2.86m0-1.25A11.33,11.33,0,1,0,61.86,12.94,11.35,11.35,0,0,0,50.53,1.61Z" transform="translate(0 -1.61)"/><path class="cls-25" d="M50.53,2.86s-6.31-.49-9.42,6.4A18.44,18.44,0,0,1,50.53,7a18.38,18.38,0,0,1,9.41,2.29C56.84,2.37,50.53,2.86,50.53,2.86Z" transform="translate(0 -1.61)"/><path class="cls-26" d="M46.42,4.85a6.57,6.57,0,0,1,4.11-1.2,6.57,6.57,0,0,1,4.11,1.2,22.51,22.51,0,0,0-4.11-.7A22.09,22.09,0,0,0,46.42,4.85Z" transform="translate(0 -1.61)"/><path class="cls-11" d="M69.61,31.39a6.39,6.39,0,0,0-.76-.81c-2.6-2.24-9.3-4-17.47-4.11V26.4c-8.66,0-15.84,1.78-18.55,4.12a5,5,0,0,0-.76.82c-2.16,2.84-3.64,9.42-3,17,.74,9.15,3.53,16.51,6.81,17.37-.56-7.47-1.43-22.82.39-29A1.35,1.35,0,0,1,37.81,36c.87.15,1.23.7,1.16,1.23-1.79,6.06-1.73,22.27-1.19,29.23.15,2,.55,3.26,3.37,3.26h9v0H60.53c2.82,0,3.21-1.28,3.37-3.25.54-7,.6-23.18-1.19-29.24-.07-.52.28-1.08,1.15-1.22a1.33,1.33,0,0,1,1.59.72c1.82,6.15,1,21.5.39,29,3.27-.87,6.06-8.23,6.8-17.38C73.25,40.81,71.77,34.23,69.61,31.39Z" transform="translate(0 -1.61)"/><path class="cls-12" d="M60.53,70.06H49.79V70H41.15c-3.15,0-3.53-1.61-3.68-3.54-.54-7-.61-23.21,1.2-29.35,0-.39-.31-.73-.91-.83a1.07,1.07,0,0,0-1.23.5C34.69,43,35.65,59,36.15,65.65l0,.43L35.76,66c-3.38-.89-6.27-8.15-7-17.65-.57-7.08.68-14,3.1-17.17h0a5.28,5.28,0,0,1,.8-.86c2.91-2.52,10.45-4.2,18.76-4.2h.31v.07c7.82.18,14.61,1.81,17.36,4.18a5.18,5.18,0,0,1,.81.87c2.42,3.18,3.66,10.08,3.09,17.17-.76,9.5-3.66,16.76-7,17.65l-.42.11,0-.44c.5-6.6,1.47-22.64-.37-28.86a1.07,1.07,0,0,0-1.23-.51c-.61.11-1,.45-.9.88,1.8,6.09,1.73,22.32,1.19,29.3C64.06,68.45,63.68,70.06,60.53,70.06Zm-10.11-.63H60.53c2.64,0,2.91-1.12,3.06-3,.54-6.94.61-23-1.18-29.12a1.45,1.45,0,0,1,1.4-1.62,1.64,1.64,0,0,1,1.94.94c1.76,6,1,20.28.43,28.61,2.91-1.33,5.45-8.27,6.15-16.94.64-8-1.09-14.27-3-16.75a5.4,5.4,0,0,0-.72-.76c-2.63-2.28-9.58-3.91-17.26-4h-.31v-.06c-8,0-15.27,1.66-18,4.05a4.25,4.25,0,0,0-.7.76c-1.89,2.48-3.63,8.78-3,16.75.7,8.68,3.24,15.61,6.15,16.94-.62-8.33-1.34-22.63.43-28.61a1.64,1.64,0,0,1,1.93-.94c1.1.19,1.5.93,1.42,1.58-1.8,6.11-1.73,22.23-1.19,29.17.14,1.84.42,3,3.06,3h9.27Z" transform="translate(0 -1.61)"/><path class="cls-27" d="M69.2,31.86a6.67,6.67,0,0,0-.59-1,4.36,4.36,0,0,0-.56-.6c-2.07-1.79-8-3.66-16.69-3.81l-1.21,0v0c-8.5.17-14.48,2.06-16.52,3.81a4.14,4.14,0,0,0-.58.63c-1.78,2.34-3.42,9.61-2.79,17.35.57,7.14,2.34,12.47,4.17,14.89-.57-8.53-1-21.14.62-26.74a2.43,2.43,0,0,1,2.43-1.63,3.08,3.08,0,0,1,.53,0,2.38,2.38,0,0,1,2.18,2.59v.1l0,.1a31,31,0,0,0-.9,5.18C41.45,40.43,50.81,32,69.2,31.86Z" transform="translate(0 -1.61)"/><path class="cls-28" d="M60.53,70.37H49.47v-.06H41.15c-3.41,0-3.84-1.89-4-3.83-.55-7-.61-23.18,1.19-29.4,0-.24-.23-.42-.64-.49s-.84.13-.88.28C35,43,36,59,36.47,65.62l.06.88-.85-.23c-4.11-1.08-6.61-9.78-7.27-17.92-.57-7.16.7-14.15,3.16-17.39h0a5.91,5.91,0,0,1,.85-.91c3-2.56,10.58-4.28,19-4.28H52v.09c7.75.21,14.48,1.86,17.25,4.25a6.7,6.7,0,0,1,.86.92c2.45,3.23,3.72,10.22,3.14,17.37C72.61,56.55,70.1,65.25,66,66.33l-.84.22.06-.87c.5-6.59,1.46-22.58-.36-28.76a.83.83,0,0,0-.88-.28c-.41.07-.65.26-.65.5,1.81,6.22,1.74,22.42,1.2,29.4C64.37,68.47,63.94,70.37,60.53,70.37Zm-9.79-1.25h9.79c2.3,0,2.6-.82,2.75-2.68.53-6.92.61-23-1.17-29l0-.1a1.77,1.77,0,0,1,1.67-1.92,1.93,1.93,0,0,1,2.29,1.16c1.74,5.89,1.09,19.72.49,28.14C69.1,62.9,71.38,56.25,72,48.3S71,34.2,69.11,31.77a4.61,4.61,0,0,0-.67-.72c-2.59-2.23-9.45-3.82-17.07-4h-.61v0c-9,.08-15.29,2-17.52,4a4,4,0,0,0-.66.7c-1.86,2.44-3.56,8.65-2.92,16.55s2.91,14.59,5.48,16.4c-.61-8.42-1.25-22.25.49-28.14a1.93,1.93,0,0,1,2.28-1.16,1.78,1.78,0,0,1,1.68,1.93l0,.1c-1.78,6-1.71,22.08-1.17,29,.15,1.87.45,2.68,2.75,2.68h9.59Z" transform="translate(0 -1.61)"/></g><path class="cls-29" d="M91.93,64.46s-39.3-8.07-81.38,0l-.9-14.08,82.43.44Z" transform="translate(0 -1.61)"/><path class="cls-30" d="M25.34,53.11,36.16,67.24S19.21,68.32,5.71,73.45l1.84-8.86L0,59.25S5.75,56,25.34,53.11Z" transform="translate(0 -1.61)"/><path class="cls-31" d="M76.85,53.11,66,67.24s17,1.08,30.45,6.21l-1.83-8.87,7.54-5.33S96.45,56,76.85,53.11Z" transform="translate(0 -1.61)"/><path class="cls-32" d="M10.43,64.23s13.78-.57,25.73,3L23.32,50.88Z" transform="translate(0 -1.61)"/><path class="cls-33" d="M78.88,50.88,66,67.24c12-3.58,25.74-3,25.74-3Z" transform="translate(0 -1.61)"/><path class="cls-34" d="M7.43,49.36l3,15.29s19.48-5.4,39.86-5.4,41.51,5.4,41.51,5.4l3.75-15.29s-17.84-5.69-45.71-5.69C29,43.67,7.43,49.36,7.43,49.36Z" transform="translate(0 -1.61)"/><path class="cls-35" d="M50.64,57A11,11,0,1,1,39.57,68,11,11,0,0,1,50.64,57Z" transform="translate(0 -1.61)"/><path class="cls-36" d="M50.64,58.38A9.64,9.64,0,1,1,40.94,68,9.67,9.67,0,0,1,50.64,58.38Z" transform="translate(0 -1.61)"/><path class="cls-37" d="M50.57,62.68a17.12,17.12,0,0,0-7.59,2,8.37,8.37,0,0,1,15.64.1A18.57,18.57,0,0,0,50.57,62.68Z" transform="translate(0 -1.61)"/><path class="cls-38" d="M53.54,62.82a4.16,4.16,0,0,1,2.78-1l.12.26-1.52,1.79-3.38,4.48L49.2,72l-.57,1a1.07,1.07,0,0,1-.35.46,2.83,2.83,0,0,1-.92.1c-.52,0-.64,0-.75-.08a1.64,1.64,0,0,1-.36-.57,10.33,10.33,0,0,1-1-3.2c0-.27.16-.4.37-.55a2.42,2.42,0,0,1,1.26-.52c.32,0,.35.27.45.53l.33.77c0,.13.19.59.37.59s.36-.38.42-.49l3.76-5.59Z" transform="translate(0 -1.61)"/><path class="cls-39" d="M53.54,63.14a4.21,4.21,0,0,1,2.78-1l.12.26-1.52,1.8L51.54,68.7,49.2,72.34l-.57,1a1.07,1.07,0,0,1-.35.46,2.83,2.83,0,0,1-.92.1c-.52,0-.64,0-.75-.08a1.74,1.74,0,0,1-.36-.57,10.41,10.41,0,0,1-1-3.2c0-.28.16-.41.37-.55A2.42,2.42,0,0,1,46.89,69c.32,0,.35.27.45.53l.33.77c0,.13.19.59.37.59s.36-.38.42-.49l3.76-5.59Z" transform="translate(0 -1.61)"/><path class="cls-40" d="M47.4,60.89a6.28,6.28,0,0,1,6.8,0,19.26,19.26,0,0,0-3.4-.58A19.26,19.26,0,0,0,47.4,60.89Z" transform="translate(0 -1.61)"/><path class="cls-41" d="M20.51,56.59,19.37,51l-1.32.27-1,2.66-1.95-2.06-1.32.27,1.13,5.58,1.2-.24-.73-3.62,2,2h0l1.08-2.71.74,3.65Z" transform="translate(0 -1.61)"/><path class="cls-41" d="M25.73,53.27l-.49-3.18L24,50.28l.5,3.23c.14.89-.25,1.42-1,1.53s-1.29-.28-1.43-1.2l-.5-3.18-1.23.19.49,3.21a2.27,2.27,0,0,0,2.83,2.13A2.29,2.29,0,0,0,25.73,53.27Z" transform="translate(0 -1.61)"/><path class="cls-41" d="M30.88,55.14,30.74,54l-2.81.34-.55-4.52L26.13,50l.69,5.65Z" transform="translate(0 -1.61)"/><path class="cls-41" d="M34.63,50.22l-.11-1.15-4.7.45.11,1.16,1.73-.17L32.09,55l1.25-.12-.44-4.52Z" transform="translate(0 -1.61)"/><path class="cls-41" d="M36.76,54.63,36.33,49,35.08,49l.43,5.68Z" transform="translate(0 -1.61)"/><path class="cls-41" d="M41.9,50.59h0a2,2,0,0,0-2.29-1.85l-2.32.14.32,5.69,1.26-.07-.1-1.71.95-.06C41,52.65,42,51.91,41.9,50.59Zm-1.26.1a.88.88,0,0,1-.94.92l-1,.06-.1-1.74,1-.06c.63,0,1,.24,1.07.8Z" transform="translate(0 -1.61)"/><path class="cls-41" d="M46.9,54.15l0-1.14L44,53.1l-.14-4.56-1.25,0,.17,5.7Z" transform="translate(0 -1.61)"/><path class="cls-41" d="M51.93,54.12V53l-3.1,0v-1.2h2.68V50.69l-2.69,0V49.55l3.06,0V48.42l-4.3,0,0,5.7Z" transform="translate(0 -1.61)"/><path class="cls-41" d="M59.9,51.43v0a2.9,2.9,0,0,0-2.94-3,2.94,2.94,0,0,0-3.11,2.86v0a3,3,0,0,0,6,.14Zm-1.31,0a1.69,1.69,0,0,1-1.75,1.73,1.73,1.73,0,0,1-1.68-1.83v0a1.7,1.7,0,0,1,1.75-1.73,1.73,1.73,0,0,1,1.68,1.84Z" transform="translate(0 -1.61)"/><path class="cls-41" d="M68.73,49.05,67.42,49,66,52.76l-1-3.94-1.08-.06-1.49,3.8-1-3.92-1.34-.08,1.61,5.84,1.09.07,1.5-3.65,1.07,3.79,1.09.06Z" transform="translate(0 -1.61)"/><path class="cls-41" d="M73.81,55.24l.5-5.67-1.23-.11L72.77,53l-2.35-3.73-1.15-.1-.5,5.67L70,54.9l.32-3.6,2.43,3.85Z" transform="translate(0 -1.61)"/><path class="cls-41" d="M78.91,55.82,79,54.71,76,54.36l.13-1.19,2.67.31.13-1.11-2.67-.31.13-1.15,3,.35.13-1.11-4.27-.49-.65,5.67Z" transform="translate(0 -1.61)"/><path class="cls-41" d="M84.5,56.59l-1.1-2.21a1.77,1.77,0,0,0,1.46-1.58h0c.16-1.17-.54-2-1.87-2.17l-2.58-.36-.79,5.65,1.24.17.25-1.8,1,.13,1,2Zm-.91-3.9c-.07.48-.46.75-1.06.66l-1.26-.17.22-1.62,1.24.17c.6.08.94.41.86.94Z" transform="translate(0 -1.61)"/><path class="cls-41" d="M89.38,55.71h0c.16-1-.41-1.5-1.5-2-.93-.41-1.15-.58-1.08-1h0c0-.27.33-.45.8-.37a2.61,2.61,0,0,1,1.37.81l.8-.83a3.3,3.3,0,0,0-2-1.07,1.79,1.79,0,0,0-2.26,1.36v0c-.19,1.11.49,1.55,1.57,2,.9.4,1.06.6,1,.91v0c-.06.33-.4.47-.91.39a2.66,2.66,0,0,1-1.56-1l-.88.75A3.67,3.67,0,0,0,87,57.11C88.24,57.31,89.19,56.83,89.38,55.71Z" transform="translate(0 -1.61)"/><path class="cls-42" d="M20.51,57.06l-1.14-5.59-1.32.27-1,2.66-1.95-2.06-1.32.26,1.13,5.59,1.2-.24-.73-3.63,2,2h0l1.08-2.7.74,3.65Z" transform="translate(0 -1.61)"/><path class="cls-42" d="M25.73,53.73l-.49-3.17L24,50.75,24.5,54c.14.9-.25,1.43-1,1.54s-1.29-.28-1.43-1.2l-.5-3.19-1.23.2.49,3.21a2.27,2.27,0,0,0,2.83,2.13A2.29,2.29,0,0,0,25.73,53.73Z" transform="translate(0 -1.61)"/><path class="cls-42" d="M30.88,55.61l-.14-1.13-2.81.34-.55-4.53-1.25.16.69,5.65Z" transform="translate(0 -1.61)"/><path class="cls-42" d="M34.63,50.69l-.11-1.15-4.7.45.11,1.15L31.66,51l.43,4.52,1.25-.12-.44-4.52Z" transform="translate(0 -1.61)"/><path class="cls-42" d="M36.76,55.1l-.43-5.69-1.25.1.43,5.68Z" transform="translate(0 -1.61)"/><path class="cls-42" d="M41.9,51.06h0a2,2,0,0,0-2.29-1.85l-2.32.14L37.61,55,38.87,55l-.1-1.71.95-.06C41,53.12,42,52.38,41.9,51.06Zm-1.26.1a.88.88,0,0,1-.94.92l-1,.05-.1-1.74,1,0c.63,0,1,.24,1.07.8Z" transform="translate(0 -1.61)"/><path class="cls-42" d="M46.9,54.62l0-1.14L44,53.57,43.88,49l-1.25,0,.17,5.7Z" transform="translate(0 -1.61)"/><path class="cls-42" d="M51.93,54.58V53.47l-3.1,0v-1.2h2.68V51.16H48.82V50l3.06,0V48.89l-4.3,0,0,5.7Z" transform="translate(0 -1.61)"/><path class="cls-42" d="M59.9,51.9v0a2.91,2.91,0,0,0-2.94-3,3,3,0,0,0-3.11,2.87v0a3,3,0,0,0,6,.14Zm-1.31,0a1.69,1.69,0,0,1-1.75,1.73,1.73,1.73,0,0,1-1.68-1.83v0A1.7,1.7,0,0,1,56.91,50a1.73,1.73,0,0,1,1.68,1.83Z" transform="translate(0 -1.61)"/><path class="cls-42" d="M68.73,49.52l-1.31-.07L66,53.23l-1-3.94-1.08-.06L62.4,53l-1-3.92L60.1,49l1.61,5.84,1.09.06,1.5-3.65,1.07,3.8,1.09.06Z" transform="translate(0 -1.61)"/><path class="cls-42" d="M73.81,55.71l.5-5.68-1.23-.11-.31,3.5-2.35-3.73-1.15-.1-.5,5.67,1.23.11.32-3.61,2.43,3.86Z" transform="translate(0 -1.61)"/><path class="cls-42" d="M78.91,56.29,79,55.18,76,54.83l.13-1.19,2.67.3.13-1.11-2.67-.3.13-1.15,3,.35.13-1.11-4.27-.49L74.6,55.8Z" transform="translate(0 -1.61)"/><path class="cls-42" d="M84.5,57.06l-1.1-2.21a1.78,1.78,0,0,0,1.46-1.58v0c.16-1.16-.54-2-1.87-2.16l-2.58-.36-.79,5.65,1.24.17.25-1.81,1,.14,1,2Zm-.91-3.9a.83.83,0,0,1-1.06.66l-1.26-.17L81.49,52l1.24.18c.6.08.94.41.86.94Z" transform="translate(0 -1.61)"/><path class="cls-42" d="M89.38,56.18h0c.16-1-.41-1.5-1.5-2-.93-.42-1.15-.58-1.08-1h0c0-.28.33-.45.8-.37a2.65,2.65,0,0,1,1.37.8l.8-.82a3.3,3.3,0,0,0-2-1.07,1.79,1.79,0,0,0-2.26,1.36v0c-.19,1.11.49,1.55,1.57,2,.9.4,1.06.6,1,.91v0c-.06.32-.4.47-.91.39a2.66,2.66,0,0,1-1.56-1l-.88.75A3.6,3.6,0,0,0,87,57.57C88.24,57.78,89.19,57.3,89.38,56.18Z" transform="translate(0 -1.61)"/><path class="cls-43" d="M110.55,25.1h4.77v-10l4.47,6.83h.1L124.38,15V25.1h4.85V7.53h-5.15l-4.19,6.8-4.19-6.8h-5.15Z" transform="translate(0 -1.61)"/><path class="cls-43" d="M140.53,25.43c5,0,8.23-2.49,8.23-8.16V7.53h-4.94v9.89c0,2.46-1.28,3.61-3.24,3.61s-3.24-1.2-3.24-3.74V7.53H132.4v9.86C132.4,22.89,135.54,25.43,140.53,25.43Z" transform="translate(0 -1.61)"/><path class="cls-43" d="M151.75,25.1h13.38V20.83h-8.51V7.53h-4.87Z" transform="translate(0 -1.61)"/><path class="cls-43" d="M169.22,25.1h4.87V11.8h5.27V7.53H164V11.8h5.27Z" transform="translate(0 -1.61)"/><path class="cls-43" d="M182.47,25.1h4.89V7.53h-4.89Z" transform="translate(0 -1.61)"/><path class="cls-43" d="M192.45,25.1h4.87v-5h2.41c4.37,0,7.56-2.18,7.56-6.33V13.7c0-3.89-2.87-6.17-7.31-6.17h-7.53Zm4.87-8.84V11.62h2.29c1.75,0,2.81.8,2.81,2.31V14c0,1.38-1.06,2.28-2.79,2.28Z" transform="translate(0 -1.61)"/><path class="cls-43" d="M208.64,25.1H222V20.83h-8.51V7.53h-4.87Z" transform="translate(0 -1.61)"/><path class="cls-43" d="M224.82,25.1h14.26V21h-9.44V18.17h8.44V14.33h-8.44V11.67H239V7.53H224.82Z" transform="translate(0 -1.61)"/><path class="cls-43" d="M120.48,50.45A10.17,10.17,0,0,0,131,40.35v-.06a10.47,10.47,0,0,0-20.92.06v0A10.08,10.08,0,0,0,120.48,50.45Zm.06-4.86a5,5,0,0,1-5-5.24v-.06a5,5,0,0,1,4.91-5.19,5.05,5.05,0,0,1,5,5.25v0A5,5,0,0,1,120.54,45.59Z" transform="translate(0 -1.61)"/><path class="cls-43" d="M137.23,50.2h4.69L145.8,39l3.92,11.18h4.69l6.49-19.57h-5.58l-3.38,11.24-3.75-11.29h-4.63l-3.75,11.29-3.39-11.24h-5.69Z" transform="translate(0 -1.61)"/><path class="cls-43" d="M162.38,50.06h5.33V39.4L176,50.06h4.72V30.63H175.4V40.9l-8-10.27h-5Z" transform="translate(0 -1.61)"/><path class="cls-43" d="M183.9,50.06h15.76V45.48H189.23V42.4h9.32V38.16h-9.32V35.21h10.3V30.63H183.9Z" transform="translate(0 -1.61)"/><path class="cls-43" d="M203,50.06h5.38V44.18h2.36l3.92,5.88h6.21l-4.63-6.77a6.15,6.15,0,0,0,4-6v0a6,6,0,0,0-1.72-4.53c-1.3-1.33-3.35-2.11-6.32-2.11H203ZM208.41,40V35.3h3.53c1.8,0,2.91.77,2.91,2.3v.06c0,1.41-1,2.3-2.88,2.3Z" transform="translate(0 -1.61)"/><path class="cls-43" d="M231.26,50.39c4.72,0,7.86-2.35,7.86-6.32V44c0-3.63-2.78-5.08-7.25-6-2.69-.61-3.36-1-3.36-1.89v0c0-.69.64-1.25,2-1.25a9.82,9.82,0,0,1,5.44,1.91l2.69-3.8a12.24,12.24,0,0,0-8-2.58c-4.67,0-7.52,2.61-7.52,6.22v0c0,4,3.19,5.17,7.32,6.11,2.64.61,3.28,1,3.28,1.86v.05c0,.84-.78,1.34-2.22,1.34a10,10,0,0,1-6.3-2.34l-3,3.58A13.56,13.56,0,0,0,231.26,50.39Z" transform="translate(0 -1.61)"/></g></g></svg>