<svg xmlns="http://www.w3.org/2000/svg" viewBox="0 0 50.46 63.64"><defs><style>.cls-1{fill:#fff;}.cls-2{fill:#b2c5e0;}.cls-3{fill:#406eb3;}</style></defs><title>Asset 2owner-history-circle</title><g id="Layer_2" data-name="Layer 2"><g id="Layer_1-2" data-name="Layer 1"><path class="cls-1" d="M25.23,0A25.23,25.23,0,1,0,50.46,25.23,25.24,25.24,0,0,0,25.23,0Z"/><path class="cls-2" d="M25.23,50.55a25.13,25.13,0,0,1-8.4-1.46l8.4,14.55,8.4-14.55A25.13,25.13,0,0,1,25.23,50.55Z"/><path class="cls-3" d="M25.23,4.05A21.18,21.18,0,1,0,46.41,25.23,21.18,21.18,0,0,0,25.23,4.05Zm0,38A16.86,16.86,0,1,1,42.09,25.23,16.86,16.86,0,0,1,25.23,42.09Z"/></g></g></svg>