<svg width="60" height="58" viewBox="0 0 60 58" fill="none" xmlns="http://www.w3.org/2000/svg">
<path d="M30 0C13.4308 0 0 11.3654 0 25.3846C0 33.1569 4.13845 40.1042 10.6415 44.7611C10.8076 48.3057 10.2583 53.2001 5.36809 55.4567C5.36508 55.4582 5.36207 55.4597 5.35907 55.4612C5.14059 55.5443 4.95249 55.6918 4.81969 55.8842C4.68689 56.0766 4.61564 56.3047 4.61538 56.5385C4.61538 56.8445 4.73695 57.138 4.95334 57.3544C5.16973 57.5707 5.46321 57.6923 5.76923 57.6923C5.80233 57.6922 5.83542 57.6907 5.86839 57.6878C11.4854 57.6518 16.2537 54.6162 19.5433 51.4093C20.5863 50.3916 22.0405 49.8908 23.4736 50.1608C25.5736 50.56 27.7569 50.7692 30 50.7692C46.5692 50.7692 60 39.4039 60 25.3846C60 11.3654 46.5692 0 30 0ZM20.7692 16.1538H23.0769C25.6269 16.1538 27.6923 18.2192 27.6923 20.7692V23.0769C27.6923 33.4338 22.4037 36.3774 21.8014 36.6797C21.4714 36.8435 21.1199 36.9231 20.7737 36.9231C19.9268 36.9231 19.1111 36.4575 18.7049 35.6475C18.1349 34.5075 18.5971 33.1211 19.7371 32.5511C19.7994 32.5142 21.6491 31.4031 22.5676 27.6923H20.7692C18.2192 27.6923 16.1538 25.6269 16.1538 23.0769V20.7692C16.1538 18.2192 18.2192 16.1538 20.7692 16.1538ZM36.9231 16.1538H39.2308C41.7808 16.1538 43.8462 18.2192 43.8462 20.7692V23.0769C43.8462 33.4338 38.5575 36.3774 37.9552 36.6797C37.6252 36.8435 37.2737 36.9231 36.9276 36.9231C36.0807 36.9231 35.2649 36.4575 34.8588 35.6475C34.2888 34.5075 34.7509 33.1211 35.8909 32.5511C35.9532 32.5142 37.803 31.4031 38.7215 27.6923H36.9231C34.3731 27.6923 32.3077 25.6269 32.3077 23.0769V20.7692C32.3077 18.2192 34.3731 16.1538 36.9231 16.1538Z" fill="black" fill-opacity="0.1"/>
</svg>