<svg width="48" height="46" viewBox="0 0 48 46" fill="none" xmlns="http://www.w3.org/2000/svg">
<path d="M36.0004 0C29.3967 0 24.0004 5.39627 24.0004 12C24.0004 18.6037 29.3967 24 36.0004 24C42.6042 24 48.0004 18.6037 48.0004 12C48.0004 5.39627 42.6042 0 36.0004 0ZM12.0004 4C10.4091 4 8.88301 4.63214 7.75779 5.75736C6.63257 6.88258 6.00043 8.4087 6.00043 10C6.00043 11.5913 6.63257 13.1174 7.75779 14.2426C8.88301 15.3679 10.4091 16 12.0004 16C13.5917 16 15.1179 15.3679 16.2431 14.2426C17.3683 13.1174 18.0004 11.5913 18.0004 10C18.0004 8.4087 17.3683 6.88258 16.2431 5.75736C15.1179 4.63214 13.5917 4 12.0004 4ZM36.0004 4C40.4424 4 44.0004 7.55803 44.0004 12C44.0004 16.442 40.4424 20 36.0004 20C31.5585 20 28.0004 16.442 28.0004 12C28.0004 7.55803 31.5585 4 36.0004 4ZM0.000427246 15.6992L0.000427246 20.3047L6.05121 23.7617C6.02921 23.5077 6.00043 23.254 6.00043 23C6.00043 21.768 6.24965 20.5973 6.69965 19.5273L0.000427246 15.6992ZM15.0004 18C12.2404 18 10.0004 20.24 10.0004 23C10.0004 23.93 10.2733 24.7911 10.7153 25.5391L16.5629 37.2578C16.8929 37.9038 17.3837 38.4387 17.9457 38.8867L23.0239 27.7109L19.2895 20.4687C18.4195 18.9967 16.8344 18 15.0004 18ZM17.9457 38.8867L14.7114 46H19.1059L21.8871 39.8828C22.4471 39.7628 22.9692 39.5977 22.9692 39.5977L32.645 35.7578L40.8793 45.1211C41.4233 45.6631 42.1724 46 43.0004 46C44.6564 46 46.0004 44.656 46.0004 43C46.0004 42.22 45.6935 41.5164 45.2075 40.9844L37.4418 29.9883C36.7458 28.8023 35.4724 28 34.0004 28C33.7824 28 33.5698 28.0285 33.3598 28.0625L26.7661 29.1484L21.8871 39.8789C21.5731 39.9469 21.2504 40 21.0004 40C19.8324 40 18.7917 39.5627 17.9457 38.8867Z" fill="#0493D3"/>
</svg>