<svg width="30" height="30" viewBox="0 0 30 30" fill="none" xmlns="http://www.w3.org/2000/svg">
<path d="M15 4C7.82 4 2 9.82 2 17C2 20.5 3.396 23.663 5.645 26H10C10 24.895 10.895 24 12 24H18C19.105 24 20 24.895 20 26H24.355C26.604 23.663 28 20.5 28 17C28 9.82 22.18 4 15 4ZM4 17C4 16.448 4.448 16 5 16C5.552 16 6 16.448 6 17C6 17.552 5.552 18 5 18C4.448 18 4 17.552 4 17ZM6.84 22.866C6.362 23.142 5.75 22.978 5.474 22.5C5.198 22.022 5.362 21.41 5.84 21.134C6.318 20.858 6.93 21.022 7.206 21.5C7.482 21.978 7.318 22.59 6.84 22.866ZM7.206 12.5C6.93 12.978 6.318 13.142 5.84 12.866C5.361 12.59 5.198 11.978 5.474 11.5C5.75 11.022 6.362 10.858 6.84 11.134C7.318 11.41 7.482 12.022 7.206 12.5ZM10.5 9.206C10.022 9.482 9.41 9.318 9.134 8.84C8.858 8.362 9.022 7.75 9.5 7.474C9.978 7.198 10.59 7.362 10.866 7.84C11.142 8.318 10.978 8.93 10.5 9.206ZM23.16 11.134C23.638 10.858 24.25 11.022 24.526 11.5C24.802 11.978 24.638 12.59 24.16 12.866C23.682 13.142 23.07 12.978 22.794 12.5C22.518 12.022 22.682 11.41 23.16 11.134ZM15 6C15.552 6 16 6.448 16 7C16 7.552 15.552 8 15 8C14.448 8 14 7.552 14 7C14 6.448 14.448 6 15 6ZM20.515 14.857L16.997 16.968C16.997 16.979 17 16.989 17 17C17 18.105 16.105 19 15 19C13.895 19 13 18.105 13 17C13 15.895 13.895 15 15 15C15.351 15 15.675 15.098 15.962 15.257L19.485 13.143C19.958 12.859 20.573 13.013 20.857 13.486C21.142 13.959 20.988 14.573 20.515 14.857ZM20.866 8.84C20.59 9.318 19.978 9.482 19.5 9.206C19.022 8.93 18.858 8.318 19.134 7.84C19.41 7.362 20.022 7.198 20.5 7.474C20.978 7.75 21.142 8.361 20.866 8.84ZM24.526 22.5C24.25 22.978 23.638 23.142 23.16 22.866C22.682 22.59 22.518 21.978 22.794 21.5C23.07 21.022 23.682 20.858 24.16 21.134C24.639 21.41 24.802 22.022 24.526 22.5ZM25 18C24.448 18 24 17.552 24 17C24 16.448 24.448 16 25 16C25.552 16 26 16.448 26 17C26 17.552 25.552 18 25 18Z" fill="#A5A5A5"/>
</svg>