<svg width="24" height="24" viewBox="0 0 24 24" fill="none" xmlns="http://www.w3.org/2000/svg">
<path d="M22.5 17.5001C22.5 18.6046 21.6045 19.5001 20.5 19.5001H3.5C2.3955 19.5001 1.5 18.6046 1.5 17.5001V6.50006C1.5 5.39556 2.3955 4.50006 3.5 4.50006H20.5C21.6045 4.50006 22.5 5.39556 22.5 6.50006V17.5001Z" fill="#1565C0"/>
<path d="M7.59299 9.50001L6.27999 13.416C6.27999 13.416 5.94649 11.7595 5.91349 11.5515C5.16599 9.84601 4.06299 9.94101 4.06299 9.94101L5.36299 15V14.999H6.94349L9.12899 9.50001H7.59299ZM8.84449 15H10.28L11.148 9.50001H9.69449L8.84449 15ZM19.004 9.50001H17.4935L15.1385 15H16.5645L16.8585 14.2145H18.6565L18.8095 15H20.116L19.004 9.50001ZM17.2565 13.164L18.038 11.0855L18.447 13.164H17.2565ZM13.1845 11.103C13.1845 10.8 13.4335 10.5745 14.1475 10.5745C14.6115 10.5745 15.143 10.9115 15.143 10.9115L15.376 9.75701C15.376 9.75701 14.697 9.49951 14.0305 9.49951C12.521 9.49951 11.7425 10.2215 11.7425 11.1355C11.7425 12.7885 13.732 12.562 13.732 13.411C13.732 13.5565 13.6165 13.893 12.788 13.893C11.957 13.893 11.4085 13.5885 11.4085 13.5885L11.161 14.6965C11.161 14.6965 11.6925 14.9995 12.7195 14.9995C13.749 14.9995 15.177 14.2295 15.177 13.1235C15.177 11.793 13.1845 11.697 13.1845 11.103Z" fill="white"/>
<path d="M6.10595 12.4726L5.62296 10.0986C5.62296 10.0986 5.40446 9.58411 4.83646 9.58411C4.26846 9.58411 2.61646 9.58411 2.61646 9.58411C2.61646 9.58411 5.44695 10.4201 6.10595 12.4726Z" fill="#FFC107"/>
</svg>