<?xml version="1.0" encoding="utf-8"?>
<!-- Generator: Adobe Illustrator 26.0.1, SVG Export Plug-In . SVG Version: 6.00 Build 0)  -->
<svg version="1.1" xmlns="http://www.w3.org/2000/svg" xmlns:xlink="http://www.w3.org/1999/xlink" x="0px" y="0px"
	 viewBox="0 0 62.3 67.7" style="enable-background:new 0 0 62.3 67.7;" xml:space="preserve">
<style type="text/css">
	.st0{clip-path:url(#SVGID_00000165195825959225422150000017849376867965063090_);fill:#0073BA;}
	.st1{fill:#FFFFFF;}
	.st2{opacity:0.25;}
	.st3{clip-path:url(#SVGID_00000114762246730443471170000007321226774630748318_);fill:#C7C7C7;}
	.st4{clip-path:url(#SVGID_00000063605600904674721730000012440671419673226136_);fill:none;stroke:#C7C7C7;stroke-miterlimit:10;}
	.st5{clip-path:url(#SVGID_00000116955656090056546660000009528907503009640834_);fill:#FFFFFF;}
	.st6{filter:url(#Adobe_OpacityMaskFilter);}
	.st7{clip-path:url(#SVGID_00000132078554786899303420000004677892644057550977_);}
	
		.st8{clip-path:url(#SVGID_00000046317272560941324030000000825794940564015513_);fill:url(#SVGID_00000004541778320931444320000005081553321238571400_);}
	
		.st9{clip-path:url(#SVGID_00000132078554786899303420000004677892644057550977_);mask:url(#SVGID_00000162330670409857195810000000369481333106144690_);}
	.st10{clip-path:url(#SVGID_00000016058608946505485330000009479637490566397359_);fill:#FFFFFF;}
	.st11{fill:none;}
	.st12{fill:#EAEAEA;}
	.st13{fill:url(#SVGID_00000147216675304954496470000018404665440000468880_);}
	.st14{fill:none;stroke:#006496;stroke-linecap:round;stroke-miterlimit:10;}
	.st15{fill:#006496;}
	.st16{fill:none;stroke:#00823B;stroke-width:2;stroke-miterlimit:10;}
	.st17{fill:#079F4B;}
	.st18{clip-path:url(#SVGID_00000121997468998843822350000000777885381909112506_);fill:#0B74BB;}
	.st19{clip-path:url(#SVGID_00000121997468998843822350000000777885381909112506_);fill:none;stroke:#005E94;stroke-miterlimit:10;}
	.st20{clip-path:url(#SVGID_00000121997468998843822350000000777885381909112506_);fill:#FFFFFF;}
	.st21{clip-path:url(#SVGID_00000152257979566264210640000008150801921713936826_);fill:#FF911C;}
	.st22{clip-path:url(#SVGID_00000152257979566264210640000008150801921713936826_);fill:#F57F0A;}
	.st23{clip-path:url(#SVGID_00000152257979566264210640000008150801921713936826_);fill:#FFFFFF;}
	.st24{display:none;}
	.st25{display:inline;}
	.st26{display:inline;clip-path:url(#SVGID_00000075874099728128083680000015549256254876146351_);fill:#CF0A0A;}
	.st27{display:inline;clip-path:url(#SVGID_00000075874099728128083680000015549256254876146351_);fill:#BA0000;}
	.st28{display:inline;clip-path:url(#SVGID_00000075874099728128083680000015549256254876146351_);fill:#FFFFFF;}
	.st29{clip-path:url(#SVGID_00000078021782194025668520000009749791310744035713_);fill:#FFFFFF;}
	.st30{fill:#666666;}
	.st31{display:inline;fill:#FF8F1C;}
	.st32{display:inline;fill:none;stroke:#F57F0A;stroke-miterlimit:10;}
	.st33{clip-path:url(#SVGID_00000060030336017124068390000003465766714634602892_);fill:#FFFFFF;}
	.st34{clip-path:url(#SVGID_00000021113845081115993400000008058775863741490867_);fill:#FFFFFF;}
	
		.st35{clip-path:url(#SVGID_00000021113845081115993400000008058775863741490867_);fill:none;stroke:#FFFFFF;stroke-width:0.573;stroke-linecap:round;stroke-miterlimit:10;}
	.st36{fill:#FF8F1C;}
	.st37{fill:none;stroke:#F57F0A;stroke-miterlimit:10;}
	.st38{clip-path:url(#SVGID_00000088135249891437733180000011157045920183228860_);fill:#FFFFFF;}
	.st39{clip-path:url(#SVGID_00000078016852302762568110000004824716134123911084_);fill:#FFFFFF;}
	.st40{display:inline;fill:#CF0A0A;}
	.st41{display:inline;fill:none;stroke:#BA0000;stroke-miterlimit:10;}
	.st42{clip-path:url(#SVGID_00000129909940967581247400000010563519329851435672_);fill:#FFFFFF;}
	.st43{display:inline;clip-path:url(#SVGID_00000003100368098914646600000016216111232187842239_);fill:#0073BA;}
	.st44{display:inline;clip-path:url(#SVGID_00000003100368098914646600000016216111232187842239_);fill:#97C3E6;}
	.st45{display:inline;clip-path:url(#SVGID_00000023243472874109435520000011515346503662478488_);fill:#97C2E5;}
	.st46{display:inline;clip-path:url(#SVGID_00000023243472874109435520000011515346503662478488_);fill:#FFFFFF;}
	.st47{display:inline;filter:url(#Adobe_OpacityMaskFilter_00000103947068559517625260000012021179717086327221_);}
	
		.st48{clip-path:url(#SVGID_00000023243472874109435520000011515346503662478488_);fill:url(#SVGID_00000147914346264224099540000010913693401756607889_);}
	
		.st49{display:inline;clip-path:url(#SVGID_00000023243472874109435520000011515346503662478488_);mask:url(#SVGID_00000103946609327124194110000006452056916019683998_);}
	.st50{clip-path:url(#SVGID_00000080893881536432083200000015506488422783669121_);fill:#FFFFFF;}
	.st51{display:inline;clip-path:url(#SVGID_00000023243472874109435520000011515346503662478488_);fill:#0073BA;}
	.st52{display:inline;clip-path:url(#SVGID_00000023243472874109435520000011515346503662478488_);fill:#97C3E6;}
	
		.st53{display:inline;clip-path:url(#SVGID_00000023243472874109435520000011515346503662478488_);fill:none;stroke:#97C3E6;stroke-width:0.573;stroke-linecap:round;stroke-miterlimit:10;}
	
		.st54{clip-path:url(#SVGID_00000131336284471883735770000011257435983084577440_);fill:none;stroke:#98C3E4;stroke-width:2;stroke-miterlimit:10;}
	.st55{clip-path:url(#SVGID_00000131336284471883735770000011257435983084577440_);fill:#98C3E4;}
	.st56{clip-path:url(#SVGID_00000131336284471883735770000011257435983084577440_);fill:#FFFFFF;}
	
		.st57{clip-path:url(#SVGID_00000131336284471883735770000011257435983084577440_);fill:none;stroke:#0073BA;stroke-width:2;stroke-miterlimit:10;}
	
		.st58{clip-path:url(#SVGID_00000131336284471883735770000011257435983084577440_);fill:none;stroke:#0073BA;stroke-width:1.683;stroke-miterlimit:10;}
	
		.st59{clip-path:url(#SVGID_00000131336284471883735770000011257435983084577440_);fill:none;stroke:#98C3E4;stroke-width:1.683;stroke-miterlimit:10;}
	.st60{display:inline;fill:none;stroke:#0073BA;stroke-width:1.683;stroke-miterlimit:10;}
	.st61{fill:#006396;}
	.st62{filter:url(#Adobe_OpacityMaskFilter_00000080892222059938588880000013755895430259965627_);}
	
		.st63{clip-path:url(#SVGID_00000080910610315693503470000005293709722678023597_);fill:url(#SVGID_00000101785851461227215340000003145740405680779439_);}
	
		.st64{clip-path:url(#SVGID_00000080910610315693503470000005293709722678023597_);mask:url(#SVGID_00000031886138172665615030000003811979376474147977_);}
	
		.st65{clip-path:url(#SVGID_00000044877716410986808380000016428288881629209739_);fill:none;stroke:#006396;stroke-width:0.771;stroke-linecap:round;}
	.st66{display:inline;fill:url(#SVGID_00000019658387337991169980000015450773096597171873_);}
	
		.st67{clip-path:url(#SVGID_00000125571135825874225370000003821021439980172934_);fill:none;stroke:#99C3E2;stroke-width:1.683;stroke-miterlimit:10;}
	
		.st68{clip-path:url(#SVGID_00000125571135825874225370000003821021439980172934_);fill:none;stroke:#0073BA;stroke-width:2;stroke-miterlimit:10;}
	
		.st69{clip-path:url(#SVGID_00000125571135825874225370000003821021439980172934_);fill:none;stroke:#0073BA;stroke-width:1.683;stroke-miterlimit:10;}
	.st70{clip-path:url(#SVGID_00000058576755913404303420000004185495798861398713_);fill:#FFFFFF;}
	
		.st71{clip-path:url(#SVGID_00000058576755913404303420000004185495798861398713_);fill:none;stroke:#0073BA;stroke-width:2;stroke-miterlimit:10;}
	
		.st72{clip-path:url(#SVGID_00000058576755913404303420000004185495798861398713_);fill:none;stroke:#98C3E4;stroke-width:1.683;stroke-miterlimit:10;}
	.st73{clip-path:url(#SVGID_00000052095783152575886940000009594554064943320716_);fill:#98C3E4;}
	
		.st74{clip-path:url(#SVGID_00000052095783152575886940000009594554064943320716_);fill:none;stroke:#98C3E3;stroke-width:0.75;stroke-linejoin:round;stroke-miterlimit:10;}
	.st75{clip-path:url(#SVGID_00000148640894635534333540000014736024342372994983_);fill:#0073BA;}
	.st76{clip-path:url(#SVGID_00000148640894635534333540000014736024342372994983_);fill:none;}
	.st77{display:inline;fill:#98C3E4;}
	.st78{display:inline;clip-path:url(#SVGID_00000095321986310365800950000010149373473155058876_);fill:#0073BA;}
	.st79{display:inline;clip-path:url(#SVGID_00000095321986310365800950000010149373473155058876_);fill:#97C3E6;}
	
		.st80{display:inline;clip-path:url(#SVGID_00000095321986310365800950000010149373473155058876_);fill:none;stroke:#97C3E6;stroke-width:1.147;stroke-linecap:round;stroke-miterlimit:10;}
	.st81{display:inline;clip-path:url(#SVGID_00000005227152984456263500000006734702938907183291_);fill:#0073BA;}
	.st82{display:none;fill:#0073BA;}
	.st83{display:inline;clip-path:url(#SVGID_00000139262122067092553460000012135958237184228531_);fill:#97C3E6;}
	.st84{display:inline;clip-path:url(#SVGID_00000022558914337378713980000005744468369055917451_);fill:#0073BA;}
	.st85{display:inline;clip-path:url(#SVGID_00000022558914337378713980000005744468369055917451_);fill:#98C3E4;}
	.st86{display:inline;filter:url(#Adobe_OpacityMaskFilter_00000149353366701101935720000007886065416238571156_);}
	
		.st87{clip-path:url(#SVGID_00000086679455138890486630000000589354847813335731_);fill:url(#SVGID_00000071561619844269203450000012094565737398400952_);}
	
		.st88{display:inline;clip-path:url(#SVGID_00000086679455138890486630000000589354847813335731_);mask:url(#SVGID_00000052099095542793836390000002764003991854211979_);}
	.st89{clip-path:url(#SVGID_00000016063655619818007780000014885873237984600986_);fill:#FFFFFF;}
	.st90{clip-path:url(#SVGID_00000016063655619818007780000014885873237984600986_);}
	.st91{clip-path:url(#SVGID_00000064315424224651434740000009423143171988846753_);fill:#0073BA;}
	.st92{display:inline;clip-path:url(#SVGID_00000086679455138890486630000000589354847813335731_);fill:#0073BA;}
	.st93{display:inline;clip-path:url(#SVGID_00000004537308328935866250000003710078184345148077_);fill:#FFFFFF;}
	.st94{display:inline;clip-path:url(#SVGID_00000004537308328935866250000003710078184345148077_);fill:#97C3E6;}
	.st95{display:none;fill:#D92B80;}
	.st96{display:inline;clip-path:url(#SVGID_00000083797878805109385510000011474759416556461714_);fill:#0073BA;}
	.st97{display:none;fill:#98C3E4;}
	.st98{display:inline;clip-path:url(#SVGID_00000161590262973826419160000001094076048392578447_);fill:#98C3E4;}
	.st99{display:inline;clip-path:url(#SVGID_00000161590262973826419160000001094076048392578447_);fill:#0073BA;}
	.st100{display:inline;clip-path:url(#SVGID_00000117668675424616759140000001531318348087292087_);fill:#98C3E4;}
	.st101{display:inline;clip-path:url(#SVGID_00000117668675424616759140000001531318348087292087_);fill:#0073BA;}
	.st102{display:inline;clip-path:url(#SVGID_00000117668675424616759140000001531318348087292087_);}
	.st103{clip-path:url(#SVGID_00000181776287275381081180000015099660437397578397_);fill:#0073BA;}
	.st104{display:inline;clip-path:url(#SVGID_00000023988195324415796260000006151570791830402945_);}
	.st105{clip-path:url(#SVGID_00000118386600127500246890000009932332330324798878_);}
	.st106{display:inline;clip-path:url(#SVGID_00000095300352735312674530000001502849254655144115_);}
	.st107{clip-path:url(#SVGID_00000119826684571352404390000008288172433432463489_);}
	.st108{display:inline;clip-path:url(#SVGID_00000178196414420942492320000006780880564675925899_);}
	.st109{clip-path:url(#SVGID_00000026143871909885907770000009318905035910658958_);}
	.st110{display:inline;clip-path:url(#SVGID_00000174571958978979372240000008581370353807382405_);fill:#D92B80;}
	.st111{display:inline;clip-path:url(#SVGID_00000174571958978979372240000008581370353807382405_);fill:#0073BA;}
	
		.st112{display:inline;clip-path:url(#SVGID_00000060714722299311524640000017053831842430860722_);fill:none;stroke:#FFFFFF;stroke-linejoin:bevel;stroke-miterlimit:10;}
	.st113{display:inline;clip-path:url(#SVGID_00000136374435874983720650000013974993294366324893_);fill:#0073BA;}
	.st114{display:inline;clip-path:url(#SVGID_00000054988521593701909780000011874148929231219644_);fill:#0073BA;}
	.st115{display:inline;clip-path:url(#SVGID_00000054988521593701909780000011874148929231219644_);fill:#96C2E5;}
	.st116{display:inline;clip-path:url(#SVGID_00000163032833862295828410000016329992094268923323_);fill:#96C2E5;}
	.st117{display:inline;clip-path:url(#SVGID_00000163032833862295828410000016329992094268923323_);fill:#0073BA;}
	.st118{display:inline;clip-path:url(#SVGID_00000052087901020260088270000014743164224823950473_);fill:#98C3E4;}
	.st119{display:inline;clip-path:url(#SVGID_00000052087901020260088270000014743164224823950473_);fill:#0073BA;}
	.st120{clip-path:url(#SVGID_00000114047166258212655230000003643461936597204097_);fill:#0073BA;}
	.st121{clip-path:url(#SVGID_00000114047166258212655230000003643461936597204097_);fill:#98C3E4;}
	
		.st122{display:inline;clip-path:url(#SVGID_00000114762000487804033680000002951806843119720609_);fill:none;stroke:#97C3E6;stroke-width:3;stroke-miterlimit:10;}
	.st123{display:inline;fill:#FFFFFF;}
	.st124{display:inline;clip-path:url(#SVGID_00000101074013416764215910000008787372879227228569_);fill:#0073BA;}
	.st125{display:inline;clip-path:url(#SVGID_00000101074013416764215910000008787372879227228569_);fill:#97C3E6;}
	.st126{display:inline;fill:#0073BA;}
	.st127{display:inline;fill:#97C3E6;}
	.st128{display:inline;clip-path:url(#SVGID_00000140722582500732370080000006001133045628960133_);fill:#CF0A0A;}
	.st129{display:inline;clip-path:url(#SVGID_00000140722582500732370080000006001133045628960133_);fill:#EDA6A6;}
	.st130{display:inline;clip-path:url(#SVGID_00000179612032886747002270000009806120774490803353_);fill:#0073BA;}
	.st131{display:inline;clip-path:url(#SVGID_00000179612032886747002270000009806120774490803353_);fill:#97C3E6;}
	.st132{display:inline;fill:none;stroke:#97C2E6;stroke-width:2.566;stroke-miterlimit:10;}
	.st133{display:inline;fill:#99C2E5;}
	.st134{display:inline;filter:url(#Adobe_OpacityMaskFilter_00000061443949081763929170000008917286130029377956_);}
	.st135{fill:url(#SVGID_00000054962071157113550640000016499343356640780933_);}
	.st136{display:inline;mask:url(#SVGID_00000057122132256755480510000011322337137774526124_);}
	.st137{clip-path:url(#SVGID_00000094618643946387532780000011214967685776969392_);fill:#FFFFFF;}
	.st138{display:inline;fill:none;}
	
		.st139{display:inline;clip-path:url(#SVGID_00000009564696687810597490000002323956620835892396_);fill:none;stroke:#97C3E6;stroke-width:2.566;stroke-miterlimit:10;}
	.st140{display:inline;clip-path:url(#SVGID_00000021819242817296987710000010031294104399892874_);fill:#0073BA;}
	.st141{display:inline;clip-path:url(#SVGID_00000021819242817296987710000010031294104399892874_);fill:#97C3E6;}
	.st142{filter:url(#Adobe_OpacityMaskFilter_00000039130653474823510760000004001671879691143810_);}
	
		.st143{clip-path:url(#SVGID_00000029727153003916441790000002758240817388278429_);fill:url(#SVGID_00000132065602130288045070000006375987958205679289_);}
	
		.st144{clip-path:url(#SVGID_00000029727153003916441790000002758240817388278429_);mask:url(#SVGID_00000085224196772703735070000005368171294866342549_);}
	.st145{clip-path:url(#SVGID_00000123436143236391526040000011952108501630374587_);fill:none;stroke:#FFFFFF;stroke-width:2;}
	.st146{clip-path:url(#SVGID_00000159454850930291822840000015005126250072680833_);fill:#FFFFFF;}
	.st147{clip-path:url(#SVGID_00000159454850930291822840000015005126250072680833_);fill:#283484;}
	.st148{filter:url(#Adobe_OpacityMaskFilter_00000080170671200872642720000000008093327299148167_);}
	
		.st149{clip-path:url(#SVGID_00000060013368109012893890000007100988920789401757_);fill:url(#SVGID_00000139283068085397828960000015236410906660595642_);}
	
		.st150{clip-path:url(#SVGID_00000060013368109012893890000007100988920789401757_);mask:url(#SVGID_00000181077555685016838340000003591561554929450382_);}
	.st151{clip-path:url(#SVGID_00000119806158147406117480000015584211492757445297_);fill:none;stroke:#FFFFFF;stroke-width:2;}
	.st152{clip-path:url(#SVGID_00000119838786765249461670000000494978087468030889_);fill:#FFFFFF;}
	.st153{clip-path:url(#SVGID_00000119838786765249461670000000494978087468030889_);fill:#283484;}
	.st154{clip-path:url(#SVGID_00000037691582251920507720000003939498198208138384_);fill:#0073BA;}
	.st155{filter:url(#Adobe_OpacityMaskFilter_00000134217534271468888640000007803129097028310668_);}
	
		.st156{clip-path:url(#SVGID_00000062153039833170475610000017754178612514321797_);fill:url(#SVGID_00000147918752879307939490000011232139150604086173_);}
	
		.st157{clip-path:url(#SVGID_00000062153039833170475610000017754178612514321797_);mask:url(#SVGID_00000092418935860929891330000002306379776323179652_);}
	.st158{clip-path:url(#SVGID_00000028283816940813349030000000667050777440678549_);fill:none;stroke:#FFFFFF;stroke-width:2;}
	.st159{clip-path:url(#SVGID_00000142873167642224133100000009981933323672097181_);fill:#FFFFFF;}
	.st160{clip-path:url(#SVGID_00000142873167642224133100000009981933323672097181_);fill:#283484;}
	.st161{clip-path:url(#SVGID_00000123436551542459859750000010294684190999033499_);fill:#99C3E2;}
	.st162{clip-path:url(#SVGID_00000123436551542459859750000010294684190999033499_);fill:#0073BA;}
	.st163{display:inline;fill:#99C3E2;}
	.st164{filter:url(#Adobe_OpacityMaskFilter_00000060727524932470868120000011601531860004281507_);}
	
		.st165{clip-path:url(#SVGID_00000096743055687242315110000004188286446275156618_);fill:url(#SVGID_00000163755216372796505960000003548410640216438937_);}
	
		.st166{clip-path:url(#SVGID_00000096743055687242315110000004188286446275156618_);mask:url(#SVGID_00000039841901999051685650000010960170096208783772_);}
	.st167{clip-path:url(#SVGID_00000025416805272006581560000013424355708636053393_);fill:#FFFFFF;}
	.st168{filter:url(#Adobe_OpacityMaskFilter_00000116198237479222676760000000011735122150673801_);}
	
		.st169{clip-path:url(#SVGID_00000096743055687242315110000004188286446275156618_);fill:url(#SVGID_00000067915547088294617790000016434357140635464093_);}
	
		.st170{clip-path:url(#SVGID_00000096743055687242315110000004188286446275156618_);mask:url(#SVGID_00000091710258218267625450000017263484782205987261_);}
	.st171{clip-path:url(#SVGID_00000172400329877670297350000014991107153486451367_);fill:#FFFFFF;}
	.st172{clip-path:url(#SVGID_00000096743055687242315110000004188286446275156618_);fill:#99C3E2;}
	.st173{clip-path:url(#SVGID_00000096743055687242315110000004188286446275156618_);fill:#0073BA;}
	.st174{display:inline;clip-path:url(#SVGID_00000074416895933878061180000005989960207521454267_);fill:#99C3E2;}
	.st175{display:inline;clip-path:url(#SVGID_00000074416895933878061180000005989960207521454267_);fill:#0073BA;}
	.st176{display:inline;clip-path:url(#SVGID_00000074416895933878061180000005989960207521454267_);fill:#079F4B;}
	
		.st177{display:inline;clip-path:url(#SVGID_00000074416895933878061180000005989960207521454267_);fill:none;stroke:#069E4B;stroke-miterlimit:10;}
	.st178{display:inline;filter:url(#Adobe_OpacityMaskFilter_00000011008893809601642580000006329635526521084087_);}
	
		.st179{clip-path:url(#SVGID_00000074416895933878061180000005989960207521454267_);fill:url(#SVGID_00000031182530762902182410000013780914721324742801_);}
	
		.st180{display:inline;clip-path:url(#SVGID_00000074416895933878061180000005989960207521454267_);mask:url(#SVGID_00000039816762056804303900000012700523615652645263_);}
	
		.st181{clip-path:url(#SVGID_00000064317270342653851100000007163974685335638443_);fill:none;stroke:#079F4B;stroke-width:2.5;stroke-linecap:round;stroke-linejoin:round;stroke-miterlimit:10;}
	.st182{display:inline;clip-path:url(#SVGID_00000155852922584365614260000007656052181784268928_);fill:#99C3E2;}
	.st183{display:inline;clip-path:url(#SVGID_00000155852922584365614260000007656052181784268928_);fill:#0073BA;}
	.st184{display:inline;clip-path:url(#SVGID_00000155852922584365614260000007656052181784268928_);fill:#CF0A0A;}
	
		.st185{display:inline;clip-path:url(#SVGID_00000155852922584365614260000007656052181784268928_);fill:none;stroke:#CF0A0A;stroke-miterlimit:10;}
	.st186{display:inline;filter:url(#Adobe_OpacityMaskFilter_00000158716004569230559100000009643545134952200596_);}
	
		.st187{clip-path:url(#SVGID_00000155852922584365614260000007656052181784268928_);fill:url(#SVGID_00000143579902241937756520000007169742420644107921_);}
	
		.st188{display:inline;clip-path:url(#SVGID_00000155852922584365614260000007656052181784268928_);mask:url(#SVGID_00000176028513241894640720000000312204058396033452_);}
	
		.st189{clip-path:url(#SVGID_00000067919155215096105680000009533578826135361427_);fill:none;stroke:#CF0A0A;stroke-width:2.5;stroke-linecap:round;stroke-linejoin:round;stroke-miterlimit:10;}
	.st190{display:inline;clip-path:url(#SVGID_00000008112880038057157560000017094447538154450837_);fill:#9BC3E0;}
	.st191{fill:#777777;}
	.st192{display:inline;fill:#DCDDDE;}
	.st193{clip-path:url(#SVGID_00000087374241671254139900000012004164845555441584_);fill:#DCDDDE;}
	.st194{display:inline;clip-path:url(#SVGID_00000160889915943879410440000012120211884188093572_);fill:#FF911C;}
	.st195{display:inline;filter:url(#Adobe_OpacityMaskFilter_00000061454683827303297690000010503326408910607516_);}
	
		.st196{clip-path:url(#SVGID_00000160889915943879410440000012120211884188093572_);fill:url(#SVGID_00000155852870651722838830000008928214482926909352_);}
	
		.st197{display:inline;clip-path:url(#SVGID_00000160889915943879410440000012120211884188093572_);mask:url(#SVGID_00000040533931967497266730000006366304647465490852_);}
	
		.st198{clip-path:url(#SVGID_00000042732691291990397870000013209541170032893856_);fill:none;stroke:#FF911C;stroke-width:1.75;stroke-miterlimit:10;}
	.st199{display:inline;clip-path:url(#SVGID_00000182526393689083202650000016598723545976221840_);fill:#DCDDDE;}
	.st200{clip-path:url(#SVGID_00000068654313207786347180000006608613560622289595_);fill:#DCDDDE;}
	.st201{fill:#DCDDDE;}
</style>
<g id="Layer_1">
</g>
<g id="History_Icons">
</g>
<g id="History_Glance">
	<g id="Layer_5" class="st24">
	</g>
</g>
<g id="Pre-Approved_Buttons">
</g>
<g id="AutoScore_Modal">
</g>
<g id="Accident_Vehicle">
</g>
<g id="Accident_Icons">
	<g class="st24">
		<polygon class="st192" points="30.1,49.1 31.3,47.7 29.4,47.6 29.2,45.9 27.8,47 26.4,46 26.5,48 24.6,48.1 26,49.3 24.8,50.6 
			26.7,50.7 26.9,52.4 28.3,51.3 29.8,52.3 29.7,50.6 31.6,50.2 		"/>
		<polygon class="st192" points="28.3,45.9 14.8,43.2 27.4,48.6 25,61.7 30.4,49.5 44,52.1 31.2,46.6 32.1,38.4 		"/>
		<polygon class="st192" points="29.8,50.2 36.7,58 31.6,49 39.6,42.3 30.4,47.2 28.4,48.4 		"/>
		<g class="st25">
			<defs>
				<rect id="SVGID_00000119840452027239779030000013969199028497821359_" x="3.6" y="27" width="55" height="40.7"/>
			</defs>
			<clipPath id="SVGID_00000049932924537808003760000004439028969093078408_">
				<use xlink:href="#SVGID_00000119840452027239779030000013969199028497821359_"  style="overflow:visible;"/>
			</clipPath>
			<path style="clip-path:url(#SVGID_00000049932924537808003760000004439028969093078408_);fill:#DCDDDE;" d="M15.3,49.8
				c0,1.6-1.3,3-3,3c-1.7,0-3-1.3-3-3c0-1.6,1.3-3,3-3C13.9,46.9,15.3,48.2,15.3,49.8"/>
			<path style="clip-path:url(#SVGID_00000049932924537808003760000004439028969093078408_);fill:#DCDDDE;" d="M53,49.8
				c0,1.6-1.3,3-3,3s-3-1.3-3-3c0-1.6,1.3-3,3-3S53,48.2,53,49.8"/>
			<path style="clip-path:url(#SVGID_00000049932924537808003760000004439028969093078408_);fill:#DCDDDE;" d="M6.8,46.8
				c0-0.3,0.6-1.5,2.1-3.3c1.2-1.5,2.5-2.7,3-3c0.1,0,0.1-0.1,0.2-0.1c2,0.4,6.2,0.8,15.2,0.8c1.2,0,2.5,0,3.8,0
				c11.7,0.1,16.8-0.3,19-0.8c0.1,0,0.1,0.1,0.2,0.1c1.4,0.8,5,5.1,5.2,6.2c0.2,2.5,0.5,11,0.1,13.4c-1.4,0.1-4.9,0-7.8-0.2
				c0,0-0.1,0-0.1,0h-0.4c0,0,0,0,0,0c0-0.8-0.7-1.5-1.5-1.5h0c-11.1,0-28,0.1-29.2,0c-0.7-0.1-1.4,0.3-1.6,1
				c-0.1,0.2-0.1,0.3-0.1,0.5h-0.4c0,0-0.1,0-0.1,0c-2.9,0.2-6.4,0.3-7.8,0.2C6.3,57.9,6.6,49.3,6.8,46.8 M16.6,31.4
				c0.7-0.6,5.9-1.6,14.6-1.6h0.2c8.7,0,13.6,0.9,14.3,1.6c0.5,0.6,2.3,3.9,3.3,6.5c-1.9,0.3-6.5,0.7-17.9,0.6h0
				c-11.4,0.1-16-0.3-17.9-0.6C14.3,35.2,16,31.9,16.6,31.4 M58.6,54.5c0-3.4-0.2-6.9-0.3-7.9c-0.2-2-3.1-5.5-5.2-7.4l2.4,0h0
				c0.8,0,1.4-0.6,1.4-1.4c0-0.8-0.6-1.4-1.4-1.4l-3.4-0.1c0,0,0,0,0,0c-0.2,0-0.4,0.1-0.6,0.1c-1.1-2.8-2.9-6.2-3.8-7.2
				c-0.6-0.6-1.9-1.4-6.5-1.9C38.5,27.2,35,27,31.4,27c-0.1,0-0.2,0-0.3,0c-4.2,0-14.3,0.3-16.5,2.4c-0.9,0.9-2.7,4.4-3.8,7.2
				c-0.2-0.1-0.4-0.1-0.6-0.1l-3.4,0h0c-0.8,0-1.4,0.6-1.4,1.4c0,0.8,0.6,1.4,1.4,1.4l2.5,0C7.1,41,4.1,44.6,4,46.6
				c-0.1,1-0.2,4.6-0.3,7.9c0,1.9,0,3.5,0.1,4.7c0.1,2.1,0.4,2.9,1,3.4c0.2,0.1,0.4,0.3,1.3,0.4v3.3c0,0.8,0.6,1.4,1.4,1.4h6.2
				c0.8,0,1.4-0.6,1.4-1.4v-3.4h32.1v3.4c0,0.8,0.6,1.4,1.4,1.4h6.2c0.8,0,1.4-0.6,1.4-1.4V63c0.9-0.1,1.1-0.3,1.3-0.4
				C58.3,62.1,58.7,61.5,58.6,54.5"/>
		</g>
	</g>
	<g class="st24">
		<defs>
			<rect id="SVGID_00000180334172413328489160000002482177103306535055_" x="3.4" y="1.3" width="55.6" height="66.3"/>
		</defs>
		<clipPath id="SVGID_00000016055849581276667580000001543713681363074969_" class="st25">
			<use xlink:href="#SVGID_00000180334172413328489160000002482177103306535055_"  style="overflow:visible;"/>
		</clipPath>
		<path style="display:inline;clip-path:url(#SVGID_00000016055849581276667580000001543713681363074969_);fill:#FF911C;" d="
			M41.3,54.7H21c-0.8,0-1.4-0.6-1.4-1.4V52c0-0.8,0.6-1.4,1.4-1.4h20.3c0.8,0,1.4,0.6,1.4,1.4v1.2C42.7,54,42.1,54.7,41.3,54.7"/>
		<path style="display:inline;clip-path:url(#SVGID_00000016055849581276667580000001543713681363074969_);fill:#FF911C;" d="
			M15.1,49.2c0,1.7-1.4,3.1-3,3.1c-1.7,0-3-1.4-3-3.1c0-1.7,1.4-3.1,3-3.1C13.7,46.2,15.1,47.5,15.1,49.2"/>
		<path style="display:inline;clip-path:url(#SVGID_00000016055849581276667580000001543713681363074969_);fill:#FF911C;" d="
			M53.3,49.2c0,1.7-1.4,3.1-3,3.1c-1.7,0-3-1.4-3-3.1c0-1.7,1.4-3.1,3-3.1C51.9,46.2,53.3,47.5,53.3,49.2"/>
		<path style="display:inline;clip-path:url(#SVGID_00000016055849581276667580000001543713681363074969_);fill:#FF911C;" d="
			M55.9,60c-1.4,0.1-4.9,0-7.9-0.2c0,0-0.1,0-0.1,0h-0.4c0,0,0,0,0,0c0-0.8-0.7-1.5-1.5-1.5h0c-11.2,0-28.2,0.1-29.5,0
			c-0.7-0.1-1.4,0.3-1.6,1c-0.1,0.2-0.1,0.3-0.1,0.5h-0.4c0,0-0.1,0-0.1,0C11.3,60,7.8,60.1,6.4,60C6,57.5,6.3,48.7,6.5,46.1
			c0-0.3,0.6-1.6,2.1-3.4c1.3-1.5,2.6-2.8,3.1-3.1c0.1,0,0.1-0.1,0.2-0.1c2,0.4,6.2,0.8,15.4,0.8c1.2,0,2.5,0,3.8,0
			C43,40.4,48.1,40,50.4,39.5c0.1,0,0.1,0.1,0.2,0.1c1.4,0.8,5.1,5.2,5.2,6.5C56,48.7,56.2,57.5,55.9,60 M58.9,54.1
			c0-3.5-0.2-7.2-0.3-8.2c-0.2-2-3.2-5.7-5.3-7.6l2.5,0c0,0,0,0,0,0c0.8,0,1.4-0.6,1.4-1.4c0-0.8-0.6-1.5-1.4-1.5l-3.5-0.1
			c0,0,0,0,0,0c-0.2,0-0.4,0.1-0.6,0.1c-1.2-2.9-2.9-6.5-3.9-7.4c-0.5-0.5-1.6-1.2-5-1.8c-0.9,1-2,1.8-3.1,2.5
			c3.5,0.3,5.6,0.9,6.1,1.3c0.6,0.6,2.3,4,3.3,6.7c-1.9,0.3-6.6,0.7-18,0.6h0c-11.5,0.1-16.2-0.3-18.1-0.6c1.1-2.7,2.8-6.1,3.3-6.7
			c0.5-0.4,3.1-1,7.4-1.4c-1.2-0.7-2.2-1.6-3.1-2.6c-2.9,0.4-5.3,1-6.3,1.9c-0.9,0.9-2.7,4.5-3.9,7.4c-0.2-0.1-0.4-0.1-0.6-0.1
			l-3.5,0h0C5.6,35.3,5,36,5,36.8c0,0.8,0.6,1.4,1.4,1.5l2.5,0c-2.1,1.9-5.1,5.6-5.3,7.6c-0.1,1-0.3,4.7-0.3,8.2c0,2,0,3.7,0.1,4.9
			c0.1,2.2,0.4,3,1.1,3.5c0.2,0.1,0.4,0.3,1.3,0.4v3.4c0,0.8,0.6,1.4,1.4,1.4h6.3c0.8,0,1.4-0.6,1.4-1.4v-3.5h32.4v3.5
			c0,0.8,0.6,1.4,1.4,1.4h6.3c0.8,0,1.4-0.6,1.4-1.4v-3.4c0.9-0.1,1.1-0.3,1.3-0.4C58.6,61.9,59,61.2,58.9,54.1"/>
		<defs>
			<filter id="Adobe_OpacityMaskFilter" filterUnits="userSpaceOnUse" x="8.7" y="-5.7" width="46.5" height="36.4">
				<feFlood  style="flood-color:white;flood-opacity:1" result="back"/>
				<feBlend  in="SourceGraphic" in2="back" mode="normal"/>
			</filter>
		</defs>
		
			<mask maskUnits="userSpaceOnUse" x="8.7" y="-5.7" width="46.5" height="36.4" id="SVGID_00000017498910404978288080000013992985601571782330_" class="st25">
			<g class="st6">
				
					<linearGradient id="SVGID_00000179633057699124527300000008934223109607482006_" gradientUnits="userSpaceOnUse" x1="-3222.2078" y1="935.1312" x2="-3221.2078" y2="935.1312" gradientTransform="matrix(46.4683 0 0 -46.4683 149739.2188 43488.4609)">
					<stop  offset="0" style="stop-color:#FFFFFF"/>
					<stop  offset="1" style="stop-color:#FFFFFF"/>
				</linearGradient>
				
					<rect x="3.4" y="1.3" style="clip-path:url(#SVGID_00000016055849581276667580000001543713681363074969_);fill:url(#SVGID_00000179633057699124527300000008934223109607482006_);" width="55.6" height="66.3"/>
			</g>
		</mask>
		
			<g style="display:inline;clip-path:url(#SVGID_00000016055849581276667580000001543713681363074969_);mask:url(#SVGID_00000017498910404978288080000013992985601571782330_);">
			<g>
				<defs>
					<rect id="SVGID_00000169544747462671670430000017807017514600736927_" x="8.7" y="-5.7" width="46.5" height="36.4"/>
				</defs>
				<clipPath id="SVGID_00000052798409154810439530000006999311421980232322_">
					<use xlink:href="#SVGID_00000169544747462671670430000017807017514600736927_"  style="overflow:visible;"/>
				</clipPath>
				
					<ellipse style="clip-path:url(#SVGID_00000052798409154810439530000006999311421980232322_);fill:none;stroke:#FF911C;stroke-width:1.75;stroke-miterlimit:10;" cx="31.9" cy="15.5" rx="13.4" ry="13.3"/>
			</g>
		</g>
		<path style="display:inline;clip-path:url(#SVGID_00000016055849581276667580000001543713681363074969_);fill:#FF911C;" d="
			M31.9,19.5c0.6,0,1.1-0.5,1.1-1.2l1.1-10.4c0-1.3-1-2.3-2.2-2.3c-1.2,0-2.2,1-2.2,2.3l1.1,10.4C30.8,19,31.3,19.5,31.9,19.5
			 M31.9,21.5c-1.2,0-2.2,0.9-2.2,2c0,1.1,1,2,2.2,2c1.2,0,2.2-0.9,2.2-2C34.1,22.4,33.1,21.5,31.9,21.5"/>
	</g>
	<g class="st24">
		<defs>
			<rect id="SVGID_00000072251858341524625900000000598917553520696964_" x="6.7" y="7.5" width="52.8" height="60.2"/>
		</defs>
		<clipPath id="SVGID_00000141440655740163487670000000632087476676195773_" class="st25">
			<use xlink:href="#SVGID_00000072251858341524625900000000598917553520696964_"  style="overflow:visible;"/>
		</clipPath>
		<path style="display:inline;clip-path:url(#SVGID_00000141440655740163487670000000632087476676195773_);fill:#DCDDDE;" d="
			M7.4,22.3l5.5,3.6c0.7-1,1.5-1.8,2.4-2.4l-6.1-4C8.5,19,7.4,19.2,6.9,20C6.4,20.8,6.6,21.8,7.4,22.3z"/>
		<path style="display:inline;clip-path:url(#SVGID_00000141440655740163487670000000632087476676195773_);fill:#DCDDDE;" d="
			M12,30.6c-0.7,7.1-0.1,11.6,2.4,18.6c0,0.1,0.1,0.2,0.1,0.3l9.2-13c-4.4-2.5-6.8-4.8-7.2-5.3c-1.3-1.3-1.3-3.5,0.1-4.8
			c0.6-0.6,1.5-1,2.3-1c0.9,0,1.8,0.4,2.4,1c0,0,0,0,0,0c0,0,0.1,0.1,0.2,0.2c0.2,0.2,0.4,0.4,0.8,0.7c0.4,0.3,0.9,0.7,1.6,1.2
			c-0.4-3-2.3-5.7-4.9-5.7C16.2,23,12.5,25.5,12,30.6z"/>
		<path style="display:inline;clip-path:url(#SVGID_00000141440655740163487670000000632087476676195773_);fill:#DCDDDE;" d="
			M21.4,53.6h15.5L46.1,66c0.8,1.1,2.1,1.7,3.4,1.7c0.9,0,1.8-0.3,2.5-0.8c1.9-1.4,2.2-4,0.9-5.9l-10.4-14c-0.8-1.1-2-1.7-3.4-1.7
			H25.7c-0.4-1.4-0.6-2.8-0.8-4.2l-8.1,11.4C18.2,53.6,19.8,53.8,21.4,53.6z"/>
		<path style="display:inline;clip-path:url(#SVGID_00000141440655740163487670000000632087476676195773_);fill:#DCDDDE;" d="
			M26.9,22.6c-0.8,1.9-1.3,4-1.3,6.3c0,0.3,0,0.6,0,0.9c0.1,0.1,0.3,0.2,0.4,0.3c3,1.8,7.9,4.3,14.7,5.6c0.9,0.2,1.6,0.7,2.1,1.4
			c0.5,0.7,0.7,1.6,0.5,2.5c-0.3,1.6-1.7,2.7-3.3,2.7c-0.2,0-0.4,0-0.7-0.1c-3.7-0.7-7-1.8-9.8-2.9c2.9,3.2,7.1,5.2,11.7,5.2
			c2.8,0,6.5-1.6,8.8-2.8c6.2-3.1,8-4.4,8.9-8.3c1-4.6,0.4-8.7-4.5-13.1c-3.8-3.4-7.7-7.2-13.2-7.2c-3.6,0-6.9,1.2-9.6,3.3
			c0,0.2-0.1,0.3-0.1,0.5C31,19.5,29.2,21.6,26.9,22.6z"/>
		<path style="display:inline;clip-path:url(#SVGID_00000141440655740163487670000000632087476676195773_);fill:#DCDDDE;" d="
			M14.6,49.6c0,0-0.6,0.8-0.6,0.8L9.2,57c-0.5,0.8-0.4,1.8,0.4,2.4c0.3,0.2,0.6,0.3,1,0.3c0.5,0,1-0.2,1.4-0.7l4.4-6.1l0.4-0.5
			C15.8,51.8,15,51,14.6,49.6"/>
		<path style="display:inline;clip-path:url(#SVGID_00000141440655740163487670000000632087476676195773_);fill:#DCDDDE;" d="
			M25.3,7.7c4.1,0.9,6.6,5,5.7,9.1c-0.9,4.1-5,6.6-9.1,5.7c-4.1-1-6.6-5-5.7-9.1C17.2,9.3,21.3,6.7,25.3,7.7"/>
		<path style="display:inline;clip-path:url(#SVGID_00000141440655740163487670000000632087476676195773_);fill:#DCDDDE;" d="M22,28
			c-0.4-0.3-0.7-0.6-0.9-0.8c-0.1-0.1-0.2-0.1-0.2-0.2c0,0,0,0,0,0c-1-1.1-2.7-1.1-3.8-0.1c-1.1,1-1.1,2.7-0.1,3.8
			c0.2,0.2,7.7,7.9,22.5,10.8c0.2,0,0.3,0.1,0.5,0.1c1.3,0,2.4-0.9,2.6-2.2c0.3-1.5-0.7-2.9-2.1-3.2C33.9,35,29,32.6,25.7,30.6
			C24,29.6,22.8,28.7,22,28z"/>
	</g>
	<g>
		<g>
			<defs>
				<rect id="SVGID_00000072970310372602147630000018021065634699227317_" x="5.7" y="19.1" width="50.9" height="48.5"/>
			</defs>
			<clipPath id="SVGID_00000056390582932941399090000015659507091427644847_">
				<use xlink:href="#SVGID_00000072970310372602147630000018021065634699227317_"  style="overflow:visible;"/>
			</clipPath>
			<path style="clip-path:url(#SVGID_00000056390582932941399090000015659507091427644847_);fill:#DCDDDE;" d="M26.3,35.5l13.7,11.1
				c0.5,0.4,0.6,1.2,0.2,1.7l-0.7,0.8c-0.4,0.5-1.2,0.6-1.7,0.2L24.1,38.2c-0.5-0.4-0.6-1.2-0.2-1.7l0.7-0.8
				C25,35.1,25.7,35,26.3,35.5"/>
			<path style="clip-path:url(#SVGID_00000056390582932941399090000015659507091427644847_);fill:#DCDDDE;" d="M41,53.4
				c0.9-1.1,2.5-1.3,3.7-0.4s1.3,2.6,0.4,3.7c-0.9,1.1-2.5,1.3-3.7,0.4C40.3,56.1,40.1,54.5,41,53.4"/>
			<path style="clip-path:url(#SVGID_00000056390582932941399090000015659507091427644847_);fill:#DCDDDE;" d="M15.3,32.5
				c0.9-1.1,2.5-1.3,3.7-0.4c1.1,0.9,1.3,2.6,0.4,3.7c-0.9,1.1-2.5,1.3-3.7,0.4C14.6,35.3,14.4,33.6,15.3,32.5"/>
			<path style="clip-path:url(#SVGID_00000056390582932941399090000015659507091427644847_);fill:#DCDDDE;" d="M45.1,60.1
				c-0.2,0.2-1.3,0.7-3.2,1.1c-1.7,0.3-3.2,0.4-3.7,0.3c-0.1,0-0.1,0-0.2,0c-1.1-1.4-3.8-4-9.9-8.9c-0.8-0.7-1.7-1.3-2.6-2.1
				c-7.9-6.5-11.6-9-13.4-10c0-0.1,0-0.1-0.1-0.2c-0.5-1.3-0.6-6.2-0.1-7.1c1.2-1.8,5.8-7.8,7.3-9.2c1,0.7,3.3,2.7,5.2,4.4
				c0,0,0,0,0.1,0.1l0.3,0.2c0,0,0,0,0,0c-0.4,0.6-0.4,1.4,0.2,1.8c0,0,0,0,0,0c7.6,6.1,19.1,15.4,19.9,16.1
				c0.4,0.4,1.1,0.5,1.6,0.2c0.1-0.1,0.2-0.2,0.3-0.3l0.3,0.2c0,0,0,0,0.1,0.1c2.1,1.5,4.5,3.3,5.4,4.1
				C51.5,52.8,46.6,58.5,45.1,60.1 M29.9,65.2c-0.9,0-4.9-2.2-10.8-7c-0.1,0-0.1-0.1-0.2-0.1c-5.9-4.8-8.7-8.1-8.9-9
				c-0.1-0.7,0.6-3.9,1.3-6.2c1.4,0.8,4.8,3.1,12.5,9.4c0,0,0,0,0,0c7.8,6.2,10.7,9,11.9,10.3C33.6,63.8,30.6,65.1,29.9,65.2
				 M14,26.2c-1.8,2.3-3.7,4.8-4.2,5.6c-1,1.4-0.9,5.5-0.5,7.9l-1.6-1.4c0,0,0,0,0,0c-0.5-0.4-1.3-0.4-1.7,0.2
				c-0.4,0.5-0.4,1.3,0.2,1.7l2.3,1.9c0,0,0,0,0,0c0.2,0.1,0.3,0.2,0.5,0.2c-0.8,2.5-1.5,5.9-1.3,7c0.1,0.7,0.5,2,3.4,4.9
				c1.7,1.7,3.9,3.7,6.4,5.7c0.1,0.1,0.1,0.1,0.2,0.2c2.9,2.3,9.9,7.7,12.6,7.5c1.1-0.1,4.2-1.5,6.6-2.8c0.1,0.2,0.2,0.3,0.3,0.4
				l2.3,1.9c0,0,0,0,0,0c0.5,0.4,1.3,0.4,1.7-0.2c0.4-0.5,0.3-1.3-0.2-1.7L39.3,64c2.4-0.1,6.4-0.9,7.6-2.2c0.6-0.6,2.7-3,4.6-5.2
				c1.1-1.3,2-2.4,2.6-3.2c1.1-1.5,1.4-2.2,1.1-2.9c-0.1-0.2-0.1-0.4-0.7-1l1.8-2.2c0.4-0.5,0.3-1.3-0.2-1.7l-4.2-3.4
				c-0.5-0.4-1.3-0.4-1.7,0.2l-1.9,2.3L26.4,26.9l1.9-2.3c0.4-0.5,0.3-1.3-0.2-1.7l-4.2-3.4c-0.5-0.4-1.3-0.4-1.7,0.2l-1.8,2.2
				c-0.7-0.4-0.9-0.4-1.1-0.5C18.5,21.3,17.8,21.5,14,26.2"/>
		</g>
		<polygon class="st201" points="18.3,53.3 18.4,54.1 18.9,53.6 19.5,54 19.5,53.3 20.2,53.2 19.6,52.7 20.1,52.1 19.4,52.1 
			19.3,51.4 18.8,51.9 18.2,51.5 18.2,52.2 17.5,52.3 18,52.8 17.6,53.4 		"/>
		<polygon class="st201" points="19.7,53.8 24.2,50.8 19.2,52.7 16.1,48.2 18.1,53.3 13.6,56.4 18.7,54.4 20.8,57.1 		"/>
		<polygon class="st201" points="18.1,52.9 13.9,52.6 17.9,53.8 17.7,58 18.8,53.9 19,53 		"/>
	</g>
</g>
</svg>
