<?xml version="1.0" encoding="utf-8"?>
<!-- Generator: Adobe Illustrator 26.0.1, SVG Export Plug-In . SVG Version: 6.00 Build 0)  -->
<svg version="1.1" xmlns="http://www.w3.org/2000/svg" xmlns:xlink="http://www.w3.org/1999/xlink" x="0px" y="0px"
	 viewBox="0 0 62.3 67.7" style="enable-background:new 0 0 62.3 67.7;" xml:space="preserve">
<style type="text/css">
	.st0{clip-path:url(#SVGID_00000146465275674377677210000015070505423428498575_);fill:#0073BA;}
	.st1{fill:#FFFFFF;}
	.st2{opacity:0.25;}
	.st3{clip-path:url(#SVGID_00000093866066006458474480000014542302769225899446_);fill:#C7C7C7;}
	.st4{clip-path:url(#SVGID_00000070120025662764068510000007617170902077190019_);fill:none;stroke:#C7C7C7;stroke-miterlimit:10;}
	.st5{clip-path:url(#SVGID_00000010307868091175026140000005022574500118000271_);fill:#FFFFFF;}
	.st6{filter:url(#Adobe_OpacityMaskFilter);}
	.st7{clip-path:url(#SVGID_00000075860935081630411400000006594577532744503698_);}
	
		.st8{clip-path:url(#SVGID_00000026879035909872218260000017810539526076062370_);fill:url(#SVGID_00000123401994491959559400000007640102088069129905_);}
	
		.st9{clip-path:url(#SVGID_00000075860935081630411400000006594577532744503698_);mask:url(#SVGID_00000162330670409857195810000000369481333106144690_);}
	.st10{clip-path:url(#SVGID_00000179627955749965763420000015590299348125781420_);fill:#FFFFFF;}
	.st11{fill:none;}
	.st12{fill:#EAEAEA;}
	.st13{fill:url(#SVGID_00000066501942604363471160000004289774429406741399_);}
	.st14{fill:none;stroke:#006496;stroke-linecap:round;stroke-miterlimit:10;}
	.st15{fill:#006496;}
	.st16{fill:none;stroke:#00823B;stroke-width:2;stroke-miterlimit:10;}
	.st17{fill:#079F4B;}
	.st18{clip-path:url(#SVGID_00000005266772052525897700000007125255225945674402_);fill:#0B74BB;}
	.st19{clip-path:url(#SVGID_00000005266772052525897700000007125255225945674402_);fill:none;stroke:#005E94;stroke-miterlimit:10;}
	.st20{clip-path:url(#SVGID_00000005266772052525897700000007125255225945674402_);fill:#FFFFFF;}
	.st21{clip-path:url(#SVGID_00000085246618545862704680000013081808325234413215_);fill:#FF911C;}
	.st22{clip-path:url(#SVGID_00000085246618545862704680000013081808325234413215_);fill:#F57F0A;}
	.st23{clip-path:url(#SVGID_00000085246618545862704680000013081808325234413215_);fill:#FFFFFF;}
	.st24{display:none;}
	.st25{display:inline;}
	.st26{display:inline;clip-path:url(#SVGID_00000128482633279749976430000012771876114463081629_);fill:#CF0A0A;}
	.st27{display:inline;clip-path:url(#SVGID_00000128482633279749976430000012771876114463081629_);fill:#BA0000;}
	.st28{display:inline;clip-path:url(#SVGID_00000128482633279749976430000012771876114463081629_);fill:#FFFFFF;}
	.st29{clip-path:url(#SVGID_00000000925719927529538450000004477867808423935646_);fill:#FFFFFF;}
	.st30{fill:#666666;}
	.st31{display:inline;fill:#FF8F1C;}
	.st32{display:inline;fill:none;stroke:#F57F0A;stroke-miterlimit:10;}
	.st33{clip-path:url(#SVGID_00000085218107594809292990000002507860660217229446_);fill:#FFFFFF;}
	.st34{clip-path:url(#SVGID_00000158717131544479378430000014134826232363872430_);fill:#FFFFFF;}
	
		.st35{clip-path:url(#SVGID_00000158717131544479378430000014134826232363872430_);fill:none;stroke:#FFFFFF;stroke-width:0.573;stroke-linecap:round;stroke-miterlimit:10;}
	.st36{fill:#FF8F1C;}
	.st37{fill:none;stroke:#F57F0A;stroke-miterlimit:10;}
	.st38{clip-path:url(#SVGID_00000166659757127607143510000017055404827115538110_);fill:#FFFFFF;}
	.st39{clip-path:url(#SVGID_00000165945574407038955060000003706055350377965198_);fill:#FFFFFF;}
	.st40{display:inline;fill:#CF0A0A;}
	.st41{display:inline;fill:none;stroke:#BA0000;stroke-miterlimit:10;}
	.st42{clip-path:url(#SVGID_00000032633153661116293650000015082520839701319356_);fill:#FFFFFF;}
	.st43{display:inline;clip-path:url(#SVGID_00000099625998218288228030000017427706994754739369_);fill:#0073BA;}
	.st44{display:inline;clip-path:url(#SVGID_00000099625998218288228030000017427706994754739369_);fill:#97C3E6;}
	.st45{display:inline;clip-path:url(#SVGID_00000145736583359313939520000011186840124490028431_);fill:#97C2E5;}
	.st46{display:inline;clip-path:url(#SVGID_00000145736583359313939520000011186840124490028431_);fill:#FFFFFF;}
	.st47{display:inline;filter:url(#Adobe_OpacityMaskFilter_00000116945890474679231760000017387419323142115234_);}
	
		.st48{clip-path:url(#SVGID_00000145736583359313939520000011186840124490028431_);fill:url(#SVGID_00000091736913283876840110000014182792447334131077_);}
	
		.st49{display:inline;clip-path:url(#SVGID_00000145736583359313939520000011186840124490028431_);mask:url(#SVGID_00000051384988224970554930000001589153079735473282_);}
	.st50{clip-path:url(#SVGID_00000088833642439846698080000010631485194255036595_);fill:#FFFFFF;}
	.st51{display:inline;clip-path:url(#SVGID_00000145736583359313939520000011186840124490028431_);fill:#0073BA;}
	.st52{display:inline;clip-path:url(#SVGID_00000145736583359313939520000011186840124490028431_);fill:#97C3E6;}
	
		.st53{display:inline;clip-path:url(#SVGID_00000145736583359313939520000011186840124490028431_);fill:none;stroke:#97C3E6;stroke-width:0.573;stroke-linecap:round;stroke-miterlimit:10;}
	
		.st54{clip-path:url(#SVGID_00000023274014684050076210000012329450416611277490_);fill:none;stroke:#98C3E4;stroke-width:2;stroke-miterlimit:10;}
	.st55{clip-path:url(#SVGID_00000023274014684050076210000012329450416611277490_);fill:#98C3E4;}
	.st56{clip-path:url(#SVGID_00000023274014684050076210000012329450416611277490_);fill:#FFFFFF;}
	
		.st57{clip-path:url(#SVGID_00000023274014684050076210000012329450416611277490_);fill:none;stroke:#0073BA;stroke-width:2;stroke-miterlimit:10;}
	
		.st58{clip-path:url(#SVGID_00000023274014684050076210000012329450416611277490_);fill:none;stroke:#0073BA;stroke-width:1.683;stroke-miterlimit:10;}
	
		.st59{clip-path:url(#SVGID_00000023274014684050076210000012329450416611277490_);fill:none;stroke:#98C3E4;stroke-width:1.683;stroke-miterlimit:10;}
	.st60{display:inline;fill:none;stroke:#0073BA;stroke-width:1.683;stroke-miterlimit:10;}
	.st61{fill:#006396;}
	.st62{filter:url(#Adobe_OpacityMaskFilter_00000007422990667599291670000017705379185867213488_);}
	
		.st63{clip-path:url(#SVGID_00000100340720320435302430000001431528563771914629_);fill:url(#SVGID_00000063617098996251954320000004102295520407520430_);}
	
		.st64{clip-path:url(#SVGID_00000100340720320435302430000001431528563771914629_);mask:url(#SVGID_00000023282713931632542760000016867805459128558759_);}
	
		.st65{clip-path:url(#SVGID_00000097500053767312982040000008141121620413429152_);fill:none;stroke:#006396;stroke-width:0.771;stroke-linecap:round;}
	.st66{display:inline;fill:url(#SVGID_00000039845067683068752650000013976738832585001134_);}
	
		.st67{clip-path:url(#SVGID_00000028320282384570154510000004950252327609549497_);fill:none;stroke:#99C3E2;stroke-width:1.683;stroke-miterlimit:10;}
	
		.st68{clip-path:url(#SVGID_00000028320282384570154510000004950252327609549497_);fill:none;stroke:#0073BA;stroke-width:2;stroke-miterlimit:10;}
	
		.st69{clip-path:url(#SVGID_00000028320282384570154510000004950252327609549497_);fill:none;stroke:#0073BA;stroke-width:1.683;stroke-miterlimit:10;}
	.st70{clip-path:url(#SVGID_00000150820141958834378890000004090458786753636769_);fill:#FFFFFF;}
	
		.st71{clip-path:url(#SVGID_00000150820141958834378890000004090458786753636769_);fill:none;stroke:#0073BA;stroke-width:2;stroke-miterlimit:10;}
	
		.st72{clip-path:url(#SVGID_00000150820141958834378890000004090458786753636769_);fill:none;stroke:#98C3E4;stroke-width:1.683;stroke-miterlimit:10;}
	.st73{clip-path:url(#SVGID_00000118397949245914460440000008973006428089151672_);fill:#98C3E4;}
	
		.st74{clip-path:url(#SVGID_00000118397949245914460440000008973006428089151672_);fill:none;stroke:#98C3E3;stroke-width:0.75;stroke-linejoin:round;stroke-miterlimit:10;}
	.st75{clip-path:url(#SVGID_00000109733338136880091850000007626859646329028260_);fill:#0073BA;}
	.st76{clip-path:url(#SVGID_00000109733338136880091850000007626859646329028260_);fill:none;}
	.st77{display:inline;fill:#98C3E4;}
	.st78{display:inline;clip-path:url(#SVGID_00000126308257805585656850000005413896888459893161_);fill:#0073BA;}
	.st79{display:inline;clip-path:url(#SVGID_00000126308257805585656850000005413896888459893161_);fill:#97C3E6;}
	
		.st80{display:inline;clip-path:url(#SVGID_00000126308257805585656850000005413896888459893161_);fill:none;stroke:#97C3E6;stroke-width:1.147;stroke-linecap:round;stroke-miterlimit:10;}
	.st81{display:inline;clip-path:url(#SVGID_00000124162328314542768240000014579821168141149832_);fill:#0073BA;}
	.st82{display:none;fill:#0073BA;}
	.st83{display:inline;clip-path:url(#SVGID_00000089535818130797341890000006258611276872747403_);fill:#97C3E6;}
	.st84{display:inline;clip-path:url(#SVGID_00000020391021804010082400000000601820166999929535_);fill:#0073BA;}
	.st85{display:inline;clip-path:url(#SVGID_00000020391021804010082400000000601820166999929535_);fill:#98C3E4;}
	.st86{display:inline;filter:url(#Adobe_OpacityMaskFilter_00000176755553955488900690000015823421306067054009_);}
	
		.st87{clip-path:url(#SVGID_00000175316487306431839370000012362307191606856363_);fill:url(#SVGID_00000021835065618657795960000016023579765573957009_);}
	
		.st88{display:inline;clip-path:url(#SVGID_00000175316487306431839370000012362307191606856363_);mask:url(#SVGID_00000015323619782855393550000005879871675281226913_);}
	.st89{clip-path:url(#SVGID_00000099640689927417493740000012884476023937128856_);fill:#FFFFFF;}
	.st90{clip-path:url(#SVGID_00000099640689927417493740000012884476023937128856_);}
	.st91{clip-path:url(#SVGID_00000023258366112608642320000009989267481693860275_);fill:#0073BA;}
	.st92{display:inline;clip-path:url(#SVGID_00000175316487306431839370000012362307191606856363_);fill:#0073BA;}
	.st93{display:inline;clip-path:url(#SVGID_00000085958045488558752420000014175039719203499412_);fill:#FFFFFF;}
	.st94{display:inline;clip-path:url(#SVGID_00000085958045488558752420000014175039719203499412_);fill:#97C3E6;}
	.st95{display:none;fill:#D92B80;}
	.st96{display:inline;clip-path:url(#SVGID_00000092428008416228625020000007344341113732103062_);fill:#0073BA;}
	.st97{display:none;fill:#98C3E4;}
	.st98{display:inline;clip-path:url(#SVGID_00000011009884215760141980000014236187242461553287_);fill:#98C3E4;}
	.st99{display:inline;clip-path:url(#SVGID_00000011009884215760141980000014236187242461553287_);fill:#0073BA;}
	.st100{display:inline;clip-path:url(#SVGID_00000139991487919323311940000008389899441114840502_);fill:#98C3E4;}
	.st101{display:inline;clip-path:url(#SVGID_00000139991487919323311940000008389899441114840502_);fill:#0073BA;}
	.st102{display:inline;clip-path:url(#SVGID_00000139991487919323311940000008389899441114840502_);}
	.st103{clip-path:url(#SVGID_00000086663842677555864370000005661376956448951978_);fill:#0073BA;}
	.st104{display:inline;clip-path:url(#SVGID_00000148636796361757519600000008880952623317130153_);}
	.st105{clip-path:url(#SVGID_00000174597493191956701830000000954163043227002507_);}
	.st106{display:inline;clip-path:url(#SVGID_00000025412381920184309950000001599886081680310961_);}
	.st107{clip-path:url(#SVGID_00000124123398184300096330000002390726089331520682_);}
	.st108{display:inline;clip-path:url(#SVGID_00000154416644679104290750000004049185253007971247_);}
	.st109{clip-path:url(#SVGID_00000052782643531001762380000009973232961688224898_);}
	.st110{display:inline;clip-path:url(#SVGID_00000133519818311165912350000002608624475414901137_);fill:#D92B80;}
	.st111{display:inline;clip-path:url(#SVGID_00000133519818311165912350000002608624475414901137_);fill:#0073BA;}
	
		.st112{display:inline;clip-path:url(#SVGID_00000028323071234838422970000017636416787449582245_);fill:none;stroke:#FFFFFF;stroke-linejoin:bevel;stroke-miterlimit:10;}
	.st113{display:inline;clip-path:url(#SVGID_00000080202805361431215040000013760680768934914989_);fill:#0073BA;}
	.st114{display:inline;clip-path:url(#SVGID_00000167372629921642529960000004168756808722199709_);fill:#0073BA;}
	.st115{display:inline;clip-path:url(#SVGID_00000167372629921642529960000004168756808722199709_);fill:#96C2E5;}
	.st116{display:inline;clip-path:url(#SVGID_00000108992312846234270770000003039277144246562445_);fill:#96C2E5;}
	.st117{display:inline;clip-path:url(#SVGID_00000108992312846234270770000003039277144246562445_);fill:#0073BA;}
	.st118{display:inline;clip-path:url(#SVGID_00000089532651658637461460000008570871266910613130_);fill:#98C3E4;}
	.st119{display:inline;clip-path:url(#SVGID_00000089532651658637461460000008570871266910613130_);fill:#0073BA;}
	.st120{clip-path:url(#SVGID_00000179614157238313095220000012642439705126708920_);fill:#0073BA;}
	.st121{clip-path:url(#SVGID_00000179614157238313095220000012642439705126708920_);fill:#98C3E4;}
	
		.st122{display:inline;clip-path:url(#SVGID_00000181059626424668252030000010536367963738924182_);fill:none;stroke:#97C3E6;stroke-width:3;stroke-miterlimit:10;}
	.st123{display:inline;fill:#FFFFFF;}
	.st124{display:inline;clip-path:url(#SVGID_00000007417611600855957180000007410910520644259717_);fill:#0073BA;}
	.st125{display:inline;clip-path:url(#SVGID_00000007417611600855957180000007410910520644259717_);fill:#97C3E6;}
	.st126{display:inline;fill:#0073BA;}
	.st127{display:inline;fill:#97C3E6;}
	.st128{display:inline;clip-path:url(#SVGID_00000106849537178419272910000007296205601847701929_);fill:#CF0A0A;}
	.st129{display:inline;clip-path:url(#SVGID_00000106849537178419272910000007296205601847701929_);fill:#EDA6A6;}
	.st130{display:inline;clip-path:url(#SVGID_00000000943486320235533500000005095992420306149001_);fill:#0073BA;}
	.st131{display:inline;clip-path:url(#SVGID_00000000943486320235533500000005095992420306149001_);fill:#97C3E6;}
	.st132{display:inline;fill:none;stroke:#97C2E6;stroke-width:2.566;stroke-miterlimit:10;}
	.st133{display:inline;fill:#99C2E5;}
	.st134{display:inline;filter:url(#Adobe_OpacityMaskFilter_00000039842619722813383620000009371662343537325493_);}
	.st135{fill:url(#SVGID_00000176021841425229898010000014511455615957870733_);}
	.st136{display:inline;mask:url(#SVGID_00000096771817332401405670000004927662521606574489_);}
	.st137{clip-path:url(#SVGID_00000157310052573043673580000014693848986265694138_);fill:#FFFFFF;}
	.st138{display:inline;fill:none;}
	
		.st139{display:inline;clip-path:url(#SVGID_00000013891809260021986550000003421128912657028780_);fill:none;stroke:#97C3E6;stroke-width:2.566;stroke-miterlimit:10;}
	.st140{display:inline;clip-path:url(#SVGID_00000055686386249281757690000011027425183508903860_);fill:#0073BA;}
	.st141{display:inline;clip-path:url(#SVGID_00000055686386249281757690000011027425183508903860_);fill:#97C3E6;}
	.st142{filter:url(#Adobe_OpacityMaskFilter_00000040545720614688100610000010257653097063648128_);}
	
		.st143{clip-path:url(#SVGID_00000051342330566123958070000001843712691640183193_);fill:url(#SVGID_00000039823421571224329500000017524903453075627392_);}
	
		.st144{clip-path:url(#SVGID_00000051342330566123958070000001843712691640183193_);mask:url(#SVGID_00000150067086271663571080000011185487075403573439_);}
	.st145{clip-path:url(#SVGID_00000071551450249269628430000006515879447386362294_);fill:none;stroke:#FFFFFF;stroke-width:2;}
	.st146{clip-path:url(#SVGID_00000120526946075224409550000009935201853267128711_);fill:#FFFFFF;}
	.st147{clip-path:url(#SVGID_00000120526946075224409550000009935201853267128711_);fill:#283484;}
	.st148{filter:url(#Adobe_OpacityMaskFilter_00000162333302648731864160000007881973332292372130_);}
	
		.st149{clip-path:url(#SVGID_00000139268430314507782950000009640696149348080781_);fill:url(#SVGID_00000125578940955124663890000012791760243951495588_);}
	
		.st150{clip-path:url(#SVGID_00000139268430314507782950000009640696149348080781_);mask:url(#SVGID_00000111904946229166329990000009037732033425738935_);}
	.st151{clip-path:url(#SVGID_00000096047246900184238270000001344047533520760199_);fill:none;stroke:#FFFFFF;stroke-width:2;}
	.st152{clip-path:url(#SVGID_00000144304089439260780380000007648353024001803154_);fill:#FFFFFF;}
	.st153{clip-path:url(#SVGID_00000144304089439260780380000007648353024001803154_);fill:#283484;}
	.st154{clip-path:url(#SVGID_00000097475064085948231040000009851836484854677936_);fill:#0073BA;}
	.st155{filter:url(#Adobe_OpacityMaskFilter_00000108304858004508072120000006315135876416538524_);}
	
		.st156{clip-path:url(#SVGID_00000106148992822460141590000000829598328557265845_);fill:url(#SVGID_00000173143998666403718870000006569171179995807889_);}
	
		.st157{clip-path:url(#SVGID_00000106148992822460141590000000829598328557265845_);mask:url(#SVGID_00000011710821595360126480000014990559967863951020_);}
	.st158{clip-path:url(#SVGID_00000031899012863469245050000007392293145088452009_);fill:none;stroke:#FFFFFF;stroke-width:2;}
	.st159{clip-path:url(#SVGID_00000121278260260220528560000017639014589279836067_);fill:#FFFFFF;}
	.st160{clip-path:url(#SVGID_00000121278260260220528560000017639014589279836067_);fill:#283484;}
	.st161{clip-path:url(#SVGID_00000002363892884798191240000017846201822612946359_);fill:#99C3E2;}
	.st162{clip-path:url(#SVGID_00000002363892884798191240000017846201822612946359_);fill:#0073BA;}
	.st163{display:inline;fill:#99C3E2;}
	.st164{filter:url(#Adobe_OpacityMaskFilter_00000169535257677186342000000012175927062820582534_);}
	
		.st165{clip-path:url(#SVGID_00000066478215603439357210000010163934398507903905_);fill:url(#SVGID_00000003092844264054064730000008872889165505947313_);}
	
		.st166{clip-path:url(#SVGID_00000066478215603439357210000010163934398507903905_);mask:url(#SVGID_00000042716052768800719940000012280916327652028570_);}
	.st167{clip-path:url(#SVGID_00000052071652252290761860000016704220750692988330_);fill:#FFFFFF;}
	.st168{filter:url(#Adobe_OpacityMaskFilter_00000068655412856656983730000008467930834005570186_);}
	
		.st169{clip-path:url(#SVGID_00000066478215603439357210000010163934398507903905_);fill:url(#SVGID_00000152951363663825355000000007625945158019914625_);}
	
		.st170{clip-path:url(#SVGID_00000066478215603439357210000010163934398507903905_);mask:url(#SVGID_00000027601973049878931000000017019430106912123812_);}
	.st171{clip-path:url(#SVGID_00000067218508912941223370000013898694786943148456_);fill:#FFFFFF;}
	.st172{clip-path:url(#SVGID_00000066478215603439357210000010163934398507903905_);fill:#99C3E2;}
	.st173{clip-path:url(#SVGID_00000066478215603439357210000010163934398507903905_);fill:#0073BA;}
	.st174{display:inline;clip-path:url(#SVGID_00000161609663570717133080000008892932225437349036_);fill:#99C3E2;}
	.st175{display:inline;clip-path:url(#SVGID_00000161609663570717133080000008892932225437349036_);fill:#0073BA;}
	.st176{display:inline;clip-path:url(#SVGID_00000161609663570717133080000008892932225437349036_);fill:#079F4B;}
	
		.st177{display:inline;clip-path:url(#SVGID_00000161609663570717133080000008892932225437349036_);fill:none;stroke:#069E4B;stroke-miterlimit:10;}
	.st178{display:inline;filter:url(#Adobe_OpacityMaskFilter_00000118359534183416996210000006949342686698720696_);}
	
		.st179{clip-path:url(#SVGID_00000161609663570717133080000008892932225437349036_);fill:url(#SVGID_00000150798186805507068080000012129273477468813233_);}
	
		.st180{display:inline;clip-path:url(#SVGID_00000161609663570717133080000008892932225437349036_);mask:url(#SVGID_00000157294829965268076460000014180517984842327975_);}
	
		.st181{clip-path:url(#SVGID_00000018938673961670908950000006817047563446645948_);fill:none;stroke:#079F4B;stroke-width:2.5;stroke-linecap:round;stroke-linejoin:round;stroke-miterlimit:10;}
	.st182{display:inline;clip-path:url(#SVGID_00000115484844041572376550000008692768530568465338_);fill:#99C3E2;}
	.st183{display:inline;clip-path:url(#SVGID_00000115484844041572376550000008692768530568465338_);fill:#0073BA;}
	.st184{display:inline;clip-path:url(#SVGID_00000115484844041572376550000008692768530568465338_);fill:#CF0A0A;}
	
		.st185{display:inline;clip-path:url(#SVGID_00000115484844041572376550000008692768530568465338_);fill:none;stroke:#CF0A0A;stroke-miterlimit:10;}
	.st186{display:inline;filter:url(#Adobe_OpacityMaskFilter_00000134251698988765716210000016935949010335530426_);}
	
		.st187{clip-path:url(#SVGID_00000115484844041572376550000008692768530568465338_);fill:url(#SVGID_00000072265045877642669750000010645560317324940190_);}
	
		.st188{display:inline;clip-path:url(#SVGID_00000115484844041572376550000008692768530568465338_);mask:url(#SVGID_00000003784884945844032510000015871093585785164934_);}
	
		.st189{clip-path:url(#SVGID_00000155855707006164163000000009420591335146753687_);fill:none;stroke:#CF0A0A;stroke-width:2.5;stroke-linecap:round;stroke-linejoin:round;stroke-miterlimit:10;}
	.st190{display:inline;clip-path:url(#SVGID_00000148638021932612587800000010892073270409658001_);fill:#9BC3E0;}
	.st191{fill:#777777;}
	.st192{display:inline;fill:#DCDDDE;}
	.st193{clip-path:url(#SVGID_00000040544866559587109300000012256545368109055137_);fill:#DCDDDE;}
	.st194{display:inline;clip-path:url(#SVGID_00000137092176680895113780000001636227033592486076_);fill:#FF911C;}
	.st195{clip-path:url(#SVGID_00000133509958357855106730000016332021983495239612_);fill:#FF911C;}
	.st196{display:inline;fill:#FF911C;}
	.st197{clip-path:url(#SVGID_00000129194657855135177840000005966646569036165005_);fill:#DCDDDE;}
	.st198{filter:url(#Adobe_OpacityMaskFilter_00000176733161792631165030000013774678854062219913_);}
	
		.st199{clip-path:url(#SVGID_00000129194657855135177840000005966646569036165005_);fill:url(#SVGID_00000119082376718253497310000002870113257732721334_);}
	
		.st200{clip-path:url(#SVGID_00000129194657855135177840000005966646569036165005_);mask:url(#SVGID_00000124148595881972065310000015405964970285975701_);}
	
		.st201{clip-path:url(#SVGID_00000048469157577691715850000016909261847099323794_);fill:none;stroke:#DCDDDE;stroke-width:1.75;stroke-miterlimit:10;}
</style>
<g id="Layer_1">
</g>
<g id="History_Icons">
</g>
<g id="History_Glance">
	<g id="Layer_5" class="st24">
	</g>
</g>
<g id="Pre-Approved_Buttons">
</g>
<g id="AutoScore_Modal">
</g>
<g id="Accident_Vehicle">
</g>
<g id="Accident_Icons">
	<g class="st24">
		<polygon class="st192" points="30.1,49.1 31.3,47.7 29.4,47.6 29.2,45.9 27.8,47 26.4,46 26.5,48 24.6,48.1 26,49.3 24.8,50.6 
			26.7,50.7 26.9,52.4 28.3,51.3 29.8,52.3 29.7,50.6 31.6,50.2 		"/>
		<polygon class="st192" points="28.3,45.9 14.8,43.2 27.4,48.6 25,61.7 30.4,49.5 44,52.1 31.2,46.6 32.1,38.4 		"/>
		<polygon class="st192" points="29.8,50.2 36.7,58 31.6,49 39.6,42.3 30.4,47.2 28.4,48.4 		"/>
		<g class="st25">
			<defs>
				<rect id="SVGID_00000140734173557693697290000006946011690456863400_" x="3.6" y="27" width="55" height="40.7"/>
			</defs>
			<clipPath id="SVGID_00000040564864385942722610000007312773778849896097_">
				<use xlink:href="#SVGID_00000140734173557693697290000006946011690456863400_"  style="overflow:visible;"/>
			</clipPath>
			<path style="clip-path:url(#SVGID_00000040564864385942722610000007312773778849896097_);fill:#DCDDDE;" d="M15.3,49.8
				c0,1.6-1.3,3-3,3c-1.7,0-3-1.3-3-3c0-1.6,1.3-3,3-3C13.9,46.9,15.3,48.2,15.3,49.8"/>
			<path style="clip-path:url(#SVGID_00000040564864385942722610000007312773778849896097_);fill:#DCDDDE;" d="M53,49.8
				c0,1.6-1.3,3-3,3s-3-1.3-3-3c0-1.6,1.3-3,3-3S53,48.2,53,49.8"/>
			<path style="clip-path:url(#SVGID_00000040564864385942722610000007312773778849896097_);fill:#DCDDDE;" d="M6.8,46.8
				c0-0.3,0.6-1.5,2.1-3.3c1.2-1.5,2.5-2.7,3-3c0.1,0,0.1-0.1,0.2-0.1c2,0.4,6.2,0.8,15.2,0.8c1.2,0,2.5,0,3.8,0
				c11.7,0.1,16.8-0.3,19-0.8c0.1,0,0.1,0.1,0.2,0.1c1.4,0.8,5,5.1,5.2,6.2c0.2,2.5,0.5,11,0.1,13.4c-1.4,0.1-4.9,0-7.8-0.2
				c0,0-0.1,0-0.1,0h-0.4c0,0,0,0,0,0c0-0.8-0.7-1.5-1.5-1.5h0c-11.1,0-28,0.1-29.2,0c-0.7-0.1-1.4,0.3-1.6,1
				c-0.1,0.2-0.1,0.3-0.1,0.5h-0.4c0,0-0.1,0-0.1,0c-2.9,0.2-6.4,0.3-7.8,0.2C6.3,57.9,6.6,49.3,6.8,46.8 M16.6,31.4
				c0.7-0.6,5.9-1.6,14.6-1.6h0.2c8.7,0,13.6,0.9,14.3,1.6c0.5,0.6,2.3,3.9,3.3,6.5c-1.9,0.3-6.5,0.7-17.9,0.6h0
				c-11.4,0.1-16-0.3-17.9-0.6C14.3,35.2,16,31.9,16.6,31.4 M58.6,54.5c0-3.4-0.2-6.9-0.3-7.9c-0.2-2-3.1-5.5-5.2-7.4l2.4,0h0
				c0.8,0,1.4-0.6,1.4-1.4c0-0.8-0.6-1.4-1.4-1.4l-3.4-0.1c0,0,0,0,0,0c-0.2,0-0.4,0.1-0.6,0.1c-1.1-2.8-2.9-6.2-3.8-7.2
				c-0.6-0.6-1.9-1.4-6.5-1.9C38.5,27.2,35,27,31.4,27c-0.1,0-0.2,0-0.3,0c-4.2,0-14.3,0.3-16.5,2.4c-0.9,0.9-2.7,4.4-3.8,7.2
				c-0.2-0.1-0.4-0.1-0.6-0.1l-3.4,0h0c-0.8,0-1.4,0.6-1.4,1.4c0,0.8,0.6,1.4,1.4,1.4l2.5,0C7.1,41,4.1,44.6,4,46.6
				c-0.1,1-0.2,4.6-0.3,7.9c0,1.9,0,3.5,0.1,4.7c0.1,2.1,0.4,2.9,1,3.4c0.2,0.1,0.4,0.3,1.3,0.4v3.3c0,0.8,0.6,1.4,1.4,1.4h6.2
				c0.8,0,1.4-0.6,1.4-1.4v-3.4h32.1v3.4c0,0.8,0.6,1.4,1.4,1.4h6.2c0.8,0,1.4-0.6,1.4-1.4V63c0.9-0.1,1.1-0.3,1.3-0.4
				C58.3,62.1,58.7,61.5,58.6,54.5"/>
		</g>
	</g>
	<g class="st24">
		<defs>
			<rect id="SVGID_00000044136693076427953950000009085103131808044691_" x="6.7" y="7.5" width="52.8" height="60.2"/>
		</defs>
		<clipPath id="SVGID_00000017489846953248864720000002569079592366161847_" class="st25">
			<use xlink:href="#SVGID_00000044136693076427953950000009085103131808044691_"  style="overflow:visible;"/>
		</clipPath>
		<path style="display:inline;clip-path:url(#SVGID_00000017489846953248864720000002569079592366161847_);fill:#FF911C;" d="
			M7.4,22.3l5.5,3.6c0.7-1,1.5-1.8,2.4-2.4l-6.1-4C8.5,19,7.4,19.2,6.9,20C6.4,20.8,6.6,21.8,7.4,22.3z"/>
		<path style="display:inline;clip-path:url(#SVGID_00000017489846953248864720000002569079592366161847_);fill:#FF911C;" d="
			M12,30.6c-0.7,7.1-0.1,11.6,2.4,18.6c0,0.1,0.1,0.2,0.1,0.3l9.2-13c-4.4-2.5-6.8-4.8-7.2-5.3c-1.3-1.3-1.3-3.5,0.1-4.8
			c0.6-0.6,1.5-1,2.3-1c0.9,0,1.8,0.4,2.4,1c0,0,0,0,0,0c0,0,0.1,0.1,0.2,0.2c0.2,0.2,0.4,0.4,0.8,0.7c0.4,0.3,0.9,0.7,1.6,1.2
			c-0.4-3-2.3-5.7-4.9-5.7C16.2,23,12.5,25.5,12,30.6z"/>
		<path style="display:inline;clip-path:url(#SVGID_00000017489846953248864720000002569079592366161847_);fill:#FF911C;" d="
			M21.4,53.6h15.5L46.1,66c0.8,1.1,2.1,1.7,3.4,1.7c0.9,0,1.8-0.3,2.5-0.8c1.9-1.4,2.2-4,0.9-5.9l-10.4-14c-0.8-1.1-2-1.7-3.4-1.7
			H25.7c-0.4-1.4-0.6-2.8-0.8-4.2l-8.1,11.4C18.2,53.6,19.8,53.8,21.4,53.6z"/>
		<path style="display:inline;clip-path:url(#SVGID_00000017489846953248864720000002569079592366161847_);fill:#FF911C;" d="
			M26.9,22.6c-0.8,1.9-1.3,4-1.3,6.3c0,0.3,0,0.6,0,0.9c0.1,0.1,0.3,0.2,0.4,0.3c3,1.8,7.9,4.3,14.7,5.6c0.9,0.2,1.6,0.7,2.1,1.4
			c0.5,0.7,0.7,1.6,0.5,2.5c-0.3,1.6-1.7,2.7-3.3,2.7c-0.2,0-0.4,0-0.7-0.1c-3.7-0.7-7-1.8-9.8-2.9c2.9,3.2,7.1,5.2,11.7,5.2
			c2.8,0,6.5-1.6,8.8-2.8c6.2-3.1,8-4.4,8.9-8.3c1-4.6,0.4-8.7-4.5-13.1c-3.8-3.4-7.7-7.2-13.2-7.2c-3.6,0-6.9,1.2-9.6,3.3
			c0,0.2-0.1,0.3-0.1,0.5C31,19.5,29.2,21.6,26.9,22.6z"/>
		<path style="display:inline;clip-path:url(#SVGID_00000017489846953248864720000002569079592366161847_);fill:#FF911C;" d="
			M14.6,49.6c0,0-0.6,0.8-0.6,0.8L9.2,57c-0.5,0.8-0.4,1.8,0.4,2.4c0.3,0.2,0.6,0.3,1,0.3c0.5,0,1-0.2,1.4-0.7l4.4-6.1l0.4-0.5
			C15.8,51.8,15,51,14.6,49.6"/>
		<path style="display:inline;clip-path:url(#SVGID_00000017489846953248864720000002569079592366161847_);fill:#FF911C;" d="
			M25.3,7.7c4.1,0.9,6.6,5,5.7,9.1c-0.9,4.1-5,6.6-9.1,5.7c-4.1-1-6.6-5-5.7-9.1C17.2,9.3,21.3,6.7,25.3,7.7"/>
		<path style="display:inline;clip-path:url(#SVGID_00000017489846953248864720000002569079592366161847_);fill:#FF911C;" d="M22,28
			c-0.4-0.3-0.7-0.6-0.9-0.8c-0.1-0.1-0.2-0.1-0.2-0.2c0,0,0,0,0,0c-1-1.1-2.7-1.1-3.8-0.1c-1.1,1-1.1,2.7-0.1,3.8
			c0.2,0.2,7.7,7.9,22.5,10.8c0.2,0,0.3,0.1,0.5,0.1c1.3,0,2.4-0.9,2.6-2.2c0.3-1.5-0.7-2.9-2.1-3.2C33.9,35,29,32.6,25.7,30.6
			C24,29.6,22.8,28.7,22,28z"/>
	</g>
	<g class="st24">
		<g class="st25">
			<defs>
				<rect id="SVGID_00000178184159210672701620000002769416854260626861_" x="5.7" y="19.1" width="50.9" height="48.5"/>
			</defs>
			<clipPath id="SVGID_00000104671173094957558660000006567484587663702196_">
				<use xlink:href="#SVGID_00000178184159210672701620000002769416854260626861_"  style="overflow:visible;"/>
			</clipPath>
			<path style="clip-path:url(#SVGID_00000104671173094957558660000006567484587663702196_);fill:#FF911C;" d="M26.3,35.5l13.7,11.1
				c0.5,0.4,0.6,1.2,0.2,1.7l-0.7,0.8c-0.4,0.5-1.2,0.6-1.7,0.2L24.1,38.2c-0.5-0.4-0.6-1.2-0.2-1.7l0.7-0.8
				C25,35.1,25.7,35,26.3,35.5"/>
			<path style="clip-path:url(#SVGID_00000104671173094957558660000006567484587663702196_);fill:#FF911C;" d="M41,53.4
				c0.9-1.1,2.5-1.3,3.7-0.4s1.3,2.6,0.4,3.7c-0.9,1.1-2.5,1.3-3.7,0.4C40.3,56.1,40.1,54.5,41,53.4"/>
			<path style="clip-path:url(#SVGID_00000104671173094957558660000006567484587663702196_);fill:#FF911C;" d="M15.3,32.5
				c0.9-1.1,2.5-1.3,3.7-0.4c1.1,0.9,1.3,2.6,0.4,3.7c-0.9,1.1-2.5,1.3-3.7,0.4C14.6,35.3,14.4,33.6,15.3,32.5"/>
			<path style="clip-path:url(#SVGID_00000104671173094957558660000006567484587663702196_);fill:#FF911C;" d="M45.1,60.1
				c-0.2,0.2-1.3,0.7-3.2,1.1c-1.7,0.3-3.2,0.4-3.7,0.3c-0.1,0-0.1,0-0.2,0c-1.1-1.4-3.8-4-9.9-8.9c-0.8-0.7-1.7-1.3-2.6-2.1
				c-7.9-6.5-11.6-9-13.4-10c0-0.1,0-0.1-0.1-0.2c-0.5-1.3-0.6-6.2-0.1-7.1c1.2-1.8,5.8-7.8,7.3-9.2c1,0.7,3.3,2.7,5.2,4.4
				c0,0,0,0,0.1,0.1l0.3,0.2c0,0,0,0,0,0c-0.4,0.6-0.4,1.4,0.2,1.8c0,0,0,0,0,0c7.6,6.1,19.1,15.4,19.9,16.1
				c0.4,0.4,1.1,0.5,1.6,0.2c0.1-0.1,0.2-0.2,0.3-0.3l0.3,0.2c0,0,0,0,0.1,0.1c2.1,1.5,4.5,3.3,5.4,4.1
				C51.5,52.8,46.6,58.5,45.1,60.1 M29.9,65.2c-0.9,0-4.9-2.2-10.8-7c-0.1,0-0.1-0.1-0.2-0.1c-5.9-4.8-8.7-8.1-8.9-9
				c-0.1-0.7,0.6-3.9,1.3-6.2c1.4,0.8,4.8,3.1,12.5,9.4c0,0,0,0,0,0c7.8,6.2,10.7,9,11.9,10.3C33.6,63.8,30.6,65.1,29.9,65.2
				 M14,26.2c-1.8,2.3-3.7,4.8-4.2,5.6c-1,1.4-0.9,5.5-0.5,7.9l-1.6-1.4c0,0,0,0,0,0c-0.5-0.4-1.3-0.4-1.7,0.2
				c-0.4,0.5-0.4,1.3,0.2,1.7l2.3,1.9c0,0,0,0,0,0c0.2,0.1,0.3,0.2,0.5,0.2c-0.8,2.5-1.5,5.9-1.3,7c0.1,0.7,0.5,2,3.4,4.9
				c1.7,1.7,3.9,3.7,6.4,5.7c0.1,0.1,0.1,0.1,0.2,0.2c2.9,2.3,9.9,7.7,12.6,7.5c1.1-0.1,4.2-1.5,6.6-2.8c0.1,0.2,0.2,0.3,0.3,0.4
				l2.3,1.9c0,0,0,0,0,0c0.5,0.4,1.3,0.4,1.7-0.2c0.4-0.5,0.3-1.3-0.2-1.7L39.3,64c2.4-0.1,6.4-0.9,7.6-2.2c0.6-0.6,2.7-3,4.6-5.2
				c1.1-1.3,2-2.4,2.6-3.2c1.1-1.5,1.4-2.2,1.1-2.9c-0.1-0.2-0.1-0.4-0.7-1l1.8-2.2c0.4-0.5,0.3-1.3-0.2-1.7l-4.2-3.4
				c-0.5-0.4-1.3-0.4-1.7,0.2l-1.9,2.3L26.4,26.9l1.9-2.3c0.4-0.5,0.3-1.3-0.2-1.7l-4.2-3.4c-0.5-0.4-1.3-0.4-1.7,0.2l-1.8,2.2
				c-0.7-0.4-0.9-0.4-1.1-0.5C18.5,21.3,17.8,21.5,14,26.2"/>
		</g>
		<polygon class="st196" points="18.3,53.3 18.4,54.1 18.9,53.6 19.5,54 19.5,53.3 20.2,53.2 19.6,52.7 20.1,52.1 19.4,52.1 
			19.3,51.4 18.8,51.9 18.2,51.5 18.2,52.2 17.5,52.3 18,52.8 17.6,53.4 		"/>
		<polygon class="st196" points="19.7,53.8 24.2,50.8 19.2,52.7 16.1,48.2 18.1,53.3 13.6,56.4 18.7,54.4 20.8,57.1 		"/>
		<polygon class="st196" points="18.1,52.9 13.9,52.6 17.9,53.8 17.7,58 18.8,53.9 19,53 		"/>
	</g>
	<g>
		<defs>
			<rect id="SVGID_00000073692533562533731330000015581572816236705727_" x="3.4" y="1.3" width="55.6" height="66.3"/>
		</defs>
		<clipPath id="SVGID_00000003797561536880110610000017140046997415665287_">
			<use xlink:href="#SVGID_00000073692533562533731330000015581572816236705727_"  style="overflow:visible;"/>
		</clipPath>
		<path style="clip-path:url(#SVGID_00000003797561536880110610000017140046997415665287_);fill:#DCDDDE;" d="M41.3,54.7H21
			c-0.8,0-1.4-0.6-1.4-1.4V52c0-0.8,0.6-1.4,1.4-1.4h20.3c0.8,0,1.4,0.6,1.4,1.4v1.2C42.7,54,42.1,54.7,41.3,54.7"/>
		<path style="clip-path:url(#SVGID_00000003797561536880110610000017140046997415665287_);fill:#DCDDDE;" d="M15.1,49.2
			c0,1.7-1.4,3.1-3,3.1c-1.7,0-3-1.4-3-3.1c0-1.7,1.4-3.1,3-3.1C13.7,46.2,15.1,47.5,15.1,49.2"/>
		<path style="clip-path:url(#SVGID_00000003797561536880110610000017140046997415665287_);fill:#DCDDDE;" d="M53.3,49.2
			c0,1.7-1.4,3.1-3,3.1c-1.7,0-3-1.4-3-3.1c0-1.7,1.4-3.1,3-3.1C51.9,46.2,53.3,47.5,53.3,49.2"/>
		<path style="clip-path:url(#SVGID_00000003797561536880110610000017140046997415665287_);fill:#DCDDDE;" d="M55.9,60
			c-1.4,0.1-4.9,0-7.9-0.2c0,0-0.1,0-0.1,0h-0.4c0,0,0,0,0,0c0-0.8-0.7-1.5-1.5-1.5h0c-11.2,0-28.2,0.1-29.5,0
			c-0.7-0.1-1.4,0.3-1.6,1c-0.1,0.2-0.1,0.3-0.1,0.5h-0.4c0,0-0.1,0-0.1,0C11.3,60,7.8,60.1,6.4,60C6,57.5,6.3,48.7,6.5,46.1
			c0-0.3,0.6-1.6,2.1-3.4c1.3-1.5,2.6-2.8,3.1-3.1c0.1,0,0.1-0.1,0.2-0.1c2,0.4,6.2,0.8,15.4,0.8c1.2,0,2.5,0,3.8,0
			C43,40.4,48.1,40,50.4,39.5c0.1,0,0.1,0.1,0.2,0.1c1.4,0.8,5.1,5.2,5.2,6.5C56,48.7,56.2,57.5,55.9,60 M58.9,54.1
			c0-3.5-0.2-7.2-0.3-8.2c-0.2-2-3.2-5.7-5.3-7.6l2.5,0c0,0,0,0,0,0c0.8,0,1.4-0.6,1.4-1.4c0-0.8-0.6-1.5-1.4-1.5l-3.5-0.1
			c0,0,0,0,0,0c-0.2,0-0.4,0.1-0.6,0.1c-1.2-2.9-2.9-6.5-3.9-7.4c-0.5-0.5-1.6-1.2-5-1.8c-0.9,1-2,1.8-3.1,2.5
			c3.5,0.3,5.6,0.9,6.1,1.3c0.6,0.6,2.3,4,3.3,6.7c-1.9,0.3-6.6,0.7-18,0.6h0c-11.5,0.1-16.2-0.3-18.1-0.6c1.1-2.7,2.8-6.1,3.3-6.7
			c0.5-0.4,3.1-1,7.4-1.4c-1.2-0.7-2.2-1.6-3.1-2.6c-2.9,0.4-5.3,1-6.3,1.9c-0.9,0.9-2.7,4.5-3.9,7.4c-0.2-0.1-0.4-0.1-0.6-0.1
			l-3.5,0h0C5.6,35.3,5,36,5,36.8c0,0.8,0.6,1.4,1.4,1.5l2.5,0c-2.1,1.9-5.1,5.6-5.3,7.6c-0.1,1-0.3,4.7-0.3,8.2c0,2,0,3.7,0.1,4.9
			c0.1,2.2,0.4,3,1.1,3.5c0.2,0.1,0.4,0.3,1.3,0.4v3.4c0,0.8,0.6,1.4,1.4,1.4h6.3c0.8,0,1.4-0.6,1.4-1.4v-3.5h32.4v3.5
			c0,0.8,0.6,1.4,1.4,1.4h6.3c0.8,0,1.4-0.6,1.4-1.4v-3.4c0.9-0.1,1.1-0.3,1.3-0.4C58.6,61.9,59,61.2,58.9,54.1"/>
		<defs>
			<filter id="Adobe_OpacityMaskFilter" filterUnits="userSpaceOnUse" x="8.7" y="-5.7" width="46.5" height="36.4">
				<feFlood  style="flood-color:white;flood-opacity:1" result="back"/>
				<feBlend  in="SourceGraphic" in2="back" mode="normal"/>
			</filter>
		</defs>
		
			<mask maskUnits="userSpaceOnUse" x="8.7" y="-5.7" width="46.5" height="36.4" id="SVGID_00000018947563246188346200000014897796687703383182_">
			<g class="st6">
				
					<linearGradient id="SVGID_00000171684469081352158350000005018737955019016875_" gradientUnits="userSpaceOnUse" x1="-3222.2078" y1="935.1312" x2="-3221.2078" y2="935.1312" gradientTransform="matrix(46.4683 0 0 -46.4683 149739.2188 43488.4609)">
					<stop  offset="0" style="stop-color:#FFFFFF"/>
					<stop  offset="1" style="stop-color:#FFFFFF"/>
				</linearGradient>
				
					<rect x="3.4" y="1.3" style="clip-path:url(#SVGID_00000003797561536880110610000017140046997415665287_);fill:url(#SVGID_00000171684469081352158350000005018737955019016875_);" width="55.6" height="66.3"/>
			</g>
		</mask>
		
			<g style="clip-path:url(#SVGID_00000003797561536880110610000017140046997415665287_);mask:url(#SVGID_00000018947563246188346200000014897796687703383182_);">
			<g>
				<defs>
					<rect id="SVGID_00000117638010036068690670000005116819592080731314_" x="8.7" y="-5.7" width="46.5" height="36.4"/>
				</defs>
				<clipPath id="SVGID_00000130643667451080540450000016074507103515084211_">
					<use xlink:href="#SVGID_00000117638010036068690670000005116819592080731314_"  style="overflow:visible;"/>
				</clipPath>
				
					<ellipse style="clip-path:url(#SVGID_00000130643667451080540450000016074507103515084211_);fill:none;stroke:#DCDDDE;stroke-width:1.75;stroke-miterlimit:10;" cx="31.9" cy="15.5" rx="13.4" ry="13.3"/>
			</g>
		</g>
		<path style="clip-path:url(#SVGID_00000003797561536880110610000017140046997415665287_);fill:#DCDDDE;" d="M31.9,19.5
			c0.6,0,1.1-0.5,1.1-1.2l1.1-10.4c0-1.3-1-2.3-2.2-2.3c-1.2,0-2.2,1-2.2,2.3l1.1,10.4C30.8,19,31.3,19.5,31.9,19.5 M31.9,21.5
			c-1.2,0-2.2,0.9-2.2,2c0,1.1,1,2,2.2,2c1.2,0,2.2-0.9,2.2-2C34.1,22.4,33.1,21.5,31.9,21.5"/>
	</g>
</g>
</svg>
