<?xml version="1.0" encoding="utf-8"?>
<!-- Generator: Adobe Illustrator 26.0.1, SVG Export Plug-In . SVG Version: 6.00 Build 0)  -->
<svg version="1.1" xmlns="http://www.w3.org/2000/svg" xmlns:xlink="http://www.w3.org/1999/xlink" x="0px" y="0px"
	 viewBox="0 0 62.3 67.7" style="enable-background:new 0 0 62.3 67.7;" xml:space="preserve">
<style type="text/css">
	.st0{clip-path:url(#SVGID_00000084531041083870442880000015084580457585702041_);fill:#0073BA;}
	.st1{fill:#FFFFFF;}
	.st2{opacity:0.25;}
	.st3{clip-path:url(#SVGID_00000031185020250723049920000000668128227409350794_);fill:#C7C7C7;}
	.st4{clip-path:url(#SVGID_00000015315081589919328540000008393785832438191247_);fill:none;stroke:#C7C7C7;stroke-miterlimit:10;}
	.st5{clip-path:url(#SVGID_00000164516018268866738310000006534701078788915589_);fill:#FFFFFF;}
	.st6{filter:url(#Adobe_OpacityMaskFilter);}
	.st7{clip-path:url(#SVGID_00000013180481159824622780000002387742520373533103_);}
	
		.st8{clip-path:url(#SVGID_00000113320940264027041580000004107657889221253306_);fill:url(#SVGID_00000122703090778284714360000008260607918879139726_);}
	
		.st9{clip-path:url(#SVGID_00000013180481159824622780000002387742520373533103_);mask:url(#SVGID_00000162330670409857195810000000369481333106144690_);}
	.st10{clip-path:url(#SVGID_00000011715614046673679290000008404237334936691377_);fill:#FFFFFF;}
	.st11{fill:none;}
	.st12{fill:#EAEAEA;}
	.st13{fill:url(#SVGID_00000062171009407722197920000005840508330831899041_);}
	.st14{fill:none;stroke:#006496;stroke-linecap:round;stroke-miterlimit:10;}
	.st15{fill:#006496;}
	.st16{fill:none;stroke:#00823B;stroke-width:2;stroke-miterlimit:10;}
	.st17{fill:#079F4B;}
	.st18{clip-path:url(#SVGID_00000044148024776204906670000016613921913162374590_);fill:#0B74BB;}
	.st19{clip-path:url(#SVGID_00000044148024776204906670000016613921913162374590_);fill:none;stroke:#005E94;stroke-miterlimit:10;}
	.st20{clip-path:url(#SVGID_00000044148024776204906670000016613921913162374590_);fill:#FFFFFF;}
	.st21{clip-path:url(#SVGID_00000113333023431735402180000003627228663696139688_);fill:#FF911C;}
	.st22{clip-path:url(#SVGID_00000113333023431735402180000003627228663696139688_);fill:#F57F0A;}
	.st23{clip-path:url(#SVGID_00000113333023431735402180000003627228663696139688_);fill:#FFFFFF;}
	.st24{display:none;}
	.st25{display:inline;}
	.st26{display:inline;clip-path:url(#SVGID_00000134962850064881847780000014721418769727530171_);fill:#CF0A0A;}
	.st27{display:inline;clip-path:url(#SVGID_00000134962850064881847780000014721418769727530171_);fill:#BA0000;}
	.st28{display:inline;clip-path:url(#SVGID_00000134962850064881847780000014721418769727530171_);fill:#FFFFFF;}
	.st29{clip-path:url(#SVGID_00000126325298578501271850000002572128237152074904_);fill:#FFFFFF;}
	.st30{fill:#666666;}
	.st31{display:inline;fill:#FF8F1C;}
	.st32{display:inline;fill:none;stroke:#F57F0A;stroke-miterlimit:10;}
	.st33{clip-path:url(#SVGID_00000039856435786302634100000005431894944895667073_);fill:#FFFFFF;}
	.st34{clip-path:url(#SVGID_00000060028173656537817170000005227594560201941652_);fill:#FFFFFF;}
	
		.st35{clip-path:url(#SVGID_00000060028173656537817170000005227594560201941652_);fill:none;stroke:#FFFFFF;stroke-width:0.573;stroke-linecap:round;stroke-miterlimit:10;}
	.st36{fill:#FF8F1C;}
	.st37{fill:none;stroke:#F57F0A;stroke-miterlimit:10;}
	.st38{clip-path:url(#SVGID_00000072990729390426334140000001048702874578472065_);fill:#FFFFFF;}
	.st39{clip-path:url(#SVGID_00000109748776789282093530000002702262432646765217_);fill:#FFFFFF;}
	.st40{display:inline;fill:#CF0A0A;}
	.st41{display:inline;fill:none;stroke:#BA0000;stroke-miterlimit:10;}
	.st42{clip-path:url(#SVGID_00000021809526637950429300000011942168320575080343_);fill:#FFFFFF;}
	.st43{display:inline;clip-path:url(#SVGID_00000083797027306871871030000005495578335894037141_);fill:#0073BA;}
	.st44{display:inline;clip-path:url(#SVGID_00000083797027306871871030000005495578335894037141_);fill:#97C3E6;}
	.st45{display:inline;clip-path:url(#SVGID_00000023280290025324860310000015375872551712080824_);fill:#97C2E5;}
	.st46{display:inline;clip-path:url(#SVGID_00000023280290025324860310000015375872551712080824_);fill:#FFFFFF;}
	.st47{display:inline;filter:url(#Adobe_OpacityMaskFilter_00000064325195600792365700000012573324244208018577_);}
	
		.st48{clip-path:url(#SVGID_00000023280290025324860310000015375872551712080824_);fill:url(#SVGID_00000115474886841601665560000008139295906101972394_);}
	
		.st49{display:inline;clip-path:url(#SVGID_00000023280290025324860310000015375872551712080824_);mask:url(#SVGID_00000044859441778792859050000017860671356696041405_);}
	.st50{clip-path:url(#SVGID_00000005261818139044799810000004529130862017648040_);fill:#FFFFFF;}
	.st51{display:inline;clip-path:url(#SVGID_00000023280290025324860310000015375872551712080824_);fill:#0073BA;}
	.st52{display:inline;clip-path:url(#SVGID_00000023280290025324860310000015375872551712080824_);fill:#97C3E6;}
	
		.st53{display:inline;clip-path:url(#SVGID_00000023280290025324860310000015375872551712080824_);fill:none;stroke:#97C3E6;stroke-width:0.573;stroke-linecap:round;stroke-miterlimit:10;}
	
		.st54{clip-path:url(#SVGID_00000120547681109380888430000010575079802949560454_);fill:none;stroke:#98C3E4;stroke-width:2;stroke-miterlimit:10;}
	.st55{clip-path:url(#SVGID_00000120547681109380888430000010575079802949560454_);fill:#98C3E4;}
	.st56{clip-path:url(#SVGID_00000120547681109380888430000010575079802949560454_);fill:#FFFFFF;}
	
		.st57{clip-path:url(#SVGID_00000120547681109380888430000010575079802949560454_);fill:none;stroke:#0073BA;stroke-width:2;stroke-miterlimit:10;}
	
		.st58{clip-path:url(#SVGID_00000120547681109380888430000010575079802949560454_);fill:none;stroke:#0073BA;stroke-width:1.683;stroke-miterlimit:10;}
	
		.st59{clip-path:url(#SVGID_00000120547681109380888430000010575079802949560454_);fill:none;stroke:#98C3E4;stroke-width:1.683;stroke-miterlimit:10;}
	.st60{display:inline;fill:none;stroke:#0073BA;stroke-width:1.683;stroke-miterlimit:10;}
	.st61{fill:#006396;}
	.st62{filter:url(#Adobe_OpacityMaskFilter_00000005252678711053500250000013206878539842009233_);}
	
		.st63{clip-path:url(#SVGID_00000083797913432238188900000016299135329744492427_);fill:url(#SVGID_00000144327227755273741730000008222647238976525733_);}
	
		.st64{clip-path:url(#SVGID_00000083797913432238188900000016299135329744492427_);mask:url(#SVGID_00000068670017428474254990000003227980551534596245_);}
	
		.st65{clip-path:url(#SVGID_00000010293197693402479970000003923667787004304562_);fill:none;stroke:#006396;stroke-width:0.771;stroke-linecap:round;}
	.st66{display:inline;fill:url(#SVGID_00000047044013039619982680000008594150287687606700_);}
	
		.st67{clip-path:url(#SVGID_00000088831989894182446140000016334175171620047513_);fill:none;stroke:#99C3E2;stroke-width:1.683;stroke-miterlimit:10;}
	
		.st68{clip-path:url(#SVGID_00000088831989894182446140000016334175171620047513_);fill:none;stroke:#0073BA;stroke-width:2;stroke-miterlimit:10;}
	
		.st69{clip-path:url(#SVGID_00000088831989894182446140000016334175171620047513_);fill:none;stroke:#0073BA;stroke-width:1.683;stroke-miterlimit:10;}
	.st70{clip-path:url(#SVGID_00000170259397052063756640000015431891757999073190_);fill:#FFFFFF;}
	
		.st71{clip-path:url(#SVGID_00000170259397052063756640000015431891757999073190_);fill:none;stroke:#0073BA;stroke-width:2;stroke-miterlimit:10;}
	
		.st72{clip-path:url(#SVGID_00000170259397052063756640000015431891757999073190_);fill:none;stroke:#98C3E4;stroke-width:1.683;stroke-miterlimit:10;}
	.st73{clip-path:url(#SVGID_00000074419175509960979620000014877371535469422762_);fill:#98C3E4;}
	
		.st74{clip-path:url(#SVGID_00000074419175509960979620000014877371535469422762_);fill:none;stroke:#98C3E3;stroke-width:0.75;stroke-linejoin:round;stroke-miterlimit:10;}
	.st75{clip-path:url(#SVGID_00000027567217503157087040000010614375426765439117_);fill:#0073BA;}
	.st76{clip-path:url(#SVGID_00000027567217503157087040000010614375426765439117_);fill:none;}
	.st77{display:inline;fill:#98C3E4;}
	.st78{display:inline;clip-path:url(#SVGID_00000085249523530832625020000008141442703325823142_);fill:#0073BA;}
	.st79{display:inline;clip-path:url(#SVGID_00000085249523530832625020000008141442703325823142_);fill:#97C3E6;}
	
		.st80{display:inline;clip-path:url(#SVGID_00000085249523530832625020000008141442703325823142_);fill:none;stroke:#97C3E6;stroke-width:1.147;stroke-linecap:round;stroke-miterlimit:10;}
	.st81{display:inline;clip-path:url(#SVGID_00000022523225006781844020000008248887912618254010_);fill:#0073BA;}
	.st82{display:none;fill:#0073BA;}
	.st83{display:inline;clip-path:url(#SVGID_00000137813655687752416470000000999377134871523481_);fill:#97C3E6;}
	.st84{display:inline;clip-path:url(#SVGID_00000025425032502590476870000001322291638649888914_);fill:#0073BA;}
	.st85{display:inline;clip-path:url(#SVGID_00000025425032502590476870000001322291638649888914_);fill:#98C3E4;}
	.st86{display:inline;filter:url(#Adobe_OpacityMaskFilter_00000129170417883331017950000017117760411796068792_);}
	
		.st87{clip-path:url(#SVGID_00000055666279888477040780000008062775466615591856_);fill:url(#SVGID_00000142890573962885030400000014648147814636391858_);}
	
		.st88{display:inline;clip-path:url(#SVGID_00000055666279888477040780000008062775466615591856_);mask:url(#SVGID_00000164478714247641261770000009016133803509436812_);}
	.st89{clip-path:url(#SVGID_00000026141468337572165280000014094031427711587761_);fill:#FFFFFF;}
	.st90{clip-path:url(#SVGID_00000026141468337572165280000014094031427711587761_);}
	.st91{clip-path:url(#SVGID_00000139292630674936896370000000904654255747849395_);fill:#0073BA;}
	.st92{display:inline;clip-path:url(#SVGID_00000055666279888477040780000008062775466615591856_);fill:#0073BA;}
	.st93{display:inline;clip-path:url(#SVGID_00000161630278902179218310000004495241468063351426_);fill:#FFFFFF;}
	.st94{display:inline;clip-path:url(#SVGID_00000161630278902179218310000004495241468063351426_);fill:#97C3E6;}
	.st95{display:none;fill:#D92B80;}
	.st96{display:inline;clip-path:url(#SVGID_00000170959722997231491940000005186765264614346170_);fill:#0073BA;}
	.st97{display:none;fill:#98C3E4;}
	.st98{display:inline;clip-path:url(#SVGID_00000120538322476960557340000015431653271426437509_);fill:#98C3E4;}
	.st99{display:inline;clip-path:url(#SVGID_00000120538322476960557340000015431653271426437509_);fill:#0073BA;}
	.st100{display:inline;clip-path:url(#SVGID_00000059278368952840190560000007911625470554958977_);fill:#98C3E4;}
	.st101{display:inline;clip-path:url(#SVGID_00000059278368952840190560000007911625470554958977_);fill:#0073BA;}
	.st102{display:inline;clip-path:url(#SVGID_00000059278368952840190560000007911625470554958977_);}
	.st103{clip-path:url(#SVGID_00000007415564208157400110000002974995280592660921_);fill:#0073BA;}
	.st104{display:inline;clip-path:url(#SVGID_00000016796963850680576900000002774568508763528639_);}
	.st105{clip-path:url(#SVGID_00000159465507639527898960000006251965465131322781_);}
	.st106{display:inline;clip-path:url(#SVGID_00000032608110993298309030000014030488233707377060_);}
	.st107{clip-path:url(#SVGID_00000013189008492869177250000014400419557725858989_);}
	.st108{display:inline;clip-path:url(#SVGID_00000139993806783142299840000006189547028648885182_);}
	.st109{clip-path:url(#SVGID_00000135659297604373597750000015357188107268247691_);}
	.st110{display:inline;clip-path:url(#SVGID_00000005247614669127341730000000690858506501081234_);fill:#D92B80;}
	.st111{display:inline;clip-path:url(#SVGID_00000005247614669127341730000000690858506501081234_);fill:#0073BA;}
	
		.st112{display:inline;clip-path:url(#SVGID_00000083782578380369355420000002829259465007169212_);fill:none;stroke:#FFFFFF;stroke-linejoin:bevel;stroke-miterlimit:10;}
	.st113{display:inline;clip-path:url(#SVGID_00000103972195993287477360000007892323900500375996_);fill:#0073BA;}
	.st114{display:inline;clip-path:url(#SVGID_00000044896677267606996290000016967524972075271564_);fill:#0073BA;}
	.st115{display:inline;clip-path:url(#SVGID_00000044896677267606996290000016967524972075271564_);fill:#96C2E5;}
	.st116{display:inline;clip-path:url(#SVGID_00000088847921703666549150000001024555805768697015_);fill:#96C2E5;}
	.st117{display:inline;clip-path:url(#SVGID_00000088847921703666549150000001024555805768697015_);fill:#0073BA;}
	.st118{display:inline;clip-path:url(#SVGID_00000077294785858427833050000002215992142186683538_);fill:#98C3E4;}
	.st119{display:inline;clip-path:url(#SVGID_00000077294785858427833050000002215992142186683538_);fill:#0073BA;}
	.st120{clip-path:url(#SVGID_00000173854543600489558930000004461126918629572232_);fill:#0073BA;}
	.st121{clip-path:url(#SVGID_00000173854543600489558930000004461126918629572232_);fill:#98C3E4;}
	
		.st122{display:inline;clip-path:url(#SVGID_00000023984259957293707850000008374614602406601600_);fill:none;stroke:#97C3E6;stroke-width:3;stroke-miterlimit:10;}
	.st123{display:inline;fill:#FFFFFF;}
	.st124{display:inline;clip-path:url(#SVGID_00000046330564228216975910000017750639120470313392_);fill:#0073BA;}
	.st125{display:inline;clip-path:url(#SVGID_00000046330564228216975910000017750639120470313392_);fill:#97C3E6;}
	.st126{display:inline;fill:#0073BA;}
	.st127{display:inline;fill:#97C3E6;}
	.st128{display:inline;clip-path:url(#SVGID_00000108274465323540880770000016866694863568069812_);fill:#CF0A0A;}
	.st129{display:inline;clip-path:url(#SVGID_00000108274465323540880770000016866694863568069812_);fill:#EDA6A6;}
	.st130{display:inline;clip-path:url(#SVGID_00000167366442352124436860000002393592621118218628_);fill:#0073BA;}
	.st131{display:inline;clip-path:url(#SVGID_00000167366442352124436860000002393592621118218628_);fill:#97C3E6;}
	.st132{display:inline;fill:none;stroke:#97C2E6;stroke-width:2.566;stroke-miterlimit:10;}
	.st133{display:inline;fill:#99C2E5;}
	.st134{display:inline;filter:url(#Adobe_OpacityMaskFilter_00000080918990428006756650000008117988596868296890_);}
	.st135{fill:url(#SVGID_00000088819442151351054300000003782936759513249711_);}
	.st136{display:inline;mask:url(#SVGID_00000036253485644113720480000013296596959454836116_);}
	.st137{clip-path:url(#SVGID_00000170988515241060632080000013868226278270139047_);fill:#FFFFFF;}
	.st138{display:inline;fill:none;}
	
		.st139{display:inline;clip-path:url(#SVGID_00000029043003996501627450000006075527569039530885_);fill:none;stroke:#97C3E6;stroke-width:2.566;stroke-miterlimit:10;}
	.st140{display:inline;clip-path:url(#SVGID_00000143615910405051952200000007616737963314925720_);fill:#0073BA;}
	.st141{display:inline;clip-path:url(#SVGID_00000143615910405051952200000007616737963314925720_);fill:#97C3E6;}
	.st142{filter:url(#Adobe_OpacityMaskFilter_00000049213162497406438530000007520179242134823552_);}
	
		.st143{clip-path:url(#SVGID_00000078004480110410150520000005225867834680629680_);fill:url(#SVGID_00000001627627396801367580000002129833558433111484_);}
	
		.st144{clip-path:url(#SVGID_00000078004480110410150520000005225867834680629680_);mask:url(#SVGID_00000013157061217453030110000002961428074799219132_);}
	.st145{clip-path:url(#SVGID_00000065780590057007350930000002732462483047386514_);fill:none;stroke:#FFFFFF;stroke-width:2;}
	.st146{clip-path:url(#SVGID_00000063629052940232203370000016844230361512647557_);fill:#FFFFFF;}
	.st147{clip-path:url(#SVGID_00000063629052940232203370000016844230361512647557_);fill:#283484;}
	.st148{filter:url(#Adobe_OpacityMaskFilter_00000045619457260328441070000003545917097805490102_);}
	
		.st149{clip-path:url(#SVGID_00000095325265109715141900000006019570349328595377_);fill:url(#SVGID_00000042711455454390604200000002960073592150534814_);}
	
		.st150{clip-path:url(#SVGID_00000095325265109715141900000006019570349328595377_);mask:url(#SVGID_00000061466451192372281070000018116628474554488731_);}
	.st151{clip-path:url(#SVGID_00000167355124231071217260000011280543497069561488_);fill:none;stroke:#FFFFFF;stroke-width:2;}
	.st152{clip-path:url(#SVGID_00000170994048489295719030000009140790849275342735_);fill:#FFFFFF;}
	.st153{clip-path:url(#SVGID_00000170994048489295719030000009140790849275342735_);fill:#283484;}
	.st154{clip-path:url(#SVGID_00000117664399419538857360000012851805503555140778_);fill:#0073BA;}
	.st155{filter:url(#Adobe_OpacityMaskFilter_00000018957911305100935760000003997836876720595340_);}
	
		.st156{clip-path:url(#SVGID_00000088832558573885028190000009475036910945646734_);fill:url(#SVGID_00000006709883729525637460000003228397739234802081_);}
	
		.st157{clip-path:url(#SVGID_00000088832558573885028190000009475036910945646734_);mask:url(#SVGID_00000157289940621635403510000013440829414355848320_);}
	.st158{clip-path:url(#SVGID_00000096744034108845125520000014380460316623808896_);fill:none;stroke:#FFFFFF;stroke-width:2;}
	.st159{clip-path:url(#SVGID_00000070805995285265338830000004266463300682939064_);fill:#FFFFFF;}
	.st160{clip-path:url(#SVGID_00000070805995285265338830000004266463300682939064_);fill:#283484;}
	.st161{clip-path:url(#SVGID_00000093154232523077847740000007572239530808599481_);fill:#99C3E2;}
	.st162{clip-path:url(#SVGID_00000093154232523077847740000007572239530808599481_);fill:#0073BA;}
	.st163{display:inline;fill:#99C3E2;}
	.st164{filter:url(#Adobe_OpacityMaskFilter_00000013176781718703763270000010989275038555054994_);}
	
		.st165{clip-path:url(#SVGID_00000101795089906031690200000015391708824774643134_);fill:url(#SVGID_00000120530315387700916970000008314762117434943162_);}
	
		.st166{clip-path:url(#SVGID_00000101795089906031690200000015391708824774643134_);mask:url(#SVGID_00000088813347633800988580000005378203926257405078_);}
	.st167{clip-path:url(#SVGID_00000010305405998854498590000002599522650354830773_);fill:#FFFFFF;}
	.st168{filter:url(#Adobe_OpacityMaskFilter_00000065783994376675033840000012065237072358740624_);}
	
		.st169{clip-path:url(#SVGID_00000101795089906031690200000015391708824774643134_);fill:url(#SVGID_00000101821991758237408360000012862938483275188357_);}
	
		.st170{clip-path:url(#SVGID_00000101795089906031690200000015391708824774643134_);mask:url(#SVGID_00000103947801141534415060000016364828519887322043_);}
	.st171{clip-path:url(#SVGID_00000045581780168351179770000001844942697186245298_);fill:#FFFFFF;}
	.st172{clip-path:url(#SVGID_00000101795089906031690200000015391708824774643134_);fill:#99C3E2;}
	.st173{clip-path:url(#SVGID_00000101795089906031690200000015391708824774643134_);fill:#0073BA;}
	.st174{display:inline;clip-path:url(#SVGID_00000066509096190014340500000009728098194526859422_);fill:#99C3E2;}
	.st175{display:inline;clip-path:url(#SVGID_00000066509096190014340500000009728098194526859422_);fill:#0073BA;}
	.st176{display:inline;clip-path:url(#SVGID_00000066509096190014340500000009728098194526859422_);fill:#079F4B;}
	
		.st177{display:inline;clip-path:url(#SVGID_00000066509096190014340500000009728098194526859422_);fill:none;stroke:#069E4B;stroke-miterlimit:10;}
	.st178{display:inline;filter:url(#Adobe_OpacityMaskFilter_00000076568801443375666710000015543741248255223697_);}
	
		.st179{clip-path:url(#SVGID_00000066509096190014340500000009728098194526859422_);fill:url(#SVGID_00000080165359559460344890000000949780751811093632_);}
	
		.st180{display:inline;clip-path:url(#SVGID_00000066509096190014340500000009728098194526859422_);mask:url(#SVGID_00000116930664906570535870000008003342004210999960_);}
	
		.st181{clip-path:url(#SVGID_00000106853176408130729380000011064321310840044204_);fill:none;stroke:#079F4B;stroke-width:2.5;stroke-linecap:round;stroke-linejoin:round;stroke-miterlimit:10;}
	.st182{display:inline;clip-path:url(#SVGID_00000133519359151758927840000000553329591048083125_);fill:#99C3E2;}
	.st183{display:inline;clip-path:url(#SVGID_00000133519359151758927840000000553329591048083125_);fill:#0073BA;}
	.st184{display:inline;clip-path:url(#SVGID_00000133519359151758927840000000553329591048083125_);fill:#CF0A0A;}
	
		.st185{display:inline;clip-path:url(#SVGID_00000133519359151758927840000000553329591048083125_);fill:none;stroke:#CF0A0A;stroke-miterlimit:10;}
	.st186{display:inline;filter:url(#Adobe_OpacityMaskFilter_00000042009514042997530350000004329979703708808066_);}
	
		.st187{clip-path:url(#SVGID_00000133519359151758927840000000553329591048083125_);fill:url(#SVGID_00000167381035539677997290000014789072515980898233_);}
	
		.st188{display:inline;clip-path:url(#SVGID_00000133519359151758927840000000553329591048083125_);mask:url(#SVGID_00000103264334482713775610000015502777744598484408_);}
	
		.st189{clip-path:url(#SVGID_00000099636820681725285670000010034680995765114037_);fill:none;stroke:#CF0A0A;stroke-width:2.5;stroke-linecap:round;stroke-linejoin:round;stroke-miterlimit:10;}
	.st190{display:inline;clip-path:url(#SVGID_00000115487081587282465710000008010389302572415921_);fill:#9BC3E0;}
	.st191{fill:#777777;}
	.st192{fill:#DCDDDE;}
	.st193{clip-path:url(#SVGID_00000065048907760160030770000018040978806706953601_);fill:#DCDDDE;}
	.st194{display:inline;clip-path:url(#SVGID_00000176036386263717145870000005085984029355791768_);fill:#FF911C;}
	.st195{display:inline;filter:url(#Adobe_OpacityMaskFilter_00000070094913705550994060000011832437658767821711_);}
	
		.st196{clip-path:url(#SVGID_00000176036386263717145870000005085984029355791768_);fill:url(#SVGID_00000100375533818051691670000001408804871848822145_);}
	
		.st197{display:inline;clip-path:url(#SVGID_00000176036386263717145870000005085984029355791768_);mask:url(#SVGID_00000022560642304900912850000000994651446303865499_);}
	
		.st198{clip-path:url(#SVGID_00000131366671568073668430000008745804708755661474_);fill:none;stroke:#FF911C;stroke-width:1.75;stroke-miterlimit:10;}
	.st199{display:inline;clip-path:url(#SVGID_00000117670066044391907640000000815314825750399130_);fill:#DCDDDE;}
	.st200{clip-path:url(#SVGID_00000055694590662233628800000001888497816065182639_);fill:#DCDDDE;}
	.st201{display:inline;fill:#DCDDDE;}
</style>
<g id="Layer_1">
</g>
<g id="History_Icons">
</g>
<g id="History_Glance">
	<g id="Layer_5" class="st24">
	</g>
</g>
<g id="Pre-Approved_Buttons">
</g>
<g id="AutoScore_Modal">
</g>
<g id="Accident_Vehicle">
</g>
<g id="Accident_Icons">
	<g>
		<polygon class="st192" points="30.1,49.1 31.3,47.7 29.4,47.6 29.2,45.9 27.8,47 26.4,46 26.5,48 24.6,48.1 26,49.3 24.8,50.6 
			26.7,50.7 26.9,52.4 28.3,51.3 29.8,52.3 29.7,50.6 31.6,50.2 		"/>
		<polygon class="st192" points="28.3,45.9 14.8,43.2 27.4,48.6 25,61.7 30.4,49.5 44,52.1 31.2,46.6 32.1,38.4 		"/>
		<polygon class="st192" points="29.8,50.2 36.7,58 31.6,49 39.6,42.3 30.4,47.2 28.4,48.4 		"/>
		<g>
			<defs>
				<rect id="SVGID_00000136398060727344174190000000219009587451306122_" x="3.6" y="27" width="55" height="40.7"/>
			</defs>
			<clipPath id="SVGID_00000062194267914160054830000002777532364339771777_">
				<use xlink:href="#SVGID_00000136398060727344174190000000219009587451306122_"  style="overflow:visible;"/>
			</clipPath>
			<path style="clip-path:url(#SVGID_00000062194267914160054830000002777532364339771777_);fill:#DCDDDE;" d="M15.3,49.8
				c0,1.6-1.3,3-3,3c-1.7,0-3-1.3-3-3c0-1.6,1.3-3,3-3C13.9,46.9,15.3,48.2,15.3,49.8"/>
			<path style="clip-path:url(#SVGID_00000062194267914160054830000002777532364339771777_);fill:#DCDDDE;" d="M53,49.8
				c0,1.6-1.3,3-3,3s-3-1.3-3-3c0-1.6,1.3-3,3-3S53,48.2,53,49.8"/>
			<path style="clip-path:url(#SVGID_00000062194267914160054830000002777532364339771777_);fill:#DCDDDE;" d="M6.8,46.8
				c0-0.3,0.6-1.5,2.1-3.3c1.2-1.5,2.5-2.7,3-3c0.1,0,0.1-0.1,0.2-0.1c2,0.4,6.2,0.8,15.2,0.8c1.2,0,2.5,0,3.8,0
				c11.7,0.1,16.8-0.3,19-0.8c0.1,0,0.1,0.1,0.2,0.1c1.4,0.8,5,5.1,5.2,6.2c0.2,2.5,0.5,11,0.1,13.4c-1.4,0.1-4.9,0-7.8-0.2
				c0,0-0.1,0-0.1,0h-0.4c0,0,0,0,0,0c0-0.8-0.7-1.5-1.5-1.5h0c-11.1,0-28,0.1-29.2,0c-0.7-0.1-1.4,0.3-1.6,1
				c-0.1,0.2-0.1,0.3-0.1,0.5h-0.4c0,0-0.1,0-0.1,0c-2.9,0.2-6.4,0.3-7.8,0.2C6.3,57.9,6.6,49.3,6.8,46.8 M16.6,31.4
				c0.7-0.6,5.9-1.6,14.6-1.6h0.2c8.7,0,13.6,0.9,14.3,1.6c0.5,0.6,2.3,3.9,3.3,6.5c-1.9,0.3-6.5,0.7-17.9,0.6h0
				c-11.4,0.1-16-0.3-17.9-0.6C14.3,35.2,16,31.9,16.6,31.4 M58.6,54.5c0-3.4-0.2-6.9-0.3-7.9c-0.2-2-3.1-5.5-5.2-7.4l2.4,0h0
				c0.8,0,1.4-0.6,1.4-1.4c0-0.8-0.6-1.4-1.4-1.4l-3.4-0.1c0,0,0,0,0,0c-0.2,0-0.4,0.1-0.6,0.1c-1.1-2.8-2.9-6.2-3.8-7.2
				c-0.6-0.6-1.9-1.4-6.5-1.9C38.5,27.2,35,27,31.4,27c-0.1,0-0.2,0-0.3,0c-4.2,0-14.3,0.3-16.5,2.4c-0.9,0.9-2.7,4.4-3.8,7.2
				c-0.2-0.1-0.4-0.1-0.6-0.1l-3.4,0h0c-0.8,0-1.4,0.6-1.4,1.4c0,0.8,0.6,1.4,1.4,1.4l2.5,0C7.1,41,4.1,44.6,4,46.6
				c-0.1,1-0.2,4.6-0.3,7.9c0,1.9,0,3.5,0.1,4.7c0.1,2.1,0.4,2.9,1,3.4c0.2,0.1,0.4,0.3,1.3,0.4v3.3c0,0.8,0.6,1.4,1.4,1.4h6.2
				c0.8,0,1.4-0.6,1.4-1.4v-3.4h32.1v3.4c0,0.8,0.6,1.4,1.4,1.4h6.2c0.8,0,1.4-0.6,1.4-1.4V63c0.9-0.1,1.1-0.3,1.3-0.4
				C58.3,62.1,58.7,61.5,58.6,54.5"/>
		</g>
	</g>
	<g class="st24">
		<defs>
			<rect id="SVGID_00000077301121885501172590000003669298542114582692_" x="3.4" y="1.3" width="55.6" height="66.3"/>
		</defs>
		<clipPath id="SVGID_00000014634839159405708580000006398494750985694100_" class="st25">
			<use xlink:href="#SVGID_00000077301121885501172590000003669298542114582692_"  style="overflow:visible;"/>
		</clipPath>
		<path style="display:inline;clip-path:url(#SVGID_00000014634839159405708580000006398494750985694100_);fill:#FF911C;" d="
			M41.3,54.7H21c-0.8,0-1.4-0.6-1.4-1.4V52c0-0.8,0.6-1.4,1.4-1.4h20.3c0.8,0,1.4,0.6,1.4,1.4v1.2C42.7,54,42.1,54.7,41.3,54.7"/>
		<path style="display:inline;clip-path:url(#SVGID_00000014634839159405708580000006398494750985694100_);fill:#FF911C;" d="
			M15.1,49.2c0,1.7-1.4,3.1-3,3.1c-1.7,0-3-1.4-3-3.1c0-1.7,1.4-3.1,3-3.1C13.7,46.2,15.1,47.5,15.1,49.2"/>
		<path style="display:inline;clip-path:url(#SVGID_00000014634839159405708580000006398494750985694100_);fill:#FF911C;" d="
			M53.3,49.2c0,1.7-1.4,3.1-3,3.1c-1.7,0-3-1.4-3-3.1c0-1.7,1.4-3.1,3-3.1C51.9,46.2,53.3,47.5,53.3,49.2"/>
		<path style="display:inline;clip-path:url(#SVGID_00000014634839159405708580000006398494750985694100_);fill:#FF911C;" d="
			M55.9,60c-1.4,0.1-4.9,0-7.9-0.2c0,0-0.1,0-0.1,0h-0.4c0,0,0,0,0,0c0-0.8-0.7-1.5-1.5-1.5h0c-11.2,0-28.2,0.1-29.5,0
			c-0.7-0.1-1.4,0.3-1.6,1c-0.1,0.2-0.1,0.3-0.1,0.5h-0.4c0,0-0.1,0-0.1,0C11.3,60,7.8,60.1,6.4,60C6,57.5,6.3,48.7,6.5,46.1
			c0-0.3,0.6-1.6,2.1-3.4c1.3-1.5,2.6-2.8,3.1-3.1c0.1,0,0.1-0.1,0.2-0.1c2,0.4,6.2,0.8,15.4,0.8c1.2,0,2.5,0,3.8,0
			C43,40.4,48.1,40,50.4,39.5c0.1,0,0.1,0.1,0.2,0.1c1.4,0.8,5.1,5.2,5.2,6.5C56,48.7,56.2,57.5,55.9,60 M58.9,54.1
			c0-3.5-0.2-7.2-0.3-8.2c-0.2-2-3.2-5.7-5.3-7.6l2.5,0c0,0,0,0,0,0c0.8,0,1.4-0.6,1.4-1.4c0-0.8-0.6-1.5-1.4-1.5l-3.5-0.1
			c0,0,0,0,0,0c-0.2,0-0.4,0.1-0.6,0.1c-1.2-2.9-2.9-6.5-3.9-7.4c-0.5-0.5-1.6-1.2-5-1.8c-0.9,1-2,1.8-3.1,2.5
			c3.5,0.3,5.6,0.9,6.1,1.3c0.6,0.6,2.3,4,3.3,6.7c-1.9,0.3-6.6,0.7-18,0.6h0c-11.5,0.1-16.2-0.3-18.1-0.6c1.1-2.7,2.8-6.1,3.3-6.7
			c0.5-0.4,3.1-1,7.4-1.4c-1.2-0.7-2.2-1.6-3.1-2.6c-2.9,0.4-5.3,1-6.3,1.9c-0.9,0.9-2.7,4.5-3.9,7.4c-0.2-0.1-0.4-0.1-0.6-0.1
			l-3.5,0h0C5.6,35.3,5,36,5,36.8c0,0.8,0.6,1.4,1.4,1.5l2.5,0c-2.1,1.9-5.1,5.6-5.3,7.6c-0.1,1-0.3,4.7-0.3,8.2c0,2,0,3.7,0.1,4.9
			c0.1,2.2,0.4,3,1.1,3.5c0.2,0.1,0.4,0.3,1.3,0.4v3.4c0,0.8,0.6,1.4,1.4,1.4h6.3c0.8,0,1.4-0.6,1.4-1.4v-3.5h32.4v3.5
			c0,0.8,0.6,1.4,1.4,1.4h6.3c0.8,0,1.4-0.6,1.4-1.4v-3.4c0.9-0.1,1.1-0.3,1.3-0.4C58.6,61.9,59,61.2,58.9,54.1"/>
		<defs>
			<filter id="Adobe_OpacityMaskFilter" filterUnits="userSpaceOnUse" x="8.7" y="-5.7" width="46.5" height="36.4">
				<feFlood  style="flood-color:white;flood-opacity:1" result="back"/>
				<feBlend  in="SourceGraphic" in2="back" mode="normal"/>
			</filter>
		</defs>
		
			<mask maskUnits="userSpaceOnUse" x="8.7" y="-5.7" width="46.5" height="36.4" id="SVGID_00000023963034151508093770000006751683650272202683_" class="st25">
			<g class="st6">
				
					<linearGradient id="SVGID_00000147220672537875452700000015775003616633444283_" gradientUnits="userSpaceOnUse" x1="-3222.2078" y1="935.1312" x2="-3221.2078" y2="935.1312" gradientTransform="matrix(46.4683 0 0 -46.4683 149739.2188 43488.4609)">
					<stop  offset="0" style="stop-color:#FFFFFF"/>
					<stop  offset="1" style="stop-color:#FFFFFF"/>
				</linearGradient>
				
					<rect x="3.4" y="1.3" style="clip-path:url(#SVGID_00000014634839159405708580000006398494750985694100_);fill:url(#SVGID_00000147220672537875452700000015775003616633444283_);" width="55.6" height="66.3"/>
			</g>
		</mask>
		
			<g style="display:inline;clip-path:url(#SVGID_00000014634839159405708580000006398494750985694100_);mask:url(#SVGID_00000023963034151508093770000006751683650272202683_);">
			<g>
				<defs>
					<rect id="SVGID_00000105403574269648004630000017662877247086870463_" x="8.7" y="-5.7" width="46.5" height="36.4"/>
				</defs>
				<clipPath id="SVGID_00000027589513621963510330000011889720540356771469_">
					<use xlink:href="#SVGID_00000105403574269648004630000017662877247086870463_"  style="overflow:visible;"/>
				</clipPath>
				
					<ellipse style="clip-path:url(#SVGID_00000027589513621963510330000011889720540356771469_);fill:none;stroke:#FF911C;stroke-width:1.75;stroke-miterlimit:10;" cx="31.9" cy="15.5" rx="13.4" ry="13.3"/>
			</g>
		</g>
		<path style="display:inline;clip-path:url(#SVGID_00000014634839159405708580000006398494750985694100_);fill:#FF911C;" d="
			M31.9,19.5c0.6,0,1.1-0.5,1.1-1.2l1.1-10.4c0-1.3-1-2.3-2.2-2.3c-1.2,0-2.2,1-2.2,2.3l1.1,10.4C30.8,19,31.3,19.5,31.9,19.5
			 M31.9,21.5c-1.2,0-2.2,0.9-2.2,2c0,1.1,1,2,2.2,2c1.2,0,2.2-0.9,2.2-2C34.1,22.4,33.1,21.5,31.9,21.5"/>
	</g>
	<g class="st24">
		<defs>
			<rect id="SVGID_00000019672490831221377020000014307494306358666159_" x="6.7" y="7.5" width="52.8" height="60.2"/>
		</defs>
		<clipPath id="SVGID_00000082347445989490836640000006152963088226764944_" class="st25">
			<use xlink:href="#SVGID_00000019672490831221377020000014307494306358666159_"  style="overflow:visible;"/>
		</clipPath>
		<path style="display:inline;clip-path:url(#SVGID_00000082347445989490836640000006152963088226764944_);fill:#DCDDDE;" d="
			M7.4,22.3l5.5,3.6c0.7-1,1.5-1.8,2.4-2.4l-6.1-4C8.5,19,7.4,19.2,6.9,20C6.4,20.8,6.6,21.8,7.4,22.3z"/>
		<path style="display:inline;clip-path:url(#SVGID_00000082347445989490836640000006152963088226764944_);fill:#DCDDDE;" d="
			M12,30.6c-0.7,7.1-0.1,11.6,2.4,18.6c0,0.1,0.1,0.2,0.1,0.3l9.2-13c-4.4-2.5-6.8-4.8-7.2-5.3c-1.3-1.3-1.3-3.5,0.1-4.8
			c0.6-0.6,1.5-1,2.3-1c0.9,0,1.8,0.4,2.4,1c0,0,0,0,0,0c0,0,0.1,0.1,0.2,0.2c0.2,0.2,0.4,0.4,0.8,0.7c0.4,0.3,0.9,0.7,1.6,1.2
			c-0.4-3-2.3-5.7-4.9-5.7C16.2,23,12.5,25.5,12,30.6z"/>
		<path style="display:inline;clip-path:url(#SVGID_00000082347445989490836640000006152963088226764944_);fill:#DCDDDE;" d="
			M21.4,53.6h15.5L46.1,66c0.8,1.1,2.1,1.7,3.4,1.7c0.9,0,1.8-0.3,2.5-0.8c1.9-1.4,2.2-4,0.9-5.9l-10.4-14c-0.8-1.1-2-1.7-3.4-1.7
			H25.7c-0.4-1.4-0.6-2.8-0.8-4.2l-8.1,11.4C18.2,53.6,19.8,53.8,21.4,53.6z"/>
		<path style="display:inline;clip-path:url(#SVGID_00000082347445989490836640000006152963088226764944_);fill:#DCDDDE;" d="
			M26.9,22.6c-0.8,1.9-1.3,4-1.3,6.3c0,0.3,0,0.6,0,0.9c0.1,0.1,0.3,0.2,0.4,0.3c3,1.8,7.9,4.3,14.7,5.6c0.9,0.2,1.6,0.7,2.1,1.4
			c0.5,0.7,0.7,1.6,0.5,2.5c-0.3,1.6-1.7,2.7-3.3,2.7c-0.2,0-0.4,0-0.7-0.1c-3.7-0.7-7-1.8-9.8-2.9c2.9,3.2,7.1,5.2,11.7,5.2
			c2.8,0,6.5-1.6,8.8-2.8c6.2-3.1,8-4.4,8.9-8.3c1-4.6,0.4-8.7-4.5-13.1c-3.8-3.4-7.7-7.2-13.2-7.2c-3.6,0-6.9,1.2-9.6,3.3
			c0,0.2-0.1,0.3-0.1,0.5C31,19.5,29.2,21.6,26.9,22.6z"/>
		<path style="display:inline;clip-path:url(#SVGID_00000082347445989490836640000006152963088226764944_);fill:#DCDDDE;" d="
			M14.6,49.6c0,0-0.6,0.8-0.6,0.8L9.2,57c-0.5,0.8-0.4,1.8,0.4,2.4c0.3,0.2,0.6,0.3,1,0.3c0.5,0,1-0.2,1.4-0.7l4.4-6.1l0.4-0.5
			C15.8,51.8,15,51,14.6,49.6"/>
		<path style="display:inline;clip-path:url(#SVGID_00000082347445989490836640000006152963088226764944_);fill:#DCDDDE;" d="
			M25.3,7.7c4.1,0.9,6.6,5,5.7,9.1c-0.9,4.1-5,6.6-9.1,5.7c-4.1-1-6.6-5-5.7-9.1C17.2,9.3,21.3,6.7,25.3,7.7"/>
		<path style="display:inline;clip-path:url(#SVGID_00000082347445989490836640000006152963088226764944_);fill:#DCDDDE;" d="M22,28
			c-0.4-0.3-0.7-0.6-0.9-0.8c-0.1-0.1-0.2-0.1-0.2-0.2c0,0,0,0,0,0c-1-1.1-2.7-1.1-3.8-0.1c-1.1,1-1.1,2.7-0.1,3.8
			c0.2,0.2,7.7,7.9,22.5,10.8c0.2,0,0.3,0.1,0.5,0.1c1.3,0,2.4-0.9,2.6-2.2c0.3-1.5-0.7-2.9-2.1-3.2C33.9,35,29,32.6,25.7,30.6
			C24,29.6,22.8,28.7,22,28z"/>
	</g>
	<g class="st24">
		<g class="st25">
			<defs>
				<rect id="SVGID_00000029727101441055591470000003096056489099071106_" x="5.7" y="19.1" width="50.9" height="48.5"/>
			</defs>
			<clipPath id="SVGID_00000042729332630821136730000003901580063153350284_">
				<use xlink:href="#SVGID_00000029727101441055591470000003096056489099071106_"  style="overflow:visible;"/>
			</clipPath>
			<path style="clip-path:url(#SVGID_00000042729332630821136730000003901580063153350284_);fill:#DCDDDE;" d="M26.3,35.5l13.7,11.1
				c0.5,0.4,0.6,1.2,0.2,1.7l-0.7,0.8c-0.4,0.5-1.2,0.6-1.7,0.2L24.1,38.2c-0.5-0.4-0.6-1.2-0.2-1.7l0.7-0.8
				C25,35.1,25.7,35,26.3,35.5"/>
			<path style="clip-path:url(#SVGID_00000042729332630821136730000003901580063153350284_);fill:#DCDDDE;" d="M41,53.4
				c0.9-1.1,2.5-1.3,3.7-0.4s1.3,2.6,0.4,3.7c-0.9,1.1-2.5,1.3-3.7,0.4C40.3,56.1,40.1,54.5,41,53.4"/>
			<path style="clip-path:url(#SVGID_00000042729332630821136730000003901580063153350284_);fill:#DCDDDE;" d="M15.3,32.5
				c0.9-1.1,2.5-1.3,3.7-0.4c1.1,0.9,1.3,2.6,0.4,3.7c-0.9,1.1-2.5,1.3-3.7,0.4C14.6,35.3,14.4,33.6,15.3,32.5"/>
			<path style="clip-path:url(#SVGID_00000042729332630821136730000003901580063153350284_);fill:#DCDDDE;" d="M45.1,60.1
				c-0.2,0.2-1.3,0.7-3.2,1.1c-1.7,0.3-3.2,0.4-3.7,0.3c-0.1,0-0.1,0-0.2,0c-1.1-1.4-3.8-4-9.9-8.9c-0.8-0.7-1.7-1.3-2.6-2.1
				c-7.9-6.5-11.6-9-13.4-10c0-0.1,0-0.1-0.1-0.2c-0.5-1.3-0.6-6.2-0.1-7.1c1.2-1.8,5.8-7.8,7.3-9.2c1,0.7,3.3,2.7,5.2,4.4
				c0,0,0,0,0.1,0.1l0.3,0.2c0,0,0,0,0,0c-0.4,0.6-0.4,1.4,0.2,1.8c0,0,0,0,0,0c7.6,6.1,19.1,15.4,19.9,16.1
				c0.4,0.4,1.1,0.5,1.6,0.2c0.1-0.1,0.2-0.2,0.3-0.3l0.3,0.2c0,0,0,0,0.1,0.1c2.1,1.5,4.5,3.3,5.4,4.1
				C51.5,52.8,46.6,58.5,45.1,60.1 M29.9,65.2c-0.9,0-4.9-2.2-10.8-7c-0.1,0-0.1-0.1-0.2-0.1c-5.9-4.8-8.7-8.1-8.9-9
				c-0.1-0.7,0.6-3.9,1.3-6.2c1.4,0.8,4.8,3.1,12.5,9.4c0,0,0,0,0,0c7.8,6.2,10.7,9,11.9,10.3C33.6,63.8,30.6,65.1,29.9,65.2
				 M14,26.2c-1.8,2.3-3.7,4.8-4.2,5.6c-1,1.4-0.9,5.5-0.5,7.9l-1.6-1.4c0,0,0,0,0,0c-0.5-0.4-1.3-0.4-1.7,0.2
				c-0.4,0.5-0.4,1.3,0.2,1.7l2.3,1.9c0,0,0,0,0,0c0.2,0.1,0.3,0.2,0.5,0.2c-0.8,2.5-1.5,5.9-1.3,7c0.1,0.7,0.5,2,3.4,4.9
				c1.7,1.7,3.9,3.7,6.4,5.7c0.1,0.1,0.1,0.1,0.2,0.2c2.9,2.3,9.9,7.7,12.6,7.5c1.1-0.1,4.2-1.5,6.6-2.8c0.1,0.2,0.2,0.3,0.3,0.4
				l2.3,1.9c0,0,0,0,0,0c0.5,0.4,1.3,0.4,1.7-0.2c0.4-0.5,0.3-1.3-0.2-1.7L39.3,64c2.4-0.1,6.4-0.9,7.6-2.2c0.6-0.6,2.7-3,4.6-5.2
				c1.1-1.3,2-2.4,2.6-3.2c1.1-1.5,1.4-2.2,1.1-2.9c-0.1-0.2-0.1-0.4-0.7-1l1.8-2.2c0.4-0.5,0.3-1.3-0.2-1.7l-4.2-3.4
				c-0.5-0.4-1.3-0.4-1.7,0.2l-1.9,2.3L26.4,26.9l1.9-2.3c0.4-0.5,0.3-1.3-0.2-1.7l-4.2-3.4c-0.5-0.4-1.3-0.4-1.7,0.2l-1.8,2.2
				c-0.7-0.4-0.9-0.4-1.1-0.5C18.5,21.3,17.8,21.5,14,26.2"/>
		</g>
		<polygon class="st201" points="18.3,53.3 18.4,54.1 18.9,53.6 19.5,54 19.5,53.3 20.2,53.2 19.6,52.7 20.1,52.1 19.4,52.1 
			19.3,51.4 18.8,51.9 18.2,51.5 18.2,52.2 17.5,52.3 18,52.8 17.6,53.4 		"/>
		<polygon class="st201" points="19.7,53.8 24.2,50.8 19.2,52.7 16.1,48.2 18.1,53.3 13.6,56.4 18.7,54.4 20.8,57.1 		"/>
		<polygon class="st201" points="18.1,52.9 13.9,52.6 17.9,53.8 17.7,58 18.8,53.9 19,53 		"/>
	</g>
</g>
</svg>
