<?xml version="1.0" encoding="utf-8"?>
<!-- Generator: Adobe Illustrator 26.5.0, SVG Export Plug-In . SVG Version: 6.00 Build 0)  -->
<svg version="1.1" xmlns="http://www.w3.org/2000/svg" xmlns:xlink="http://www.w3.org/1999/xlink" x="0px" y="0px"
	 viewBox="0 0 330.9 163.4" style="enable-background:new 0 0 330.9 163.4;" xml:space="preserve">
<style type="text/css">
	.st0{fill:#FFFFFF;}
	.st1{opacity:0.25;}
	.st2{clip-path:url(#SVGID_00000124141037224382839660000004993798656680943517_);fill:#C7C7C7;}
	.st3{clip-path:url(#SVGID_00000119837269038569106420000009524616332465819065_);fill:none;stroke:#C7C7C7;stroke-miterlimit:10;}
	.st4{clip-path:url(#SVGID_00000102542685994004682810000010607811294029492374_);fill:#FFFFFF;}
	.st5{filter:url(#Adobe_OpacityMaskFilter);}
	.st6{clip-path:url(#SVGID_00000121246633394737809720000005021513945446952633_);}
	
		.st7{clip-path:url(#SVGID_00000144327897828686812400000008304080357189466789_);fill:url(#SVGID_00000169518164555391373430000015012036732977111715_);}
	
		.st8{clip-path:url(#SVGID_00000121246633394737809720000005021513945446952633_);mask:url(#SVGID_00000162330670409857195810000000369481333106144690_);}
	.st9{clip-path:url(#SVGID_00000049930669447648299850000004317714010397020306_);fill:#FFFFFF;}
	.st10{fill:none;}
	.st11{fill:#EAEAEA;}
	.st12{fill:url(#SVGID_00000148659356412098052510000017188073014860718243_);}
	.st13{fill:none;stroke:#006496;stroke-linecap:round;stroke-miterlimit:10;}
	.st14{fill:#006496;}
	.st15{fill:none;stroke:#00823B;stroke-width:2;stroke-miterlimit:10;}
	.st16{fill:#079F4B;}
	.st17{clip-path:url(#SVGID_00000084492932250240252540000000283509823078866611_);fill:#0B74BB;}
	.st18{clip-path:url(#SVGID_00000084492932250240252540000000283509823078866611_);fill:none;stroke:#005E94;stroke-miterlimit:10;}
	.st19{clip-path:url(#SVGID_00000084492932250240252540000000283509823078866611_);fill:#FFFFFF;}
	.st20{clip-path:url(#SVGID_00000104670435537945972400000000413573346454483110_);fill:#FF911C;}
	.st21{clip-path:url(#SVGID_00000104670435537945972400000000413573346454483110_);fill:#F57F0A;}
	.st22{clip-path:url(#SVGID_00000104670435537945972400000000413573346454483110_);fill:#FFFFFF;}
	.st23{clip-path:url(#SVGID_00000077309690231212495470000004911798668177863327_);fill:#CF0A0A;}
	.st24{clip-path:url(#SVGID_00000077309690231212495470000004911798668177863327_);fill:#BA0000;}
	.st25{clip-path:url(#SVGID_00000077309690231212495470000004911798668177863327_);fill:#FFFFFF;}
	.st26{clip-path:url(#SVGID_00000158016758740404241510000009359718239902164623_);fill:#FFFFFF;}
	.st27{fill:#666666;}
	.st28{clip-path:url(#SVGID_00000029764597789525458200000005163884851585065114_);fill:#0073BA;}
	.st29{fill:#6E3788;}
	.st30{fill:#575756;}
	.st31{clip-path:url(#SVGID_00000115494096080721782580000009285704107591921082_);fill:#0B74BB;}
	.st32{clip-path:url(#SVGID_00000115494096080721782580000009285704107591921082_);fill:#702784;}
	.st33{clip-path:url(#SVGID_00000115494096080721782580000009285704107591921082_);fill:#AD2E91;}
	.st34{clip-path:url(#SVGID_00000115494096080721782580000009285704107591921082_);fill:#ED3694;}
	.st35{clip-path:url(#SVGID_00000115494096080721782580000009285704107591921082_);fill:#004E9A;}
	.st36{clip-path:url(#SVGID_00000030483134624954109370000011673641465973425060_);}
	.st37{fill:url(#SVGID_00000109003288879239112010000004181123202552544397_);}
	.st38{fill:#C6C6C6;}
	.st39{fill:#F4F4F4;}
	.st40{clip-path:url(#SVGID_00000016757922094943595150000003922567107668914569_);fill:#0B74BB;}
	.st41{clip-path:url(#SVGID_00000016757922094943595150000003922567107668914569_);fill:#702784;}
	.st42{clip-path:url(#SVGID_00000016757922094943595150000003922567107668914569_);fill:#AD2E91;}
	.st43{clip-path:url(#SVGID_00000016757922094943595150000003922567107668914569_);fill:#ED3694;}
	.st44{clip-path:url(#SVGID_00000016757922094943595150000003922567107668914569_);fill:#004E9A;}
	.st45{clip-path:url(#SVGID_00000010281191926081872410000006903231475859387798_);}
	.st46{fill:url(#SVGID_00000073694301468535034860000001057608715155394701_);}
	.st47{fill:#FF8F1C;}
	.st48{fill:none;stroke:#F57F0A;stroke-width:1.1069;stroke-miterlimit:10;}
	.st49{clip-path:url(#SVGID_00000111188555578135859380000001925446433137339047_);fill:#FFFFFF;}
	.st50{clip-path:url(#SVGID_00000140724577038719527430000011905574576361524370_);fill:#FFFFFF;}
	
		.st51{clip-path:url(#SVGID_00000140724577038719527430000011905574576361524370_);fill:none;stroke:#FFFFFF;stroke-width:0.6342;stroke-linecap:round;stroke-miterlimit:10;}
	.st52{clip-path:url(#SVGID_00000116196258767917488270000015009998226338154909_);fill:#FFFFFF;}
	.st53{clip-path:url(#SVGID_00000048498835851711578310000003506794776067291288_);fill:#FFFFFF;}
	.st54{fill:#CF0A0A;}
	.st55{fill:none;stroke:#BA0000;stroke-width:1.1069;stroke-miterlimit:10;}
	.st56{clip-path:url(#SVGID_00000040556455287597867070000007643486306929902215_);fill:#FFFFFF;}
	.st57{clip-path:url(#SVGID_00000059308872905279376300000007120550514056269740_);fill:#FFFFFF;}
	.st58{clip-path:url(#SVGID_00000145740082345674015290000007501070658476678290_);fill:#FFFFFF;}
	.st59{display:none;}
	.st60{display:inline;}
	.st61{display:inline;clip-path:url(#SVGID_00000013880625946120954750000018143020179710215346_);fill:#0073BA;}
	.st62{display:inline;clip-path:url(#SVGID_00000013880625946120954750000018143020179710215346_);fill:#97C3E6;}
	.st63{display:inline;clip-path:url(#SVGID_00000048468156856514898950000004367291379137931155_);fill:#97C2E5;}
	.st64{display:inline;clip-path:url(#SVGID_00000048468156856514898950000004367291379137931155_);fill:#FFFFFF;}
	.st65{display:inline;filter:url(#Adobe_OpacityMaskFilter_00000075874203919542331420000016712295966204727177_);}
	
		.st66{clip-path:url(#SVGID_00000048468156856514898950000004367291379137931155_);fill:url(#SVGID_00000031895546941755072720000003963306892914033587_);}
	
		.st67{display:inline;clip-path:url(#SVGID_00000048468156856514898950000004367291379137931155_);mask:url(#SVGID_00000069382444821703676690000014922364413740375938_);}
	.st68{clip-path:url(#SVGID_00000176738229064777917340000004688602546054237113_);fill:#FFFFFF;}
	.st69{display:inline;clip-path:url(#SVGID_00000048468156856514898950000004367291379137931155_);fill:#0073BA;}
	.st70{display:inline;clip-path:url(#SVGID_00000048468156856514898950000004367291379137931155_);fill:#97C3E6;}
	
		.st71{display:inline;clip-path:url(#SVGID_00000048468156856514898950000004367291379137931155_);fill:none;stroke:#97C3E6;stroke-width:0.573;stroke-linecap:round;stroke-miterlimit:10;}
	
		.st72{clip-path:url(#SVGID_00000072259582611341126030000016945967352109101999_);fill:none;stroke:#98C3E4;stroke-width:2;stroke-miterlimit:10;}
	.st73{clip-path:url(#SVGID_00000072259582611341126030000016945967352109101999_);fill:#98C3E4;}
	.st74{clip-path:url(#SVGID_00000072259582611341126030000016945967352109101999_);fill:#FFFFFF;}
	
		.st75{clip-path:url(#SVGID_00000072259582611341126030000016945967352109101999_);fill:none;stroke:#0073BA;stroke-width:2;stroke-miterlimit:10;}
	
		.st76{clip-path:url(#SVGID_00000072259582611341126030000016945967352109101999_);fill:none;stroke:#0073BA;stroke-width:1.683;stroke-miterlimit:10;}
	
		.st77{clip-path:url(#SVGID_00000072259582611341126030000016945967352109101999_);fill:none;stroke:#98C3E4;stroke-width:1.683;stroke-miterlimit:10;}
	.st78{display:inline;fill:none;stroke:#0073BA;stroke-width:1.683;stroke-miterlimit:10;}
	.st79{fill:#006396;}
	.st80{filter:url(#Adobe_OpacityMaskFilter_00000013874572825788737230000016637424480893767052_);}
	
		.st81{clip-path:url(#SVGID_00000005241531662087551110000005292225683222250371_);fill:url(#SVGID_00000070832693421891424810000005235078010705074596_);}
	
		.st82{clip-path:url(#SVGID_00000005241531662087551110000005292225683222250371_);mask:url(#SVGID_00000175323301944755686540000010712842255938317952_);}
	
		.st83{clip-path:url(#SVGID_00000042006896978445287330000010441917400987422654_);fill:none;stroke:#006396;stroke-width:0.771;stroke-linecap:round;}
	.st84{display:inline;fill:url(#SVGID_00000128447343554061286550000010950258627397030037_);}
	
		.st85{clip-path:url(#SVGID_00000141457116927239771790000009435680673318495880_);fill:none;stroke:#99C3E2;stroke-width:1.683;stroke-miterlimit:10;}
	
		.st86{clip-path:url(#SVGID_00000141457116927239771790000009435680673318495880_);fill:none;stroke:#0073BA;stroke-width:2;stroke-miterlimit:10;}
	
		.st87{clip-path:url(#SVGID_00000141457116927239771790000009435680673318495880_);fill:none;stroke:#0073BA;stroke-width:1.683;stroke-miterlimit:10;}
	.st88{clip-path:url(#SVGID_00000110459850160591028490000011216090975489613453_);fill:#FFFFFF;}
	
		.st89{clip-path:url(#SVGID_00000110459850160591028490000011216090975489613453_);fill:none;stroke:#0073BA;stroke-width:2;stroke-miterlimit:10;}
	
		.st90{clip-path:url(#SVGID_00000110459850160591028490000011216090975489613453_);fill:none;stroke:#98C3E4;stroke-width:1.683;stroke-miterlimit:10;}
	.st91{clip-path:url(#SVGID_00000088132690384655205130000011538777630422458297_);fill:#98C3E4;}
	
		.st92{clip-path:url(#SVGID_00000088132690384655205130000011538777630422458297_);fill:none;stroke:#98C3E3;stroke-width:0.75;stroke-linejoin:round;stroke-miterlimit:10;}
	.st93{clip-path:url(#SVGID_00000100382688189850372430000003025191009255443383_);fill:#0073BA;}
	.st94{clip-path:url(#SVGID_00000100382688189850372430000003025191009255443383_);fill:none;}
	.st95{display:inline;fill:#98C3E4;}
	.st96{display:inline;clip-path:url(#SVGID_00000097463480087418881920000001954642279645852589_);fill:#0073BA;}
	.st97{display:inline;clip-path:url(#SVGID_00000097463480087418881920000001954642279645852589_);fill:#97C3E6;}
	
		.st98{display:inline;clip-path:url(#SVGID_00000097463480087418881920000001954642279645852589_);fill:none;stroke:#97C3E6;stroke-width:1.147;stroke-linecap:round;stroke-miterlimit:10;}
	.st99{display:inline;clip-path:url(#SVGID_00000165221295478299009280000000402502736107184545_);fill:#0073BA;}
	.st100{display:none;fill:#0073BA;}
	.st101{display:inline;clip-path:url(#SVGID_00000003827976658975530540000003755406519473995174_);fill:#97C3E6;}
	.st102{display:inline;clip-path:url(#SVGID_00000086650066473626928990000008737580588427457466_);fill:#0073BA;}
	.st103{display:inline;clip-path:url(#SVGID_00000086650066473626928990000008737580588427457466_);fill:#98C3E4;}
	.st104{display:inline;filter:url(#Adobe_OpacityMaskFilter_00000160879879191775450330000011549823376246494910_);}
	
		.st105{clip-path:url(#SVGID_00000073701001921066677270000006852507211575531911_);fill:url(#SVGID_00000039134589438705212920000012731123019732137135_);}
	
		.st106{display:inline;clip-path:url(#SVGID_00000073701001921066677270000006852507211575531911_);mask:url(#SVGID_00000152266264988205868190000016928172738091043247_);}
	.st107{clip-path:url(#SVGID_00000006694102843022806330000004706942099474381987_);fill:#FFFFFF;}
	.st108{clip-path:url(#SVGID_00000006694102843022806330000004706942099474381987_);}
	.st109{clip-path:url(#SVGID_00000019671709252769752250000012361171615935742884_);fill:#0073BA;}
	.st110{display:inline;clip-path:url(#SVGID_00000073701001921066677270000006852507211575531911_);fill:#0073BA;}
	.st111{display:inline;clip-path:url(#SVGID_00000165229515951128668470000000293961922220686525_);fill:#FFFFFF;}
	.st112{display:inline;clip-path:url(#SVGID_00000165229515951128668470000000293961922220686525_);fill:#97C3E6;}
	.st113{display:none;fill:#D92B80;}
	.st114{display:inline;clip-path:url(#SVGID_00000089562417720970627430000016735422191926570173_);fill:#0073BA;}
	.st115{display:none;fill:#98C3E4;}
	.st116{display:inline;clip-path:url(#SVGID_00000142163099724698954430000011393365035189373318_);fill:#98C3E4;}
	.st117{display:inline;clip-path:url(#SVGID_00000142163099724698954430000011393365035189373318_);fill:#0073BA;}
	.st118{display:inline;clip-path:url(#SVGID_00000068661303941433476330000002977905719057989551_);fill:#98C3E4;}
	.st119{display:inline;clip-path:url(#SVGID_00000068661303941433476330000002977905719057989551_);fill:#0073BA;}
	.st120{display:inline;clip-path:url(#SVGID_00000068661303941433476330000002977905719057989551_);}
	.st121{clip-path:url(#SVGID_00000059996241732861556480000013372710786739311012_);fill:#0073BA;}
	.st122{display:inline;clip-path:url(#SVGID_00000066475255134437750980000001429001309278180248_);}
	.st123{clip-path:url(#SVGID_00000099637951226994637110000017069517500880328629_);}
	.st124{display:inline;clip-path:url(#SVGID_00000009561503502982886890000001908621320413300149_);}
	.st125{clip-path:url(#SVGID_00000044156666387102054950000002874916409689523609_);}
	.st126{display:inline;clip-path:url(#SVGID_00000044896218049486407890000014994634181818015935_);}
	.st127{clip-path:url(#SVGID_00000134212064567812499260000000536789797102302106_);}
	.st128{display:inline;clip-path:url(#SVGID_00000113329509965221037510000017812952497924108168_);fill:#D92B80;}
	.st129{display:inline;clip-path:url(#SVGID_00000113329509965221037510000017812952497924108168_);fill:#0073BA;}
	
		.st130{display:inline;clip-path:url(#SVGID_00000054955442420267566220000017547583573357825160_);fill:none;stroke:#FFFFFF;stroke-linejoin:bevel;stroke-miterlimit:10;}
	.st131{display:inline;clip-path:url(#SVGID_00000026144319136398762420000013607899994412218257_);fill:#0073BA;}
	.st132{display:inline;clip-path:url(#SVGID_00000042728498052163749170000003420816994314763164_);fill:#0073BA;}
	.st133{display:inline;clip-path:url(#SVGID_00000042728498052163749170000003420816994314763164_);fill:#96C2E5;}
	.st134{display:inline;clip-path:url(#SVGID_00000136412483497568066390000014446276574578157464_);fill:#96C2E5;}
	.st135{display:inline;clip-path:url(#SVGID_00000136412483497568066390000014446276574578157464_);fill:#0073BA;}
	.st136{display:inline;clip-path:url(#SVGID_00000067958676008145884240000013620479510394880412_);fill:#98C3E4;}
	.st137{display:inline;clip-path:url(#SVGID_00000067958676008145884240000013620479510394880412_);fill:#0073BA;}
	.st138{clip-path:url(#SVGID_00000019668803340307156490000009479865693657706666_);fill:#0073BA;}
	.st139{clip-path:url(#SVGID_00000019668803340307156490000009479865693657706666_);fill:#98C3E4;}
	
		.st140{display:inline;clip-path:url(#SVGID_00000094617791772891332140000001580489508690427052_);fill:none;stroke:#97C3E6;stroke-width:3;stroke-miterlimit:10;}
	.st141{display:inline;fill:#FFFFFF;}
	.st142{display:inline;clip-path:url(#SVGID_00000003099336763822372130000010392453342697745066_);fill:#0073BA;}
	.st143{display:inline;clip-path:url(#SVGID_00000003099336763822372130000010392453342697745066_);fill:#97C3E6;}
	.st144{display:inline;fill:#0073BA;}
	.st145{display:inline;fill:#97C3E6;}
	.st146{display:inline;clip-path:url(#SVGID_00000024686071680093226970000000608528922414449318_);fill:#CF0A0A;}
	.st147{display:inline;clip-path:url(#SVGID_00000024686071680093226970000000608528922414449318_);fill:#EDA6A6;}
	.st148{display:inline;clip-path:url(#SVGID_00000072247596259008742330000009258867218242644883_);fill:#0073BA;}
	.st149{display:inline;clip-path:url(#SVGID_00000072247596259008742330000009258867218242644883_);fill:#97C3E6;}
	.st150{display:inline;fill:none;stroke:#97C2E6;stroke-width:2.566;stroke-miterlimit:10;}
	.st151{display:inline;fill:#99C2E5;}
	.st152{display:inline;filter:url(#Adobe_OpacityMaskFilter_00000054944942766028063920000008489419929877853825_);}
	.st153{fill:url(#SVGID_00000050622507108620248190000004791589575342802878_);}
	.st154{display:inline;mask:url(#SVGID_00000119822855568784749490000007502877553670712758_);}
	.st155{clip-path:url(#SVGID_00000041267957567846664450000000626839400817040270_);fill:#FFFFFF;}
	.st156{display:inline;fill:none;}
	
		.st157{display:inline;clip-path:url(#SVGID_00000049901422342579183400000003613769248603877517_);fill:none;stroke:#97C3E6;stroke-width:2.566;stroke-miterlimit:10;}
	.st158{display:inline;clip-path:url(#SVGID_00000089550617778098359950000012616426471734275502_);fill:#0073BA;}
	.st159{display:inline;clip-path:url(#SVGID_00000089550617778098359950000012616426471734275502_);fill:#97C3E6;}
	.st160{filter:url(#Adobe_OpacityMaskFilter_00000170998634102621260560000004615661267083168652_);}
	
		.st161{clip-path:url(#SVGID_00000135677992833939355790000012154550734313863831_);fill:url(#SVGID_00000055677328175765479090000006630910458499252879_);}
	
		.st162{clip-path:url(#SVGID_00000135677992833939355790000012154550734313863831_);mask:url(#SVGID_00000112603388390916218760000009988830241463124365_);}
	.st163{clip-path:url(#SVGID_00000172441317608694251210000017483019336217075643_);fill:none;stroke:#FFFFFF;stroke-width:2;}
	.st164{clip-path:url(#SVGID_00000081622055875986682640000010734135085827661755_);fill:#FFFFFF;}
	.st165{clip-path:url(#SVGID_00000081622055875986682640000010734135085827661755_);fill:#283484;}
	.st166{filter:url(#Adobe_OpacityMaskFilter_00000015322334755314084530000010546837329938434738_);}
	
		.st167{clip-path:url(#SVGID_00000072973910589867632560000000693474933906169004_);fill:url(#SVGID_00000158020097793813182720000001231692755106346112_);}
	
		.st168{clip-path:url(#SVGID_00000072973910589867632560000000693474933906169004_);mask:url(#SVGID_00000092453114689066872740000010725550242516617654_);}
	.st169{clip-path:url(#SVGID_00000066495653791564579890000006682507023293420466_);fill:none;stroke:#FFFFFF;stroke-width:2;}
	.st170{clip-path:url(#SVGID_00000028326181513838529790000014643982906715994007_);fill:#FFFFFF;}
	.st171{clip-path:url(#SVGID_00000028326181513838529790000014643982906715994007_);fill:#283484;}
	.st172{clip-path:url(#SVGID_00000156589640656075681800000016722573305356992666_);fill:#0073BA;}
	.st173{filter:url(#Adobe_OpacityMaskFilter_00000068643250102860485260000016524786863455775626_);}
	
		.st174{clip-path:url(#SVGID_00000057129608166434570380000010692404953004173459_);fill:url(#SVGID_00000005241944710558260380000007003810265137552003_);}
	
		.st175{clip-path:url(#SVGID_00000057129608166434570380000010692404953004173459_);mask:url(#SVGID_00000157290576423175758190000003075715645256885166_);}
	.st176{clip-path:url(#SVGID_00000108282080734753349460000012608979358607145870_);fill:none;stroke:#FFFFFF;stroke-width:2;}
	.st177{clip-path:url(#SVGID_00000083795143587089510950000004235407473946351234_);fill:#FFFFFF;}
	.st178{clip-path:url(#SVGID_00000083795143587089510950000004235407473946351234_);fill:#283484;}
	.st179{clip-path:url(#SVGID_00000106826937036468543660000006040528495268989586_);fill:#FFFFFF;}
	.st180{clip-path:url(#SVGID_00000066515531471530620910000017256893951903783598_);fill:#99C3E2;}
	.st181{clip-path:url(#SVGID_00000066515531471530620910000017256893951903783598_);fill:#0073BA;}
	.st182{display:inline;fill:#99C3E2;}
	.st183{filter:url(#Adobe_OpacityMaskFilter_00000128447926481612632700000008602690029951464345_);}
	
		.st184{clip-path:url(#SVGID_00000086680292339248074640000015755361886720334753_);fill:url(#SVGID_00000048488017944247912570000005143594055207871379_);}
	
		.st185{clip-path:url(#SVGID_00000086680292339248074640000015755361886720334753_);mask:url(#SVGID_00000049927427271564038820000011884159676345330054_);}
	.st186{clip-path:url(#SVGID_00000183948007165671572120000002043190383099735205_);fill:#FFFFFF;}
	.st187{filter:url(#Adobe_OpacityMaskFilter_00000052083860633978025940000002764976557488192943_);}
	
		.st188{clip-path:url(#SVGID_00000086680292339248074640000015755361886720334753_);fill:url(#SVGID_00000023267946534635708950000000919439740652166804_);}
	
		.st189{clip-path:url(#SVGID_00000086680292339248074640000015755361886720334753_);mask:url(#SVGID_00000026157918515717967030000007833274492721873029_);}
	.st190{clip-path:url(#SVGID_00000180349747555329335240000017190311316077946028_);fill:#FFFFFF;}
	.st191{clip-path:url(#SVGID_00000086680292339248074640000015755361886720334753_);fill:#99C3E2;}
	.st192{clip-path:url(#SVGID_00000086680292339248074640000015755361886720334753_);fill:#0073BA;}
	.st193{display:inline;clip-path:url(#SVGID_00000107546252936712443600000014018395721978082236_);fill:#99C3E2;}
	.st194{display:inline;clip-path:url(#SVGID_00000107546252936712443600000014018395721978082236_);fill:#0073BA;}
	.st195{display:inline;clip-path:url(#SVGID_00000107546252936712443600000014018395721978082236_);fill:#079F4B;}
	
		.st196{display:inline;clip-path:url(#SVGID_00000107546252936712443600000014018395721978082236_);fill:none;stroke:#069E4B;stroke-miterlimit:10;}
	.st197{display:inline;filter:url(#Adobe_OpacityMaskFilter_00000139269114663738492540000015205175200548722827_);}
	
		.st198{clip-path:url(#SVGID_00000107546252936712443600000014018395721978082236_);fill:url(#SVGID_00000114048045297653851980000000061381450427640753_);}
	
		.st199{display:inline;clip-path:url(#SVGID_00000107546252936712443600000014018395721978082236_);mask:url(#SVGID_00000057113374802203454780000002720890274022439328_);}
	
		.st200{clip-path:url(#SVGID_00000178921010895916239410000014505418225337232031_);fill:none;stroke:#079F4B;stroke-width:2.5;stroke-linecap:round;stroke-linejoin:round;stroke-miterlimit:10;}
	.st201{display:inline;clip-path:url(#SVGID_00000114070714592009058870000012744797844422861205_);fill:#99C3E2;}
	.st202{display:inline;clip-path:url(#SVGID_00000114070714592009058870000012744797844422861205_);fill:#0073BA;}
	.st203{display:inline;clip-path:url(#SVGID_00000114070714592009058870000012744797844422861205_);fill:#CF0A0A;}
	
		.st204{display:inline;clip-path:url(#SVGID_00000114070714592009058870000012744797844422861205_);fill:none;stroke:#CF0A0A;stroke-miterlimit:10;}
	.st205{display:inline;filter:url(#Adobe_OpacityMaskFilter_00000075135496906665855660000009196129185605322152_);}
	
		.st206{clip-path:url(#SVGID_00000114070714592009058870000012744797844422861205_);fill:url(#SVGID_00000013185937344043998670000015854636752051268241_);}
	
		.st207{display:inline;clip-path:url(#SVGID_00000114070714592009058870000012744797844422861205_);mask:url(#SVGID_00000121262893611427882280000014991886053308365697_);}
	
		.st208{clip-path:url(#SVGID_00000126284448241748423630000003455633900619522183_);fill:none;stroke:#CF0A0A;stroke-width:2.5;stroke-linecap:round;stroke-linejoin:round;stroke-miterlimit:10;}
	.st209{display:inline;clip-path:url(#SVGID_00000167397709325741570600000003465708089256884634_);fill:#9BC3E0;}
	.st210{display:inline;fill:#777777;}
	.st211{clip-path:url(#SVGID_00000114056596943674745270000000903302037215573138_);fill:#DCDDDE;}
	.st212{filter:url(#Adobe_OpacityMaskFilter_00000033369335457031247360000008123452966504059016_);}
	
		.st213{clip-path:url(#SVGID_00000114056596943674745270000000903302037215573138_);fill:url(#SVGID_00000092452625104759248340000014225729360120029857_);}
	
		.st214{clip-path:url(#SVGID_00000114056596943674745270000000903302037215573138_);mask:url(#SVGID_00000021805697426273139150000006711272343678864008_);}
	.st215{clip-path:url(#SVGID_00000075863560758759422890000001306491660457189514_);fill:#FF911C;}
	.st216{filter:url(#Adobe_OpacityMaskFilter_00000096741741992635177600000018274544895603568543_);}
	
		.st217{clip-path:url(#SVGID_00000176726289269743141490000018224731077538402210_);fill:url(#SVGID_00000026140173860719760190000009356638486204995726_);}
	
		.st218{clip-path:url(#SVGID_00000176726289269743141490000018224731077538402210_);mask:url(#SVGID_00000005262019307151956660000001778373140721882025_);}
	.st219{clip-path:url(#SVGID_00000178897439527408610040000016798360790993215151_);fill:#FFFFFF;}
	
		.st220{clip-path:url(#SVGID_00000178897439527408610040000016798360790993215151_);fill:none;stroke:#FF911C;stroke-width:1.75;stroke-miterlimit:10;}
	.st221{clip-path:url(#SVGID_00000176726289269743141490000018224731077538402210_);fill:#FF911C;}
	.st222{clip-path:url(#SVGID_00000183250203613118633110000015826963054337822607_);fill:#DCDDDE;}
	.st223{filter:url(#Adobe_OpacityMaskFilter_00000078016394502096819240000014151416386348278202_);}
	
		.st224{clip-path:url(#SVGID_00000183250203613118633110000015826963054337822607_);fill:url(#SVGID_00000029726462591907000240000005801247203633208985_);}
	
		.st225{clip-path:url(#SVGID_00000183250203613118633110000015826963054337822607_);mask:url(#SVGID_00000068673659087976700200000004949634663711998595_);}
	.st226{clip-path:url(#SVGID_00000067201177047869724630000005958680746555978912_);fill:#069E4B;}
	.st227{clip-path:url(#SVGID_00000102509535116753135940000016688926699220592023_);fill:#FFFFFF;}
	.st228{clip-path:url(#SVGID_00000102509535116753135940000016688926699220592023_);fill:#099F4A;}
	
		.st229{clip-path:url(#SVGID_00000069379908430468446930000012971366610010938272_);fill:none;stroke:#FE8F1C;stroke-width:4.887;stroke-miterlimit:10;}
	.st230{display:inline;fill:#FF911C;}
	.st231{clip-path:url(#SVGID_00000085957481530687976860000015332601274071711916_);fill:#FF911C;}
	.st232{display:inline;clip-path:url(#SVGID_00000148651301685071750980000009094998484807655836_);fill:#DCDDDE;}
	.st233{clip-path:url(#SVGID_00000026873058496253422730000013394554900030385330_);fill:#DCDDDE;}
	.st234{display:inline;fill:#DCDDDE;}
	.st235{display:inline;clip-path:url(#SVGID_00000065779697653854670670000002799241490162568625_);fill:#DCDDDE;}
	.st236{display:inline;filter:url(#Adobe_OpacityMaskFilter_00000075123481723272550330000006847364193721054094_);}
	
		.st237{clip-path:url(#SVGID_00000065779697653854670670000002799241490162568625_);fill:url(#SVGID_00000144336493406461071110000002797496780261511345_);}
	
		.st238{display:inline;clip-path:url(#SVGID_00000065779697653854670670000002799241490162568625_);mask:url(#SVGID_00000170244142731303938150000002545174701501016985_);}
	
		.st239{clip-path:url(#SVGID_00000102505363189334498520000012633253545180945582_);fill:none;stroke:#DCDDDE;stroke-width:1.75;stroke-miterlimit:10;}
	.st240{clip-path:url(#SVGID_00000170964884165886362850000003036384067538448287_);fill:#FF911C;}
	.st241{filter:url(#Adobe_OpacityMaskFilter_00000134941456936522842460000013395070412777880254_);}
	
		.st242{clip-path:url(#SVGID_00000170964884165886362850000003036384067538448287_);fill:url(#SVGID_00000161590311480793498380000013542375971885802424_);}
	
		.st243{clip-path:url(#SVGID_00000170964884165886362850000003036384067538448287_);mask:url(#SVGID_00000172432496484206478900000006827366923633055422_);}
	
		.st244{clip-path:url(#SVGID_00000183967254821791929890000014237188583218828710_);fill:none;stroke:#FF911C;stroke-width:1.75;stroke-miterlimit:10;}
	.st245{fill:url(#SVGID_00000007415279641945364560000011453997105357691052_);}
	.st246{clip-path:url(#SVGID_00000085247030171928459480000012596244627948723133_);}
	.st247{fill:url(#SVGID_00000025419520612987084370000018283030088374293646_);}
	.st248{clip-path:url(#SVGID_00000052801614518606036610000004030843636753290647_);}
	.st249{fill:url(#SVGID_00000134937880743445324530000006248063556093725836_);}
	.st250{clip-path:url(#SVGID_00000139992446706331800630000014587051371190281387_);}
	.st251{fill:url(#SVGID_00000009574456413620632180000004010889604804858023_);}
	.st252{clip-path:url(#SVGID_00000013897407790619372940000000231524871432199578_);}
</style>
<g id="Layer_1">
</g>
<g id="Owners">
</g>
<g id="AutoScore">
</g>
<g id="History_Icons">
</g>
<g id="History_Glance">
	<g id="Layer_5" class="st59">
	</g>
</g>
<g id="Pre-Approved_Buttons">
</g>
<g id="AutoScore_Modal">
</g>
<g id="Accident_Vehicle">
	<g class="st59">
		<defs>
			<rect id="SVGID_00000031925032480425119210000001751917678205520558_" x="15.1" y="16" width="300.7" height="131.4"/>
		</defs>
		<clipPath id="SVGID_00000181783698549623253130000009358981592383317921_" class="st60">
			<use xlink:href="#SVGID_00000031925032480425119210000001751917678205520558_"  style="overflow:visible;"/>
		</clipPath>
		<path style="display:inline;clip-path:url(#SVGID_00000181783698549623253130000009358981592383317921_);fill:#9BC3E0;" d="
			M305.5,45c-0.8-0.9-1.5-1.7-2.3-2.6c-1.5-1.6-2.9-3.2-4.4-4.8c-3.1-3.3-6.4-6.3-10.2-8.7c-1-0.7-2.1-1.3-3.2-1.9
			c-0.6-0.3-1.1-0.6-1.7-0.9c-0.3-0.2-0.6-0.3-0.9-0.5c-0.2-0.1-0.5-0.2-0.7-0.4c2.8-0.3,5.5-0.2,8.2,0.4c1.8,0.4,3.7,0.9,5.4,1.7
			c1.6,0.8,2.9,1.9,4.1,3.4c1.2,1.5,2.2,3.1,3.1,4.7c1,1.7,1.9,3.5,2.7,5.4c0.9,2.1,1.5,4.4,2,6.6C306.9,46.7,306.2,45.8,305.5,45z
			 M305.4,123.2c-0.8,1.9-1.8,3.8-2.9,5.6c-0.9,1.6-1.9,3.2-3.1,4.6c-1.2,1.4-2.7,2.4-4.4,3.1c-1.8,0.7-3.8,1.2-5.7,1.6
			c-2.3,0.4-4.7,0.4-7,0.2c0.9-0.6,1.9-1.1,2.9-1.6c1-0.6,2-1.1,3-1.7c1.8-1.1,3.6-2.4,5.2-3.7c3.4-2.8,6.3-6.1,9.2-9.3
			c1.8-1.9,3.5-3.9,5.2-5.9C307.1,118.4,306.4,120.9,305.4,123.2z M234.5,95.4c-0.4,4.4-0.9,8.7-1.7,13.1c-0.8,4.2-1.6,8.5-2.9,12.6
			c-0.6,1.7-1.3,3.4-2.5,4.7c-1.3,1.3-3.1,2.1-4.9,2.5c-2.1,0.5-4.2,0.7-6.3,0.5c-2.1-0.2-4.2-0.8-6.2-1.4
			c-4.3-1.2-8.5-2.4-12.8-3.5c-2.1-0.6-4.3-1.2-6.4-1.8c-2-0.6-4-1.1-5.9-1.9c-1.3-0.6-2.9-1.5-2.7-3.2c0.1-1.1,0.5-2.1,0.8-3.1
			c0.3-1,0.6-2.1,0.8-3.2c0.5-2.1,0.9-4.3,1.3-6.4c0.7-4.4,1-8.8,1.2-13.2c0.2-4.4,0.2-8.7,0.2-13.1c-0.1-4.4-0.2-8.9-0.7-13.3
			c-0.4-4.3-1.1-8.6-2.2-12.9c-0.3-1-0.5-2-0.8-3c-0.3-0.9-0.7-1.9-0.6-2.9c0.1-1.7,2.1-2.5,3.4-3c2-0.8,4-1.3,6-1.9
			c2.1-0.6,4.3-1.2,6.4-1.8c4.2-1.2,8.5-2.4,12.7-3.5c2.1-0.6,4.1-1.1,6.3-1.2c2.1-0.1,4.2,0.2,6.2,0.7c1.8,0.5,3.4,1.4,4.6,2.9
			c1.2,1.5,1.8,3.3,2.3,5c1.2,4.1,2.1,8.4,2.8,12.7c0.7,4.3,1.3,8.7,1.6,13.1C235.3,77.8,235.2,86.6,234.5,95.4L234.5,95.4z
			 M191.3,133.4c-7.5,0-15.1,0.1-22.6,0c-7.6-0.1-15.2-0.2-22.7-0.2c-7.5-0.1-15-0.3-22.5-0.6c-7.6-0.3-15.2-0.9-22.7-1.5
			c-1.9-0.2-3.7-0.3-5.6-0.6c-1-0.1-1.9-0.2-2.9-0.4c-0.8-0.1-1.6-0.3-2.3-0.7c-0.6-0.4-0.8-1.1-0.2-1.6c0.5-0.5,1.3-0.9,2-1.1
			c1.7-0.7,3.4-1.2,5.2-1.7c7.2-2.1,14.8-2.9,22.3-3.3c7.5-0.4,15-0.7,22.5-1c7.5-0.2,15.1-0.4,22.6,0.3c7.5,0.6,14.9,2.3,22.2,4
			c3.7,0.8,7.4,1.7,11.1,2.6c0.2,0.1,0.4,0.1,0.7,0.2c0.3,0.1,0.3,0.1,0.5,0.4c0.2,0.4,0.5,0.8,0.8,1.1c0.2,0.2,0.3,0.4,0.5,0.6
			c0.5,0.7,1,1.4,1.4,2.1c0.3,0.5,0.6,0.9,1,1.4C198.7,133.4,195,133.4,191.3,133.4z M73.1,121.8c-0.9,0.1-1.8,0.3-2.7,0.4
			c-0.4,0.1-0.9,0.1-1.3,0.2c-0.4,0.1-0.9,0.2-1.3,0.2c-0.8,0-1.2-0.7-1.7-1.3c-0.5-0.7-0.9-1.4-1.3-2.1c-1.7-3.1-2.6-6.6-3.4-10.1
			c-1.8-7.1-2.6-14.4-2.8-21.8c-0.2-7.3-0.1-14.6,0.7-21.9c0.4-3.6,1.1-7.3,1.9-10.8c0.8-3.4,1.7-6.9,3.3-10.1
			c0.4-0.7,0.8-1.4,1.3-2.1c0.4-0.6,0.9-1.5,1.6-1.7c0.7-0.2,1.6,0.1,2.3,0.2c0.9,0.1,1.8,0.3,2.7,0.4c3.7,0.6,7.3,1.1,11,1.7
			c3.6,0.5,7.2,1,10.7,1.7c0.8,0.2,1.7,0.3,2.5,0.6c0.7,0.2,1.4,0.5,1.7,1.1c0.3,0.5,0.3,1.2,0.3,1.8c0,0.8-0.1,1.6-0.1,2.4
			c-0.3,3.6-0.7,7.3-1,10.9c-0.3,3.7-0.4,7.3-0.6,11c-0.2,7.3-0.1,14.7,0.1,22c0.1,3.7,0.4,7.4,0.7,11c0.2,1.8,0.3,3.6,0.5,5.5
			c0.1,0.9,0.2,1.8,0.3,2.6c0.1,0.8,0.1,1.7-0.1,2.5c-0.2,0.8-0.7,1.2-1.5,1.5c-0.8,0.3-1.6,0.5-2.4,0.7c-1.7,0.3-3.4,0.6-5.1,0.8
			c-3.7,0.6-7.3,1.1-11,1.7C76.7,121.3,74.9,121.6,73.1,121.8z M90.4,33.7c0.7-0.3,1.5-0.4,2.3-0.6c0.9-0.1,1.7-0.2,2.6-0.4
			c3.5-0.4,6.9-0.7,10.4-0.9c7-0.6,14-0.9,21-1.2c6.9-0.3,13.9-0.4,20.8-0.5c7-0.1,14-0.2,20.9-0.2c1.7,0,3.4,0,5.1-0.1
			c3.8,0,7.5,0,11.3,0.1c3.7,0,7.5,0,11.2,0.1c2.1,0,4.2,0,6.3,0c-0.8,1.1-1.5,2.2-2.3,3.3c-0.1,0.1-0.2,0.3-0.3,0.4
			c-0.2,0.2-0.3,0.4-0.5,0.6c-0.2,0.3-0.4,0.7-0.7,1c-0.1,0.1,0,0.1-0.2,0.1c-0.1,0-0.2,0-0.3,0.1c-0.2,0.1-0.4,0.1-0.7,0.2
			c-0.4,0.1-0.9,0.2-1.3,0.3c-0.8,0.2-1.7,0.4-2.5,0.6c-3.4,0.8-6.8,1.6-10.2,2.3c-3.4,0.8-6.8,1.5-10.2,2.2
			c-6.8,1.3-13.8,1.6-20.8,1.6c-7,0-13.9-0.2-20.9-0.5c-6.9-0.3-13.9-0.5-20.8-1.3c-3.5-0.4-6.9-0.9-10.3-1.7
			c-1.7-0.4-3.3-0.8-5-1.3c-1.6-0.5-3.2-1-4.6-1.7c-0.5-0.3-1.3-0.6-1.5-1.3C89.2,34.4,89.9,33.9,90.4,33.7L90.4,33.7z M45.2,31.5
			c-0.2,0.1-0.7,0.1-0.9,0.2c-0.6,0.1-1.2,0.3-1.8,0.4c-2.3,0.6-4.6,1.4-6.6,2.6c-3.9,2.3-6.9,6.1-9,10.1c-1.1,2.2-1.9,4.5-2.6,6.8
			c-0.7,2.3-1.3,4.7-1.8,7.1c-0.1,0.6-0.2,1.1-0.3,1.7c-0.3-2.7-0.5-5.5-0.1-8.3c0.3-2.7,1.2-5.3,2-7.9c1.5-4.4,3.3-8.9,6.8-12
			c1.7-1.5,3.7-2.4,5.9-2.8c1.2-0.2,2.4-0.3,3.6-0.4c1,0,2.1,0,3.1,0.2c0.9,0.2,1.9,0.6,1.9,1.6C45.4,31.1,45.3,31.4,45.2,31.5
			L45.2,31.5z M45,133.4c-0.6,0.7-1.7,0.8-2.6,0.8c-2.1,0.2-4.3,0-6.4-0.5c-2.1-0.5-4.1-1.6-5.6-3.1c-1.6-1.6-2.9-3.5-3.9-5.5
			c-1.1-2.1-1.9-4.4-2.6-6.7c-0.8-2.3-1.5-4.7-1.8-7.2c-0.3-2.8-0.2-5.6,0.1-8.3c0.4,1.9,0.8,3.9,1.3,5.8c0.5,2,1.1,3.9,1.8,5.8
			c0.6,1.7,1.5,3.4,2.2,5c0.6,1.3,1.4,2.4,2.3,3.5c1.2,1.5,2.5,2.9,4,4.1c3,2.4,6.8,3.7,10.5,4.5c0.3,0.1,0.6,0.1,0.9,0.2
			c0,0,0.1,0,0.1,0c0.1,0.1,0.1,0.4,0.1,0.5C45.4,132.8,45.3,133.2,45,133.4z M314.9,55.1c-0.3-1.8-0.7-3.6-1.3-5.3
			c-0.6-1.7-1.4-3.4-2.3-5c-0.9-1.7-2-3.4-2.9-5.1c-1-1.7-1.9-3.5-2.7-5.2c-0.8-1.7-1.7-3.4-2.8-4.9c-1.1-1.5-2.5-2.5-4.2-3.3
			c-3.2-1.5-6.8-2.2-10.3-2.6c-3.8-0.4-7.6-0.5-11.4-0.6c-8.1,0-16.2,0-24.2-0.1c-8,0-16.1-0.2-24.1-0.5c-0.5,0-0.9,0-1.4,0
			c-0.2,0-0.5,0-0.7,0c-0.1,0-0.6-0.1-0.7,0c-0.7,0.1-1.4,0-2.1-0.1c-0.7,0-1.5,0-2.2-0.1c-1.5,0-3-0.1-4.5-0.1c-3,0-6-0.1-9-0.1
			c-0.8,0-1.5,0-2.3,0c-0.2,0-0.3,0-0.5,0c-0.2,0-0.3,0-0.5-0.2c-0.2-0.3-0.5-0.6-0.7-0.9c-0.9-1-1.7-2-2.7-2.9
			c-0.9-0.8-2-1.5-3.2-1.9c-1.2-0.4-2.5-0.4-3.8-0.3c-0.5,0-1,0.1-1.2,0.6c-0.1,0.5,0,1,0.2,1.5c0.3,0.6,0.6,1.2,1,1.8
			c0.4,0.7,0.8,1.4,1.2,2.1c-3.1,0-6.2,0-9.3,0c-4.4,0-8.8,0-13.2,0c-3.7,0-7.4,0-11.1,0c-2,0-4,0-6,0c-0.7,0-1.4,0-2.1,0
			c-0.6,0-1.3-0.2-1.9-0.3c-1.9-0.3-3.7-0.3-5.6-0.3c-0.9,0-1.8,0-2.7,0.1c-0.9,0.1-1.7,0.3-2.6,0.5c-0.4,0.1-0.8,0-1.1,0
			c-0.5,0-1,0-1.6,0c-1,0-1.9,0-2.9,0c-1.8,0-3.6,0-5.5,0c-8,0-16.1,0.1-24.1,0.1c-8,0-15.9,0.1-23.9,0.1c-7.7,0-15.5,0.2-23.1,1.1
			c-3.8,0.5-7.7,1.1-11.5,1.9C43.7,26.1,40,27,36.4,28c-3.3,0.9-6.6,2.1-9.5,4.2c-2.8,2.1-4.9,5-6.3,8.1c-3.2,6.9-3.8,14.6-4.6,22
			c-0.8,7.8-0.9,15.6-0.8,23.5c0.1,7.7,0.7,15.3,1.7,22.9c0.9,7,2.5,14.5,7.3,20c2.4,2.8,5.7,4.6,9.2,5.8c3.5,1.2,7.1,2.1,10.8,2.9
			c7.5,1.7,15.2,2.9,22.9,3.3c7.8,0.4,15.5,0.4,23.3,0.5c8,0,16,0.1,24.1,0.1c7.9,0,15.9,0.1,23.7,0.1c0.5,0,0.9,0,1.4,0
			c0.5,0,1,0,1.5,0c0.4,0,0.8,0.3,1.2,0.3c0.5,0.1,1,0.2,1.5,0.2c1.8,0.1,3.6,0.1,5.4,0c0.9,0,1.8-0.1,2.6-0.2
			c0.8-0.1,1.7-0.4,2.5-0.3c2,0,4,0,5.9,0c8,0,16,0,24,0c3.8,0,7.7,0,11.5,0c-0.7,1.2-1.4,2.4-2,3.6c-0.4,0.8-0.9,2,0.3,2.3
			c0.5,0.1,1.1,0.1,1.6,0.1c0.7,0,1.3,0,2-0.1c1.1-0.2,2.2-0.7,3.1-1.4c1.1-0.8,2-1.8,3-2.8c0.4-0.5,0.9-1,1.3-1.5
			c0.2-0.2,0.2-0.3,0.4-0.3c0.2,0,0.4,0,0.5,0c0.4,0,0.8,0,1.2,0c3,0,6,0,9-0.1c1.7,0,3.3-0.1,5-0.1c0.9,0,1.7,0,2.6-0.1
			c0.8,0,1.6-0.1,2.4-0.1c0,0,0.5,0,0.5,0c0.2,0,0.4,0,0.5,0c0.5,0,0.9,0,1.3,0c0.9,0,1.8-0.1,2.6-0.1c1.7-0.1,3.4-0.1,5.1-0.2
			c3.4-0.1,6.8-0.1,10.2-0.2c6.9-0.1,13.8-0.1,20.7-0.1c1.9,0,3.9,0,5.8,0c0.9,0,1.9,0,2.8,0c0.5,0,0.9,0,1.4,0c0.2,0,0.4,0,0.7,0
			c0.1,0,0.5,0,0.5,0c0.2-0.1,0.6,0,0.9,0c0.3,0,0.7,0,1,0c0.7,0,1.3,0,2-0.1c1.3,0,2.6-0.1,3.9-0.2c2.4-0.2,4.9-0.5,7.3-1.1
			c2.3-0.5,4.7-1.2,6.8-2.5c2.1-1.3,3.4-3.3,4.6-5.4c1.2-2.3,2.3-4.7,3.6-7c1.3-2.3,2.7-4.5,3.9-6.9c1.1-2.2,2-4.5,2.5-6.9
			c0.5-2.4,0.8-4.8,1-7.2c0.1-1.9,0.2-3.7,0.2-5.6c0-1.7,0-3.5,0-5.2c0-2.5,0-5,0-7.5c0-2.7,0-5.4,0-8.1c0-2.2,0-4.5,0-6.7
			c0-1.2,0-2.3,0-3.5v-0.2C315.6,62.6,315.5,58.8,314.9,55.1L314.9,55.1z"/>
	</g>
	<g class="st59">
		<path class="st210" d="M196.3,15.7c1.3,0,2.8,0.3,4.5,1.8c2.6,2.3,4.2,4.5,4.2,4.5s19.2,0.6,31.4,0.8c12.2,0.2,31.5,0.3,41.4,0.4
			c9.9,0.2,21.2,0.3,25.5,7.3c4.3,7.1,3.1,6.1,6.8,12.5c3.7,6.4,5.6,11.2,5.7,24.5c0.1,13.3,0.2,15,0,23.4s0.3,14-1.4,19.1
			c-1.6,5.2-3.9,9.4-6.5,14.2c-2.6,4.8-4.3,9.9-8.1,12.2c-3.8,2.3-10.9,3.9-26.6,3.9c-8.3,0-13.6-0.1-19-0.1c-4.8,0-9.6,0-16.4,0.2
			c-14.6,0.4-33.8,0.6-33.8,0.6s-2.3,4.4-6.5,6c-0.6,0.2-1.4,0.3-2.2,0.3c-1.7,0-3.3-0.6-2.3-2.3c1.4-2.4,2.4-4,2.4-4
			s-25.2-0.1-36.3-0.1c-2.8,0-4.7,0-5.1,0c-2.1,0-0.5,0.6-5,0.9c-0.4,0-0.7,0-1.1,0c-3.6,0-4.3-1-6.9-1c-2.8,0-35.2,0-40.3,0
			s-20.4,0-29.9-0.2c-9.5-0.2-23.3-2.5-34.5-5.4c-11.2-2.9-16.6-9.1-19.4-24.4c-2.3-12.4-2.1-24.4-2.1-27.4c0,0,1-23.6,2.6-33.1
			c1.5-9.4,6.9-18.3,13.8-21.1c6.7-2.7,31.3-7.4,48.3-7.4c0.4,0,0.9,0,1.3,0c9,0.1,23.8,0.3,36.5,0.3c11.4,0,21.2-0.1,23.8-0.6
			c1.9-0.3,3.2-0.4,4.5-0.4c2.4,0,4.3,0.4,8.1,0.4c5.7,0.1,41.7,0.3,41.7,0.3s-2-2.1-2.5-4c-0.4-1.9,0.1-2.3,1.7-2.4
			C195.1,15.8,195.7,15.7,196.3,15.7 M196.3,14c-0.5,0-0.9,0-1.2,0.1c-0.2,0-0.4,0-0.6,0c-0.7,0-2.1,0.1-2.9,1.2
			c-0.8,1-0.6,2.3-0.4,3.3c0.1,0.6,0.4,1.3,0.7,1.9c-9.2,0-33.6-0.2-38.2-0.2c-2,0-3.4-0.1-4.7-0.2c-1.1-0.1-2.2-0.2-3.4-0.2
			c-1.5,0-3,0.1-4.8,0.4c-1.5,0.2-6.7,0.5-23.5,0.5c-14.9,0-31.7-0.2-36.5-0.3c-0.4,0-0.9,0-1.3,0c-16.8,0-41.7,4.6-49,7.5
			c-7.2,2.9-13.2,11.9-14.9,22.4c-1.5,9.4-2.5,32.3-2.6,33.3l0,0v0l0,0.6c0,3.8-0.1,15.3,2.1,27.1c2.9,15.7,8.5,22.6,20.7,25.8
			c12.2,3.1,25.9,5.2,34.9,5.4c9.5,0.2,24.8,0.2,29.9,0.2c3,0,15,0,25.2,0c7.5,0,14,0,15.1,0c0.9,0,1.6,0.2,2.4,0.4
			c1,0.3,2.3,0.6,4.5,0.6c0.4,0,0.7,0,1.2,0c2.8-0.1,3.6-0.4,4.3-0.8c0,0,0.1,0,0.1-0.1c0,0,0.1,0,0.6,0c0.3,0,1.4,0,5.1,0
			c8.7,0,26.1,0,33.2,0c-0.2,0.4-0.5,0.9-0.8,1.4c-0.8,1.5-0.4,2.6-0.1,3.1c0.7,1.1,2.1,1.7,4,1.7c1,0,2-0.2,2.8-0.5
			c3.6-1.3,5.9-4.3,6.9-5.9c4.1,0,20.3-0.3,32.8-0.6c6.2-0.2,10.9-0.2,16.4-0.2c2.4,0,4.8,0,7.4,0c3.3,0,7,0,11.6,0
			c14.2,0,22.7-1.3,27.5-4.2c3.4-2,5.2-5.7,7.1-9.7c0.5-1,1-2.1,1.6-3.2l0.1-0.2c2.5-4.6,4.8-9,6.5-14.3c1.3-4.3,1.4-8.8,1.4-14.5
			c0-1.6,0-3.3,0.1-5.2c0.1-7.2,0.1-9.5,0-18.1l-0.1-5.3c-0.1-13.1-1.9-18.4-6-25.4c-1.6-2.8-2.3-4.2-2.9-5.5
			c-0.8-1.6-1.5-3.1-3.9-7.1c-4.7-7.8-16.2-8-26.4-8.2l-0.6,0c-5.2-0.1-12.9-0.2-21-0.2c-7.2-0.1-14.6-0.1-20.4-0.2
			c-10.6-0.2-26.8-0.6-30.6-0.7c-0.7-0.9-2.1-2.4-3.9-4.1C199.7,14.2,197.7,14,196.3,14L196.3,14z"/>
	</g>
	<g class="st59">
		<path class="st210" d="M42.6,34.3c1.8,0,4.3,0.6,2.8,2.3c-2.2,2.5-9.2,2.6-14.7,8.6s-8.2,19.7-8.2,19.7c0.3-18,5.5-24.5,8.6-27.1
			c3.9-3.2,9-3.2,10.7-3.4C42,34.3,42.3,34.3,42.6,34.3 M42.6,32.5c-0.3,0-0.7,0-1,0.1c-0.2,0-0.4,0-0.7,0.1
			c-2.3,0.2-7.1,0.6-10.9,3.8c-5.9,4.8-9.1,14.6-9.3,28.4c0,0.9,0.7,1.7,1.6,1.8c0.1,0,0.1,0,0.2,0c0.8,0,1.6-0.6,1.7-1.4
			c0-0.1,2.7-13.3,7.7-18.8c3-3.3,6.7-4.7,9.6-5.8c2.1-0.8,4-1.5,5.1-2.8c1.2-1.4,1-2.6,0.7-3.2C46.5,32.7,43.7,32.5,42.6,32.5
			L42.6,32.5z"/>
	</g>
	<g class="st59">
		<path class="st210" d="M21.9,99c0,0,2.7,13.7,8.2,19.7c5.5,6,12.5,6.1,14.7,8.6c1.5,1.8-1,2.3-2.8,2.3c-0.3,0-0.5,0-0.7,0
			c-1.7-0.2-6.8-0.3-10.7-3.4C27.4,123.5,22.2,117,21.9,99 M21.9,97.2c-0.1,0-0.1,0-0.2,0c-0.9,0.1-1.6,0.9-1.6,1.8
			c0.2,13.8,3.4,23.6,9.3,28.4c3.8,3.1,8.6,3.6,10.9,3.8c0.3,0,0.5,0,0.7,0.1c0.3,0,0.6,0.1,1,0.1c1.2,0,3.9-0.2,4.8-2.1
			c0.3-0.6,0.5-1.8-0.7-3.2c-1.1-1.3-3-2-5.1-2.8c-2.9-1.1-6.5-2.5-9.6-5.8c-5.1-5.6-7.7-18.7-7.7-18.8
			C23.5,97.8,22.8,97.2,21.9,97.2L21.9,97.2z"/>
	</g>
	<g class="st59">
		<path class="st210" d="M68,40.9c0.4,0,0.9,0.1,1.4,0.1c3.6,0.5,24.7,3.8,27.2,4.3c2.5,0.5,2,2.6,1.9,4.3
			c-3.6,34.5-0.1,61.5,0.1,64.1c0.2,2.6,1.5,3.6-4.8,5s-22.4,3.4-24.9,4c-0.3,0.1-0.6,0.1-0.8,0.1c-1.8,0-2.1-1.6-2.1-1.6
			c-4.5-12.1-7.2-19.2-7.4-42.1c-0.2-22.9,7.2-36.8,7.2-36.8C66.6,41.2,67,40.9,68,40.9 M68,39.2c-1.7,0-2.7,0.8-3.7,2.2
			c0,0.1-0.1,0.1-0.1,0.2c-0.3,0.6-7.6,14.6-7.4,37.6c0.2,22.9,2.9,30.2,7.4,42.2l0.1,0.3c0.3,1,1.4,2.8,3.8,2.8
			c0.4,0,0.8,0,1.2-0.1c1-0.2,4.5-0.7,8.3-1.3c5.7-0.8,12.9-1.9,16.6-2.7c5.4-1.1,6.8-2.5,6.3-5.9c0-0.3-0.1-0.6-0.1-0.9
			c0-0.3-0.1-0.8-0.2-1.7C98,91.1,98,70.2,100.2,49.8l0-0.3c0.2-1.5,0.6-5-3.3-5.8c-2.6-0.6-24.6-3.9-27.3-4.4c0,0-0.1,0-0.1,0
			l-0.3,0C68.8,39.2,68.4,39.2,68,39.2L68,39.2z"/>
	</g>
	<g class="st59">
		<path class="st210" d="M186.3,28.4c5.6,0,11,0,16,0.1c0,0,0.2,5.7-32.7,11.6c-6.3,1.1-14.8,1.7-24,1.7c-15.9,0-34.1-1.6-46.9-4.4
			c-20.3-4.4-4.3-6.6,4.9-7.1C111.5,29.7,153.2,28.4,186.3,28.4 M186.3,26.7v1.8V26.7c-32.8,0-74.7,1.3-82.8,1.8
			c-2.1,0.1-6.3,0.5-9.7,1.1c-3.9,0.7-6.5,1.6-6.6,3.8c-0.2,2.4,2.7,3.9,11.2,5.8c12.5,2.7,30.6,4.4,47.3,4.4
			c9.8,0,18.2-0.6,24.3-1.7c31-5.6,34.2-11.2,34.1-13.3c0-0.9-0.8-1.7-1.7-1.7C197.6,26.7,192.2,26.7,186.3,26.7L186.3,26.7z"/>
	</g>
	<g class="st59">
		<path class="st210" d="M225.8,35c7.2,0,9.7,2.8,10.8,6.4c1.4,4.5,5.4,16.2,5.6,39.2c0.3,23-2.6,36.5-6.1,43.1
			c-2.3,4.3-6.6,5.3-10.2,5.3c-1.9,0-3.6-0.3-4.6-0.4c-3.1-0.5-22.4-5.9-29.1-8.3c-4.2-1.5-2.9-3.1-2.4-5.4c0,0,4-11.6,3.7-31.1
			s-1.7-28.9-3.3-34.1c-1.7-5.2-0.8-5.6,3.4-7s14.3-5.4,26.2-7.1C222.1,35.1,224.1,35,225.8,35 M225.8,33.2L225.8,33.2
			c-1.8,0-4,0.2-6.3,0.5c-10.3,1.5-19.3,4.7-24.2,6.4c-0.9,0.3-1.6,0.6-2.2,0.8c-4.9,1.6-6.6,2.9-4.6,9.2c2,6.2,3,17.2,3.2,33.6
			c0.2,19-3.6,30.4-3.6,30.6c0,0.1,0,0.1-0.1,0.2c-0.1,0.3-0.2,0.6-0.2,0.9c-0.7,2.3-0.9,4.8,3.8,6.5c6.7,2.4,26.2,7.9,29.4,8.4
			c1,0.2,2.8,0.5,4.9,0.5c5.5,0,9.5-2.1,11.7-6.2c3.1-5.7,6.6-17.9,6.3-44c-0.2-22.5-4-34.2-5.5-39.2l-0.1-0.5
			C236.7,35.6,232.7,33.2,225.8,33.2L225.8,33.2z"/>
	</g>
	<g class="st59">
		<path class="st210" d="M285.4,28.9c6.2,0,17,3,20.7,22.5c0,0-12.5-16.9-25.3-22C280.8,29.5,282.7,28.9,285.4,28.9 M285.4,27.2
			C285.4,27.2,285.4,27.2,285.4,27.2c-2.9,0-5,0.6-5.1,0.6c-0.7,0.2-1.2,0.9-1.2,1.6c0,0.7,0.4,1.4,1.1,1.7
			c12.2,4.9,24.4,21.2,24.5,21.4c0.3,0.5,0.9,0.7,1.4,0.7c0.2,0,0.5,0,0.7-0.1c0.7-0.3,1.2-1.1,1-1.9
			C303.9,30.3,292.1,27.2,285.4,27.2L285.4,27.2z"/>
	</g>
	<g class="st59">
		<path class="st210" d="M306.1,110.9L306.1,110.9 M306.1,110.9c-3.7,19.6-14.5,22.5-20.7,22.5c-2.7,0-4.6-0.6-4.6-0.6
			C293.6,127.8,306.1,110.9,306.1,110.9 M306.1,109.2L306.1,109.2c-0.4,0-0.8,0.1-1.1,0.4c0,0,0,0,0,0c0,0,0,0,0,0
			c-0.1,0.1-0.2,0.1-0.2,0.2c0,0-0.1,0.1-0.1,0.1c-0.4,0.5-12.5,16.6-24.5,21.4c-0.7,0.3-1.1,1-1.1,1.7c0,0.7,0.5,1.4,1.2,1.6
			c0.1,0,2.1,0.6,5.1,0.6c6.7,0,18.5-3.1,22.4-23.9c0-0.1,0.1-0.3,0.1-0.4C307.8,110,307.1,109.2,306.1,109.2L306.1,109.2z
			 M306.1,112.7L306.1,112.7L306.1,112.7L306.1,112.7z"/>
	</g>
	<g class="st59">
		<path class="st210" d="M145.6,122.4c9.2,0,17.7,0.5,24,1.7c32.9,5.9,32.7,11.6,32.7,11.6c-4.9,0.1-10.3,0.1-16,0.1
			c-33.1,0-74.8-1.3-82.7-1.8c-9.2-0.6-25.2-2.7-4.9-7.1C111.5,123.9,129.6,122.4,145.6,122.4 M145.6,120.6
			c-16.7,0-34.8,1.7-47.3,4.4c-8.4,1.8-11.3,3.3-11.2,5.8c0.2,2.1,2.8,3.1,6.6,3.8c3.5,0.6,7.6,1,9.7,1.1c8.1,0.5,50,1.8,82.8,1.8
			c5.9,0,11.3,0,16-0.1c0.9,0,1.7-0.8,1.7-1.7c0.1-2.2-3.1-7.8-34.1-13.3C163.7,121.2,155.3,120.6,145.6,120.6L145.6,120.6z"/>
	</g>
	<g>
		<g>
			<defs>
				<rect id="SVGID_00000151514701860474070370000014972609780677277588_" x="13.2" y="14.1" width="304.6" height="135.3"/>
			</defs>
			<clipPath id="SVGID_00000154389832017014967290000011358667686930454718_">
				<use xlink:href="#SVGID_00000151514701860474070370000014972609780677277588_"  style="overflow:visible;"/>
			</clipPath>
			<path style="clip-path:url(#SVGID_00000154389832017014967290000011358667686930454718_);fill:#DCDDDE;" d="M196.3,14.1
				c-0.5,0-0.9,0-1.2,0.1c-0.2,0-0.4,0-0.6,0c-0.7,0-2.1,0.1-2.9,1.2c-0.8,1-0.6,2.3-0.4,3.3c0.1,0.6,0.4,1.3,0.7,1.9
				c-9.2,0-33.6-0.2-38.2-0.2c-2,0-3.4-0.1-4.7-0.2c-1.1-0.1-2.2-0.2-3.4-0.2c-1.5,0-3,0.1-4.8,0.4c-1.5,0.2-6.7,0.5-23.5,0.5
				c-14.9,0-31.7-0.2-36.5-0.3c-0.4,0-0.9,0-1.3,0c-16.8,0-41.7,4.6-49,7.5C23.4,31,17.4,40,15.7,50.5c-1.5,9.4-2.5,32.3-2.6,33.3
				l0,0v0l0,0.6c0,3.8,0,15.3,2.1,27.1c2.9,15.7,8.5,22.6,20.7,25.8c12.2,3.1,25.9,5.2,34.9,5.4c9.5,0.2,24.8,0.2,29.9,0.2
				c3,0,15,0,25.2,0c7.5,0,14,0,15.1,0c0.9,0,1.6,0.2,2.4,0.4c1,0.3,2.3,0.6,4.5,0.6c0.4,0,0.7,0,1.2,0c2.8-0.1,3.6-0.4,4.3-0.8
				c0,0,0.1,0,0.1-0.1c0,0,0.1,0,0.6,0c0.3,0,1.4,0,5.1,0c8.7,0,26.1,0,33.2,0c-0.2,0.4-0.5,0.9-0.8,1.4c-0.8,1.5-0.4,2.6-0.1,3.1
				c0.7,1.1,2.1,1.7,4,1.7c1,0,2-0.2,2.8-0.5c3.6-1.3,5.9-4.3,6.9-5.9c4.1,0,20.3-0.3,32.8-0.6c6.2-0.2,10.9-0.2,16.4-0.2
				c2.4,0,4.8,0,7.4,0c3.3,0,7,0,11.6,0c14.2,0,22.7-1.3,27.5-4.2c3.4-2,5.2-5.7,7.1-9.7c0.5-1,1-2.1,1.6-3.2l0.1-0.2
				c2.5-4.6,4.8-9,6.5-14.3c1.3-4.3,1.4-8.8,1.4-14.5c0-1.6,0-3.3,0.1-5.2c0.1-7.2,0.1-9.5,0-18.1l-0.1-5.3
				c-0.1-13.1-1.9-18.4-6-25.4c-1.6-2.8-2.3-4.2-2.9-5.5c-0.8-1.6-1.5-3.1-3.9-7.1c-4.8-7.8-16.2-8-26.4-8.2l-0.6,0
				c-5.2-0.1-12.9-0.2-21-0.2c-7.2-0.1-14.6-0.1-20.4-0.2c-10.6-0.2-26.8-0.6-30.6-0.7c-0.7-0.9-2.1-2.4-3.9-4.1
				C199.7,14.3,197.7,14.1,196.3,14.1 M196.3,15.8c1.3,0,2.8,0.3,4.5,1.8c2.6,2.3,4.2,4.5,4.2,4.5s19.2,0.6,31.4,0.8
				c12.2,0.2,31.5,0.3,41.4,0.4c9.9,0.2,21.2,0.3,25.5,7.3c4.3,7.1,3.1,6.1,6.8,12.5c3.7,6.4,5.6,11.2,5.7,24.5
				c0.1,13.3,0.2,15,0,23.4c-0.2,8.4,0.3,14-1.4,19.1c-1.6,5.2-3.9,9.4-6.5,14.2c-2.6,4.8-4.3,9.9-8.1,12.2
				c-3.8,2.3-10.9,3.9-26.6,3.9c-8.3,0-13.6-0.1-19-0.1c-4.8,0-9.6,0-16.4,0.2c-14.6,0.4-33.8,0.6-33.8,0.6s-2.3,4.4-6.5,6
				c-0.6,0.2-1.4,0.3-2.2,0.3c-1.7,0-3.3-0.6-2.3-2.3c1.4-2.4,2.4-4,2.4-4s-25.2-0.1-36.3-0.1c-2.8,0-4.7,0-5.1,0
				c-2.1,0-0.5,0.6-5,0.9c-0.4,0-0.7,0-1.1,0c-3.6,0-4.3-1-6.9-1c-2.8,0-35.2,0-40.3,0s-20.4,0-29.9-0.2c-9.5-0.2-23.3-2.5-34.5-5.4
				c-11.2-2.9-16.6-9.1-19.4-24.4c-2.3-12.4-2.1-24.4-2.1-27.4c0,0,1-23.6,2.6-33.1s6.9-18.3,13.8-21.1c6.7-2.7,31.3-7.4,48.3-7.4
				c0.4,0,0.9,0,1.3,0c9,0.1,23.8,0.3,36.5,0.3c11.4,0,21.2-0.1,23.8-0.6c1.9-0.3,3.2-0.4,4.5-0.4c2.4,0,4.3,0.4,8.1,0.4
				c5.7,0.1,41.7,0.3,41.7,0.3s-2-2.1-2.5-4c-0.4-1.9,0.1-2.3,1.7-2.4C195.1,15.9,195.7,15.8,196.3,15.8"/>
			<path style="clip-path:url(#SVGID_00000154389832017014967290000011358667686930454718_);fill:#DCDDDE;" d="M42.6,32.6
				c-0.3,0-0.7,0-1,0.1c-0.2,0-0.4,0-0.7,0.1c-2.3,0.2-7.1,0.6-10.9,3.8c-5.9,4.8-9.1,14.6-9.3,28.4c0,0.9,0.7,1.7,1.6,1.8
				c0.1,0,0.1,0,0.2,0c0.8,0,1.6-0.6,1.7-1.4c0-0.1,2.7-13.3,7.7-18.8c3-3.3,6.7-4.7,9.6-5.8c2.1-0.8,4-1.5,5.1-2.8
				c1.2-1.4,1-2.6,0.7-3.2C46.5,32.8,43.7,32.6,42.6,32.6 M42.6,34.4c1.8,0,4.3,0.6,2.8,2.3c-2.2,2.5-9.2,2.6-14.7,8.6
				c-5.5,6-8.2,19.7-8.2,19.7c0.3-18,5.5-24.5,8.6-27.1c3.9-3.2,9-3.2,10.7-3.4C42.1,34.4,42.3,34.4,42.6,34.4"/>
			<path style="clip-path:url(#SVGID_00000154389832017014967290000011358667686930454718_);fill:#DCDDDE;" d="M21.9,97.3
				c-0.1,0-0.1,0-0.2,0c-0.9,0.1-1.6,0.9-1.6,1.8c0.2,13.8,3.4,23.6,9.3,28.4c3.8,3.1,8.6,3.6,10.9,3.8c0.3,0,0.5,0,0.7,0.1
				c0.3,0,0.6,0.1,1,0.1c1.2,0,3.9-0.2,4.8-2.1c0.3-0.6,0.5-1.8-0.7-3.2c-1.1-1.3-3-2-5.1-2.8c-2.9-1.1-6.5-2.5-9.6-5.8
				c-5.1-5.6-7.7-18.7-7.7-18.8C23.5,97.9,22.8,97.3,21.9,97.3 M21.9,99c0,0,2.7,13.7,8.2,19.7c5.5,6,12.5,6.1,14.7,8.6
				c1.5,1.8-1,2.3-2.8,2.3c-0.3,0-0.5,0-0.8,0c-1.7-0.2-6.8-0.3-10.7-3.4C27.4,123.5,22.2,117,21.9,99"/>
			<path style="clip-path:url(#SVGID_00000154389832017014967290000011358667686930454718_);fill:#DCDDDE;" d="M68,39.2
				c-1.7,0-2.7,0.8-3.7,2.2c0,0.1-0.1,0.1-0.1,0.2c-0.3,0.6-7.6,14.6-7.4,37.6c0.2,22.9,2.9,30.2,7.4,42.2l0.1,0.3
				c0.3,1,1.4,2.8,3.8,2.8c0.4,0,0.8,0,1.2-0.1c1-0.2,4.5-0.7,8.3-1.3c5.7-0.8,12.9-1.9,16.6-2.7c5.4-1.1,6.8-2.5,6.3-5.9
				c0-0.3-0.1-0.6-0.1-0.9c0-0.3-0.1-0.8-0.2-1.7c-2.1-20.8-2.1-41.7,0.1-62.1l0-0.3c0.2-1.5,0.6-5-3.3-5.8
				c-2.6-0.6-24.6-3.9-27.3-4.4c0,0-0.1,0-0.1,0l-0.3,0C68.8,39.3,68.4,39.2,68,39.2 M68,41c0.4,0,0.8,0.1,1.4,0.1
				c3.6,0.5,24.7,3.8,27.2,4.3c2.5,0.5,2,2.6,1.9,4.3c-3.6,34.5-0.1,61.5,0.1,64.1c0.2,2.6,1.5,3.6-4.8,5c-6.3,1.3-22.4,3.4-24.9,4
				c-0.3,0.1-0.6,0.1-0.8,0.1c-1.8,0-2.1-1.6-2.1-1.6c-4.5-12.1-7.2-19.2-7.4-42.1c-0.2-22.9,7.2-36.8,7.2-36.8
				C66.6,41.3,67.1,41,68,41"/>
			<path style="clip-path:url(#SVGID_00000154389832017014967290000011358667686930454718_);fill:#DCDDDE;" d="M186.3,26.7v1.8V26.7
				c-32.8,0-74.7,1.3-82.8,1.8c-2.1,0.1-6.2,0.5-9.7,1.1c-3.9,0.7-6.5,1.6-6.6,3.8c-0.2,2.4,2.7,3.9,11.2,5.8
				c12.5,2.7,30.6,4.4,47.3,4.4c9.8,0,18.2-0.6,24.3-1.7c31-5.6,34.2-11.2,34.1-13.3c0-0.9-0.8-1.7-1.7-1.7
				C197.6,26.8,192.2,26.7,186.3,26.7 M186.3,28.5c5.6,0,11,0,16,0.1c0,0,0.2,5.7-32.7,11.6c-6.3,1.1-14.8,1.7-24,1.7
				c-15.9,0-34.1-1.6-46.9-4.4c-20.3-4.4-4.3-6.6,4.9-7.1C111.5,29.8,153.2,28.5,186.3,28.5"/>
			<path style="clip-path:url(#SVGID_00000154389832017014967290000011358667686930454718_);fill:#DCDDDE;" d="M225.8,33.3
				L225.8,33.3c-1.8,0-4,0.2-6.3,0.5c-10.3,1.5-19.3,4.7-24.2,6.4c-0.9,0.3-1.6,0.6-2.2,0.8c-4.9,1.6-6.6,2.9-4.6,9.2
				c2,6.2,3,17.2,3.2,33.6c0.2,18.9-3.6,30.4-3.6,30.6c0,0.1,0,0.1-0.1,0.2c-0.1,0.3-0.2,0.6-0.2,0.9c-0.7,2.3-0.9,4.8,3.8,6.5
				c6.7,2.4,26.2,7.9,29.4,8.4c1,0.2,2.8,0.5,4.9,0.5c5.5,0,9.5-2.1,11.7-6.2c3.1-5.7,6.6-17.9,6.3-44c-0.2-22.5-4-34.2-5.5-39.2
				l-0.1-0.5C236.7,35.7,232.7,33.3,225.8,33.3 M225.8,35c7.2,0,9.7,2.8,10.8,6.4c1.4,4.5,5.4,16.2,5.6,39.2
				c0.3,23-2.6,36.5-6.1,43.1c-2.3,4.3-6.6,5.3-10.2,5.3c-1.9,0-3.6-0.3-4.6-0.4c-3.1-0.5-22.4-5.9-29.1-8.3
				c-4.2-1.5-2.9-3.1-2.4-5.4c0,0,4-11.6,3.7-31.1c-0.3-19.5-1.7-28.9-3.3-34.1c-1.7-5.2-0.8-5.6,3.4-7c4.2-1.4,14.3-5.4,26.2-7.1
				C222.1,35.2,224.1,35,225.8,35"/>
			<path style="clip-path:url(#SVGID_00000154389832017014967290000011358667686930454718_);fill:#DCDDDE;" d="M285.4,27.2
				L285.4,27.2c-2.9,0-5,0.6-5.1,0.6c-0.7,0.2-1.2,0.9-1.2,1.6c0,0.7,0.4,1.4,1.1,1.7c12.2,4.9,24.4,21.2,24.5,21.4
				c0.3,0.5,0.9,0.7,1.4,0.7c0.2,0,0.5,0,0.7-0.1c0.7-0.3,1.2-1.1,1-1.9C303.9,30.3,292.1,27.2,285.4,27.2 M285.4,29
				c6.2,0,17,3,20.7,22.5c0,0-12.5-16.9-25.3-22C280.8,29.6,282.7,29,285.4,29"/>
			<path style="clip-path:url(#SVGID_00000154389832017014967290000011358667686930454718_);fill:#DCDDDE;" d="M306.1,112.8
				L306.1,112.8L306.1,112.8z M306.1,109.3L306.1,109.3c-0.4,0-0.8,0.1-1.1,0.4c0,0,0,0,0,0c0,0,0,0,0,0c-0.1,0.1-0.2,0.1-0.2,0.2
				c0,0-0.1,0.1-0.1,0.1c-0.4,0.5-12.5,16.6-24.5,21.4c-0.7,0.3-1.1,1-1.1,1.7c0,0.7,0.5,1.4,1.2,1.6c0.1,0,2.1,0.6,5.1,0.6
				c6.7,0,18.5-3.1,22.4-23.9c0-0.1,0.1-0.3,0.1-0.4C307.9,110,307.1,109.3,306.1,109.3 M306.1,111c-3.7,19.6-14.5,22.5-20.7,22.5
				c-2.7,0-4.6-0.6-4.6-0.6C293.6,127.9,306.1,111,306.1,111 M306.1,111L306.1,111"/>
			<path style="clip-path:url(#SVGID_00000154389832017014967290000011358667686930454718_);fill:#DCDDDE;" d="M145.6,120.7
				c-16.7,0-34.8,1.7-47.3,4.4c-8.4,1.8-11.3,3.3-11.2,5.8c0.2,2.1,2.8,3.1,6.6,3.8c3.5,0.6,7.6,1,9.7,1.1c8.1,0.5,50,1.8,82.8,1.8
				c5.9,0,11.3,0,16-0.1c0.9,0,1.7-0.8,1.7-1.7c0.1-2.2-3.1-7.8-34.1-13.3C163.8,121.3,155.4,120.7,145.6,120.7 M145.6,122.5
				c9.2,0,17.7,0.5,24,1.7c32.9,5.9,32.7,11.6,32.7,11.6c-4.9,0.1-10.3,0.1-16,0.1c-33.1,0-74.8-1.3-82.7-1.8
				c-9.2-0.6-25.2-2.7-4.9-7.1C111.5,124,129.7,122.5,145.6,122.5"/>
			<defs>
				<filter id="Adobe_OpacityMaskFilter" filterUnits="userSpaceOnUse" x="31.6" y="50.9" width="267.7" height="55.5">
					<feFlood  style="flood-color:white;flood-opacity:1" result="back"/>
					<feBlend  in="SourceGraphic" in2="back" mode="normal"/>
				</filter>
			</defs>
			
				<mask maskUnits="userSpaceOnUse" x="31.6" y="50.9" width="267.7" height="55.5" id="SVGID_00000044155206562568488950000016439655718178093729_">
				<g class="st5">
					
						<linearGradient id="SVGID_00000096017308494207131570000011669124200498764966_" gradientUnits="userSpaceOnUse" x1="-1055.546" y1="71.9958" x2="-1054.546" y2="71.9958" gradientTransform="matrix(267.6953 0 0 -267.6953 282596.3125 19354.6348)">
						<stop  offset="0" style="stop-color:#FFFFFF"/>
						<stop  offset="1" style="stop-color:#FFFFFF"/>
					</linearGradient>
					
						<rect x="13.2" y="14.1" style="clip-path:url(#SVGID_00000154389832017014967290000011358667686930454718_);fill:url(#SVGID_00000096017308494207131570000011669124200498764966_);" width="304.6" height="135.3"/>
				</g>
			</mask>
			
				<g style="clip-path:url(#SVGID_00000154389832017014967290000011358667686930454718_);mask:url(#SVGID_00000044155206562568488950000016439655718178093729_);">
				<g>
					<defs>
						<rect id="SVGID_00000165942774208314941500000002744306561024405891_" x="31.6" y="50.9" width="267.7" height="55.5"/>
					</defs>
					<clipPath id="SVGID_00000066489981404904461120000002457630643872838074_">
						<use xlink:href="#SVGID_00000165942774208314941500000002744306561024405891_"  style="overflow:visible;"/>
					</clipPath>
					<path style="clip-path:url(#SVGID_00000066489981404904461120000002457630643872838074_);fill:#FF911C;" d="M52.6,57.9
						c-6.6,0-12,5.4-12,12v23.5c0,6.6,5.4,12,12,12h225.7c6.6,0,12-5.4,12-12V69.9c0-6.6-5.4-12-12-12H52.6z"/>
				</g>
			</g>
		</g>
		<g>
			<path class="st0" d="M96.9,76.3l3.3,8.7l3.3-8.7h2.6v11.4h-2V84l0.2-5l-3.4,8.8h-1.4l-3.4-8.8l0.2,5v3.8h-2V76.3H96.9z"/>
			<path class="st0" d="M113.3,86.9c-0.6,0.7-1.3,1-2.4,1c-0.9,0-1.6-0.3-2.1-0.8c-0.5-0.5-0.7-1.3-0.7-2.3v-5.5h1.9v5.5
				c0,1.1,0.4,1.6,1.3,1.6c0.9,0,1.5-0.3,1.9-1v-6.1h1.9v8.5h-1.8L113.3,86.9z"/>
			<path class="st0" d="M119.1,87.7h-1.9v-12h1.9V87.7z"/>
			<path class="st0" d="M123.6,77.2v2.1h1.5v1.4h-1.5v4.7c0,0.3,0.1,0.6,0.2,0.7c0.1,0.1,0.4,0.2,0.7,0.2c0.2,0,0.4,0,0.7-0.1v1.5
				c-0.4,0.1-0.8,0.2-1.2,0.2c-1.5,0-2.2-0.8-2.2-2.4v-4.8h-1.4v-1.4h1.4v-2.1H123.6z"/>
			<path class="st0" d="M126.4,77c0-0.3,0.1-0.5,0.3-0.7c0.2-0.2,0.4-0.3,0.8-0.3s0.6,0.1,0.8,0.3c0.2,0.2,0.3,0.4,0.3,0.7
				c0,0.3-0.1,0.5-0.3,0.7s-0.5,0.3-0.8,0.3s-0.6-0.1-0.8-0.3C126.5,77.6,126.4,77.3,126.4,77z M128.4,87.7h-1.9v-8.5h1.9V87.7z"/>
			<path class="st0" d="M137.9,83.6c0,1.3-0.3,2.4-0.9,3.1s-1.4,1.2-2.4,1.2c-0.9,0-1.7-0.3-2.2-0.9v4h-1.9V79.2h1.8l0.1,0.9
				c0.6-0.7,1.3-1,2.3-1c1,0,1.8,0.4,2.4,1.2s0.9,1.8,0.9,3.2V83.6z M136,83.4c0-0.8-0.2-1.5-0.5-2s-0.8-0.7-1.4-0.7
				c-0.8,0-1.3,0.3-1.7,1v3.8c0.3,0.7,0.9,1,1.7,1c0.6,0,1.1-0.2,1.4-0.7C135.8,85.1,136,84.4,136,83.4z"/>
			<path class="st0" d="M141.5,87.7h-1.9v-12h1.9V87.7z"/>
			<path class="st0" d="M147.2,87.9c-1.2,0-2.2-0.4-2.9-1.1c-0.7-0.8-1.1-1.8-1.1-3v-0.2c0-0.8,0.2-1.6,0.5-2.3
				c0.3-0.7,0.8-1.2,1.4-1.6c0.6-0.4,1.2-0.6,2-0.6c1.2,0,2,0.4,2.7,1.1c0.6,0.7,0.9,1.8,0.9,3.1v0.8h-5.5c0.1,0.7,0.3,1.2,0.7,1.7
				c0.4,0.4,0.9,0.6,1.5,0.6c0.9,0,1.6-0.4,2.1-1.1l1,1c-0.3,0.5-0.8,0.9-1.4,1.2C148.6,87.7,147.9,87.9,147.2,87.9z M147,80.6
				c-0.5,0-0.9,0.2-1.3,0.5s-0.5,0.9-0.6,1.5h3.6v-0.1c0-0.6-0.2-1.1-0.5-1.4S147.5,80.6,147,80.6z"/>
			<path class="st0" d="M158.2,83.5v4.2h-2V76.3h4.4c1.3,0,2.3,0.3,3,1c0.7,0.7,1.1,1.5,1.1,2.6c0,1.1-0.4,2-1.1,2.6
				c-0.7,0.6-1.8,0.9-3.1,0.9H158.2z M158.2,81.9h2.4c0.7,0,1.2-0.2,1.6-0.5c0.4-0.3,0.6-0.8,0.6-1.4c0-0.6-0.2-1.1-0.6-1.5
				s-0.9-0.6-1.5-0.6h-2.4V81.9z"/>
			<path class="st0" d="M165.8,83.4c0-0.8,0.2-1.6,0.5-2.2s0.8-1.2,1.4-1.5s1.3-0.5,2-0.5c1.1,0,2.1,0.4,2.8,1.1s1.1,1.7,1.2,2.9
				l0,0.4c0,0.8-0.2,1.6-0.5,2.2s-0.8,1.2-1.4,1.5s-1.3,0.5-2.1,0.5c-1.2,0-2.1-0.4-2.9-1.2S165.8,84.8,165.8,83.4L165.8,83.4z
				 M167.7,83.6c0,0.9,0.2,1.6,0.5,2s0.9,0.7,1.5,0.7s1.1-0.2,1.5-0.8s0.5-1.2,0.5-2.2c0-0.9-0.2-1.5-0.6-2s-0.9-0.8-1.5-0.8
				c-0.6,0-1.1,0.2-1.5,0.7S167.7,82.6,167.7,83.6z"/>
			<path class="st0" d="M175.2,77c0-0.3,0.1-0.5,0.3-0.7c0.2-0.2,0.4-0.3,0.8-0.3s0.6,0.1,0.8,0.3c0.2,0.2,0.3,0.4,0.3,0.7
				c0,0.3-0.1,0.5-0.3,0.7s-0.5,0.3-0.8,0.3s-0.6-0.1-0.8-0.3C175.2,77.6,175.2,77.3,175.2,77z M177.2,87.7h-1.9v-8.5h1.9V87.7z"/>
			<path class="st0" d="M181,79.2l0.1,1c0.6-0.8,1.4-1.1,2.5-1.1c1.8,0,2.7,1,2.7,3v5.6h-1.9v-5.5c0-0.5-0.1-0.9-0.3-1.2
				c-0.2-0.3-0.6-0.4-1.1-0.4c-0.8,0-1.3,0.3-1.7,1v6h-1.9v-8.5H181z"/>
			<path class="st0" d="M190.5,77.2v2.1h1.5v1.4h-1.5v4.7c0,0.3,0.1,0.6,0.2,0.7c0.1,0.1,0.4,0.2,0.7,0.2c0.2,0,0.4,0,0.7-0.1v1.5
				c-0.4,0.1-0.8,0.2-1.2,0.2c-1.5,0-2.2-0.8-2.2-2.4v-4.8h-1.4v-1.4h1.4v-2.1H190.5z"/>
			<path class="st0" d="M198.2,85.4c0-0.3-0.1-0.6-0.4-0.8c-0.3-0.2-0.7-0.3-1.4-0.5c-0.6-0.1-1.2-0.3-1.6-0.5
				c-0.9-0.5-1.4-1.1-1.4-2c0-0.7,0.3-1.3,0.9-1.8c0.6-0.5,1.4-0.7,2.3-0.7c1,0,1.8,0.2,2.4,0.8c0.6,0.5,0.9,1.1,0.9,1.9h-1.9
				c0-0.4-0.1-0.7-0.4-0.9c-0.3-0.2-0.6-0.4-1.1-0.4c-0.4,0-0.8,0.1-1,0.3c-0.3,0.2-0.4,0.5-0.4,0.8c0,0.3,0.1,0.5,0.4,0.7
				c0.2,0.2,0.7,0.3,1.5,0.5c0.7,0.2,1.3,0.4,1.8,0.6c0.4,0.2,0.7,0.5,0.9,0.8c0.2,0.3,0.3,0.7,0.3,1.2c0,0.8-0.3,1.4-0.9,1.8
				c-0.6,0.5-1.5,0.7-2.5,0.7c-0.7,0-1.3-0.1-1.9-0.4c-0.5-0.2-1-0.6-1.3-1c-0.3-0.4-0.5-0.9-0.5-1.4h1.8c0,0.4,0.2,0.8,0.5,1
				s0.7,0.4,1.2,0.4c0.5,0,0.9-0.1,1.1-0.3C198.1,86,198.2,85.7,198.2,85.4z"/>
			<path class="st0" d="M205.3,83.4c0-0.8,0.2-1.6,0.5-2.2s0.8-1.2,1.4-1.5s1.3-0.5,2-0.5c1.1,0,2.1,0.4,2.8,1.1s1.1,1.7,1.2,2.9
				l0,0.4c0,0.8-0.2,1.6-0.5,2.2s-0.8,1.2-1.4,1.5c-0.6,0.4-1.3,0.5-2.1,0.5c-1.2,0-2.1-0.4-2.9-1.2
				C205.7,85.9,205.3,84.8,205.3,83.4L205.3,83.4z M207.2,83.6c0,0.9,0.2,1.6,0.5,2s0.9,0.7,1.5,0.7s1.1-0.2,1.5-0.8
				c0.4-0.5,0.5-1.2,0.5-2.2c0-0.9-0.2-1.5-0.6-2s-0.9-0.8-1.5-0.8c-0.6,0-1.1,0.2-1.5,0.7C207.4,81.8,207.2,82.6,207.2,83.6z"/>
			<path class="st0" d="M215.3,87.7v-7H214v-1.4h1.3v-0.8c0-0.9,0.3-1.7,0.8-2.2c0.5-0.5,1.2-0.8,2.2-0.8c0.3,0,0.7,0,1.1,0.1l0,1.5
				c-0.2,0-0.5-0.1-0.7-0.1c-0.9,0-1.4,0.5-1.4,1.4v0.8h1.7v1.4h-1.7v7H215.3z"/>
			<path class="st0" d="M226.5,87.7h-2V76.3h2V87.7z"/>
			<path class="st0" d="M230.6,79.2l0.1,0.9c0.6-0.7,1.4-1,2.4-1c1.1,0,1.9,0.4,2.3,1.3c0.6-0.9,1.5-1.3,2.6-1.3
				c0.9,0,1.6,0.3,2.1,0.8c0.5,0.5,0.7,1.3,0.7,2.3v5.6h-1.9v-5.5c0-0.5-0.1-0.9-0.4-1.2s-0.6-0.4-1.2-0.4c-0.4,0-0.8,0.1-1.1,0.3
				s-0.5,0.5-0.6,0.9l0,5.8h-1.9v-5.6c0-1-0.5-1.5-1.5-1.5c-0.8,0-1.3,0.3-1.6,0.9v6.1h-1.9v-8.5H230.6z"/>
			<path class="st0" d="M250.1,83.6c0,1.3-0.3,2.4-0.9,3.1s-1.4,1.2-2.4,1.2c-0.9,0-1.7-0.3-2.2-0.9v4h-1.9V79.2h1.8l0.1,0.9
				c0.6-0.7,1.3-1,2.3-1c1,0,1.8,0.4,2.4,1.2s0.9,1.8,0.9,3.2V83.6z M248.2,83.4c0-0.8-0.2-1.5-0.5-2s-0.8-0.7-1.4-0.7
				c-0.8,0-1.3,0.3-1.7,1v3.8c0.3,0.7,0.9,1,1.7,1c0.6,0,1.1-0.2,1.4-0.7C248,85.1,248.2,84.4,248.2,83.4z"/>
			<path class="st0" d="M256.7,87.7c-0.1-0.2-0.2-0.4-0.2-0.8c-0.6,0.6-1.3,0.9-2.2,0.9c-0.8,0-1.5-0.2-2.1-0.7
				c-0.5-0.5-0.8-1.1-0.8-1.8c0-0.9,0.3-1.6,1-2.1c0.7-0.5,1.6-0.7,2.9-0.7h1.2V82c0-0.4-0.1-0.8-0.4-1.1c-0.2-0.3-0.6-0.4-1.1-0.4
				c-0.4,0-0.8,0.1-1.1,0.3c-0.3,0.2-0.4,0.5-0.4,0.8h-1.9c0-0.5,0.2-0.9,0.5-1.3c0.3-0.4,0.7-0.7,1.3-0.9c0.5-0.2,1.1-0.3,1.8-0.3
				c1,0,1.8,0.2,2.4,0.7c0.6,0.5,0.9,1.2,0.9,2.1v3.8c0,0.8,0.1,1.4,0.3,1.8v0.1H256.7z M254.6,86.3c0.4,0,0.7-0.1,1.1-0.3
				c0.3-0.2,0.6-0.4,0.7-0.7v-1.6h-1c-0.7,0-1.2,0.1-1.6,0.4c-0.4,0.2-0.5,0.6-0.5,1c0,0.4,0.1,0.7,0.4,0.9S254.2,86.3,254.6,86.3z"
				/>
			<path class="st0" d="M263.7,86.3c0.5,0,0.9-0.1,1.2-0.4s0.5-0.6,0.5-1h1.8c0,0.5-0.2,1-0.5,1.5c-0.3,0.5-0.7,0.8-1.2,1.1
				c-0.5,0.3-1.1,0.4-1.7,0.4c-1.2,0-2.1-0.4-2.8-1.1c-0.7-0.8-1-1.8-1-3.2v-0.2c0-1.3,0.3-2.3,1-3.1s1.6-1.2,2.8-1.2
				c1,0,1.8,0.3,2.5,0.9s1,1.4,1,2.3h-1.8c0-0.5-0.2-0.9-0.5-1.2c-0.3-0.3-0.7-0.5-1.2-0.5c-0.6,0-1.1,0.2-1.4,0.7
				c-0.3,0.4-0.5,1.1-0.5,2v0.3c0,0.9,0.2,1.6,0.5,2.1C262.6,86.1,263,86.3,263.7,86.3z"/>
			<path class="st0" d="M271.1,77.2v2.1h1.5v1.4h-1.5v4.7c0,0.3,0.1,0.6,0.2,0.7c0.1,0.1,0.4,0.2,0.7,0.2c0.2,0,0.4,0,0.7-0.1v1.5
				c-0.4,0.1-0.8,0.2-1.2,0.2c-1.5,0-2.2-0.8-2.2-2.4v-4.8h-1.4v-1.4h1.4v-2.1H271.1z"/>
		</g>
		<g>
			<defs>
				<rect id="SVGID_00000138551014593954154970000004641729447021990060_" x="13.2" y="14.1" width="304.6" height="135.3"/>
			</defs>
			<clipPath id="SVGID_00000116946286784365813880000017425964509127522494_">
				<use xlink:href="#SVGID_00000138551014593954154970000004641729447021990060_"  style="overflow:visible;"/>
			</clipPath>
			<defs>
				
					<filter id="Adobe_OpacityMaskFilter_00000160191337234237841020000003805462659477801879_" filterUnits="userSpaceOnUse" x="44.5" y="58.2" width="51" height="40.9">
					<feFlood  style="flood-color:white;flood-opacity:1" result="back"/>
					<feBlend  in="SourceGraphic" in2="back" mode="normal"/>
				</filter>
			</defs>
			
				<mask maskUnits="userSpaceOnUse" x="44.5" y="58.2" width="51" height="40.9" id="SVGID_00000029751604496370653810000015304656794377647035_">
				<g style="filter:url(#Adobe_OpacityMaskFilter_00000160191337234237841020000003805462659477801879_);">
					
						<linearGradient id="SVGID_00000010276907086945044230000010168505221183330484_" gradientUnits="userSpaceOnUse" x1="-1038.5343" y1="71.0218" x2="-1037.5343" y2="71.0218" gradientTransform="matrix(51.0353 0 0 -51.0353 53046.4297 3706.3225)">
						<stop  offset="0" style="stop-color:#FFFFFF"/>
						<stop  offset="1" style="stop-color:#FFFFFF"/>
					</linearGradient>
					
						<rect x="13.2" y="14.1" style="clip-path:url(#SVGID_00000116946286784365813880000017425964509127522494_);fill:url(#SVGID_00000010276907086945044230000010168505221183330484_);" width="304.6" height="135.3"/>
				</g>
			</mask>
			
				<g style="clip-path:url(#SVGID_00000116946286784365813880000017425964509127522494_);mask:url(#SVGID_00000029751604496370653810000015304656794377647035_);">
				<g>
					<defs>
						<rect id="SVGID_00000137829730873171582370000012934675739920782986_" x="44.5" y="58.2" width="51" height="40.9"/>
					</defs>
					<clipPath id="SVGID_00000047761075128780246170000004748336733409477025_">
						<use xlink:href="#SVGID_00000137829730873171582370000012934675739920782986_"  style="overflow:visible;"/>
					</clipPath>
					<path style="clip-path:url(#SVGID_00000047761075128780246170000004748336733409477025_);fill:#FFFFFF;" d="M70.1,97.3
						c8.6,0,15.6-7,15.6-15.6c0-8.6-7-15.6-15.6-15.6s-15.6,7-15.6,15.6C54.4,90.3,61.4,97.3,70.1,97.3"/>
					
						<ellipse style="clip-path:url(#SVGID_00000047761075128780246170000004748336733409477025_);fill:none;stroke:#FF911C;stroke-width:1.75;stroke-miterlimit:10;" cx="70.1" cy="81.7" rx="15.6" ry="15.6"/>
				</g>
			</g>
			<path style="clip-path:url(#SVGID_00000116946286784365813880000017425964509127522494_);fill:#FF911C;" d="M70.1,86.3
				c0.7,0,1.3-0.6,1.3-1.4l1.2-12.1c0-1.5-1.1-2.7-2.5-2.7s-2.5,1.2-2.5,2.7L68.8,85C68.8,85.7,69.4,86.3,70.1,86.3 M70.1,88.6
				c-1.4,0-2.5,1-2.5,2.3c0,1.3,1.1,2.3,2.5,2.3s2.5-1,2.5-2.3C72.6,89.6,71.4,88.6,70.1,88.6"/>
		</g>
	</g>
	<g>
		<g>
			<defs>
				<rect id="SVGID_00000157295486847348679240000008349863172996669585_" x="13.2" y="14.1" width="304.6" height="135.3"/>
			</defs>
			<clipPath id="SVGID_00000101094604920995683080000010647353905107024538_">
				<use xlink:href="#SVGID_00000157295486847348679240000008349863172996669585_"  style="overflow:visible;"/>
			</clipPath>
			<path style="clip-path:url(#SVGID_00000101094604920995683080000010647353905107024538_);fill:#DCDDDE;" d="M196.3,14.1
				c-0.5,0-0.9,0-1.2,0.1c-0.2,0-0.4,0-0.6,0c-0.7,0-2.1,0.1-2.9,1.2c-0.8,1-0.6,2.3-0.4,3.3c0.1,0.6,0.4,1.3,0.7,1.9
				c-9.2,0-33.6-0.2-38.2-0.2c-2,0-3.4-0.1-4.7-0.2c-1.1-0.1-2.2-0.2-3.4-0.2c-1.5,0-3,0.1-4.8,0.4c-1.5,0.2-6.7,0.5-23.5,0.5
				c-14.9,0-31.7-0.2-36.5-0.3c-0.4,0-0.9,0-1.3,0c-16.8,0-41.7,4.6-49,7.5C23.4,31,17.4,40,15.7,50.5c-1.5,9.4-2.5,32.3-2.6,33.3
				l0,0v0l0,0.6c0,3.8,0,15.3,2.1,27.1c2.9,15.7,8.5,22.6,20.7,25.8c12.2,3.1,25.9,5.2,34.9,5.4c9.5,0.2,24.8,0.2,29.9,0.2
				c3,0,15,0,25.2,0c7.5,0,14,0,15.1,0c0.9,0,1.6,0.2,2.4,0.4c1,0.3,2.3,0.6,4.5,0.6c0.4,0,0.7,0,1.2,0c2.8-0.1,3.6-0.4,4.3-0.8
				c0,0,0.1,0,0.1-0.1c0,0,0.1,0,0.6,0c0.3,0,1.4,0,5.1,0c8.7,0,26.1,0,33.2,0c-0.2,0.4-0.5,0.9-0.8,1.4c-0.8,1.5-0.4,2.6-0.1,3.1
				c0.7,1.1,2.1,1.7,4,1.7c1,0,2-0.2,2.8-0.5c3.6-1.3,5.9-4.3,6.9-5.9c4.1,0,20.3-0.3,32.8-0.6c6.2-0.2,10.9-0.2,16.4-0.2
				c2.4,0,4.8,0,7.4,0c3.3,0,7,0,11.6,0c14.2,0,22.7-1.3,27.5-4.2c3.4-2,5.2-5.7,7.1-9.7c0.5-1,1-2.1,1.6-3.2l0.1-0.2
				c2.5-4.6,4.8-9,6.5-14.3c1.3-4.3,1.4-8.8,1.4-14.5c0-1.6,0-3.3,0.1-5.2c0.1-7.2,0.1-9.5,0-18.1l-0.1-5.3
				c-0.1-13.1-1.9-18.4-6-25.4c-1.6-2.8-2.3-4.2-2.9-5.5c-0.8-1.6-1.5-3.1-3.9-7.1c-4.8-7.8-16.2-8-26.4-8.2l-0.6,0
				c-5.2-0.1-12.9-0.2-21-0.2c-7.2-0.1-14.6-0.1-20.4-0.2c-10.6-0.2-26.8-0.6-30.6-0.7c-0.7-0.9-2.1-2.4-3.9-4.1
				C199.7,14.3,197.7,14.1,196.3,14.1 M196.3,15.8c1.3,0,2.8,0.3,4.5,1.8c2.6,2.3,4.2,4.5,4.2,4.5s19.2,0.6,31.4,0.8
				c12.2,0.2,31.5,0.3,41.4,0.4c9.9,0.2,21.2,0.3,25.5,7.3c4.3,7.1,3.1,6.1,6.8,12.5c3.7,6.4,5.6,11.2,5.7,24.5
				c0.1,13.3,0.2,15,0,23.4c-0.2,8.4,0.3,14-1.4,19.1c-1.6,5.2-3.9,9.4-6.5,14.2c-2.6,4.8-4.3,9.9-8.1,12.2
				c-3.8,2.3-10.9,3.9-26.6,3.9c-8.3,0-13.6-0.1-19-0.1c-4.8,0-9.6,0-16.4,0.2c-14.6,0.4-33.8,0.6-33.8,0.6s-2.3,4.4-6.5,6
				c-0.6,0.2-1.4,0.3-2.2,0.3c-1.7,0-3.3-0.6-2.3-2.3c1.4-2.4,2.4-4,2.4-4s-25.2-0.1-36.3-0.1c-2.8,0-4.7,0-5.1,0
				c-2.1,0-0.5,0.6-5,0.9c-0.4,0-0.7,0-1.1,0c-3.6,0-4.3-1-6.9-1c-2.8,0-35.2,0-40.3,0s-20.4,0-29.9-0.2c-9.5-0.2-23.3-2.5-34.5-5.4
				c-11.2-2.9-16.6-9.1-19.4-24.4c-2.3-12.4-2.1-24.4-2.1-27.4c0,0,1-23.6,2.6-33.1s6.9-18.3,13.8-21.1c6.7-2.7,31.3-7.4,48.3-7.4
				c0.4,0,0.9,0,1.3,0c9,0.1,23.8,0.3,36.5,0.3c11.4,0,21.2-0.1,23.8-0.6c1.9-0.3,3.2-0.4,4.5-0.4c2.4,0,4.3,0.4,8.1,0.4
				c5.7,0.1,41.7,0.3,41.7,0.3s-2-2.1-2.5-4c-0.4-1.9,0.1-2.3,1.7-2.4C195.1,15.9,195.7,15.8,196.3,15.8"/>
			<path style="clip-path:url(#SVGID_00000101094604920995683080000010647353905107024538_);fill:#DCDDDE;" d="M42.6,32.6
				c-0.3,0-0.7,0-1,0.1c-0.2,0-0.4,0-0.7,0.1c-2.3,0.2-7.1,0.6-10.9,3.8c-5.9,4.8-9.1,14.6-9.3,28.4c0,0.9,0.7,1.7,1.6,1.8
				c0.1,0,0.1,0,0.2,0c0.8,0,1.6-0.6,1.7-1.4c0-0.1,2.7-13.3,7.7-18.8c3-3.3,6.7-4.7,9.6-5.8c2.1-0.8,4-1.5,5.1-2.8
				c1.2-1.4,1-2.6,0.7-3.2C46.5,32.8,43.7,32.6,42.6,32.6 M42.6,34.4c1.8,0,4.3,0.6,2.8,2.3c-2.2,2.5-9.2,2.6-14.7,8.6
				c-5.5,6-8.2,19.7-8.2,19.7c0.3-18,5.5-24.5,8.6-27.1c3.9-3.2,9-3.2,10.7-3.4C42.1,34.4,42.3,34.4,42.6,34.4"/>
			<path style="clip-path:url(#SVGID_00000101094604920995683080000010647353905107024538_);fill:#DCDDDE;" d="M22,97.3
				c-0.1,0-0.1,0-0.2,0c-0.9,0.1-1.6,0.9-1.6,1.8c0.2,13.8,3.4,23.6,9.3,28.4c3.8,3.1,8.6,3.6,10.9,3.8c0.3,0,0.5,0,0.7,0.1
				c0.3,0,0.6,0.1,1,0.1c1.2,0,3.9-0.2,4.8-2.1c0.3-0.6,0.5-1.8-0.7-3.2c-1.1-1.3-3-2-5.1-2.8c-2.9-1.1-6.5-2.5-9.6-5.8
				c-5.1-5.6-7.7-18.7-7.7-18.8C23.5,97.9,22.8,97.3,22,97.3 M21.9,99c0,0,2.7,13.7,8.2,19.7c5.5,6,12.5,6.1,14.7,8.6
				c1.5,1.8-1,2.3-2.8,2.3c-0.3,0-0.5,0-0.8,0c-1.7-0.2-6.8-0.3-10.7-3.4C27.4,123.5,22.2,117,21.9,99"/>
			<path style="clip-path:url(#SVGID_00000101094604920995683080000010647353905107024538_);fill:#DCDDDE;" d="M68,39.2
				c-1.7,0-2.7,0.8-3.7,2.2c0,0.1-0.1,0.1-0.1,0.2c-0.3,0.6-7.6,14.6-7.4,37.6c0.2,22.9,2.9,30.2,7.4,42.2l0.1,0.3
				c0.3,1,1.4,2.8,3.8,2.8c0.4,0,0.8,0,1.2-0.1c1-0.2,4.5-0.7,8.3-1.3c5.7-0.8,12.9-1.9,16.6-2.7c5.4-1.1,6.8-2.5,6.3-5.9
				c0-0.3-0.1-0.6-0.1-0.9c0-0.3-0.1-0.8-0.2-1.7c-2.1-20.8-2.1-41.7,0.1-62.1l0-0.3c0.2-1.5,0.6-5-3.3-5.8
				c-2.6-0.6-24.6-3.9-27.3-4.4c0,0-0.1,0-0.1,0l-0.3,0C68.8,39.3,68.4,39.2,68,39.2 M68,41c0.4,0,0.8,0.1,1.4,0.1
				c3.6,0.5,24.7,3.8,27.2,4.3c2.5,0.5,2,2.6,1.9,4.3c-3.6,34.5-0.1,61.5,0.1,64.1c0.2,2.6,1.5,3.6-4.8,5c-6.3,1.3-22.4,3.4-24.9,4
				c-0.3,0.1-0.6,0.1-0.8,0.1c-1.8,0-2.1-1.6-2.1-1.6c-4.5-12.1-7.2-19.2-7.4-42.1c-0.2-22.9,7.2-36.8,7.2-36.8
				C66.6,41.3,67.1,41,68,41"/>
			<path style="clip-path:url(#SVGID_00000101094604920995683080000010647353905107024538_);fill:#DCDDDE;" d="M186.3,26.7v1.8V26.7
				c-32.8,0-74.7,1.3-82.8,1.8c-2.1,0.1-6.2,0.5-9.7,1.1c-3.9,0.7-6.5,1.6-6.6,3.8c-0.2,2.4,2.7,3.9,11.2,5.8
				c12.5,2.7,30.6,4.4,47.3,4.4c9.8,0,18.2-0.6,24.3-1.7c31-5.6,34.2-11.2,34.1-13.3c0-0.9-0.8-1.7-1.7-1.7
				C197.6,26.8,192.2,26.7,186.3,26.7 M186.3,28.5c5.6,0,11,0,16,0.1c0,0,0.2,5.7-32.7,11.6c-6.3,1.1-14.8,1.7-24,1.7
				c-15.9,0-34.1-1.6-46.9-4.4c-20.3-4.4-4.3-6.6,4.9-7.1C111.5,29.8,153.2,28.5,186.3,28.5"/>
			<path style="clip-path:url(#SVGID_00000101094604920995683080000010647353905107024538_);fill:#DCDDDE;" d="M225.8,33.3
				L225.8,33.3c-1.8,0-4,0.2-6.3,0.5c-10.3,1.5-19.3,4.7-24.2,6.4c-0.9,0.3-1.6,0.6-2.2,0.8c-4.9,1.6-6.6,2.9-4.6,9.2
				c2,6.2,3,17.2,3.2,33.6c0.2,18.9-3.6,30.4-3.6,30.6c0,0.1,0,0.1-0.1,0.2c-0.1,0.3-0.2,0.6-0.2,0.9c-0.7,2.3-0.9,4.8,3.8,6.5
				c6.7,2.4,26.2,7.9,29.4,8.4c1,0.2,2.8,0.5,4.9,0.5c5.5,0,9.5-2.1,11.7-6.2c3.1-5.7,6.6-17.9,6.3-44c-0.2-22.5-4-34.2-5.5-39.2
				l-0.1-0.5C236.7,35.7,232.7,33.3,225.8,33.3 M225.8,35c7.2,0,9.7,2.8,10.8,6.4c1.4,4.5,5.4,16.2,5.6,39.2
				c0.3,23-2.6,36.5-6.1,43.1c-2.3,4.3-6.6,5.3-10.2,5.3c-1.9,0-3.6-0.3-4.6-0.4c-3.1-0.5-22.4-5.9-29.1-8.3
				c-4.2-1.5-2.9-3.1-2.4-5.4c0,0,4-11.6,3.7-31.1c-0.3-19.5-1.7-28.9-3.3-34.1c-1.7-5.2-0.8-5.6,3.4-7c4.2-1.4,14.3-5.4,26.2-7.1
				C222.1,35.2,224.1,35,225.8,35"/>
			<path style="clip-path:url(#SVGID_00000101094604920995683080000010647353905107024538_);fill:#DCDDDE;" d="M285.4,27.2
				L285.4,27.2c-2.9,0-5,0.6-5.1,0.6c-0.7,0.2-1.2,0.9-1.2,1.6c0,0.7,0.4,1.4,1.1,1.7c12.2,4.9,24.4,21.2,24.5,21.4
				c0.3,0.5,0.9,0.7,1.4,0.7c0.2,0,0.5,0,0.7-0.1c0.7-0.3,1.2-1.1,1-1.9C303.9,30.3,292.1,27.2,285.4,27.2 M285.4,29
				c6.2,0,17,3,20.7,22.5c0,0-12.5-16.9-25.3-22C280.8,29.6,282.7,29,285.4,29"/>
			<path style="clip-path:url(#SVGID_00000101094604920995683080000010647353905107024538_);fill:#DCDDDE;" d="M306.1,112.8
				L306.1,112.8L306.1,112.8z M306.1,109.3L306.1,109.3c-0.4,0-0.8,0.1-1.1,0.4c0,0,0,0,0,0c0,0,0,0,0,0c-0.1,0.1-0.2,0.1-0.2,0.2
				c0,0-0.1,0.1-0.1,0.1c-0.4,0.5-12.5,16.6-24.5,21.4c-0.7,0.3-1.1,1-1.1,1.7c0,0.7,0.5,1.4,1.2,1.6c0.1,0,2.1,0.6,5.1,0.6
				c6.7,0,18.5-3.1,22.4-23.9c0-0.1,0.1-0.3,0.1-0.4C307.9,110,307.1,109.3,306.1,109.3 M306.1,111c-3.7,19.6-14.5,22.5-20.7,22.5
				c-2.7,0-4.6-0.6-4.6-0.6C293.6,127.9,306.1,111,306.1,111 M306.1,111L306.1,111"/>
			<path style="clip-path:url(#SVGID_00000101094604920995683080000010647353905107024538_);fill:#DCDDDE;" d="M145.6,120.7
				c-16.7,0-34.8,1.7-47.3,4.4c-8.4,1.8-11.3,3.3-11.2,5.8c0.2,2.1,2.8,3.1,6.6,3.8c3.5,0.6,7.6,1,9.7,1.1c8.1,0.5,50,1.8,82.8,1.8
				c5.9,0,11.3,0,16-0.1c0.9,0,1.7-0.8,1.7-1.7c0.1-2.2-3.1-7.8-34.1-13.3C163.8,121.3,155.4,120.7,145.6,120.7 M145.6,122.5
				c9.2,0,17.7,0.5,24,1.7c32.9,5.9,32.7,11.6,32.7,11.6c-4.9,0.1-10.3,0.1-16,0.1c-33.1,0-74.8-1.3-82.7-1.8
				c-9.2-0.6-25.2-2.7-4.9-7.1C111.5,124,129.7,122.5,145.6,122.5"/>
			<defs>
				
					<filter id="Adobe_OpacityMaskFilter_00000137818546978647496300000005777158378962402708_" filterUnits="userSpaceOnUse" x="31.6" y="50.9" width="267.7" height="55.5">
					<feFlood  style="flood-color:white;flood-opacity:1" result="back"/>
					<feBlend  in="SourceGraphic" in2="back" mode="normal"/>
				</filter>
			</defs>
			
				<mask maskUnits="userSpaceOnUse" x="31.6" y="50.9" width="267.7" height="55.5" id="SVGID_00000170277467396329415360000009556210439948648885_">
				<g style="filter:url(#Adobe_OpacityMaskFilter_00000137818546978647496300000005777158378962402708_);">
					
						<linearGradient id="SVGID_00000129903484378604193350000010244507038546437562_" gradientUnits="userSpaceOnUse" x1="-1055.546" y1="71.9958" x2="-1054.546" y2="71.9958" gradientTransform="matrix(267.6953 0 0 -267.6953 282596.3125 19354.6348)">
						<stop  offset="0" style="stop-color:#FFFFFF"/>
						<stop  offset="1" style="stop-color:#FFFFFF"/>
					</linearGradient>
					
						<rect x="13.2" y="14.1" style="clip-path:url(#SVGID_00000101094604920995683080000010647353905107024538_);fill:url(#SVGID_00000129903484378604193350000010244507038546437562_);" width="304.6" height="135.3"/>
				</g>
			</mask>
			
				<g style="clip-path:url(#SVGID_00000101094604920995683080000010647353905107024538_);mask:url(#SVGID_00000170277467396329415360000009556210439948648885_);">
				<g>
					<defs>
						<rect id="SVGID_00000026128741297647439600000016957038237034103185_" x="31.6" y="50.9" width="267.7" height="55.5"/>
					</defs>
					<clipPath id="SVGID_00000013893096115056604120000010064525723716656548_">
						<use xlink:href="#SVGID_00000026128741297647439600000016957038237034103185_"  style="overflow:visible;"/>
					</clipPath>
					<path style="clip-path:url(#SVGID_00000013893096115056604120000010064525723716656548_);fill:#069E4B;" d="M52.6,57.9
						c-6.6,0-12,5.4-12,12v23.5c0,6.6,5.4,12,12,12h225.7c6.6,0,12-5.4,12-12V69.9c0-6.6-5.4-12-12-12H52.6z"/>
				</g>
			</g>
		</g>
		<g>
			<path class="st0" d="M100.8,86.2h-1.5l-3.8-6.1v6.1h-1.5v-8.5h1.5l3.8,6.1v-6.1h1.5V86.2z"/>
			<path class="st0" d="M102.2,83c0-0.6,0.1-1.2,0.4-1.7s0.6-0.9,1-1.1s1-0.4,1.5-0.4c0.9,0,1.6,0.3,2.1,0.8s0.8,1.3,0.9,2.2l0,0.3
				c0,0.6-0.1,1.2-0.4,1.7s-0.6,0.9-1,1.1s-1,0.4-1.6,0.4c-0.9,0-1.6-0.3-2.1-0.9S102.2,84,102.2,83L102.2,83z M103.6,83.1
				c0,0.7,0.1,1.2,0.4,1.5s0.6,0.6,1.1,0.6s0.9-0.2,1.1-0.6s0.4-0.9,0.4-1.6c0-0.6-0.1-1.1-0.4-1.5s-0.7-0.6-1.1-0.6
				c-0.5,0-0.8,0.2-1.1,0.6S103.6,82.4,103.6,83.1z"/>
			<path class="st0" d="M117.2,84.2h-3.3l-0.7,2h-1.5l3.2-8.5h1.3l3.2,8.5h-1.5L117.2,84.2z M114.3,83h2.5l-1.2-3.5L114.3,83z"/>
			<path class="st0" d="M122.8,85.2c0.4,0,0.7-0.1,0.9-0.3s0.4-0.5,0.4-0.8h1.3c0,0.4-0.1,0.8-0.4,1.1s-0.5,0.6-0.9,0.8
				s-0.8,0.3-1.3,0.3c-0.9,0-1.6-0.3-2.1-0.9s-0.8-1.4-0.8-2.4v-0.1c0-1,0.3-1.7,0.8-2.3s1.2-0.9,2.1-0.9c0.8,0,1.4,0.2,1.8,0.7
				s0.7,1,0.7,1.7H124c0-0.4-0.1-0.7-0.4-0.9s-0.5-0.4-0.9-0.4c-0.5,0-0.8,0.2-1.1,0.5s-0.4,0.8-0.4,1.5v0.2c0,0.7,0.1,1.2,0.4,1.5
				S122.3,85.2,122.8,85.2z"/>
			<path class="st0" d="M129.1,85.2c0.4,0,0.7-0.1,0.9-0.3s0.4-0.5,0.4-0.8h1.3c0,0.4-0.1,0.8-0.4,1.1s-0.5,0.6-0.9,0.8
				s-0.8,0.3-1.3,0.3c-0.9,0-1.6-0.3-2.1-0.9s-0.8-1.4-0.8-2.4v-0.1c0-1,0.3-1.7,0.8-2.3s1.2-0.9,2.1-0.9c0.8,0,1.4,0.2,1.8,0.7
				s0.7,1,0.7,1.7h-1.3c0-0.4-0.1-0.7-0.4-0.9s-0.5-0.4-0.9-0.4c-0.5,0-0.8,0.2-1.1,0.5s-0.4,0.8-0.4,1.5v0.2c0,0.7,0.1,1.2,0.4,1.5
				S128.6,85.2,129.1,85.2z"/>
			<path class="st0" d="M132.8,78.2c0-0.2,0.1-0.4,0.2-0.5s0.3-0.2,0.6-0.2s0.5,0.1,0.6,0.2s0.2,0.3,0.2,0.5c0,0.2-0.1,0.4-0.2,0.5
				s-0.3,0.2-0.6,0.2s-0.5-0.1-0.6-0.2S132.8,78.4,132.8,78.2z M134.3,86.2h-1.4v-6.3h1.4V86.2z"/>
			<path class="st0" d="M135.6,83c0-1,0.2-1.8,0.7-2.4s1.1-0.9,1.8-0.9c0.7,0,1.2,0.2,1.6,0.7v-3.2h1.4v9h-1.3l-0.1-0.7
				c-0.4,0.5-1,0.8-1.7,0.8c-0.7,0-1.3-0.3-1.8-0.9S135.6,84,135.6,83z M137,83.1c0,0.6,0.1,1.1,0.4,1.5s0.6,0.5,1.1,0.5
				c0.6,0,1-0.3,1.3-0.8v-2.7c-0.3-0.5-0.7-0.8-1.3-0.8c-0.5,0-0.8,0.2-1.1,0.5S137,82.4,137,83.1z"/>
			<path class="st0" d="M145.4,86.3c-0.9,0-1.6-0.3-2.2-0.9s-0.8-1.3-0.8-2.3V83c0-0.6,0.1-1.2,0.4-1.7s0.6-0.9,1-1.2
				s0.9-0.4,1.5-0.4c0.9,0,1.5,0.3,2,0.8s0.7,1.3,0.7,2.3v0.6h-4.1c0,0.5,0.2,0.9,0.5,1.2s0.7,0.5,1.2,0.5c0.7,0,1.2-0.3,1.6-0.8
				l0.8,0.7c-0.3,0.4-0.6,0.7-1,0.9S145.9,86.3,145.4,86.3z M145.2,80.9c-0.4,0-0.7,0.1-0.9,0.4s-0.4,0.7-0.5,1.1h2.7v-0.1
				c0-0.5-0.2-0.8-0.4-1.1S145.6,80.9,145.2,80.9z"/>
			<path class="st0" d="M150.4,79.9l0,0.7c0.5-0.6,1.1-0.8,1.8-0.8c1.3,0,2,0.8,2,2.3v4.2h-1.4v-4.1c0-0.4-0.1-0.7-0.3-0.9
				s-0.5-0.3-0.9-0.3c-0.6,0-1,0.3-1.3,0.8v4.5h-1.4v-6.3H150.4z"/>
			<path class="st0" d="M157.6,78.3v1.5h1.1v1.1h-1.1v3.5c0,0.2,0,0.4,0.1,0.5s0.3,0.2,0.5,0.2c0.2,0,0.3,0,0.5-0.1v1.1
				c-0.3,0.1-0.6,0.1-0.9,0.1c-1.1,0-1.6-0.6-1.6-1.8v-3.6h-1v-1.1h1v-1.5H157.6z"/>
			<path class="st0" d="M163.3,84.5c0-0.3-0.1-0.4-0.3-0.6s-0.6-0.2-1-0.4s-0.9-0.2-1.2-0.4c-0.7-0.3-1.1-0.8-1.1-1.5
				c0-0.5,0.2-1,0.7-1.4s1-0.6,1.8-0.6c0.8,0,1.4,0.2,1.8,0.6s0.7,0.9,0.7,1.5h-1.4c0-0.3-0.1-0.5-0.3-0.7s-0.5-0.3-0.8-0.3
				c-0.3,0-0.6,0.1-0.8,0.2s-0.3,0.3-0.3,0.6c0,0.2,0.1,0.4,0.3,0.5s0.6,0.2,1.1,0.4s1,0.3,1.3,0.4s0.6,0.4,0.7,0.6s0.2,0.5,0.2,0.9
				c0,0.6-0.2,1-0.7,1.4s-1.1,0.5-1.9,0.5c-0.5,0-1-0.1-1.4-0.3s-0.7-0.4-0.9-0.8s-0.3-0.7-0.3-1.1h1.4c0,0.3,0.1,0.6,0.4,0.8
				s0.5,0.3,0.9,0.3c0.4,0,0.7-0.1,0.9-0.2S163.3,84.7,163.3,84.5z"/>
			<path class="st0" d="M168.7,83c0-0.6,0.1-1.2,0.4-1.7s0.6-0.9,1-1.1s1-0.4,1.5-0.4c0.9,0,1.6,0.3,2.1,0.8s0.8,1.3,0.9,2.2l0,0.3
				c0,0.6-0.1,1.2-0.4,1.7s-0.6,0.9-1,1.1s-1,0.4-1.6,0.4c-0.9,0-1.6-0.3-2.1-0.9S168.7,84,168.7,83L168.7,83z M170.1,83.1
				c0,0.7,0.1,1.2,0.4,1.5s0.6,0.6,1.1,0.6s0.9-0.2,1.1-0.6s0.4-0.9,0.4-1.6c0-0.6-0.1-1.1-0.4-1.5s-0.7-0.6-1.1-0.6
				c-0.5,0-0.8,0.2-1.1,0.6S170.1,82.4,170.1,83.1z"/>
			<path class="st0" d="M179.1,81.2c-0.2,0-0.4,0-0.6,0c-0.7,0-1.1,0.2-1.3,0.8v4.3h-1.4v-6.3h1.4l0,0.7c0.3-0.6,0.8-0.8,1.4-0.8
				c0.2,0,0.4,0,0.5,0.1L179.1,81.2z"/>
			<path class="st0" d="M183.2,86.2v-8.5h2.5c0.8,0,1.4,0.2,2,0.5s1,0.8,1.4,1.4s0.5,1.3,0.5,2.1v0.4c0,0.8-0.2,1.5-0.5,2.1
				s-0.8,1.1-1.4,1.4s-1.3,0.5-2,0.5H183.2z M184.7,78.9V85h1c0.8,0,1.4-0.2,1.8-0.7s0.6-1.2,0.6-2.1v-0.5c0-0.9-0.2-1.6-0.6-2.1
				s-1-0.7-1.8-0.7H184.7z"/>
			<path class="st0" d="M194.6,86.2c-0.1-0.1-0.1-0.3-0.2-0.6c-0.5,0.5-1,0.7-1.7,0.7c-0.6,0-1.2-0.2-1.6-0.5s-0.6-0.8-0.6-1.3
				c0-0.7,0.2-1.2,0.8-1.6s1.2-0.5,2.2-0.5h0.9v-0.4c0-0.3-0.1-0.6-0.3-0.8s-0.5-0.3-0.8-0.3c-0.3,0-0.6,0.1-0.8,0.2
				s-0.3,0.4-0.3,0.6h-1.4c0-0.3,0.1-0.7,0.3-1s0.5-0.5,0.9-0.7s0.8-0.3,1.3-0.3c0.7,0,1.3,0.2,1.8,0.6s0.7,0.9,0.7,1.6v2.9
				c0,0.6,0.1,1,0.2,1.4v0.1H194.6z M193,85.2c0.3,0,0.5-0.1,0.8-0.2s0.4-0.3,0.6-0.6v-1.2h-0.8c-0.5,0-0.9,0.1-1.2,0.3
				s-0.4,0.4-0.4,0.8c0,0.3,0.1,0.5,0.3,0.7S192.7,85.2,193,85.2z"/>
			<path class="st0" d="M198.6,79.9l0,0.7c0.4-0.5,1.1-0.8,1.8-0.8c0.8,0,1.4,0.3,1.7,1c0.5-0.6,1.1-1,1.9-1c0.7,0,1.2,0.2,1.6,0.6
				s0.5,1,0.5,1.7v4.2h-1.4v-4.1c0-0.4-0.1-0.7-0.3-0.9s-0.5-0.3-0.9-0.3c-0.3,0-0.6,0.1-0.8,0.3s-0.3,0.4-0.4,0.7l0,4.3h-1.4V82
				c0-0.7-0.4-1.1-1.1-1.1c-0.6,0-1,0.2-1.2,0.7v4.6h-1.4v-6.3H198.6z"/>
			<path class="st0" d="M211.5,86.2c-0.1-0.1-0.1-0.3-0.2-0.6c-0.5,0.5-1,0.7-1.7,0.7c-0.6,0-1.2-0.2-1.6-0.5s-0.6-0.8-0.6-1.3
				c0-0.7,0.3-1.2,0.8-1.6s1.2-0.5,2.2-0.5h0.9v-0.4c0-0.3-0.1-0.6-0.3-0.8s-0.5-0.3-0.8-0.3c-0.3,0-0.6,0.1-0.8,0.2
				s-0.3,0.4-0.3,0.6h-1.4c0-0.3,0.1-0.7,0.3-1s0.5-0.5,0.9-0.7s0.8-0.3,1.3-0.3c0.7,0,1.3,0.2,1.8,0.6s0.7,0.9,0.7,1.6v2.9
				c0,0.6,0.1,1,0.2,1.4v0.1H211.5z M209.9,85.2c0.3,0,0.5-0.1,0.8-0.2s0.4-0.3,0.6-0.6v-1.2h-0.8c-0.5,0-0.9,0.1-1.2,0.3
				s-0.4,0.4-0.4,0.8c0,0.3,0.1,0.5,0.3,0.7S209.6,85.2,209.9,85.2z"/>
			<path class="st0" d="M213.9,83c0-1,0.2-1.8,0.7-2.4s1.1-0.9,1.8-0.9c0.7,0,1.3,0.3,1.7,0.8l0.1-0.6h1.3V86c0,0.8-0.3,1.5-0.8,2
				s-1.2,0.7-2.1,0.7c-0.5,0-0.9-0.1-1.4-0.3s-0.8-0.4-1-0.8l0.7-0.9c0.4,0.5,1,0.8,1.6,0.8c0.5,0,0.8-0.1,1.1-0.4s0.4-0.6,0.4-1.1
				v-0.4c-0.4,0.5-1,0.7-1.6,0.7c-0.7,0-1.3-0.3-1.8-0.9S213.9,84,213.9,83z M215.4,83.1c0,0.6,0.1,1.1,0.4,1.5s0.6,0.5,1.1,0.5
				c0.6,0,1-0.2,1.3-0.7v-2.8c-0.3-0.5-0.7-0.7-1.3-0.7c-0.5,0-0.8,0.2-1.1,0.6S215.4,82.4,215.4,83.1z"/>
			<path class="st0" d="M223.8,86.3c-0.9,0-1.6-0.3-2.2-0.9s-0.8-1.3-0.8-2.3V83c0-0.6,0.1-1.2,0.4-1.7s0.6-0.9,1-1.2
				s0.9-0.4,1.5-0.4c0.9,0,1.5,0.3,2,0.8s0.7,1.3,0.7,2.3v0.6h-4.1c0,0.5,0.2,0.9,0.5,1.2s0.7,0.5,1.2,0.5c0.7,0,1.2-0.3,1.6-0.8
				l0.8,0.7c-0.3,0.4-0.6,0.7-1,0.9S224.3,86.3,223.8,86.3z M223.6,80.9c-0.4,0-0.7,0.1-0.9,0.4s-0.4,0.7-0.5,1.1h2.7v-0.1
				c0-0.5-0.2-0.8-0.4-1.1S224,80.9,223.6,80.9z"/>
			<path class="st0" d="M233.7,82.9H232v3.3h-1.5v-8.5h3c1,0,1.7,0.2,2.3,0.7c0.5,0.4,0.8,1.1,0.8,1.9c0,0.6-0.1,1-0.4,1.4
				c-0.3,0.4-0.7,0.7-1.2,0.9l1.9,3.6v0.1h-1.6L233.7,82.9z M232,81.7h1.5c0.5,0,0.9-0.1,1.2-0.4s0.4-0.6,0.4-1
				c0-0.5-0.1-0.8-0.4-1.1s-0.6-0.4-1.2-0.4H232V81.7z"/>
			<path class="st0" d="M240.6,86.3c-0.9,0-1.6-0.3-2.2-0.9s-0.8-1.3-0.8-2.3V83c0-0.6,0.1-1.2,0.4-1.7s0.6-0.9,1-1.2
				s0.9-0.4,1.5-0.4c0.9,0,1.5,0.3,2,0.8s0.7,1.3,0.7,2.3v0.6H239c0,0.5,0.2,0.9,0.5,1.2s0.7,0.5,1.2,0.5c0.7,0,1.2-0.3,1.6-0.8
				l0.8,0.7c-0.3,0.4-0.6,0.7-1,0.9S241.2,86.3,240.6,86.3z M240.5,80.9c-0.4,0-0.7,0.1-0.9,0.4s-0.4,0.7-0.5,1.1h2.7v-0.1
				c0-0.5-0.2-0.8-0.4-1.1S240.9,80.9,240.5,80.9z"/>
			<path class="st0" d="M249.9,83.1c0,1-0.2,1.8-0.7,2.3s-1,0.9-1.8,0.9c-0.7,0-1.3-0.2-1.7-0.7v3h-1.4v-8.8h1.3l0.1,0.6
				c0.4-0.5,1-0.8,1.7-0.8c0.8,0,1.4,0.3,1.8,0.9S249.9,82,249.9,83.1L249.9,83.1z M248.5,83c0-0.6-0.1-1.1-0.4-1.5
				s-0.6-0.6-1.1-0.6c-0.6,0-1,0.2-1.3,0.7v2.8c0.3,0.5,0.7,0.7,1.3,0.7c0.5,0,0.8-0.2,1.1-0.5S248.5,83.7,248.5,83z"/>
			<path class="st0" d="M250.9,83c0-0.6,0.1-1.2,0.4-1.7s0.6-0.9,1-1.1s1-0.4,1.5-0.4c0.9,0,1.5,0.3,2.1,0.8s0.8,1.3,0.9,2.2l0,0.3
				c0,0.6-0.1,1.2-0.4,1.7s-0.6,0.9-1,1.1s-1,0.4-1.5,0.4c-0.9,0-1.6-0.3-2.1-0.9S250.9,84,250.9,83L250.9,83z M252.3,83.1
				c0,0.7,0.1,1.2,0.4,1.5s0.6,0.6,1.1,0.6s0.9-0.2,1.1-0.6s0.4-0.9,0.4-1.6c0-0.6-0.1-1.1-0.4-1.5s-0.6-0.6-1.1-0.6
				c-0.5,0-0.8,0.2-1.1,0.6S252.3,82.4,252.3,83.1z"/>
			<path class="st0" d="M261.3,81.2c-0.2,0-0.4,0-0.6,0c-0.7,0-1.1,0.2-1.3,0.8v4.3H258v-6.3h1.4l0,0.7c0.3-0.6,0.8-0.8,1.4-0.8
				c0.2,0,0.4,0,0.5,0.1L261.3,81.2z"/>
			<path class="st0" d="M264.4,78.3v1.5h1.1v1.1h-1.1v3.5c0,0.2,0,0.4,0.1,0.5s0.3,0.2,0.5,0.2c0.2,0,0.3,0,0.5-0.1v1.1
				c-0.3,0.1-0.6,0.1-0.9,0.1c-1.1,0-1.6-0.6-1.6-1.8v-3.6h-1v-1.1h1v-1.5H264.4z"/>
			<path class="st0" d="M269.2,86.3c-0.9,0-1.6-0.3-2.2-0.9s-0.8-1.3-0.8-2.3V83c0-0.6,0.1-1.2,0.4-1.7s0.6-0.9,1-1.2
				s0.9-0.4,1.5-0.4c0.9,0,1.5,0.3,2,0.8s0.7,1.3,0.7,2.3v0.6h-4.1c0,0.5,0.2,0.9,0.5,1.2s0.7,0.5,1.2,0.5c0.7,0,1.2-0.3,1.6-0.8
				l0.8,0.7c-0.3,0.4-0.6,0.7-1,0.9S269.8,86.3,269.2,86.3z M269.1,80.9c-0.4,0-0.7,0.1-0.9,0.4s-0.4,0.7-0.5,1.1h2.7v-0.1
				c0-0.5-0.2-0.8-0.4-1.1S269.5,80.9,269.1,80.9z"/>
			<path class="st0" d="M272.7,83c0-1,0.2-1.8,0.7-2.4s1.1-0.9,1.8-0.9c0.7,0,1.2,0.2,1.6,0.7v-3.2h1.4v9h-1.3l-0.1-0.7
				c-0.4,0.5-1,0.8-1.7,0.8c-0.7,0-1.3-0.3-1.8-0.9S272.7,84,272.7,83z M274.1,83.1c0,0.6,0.1,1.1,0.4,1.5s0.6,0.5,1.1,0.5
				c0.6,0,1-0.3,1.3-0.8v-2.7c-0.3-0.5-0.7-0.8-1.3-0.8c-0.5,0-0.8,0.2-1.1,0.5S274.1,82.4,274.1,83.1z"/>
		</g>
		<g>
			<defs>
				<rect id="SVGID_00000182488845367901084650000003374402339947466884_" x="13.2" y="14.1" width="304.6" height="135.3"/>
			</defs>
			<clipPath id="SVGID_00000119813479519244433830000001167545254988544938_">
				<use xlink:href="#SVGID_00000182488845367901084650000003374402339947466884_"  style="overflow:visible;"/>
			</clipPath>
			<path style="clip-path:url(#SVGID_00000119813479519244433830000001167545254988544938_);fill:#FFFFFF;" d="M70.6,98.3
				c-4.4,0-8.6-1.7-11.7-4.8c-3.1-3.1-4.9-7.3-4.9-11.7c0-9.2,7.4-16.6,16.6-16.7c0,0,0,0,0,0c9.1,0,16.6,7.4,16.6,16.6
				C87.2,90.8,79.8,98.3,70.6,98.3C70.6,98.3,70.6,98.3,70.6,98.3"/>
			<path style="clip-path:url(#SVGID_00000119813479519244433830000001167545254988544938_);fill:#099F4A;" d="M72.6,77.5l0.4-0.6
				l2-2.4c0.9-1,2.9-1.5,4.2-1.5l0.2,0.4L77.1,76L72,82.8l-3.6,5.5l-0.9,1.5c-0.1,0.2-0.3,0.5-0.5,0.7c-0.3,0.1-1.1,0.1-1.4,0.1
				c-0.8,0-1,0-1.1-0.1c-0.2-0.2-0.4-0.5-0.5-0.9c-0.5-1.1-1.5-3.6-1.5-4.8c0-0.4,0.2-0.6,0.6-0.8c0.5-0.4,1.3-0.8,1.9-0.8
				c0.5,0,0.5,0.4,0.7,0.8l0.5,1.2c0.1,0.2,0.3,0.9,0.6,0.9c0.2,0,0.5-0.6,0.6-0.7L72.6,77.5z"/>
		</g>
	</g>
</g>
<g id="Indicators">
</g>
<g id="Accident_Icons">
</g>
</svg>
