<?xml version="1.0" encoding="utf-8"?>
<!-- Generator: Adobe Illustrator 26.0.1, SVG Export Plug-In . SVG Version: 6.00 Build 0)  -->
<svg version="1.1" id="Layer_1" xmlns="http://www.w3.org/2000/svg" xmlns:xlink="http://www.w3.org/1999/xlink" x="0px" y="0px"
	 viewBox="0 0 62.3 67.7" style="enable-background:new 0 0 62.3 67.7;" xml:space="preserve">
<style type="text/css">
	.st0{display:none;}
	.st1{display:inline;fill:#DCDDDE;}
	.st2{display:inline;}
	.st3{clip-path:url(#SVGID_00000031892646213932161930000011054104833654246586_);fill:#DCDDDE;}
	.st4{clip-path:url(#SVGID_00000117652012696341461830000008980043607472585402_);fill:#DCDDDE;}
	.st5{clip-path:url(#SVGID_00000117641646934545007970000018235400799883885213_);fill:#DCDDDE;}
	.st6{clip-path:url(#SVGID_00000152946426785825674640000016616803456100080315_);fill:#FF911C;}
	.st7{clip-path:url(#SVGID_00000111153651875055023970000015353876225429771919_);fill:#FF911C;}
	.st8{clip-path:url(#SVGID_00000116231072459393702440000000960234385164853908_);fill:#FF911C;}
	.st9{clip-path:url(#SVGID_00000159455191932009167550000009877381362886813875_);fill:#FF911C;}
	.st10{filter:url(#Adobe_OpacityMaskFilter);}
	.st11{clip-path:url(#SVGID_00000155833529226323605200000000378988293957679038_);}
	
		.st12{clip-path:url(#SVGID_00000173874453099543896400000014929325021799324857_);fill:url(#SVGID_00000149358290252206756450000003554156208028103827_);}
	
		.st13{clip-path:url(#SVGID_00000155833529226323605200000000378988293957679038_);mask:url(#SVGID_00000170971168208347064560000001769028024191704195_);}
	
		.st14{clip-path:url(#SVGID_00000100377456829002959390000009502968642625412789_);fill:none;stroke:#FF911C;stroke-width:1.75;stroke-miterlimit:10;}
	.st15{clip-path:url(#SVGID_00000122001518746335430070000010312715362654942111_);fill:#FF911C;}
	.st16{clip-path:url(#SVGID_00000108995869939571603770000004220827549120613054_);fill:#DCDDDE;}
	.st17{clip-path:url(#SVGID_00000108303018621601557740000012497755145419420817_);fill:#DCDDDE;}
	.st18{clip-path:url(#SVGID_00000137821351317341674620000013352780090820023451_);fill:#DCDDDE;}
	.st19{clip-path:url(#SVGID_00000148653032280804744530000010635218095039988121_);fill:#DCDDDE;}
	.st20{clip-path:url(#SVGID_00000142167758877055119980000013266282883250186667_);fill:#DCDDDE;}
	.st21{clip-path:url(#SVGID_00000176010689039509725800000015610987177064348587_);fill:#DCDDDE;}
	.st22{clip-path:url(#SVGID_00000091016044801903374420000011976342240238074006_);fill:#DCDDDE;}
	.st23{clip-path:url(#SVGID_00000162316867379964035230000008474369602795020221_);fill:#FF911C;}
	.st24{clip-path:url(#SVGID_00000112615223541288155470000009144173756675144888_);fill:#FF911C;}
	.st25{clip-path:url(#SVGID_00000008844247150029557120000001839998280859276208_);fill:#FF911C;}
	.st26{clip-path:url(#SVGID_00000039826474084936952990000017998756942406074538_);fill:#FF911C;}
	.st27{display:inline;fill:#FF911C;}
</style>
<g id="Layer_1_00000079470150887116325160000012979729421990768768_">
</g>
<g id="History_Icons">
</g>
<g id="History_Glance">
	<g id="Layer_5" class="st0">
	</g>
</g>
<g id="Pre-Approved_Buttons">
</g>
<g id="AutoScore_Modal">
</g>
<g id="Accident_Vehicle">
</g>
<g id="Accident_Icons">
	<g class="st0">
		<polygon class="st1" points="30.3,51.7 31.3,50.5 29.7,50.4 29.5,48.9 28.3,49.9 27.1,49 27.2,50.7 25.6,50.8 26.8,51.9 25.7,53 
			27.4,53.1 27.5,54.5 28.7,53.6 30,54.4 29.9,53 31.6,52.6 		"/>
		<polygon class="st1" points="28.7,48.9 17.1,46.6 28,51.3 25.9,62.5 30.5,52 42.3,54.3 31.2,49.5 32,42.5 		"/>
		<polygon class="st1" points="30,52.6 36,59.3 31.6,51.6 38.5,45.8 30.5,50 28.8,51.1 		"/>
		<g class="st2">
			<g>
				<defs>
					<rect id="SVGID_1_" x="7.5" y="32.7" width="47.4" height="35"/>
				</defs>
				<clipPath id="SVGID_00000151521630427687425800000008063939932185117069_">
					<use xlink:href="#SVGID_1_"  style="overflow:visible;"/>
				</clipPath>
				<path style="clip-path:url(#SVGID_00000151521630427687425800000008063939932185117069_);fill:#DCDDDE;" d="M17.5,52.3
					c0,1.4-1.1,2.6-2.6,2.6s-2.6-1.1-2.6-2.6c0-1.4,1.1-2.6,2.6-2.6C16.3,49.8,17.5,50.9,17.5,52.3"/>
			</g>
			<g>
				<defs>
					<rect id="SVGID_00000022533435439669874460000009183894686449261498_" x="7.5" y="32.7" width="47.4" height="35"/>
				</defs>
				<clipPath id="SVGID_00000092445801602222787890000017720783353815220909_">
					<use xlink:href="#SVGID_00000022533435439669874460000009183894686449261498_"  style="overflow:visible;"/>
				</clipPath>
				<path style="clip-path:url(#SVGID_00000092445801602222787890000017720783353815220909_);fill:#DCDDDE;" d="M50,52.3
					c0,1.4-1.1,2.6-2.6,2.6c-1.5,0-2.6-1.1-2.6-2.6c0-1.4,1.1-2.6,2.6-2.6C48.9,49.7,50,50.9,50,52.3"/>
			</g>
			<g>
				<defs>
					<rect id="SVGID_00000176736200123758221630000011894951313232555944_" x="7.5" y="32.7" width="47.4" height="35"/>
				</defs>
				<clipPath id="SVGID_00000124158399100283902600000012152840906090622341_">
					<use xlink:href="#SVGID_00000176736200123758221630000011894951313232555944_"  style="overflow:visible;"/>
				</clipPath>
				<path style="clip-path:url(#SVGID_00000124158399100283902600000012152840906090622341_);fill:#DCDDDE;" d="M10.2,49.7
					c0-0.3,0.5-1.3,1.8-2.8c1-1.3,2.2-2.3,2.6-2.6c0.1,0,0.1-0.1,0.2-0.1c1.7,0.3,5.3,0.7,13.1,0.7c1,0,2.2,0,3.3,0
					c10.1,0.1,14.5-0.3,16.4-0.7c0.1,0,0.1,0.1,0.2,0.1c1.2,0.7,4.3,4.4,4.5,5.3c0.2,2.2,0.4,9.5,0.1,11.5c-1.2,0.1-4.2,0-6.7-0.2
					h-0.1h-0.3l0,0c0-0.7-0.6-1.3-1.3-1.3l0,0c-9.6,0-24.1,0.1-25.1,0c-0.6-0.1-1.2,0.3-1.4,0.9c-0.1,0.2-0.1,0.3-0.1,0.4h-0.3h-0.1
					c-2.5,0.2-5.5,0.3-6.7,0.2C9.8,59.3,10.1,51.9,10.2,49.7 M18.7,36.4c0.6-0.5,5.1-1.4,12.6-1.4h0.2c7.5,0,11.7,0.8,12.3,1.4
					c0.4,0.5,2,3.4,2.8,5.6c-1.6,0.3-5.6,0.6-15.4,0.5l0,0c-9.8,0.1-13.8-0.3-15.4-0.5C16.7,39.7,18.1,36.9,18.7,36.4 M54.8,56.3
					c0-2.9-0.2-5.9-0.3-6.8c-0.2-1.7-2.7-4.7-4.5-6.4h2.1l0,0c0.7,0,1.2-0.5,1.2-1.2s-0.5-1.2-1.2-1.2l-2.9-0.1l0,0
					c-0.2,0-0.3,0.1-0.5,0.1c-0.9-2.4-2.5-5.3-3.3-6.2c-0.5-0.5-1.6-1.2-5.6-1.6c-2.3-0.1-5.3-0.3-8.4-0.3c-0.1,0-0.2,0-0.3,0
					c-3.6,0-12.3,0.3-14.2,2.1c-0.8,0.8-2.3,3.8-3.3,6.2c-0.2-0.1-0.3-0.1-0.5-0.1h-2.9l0,0C9.5,40.8,9,41.4,9,42
					c0,0.7,0.5,1.2,1.2,1.2h2.2c-1.9,1.5-4.5,4.6-4.6,6.3c-0.1,0.9-0.2,4-0.3,6.8c0,1.6,0,3,0.1,4c0.1,1.8,0.3,2.5,0.9,2.9
					c0.2,0.1,0.3,0.3,1.1,0.3v2.8c0,0.7,0.5,1.2,1.2,1.2h5.3c0.7,0,1.2-0.5,1.2-1.2v-2.9H45v2.9c0,0.7,0.5,1.2,1.2,1.2h5.3
					c0.7,0,1.2-0.5,1.2-1.2v-2.8c0.8-0.1,0.9-0.3,1.1-0.3C54.6,62.9,54.9,62.4,54.8,56.3"/>
			</g>
		</g>
	</g>
	<g class="st0">
		<g class="st2">
			<defs>
				<rect id="SVGID_00000072257035403415452330000017399008641775791037_" x="7.3" y="10.5" width="47.9" height="57.1"/>
			</defs>
			<clipPath id="SVGID_00000026873760442925667200000010690931519556698531_">
				<use xlink:href="#SVGID_00000072257035403415452330000017399008641775791037_"  style="overflow:visible;"/>
			</clipPath>
			<path style="clip-path:url(#SVGID_00000026873760442925667200000010690931519556698531_);fill:#FF911C;" d="M39.9,56.5H22.5
				c-0.7,0-1.2-0.5-1.2-1.2v-1.1c0-0.7,0.5-1.2,1.2-1.2h17.5c0.7,0,1.2,0.5,1.2,1.2v1C41.1,55.9,40.6,56.5,39.9,56.5"/>
		</g>
		<g class="st2">
			<defs>
				<rect id="SVGID_00000116213248811163900850000014892457689835894953_" x="7.3" y="10.5" width="47.9" height="57.1"/>
			</defs>
			<clipPath id="SVGID_00000053523090041618925060000006798861003168853181_">
				<use xlink:href="#SVGID_00000116213248811163900850000014892457689835894953_"  style="overflow:visible;"/>
			</clipPath>
			<path style="clip-path:url(#SVGID_00000053523090041618925060000006798861003168853181_);fill:#FF911C;" d="M17.4,51.8
				c0,1.5-1.2,2.7-2.6,2.7c-1.5,0-2.6-1.2-2.6-2.7c0-1.5,1.2-2.7,2.6-2.7C16.2,49.2,17.4,50.3,17.4,51.8"/>
		</g>
		<g class="st2">
			<defs>
				<rect id="SVGID_00000155143668207871036790000005282231437373181845_" x="7.3" y="10.5" width="47.9" height="57.1"/>
			</defs>
			<clipPath id="SVGID_00000093890303771666681010000000066111435083641490_">
				<use xlink:href="#SVGID_00000155143668207871036790000005282231437373181845_"  style="overflow:visible;"/>
			</clipPath>
			<path style="clip-path:url(#SVGID_00000093890303771666681010000000066111435083641490_);fill:#FF911C;" d="M50.3,51.8
				c0,1.5-1.2,2.7-2.6,2.7c-1.5,0-2.6-1.2-2.6-2.7c0-1.5,1.2-2.7,2.6-2.7C49.1,49.2,50.3,50.3,50.3,51.8"/>
		</g>
		<g class="st2">
			<defs>
				<rect id="SVGID_00000128465505216567518420000014027285044474816191_" x="7.3" y="10.5" width="47.9" height="57.1"/>
			</defs>
			<clipPath id="SVGID_00000105392985435044176380000002338538429598155183_">
				<use xlink:href="#SVGID_00000128465505216567518420000014027285044474816191_"  style="overflow:visible;"/>
			</clipPath>
			<path style="clip-path:url(#SVGID_00000105392985435044176380000002338538429598155183_);fill:#FF911C;" d="M52.5,61.1
				c-1.2,0.1-4.2,0-6.8-0.2h-0.1h-0.3l0,0c0-0.7-0.6-1.3-1.3-1.3l0,0c-9.6,0-24.3,0.1-25.4,0c-0.6-0.1-1.2,0.3-1.4,0.9
				c-0.1,0.2-0.1,0.3-0.1,0.4h-0.3h-0.1c-2.6,0.2-5.6,0.3-6.8,0.2c-0.3-2.2-0.1-9.7,0.1-12c0-0.3,0.5-1.4,1.8-2.9
				c1.1-1.3,2.2-2.4,2.7-2.7c0.1,0,0.1-0.1,0.2-0.1c1.7,0.3,5.3,0.7,13.3,0.7c1,0,2.2,0,3.3,0c10.2,0.1,14.6-0.3,16.6-0.7
				c0.1,0,0.1,0.1,0.2,0.1c1.2,0.7,4.4,4.5,4.5,5.6C52.6,51.3,52.8,58.9,52.5,61.1 M55.1,56c0-3-0.2-6.2-0.3-7.1
				c-0.2-1.7-2.8-4.9-4.6-6.5h2.2l0,0c0.7,0,1.2-0.5,1.2-1.2s-0.5-1.3-1.2-1.3l-3-0.1l0,0c-0.2,0-0.3,0.1-0.5,0.1
				c-1-2.5-2.5-5.6-3.4-6.4c-0.4-0.4-1.4-1-4.3-1.5c-0.8,0.9-1.7,1.5-2.7,2.2c3,0.3,4.8,0.8,5.3,1.1c0.5,0.5,2,3.4,2.8,5.8
				c-1.6,0.3-5.7,0.6-15.5,0.5l0,0c-9.9,0.1-13.9-0.3-15.6-0.5c0.9-2.3,2.4-5.3,2.8-5.8c0.4-0.3,2.7-0.9,6.4-1.2
				c-1-0.6-1.9-1.4-2.7-2.2c-2.5,0.3-4.6,0.9-5.4,1.6c-0.8,0.8-2.3,3.9-3.4,6.4c-0.2-0.1-0.3-0.1-0.5-0.1h-3l0,0
				c-0.6,0.1-1.1,0.7-1.1,1.4c0,0.7,0.5,1.2,1.2,1.3H12c-1.8,1.6-4.4,4.8-4.6,6.5c-0.1,0.9-0.3,4-0.3,7.1c0,1.7,0,3.2,0.1,4.2
				c0.1,1.9,0.3,2.6,0.9,3c0.2,0.1,0.3,0.3,1.1,0.3v2.9c0,0.7,0.5,1.2,1.2,1.2H16c0.7,0,1.2-0.5,1.2-1.2v-3h27.9v3
				c0,0.7,0.5,1.2,1.2,1.2h5.4c0.7,0,1.2-0.5,1.2-1.2v-2.9c0.8-0.1,0.9-0.3,1.1-0.3C54.8,62.7,55.2,62.1,55.1,56"/>
		</g>
		<g class="st2">
			<defs>
				<rect id="SVGID_00000072276634141055209260000005887492257223851450_" x="7.3" y="10.5" width="47.9" height="57.1"/>
			</defs>
			<clipPath id="SVGID_00000053541826531703133900000002849215990789934493_">
				<use xlink:href="#SVGID_00000072276634141055209260000005887492257223851450_"  style="overflow:visible;"/>
			</clipPath>
			<defs>
				<filter id="Adobe_OpacityMaskFilter" filterUnits="userSpaceOnUse" x="11.9" y="4.5" width="40" height="31.3">
					<feColorMatrix  type="matrix" values="1 0 0 0 0  0 1 0 0 0  0 0 1 0 0  0 0 0 1 0"/>
				</filter>
			</defs>
			
				<mask maskUnits="userSpaceOnUse" x="11.9" y="4.5" width="40" height="31.3" id="SVGID_00000170971168208347064560000001769028024191704195_">
				<g class="st10">
					<g>
						<defs>
							<rect id="SVGID_00000110435764682251378630000015385222723749018797_" x="7.3" y="10.5" width="47.9" height="57.1"/>
						</defs>
						
							<clipPath id="SVGID_00000181791795067939812860000013787313931968815011_" style="clip-path:url(#SVGID_00000053541826531703133900000002849215990789934493_);">
							<use xlink:href="#SVGID_00000110435764682251378630000015385222723749018797_"  style="overflow:visible;"/>
						</clipPath>
						
							<linearGradient id="SVGID_00000065067162882710510300000011709736996097951678_" gradientUnits="userSpaceOnUse" x1="-3859.1301" y1="-508.5224" x2="-3858.2693" y2="-508.5224" gradientTransform="matrix(46.4683 0 0 46.4683 179339.0781 23669.2441)">
							<stop  offset="0" style="stop-color:#FFFFFF"/>
							<stop  offset="1" style="stop-color:#FFFFFF"/>
						</linearGradient>
						
							<rect x="7.3" y="10.5" style="clip-path:url(#SVGID_00000181791795067939812860000013787313931968815011_);fill:url(#SVGID_00000065067162882710510300000011709736996097951678_);" width="47.9" height="57.1"/>
					</g>
				</g>
			</mask>
			
				<g style="clip-path:url(#SVGID_00000053541826531703133900000002849215990789934493_);mask:url(#SVGID_00000170971168208347064560000001769028024191704195_);">
				<g>
					<g>
						<defs>
							<rect id="SVGID_00000093147238486323560420000017026423896755257736_" x="11.9" y="4.5" width="40" height="31.3"/>
						</defs>
						<clipPath id="SVGID_00000183933923523618680850000016138216456714629300_">
							<use xlink:href="#SVGID_00000093147238486323560420000017026423896755257736_"  style="overflow:visible;"/>
						</clipPath>
						
							<ellipse style="clip-path:url(#SVGID_00000183933923523618680850000016138216456714629300_);fill:none;stroke:#FF911C;stroke-width:1.75;stroke-miterlimit:10;" cx="31.8" cy="22.8" rx="11.5" ry="11.5"/>
					</g>
				</g>
			</g>
		</g>
		<g class="st2">
			<defs>
				<rect id="SVGID_00000059280401470432133300000013005621148661207729_" x="7.3" y="10.5" width="47.9" height="57.1"/>
			</defs>
			<clipPath id="SVGID_00000041982649967732494000000015981866188368957625_">
				<use xlink:href="#SVGID_00000059280401470432133300000013005621148661207729_"  style="overflow:visible;"/>
			</clipPath>
			<path style="clip-path:url(#SVGID_00000041982649967732494000000015981866188368957625_);fill:#FF911C;" d="M31.8,26.2
				c0.5,0,0.9-0.4,0.9-1l0.9-9c0-1.1-0.9-2-1.9-2c-1,0-1.9,0.9-1.9,2l0.9,9C30.9,25.8,31.3,26.2,31.8,26.2 M31.8,27.9
				c-1,0-1.9,0.8-1.9,1.7s0.9,1.7,1.9,1.7s1.9-0.8,1.9-1.7S32.9,27.9,31.8,27.9"/>
		</g>
	</g>
	<g>
		<g>
			<defs>
				<rect id="SVGID_00000165940511547963633370000014745964097358540206_" x="10.1" y="15.9" width="45.5" height="51.8"/>
			</defs>
			<clipPath id="SVGID_00000106863975061563826900000010792264953511537075_">
				<use xlink:href="#SVGID_00000165940511547963633370000014745964097358540206_"  style="overflow:visible;"/>
			</clipPath>
			<path style="clip-path:url(#SVGID_00000106863975061563826900000010792264953511537075_);fill:#DCDDDE;" d="M10.7,28.6l4.7,3.1
				c0.6-0.9,1.3-1.5,2.1-2.1l-5.3-3.4c-0.6-0.4-1.5-0.3-2,0.4C9.9,27.3,10.1,28.2,10.7,28.6z"/>
		</g>
		<g>
			<defs>
				<rect id="SVGID_00000103258616862873262200000005614439959201665198_" x="10.1" y="15.9" width="45.5" height="51.8"/>
			</defs>
			<clipPath id="SVGID_00000139267289512866841820000007487073999688102039_">
				<use xlink:href="#SVGID_00000103258616862873262200000005614439959201665198_"  style="overflow:visible;"/>
			</clipPath>
			<path style="clip-path:url(#SVGID_00000139267289512866841820000007487073999688102039_);fill:#DCDDDE;" d="M14.7,35.8
				c-0.6,6.1-0.1,10,2.1,16c0,0.1,0.1,0.2,0.1,0.3l7.9-11.2c-3.8-2.2-5.9-4.1-6.2-4.6c-1.1-1.1-1.1-3,0.1-4.1c0.5-0.5,1.3-0.9,2-0.9
				c0.8,0,1.5,0.3,2.1,0.9l0,0c0,0,0.1,0.1,0.2,0.2c0.2,0.2,0.3,0.3,0.7,0.6c0.3,0.3,0.8,0.6,1.4,1c-0.3-2.6-2-4.9-4.2-4.9
				C18.3,29.2,15.1,31.4,14.7,35.8z"/>
		</g>
		<g>
			<defs>
				<rect id="SVGID_00000151506031014484768190000015454949379746952625_" x="10.1" y="15.9" width="45.5" height="51.8"/>
			</defs>
			<clipPath id="SVGID_00000106146778965301689510000016659699826983038654_">
				<use xlink:href="#SVGID_00000151506031014484768190000015454949379746952625_"  style="overflow:visible;"/>
			</clipPath>
			<path style="clip-path:url(#SVGID_00000106146778965301689510000016659699826983038654_);fill:#DCDDDE;" d="M22.8,55.6h13.3
				l7.9,10.7c0.7,0.9,1.8,1.5,2.9,1.5c0.8,0,1.5-0.3,2.2-0.7c1.6-1.2,1.9-3.4,0.8-5.1l-9-12.1c-0.7-0.9-1.7-1.5-2.9-1.5H26.5
				c-0.3-1.2-0.5-2.4-0.7-3.6l-7,9.8C20,55.6,21.4,55.7,22.8,55.6z"/>
		</g>
		<g>
			<defs>
				<rect id="SVGID_00000014619772554073262970000014405708309506156194_" x="10.1" y="15.9" width="45.5" height="51.8"/>
			</defs>
			<clipPath id="SVGID_00000001636685884898035800000008480732732953543331_">
				<use xlink:href="#SVGID_00000014619772554073262970000014405708309506156194_"  style="overflow:visible;"/>
			</clipPath>
			<path style="clip-path:url(#SVGID_00000001636685884898035800000008480732732953543331_);fill:#DCDDDE;" d="M27.5,28.9
				c-0.7,1.6-1.1,3.4-1.1,5.4c0,0.3,0,0.5,0,0.8c0.1,0.1,0.3,0.2,0.3,0.3c2.6,1.5,6.8,3.7,12.7,4.8c0.8,0.2,1.4,0.6,1.8,1.2
				c0.4,0.6,0.6,1.4,0.4,2.2c-0.3,1.4-1.5,2.3-2.8,2.3c-0.2,0-0.3,0-0.6-0.1c-3.2-0.6-6-1.5-8.4-2.5c2.5,2.8,6.1,4.5,10.1,4.5
				c2.4,0,5.6-1.4,7.6-2.4c5.3-2.7,6.9-3.8,7.7-7.1c0.9-4,0.3-7.5-3.9-11.3c-3.3-2.9-6.6-6.2-11.4-6.2c-3.1,0-5.9,1-8.3,2.8
				c0,0.2-0.1,0.3-0.1,0.4C31.1,26.2,29.5,28,27.5,28.9z"/>
		</g>
		<g>
			<defs>
				<rect id="SVGID_00000033338682204302694420000017453463757244181434_" x="10.1" y="15.9" width="45.5" height="51.8"/>
			</defs>
			<clipPath id="SVGID_00000178169117976053684710000014163005444504703656_">
				<use xlink:href="#SVGID_00000033338682204302694420000017453463757244181434_"  style="overflow:visible;"/>
			</clipPath>
			<path style="clip-path:url(#SVGID_00000178169117976053684710000014163005444504703656_);fill:#DCDDDE;" d="M16.9,52.1l-0.5,0.7
				l-4.1,5.7c-0.4,0.7-0.3,1.5,0.3,2.1c0.3,0.2,0.5,0.3,0.9,0.3c0.4,0,0.9-0.2,1.2-0.6l3.8-5.3l0.3-0.4C18,54,17.3,53.3,16.9,52.1"
				/>
		</g>
		<g>
			<defs>
				<rect id="SVGID_00000110459325025362717800000005488338910038757777_" x="10.1" y="15.9" width="45.5" height="51.8"/>
			</defs>
			<clipPath id="SVGID_00000091703048654388992970000003382260145117870725_">
				<use xlink:href="#SVGID_00000110459325025362717800000005488338910038757777_"  style="overflow:visible;"/>
			</clipPath>
			<path style="clip-path:url(#SVGID_00000091703048654388992970000003382260145117870725_);fill:#DCDDDE;" d="M26.2,16
				c3.5,0.8,5.7,4.3,4.9,7.8s-4.3,5.7-7.8,4.9c-3.5-0.9-5.7-4.3-4.9-7.8C19.2,17.4,22.7,15.2,26.2,16"/>
		</g>
		<g>
			<defs>
				<rect id="SVGID_00000170972185280777807890000004929785093559639202_" x="10.1" y="15.9" width="45.5" height="51.8"/>
			</defs>
			<clipPath id="SVGID_00000183956261793391763450000010626226310624897692_">
				<use xlink:href="#SVGID_00000170972185280777807890000004929785093559639202_"  style="overflow:visible;"/>
			</clipPath>
			<path style="clip-path:url(#SVGID_00000183956261793391763450000010626226310624897692_);fill:#DCDDDE;" d="M23.3,33.5
				c-0.3-0.3-0.6-0.5-0.8-0.7c-0.1-0.1-0.2-0.1-0.2-0.2l0,0c-0.9-0.9-2.3-0.9-3.3-0.1s-0.9,2.3-0.1,3.3c0.2,0.2,6.6,6.8,19.4,9.3
				c0.2,0,0.3,0.1,0.4,0.1c1.1,0,2.1-0.8,2.2-1.9c0.3-1.3-0.6-2.5-1.8-2.8c-5.7-1-9.9-3.1-12.7-4.8C25,34.9,24,34.1,23.3,33.5z"/>
		</g>
	</g>
	<g class="st0">
		<g class="st2">
			<g>
				<defs>
					<rect id="SVGID_00000039821096208400187160000006668820877620601260_" x="9.3" y="25.9" width="43.8" height="41.8"/>
				</defs>
				<clipPath id="SVGID_00000058582738798417110580000011838100256542742455_">
					<use xlink:href="#SVGID_00000039821096208400187160000006668820877620601260_"  style="overflow:visible;"/>
				</clipPath>
				<path style="clip-path:url(#SVGID_00000058582738798417110580000011838100256542742455_);fill:#FF911C;" d="M27,40l11.8,9.6
					c0.4,0.3,0.5,1,0.2,1.5l-0.6,0.7c-0.3,0.4-1,0.5-1.5,0.2l-11.8-9.6c-0.4-0.3-0.5-1-0.2-1.5l0.6-0.7C25.9,39.6,26.5,39.5,27,40"
					/>
			</g>
			<g>
				<defs>
					<rect id="SVGID_00000070111104646554123180000014775050169402939548_" x="9.3" y="25.9" width="43.8" height="41.8"/>
				</defs>
				<clipPath id="SVGID_00000100362102223951169070000006590791583501220517_">
					<use xlink:href="#SVGID_00000070111104646554123180000014775050169402939548_"  style="overflow:visible;"/>
				</clipPath>
				<path style="clip-path:url(#SVGID_00000100362102223951169070000006590791583501220517_);fill:#FF911C;" d="M39.7,55.4
					c0.8-0.9,2.2-1.1,3.2-0.3c1,0.8,1.1,2.2,0.3,3.2c-0.8,0.9-2.2,1.1-3.2,0.3C39.1,57.7,38.9,56.3,39.7,55.4"/>
			</g>
			<g>
				<defs>
					<rect id="SVGID_00000113343469402315981970000004715421771639529114_" x="9.3" y="25.9" width="43.8" height="41.8"/>
				</defs>
				<clipPath id="SVGID_00000065058941600547349730000006637600115543002295_">
					<use xlink:href="#SVGID_00000113343469402315981970000004715421771639529114_"  style="overflow:visible;"/>
				</clipPath>
				<path style="clip-path:url(#SVGID_00000065058941600547349730000006637600115543002295_);fill:#FF911C;" d="M17.5,37.4
					c0.8-0.9,2.2-1.1,3.2-0.3c0.9,0.8,1.1,2.2,0.3,3.2c-0.8,0.9-2.2,1.1-3.2,0.3C16.9,39.8,16.8,38.3,17.5,37.4"/>
			</g>
			<g>
				<defs>
					<rect id="SVGID_00000042015588660054647830000008588528209649290402_" x="9.3" y="25.9" width="43.8" height="41.8"/>
				</defs>
				<clipPath id="SVGID_00000059289777730000185820000011612070868402448568_">
					<use xlink:href="#SVGID_00000042015588660054647830000008588528209649290402_"  style="overflow:visible;"/>
				</clipPath>
				<path style="clip-path:url(#SVGID_00000059289777730000185820000011612070868402448568_);fill:#FF911C;" d="M43.2,61.2
					c-0.2,0.2-1.1,0.6-2.8,0.9c-1.5,0.3-2.8,0.3-3.2,0.3c-0.1,0-0.1,0-0.2,0c-0.9-1.2-3.3-3.4-8.5-7.7c-0.7-0.6-1.5-1.1-2.2-1.8
					c-6.8-5.6-10-7.7-11.5-8.6c0-0.1,0-0.1-0.1-0.2c-0.4-1.1-0.5-5.3-0.1-6.1c1-1.5,5-6.7,6.3-7.9c0.9,0.6,2.8,2.3,4.5,3.8
					c0,0,0,0,0.1,0.1l0.3,0.2l0,0c-0.3,0.5-0.3,1.2,0.2,1.5l0,0c6.5,5.3,16.4,13.3,17.1,13.9c0.3,0.3,0.9,0.4,1.4,0.2
					c0.1-0.1,0.2-0.2,0.3-0.3l0.3,0.2c0,0,0,0,0.1,0.1c1.8,1.3,3.9,2.8,4.6,3.5C48.7,54.9,44.5,59.8,43.2,61.2 M30.1,65.5
					c-0.8,0-4.2-1.9-9.3-6c-0.1,0-0.1-0.1-0.2-0.1c-5.1-4.1-7.5-7-7.7-7.7c-0.1-0.6,0.5-3.4,1.1-5.3c1.2,0.7,4.1,2.7,10.8,8.1l0,0
					c6.7,5.3,9.2,7.7,10.2,8.9C33.3,64.3,30.7,65.5,30.1,65.5 M16.4,32c-1.5,2-3.2,4.1-3.6,4.8c-0.9,1.2-0.8,4.7-0.4,6.8L11,42.4
					l0,0C10.6,42,9.9,42,9.5,42.6C9.2,43,9.2,43.7,9.7,44l2,1.6l0,0c0.2,0.1,0.3,0.2,0.4,0.2c-0.7,2.2-1.3,5.1-1.1,6
					c0.1,0.6,0.4,1.7,2.9,4.2c1.5,1.5,3.4,3.2,5.5,4.9c0.1,0.1,0.1,0.1,0.2,0.2c2.5,2,8.5,6.6,10.8,6.5c0.9-0.1,3.6-1.3,5.7-2.4
					c0.1,0.2,0.2,0.3,0.3,0.3l2,1.6l0,0c0.4,0.3,1.1,0.3,1.5-0.2c0.3-0.4,0.3-1.1-0.2-1.5l-1.5-1c2.1-0.1,5.5-0.8,6.5-1.9
					c0.5-0.5,2.3-2.6,4-4.5c0.9-1.1,1.7-2.1,2.2-2.8c0.9-1.3,1.2-1.9,0.9-2.5c-0.1-0.2-0.1-0.3-0.6-0.9l1.5-1.9
					c0.3-0.4,0.3-1.1-0.2-1.5l-3.6-2.9c-0.4-0.3-1.1-0.3-1.5,0.2l-1.6,2L27.1,32.6l1.6-2c0.3-0.4,0.3-1.1-0.2-1.5l-3.6-2.9
					c-0.4-0.3-1.1-0.3-1.5,0.2l-1.5,1.9c-0.6-0.3-0.8-0.3-0.9-0.4C20.3,27.7,19.7,27.9,16.4,32"/>
			</g>
		</g>
		<polygon class="st27" points="20.1,55.3 20.2,56 20.6,55.6 21.2,55.9 21.2,55.3 21.8,55.2 21.2,54.8 21.7,54.3 21.1,54.3 21,53.7 
			20.6,54.1 20,53.8 20,54.4 19.4,54.4 19.9,54.9 19.5,55.4 		"/>
		<polygon class="st27" points="21.3,55.7 25.2,53.1 20.9,54.8 18.2,50.9 20,55.3 16.1,58 20.5,56.2 22.3,58.6 		"/>
		<polygon class="st27" points="20,55 16.3,54.7 19.8,55.7 19.6,59.3 20.6,55.8 20.7,55 		"/>
	</g>
</g>
</svg>
