<?xml version="1.0" encoding="UTF-8"?><svg id="b" xmlns="http://www.w3.org/2000/svg" width="151.4965" height="84.5954" viewBox="0 0 151.4965 84.5954"><defs><style>.d{fill:#fff;}.e{fill:#0a74bb;}.f{fill:#cf202a;}.g{fill:#c6c6c5;}</style></defs><g id="c"><g><rect class="d" x="3.7364" y="8.6" width="144.0649" height="67.4941" rx="6.7236" ry="6.7236"/><path class="g" d="m141.0779,10.0998c2.8803,0,5.2236,2.3433,5.2236,5.2236v54.0473c0,2.8802-2.3432,5.2234-5.2234,5.2234H10.4601c-2.8803,0-5.2236-2.3433-5.2236-5.2236V15.3232c0-2.8802,2.3432-5.2234,5.2234-5.2234h130.618m0-3H10.46c-4.5417,0-8.2234,3.6817-8.2234,8.2234v54.0472c0,4.5418,3.6818,8.2236,8.2236,8.2236h130.618c4.5416,0,8.2234-3.6817,8.2234-8.2234V15.3234c0-4.5417-3.6818-8.2236-8.2236-8.2236h0Z"/></g><path class="f" d="m2.2399,58.9296s-9.4945,22.4264,10.6115,22.4264h34.5736v3.2394l9.9147-7.0364-9.9147-7.3331v3.5716h-30.5843s-.2437.0187-.6672.0187c-2.921,0-14.4214-.8861-13.9336-14.8866h0Z"/><path class="f" d="m104.0714,0l-9.9148,7.0364,9.9148,7.3331v-3.5716h30.5843s.2437-.0187.6672-.0187c2.921,0,14.4214.8861,13.9337,14.8866,0,0,9.4945-22.4264-10.6116-22.4264h-34.5735V0h0Z"/><g><g><path class="e" d="m14.8307,53.5641v-19.6025h6.8662c2.3784,0,4.1826.4556,5.4121,1.3662,1.2295.9111,1.8447,2.2466,1.8447,4.0054,0,.9604-.2471,1.8066-.7407,2.5381s-1.1802,1.2676-2.0596,1.6089c1.0049.2515,1.7974.7583,2.376,1.521.5791.7632.8687,1.6968.8687,2.8008,0,1.8848-.6016,3.312-1.8042,4.2812-1.2031.9692-2.917,1.4629-5.1431,1.481h-7.6201Zm4.0386-11.3901h2.9893c2.0371-.0356,3.0562-.8481,3.0562-2.437,0-.8882-.2583-1.5278-.7744-1.9185-.5161-.3901-1.3306-.5854-2.4434-.5854h-2.8276v4.9409Zm0,2.8545v5.291h3.4604c.9512,0,1.6938-.2266,2.228-.6802.5342-.4531.8013-1.0791.8013-1.8779,0-1.7949-.9292-2.7061-2.7871-2.7329h-3.7026Z"/><path class="e" d="m47.2306,33.9616v12.9111c0,2.1455-.6709,3.8418-2.0127,5.0894s-3.1753,1.8711-5.5,1.8711c-2.2886,0-4.1064-.6055-5.4526-1.8174-1.3462-1.2114-2.0327-2.8765-2.0601-4.9951v-13.0591h4.0391v12.938c0,1.2837.3076,2.2197.9224,2.8071.6147.5879,1.4653.8818,2.5513.8818,2.271,0,3.4243-1.1934,3.4604-3.5811v-13.0459h4.0522Z"/><path class="e" d="m57.547,42.7931l4.0796-8.8315h4.416l-6.4355,12.4937v7.1089h-4.1064v-7.1089l-6.4355-12.4937h4.4297l4.0522,8.8315Z"/><path class="e" d="m67.9659,53.5641v-19.6025h6.8662c2.3784,0,4.1826.4556,5.4121,1.3662,1.2295.9111,1.8447,2.2466,1.8447,4.0054,0,.9604-.2471,1.8066-.7407,2.5381s-1.1802,1.2676-2.0596,1.6089c1.0049.2515,1.7974.7583,2.376,1.521.5791.7632.8687,1.6968.8687,2.8008,0,1.8848-.6016,3.312-1.8042,4.2812-1.2031.9692-2.917,1.4629-5.1431,1.481h-7.6201Zm4.0386-11.3901h2.9893c2.0371-.0356,3.0562-.8481,3.0562-2.437,0-.8882-.2583-1.5278-.7744-1.9185-.5161-.3901-1.3306-.5854-2.4434-.5854h-2.8276v4.9409Zm0,2.8545v5.291h3.4604c.9512,0,1.6938-.2266,2.228-.6802.5342-.4531.8013-1.0791.8013-1.8779,0-1.7949-.9292-2.7061-2.7871-2.7329h-3.7026Z"/><path class="e" d="m96.2242,49.5251h-7.082l-1.3462,4.0391h-4.2949l7.2974-19.6025h3.7427l7.3374,19.6025h-4.2944l-1.3599-4.0391Zm-5.9912-3.2715h4.9004l-2.4639-7.3379-2.4365,7.3379Z"/><path class="e" d="m118.3429,47.0343c-.1528,2.1094-.9316,3.77-2.3359,4.9814-1.4048,1.2119-3.2563,1.8174-5.5537,1.8174-2.5132,0-4.4902-.8457-5.9307-2.5376-1.4409-1.6919-2.1611-4.0142-2.1611-6.9673v-1.1982c0-1.8848.332-3.5454.9966-4.9814.6641-1.436,1.6133-2.5381,2.8472-3.3052,1.2344-.7676,2.668-1.1514,4.3018-1.1514,2.2617,0,4.084.606,5.4663,1.8174,1.3818,1.2119,2.1812,2.9131,2.3965,5.103h-4.0391c-.0991-1.2656-.4512-2.1836-1.0571-2.7534-.6055-.5698-1.5278-.855-2.7666-.855-1.3462,0-2.354.4824-3.0225,1.4473-.6689.9648-1.0122,2.4619-1.0298,4.4902v1.481c0,2.1182.3208,3.6665.9624,4.645.6416.978,1.6538,1.4673,3.0361,1.4673,1.2476,0,2.1787-.2847,2.7935-.855.6147-.5698.9673-1.4517,1.0571-2.6455h4.0391Z"/><path class="e" d="m127.2145,45.7013l-2.1006,2.2622v5.6006h-4.0386v-19.6025h4.0386v8.8857l1.7773-2.437,4.9951-6.4487h4.9678l-6.9604,8.7104,7.1626,10.8921h-4.8066l-5.0352-7.8628Z"/></g><g><path class="e" d="m91.9406,63.2386v2.6367h-1.2354v-7.1094h2.7197c.7944,0,1.4248.207,1.8921.6206.4673.4141.7007.9614.7007,1.6426,0,.6973-.2285,1.2402-.686,1.6279s-1.0977.5815-1.9214.5815h-1.4697Zm0-.9961h1.4844c.4395,0,.7749-.1035,1.0059-.3101s.3467-.5054.3467-.896c0-.3843-.1172-.6909-.3516-.9204s-.5566-.3477-.9668-.354h-1.5186v2.4805Z"/><path class="e" d="m99.8025,61.6761c-.1562-.0259-.3174-.0391-.4834-.0391-.5435,0-.9097.2085-1.0986.625v3.6133h-1.1865v-5.2832h1.1328l.0293.5908c.2866-.459.6836-.6885,1.1914-.6885.1694,0,.3091.0229.4199.0684l-.0049,1.1133Z"/><path class="e" d="m100.407,63.1849c0-.5176.1025-.9839.3076-1.3989s.4932-.7339.8643-.957.7974-.3345,1.2793-.3345c.7129,0,1.2915.2295,1.7358.6885s.6846,1.0679.7202,1.8262l.0049.2783c0,.521-.1001.9863-.3003,1.3965s-.4868.7275-.8594.9521-.8032.3369-1.2915.3369c-.7456,0-1.3418-.248-1.7896-.7446s-.6714-1.1582-.6714-1.9849v-.0586Zm1.1865.1025c0,.5435.1123.9692.3369,1.2769s.5371.4614.9375.4614.7119-.1562.9351-.4688.3345-.77.3345-1.3721c0-.5337-.1147-.957-.3442-1.2695s-.541-.4688-.9351-.4688c-.3872,0-.6948.1538-.9229.4614s-.3418.7676-.3418,1.3794Z"/><path class="e" d="m107.863,59.308v1.2842h.9326v.8789h-.9326v2.9492c0,.2017.04.3477.1196.437s.2222.1343.4272.1343c.1367,0,.2749-.0161.415-.0488v.918c-.27.0747-.5308.1123-.7812.1123-.9116,0-1.3672-.5029-1.3672-1.5088v-2.9932h-.8691v-.8789h.8691v-1.2842h1.1865Z"/><path class="e" d="m112.0031,65.973c-.752,0-1.3613-.2368-1.8286-.7104s-.7007-1.1045-.7007-1.8921v-.1465c0-.5273.1016-.9985.3052-1.4136s.4893-.7383.8569-.9692.7778-.3467,1.2305-.3467c.7192,0,1.2754.2295,1.6675.6885s.5884,1.1084.5884,1.9482v.4785h-3.4521c.0356.436.1816.7812.437,1.0352s.5771.3809.9644.3809c.5435,0,.9863-.2197,1.3281-.6592l.6396.6104c-.2114.3159-.4941.5605-.8472.7349s-.7495.2612-1.189.2612Zm-.1416-4.5264c-.3257,0-.5884.1138-.7886.3418s-.3281.5454-.3833.9521h2.2607v-.0879c-.0259-.397-.1318-.6973-.3174-.9009s-.4429-.3052-.7715-.3052Z"/><path class="e" d="m117.3381,65.0257c.2964,0,.542-.0864.7373-.2588s.2993-.3857.3125-.6396h1.1182c-.0132.3286-.1157.6357-.3076.9204s-.4526.5103-.7812.6763-.6836.249-1.0645.249c-.7388,0-1.3247-.2393-1.7578-.7178s-.6494-1.1392-.6494-1.9824v-.1221c0-.8042.2148-1.4478.6445-1.9312s1.0156-.7251,1.7578-.7251c.6284,0,1.1401.1831,1.5356.5493s.603.8472.6226,1.4429h-1.1182c-.0132-.3027-.1162-.5518-.3101-.7471s-.4404-.293-.7397-.293c-.3843,0-.6802.1392-.8887.4175s-.314.7007-.3174,1.2671v.1904c0,.5728.1035,1,.3101,1.2817s.5054.4224.896.4224Z"/><path class="e" d="m122.0881,59.308v1.2842h.9326v.8789h-.9326v2.9492c0,.2017.04.3477.1196.437s.2222.1343.4272.1343c.1367,0,.2749-.0161.415-.0488v.918c-.27.0747-.5308.1123-.7812.1123-.9116,0-1.3672-.5029-1.3672-1.5088v-2.9932h-.8691v-.8789h.8691v-1.2842h1.1865Z"/><path class="e" d="m123.9406,59.2152c0-.1836.0576-.3359.1733-.4575s.2808-.1821.4956-.1821.3809.0605.498.1821.1758.2739.1758.4575c0,.1807-.0586.3306-.1758.4502-.1172.1201-.2832.1797-.498.1797s-.3799-.0596-.4956-.1797c-.1157-.1196-.1733-.2695-.1733-.4502Zm1.2598,6.6602h-1.1865v-5.2832h1.1865v5.2832Z"/><path class="e" d="m126.3156,63.1849c0-.5176.1025-.9839.3076-1.3989s.4932-.7339.8643-.957.7974-.3345,1.2793-.3345c.7129,0,1.2915.2295,1.7358.6885s.6846,1.0679.7202,1.8262l.0049.2783c0,.521-.1001.9863-.3003,1.3965s-.4868.7275-.8594.9521-.8032.3369-1.2915.3369c-.7456,0-1.3418-.248-1.7896-.7446s-.6714-1.1582-.6714-1.9849v-.0586Zm1.1865.1025c0,.5435.1123.9692.3369,1.2769s.5371.4614.9375.4614.7119-.1562.9351-.4688.3345-.77.3345-1.3721c0-.5337-.1147-.957-.3442-1.2695s-.541-.4688-.9351-.4688c-.3872,0-.6948.1538-.9229.4614s-.3418.7676-.3418,1.3794Z"/><path class="e" d="m133.4397,60.5922l.0342.6104c.3906-.4722.9033-.708,1.5381-.708,1.1001,0,1.6602.6299,1.6797,1.8896v3.4912h-1.1865v-3.4229c0-.3354-.0723-.5835-.2173-.7446s-.3818-.2417-.7104-.2417c-.4785,0-.835.2163-1.0693.6494v3.7598h-1.1865v-5.2832h1.1182Z"/></g><g><path class="f" d="m14.7809,27.3856v-7.8203h2.3096c.6909,0,1.3042.1538,1.8398.4619.5352.3081.9497.7446,1.2432,1.3105s.4404,1.2139.4404,1.9443v.3921c0,.7412-.1475,1.3931-.4434,1.9551-.2949.562-.7158.9956-1.2617,1.2998-.5464.3042-1.1719.4565-1.8774.4565h-2.2505Zm1.3589-6.7246v5.6289h.8862c.7124,0,1.2598-.2227,1.6406-.6675.3818-.4448.5757-1.084.583-1.9165v-.4341c0-.8472-.1846-1.4941-.5532-1.9409-.3687-.4463-.9043-.6699-1.606-.6699h-.9507Z"/><path class="f" d="m21.8781,20.0595c0-.2021.0635-.3696.1909-.5034.127-.1333.3086-.2002.5449-.2002s.4189.0669.5479.2002c.1289.1338.1934.3013.1934.5034,0,.1987-.0645.3638-.1934.4951-.1289.1318-.3115.1978-.5479.1978s-.418-.0659-.5449-.1978c-.1274-.1313-.1909-.2964-.1909-.4951Zm1.3857,7.3262h-1.3052v-5.8115h1.3052v5.8115Z"/><path class="f" d="m27.9342,25.8065c0-.2329-.0957-.4102-.2876-.5317-.1914-.1216-.5093-.229-.9531-.3223s-.8145-.2114-1.1118-.3545c-.6519-.3149-.9775-.7715-.9775-1.3696,0-.5015.2114-.9204.6338-1.2568s.9595-.5049,1.6113-.5049c.6948,0,1.2559.1719,1.6841.5156.4277.3438.6416.7896.6416,1.3374h-1.3052c0-.2505-.0933-.4595-.2793-.6255-.186-.167-.4331-.25-.7412-.25-.2866,0-.52.0664-.7007.1987-.1812.1323-.2715.3096-.2715.5317,0,.2007.084.3564.2524.4673s.5083.2231,1.0205.3354c.5122.1133.9141.2471,1.2056.4033.292.1553.5088.3428.6504.561.1411.2183.2119.4834.2119.7949,0,.5229-.2168.9463-.6499,1.27-.4331.3242-1.001.4863-1.7026.4863-.4761,0-.9004-.0859-1.2729-.2578s-.6626-.4082-.8701-.709-.3115-.625-.3115-.9722h1.2676c.0181.3081.1343.5454.3491.7114.2148.167.4995.25.854.25.3438,0,.605-.0654.7842-.1963.1792-.1304.2686-.3013.2686-.5127Z"/><path class="f" d="m30.1393,24.4315c0-.9097.2075-1.6309.623-2.1646s.9775-.8003,1.6865-.8003c.6479,0,1.1621.2275,1.5415.6821l.0752-.5747h1.1602v8.0459h-1.3052v-2.7285c-.3794.4009-.8735.6016-1.4824.6016-.6948,0-1.2515-.2715-1.6704-.8135-.4189-.543-.6284-1.292-.6284-2.248Zm1.3052.1128c0,.5942.1172,1.061.3516,1.3989.2349.3389.5596.5078.9751.5078.5156,0,.8989-.2202,1.1494-.6606v-2.6426c-.2505-.4224-.6304-.6338-1.1387-.6338-.4155,0-.7422.1665-.98.4995-.2383.333-.3574.8433-.3574,1.5308Z"/><path class="f" d="m40.1915,26.8163c-.3833.4512-.9272.6768-1.6328.6768-.6304,0-1.1074-.1846-1.4316-.5532-.3237-.3687-.4858-.9023-.4858-1.6006v-3.7651h1.3052v3.749c0,.7378.3062,1.1064.9185,1.1064.6338,0,1.0615-.2275,1.2837-.6821v-4.1733h1.3052v5.8115h-1.23l-.0322-.5693Z"/><path class="f" d="m46.2863,27.3856c-.0571-.1108-.1074-.292-.1504-.5425-.4155.4331-.9238.6499-1.5254.6499-.5835,0-1.0601-.1665-1.4287-.4995s-.5532-.7446-.5532-1.2354c0-.6196.23-1.0947.6904-1.4263.46-.3311,1.1177-.4966,1.9736-.4966h.8003v-.3813c0-.3008-.084-.5415-.2524-.7227-.1685-.1807-.4243-.271-.7681-.271-.2974,0-.5405.0742-.7305.2231-.1899.1484-.2847.3374-.2847.5664h-1.3052c0-.3188.1055-.6167.3169-.8945.2114-.2773.4985-.4946.8623-.6523.3633-.1577.7686-.2363,1.2163-.2363.6802,0,1.2227.1709,1.6274.5127.4048.3423.6123.8228.623,1.4424v2.6211c0,.5229.0732.9399.2202,1.2515v.0913h-1.332Zm-1.4341-.9399c.2578,0,.5005-.0625.7275-.188.2275-.1255.3984-.2935.5132-.5049v-1.0957h-.7036c-.4834,0-.8467.084-1.0903.2524s-.3652.4062-.3652.7144c0,.2505.0835.4502.2495.5986.167.1489.3896.2231.6689.2231Z"/><path class="f" d="m50.1666,27.3856h-1.3052v-8.25h1.3052v8.25Z"/><path class="f" d="m51.59,20.0595c0-.2021.0635-.3696.1909-.5034.127-.1333.3086-.2002.5449-.2002s.4189.0669.5479.2002c.1289.1338.1934.3013.1934.5034,0,.1987-.0645.3638-.1934.4951-.1289.1318-.3115.1978-.5479.1978s-.418-.0659-.5449-.1978c-.1274-.1313-.1909-.2964-.1909-.4951Zm1.3857,7.3262h-1.3052v-5.8115h1.3052v5.8115Z"/><path class="f" d="m54.8414,27.3856v-4.8447h-.8862v-.9668h.8862v-.5317c0-.6445.1792-1.1421.5371-1.4932s.8594-.5264,1.5039-.5264c.229,0,.4727.0322.7305.0967l-.0322,1.0205c-.1431-.0288-.3096-.043-.4995-.043-.623,0-.9346.3203-.9346.9614v.5156h1.1816v.9668h-1.1816v4.8447h-1.3052Z"/><path class="f" d="m60.712,27.4931c-.8271,0-1.4976-.2607-2.0112-.7812-.5142-.5215-.771-1.2148-.771-2.0815v-.1611c0-.5801.1118-1.0981.3354-1.5552.2241-.4561.5381-.8115.9429-1.0659s.856-.3813,1.3535-.3813c.7915,0,1.4028.2524,1.8345.7573.4312.5049.647,1.2192.647,2.1431v.5264h-3.7974c.0396.48.1997.8594.4805,1.1387.2812.2793.6348.4189,1.061.4189.5981,0,1.085-.2417,1.4609-.7251l.7036.6714c-.2329.3472-.5435.6167-.9316.8086-.3887.1914-.8247.2871-1.3081.2871Zm-.1558-4.979c-.3579,0-.6475.1255-.8672.376-.2207.2505-.3608.5996-.4219,1.0474h2.4868v-.0967c-.0288-.437-.145-.7671-.3491-.9912-.2041-.2236-.4868-.3354-.8486-.3354Z"/><path class="f" d="m63.9269,24.4369c0-.895.2075-1.6138.623-2.1567.4155-.542.9722-.8135,1.6704-.8135.6157,0,1.1138.2148,1.4932.6445v-2.9756h1.3052v8.25h-1.1816l-.0645-.6016c-.3901.4727-.9111.709-1.563.709-.6802,0-1.231-.2739-1.6514-.8218-.4209-.5479-.6313-1.2925-.6313-2.2344Zm1.3052.1128c0,.5908.1138,1.0518.3408,1.3828.2275.3315.5508.4971.9697.4971.5337,0,.9238-.2383,1.1709-.7144v-2.4814c-.2397-.4653-.6265-.6982-1.1602-.6982-.4224,0-.7485.1675-.9775.5024-.229.3345-.3438.8384-.3438,1.5117Z"/><path class="f" d="m77.6232,25.5648h-3.0293l-.6338,1.8208h-1.4126l2.9541-7.8203h1.2192l2.9595,7.8203h-1.418l-.6392-1.8208Zm-2.6479-1.0957h2.2666l-1.1333-3.2441-1.1333,3.2441Z"/><path class="f" d="m83.9039,26.8163c-.3833.4512-.9272.6768-1.6328.6768-.6304,0-1.1074-.1846-1.4316-.5532-.3237-.3687-.4858-.9023-.4858-1.6006v-3.7651h1.3052v3.749c0,.7378.3062,1.1064.9185,1.1064.6338,0,1.0615-.2275,1.2837-.6821v-4.1733h1.3052v5.8115h-1.23l-.0322-.5693Z"/><path class="f" d="m88.255,20.1615v1.4126h1.0259v.9668h-1.0259v3.2441c0,.2222.0439.3823.1313.4805.0879.0986.2446.1479.4702.1479.1504,0,.3027-.0181.4565-.0537v1.0098c-.2974.0825-.5835.1235-.8594.1235-1.0024,0-1.5039-.5532-1.5039-1.6597v-3.2925h-.9561v-.9668h.9561v-1.4126h1.3052Z"/><path class="f" d="m89.9581,24.4262c0-.5693.1128-1.0825.3384-1.5386.2256-.457.5425-.8076.9507-1.0527.4082-.2456.8774-.3682,1.4072-.3682.7842,0,1.4204.2524,1.9097.7573.4883.5049.7524,1.1743.792,2.0088l.0054.3062c0,.5728-.1099,1.085-.3306,1.5361-.2197.4512-.5352.8003-.9453,1.0474-.4097.2471-.8833.3706-1.4204.3706-.8198,0-1.4761-.2729-1.9683-.8193-.4927-.5459-.7388-1.2734-.7388-2.1831v-.0645Zm1.3052.1128c0,.5981.1235,1.0664.3706,1.4043.2471.3389.5908.5078,1.0312.5078s.7832-.1719,1.0288-.5156c.2451-.3438.3677-.8467.3677-1.5093,0-.5874-.1265-1.0527-.3784-1.3965-.2529-.3438-.5957-.5156-1.0288-.5156-.4263,0-.7646.1694-1.0151.5073-.2505.3389-.376.8442-.376,1.5176Z"/><path class="f" d="m102.6315,24.8397c-.0786.8345-.3867,1.4854-.9238,1.9521-.5371.4678-1.2515.7012-2.1431.7012-.623,0-1.1719-.1475-1.6465-.4434-.4741-.2949-.8403-.7148-1.0981-1.2593s-.3921-1.1763-.4028-1.896v-.7305c0-.7378.1309-1.3877.3921-1.9497s.6362-.9956,1.1255-1.2998c.4883-.3042,1.0532-.4565,1.6943-.4565.8628,0,1.5576.2334,2.084.7012.5264.4668.8325,1.1284.9185,1.9844h-1.3535c-.0645-.562-.228-.9678-.4917-1.2168-.2627-.2485-.6489-.373-1.1572-.373-.5908,0-1.0449.2158-1.3613.6479-.3174.4316-.479,1.0654-.4863,1.9004v.6934c0,.8457.1514,1.4912.4541,1.9355.3022.4443.7456.6665,1.3291.6665.5337,0,.9346-.1201,1.2031-.3599s.4385-.6392.5103-1.1978h1.3535Z"/><path class="f" d="m105.1178,22.2079c.4263-.4941.9648-.7412,1.6167-.7412,1.2388,0,1.8672.707,1.8853,2.1216v3.7974h-1.3052v-3.749c0-.4009-.0869-.6846-.2603-.8516-.1738-.166-.4292-.2495-.7656-.2495-.5229,0-.9131.2329-1.1709.6982v4.1519h-1.3052v-8.25h1.3052v3.0723Z"/><path class="f" d="m112.5363,27.4931c-.8271,0-1.4976-.2607-2.0112-.7812-.5142-.5215-.771-1.2148-.771-2.0815v-.1611c0-.5801.1118-1.0981.3354-1.5552.2241-.4561.5381-.8115.9429-1.0659s.856-.3813,1.3535-.3813c.7915,0,1.4028.2524,1.8345.7573.4312.5049.647,1.2192.647,2.1431v.5264h-3.7974c.0396.48.1997.8594.4805,1.1387.2812.2793.6348.4189,1.061.4189.5981,0,1.085-.2417,1.4609-.7251l.7036.6714c-.2329.3472-.5435.6167-.9316.8086-.3887.1914-.8247.2871-1.3081.2871Zm-.1558-4.979c-.3579,0-.6475.1255-.8672.376-.2207.2505-.3608.5996-.4219,1.0474h2.4868v-.0967c-.0288-.437-.145-.7671-.3491-.9912-.2041-.2236-.4868-.3354-.8486-.3354Z"/><path class="f" d="m118.3595,26.4511c.3257,0,.5962-.0947.811-.2847s.3296-.4243.3438-.7036h1.23c-.0142.3618-.127.6992-.3384,1.0127-.2114.313-.4976.561-.8594.7437s-.752.2739-1.1709.2739c-.813,0-1.4575-.2632-1.9336-.7896s-.7144-1.2534-.7144-2.1807v-.1343c0-.8843.2363-1.5928.709-2.124.4727-.5322,1.1172-.7979,1.9336-.7979.6909,0,1.2544.2012,1.689.6045.4355.4023.6636.9316.6851,1.5869h-1.23c-.0142-.333-.1279-.6069-.3408-.8218-.2134-.2148-.4844-.3223-.814-.3223-.4224,0-.7485.1528-.9775.4595-.229.3057-.3457.7705-.3491,1.3936v.2095c0,.6304.1138,1.1001.3408,1.4097.2275.3101.5562.4648.9858.4648Z"/><path class="f" d="m123.7198,24.8934l-.5801.5962v1.896h-1.3052v-8.25h1.3052v4.7588l.4082-.5103,1.606-1.8101h1.5684l-2.1592,2.4224,2.3901,3.3892h-1.5093l-1.7241-2.4922Z"/></g></g></g></svg>