<?xml version="1.0" encoding="utf-8"?>
<!-- Generator: Adobe Illustrator 26.0.1, SVG Export Plug-In . SVG Version: 6.00 Build 0)  -->
<svg version="1.1" id="Layer_1" xmlns="http://www.w3.org/2000/svg" xmlns:xlink="http://www.w3.org/1999/xlink" x="0px" y="0px"
	 viewBox="0 0 20.8 18.3" style="enable-background:new 0 0 20.8 18.3;" xml:space="preserve">
<style type="text/css">
	.st0{fill-rule:evenodd;clip-rule:evenodd;fill:#005884;}
	.st1{fill-rule:evenodd;clip-rule:evenodd;fill:#0073BA;}
	.st2{fill:#0073BA;}
	.st3{fill:#FCFCFC;}
	.st4{fill-rule:evenodd;clip-rule:evenodd;fill:url(#SVGID_1_);}
	.st5{fill-rule:evenodd;clip-rule:evenodd;fill:url(#SVGID_00000089542539682167897070000011895988496939233703_);}
	.st6{fill:#FFFFFF;}
	.st7{fill:url(#SVGID_00000128470300870152585030000000866646636915819433_);}
	.st8{fill-rule:evenodd;clip-rule:evenodd;fill:url(#SVGID_00000111182524932326553280000017122136915796427409_);}
	.st9{fill:url(#SVGID_00000116929675483962425760000012054442709734318238_);}
	
		.st10{fill-rule:evenodd;clip-rule:evenodd;fill:url(#SVGID_00000072256205991739831270000000970627083855185542_);stroke:url(#SVGID_00000033370924288881429370000001347749507187404970_);stroke-miterlimit:10;}
	.st11{fill:url(#SVGID_00000183247274647011662950000000402693832103470483_);}
	.st12{fill-rule:evenodd;clip-rule:evenodd;fill:url(#SVGID_00000144311384524612150810000005801040874033411712_);}
	.st13{fill:url(#SVGID_00000071539730264911126770000000578419997261736341_);}
	.st14{fill:#AD2E91;}
	.st15{fill:#99C3E2;}
	.st16{clip-path:url(#SVGID_00000119077822692177076250000009784243029815672465_);fill:#0073BA;}
	.st17{clip-path:url(#SVGID_00000119077822692177076250000009784243029815672465_);fill:#9BC3E0;}
	.st18{clip-path:url(#SVGID_00000021806101348638376680000006952777272407130002_);fill:#FFFFFF;}
</style>
<rect x="9.3" y="13.2" class="st6" width="5.8" height="0.3"/>
<g>
	<defs>
		<rect id="SVGID_00000031204160650360462740000012986142996873366158_" x="0.5" y="0.6" width="19.7" height="17"/>
	</defs>
	<clipPath id="SVGID_00000176748190605407815230000000145643903843696513_">
		<use xlink:href="#SVGID_00000031204160650360462740000012986142996873366158_"  style="overflow:visible;"/>
	</clipPath>
	<path style="clip-path:url(#SVGID_00000176748190605407815230000000145643903843696513_);fill:#FFFFFF;" d="M15.1,14H9.3
		c-0.2,0-0.4-0.2-0.4-0.4v-0.3c0-0.2,0.2-0.4,0.4-0.4h5.8c0.2,0,0.4,0.2,0.4,0.4v0.3C15.6,13.8,15.4,14,15.1,14"/>
	<path style="clip-path:url(#SVGID_00000176748190605407815230000000145643903843696513_);fill:#FFFFFF;" d="M7.6,12.4
		c0,0.5-0.4,0.9-0.9,0.9c-0.5,0-0.9-0.4-0.9-0.9c0-0.5,0.4-0.9,0.9-0.9C7.2,11.6,7.6,11.9,7.6,12.4"/>
	<path style="clip-path:url(#SVGID_00000176748190605407815230000000145643903843696513_);fill:#FFFFFF;" d="M18.6,12.4
		c0,0.5-0.4,0.9-0.9,0.9c-0.5,0-0.9-0.4-0.9-0.9c0-0.5,0.4-0.9,0.9-0.9C18.2,11.6,18.6,11.9,18.6,12.4"/>
	<path style="clip-path:url(#SVGID_00000176748190605407815230000000145643903843696513_);fill:#FFFFFF;" d="M5.2,11.5
		c0-0.1,0.2-0.4,0.6-0.9c0.4-0.4,0.7-0.8,0.9-0.9c0,0,0,0,0.1,0c0.6,0.1,1.8,0.2,4.4,0.2c0.3,0,0.7,0,1.1,0c3.4,0,4.9-0.1,5.5-0.2
		c0,0,0,0,0.1,0c0.4,0.2,1.5,1.5,1.5,1.8c0.1,0.7,0.1,3.2,0,3.9c-0.4,0-1.4,0-2.3-0.1c0,0,0,0,0,0h-0.1l0,0c0-0.2-0.2-0.4-0.4-0.4h0
		c-3.2,0-8.1,0-8.5,0c-0.2,0-0.4,0.1-0.5,0.3c0,0,0,0.1,0,0.1H7.4c0,0,0,0,0,0c-0.8,0.1-1.9,0.1-2.3,0.1C5,14.8,5.1,12.3,5.2,11.5
		 M8,7.1c0.2-0.2,1.7-0.5,4.2-0.5c0,0,0,0,0.1,0c2.5,0,3.9,0.3,4.2,0.5c0.2,0.2,0.7,1.1,1,1.9c-0.5,0.1-1.9,0.2-5.2,0.2h0
		C8.9,9.1,7.6,9,7,8.9C7.3,8.2,7.8,7.2,8,7.1 M20.2,13.8c0-1-0.1-2-0.1-2.3c0-0.6-0.9-1.6-1.5-2.1l0.7,0h0c0.2,0,0.4-0.2,0.4-0.4
		c0-0.2-0.2-0.4-0.4-0.4l-1,0h0c-0.1,0-0.1,0-0.2,0c-0.3-0.8-0.8-1.8-1.1-2.1c-0.2-0.2-0.5-0.4-1.9-0.6c-0.8-0.1-1.8-0.1-2.8-0.1
		c0,0-0.1,0-0.1,0C11,5.8,8,5.9,7.4,6.5C7.1,6.7,6.6,7.8,6.3,8.6c-0.1,0-0.1,0-0.2,0l-1,0h0c-0.2,0-0.4,0.2-0.4,0.4
		c0,0.2,0.2,0.4,0.4,0.4l0.7,0c-0.6,0.5-1.5,1.6-1.5,2.1c0,0.3-0.1,1.3-0.1,2.3c0,0.6,0,1,0,1.4c0,0.6,0.1,0.8,0.3,1
		c0,0,0.1,0.1,0.4,0.1v1c0,0.2,0.2,0.4,0.4,0.4h1.8c0.2,0,0.4-0.2,0.4-0.4v-1h9.3v1c0,0.2,0.2,0.4,0.4,0.4h1.8
		c0.2,0,0.4-0.2,0.4-0.4v-1c0.3,0,0.3-0.1,0.4-0.1C20.1,16,20.2,15.8,20.2,13.8"/>
	<path style="clip-path:url(#SVGID_00000176748190605407815230000000145643903843696513_);fill:#FFFFFF;" d="M3.5,14.1
		c0-0.1,0-0.2,0-0.3c0-1,0.1-2.1,0.1-2.4c0-0.5,0.4-1.1,0.8-1.6C4.1,9.6,4,9.3,4,8.9c0-0.6,0.5-1.1,1.2-1.1l0.7,0
		C6.1,7.1,6.5,6.3,6.9,6C7.1,5.7,7.8,5.1,12.2,5h0.1c1.1,0,2.1,0.1,2.9,0.1c0.9,0.1,1.5,0.3,1.8,0.4l0.2-2.7l-2.6,1.6l-0.4-3.6
		l-2.8,3.5L9.2,0.6L8.1,4.5L4.7,3l0.7,3.8l-3.7,0l1.5,2.7l-2.7,0.9L2.6,12l-1.8,1.5L3.5,14.1z"/>
</g>
</svg>
