<?xml version="1.0" encoding="utf-8"?>
<!-- Generator: Adobe Illustrator 26.0.1, SVG Export Plug-In . SVG Version: 6.00 Build 0)  -->
<svg version="1.1" xmlns="http://www.w3.org/2000/svg" xmlns:xlink="http://www.w3.org/1999/xlink" x="0px" y="0px"
	 viewBox="0 0 101.8 77.7" style="enable-background:new 0 0 101.8 77.7;" xml:space="preserve">
<style type="text/css">
	.st0{clip-path:url(#SVGID_00000165942609410488193780000003067860559806846399_);fill:#0073BA;}
	.st1{fill:#FFFFFF;}
	.st2{opacity:0.25;}
	.st3{clip-path:url(#SVGID_00000141434487390569115430000005588799831257735865_);fill:#C7C7C7;}
	.st4{clip-path:url(#SVGID_00000152224029930947489520000000322397443604984252_);fill:none;stroke:#C7C7C7;stroke-miterlimit:10;}
	.st5{clip-path:url(#SVGID_00000029046309206564788940000012536340317332134591_);fill:#FFFFFF;}
	.st6{filter:url(#Adobe_OpacityMaskFilter);}
	.st7{clip-path:url(#SVGID_00000149361639890549713790000008258820477075559319_);}
	
		.st8{clip-path:url(#SVGID_00000112608971486357987300000004830610363649201308_);fill:url(#SVGID_00000156569289055868708000000005795442559623021200_);}
	
		.st9{clip-path:url(#SVGID_00000149361639890549713790000008258820477075559319_);mask:url(#SVGID_00000162330670409857195810000000369481333106144690_);}
	.st10{clip-path:url(#SVGID_00000176001579682399394340000013719372567627525006_);fill:#FFFFFF;}
	.st11{fill:none;}
	.st12{fill:#EAEAEA;}
	.st13{fill:url(#SVGID_00000087403343283166999370000010781063227424647589_);}
	.st14{fill:none;stroke:#006496;stroke-linecap:round;stroke-miterlimit:10;}
	.st15{fill:#006496;}
	.st16{fill:none;stroke:#00823B;stroke-width:2;stroke-miterlimit:10;}
	.st17{fill:#079F4B;}
	.st18{clip-path:url(#SVGID_00000182516677861077032830000013836405362755284618_);fill:#0B74BB;}
	.st19{clip-path:url(#SVGID_00000182516677861077032830000013836405362755284618_);fill:none;stroke:#005E94;stroke-miterlimit:10;}
	.st20{clip-path:url(#SVGID_00000182516677861077032830000013836405362755284618_);fill:#FFFFFF;}
	.st21{clip-path:url(#SVGID_00000111174429317318413410000002291189878387764883_);fill:#FF911C;}
	.st22{clip-path:url(#SVGID_00000111174429317318413410000002291189878387764883_);fill:#F57F0A;}
	.st23{clip-path:url(#SVGID_00000111174429317318413410000002291189878387764883_);fill:#FFFFFF;}
	.st24{display:none;}
	.st25{display:inline;}
	.st26{display:inline;clip-path:url(#SVGID_00000016061429587822455500000001580557169759596967_);fill:#CF0A0A;}
	.st27{display:inline;clip-path:url(#SVGID_00000016061429587822455500000001580557169759596967_);fill:#BA0000;}
	.st28{display:inline;clip-path:url(#SVGID_00000016061429587822455500000001580557169759596967_);fill:#FFFFFF;}
	.st29{clip-path:url(#SVGID_00000178190637126305970510000013438254176747422138_);fill:#FFFFFF;}
	.st30{fill:#666666;}
	.st31{display:inline;fill:#FF8F1C;}
	.st32{display:inline;fill:none;stroke:#F57F0A;stroke-miterlimit:10;}
	.st33{clip-path:url(#SVGID_00000101808329527297075400000003840302679403517883_);fill:#FFFFFF;}
	.st34{clip-path:url(#SVGID_00000070830025082021443460000008174853888573161652_);fill:#FFFFFF;}
	
		.st35{clip-path:url(#SVGID_00000070830025082021443460000008174853888573161652_);fill:none;stroke:#FFFFFF;stroke-width:0.573;stroke-linecap:round;stroke-miterlimit:10;}
	.st36{fill:#FF8F1C;}
	.st37{fill:none;stroke:#F57F0A;stroke-miterlimit:10;}
	.st38{clip-path:url(#SVGID_00000024687196855083676320000003346792831842952067_);fill:#FFFFFF;}
	.st39{clip-path:url(#SVGID_00000053507357226592943520000018398692145252969134_);fill:#FFFFFF;}
	.st40{display:inline;fill:#CF0A0A;}
	.st41{display:inline;fill:none;stroke:#BA0000;stroke-miterlimit:10;}
	.st42{clip-path:url(#SVGID_00000117658853766482699150000011855297433186279819_);fill:#FFFFFF;}
	.st43{display:inline;clip-path:url(#SVGID_00000019656656577530998320000014008480405542430899_);fill:#0073BA;}
	.st44{display:inline;clip-path:url(#SVGID_00000019656656577530998320000014008480405542430899_);fill:#97C3E6;}
	.st45{display:inline;clip-path:url(#SVGID_00000059994392551838037770000008680797045192824967_);fill:#97C2E5;}
	.st46{display:inline;clip-path:url(#SVGID_00000059994392551838037770000008680797045192824967_);fill:#FFFFFF;}
	.st47{display:inline;filter:url(#Adobe_OpacityMaskFilter_00000054961339257135514360000001390720233204141954_);}
	
		.st48{clip-path:url(#SVGID_00000059994392551838037770000008680797045192824967_);fill:url(#SVGID_00000108308134560239723110000008220314689939897217_);}
	
		.st49{display:inline;clip-path:url(#SVGID_00000059994392551838037770000008680797045192824967_);mask:url(#SVGID_00000055687058149278200550000005868323792967808425_);}
	.st50{clip-path:url(#SVGID_00000114763539816291347160000001168867089057329809_);fill:#FFFFFF;}
	.st51{display:inline;clip-path:url(#SVGID_00000059994392551838037770000008680797045192824967_);fill:#0073BA;}
	.st52{display:inline;clip-path:url(#SVGID_00000059994392551838037770000008680797045192824967_);fill:#97C3E6;}
	
		.st53{display:inline;clip-path:url(#SVGID_00000059994392551838037770000008680797045192824967_);fill:none;stroke:#97C3E6;stroke-width:0.573;stroke-linecap:round;stroke-miterlimit:10;}
	
		.st54{clip-path:url(#SVGID_00000147180421097035589090000016772503432773109911_);fill:none;stroke:#98C3E4;stroke-width:2;stroke-miterlimit:10;}
	.st55{clip-path:url(#SVGID_00000147180421097035589090000016772503432773109911_);fill:#98C3E4;}
	.st56{clip-path:url(#SVGID_00000147180421097035589090000016772503432773109911_);fill:#FFFFFF;}
	
		.st57{clip-path:url(#SVGID_00000147180421097035589090000016772503432773109911_);fill:none;stroke:#0073BA;stroke-width:2;stroke-miterlimit:10;}
	
		.st58{clip-path:url(#SVGID_00000147180421097035589090000016772503432773109911_);fill:none;stroke:#0073BA;stroke-width:1.683;stroke-miterlimit:10;}
	
		.st59{clip-path:url(#SVGID_00000147180421097035589090000016772503432773109911_);fill:none;stroke:#98C3E4;stroke-width:1.683;stroke-miterlimit:10;}
	.st60{display:inline;fill:none;stroke:#0073BA;stroke-width:1.683;stroke-miterlimit:10;}
	.st61{fill:#006396;}
	.st62{filter:url(#Adobe_OpacityMaskFilter_00000145758544776590614990000003466101139216711571_);}
	
		.st63{clip-path:url(#SVGID_00000139986717166413079630000017973409033778835613_);fill:url(#SVGID_00000083068257676876909170000014317629999528967043_);}
	
		.st64{clip-path:url(#SVGID_00000139986717166413079630000017973409033778835613_);mask:url(#SVGID_00000035511663399320764040000010021024712768773784_);}
	
		.st65{clip-path:url(#SVGID_00000053537672869456262470000011297538696618848653_);fill:none;stroke:#006396;stroke-width:0.771;stroke-linecap:round;}
	.st66{display:inline;fill:url(#SVGID_00000083090311433790924540000006966591244982621880_);}
	
		.st67{clip-path:url(#SVGID_00000124866465624149708950000003967156707374102432_);fill:none;stroke:#99C3E2;stroke-width:1.683;stroke-miterlimit:10;}
	
		.st68{clip-path:url(#SVGID_00000124866465624149708950000003967156707374102432_);fill:none;stroke:#0073BA;stroke-width:2;stroke-miterlimit:10;}
	
		.st69{clip-path:url(#SVGID_00000124866465624149708950000003967156707374102432_);fill:none;stroke:#0073BA;stroke-width:1.683;stroke-miterlimit:10;}
	.st70{clip-path:url(#SVGID_00000152985003034109272190000004060239712787914409_);fill:#FFFFFF;}
	
		.st71{clip-path:url(#SVGID_00000152985003034109272190000004060239712787914409_);fill:none;stroke:#0073BA;stroke-width:2;stroke-miterlimit:10;}
	
		.st72{clip-path:url(#SVGID_00000152985003034109272190000004060239712787914409_);fill:none;stroke:#98C3E4;stroke-width:1.683;stroke-miterlimit:10;}
	.st73{clip-path:url(#SVGID_00000027591965167344241630000012559299349745755788_);fill:#98C3E4;}
	
		.st74{clip-path:url(#SVGID_00000027591965167344241630000012559299349745755788_);fill:none;stroke:#98C3E3;stroke-width:0.75;stroke-linejoin:round;stroke-miterlimit:10;}
	.st75{clip-path:url(#SVGID_00000173128390433967745950000007950606065907480496_);fill:#0073BA;}
	.st76{clip-path:url(#SVGID_00000173128390433967745950000007950606065907480496_);fill:none;}
	.st77{display:inline;fill:#98C3E4;}
	.st78{display:inline;clip-path:url(#SVGID_00000174594955303239697660000014826512262873890734_);fill:#0073BA;}
	.st79{display:inline;clip-path:url(#SVGID_00000174594955303239697660000014826512262873890734_);fill:#97C3E6;}
	
		.st80{display:inline;clip-path:url(#SVGID_00000174594955303239697660000014826512262873890734_);fill:none;stroke:#97C3E6;stroke-width:1.147;stroke-linecap:round;stroke-miterlimit:10;}
	.st81{display:inline;clip-path:url(#SVGID_00000069361074811472091890000011731630398141807262_);fill:#0073BA;}
	.st82{display:none;fill:#0073BA;}
	.st83{display:inline;clip-path:url(#SVGID_00000034055482623300269850000016175690159205781182_);fill:#97C3E6;}
	.st84{display:inline;clip-path:url(#SVGID_00000126306943231739226300000000361585090514892720_);fill:#0073BA;}
	.st85{display:inline;clip-path:url(#SVGID_00000126306943231739226300000000361585090514892720_);fill:#98C3E4;}
	.st86{display:inline;filter:url(#Adobe_OpacityMaskFilter_00000152965893075692048380000005285450926062545074_);}
	
		.st87{clip-path:url(#SVGID_00000148640749731339120180000003447904375782545084_);fill:url(#SVGID_00000093173758771735915170000004343962155088454032_);}
	
		.st88{display:inline;clip-path:url(#SVGID_00000148640749731339120180000003447904375782545084_);mask:url(#SVGID_00000152223491565815218570000018290541278083851174_);}
	.st89{clip-path:url(#SVGID_00000133489292837991218300000017762989785297404814_);fill:#FFFFFF;}
	.st90{clip-path:url(#SVGID_00000133489292837991218300000017762989785297404814_);}
	.st91{clip-path:url(#SVGID_00000047060321392823793340000009087581354987963793_);fill:#0073BA;}
	.st92{display:inline;clip-path:url(#SVGID_00000148640749731339120180000003447904375782545084_);fill:#0073BA;}
	.st93{display:inline;clip-path:url(#SVGID_00000005956743458248052950000017280663581954501257_);fill:#FFFFFF;}
	.st94{display:inline;clip-path:url(#SVGID_00000005956743458248052950000017280663581954501257_);fill:#97C3E6;}
	.st95{fill:#D92B80;}
	.st96{clip-path:url(#SVGID_00000176751234762994044620000007936743669841061534_);fill:#0073BA;}
	.st97{fill:#98C3E4;}
	.st98{filter:url(#Adobe_OpacityMaskFilter_00000017516655856204453870000006409876331964591036_);}
	
		.st99{clip-path:url(#SVGID_00000023263324286538087500000011731305563070690196_);fill:url(#SVGID_00000083802521088247756370000007380799650533526190_);}
	
		.st100{clip-path:url(#SVGID_00000023263324286538087500000011731305563070690196_);mask:url(#SVGID_00000083791738011793825440000009431610711852813232_);}
	.st101{clip-path:url(#SVGID_00000039098101362447116640000012214815561416371374_);fill:none;stroke:#FFFFFF;stroke-width:2;}
	.st102{clip-path:url(#SVGID_00000143582338128614258040000008059388433270103950_);fill:#FFFFFF;}
	.st103{clip-path:url(#SVGID_00000143582338128614258040000008059388433270103950_);fill:#283484;}
	.st104{filter:url(#Adobe_OpacityMaskFilter_00000107553155110273869900000001084127803545689772_);}
	
		.st105{clip-path:url(#SVGID_00000115479745432123131630000003458663501519879852_);fill:url(#SVGID_00000126297321562095850080000017951146757951931530_);}
	
		.st106{clip-path:url(#SVGID_00000115479745432123131630000003458663501519879852_);mask:url(#SVGID_00000025417565160401019220000008741876639354529957_);}
	.st107{clip-path:url(#SVGID_00000023967366317730073900000005687861275503057577_);fill:none;stroke:#FFFFFF;stroke-width:2;}
	.st108{clip-path:url(#SVGID_00000127030650871063088590000005558281563572428168_);fill:#FFFFFF;}
	.st109{clip-path:url(#SVGID_00000127030650871063088590000005558281563572428168_);fill:#283484;}
</style>
<g id="Layer_1">
</g>
<g id="History_Icons">
</g>
<g id="History_Glance">
	<g class="st24">
		<defs>
			<rect id="SVGID_00000047756581870738598990000013797092158373758137_" x="8.9" y="1.5" width="84.1" height="74.6"/>
		</defs>
		<clipPath id="SVGID_00000183232143317059757240000007891030872429996440_" class="st25">
			<use xlink:href="#SVGID_00000047756581870738598990000013797092158373758137_"  style="overflow:visible;"/>
		</clipPath>
		<path style="display:inline;clip-path:url(#SVGID_00000183232143317059757240000007891030872429996440_);fill:#0073BA;" d="
			M90.1,68.8c-0.8,0.8-2.2,0.8-3.1-0.1L53.5,35.9c1-1.1,2.1-2.1,3.2-3L90,65.7C90.9,66.6,90.9,67.9,90.1,68.8L90.1,68.8z M31,26.9
			c9.3-3.5,14.5-12.5,16.2-16.1l15.9,15.5c-2.6,1.2-7.8,4.1-12,8.8c0,0,0,0,0,0c0,0,0,0,0,0c-1.8,2-3.3,4.4-4.4,7.1L31,26.9z
			 M46.9,47.9L45.8,49c-0.6,0.6-1.7,0.6-2.4,0L24.1,30.1c-0.3-0.3-0.5-0.7-0.5-1.2c0-0.4,0.2-0.9,0.5-1.2l1.1-1.1
			c0.3-0.3,0.8-0.5,1.2-0.5c0.4,0,0.9,0.2,1.2,0.5l19.3,18.9C47.6,46.2,47.6,47.3,46.9,47.9L46.9,47.9z M47.1,5.3l1.1-1.1
			c0.3-0.3,0.8-0.5,1.2-0.5c0.4,0,0.9,0.2,1.2,0.5l19.3,18.9c0.3,0.3,0.5,0.7,0.5,1.2c0,0.4-0.2,0.9-0.5,1.2l-1.1,1.1
			c-0.6,0.6-1.7,0.6-2.4,0L47.7,8.2c0,0,0,0,0,0l-0.5-0.5c-0.3-0.3-0.5-0.7-0.5-1.2C46.6,6,46.8,5.6,47.1,5.3L47.1,5.3z M91.6,64.2
			L58.5,31.6c2.7-1.9,5.2-3.1,6.3-3.6c0.7,0.7,1.7,1.1,2.8,1.1c1.1,0,2-0.4,2.8-1.1l1.1-1.1c0.7-0.7,1.2-1.7,1.1-2.7
			c0-1-0.4-2-1.1-2.7L52.2,2.6c-1.5-1.5-4-1.5-5.6,0l-1.1,1.1c-0.7,0.7-1.2,1.7-1.2,2.7c0,1,0.4,2,1.1,2.7l0,0
			c-1.2,2.7-6.5,12.8-16.3,16l-0.1-0.1c-1.5-1.5-4-1.5-5.6,0l-1.1,1.1c-0.7,0.7-1.2,1.7-1.2,2.7c0,1,0.4,2,1.1,2.7l19.3,18.9
			c0.7,0.7,1.7,1.1,2.8,1.1c1.1,0,2-0.4,2.8-1.1l1.1-1.1c0,0,0,0,0,0c1.5-1.5,1.5-3.9,0-5.4l0,0c0.8-2.4,2.1-4.5,3.5-6.4l33.4,32.6
			c0.9,0.9,2.1,1.3,3.2,1.3c1.1,0,2.2-0.4,3.1-1.2C93.4,68.6,93.3,65.9,91.6,64.2z"/>
		<path style="display:inline;clip-path:url(#SVGID_00000183232143317059757240000007891030872429996440_);fill:#0073BA;" d="
			M50.3,73.9H10c-0.6,0-1.1,0.5-1.1,1.1c0,0.6,0.5,1.1,1.1,1.1h40.3c0.6,0,1.1-0.5,1.1-1.1C51.4,74.4,50.9,73.9,50.3,73.9"/>
		<path style="display:inline;clip-path:url(#SVGID_00000183232143317059757240000007891030872429996440_);fill:#97C3E6;" d="
			M49.2,68.2c0,1.1-0.9,2.1-2.1,2.1l-33.8,0c-1.2,0-2.1-0.9-2.1-2.1v-0.6c0-1.1,0.9-2.1,2.1-2.1h33.8c1.2,0,2.1,0.9,2.1,2.1V68.2z
			 M16.8,60.1h26.7c1.1,0,1.9,0.9,1.9,1.9v1.4H14.8V62C14.8,60.9,15.7,60.1,16.8,60.1L16.8,60.1z M47.7,63.4V62
			c0-2.3-1.9-4.1-4.2-4.1l-26.7,0c-2.3,0-4.2,1.8-4.2,4.1v1.5c-2.1,0.3-3.7,2.1-3.7,4.2v0.6c0,2.4,2,4.3,4.4,4.3h33.8
			c2.4,0,4.4-1.9,4.4-4.3v-0.6C51.4,65.5,49.8,63.7,47.7,63.4L47.7,63.4z"/>
	</g>
	<g class="st24">
		<defs>
			<rect id="SVGID_00000112591010424256119040000016358414244182316197_" x="1" y="19.5" width="99.9" height="56.6"/>
		</defs>
		<clipPath id="SVGID_00000167379444862065613970000000205168915480249495_" class="st25">
			<use xlink:href="#SVGID_00000112591010424256119040000016358414244182316197_"  style="overflow:visible;"/>
		</clipPath>
		<path style="display:inline;clip-path:url(#SVGID_00000167379444862065613970000000205168915480249495_);fill:#97C2E5;" d="
			M83.1,20.8c0,0,0.7-0.8,1.5-0.8c0.8,0,2,0.1,2.8,1.5c0.9,1.5,12.4,22.5,12.4,22.5s0.4,2.4-0.2,3.1c-0.6,0.7-1.7,1.2-3.6,1.3
			s-22,0.2-23.2,0c-1.3-0.2-2.8-1.3-3-1.9c-0.3-0.6-0.3-2,0.4-3.1C71,42.3,83.1,20.8,83.1,20.8"/>
		<path style="display:inline;clip-path:url(#SVGID_00000167379444862065613970000000205168915480249495_);fill:#97C2E5;" d="
			M97.2,47.7H72.6c-0.8,0-1.6-0.5-2-1.2c-0.4-0.7-0.4-1.7,0-2.4L82.9,22c0.3-0.5,0.7-0.9,1.2-1.1c0.5-0.2,1.1-0.2,1.6,0
			c0.5,0.2,0.9,0.6,1.2,1.1l12.3,22.1c0.4,0.7,0.4,1.7,0,2.4C98.8,47.3,98,47.7,97.2,47.7L97.2,47.7z M100.3,43.4L88.1,21.4
			c-0.4-0.8-1.1-1.4-1.9-1.7c-0.8-0.3-1.7-0.3-2.5,0c-0.8,0.3-1.5,0.9-1.9,1.7L69.5,43.4c-0.4,0.8-0.6,1.7-0.4,2.6
			c0.1,0.9,0.6,1.7,1.2,2.2c0.7,0.6,1.5,0.9,2.3,0.9h24.5c0.9,0,1.7-0.3,2.3-0.9c0.7-0.6,1.1-1.4,1.2-2.2
			C100.9,45.1,100.8,44.2,100.3,43.4z"/>
		<path style="display:inline;clip-path:url(#SVGID_00000167379444862065613970000000205168915480249495_);fill:#FFFFFF;" d="
			M84.9,39.6c0.5,0,0.9-0.2,1.2-0.6c0.3-0.4,0.5-0.9,0.5-1.4V26.9c0-0.7-0.3-1.4-0.9-1.7c-0.5-0.4-1.2-0.4-1.8,0
			c-0.5,0.4-0.9,1-0.9,1.7v10.7c0,0.5,0.2,1,0.5,1.4C84,39.4,84.4,39.6,84.9,39.6z"/>
		<path style="display:inline;clip-path:url(#SVGID_00000167379444862065613970000000205168915480249495_);fill:#FFFFFF;" d="
			M86.7,43.6c0,1-0.8,1.8-1.8,1.8c-1,0-1.8-0.8-1.8-1.8c0-1,0.8-1.8,1.8-1.8C85.9,41.7,86.7,42.6,86.7,43.6"/>
		<defs>
			<filter id="Adobe_OpacityMaskFilter" filterUnits="userSpaceOnUse" x="59" y="34.4" width="28.8" height="18.8">
				<feFlood  style="flood-color:white;flood-opacity:1" result="back"/>
				<feBlend  in="SourceGraphic" in2="back" mode="normal"/>
			</filter>
		</defs>
		
			<mask maskUnits="userSpaceOnUse" x="59" y="34.4" width="28.8" height="18.8" id="SVGID_00000168092549645121931790000002862988018784356494_" class="st25">
			<g class="st6">
				
					<linearGradient id="SVGID_00000018954536032528586430000017521322263155658390_" gradientUnits="userSpaceOnUse" x1="-128.2193" y1="444.54" x2="-127.2193" y2="444.54" gradientTransform="matrix(28.8141 0 0 -28.8141 3753.5168 12856.7979)">
					<stop  offset="0" style="stop-color:#FFFFFF"/>
					<stop  offset="1" style="stop-color:#FFFFFF"/>
				</linearGradient>
				
					<rect x="1" y="19.5" style="clip-path:url(#SVGID_00000167379444862065613970000000205168915480249495_);fill:url(#SVGID_00000018954536032528586430000017521322263155658390_);" width="99.9" height="56.6"/>
			</g>
		</mask>
		
			<g style="display:inline;clip-path:url(#SVGID_00000167379444862065613970000000205168915480249495_);mask:url(#SVGID_00000168092549645121931790000002862988018784356494_);">
			<g>
				<defs>
					<rect id="SVGID_00000074418953923142062160000003481653816242304703_" x="59" y="34.4" width="28.8" height="18.8"/>
				</defs>
				<clipPath id="SVGID_00000020396118909523657300000011951379969914459037_">
					<use xlink:href="#SVGID_00000074418953923142062160000003481653816242304703_"  style="overflow:visible;"/>
				</clipPath>
				<path style="clip-path:url(#SVGID_00000020396118909523657300000011951379969914459037_);fill:#FFFFFF;" d="M68.5,44.3
					c1.1-1.5,1.6-2.7,1-2.8c-1-0.1,5.5-0.4,8.8,5.1c2.1,3.6-2.8,7-4.8,5C71.5,49.6,66.5,46.9,68.5,44.3"/>
			</g>
		</g>
		<path style="display:inline;clip-path:url(#SVGID_00000167379444862065613970000000205168915480249495_);fill:#0073BA;" d="
			M59.8,71.8c-0.3-3.3-1.6-6.2-3.5-8.6l14-14.2l-2-2l-14,14.2c-2.7-2.3-6.1-3.7-9.8-3.7c-8,0-14.6,6.3-15.4,14.2H3.8
			C4.5,49.7,22.5,32,44.4,32C66.4,32,84.3,49.7,85,71.8H59.8z M44.4,29.1C20.5,29.1,1,48.9,1,73.3v1.4h30.8v-1.4
			c0-7.1,5.7-12.8,12.6-12.8c3,0,5.7,1.1,7.8,2.8l-7.1,7.3c-0.2-0.1-0.4-0.1-0.7-0.1c-1.5,0-2.8,1.3-2.8,2.8c0,1.6,1.3,2.8,2.8,2.8
			c1.5,0,2.8-1.3,2.8-2.8c0-0.2-0.1-0.5-0.1-0.7l7.1-7.3c1.7,2.2,2.8,4.9,2.8,8v1.4h30.8v-1.4C87.9,48.9,68.4,29.1,44.4,29.1"/>
		<path style="display:inline;clip-path:url(#SVGID_00000167379444862065613970000000205168915480249495_);fill:#97C3E6;" d="
			M43,50.5c0,0.8,0.6,1.4,1.4,1.4s1.4-0.6,1.4-1.4V39.1c0-0.8-0.6-1.4-1.4-1.4S43,38.3,43,39.1V50.5z"/>
		
			<path style="display:inline;clip-path:url(#SVGID_00000167379444862065613970000000205168915480249495_);fill:none;stroke:#97C3E6;stroke-width:0.573;stroke-linecap:round;stroke-miterlimit:10;" d="
			M43,50.5c0,0.8,0.6,1.4,1.4,1.4s1.4-0.6,1.4-1.4V39.1c0-0.8-0.6-1.4-1.4-1.4S43,38.3,43,39.1V50.5z"/>
		<path style="display:inline;clip-path:url(#SVGID_00000167379444862065613970000000205168915480249495_);fill:#97C3E6;" d="
			M27.7,57.9c0.5,0.6,1.4,0.6,2,0.1c0.6-0.5,0.6-1.4,0.1-2l-7.8-8.4c-0.5-0.6-1.4-0.6-2-0.1c-0.6,0.5-0.6,1.4-0.1,2L27.7,57.9z"/>
		
			<path style="display:inline;clip-path:url(#SVGID_00000167379444862065613970000000205168915480249495_);fill:none;stroke:#97C3E6;stroke-width:0.573;stroke-linecap:round;stroke-miterlimit:10;" d="
			M27.7,57.9c0.5,0.6,1.4,0.6,2,0.1c0.6-0.5,0.6-1.4,0.1-2l-7.8-8.4c-0.5-0.6-1.4-0.6-2-0.1c-0.6,0.5-0.6,1.4-0.1,2L27.7,57.9z"/>
	</g>
	<g class="st24">
		<g class="st25">
			<defs>
				<rect id="SVGID_00000003068844132137209890000002362267241762025092_" x="11.4" y="14.4" width="78.9" height="61.7"/>
			</defs>
			<clipPath id="SVGID_00000123405639898847643710000016614752612436457129_">
				<use xlink:href="#SVGID_00000003068844132137209890000002362267241762025092_"  style="overflow:visible;"/>
			</clipPath>
			
				<path style="clip-path:url(#SVGID_00000123405639898847643710000016614752612436457129_);fill:none;stroke:#98C3E4;stroke-width:2;stroke-miterlimit:10;" d="
				M13.2,21.9c14.1-8.7,26.9-8.7,41.1,0c2.7,18.5-1.9,32.7-20.6,40.7C15.1,54.7,10.5,40.4,13.2,21.9z"/>
			<path style="clip-path:url(#SVGID_00000123405639898847643710000016614752612436457129_);fill:#98C3E4;" d="M37.8,30.5l0.6-0.9
				l3.1-3.7c1.4-1.5,4.4-2.2,6.5-2.2l0.3,0.6l-3.5,4.1l-7.9,10.3l-5.4,8.3l-1.3,2.2c-0.2,0.4-0.4,0.8-0.8,1
				c-0.5,0.2-1.6,0.2-2.2,0.2c-1.2,0-1.5,0-1.7-0.2c-0.4-0.3-0.6-0.8-0.8-1.3c-0.8-1.7-2.3-5.4-2.3-7.3c0-0.6,0.4-0.9,0.9-1.3
				c0.8-0.6,1.9-1.2,2.9-1.2c0.8,0,0.8,0.6,1.1,1.2l0.8,1.8c0.1,0.3,0.5,1.3,0.9,1.3c0.4,0,0.8-0.9,1-1.1L37.8,30.5z"/>
			<path style="clip-path:url(#SVGID_00000123405639898847643710000016614752612436457129_);fill:#FFFFFF;" d="M84.1,46.6
				c0,0-8,1-20.4,1c-12.5,0-21-1-21-1 M76.7,69.4v4.4c0,0.7,0.6,1.3,1.3,1.3h5.8c0.7,0,1.3-0.6,1.3-1.3v-4.5 M41.9,69.4v4.4
				c0,0.7,0.6,1.3,1.3,1.3H49c0.7,0,1.3-0.6,1.3-1.3v-4.5 M89.3,60.9c0-3.2-0.2-6.6-0.3-7.5c-0.1-1.9-2.9-5.2-4.9-7
				c0,0-4.2-8.5-5.1-9.3c-0.5-0.5-1.8-1.3-6.1-1.8c-2.5-0.3-5.8-0.5-9.2-0.5c-0.1,0-0.2,0-0.3,0c-4,0-13.4,0.3-15.4,2.3
				c-0.9,0.9-5,9.3-5,9.3c-1.9,1.8-4.7,5.1-4.9,7c-0.1,0.9-0.2,4.3-0.3,7.5c0,1.8,0,3.4,0.1,4.5c0.1,2,0.3,2.8,1,3.2
				c0.2,0.1,0.4,0.3,1.2,0.4l46.8,0c0.8-0.1,1.1-0.3,1.2-0.4C89,68.1,89.4,67.5,89.3,60.9"/>
			
				<path style="clip-path:url(#SVGID_00000123405639898847643710000016614752612436457129_);fill:none;stroke:#0073BA;stroke-width:2;stroke-miterlimit:10;" d="
				M84.1,46.6c0,0-8,1-20.4,1c-12.5,0-21-1-21-1 M76.7,69.4v4.4c0,0.7,0.6,1.3,1.3,1.3h5.8c0.7,0,1.3-0.6,1.3-1.3v-4.5 M41.9,69.4
				v4.4c0,0.7,0.6,1.3,1.3,1.3H49c0.7,0,1.3-0.6,1.3-1.3v-4.5 M89.3,60.9c0-3.2-0.2-6.6-0.3-7.5c-0.1-1.9-2.9-5.2-4.9-7
				c0,0-4.2-8.5-5.1-9.3c-0.5-0.5-1.8-1.3-6.1-1.8c-2.5-0.3-5.8-0.5-9.2-0.5c-0.1,0-0.2,0-0.3,0c-4,0-13.4,0.3-15.4,2.3
				c-0.9,0.9-5,9.3-5,9.3c-1.9,1.8-4.7,5.1-4.9,7c-0.1,0.9-0.2,4.3-0.3,7.5c0,1.8,0,3.4,0.1,4.5c0.1,2,0.3,2.8,1,3.2
				c0.2,0.1,0.4,0.3,1.2,0.4l46.8,0c0.8-0.1,1.1-0.3,1.2-0.4C89,68.1,89.4,67.5,89.3,60.9z"/>
			
				<line style="clip-path:url(#SVGID_00000123405639898847643710000016614752612436457129_);fill:none;stroke:#0073BA;stroke-width:1.683;stroke-miterlimit:10;" x1="87.5" y1="45.2" x2="83.5" y2="45.2"/>
			
				<path style="clip-path:url(#SVGID_00000123405639898847643710000016614752612436457129_);fill:none;stroke:#98C3E4;stroke-width:1.683;stroke-miterlimit:10;" d="
				M84.7,56.5c0,1.6-1.3,2.8-2.8,2.8s-2.8-1.3-2.8-2.8c0-1.6,1.3-2.8,2.8-2.8S84.7,54.9,84.7,56.5z M49.4,56.5
				c0,1.6-1.3,2.8-2.8,2.8c-1.6,0-2.8-1.3-2.8-2.8c0-1.6,1.3-2.8,2.8-2.8C48.1,53.7,49.4,54.9,49.4,56.5z"/>
		</g>
		<line class="st60" x1="43.6" y1="46" x2="39.7" y2="46"/>
	</g>
	<g class="st24">
		<g class="st25">
			<path class="st61" d="M33.6,26.2c0,0.4-0.1,0.8-0.2,1.1c-0.1,0.3-0.3,0.5-0.5,0.7l0.7,0.6l-0.5,0.4l-0.9-0.7c-0.1,0-0.2,0-0.4,0
				c-0.3,0-0.7-0.1-0.9-0.3c-0.3-0.2-0.5-0.4-0.6-0.7S30,26.6,30,26.2v-0.2c0-0.4,0.1-0.8,0.2-1.1s0.4-0.6,0.6-0.7s0.6-0.3,0.9-0.3
				c0.4,0,0.7,0.1,0.9,0.2c0.3,0.2,0.5,0.4,0.6,0.7c0.1,0.3,0.2,0.7,0.2,1.1V26.2z M32.8,25.9c0-0.5-0.1-0.8-0.3-1.1
				s-0.4-0.4-0.8-0.4c-0.3,0-0.6,0.1-0.7,0.4s-0.3,0.6-0.3,1.1v0.2c0,0.5,0.1,0.8,0.3,1.1s0.4,0.4,0.8,0.4c0.3,0,0.6-0.1,0.8-0.4
				s0.3-0.6,0.3-1.1V25.9z"/>
			<path class="st61" d="M37.5,23.9v2.9c0,0.5-0.1,0.8-0.4,1.1s-0.7,0.4-1.2,0.4c-0.5,0-0.9-0.1-1.2-0.4c-0.3-0.3-0.4-0.6-0.4-1.1
				v-2.8H35v2.8c0,0.3,0.1,0.5,0.2,0.7c0.1,0.2,0.4,0.2,0.6,0.2c0.6,0,0.9-0.3,0.9-0.9v-2.8H37.5z"/>
			<path class="st61" d="M40.7,27.2H39l-0.3,1h-0.8l1.6-4.3h0.7l1.6,4.3H41L40.7,27.2z M39.2,26.6h1.2l-0.6-1.8L39.2,26.6z"/>
			<path class="st61" d="M43.1,27.6H45v0.6h-2.7v-4.3h0.7V27.6z"/>
			<path class="st61" d="M46.4,28.2h-0.7v-4.3h0.7V28.2z"/>
			<path class="st61" d="M49.8,26.4h-1.7v1.8h-0.7v-4.3h2.7v0.6h-2v1.3h1.7V26.4z"/>
			<path class="st61" d="M51.5,28.2h-0.7v-4.3h0.7V28.2z"/>
			<path class="st61" d="M55,26.3h-1.8v1.3h2v0.6h-2.8v-4.3h2.8v0.6h-2v1.2H55V26.3z"/>
			<path class="st61" d="M58.1,27.1c0-0.2-0.1-0.3-0.2-0.4s-0.4-0.2-0.7-0.3s-0.6-0.2-0.8-0.3c-0.4-0.2-0.6-0.6-0.6-1
				c0-0.3,0.1-0.6,0.4-0.8s0.6-0.3,1.1-0.3c0.3,0,0.6,0.1,0.8,0.2s0.4,0.3,0.5,0.5c0.1,0.2,0.2,0.4,0.2,0.7h-0.7
				c0-0.2-0.1-0.4-0.2-0.5s-0.3-0.2-0.6-0.2c-0.2,0-0.4,0.1-0.6,0.2c-0.1,0.1-0.2,0.2-0.2,0.4c0,0.2,0.1,0.3,0.2,0.4
				c0.1,0.1,0.4,0.2,0.7,0.3c0.3,0.1,0.6,0.2,0.8,0.3c0.2,0.1,0.3,0.3,0.4,0.4c0.1,0.2,0.1,0.4,0.1,0.6c0,0.4-0.1,0.6-0.4,0.8
				s-0.6,0.3-1.1,0.3c-0.3,0-0.6-0.1-0.9-0.2c-0.3-0.1-0.5-0.3-0.6-0.5s-0.2-0.4-0.2-0.7h0.7c0,0.2,0.1,0.4,0.2,0.6s0.4,0.2,0.7,0.2
				c0.3,0,0.5-0.1,0.6-0.2S58.1,27.3,58.1,27.1z"/>
			<path class="st61" d="M63.6,26.4h-1.7v1.8h-0.7v-4.3h2.7v0.6h-2v1.3h1.7V26.4z"/>
			<path class="st61" d="M67.9,26.2c0,0.4-0.1,0.8-0.2,1.1c-0.1,0.3-0.4,0.6-0.6,0.7c-0.3,0.2-0.6,0.3-0.9,0.3
				c-0.3,0-0.7-0.1-0.9-0.3c-0.3-0.2-0.5-0.4-0.6-0.7s-0.2-0.7-0.2-1.1v-0.2c0-0.4,0.1-0.8,0.2-1.1s0.4-0.6,0.6-0.7s0.6-0.3,0.9-0.3
				s0.7,0.1,0.9,0.2c0.3,0.2,0.5,0.4,0.6,0.7c0.1,0.3,0.2,0.7,0.2,1.1V26.2z M67.2,25.9c0-0.5-0.1-0.8-0.3-1.1s-0.4-0.4-0.8-0.4
				c-0.3,0-0.6,0.1-0.8,0.4s-0.3,0.6-0.3,1.1v0.2c0,0.5,0.1,0.8,0.3,1.1s0.4,0.4,0.8,0.4c0.3,0,0.6-0.1,0.8-0.4s0.3-0.6,0.3-1.1
				V25.9z"/>
			<path class="st61" d="M70.3,26.5h-0.8v1.6h-0.7v-4.3h1.5c0.5,0,0.9,0.1,1.1,0.3c0.3,0.2,0.4,0.5,0.4,1c0,0.3-0.1,0.5-0.2,0.7
				s-0.3,0.3-0.6,0.4l1,1.8v0h-0.8L70.3,26.5z M69.4,25.9h0.8c0.2,0,0.4-0.1,0.6-0.2c0.1-0.1,0.2-0.3,0.2-0.5c0-0.2-0.1-0.4-0.2-0.5
				s-0.3-0.2-0.6-0.2h-0.8V25.9z"/>
		</g>
		<g class="st25">
			<path class="st61" d="M30.1,36.2v-6.4h2.2c0.8,0,1.4,0.1,1.8,0.4c0.4,0.3,0.6,0.7,0.6,1.3c0,0.3-0.1,0.6-0.2,0.8
				c-0.2,0.2-0.4,0.4-0.7,0.5c0.3,0.1,0.6,0.2,0.8,0.5c0.2,0.2,0.3,0.6,0.3,0.9c0,0.6-0.2,1.1-0.6,1.4c-0.4,0.3-1,0.5-1.7,0.5H30.1z
				 M31.4,32.5h1c0.7,0,1-0.3,1-0.8c0-0.3-0.1-0.5-0.3-0.6c-0.2-0.1-0.4-0.2-0.8-0.2h-0.9V32.5z M31.4,33.4v1.7h1.1
				c0.3,0,0.6-0.1,0.7-0.2c0.2-0.1,0.3-0.4,0.3-0.6c0-0.6-0.3-0.9-0.9-0.9H31.4z"/>
			<path class="st61" d="M40.7,29.8V34c0,0.7-0.2,1.3-0.7,1.7c-0.4,0.4-1,0.6-1.8,0.6c-0.7,0-1.3-0.2-1.8-0.6
				c-0.4-0.4-0.7-0.9-0.7-1.6v-4.3h1.3V34c0,0.4,0.1,0.7,0.3,0.9c0.2,0.2,0.5,0.3,0.8,0.3c0.7,0,1.1-0.4,1.1-1.2v-4.3H40.7z"/>
			<path class="st61" d="M43.9,32.7l1.3-2.9h1.4l-2.1,4.1v2.3h-1.3v-2.3l-2.1-4.1h1.4L43.9,32.7z"/>
			<path class="st61" d="M49.5,36.2v-6.4h2.2c0.8,0,1.4,0.1,1.8,0.4c0.4,0.3,0.6,0.7,0.6,1.3c0,0.3-0.1,0.6-0.2,0.8
				c-0.2,0.2-0.4,0.4-0.7,0.5c0.3,0.1,0.6,0.2,0.8,0.5c0.2,0.2,0.3,0.6,0.3,0.9c0,0.6-0.2,1.1-0.6,1.4c-0.4,0.3-1,0.5-1.7,0.5H49.5z
				 M50.9,32.5h1c0.7,0,1-0.3,1-0.8c0-0.3-0.1-0.5-0.3-0.6c-0.2-0.1-0.4-0.2-0.8-0.2h-0.9V32.5z M50.9,33.4v1.7H52
				c0.3,0,0.6-0.1,0.7-0.2c0.2-0.1,0.3-0.4,0.3-0.6c0-0.6-0.3-0.9-0.9-0.9H50.9z"/>
			<path class="st61" d="M58.9,34.9h-2.3l-0.4,1.3h-1.4l2.4-6.4h1.2l2.4,6.4h-1.4L58.9,34.9z M56.9,33.8h1.6l-0.8-2.4L56.9,33.8z"/>
			<path class="st61" d="M66.3,34.1c0,0.7-0.3,1.2-0.8,1.6c-0.5,0.4-1.1,0.6-1.8,0.6c-0.8,0-1.5-0.3-1.9-0.8
				c-0.5-0.6-0.7-1.3-0.7-2.3v-0.4c0-0.6,0.1-1.2,0.3-1.6s0.5-0.8,0.9-1.1c0.4-0.3,0.9-0.4,1.4-0.4c0.7,0,1.3,0.2,1.8,0.6
				c0.5,0.4,0.7,1,0.8,1.7H65c0-0.4-0.1-0.7-0.3-0.9c-0.2-0.2-0.5-0.3-0.9-0.3c-0.4,0-0.8,0.2-1,0.5c-0.2,0.3-0.3,0.8-0.3,1.5v0.5
				c0,0.7,0.1,1.2,0.3,1.5c0.2,0.3,0.5,0.5,1,0.5c0.4,0,0.7-0.1,0.9-0.3c0.2-0.2,0.3-0.5,0.3-0.9H66.3z"/>
			<path class="st61" d="M69.2,33.6l-0.7,0.7v1.8h-1.3v-6.4h1.3v2.9l0.6-0.8l1.6-2.1h1.6L70,32.6l2.3,3.6h-1.6L69.2,33.6z"/>
		</g>
		<g class="st25">
			<path class="st61" d="M30.8,40.3v1.6H30v-4.3h1.6c0.5,0,0.9,0.1,1.1,0.4c0.3,0.2,0.4,0.6,0.4,1c0,0.4-0.1,0.7-0.4,1
				c-0.3,0.2-0.7,0.3-1.2,0.3H30.8z M30.8,39.7h0.9c0.3,0,0.5-0.1,0.6-0.2s0.2-0.3,0.2-0.5c0-0.2-0.1-0.4-0.2-0.6
				c-0.1-0.1-0.3-0.2-0.6-0.2h-0.9V39.7z"/>
			<path class="st61" d="M36.2,40.2h-0.8v1.6h-0.7v-4.3h1.5c0.5,0,0.9,0.1,1.1,0.3c0.3,0.2,0.4,0.5,0.4,1c0,0.3-0.1,0.5-0.2,0.7
				s-0.3,0.3-0.6,0.4l1,1.8v0H37L36.2,40.2z M35.3,39.6h0.8c0.2,0,0.4-0.1,0.6-0.2c0.1-0.1,0.2-0.3,0.2-0.5c0-0.2-0.1-0.4-0.2-0.5
				s-0.3-0.2-0.6-0.2h-0.8V39.6z"/>
			<path class="st61" d="M42.5,39.9c0,0.4-0.1,0.8-0.2,1.1c-0.1,0.3-0.4,0.6-0.6,0.7c-0.3,0.2-0.6,0.3-0.9,0.3
				c-0.3,0-0.7-0.1-0.9-0.3c-0.3-0.2-0.5-0.4-0.6-0.7s-0.2-0.7-0.2-1.1v-0.2c0-0.4,0.1-0.8,0.2-1.1s0.4-0.6,0.6-0.7s0.6-0.3,0.9-0.3
				s0.7,0.1,0.9,0.2c0.3,0.2,0.5,0.4,0.6,0.7c0.1,0.3,0.2,0.7,0.2,1.1V39.9z M41.7,39.6c0-0.5-0.1-0.8-0.3-1.1s-0.4-0.4-0.8-0.4
				c-0.3,0-0.6,0.1-0.8,0.4s-0.3,0.6-0.3,1.1v0.2c0,0.5,0.1,0.8,0.3,1.1s0.4,0.4,0.8,0.4c0.3,0,0.6-0.1,0.8-0.4s0.3-0.6,0.3-1.1
				V39.6z"/>
			<path class="st61" d="M46.7,38.2h-1.3v3.7h-0.7v-3.7h-1.3v-0.6h3.4V38.2z"/>
			<path class="st61" d="M50.5,40h-1.8v1.3h2v0.6H48v-4.3h2.8v0.6h-2v1.2h1.8V40z"/>
			<path class="st61" d="M55.4,40.5c0,0.5-0.2,0.8-0.5,1.1c-0.3,0.3-0.7,0.4-1.2,0.4c-0.3,0-0.6-0.1-0.9-0.2
				c-0.3-0.2-0.5-0.4-0.6-0.7S52,40.4,52,40v-0.4c0-0.4,0.1-0.8,0.2-1.1s0.3-0.5,0.6-0.7s0.6-0.2,0.9-0.2c0.5,0,0.8,0.1,1.1,0.4
				c0.3,0.3,0.5,0.6,0.5,1.1h-0.7c0-0.3-0.1-0.5-0.3-0.7c-0.1-0.1-0.4-0.2-0.6-0.2c-0.3,0-0.6,0.1-0.7,0.4s-0.3,0.6-0.3,1v0.4
				c0,0.5,0.1,0.8,0.2,1.1c0.2,0.2,0.4,0.4,0.7,0.4c0.3,0,0.5-0.1,0.7-0.2s0.2-0.3,0.3-0.7H55.4z"/>
			<path class="st61" d="M59.8,38.2h-1.3v3.7h-0.7v-3.7h-1.3v-0.6h3.4V38.2z"/>
			<path class="st61" d="M61.8,41.9h-0.7v-4.3h0.7V41.9z"/>
			<path class="st61" d="M66.9,39.9c0,0.4-0.1,0.8-0.2,1.1c-0.1,0.3-0.4,0.6-0.6,0.7c-0.3,0.2-0.6,0.3-0.9,0.3
				c-0.3,0-0.7-0.1-0.9-0.3c-0.3-0.2-0.5-0.4-0.6-0.7s-0.2-0.7-0.2-1.1v-0.2c0-0.4,0.1-0.8,0.2-1.1s0.4-0.6,0.6-0.7
				c0.3-0.2,0.6-0.3,0.9-0.3s0.7,0.1,0.9,0.2c0.3,0.2,0.5,0.4,0.6,0.7c0.1,0.3,0.2,0.7,0.2,1.1V39.9z M66.1,39.6
				c0-0.5-0.1-0.8-0.3-1.1s-0.4-0.4-0.8-0.4c-0.3,0-0.6,0.1-0.8,0.4s-0.3,0.6-0.3,1.1v0.2c0,0.5,0.1,0.8,0.3,1.1s0.4,0.4,0.8,0.4
				c0.3,0,0.6-0.1,0.8-0.4s0.3-0.6,0.3-1.1V39.6z"/>
			<path class="st61" d="M71.7,41.9H71l-1.9-3v3h-0.7v-4.3H69l1.9,3v-3h0.7V41.9z"/>
		</g>
		<g class="st25">
			<path class="st61" d="M39.5,55.8h-1.1v-5.1l-1.6,0.5v-0.9l2.5-0.9h0.1V55.8z"/>
			<path class="st61" d="M46.2,52.4l1.5-3h1.2l-2.1,4v2.4h-1.1v-2.4l-2.1-4h1.2L46.2,52.4z"/>
			<path class="st61" d="M53.4,52.9h-2.6v2h3.1v0.9h-4.2v-6.4h4.2v0.9h-3v1.8h2.6V52.9z"/>
			<path class="st61" d="M58.3,54.3h-2.5l-0.5,1.5h-1.2l2.4-6.4h1l2.4,6.4h-1.2L58.3,54.3z M56.1,53.4H58L57,50.7L56.1,53.4z"/>
			<path class="st61" d="M63,53.3h-1.2v2.5h-1.1v-6.4h2.2c0.7,0,1.3,0.2,1.7,0.5s0.6,0.8,0.6,1.4c0,0.4-0.1,0.8-0.3,1.1
				c-0.2,0.3-0.5,0.5-0.9,0.7l1.4,2.7v0.1h-1.2L63,53.3z M61.8,52.4H63c0.4,0,0.7-0.1,0.9-0.3c0.2-0.2,0.3-0.4,0.3-0.8
				c0-0.3-0.1-0.6-0.3-0.8c-0.2-0.2-0.5-0.3-0.9-0.3h-1.2V52.4z"/>
		</g>
		<g class="st25">
			<defs>
				<rect id="SVGID_00000084490575533789691990000015477772442383641514_" x="13.6" y="1.5" width="74.5" height="74.6"/>
			</defs>
			<clipPath id="SVGID_00000000941333542715135020000006620450462477104547_">
				<use xlink:href="#SVGID_00000084490575533789691990000015477772442383641514_"  style="overflow:visible;"/>
			</clipPath>
			<defs>
				
					<filter id="Adobe_OpacityMaskFilter_00000120549029460387559190000014363563554052363933_" filterUnits="userSpaceOnUse" x="27.7" y="38.2" width="46.4" height="8.8">
					<feFlood  style="flood-color:white;flood-opacity:1" result="back"/>
					<feBlend  in="SourceGraphic" in2="back" mode="normal"/>
				</filter>
			</defs>
			
				<mask maskUnits="userSpaceOnUse" x="27.7" y="38.2" width="46.4" height="8.8" id="SVGID_00000077315842853677600690000010875970912573680779_">
				<g style="filter:url(#Adobe_OpacityMaskFilter_00000120549029460387559190000014363563554052363933_);">
					
						<linearGradient id="SVGID_00000059304967828357354990000003619213619859374257_" gradientUnits="userSpaceOnUse" x1="-129.7057" y1="439.8477" x2="-128.7057" y2="439.8477" gradientTransform="matrix(46.3855 0 0 -46.3855 6044.1733 20441.3789)">
						<stop  offset="0" style="stop-color:#FFFFFF"/>
						<stop  offset="1" style="stop-color:#FFFFFF"/>
					</linearGradient>
					
						<rect x="13.6" y="1.5" style="clip-path:url(#SVGID_00000000941333542715135020000006620450462477104547_);fill:url(#SVGID_00000059304967828357354990000003619213619859374257_);" width="74.5" height="74.6"/>
				</g>
			</mask>
			
				<g style="clip-path:url(#SVGID_00000000941333542715135020000006620450462477104547_);mask:url(#SVGID_00000077315842853677600690000010875970912573680779_);">
				<g>
					<defs>
						<rect id="SVGID_00000071558042404165388230000006792061490898294951_" x="27.7" y="38.2" width="46.4" height="8.8"/>
					</defs>
					<clipPath id="SVGID_00000008118672870232551650000010868335157296880008_">
						<use xlink:href="#SVGID_00000071558042404165388230000006792061490898294951_"  style="overflow:visible;"/>
					</clipPath>
					
						<line style="clip-path:url(#SVGID_00000008118672870232551650000010868335157296880008_);fill:none;stroke:#006396;stroke-width:0.771;stroke-linecap:round;" x1="37.1" y1="45.5" x2="64.7" y2="45.5"/>
				</g>
			</g>
		</g>
		<g class="st25">
			<defs>
				<path id="SVGID_00000042728207067368800030000011799998567091059882_" d="M50.9,1.5c-9.5,0-19.1,3.6-26.3,10.9
					C10,27,10,50.6,24.5,65.2c14.6,14.6,38.2,14.6,52.7,0C91.3,51.1,91.8,28.6,78.7,14l3.1-3.1l-5.4,0.7l-4.2,0.6l-0.5,4.1L71,21.8
					l3.1-3.1c10.5,12.1,10.1,30.4-1.5,41.9c-12,12-31.4,12-43.5,0c-12-12-12-31.4,0-43.5C40.2,6,57.7,5.1,69.8,14.6v-4.3l4.8-0.3
					C67.7,4.3,59.3,1.5,50.9,1.5L50.9,1.5z"/>
			</defs>
			<clipPath id="SVGID_00000131360284449033422980000015243023388212997302_">
				<use xlink:href="#SVGID_00000042728207067368800030000011799998567091059882_"  style="overflow:visible;"/>
			</clipPath>
		</g>
		
			<linearGradient id="SVGID_00000079482542304659556430000015215097272784313237_" gradientUnits="userSpaceOnUse" x1="220.0051" y1="-8.3564" x2="206.3703" y2="-85.6831" gradientTransform="matrix(-0.7071 -0.7071 -0.7071 0.7071 170.0458 221.6699)">
			<stop  offset="0.2149" style="stop-color:#004E9A"/>
			<stop  offset="0.8659" style="stop-color:#0C74BA"/>
		</linearGradient>
		<path style="display:inline;fill:url(#SVGID_00000079482542304659556430000015215097272784313237_);" d="M24.5,65.1
			c14.6,14.6,38.2,14.6,52.7,0C91.3,51,91.7,28.6,78.7,13.9l3-3l0,0l-5.4,0.7l-4.2,0.5l-0.5,4l-0.7,5.5l0,0l3.1-3.1
			c10.5,12.1,10,30.4-1.4,41.9c-12,12-31.4,12-43.4,0s-12-31.4,0-43.4C40.3,5.9,57.7,5.1,69.8,14.5v-4.2l4.8-0.3
			C60-2.1,38.3-1.3,24.6,12.4C9.9,26.9,9.9,50.5,24.5,65.1L24.5,65.1z"/>
	</g>
	<g class="st24">
		<g class="st25">
			<defs>
				<rect id="SVGID_00000163751095300522635250000012946194847884691877_" x="17.8" y="16" width="66.3" height="60.2"/>
			</defs>
			<clipPath id="SVGID_00000159437159396759080370000006184096894924260242_">
				<use xlink:href="#SVGID_00000163751095300522635250000012946194847884691877_"  style="overflow:visible;"/>
			</clipPath>
			
				<path style="clip-path:url(#SVGID_00000159437159396759080370000006184096894924260242_);fill:none;stroke:#99C3E2;stroke-width:1.683;stroke-miterlimit:10;" d="
				M77.8,56.8c0,1.6-1.3,2.8-2.8,2.8c-1.5,0-2.8-1.3-2.8-2.8c0-1.6,1.3-2.8,2.8-2.8C76.5,54,77.8,55.2,77.8,56.8z M42.6,56.8
				c0,1.6-1.3,2.8-2.8,2.8c-1.5,0-2.8-1.3-2.8-2.8c0-1.6,1.3-2.8,2.8-2.8C41.3,54,42.6,55.2,42.6,56.8z M65.2,32.3l0.4-7.6l-7.1,4.5
				l-1-10.2l-7.8,9.8l-6.3-10.7l-3.1,11L31,25l1.8,10.9l-10.2-0.1l4.3,7.6l-7.4,2.6l5.7,4.5l-5.1,4.2l7.6,1.8"/>
			
				<path style="clip-path:url(#SVGID_00000159437159396759080370000006184096894924260242_);fill:none;stroke:#0073BA;stroke-width:2;stroke-miterlimit:10;" d="
				M77.8,46.7c0,0-7.9,1-20.4,1c-12.4,0-20.9-1-20.9-1 M70.4,69.5v4.4c0,0.7,0.6,1.3,1.3,1.3h5.8c0.7,0,1.3-0.6,1.3-1.3v-4.5
				 M35.8,69.5v4.4c0,0.7,0.6,1.3,1.3,1.3h5.8c0.7,0,1.3-0.6,1.3-1.3v-4.5 M83,61.1c0-3.2-0.2-6.6-0.3-7.5c-0.1-1.9-2.9-5.2-4.8-7
				c0,0-4.2-8.5-5-9.3c-0.5-0.5-1.7-1.3-6.1-1.8C64.3,35.1,61,35,57.6,35c-0.1,0-0.2,0-0.3,0C53.4,35,44,35.2,42,37.2
				c-0.9,0.9-5,9.3-5,9.3c-1.9,1.8-4.7,5.1-4.9,7c-0.1,0.9-0.2,4.3-0.3,7.5c0,1.8,0,3.4,0.1,4.5c0.1,2,0.3,2.8,1,3.2
				c0.2,0.1,0.4,0.3,1.2,0.4l46.7,0c0.8-0.1,1.1-0.3,1.2-0.4C82.6,68.3,83.1,67.7,83,61.1z"/>
			
				<line style="clip-path:url(#SVGID_00000159437159396759080370000006184096894924260242_);fill:none;stroke:#0073BA;stroke-width:1.683;stroke-miterlimit:10;" x1="81.2" y1="45.4" x2="77.1" y2="45.4"/>
		</g>
		<line class="st60" x1="37.7" y1="45.4" x2="33.7" y2="45.4"/>
	</g>
	<g class="st24">
		<g class="st25">
			<defs>
				<rect id="SVGID_00000155127109313470128610000005992013522690795412_" x="13.9" y="0.7" width="73.9" height="75.4"/>
			</defs>
			<clipPath id="SVGID_00000076568108501145736960000017575760613611203248_">
				<use xlink:href="#SVGID_00000155127109313470128610000005992013522690795412_"  style="overflow:visible;"/>
			</clipPath>
			<path style="clip-path:url(#SVGID_00000076568108501145736960000017575760613611203248_);fill:#FFFFFF;" d="M68.7,29.9
				c0,0-7.2,0.9-18.4,0.9s-18.9-0.9-18.9-0.9 M62.1,50.4v3.9c0,0.7,0.5,1.2,1.2,1.2h5.2c0.7,0,1.2-0.5,1.2-1.2v-4 M30.7,50.4v3.9
				c0,0.7,0.5,1.2,1.2,1.2h5.2c0.7,0,1.2-0.5,1.2-1.2v-4 M73.5,42.8c0-2.9-0.2-5.9-0.2-6.7v0c-0.1-1.7-2.6-4.7-4.4-6.3
				c0,0-3.8-7.6-4.6-8.4c-0.5-0.5-1.6-1.2-5.5-1.6c-2.3-0.3-5.2-0.4-8.3-0.4c-0.1,0-0.2,0-0.3,0c-3.6,0-12.1,0.2-13.9,2.1
				c-0.8,0.8-4.5,8.3-4.5,8.3c-1.7,1.6-4.3,4.6-4.4,6.3c-0.1,0.8-0.2,3.9-0.2,6.7c0,1.7,0,3,0.1,4c0.1,1.8,0.3,2.5,0.9,2.9
				c0.1,0.1,0.3,0.2,1.1,0.3l42.2,0c0.7-0.1,1-0.2,1.1-0.3C73.1,49.3,73.5,48.7,73.5,42.8"/>
			
				<path style="clip-path:url(#SVGID_00000076568108501145736960000017575760613611203248_);fill:none;stroke:#0073BA;stroke-width:2;stroke-miterlimit:10;" d="
				M68.7,29.9c0,0-7.2,0.9-18.4,0.9s-18.9-0.9-18.9-0.9 M62.1,50.4v3.9c0,0.7,0.5,1.2,1.2,1.2h5.2c0.7,0,1.2-0.5,1.2-1.2v-4
				 M30.7,50.4v3.9c0,0.7,0.5,1.2,1.2,1.2h5.2c0.7,0,1.2-0.5,1.2-1.2v-4 M73.5,42.8c0-2.9-0.2-5.9-0.2-6.7v0
				c-0.1-1.7-2.6-4.7-4.4-6.3c0,0-3.8-7.6-4.6-8.4c-0.5-0.5-1.6-1.2-5.5-1.6c-2.3-0.3-5.2-0.4-8.3-0.4c-0.1,0-0.2,0-0.3,0
				c-3.6,0-12.1,0.2-13.9,2.1c-0.8,0.8-4.5,8.3-4.5,8.3c-1.7,1.6-4.3,4.6-4.4,6.3c-0.1,0.8-0.2,3.9-0.2,6.7c0,1.7,0,3,0.1,4
				c0.1,1.8,0.3,2.5,0.9,2.9c0.1,0.1,0.3,0.2,1.1,0.3l42.2,0c0.7-0.1,1-0.2,1.1-0.3C73.1,49.3,73.5,48.7,73.5,42.8z"/>
			
				<path style="clip-path:url(#SVGID_00000076568108501145736960000017575760613611203248_);fill:none;stroke:#98C3E4;stroke-width:1.683;stroke-miterlimit:10;" d="
				M69.4,38.9c0,1.3-1.1,2.4-2.5,2.4c-1.4,0-2.5-1.1-2.5-2.4s1.1-2.4,2.5-2.4C68.3,36.5,69.4,37.6,69.4,38.9z M37.4,38.9
				c0,1.3-1.1,2.4-2.5,2.4s-2.5-1.1-2.5-2.4s1.1-2.4,2.5-2.4S37.4,37.6,37.4,38.9z"/>
		</g>
		<line class="st60" x1="73" y1="28.7" x2="69.3" y2="28.7"/>
		<line class="st60" x1="31.2" y1="28.7" x2="27.5" y2="28.7"/>
		<g class="st25">
			<defs>
				<rect id="SVGID_00000057848050460208878270000015156178055281444770_" x="13.9" y="0.7" width="73.9" height="75.4"/>
			</defs>
			<clipPath id="SVGID_00000070098422548487895230000014383251519424732083_">
				<use xlink:href="#SVGID_00000057848050460208878270000015156178055281444770_"  style="overflow:visible;"/>
			</clipPath>
			<path style="clip-path:url(#SVGID_00000070098422548487895230000014383251519424732083_);fill:#98C3E4;" d="M71.3,69.7
				c-14.5,9.5-33.8,7.3-46-5.1C13.4,52.5,11,33.9,19.3,19.1c-0.3-0.2-0.7-0.5-1-0.7c-0.1-0.1-0.2-0.2-0.2-0.4c0-0.1,0.1-0.3,0.2-0.4
				l5.9-4.2c0.2-0.1,0.4-0.1,0.5,0c0.2,0.1,0.2,0.3,0.2,0.5L23.2,21c0,0.1-0.1,0.3-0.3,0.3c-0.1,0.1-0.3,0-0.4,0
				c-0.4-0.3-0.7-0.5-1.1-0.8C13.7,34.3,16,51.6,27,62.9c11.4,11.6,28.9,13.7,42.7,5c0.2-0.1,0.4-0.1,0.6,0.1l1.1,1.1
				c0.1,0.1,0.1,0.2,0.1,0.4C71.5,69.6,71.4,69.7,71.3,69.7"/>
			
				<path style="clip-path:url(#SVGID_00000070098422548487895230000014383251519424732083_);fill:none;stroke:#98C3E3;stroke-width:0.75;stroke-linejoin:round;stroke-miterlimit:10;" d="
				M71.3,69.7c-14.5,9.5-33.8,7.3-46-5.1C13.4,52.5,11,33.9,19.3,19.1c-0.3-0.2-0.7-0.5-1-0.7c-0.1-0.1-0.2-0.2-0.2-0.4
				c0-0.1,0.1-0.3,0.2-0.4l5.9-4.2c0.2-0.1,0.4-0.1,0.5,0c0.2,0.1,0.2,0.3,0.2,0.5L23.2,21c0,0.1-0.1,0.3-0.3,0.3
				c-0.1,0.1-0.3,0-0.4,0c-0.4-0.3-0.7-0.5-1.1-0.8C13.7,34.3,16,51.6,27,62.9c11.4,11.6,28.9,13.7,42.7,5c0.2-0.1,0.4-0.1,0.6,0.1
				l1.1,1.1c0.1,0.1,0.1,0.2,0.1,0.4C71.5,69.6,71.4,69.7,71.3,69.7z"/>
			<path style="clip-path:url(#SVGID_00000070098422548487895230000014383251519424732083_);fill:#98C3E4;" d="M30.4,7
				c14.5-9.5,33.9-7.4,46.1,5.1c11.8,12.1,14.3,30.7,5.9,45.5c0.3,0.2,0.6,0.4,0.9,0.6c0.1,0.1,0.2,0.2,0.2,0.4
				c0,0.2-0.1,0.3-0.2,0.4l-5.9,4.3c-0.2,0.1-0.4,0.1-0.5,0c-0.2-0.1-0.2-0.3-0.2-0.5l1.7-7.1c0-0.1,0.1-0.3,0.3-0.3
				c0.1-0.1,0.3,0,0.4,0c0.4,0.2,0.7,0.5,1.1,0.8c7.6-13.8,5.3-31.2-5.6-42.3C63.5,2.5,45.6,0.4,32.1,8.9c-0.2,0.1-0.4,0.1-0.6-0.1
				l-1.2-1.1c-0.1-0.1-0.2-0.2-0.1-0.4C30.2,7.3,30.3,7.1,30.4,7"/>
			
				<path style="clip-path:url(#SVGID_00000070098422548487895230000014383251519424732083_);fill:none;stroke:#98C3E3;stroke-width:0.75;stroke-linejoin:round;stroke-miterlimit:10;" d="
				M30.4,7c14.5-9.5,33.9-7.4,46.1,5.1c11.8,12.1,14.3,30.7,5.9,45.5c0.3,0.2,0.6,0.4,0.9,0.6c0.1,0.1,0.2,0.2,0.2,0.4
				c0,0.2-0.1,0.3-0.2,0.4l-5.9,4.3c-0.2,0.1-0.4,0.1-0.5,0c-0.2-0.1-0.2-0.3-0.2-0.5l1.7-7.1c0-0.1,0.1-0.3,0.3-0.3
				c0.1-0.1,0.3,0,0.4,0c0.4,0.2,0.7,0.5,1.1,0.8c7.6-13.8,5.3-31.2-5.6-42.3C63.5,2.5,45.6,0.4,32.1,8.9c-0.2,0.1-0.4,0.1-0.6-0.1
				l-1.2-1.1c-0.1-0.1-0.2-0.2-0.1-0.4C30.2,7.3,30.3,7.1,30.4,7z"/>
		</g>
	</g>
	<g class="st24">
		<g class="st25">
			<defs>
				<rect id="SVGID_00000050651354117565888970000014104327931726778554_" x="20.9" y="0.7" width="60" height="76.3"/>
			</defs>
			<clipPath id="SVGID_00000120533057269699725740000004024230731246024860_">
				<use xlink:href="#SVGID_00000050651354117565888970000014104327931726778554_"  style="overflow:visible;"/>
			</clipPath>
			<path style="clip-path:url(#SVGID_00000120533057269699725740000004024230731246024860_);fill:#0073BA;" d="M74.1,52.7L60.7,69
				v-6.4c0-5.4,4.4-9.9,9.8-9.9H74.1z M25.4,62.6V15.1c0-5.4,4.4-9.9,9.8-9.9h31.3c5.4,0,9.8,4.4,9.8,9.9v33.6h-5.9
				c-7.6,0-13.7,6.2-13.7,13.8v9.9H35.2C29.8,72.4,25.4,68,25.4,62.6 M80.3,15.1c0-7.6-6.1-13.8-13.7-13.8H35.2
				c-7.6,0-13.7,6.2-13.7,13.8v47.4c0,7.6,6.1,13.8,13.7,13.8h23.5c0.6,0,1.1-0.3,1.5-0.7L79.8,52c0.3-0.4,0.5-0.8,0.5-1.3V15.1z"/>
			<path style="clip-path:url(#SVGID_00000120533057269699725740000004024230731246024860_);fill:none;" d="M74.1,52.7L60.7,69v-6.4
				c0-5.4,4.4-9.9,9.8-9.9H74.1z M25.4,62.6V15.1c0-5.4,4.4-9.9,9.8-9.9h31.3c5.4,0,9.8,4.4,9.8,9.9v33.6h-5.9
				c-7.6,0-13.7,6.2-13.7,13.8v9.9H35.2C29.8,72.4,25.4,68,25.4,62.6 M80.3,15.1c0-7.6-6.1-13.8-13.7-13.8H35.2
				c-7.6,0-13.7,6.2-13.7,13.8v47.4c0,7.6,6.1,13.8,13.7,13.8h23.5c0.6,0,1.1-0.3,1.5-0.7L79.8,52c0.3-0.4,0.5-0.8,0.5-1.3V15.1z"/>
		</g>
		<path class="st77" d="M31.3,60.6h19.6v-4H31.3V60.6z M31.3,52.7h19.6v-4H31.3V52.7z M50.9,17.1H31.3v4h19.6V17.1z M31.3,29h39.2
			v-4H31.3V29z M31.3,36.9h39.2v-4H31.3V36.9z M31.3,44.8h39.2v-4H31.3V44.8z"/>
	</g>
	<g class="st24">
		<defs>
			<rect id="SVGID_00000036934641570537761140000008513562374616572303_" x="13.9" y="21" width="74.1" height="55.4"/>
		</defs>
		<clipPath id="SVGID_00000180340842945233452630000013349247868186797977_" class="st25">
			<use xlink:href="#SVGID_00000036934641570537761140000008513562374616572303_"  style="overflow:visible;"/>
		</clipPath>
		<path style="display:inline;clip-path:url(#SVGID_00000180340842945233452630000013349247868186797977_);fill:#0073BA;" d="
			M15.9,74.4h70V32.3h-70V74.4z M86.9,76.5h-72c-0.6,0-1-0.5-1-1V31.3c0-0.6,0.5-1,1-1h72c0.6,0,1,0.5,1,1v44.1
			C87.9,76,87.5,76.5,86.9,76.5"/>
		<path style="display:inline;clip-path:url(#SVGID_00000180340842945233452630000013349247868186797977_);fill:#0073BA;" d="
			M25.4,30h10.4V23H25.4V30z M36.9,32H24.4c-0.6,0-1-0.4-1-1v-9c0-0.5,0.5-1,1-1h12.5c0.6,0,1,0.4,1,1v9C37.9,31.5,37.4,32,36.9,32"
			/>
		<path style="display:inline;clip-path:url(#SVGID_00000180340842945233452630000013349247868186797977_);fill:#0073BA;" d="M66,30
			h10.4V23H66V30z M77.4,32H64.9c-0.6,0-1-0.4-1-1v-9c0-0.5,0.5-1,1-1h12.5c0.6,0,1,0.4,1,1v9C78.4,31.5,78,32,77.4,32"/>
		<path style="display:inline;clip-path:url(#SVGID_00000180340842945233452630000013349247868186797977_);fill:#97C3E6;" d="
			M38.5,49.1H22.7c-0.6,0-1,0.5-1,1.2s0.5,1.2,1,1.2h15.8c0.6,0,1-0.5,1-1.2S39.1,49.1,38.5,49.1"/>
		
			<path style="display:inline;clip-path:url(#SVGID_00000180340842945233452630000013349247868186797977_);fill:none;stroke:#97C3E6;stroke-width:1.147;stroke-linecap:round;stroke-miterlimit:10;" d="
			M38.5,49.1H22.7c-0.6,0-1,0.5-1,1.2s0.5,1.2,1,1.2h15.8c0.6,0,1-0.5,1-1.2S39.1,49.1,38.5,49.1"/>
		<path style="display:inline;clip-path:url(#SVGID_00000180340842945233452630000013349247868186797977_);fill:#97C3E6;" d="
			M71.2,41.2c-0.6,0-1,0.5-1,1v6.9h-6.9c-0.6,0-1,0.5-1,1c0,0.6,0.5,1,1,1h6.9v6.9c0,0.6,0.5,1,1,1s1-0.5,1-1v-6.9h6.9
			c0.6,0,1-0.5,1-1c0-0.6-0.5-1-1-1h-6.9v-6.9C72.2,41.7,71.7,41.2,71.2,41.2"/>
		
			<path style="display:inline;clip-path:url(#SVGID_00000180340842945233452630000013349247868186797977_);fill:none;stroke:#97C3E6;stroke-width:1.147;stroke-linecap:round;stroke-miterlimit:10;" d="
			M71.2,41.2c-0.6,0-1,0.5-1,1v6.9h-6.9c-0.6,0-1,0.5-1,1c0,0.6,0.5,1,1,1h6.9v6.9c0,0.6,0.5,1,1,1s1-0.5,1-1v-6.9h6.9
			c0.6,0,1-0.5,1-1c0-0.6-0.5-1-1-1h-6.9v-6.9C72.2,41.7,71.7,41.2,71.2,41.2"/>
	</g>
	<g class="st24">
		<defs>
			<rect id="SVGID_00000085216151089836135720000007435578852699823531_" x="22.2" y="0" width="51.8" height="77.7"/>
		</defs>
		<clipPath id="SVGID_00000154388131062749629860000011009421122946872499_" class="st25">
			<use xlink:href="#SVGID_00000085216151089836135720000007435578852699823531_"  style="overflow:visible;"/>
		</clipPath>
		<path style="display:inline;clip-path:url(#SVGID_00000154388131062749629860000011009421122946872499_);fill:#0073BA;" d="
			M63.9,74.8V67h7.3C70.4,70.6,67,74,63.9,74.8 M72.4,5.6l-3.3,4l-1.2,1.6c1.1,0.3,2,1.4,2,2.6v50.4h-8.7v8.5H29.1
			c-1.5,0-2.7-1.2-2.7-2.7V13.8c0-1.5,1.2-2.7,2.7-2.7h15.4h5.8h2.7c0,0,4.6-5.5,5.1-5.8h-6.1h-9.5h-17c-1.8,0-3.2,1.5-3.2,3.2v65.9
			c0,1.8,1.4,3.2,3.2,3.2h35.8H62h0.6c5,0,11.5-5.9,11.5-12.1v-0.2v-1.2V8.6C74,7.2,73.2,6.1,72.4,5.6"/>
	</g>
	<path class="st82" d="M65.5,44.4H30.7v-3.2h34.8V44.4z M65.5,53.4H30.7v-3.2h34.8V53.4z M65.5,61.3H30.7v-3.2h34.8V61.3z"/>
	<g class="st24">
		<defs>
			<rect id="SVGID_00000088134657281156178970000001539995647862533556_" x="22.2" y="0" width="51.8" height="77.7"/>
		</defs>
		<clipPath id="SVGID_00000126311408992667072740000015226819915136014220_" class="st25">
			<use xlink:href="#SVGID_00000088134657281156178970000001539995647862533556_"  style="overflow:visible;"/>
		</clipPath>
		<path style="display:inline;clip-path:url(#SVGID_00000126311408992667072740000015226819915136014220_);fill:#97C3E6;" d="
			M58.5,9.3l0.8-1.2l4.1-5C65.2,1,69.3,0,72,0l0.4,0.8l-4.7,5.6l-10.5,14L50,31.7l-1.8,3.1c-0.3,0.5-0.6,1.1-1.1,1.4
			c-0.7,0.3-2.2,0.3-2.9,0.3c-1.6,0-2,0-2.3-0.3c-0.5-0.4-0.8-1.1-1.1-1.8c-1.1-2.3-3.1-7.4-3.1-10c0-0.9,0.5-1.3,1.2-1.7
			c1.1-0.8,2.6-1.6,3.9-1.6c1,0,1.1,0.9,1.4,1.7l1,2.4c0.2,0.4,0.6,1.8,1.2,1.8c0.5,0,1.1-1.2,1.3-1.5L58.5,9.3z"/>
	</g>
	<g class="st24">
		<defs>
			<rect id="SVGID_00000018953393365567378110000002301254992914150540_" x="13.4" y="0.2" width="75.1" height="77.5"/>
		</defs>
		<clipPath id="SVGID_00000080206846956867597250000003905121140643306145_" class="st25">
			<use xlink:href="#SVGID_00000018953393365567378110000002301254992914150540_"  style="overflow:visible;"/>
		</clipPath>
		<path style="display:inline;clip-path:url(#SVGID_00000080206846956867597250000003905121140643306145_);fill:#0073BA;" d="
			M50.7,34.5l25.6,28.7l0.2,0.2c0.1,0.1,0.6,0.5,1.5,1c0.9,0.5,2.1,1,3.7,1c1.5,0,3.3-0.6,4.7-2l0.1-0.1c0.1-0.1,0.5-0.6,0.9-1.4
			c0.4-0.8,0.9-2,0.9-3.5c0-1.5-0.6-3.2-1.9-4.6l-0.1-0.1L58,27.4c-0.9-0.8-2.2-0.7-3,0.1c-0.8,0.9-0.7,2.2,0.1,3l28.4,26.2l1.4-1.6
			l-1.5,1.5c0.6,0.7,0.7,1.1,0.7,1.6c0,0.5-0.2,1.1-0.4,1.5c-0.1,0.2-0.2,0.4-0.3,0.5l-0.1,0.1l0,0l0.7,0.6l-0.7-0.6l0,0l0.7,0.6
			l-0.7-0.6l1.6,1.4l-1.5-1.5c-0.8,0.7-1.2,0.8-1.8,0.8c-0.5,0-1.2-0.2-1.7-0.5c-0.2-0.1-0.4-0.3-0.6-0.4l-0.1-0.1l0,0l-0.5,0.6
			l0.6-0.6l0,0l-0.5,0.6l0.6-0.6l-1.4,1.6l1.6-1.4L53.9,31.7c-0.8-0.9-2.1-1-3-0.2C50,32.3,50,33.6,50.7,34.5L50.7,34.5z"/>
		<path style="display:inline;clip-path:url(#SVGID_00000080206846956867597250000003905121140643306145_);fill:#98C3E4;" d="
			M24.1,67.3c0.1-1.2,0.6-2.1,1.5-2.8c0.8-0.7,1.9-1.2,3.2-1.2h0l10.9,0l0.2,0l-0.1-1.8v1.8l0.1,0l-0.1-1.8v1.8
			c2.4,0,4.4,1.8,4.7,4.1c0.2,1.2,1.2,2,2.4,1.8c1.2-0.2,2-1.2,1.8-2.4c-0.6-4.4-4.4-7.7-8.9-7.7l-0.2,0l0.2,2.1l0-2.1l-10.9,0
			c-2.3,0-4.4,0.8-6,2.2c-1.6,1.4-2.7,3.4-2.9,5.7c-0.1,1.2,0.7,2.2,1.9,2.3C22.9,69.4,23.9,68.5,24.1,67.3L24.1,67.3z"/>
		<path style="display:inline;clip-path:url(#SVGID_00000080206846956867597250000003905121140643306145_);fill:#98C3E4;" d="
			M51.1,75.5l0-2.1l-33.5,0.1h0l0,0v0l0,0l0,0v0l0,0l0,0l0,0h0l0,0l0,0h0l0-2.4v0h0v0l0,0h0v0h0L51.1,71l0.4,0l-0.4-2V71
			c0.3,0,0.4,0,0.4,0l-0.4-2V71v0l0,0l0,0v0l0,0l0,2.4v0h0v0l0,0h0v0h0L51.1,75.5l0,2.1c2.3,0,4.2-1.9,4.2-4.2v0l0-2.4
			c0-2.3-1.9-4.2-4.2-4.2c-0.3,0-0.4,0-0.4,0l0.4,2.1l0-2.1l-33.5,0.1h0c-2.3,0-4.2,1.9-4.2,4.2v0l0,2.4c0,2.3,1.9,4.2,4.2,4.2l0,0
			h0l33.5-0.1h0L51.1,75.5z"/>
		<path style="display:inline;clip-path:url(#SVGID_00000080206846956867597250000003905121140643306145_);fill:#0073BA;" d="
			M47.4,6.8L30.6,23.2c-0.8,0.8-0.9,2.2,0,3c0.8,0.8,2.2,0.9,3,0L50.4,9.8c0.8-0.8,0.9-2.2,0-3C49.6,6,48.3,6,47.4,6.8"/>
		<path style="display:inline;clip-path:url(#SVGID_00000080206846956867597250000003905121140643306145_);fill:#0073BA;" d="
			M61.5,21.2L44.7,37.6c-0.8,0.8-0.9,2.2,0,3c0.8,0.8,2.2,0.9,3,0l16.8-16.4c0.8-0.8,0.9-2.2,0-3C63.7,20.4,62.3,20.4,61.5,21.2"/>
		<path style="display:inline;clip-path:url(#SVGID_00000080206846956867597250000003905121140643306145_);fill:#0073BA;" d="
			M47.5,43.1L46,41.6l-1.5,1.5l0,0l0.2,0.2V43l-0.2,0.1l0.2,0.2V43v0.2l0.2-0.2L44.6,43v0.2l0.2-0.2l0,0L28.1,26h0l-0.2,0.2h0.2
			L28.1,26l-0.2,0.2h0.2h-0.2l0.2,0.2l0.1-0.2h-0.2l0.2,0.2l0,0l1.5-1.5l0,0l-0.2-0.2v0.2l0.2-0.1l-0.2-0.2v0.2v-0.2l-0.2,0.2
			l0.2,0.1v-0.2l-0.2,0.2L46,41.9l0.2-0.2l-0.2,0l0.1,0.2l0.2-0.2l-0.2,0h0.2L46,41.6l-0.1,0.2h0.2L46,41.6l0,0L47.5,43.1l1.5,1.5
			c0.8-0.8,1.2-1.8,1.2-2.9c0-1-0.4-2-1.1-2.8L32.3,21.9c-0.8-0.8-1.8-1.2-2.9-1.2c-1,0-2,0.4-2.8,1.1l0,0l-1.5,1.5l0,0
			c-0.8,0.8-1.2,1.8-1.2,2.9c0,1,0.4,2,1.1,2.8L41.7,46l0,0c0.8,0.8,1.8,1.2,2.9,1.2c1,0,2-0.4,2.8-1.1l0,0l1.5-1.5l0,0L47.5,43.1z"
			/>
		<path style="display:inline;clip-path:url(#SVGID_00000080206846956867597250000003905121140643306145_);fill:#0073BA;" d="
			M68.5,22.6L67,21.1l-1.5,1.5l0,0l0.2,0.2v-0.2l-0.2,0.1l0.2,0.2v-0.2v0.2l0.2-0.2l-0.2-0.1v0.2l0.2-0.2l0,0L49.1,5.5v0L49,5.7h0.2
			l-0.1-0.2L49,5.7h0.2H49l0.2,0.2l0.1-0.2H49l0.2,0.2l0,0l1.5-1.5l0,0l-0.2-0.2v0.2l0.2-0.1l-0.2-0.2v0.2V4.2l-0.2,0.2l0.2,0.1V4.2
			l-0.2,0.2l0,0L67,21.4l0,0l0.2-0.2h-0.2l0.1,0.2l0.2-0.2h-0.2h0.2L67,21.1l-0.1,0.2h0.2L67,21.1L68.5,22.6l1.5,1.5
			c0.8-0.8,1.2-1.8,1.2-2.9c0-1-0.4-2-1.1-2.8l0,0L53.3,1.4l0,0c-0.8-0.8-1.8-1.2-2.9-1.2c-1,0-2,0.4-2.8,1.1l0,0l-1.5,1.5l0,0
			c-0.8,0.8-1.2,1.8-1.2,2.9c0,1,0.4,2,1.1,2.8l0,0l16.7,17.1l0,0c0.8,0.8,1.8,1.2,2.9,1.2c1,0,2-0.4,2.8-1.1l0,0l1.5-1.5L68.5,22.6
			z"/>
	</g>
	<g class="st24">
		<defs>
			<rect id="SVGID_00000049197901776080831230000015936480171971629195_" x="25.7" y="-4.3" width="50.5" height="82"/>
		</defs>
		<clipPath id="SVGID_00000093883974709663514280000000387788370151617194_" class="st25">
			<use xlink:href="#SVGID_00000049197901776080831230000015936480171971629195_"  style="overflow:visible;"/>
		</clipPath>
		<defs>
			
				<filter id="Adobe_OpacityMaskFilter_00000058566833642685694220000018367770914986256778_" filterUnits="userSpaceOnUse" x="25.7" y="-1" width="61.8" height="78.6">
				<feFlood  style="flood-color:white;flood-opacity:1" result="back"/>
				<feBlend  in="SourceGraphic" in2="back" mode="normal"/>
			</filter>
		</defs>
		
			<mask maskUnits="userSpaceOnUse" x="25.7" y="-1" width="61.8" height="78.6" id="SVGID_00000169558990589089154650000014477556816490116750_" class="st25">
			<g style="filter:url(#Adobe_OpacityMaskFilter_00000058566833642685694220000018367770914986256778_);">
				
					<linearGradient id="SVGID_00000132795664909098649390000012771912667836545215_" gradientUnits="userSpaceOnUse" x1="119.5507" y1="69.8962" x2="120.8128" y2="69.8962" gradientTransform="matrix(36 0 0 -36 -4261.7676 2552.928)">
					<stop  offset="0" style="stop-color:#FFFFFF"/>
					<stop  offset="1" style="stop-color:#FFFFFF"/>
				</linearGradient>
				
					<rect x="25.7" y="-4.3" style="clip-path:url(#SVGID_00000093883974709663514280000000387788370151617194_);fill:url(#SVGID_00000132795664909098649390000012771912667836545215_);" width="50.5" height="82"/>
			</g>
		</mask>
		
			<g style="display:inline;clip-path:url(#SVGID_00000093883974709663514280000000387788370151617194_);mask:url(#SVGID_00000169558990589089154650000014477556816490116750_);">
			<g>
				<defs>
					<rect id="SVGID_00000059274099187444698380000003270165946354023826_" x="42.1" y="-1" width="45.4" height="31.8"/>
				</defs>
				<clipPath id="SVGID_00000074417692123493709080000009663635927487015097_">
					<use xlink:href="#SVGID_00000059274099187444698380000003270165946354023826_"  style="overflow:visible;"/>
				</clipPath>
				<polygon style="clip-path:url(#SVGID_00000074417692123493709080000009663635927487015097_);fill:#FFFFFF;" points="53.4,7.9 
					53.4,7.9 53.4,29.6 76.1,29.6 76.1,7.9 				"/>
				<g style="clip-path:url(#SVGID_00000074417692123493709080000009663635927487015097_);">
					<defs>
						<polygon id="SVGID_00000076589389336099288510000006464159071276502661_" points="53.4,7.9 53.4,7.9 53.4,29.6 76.1,29.6 
							76.1,7.9 						"/>
					</defs>
					<clipPath id="SVGID_00000150814641230815624350000016152225543191989418_">
						<use xlink:href="#SVGID_00000076589389336099288510000006464159071276502661_"  style="overflow:visible;"/>
					</clipPath>
					<path style="clip-path:url(#SVGID_00000150814641230815624350000016152225543191989418_);fill:#0073BA;" d="M35.5,74.8v-7.5
						h-7.1C29.1,70.8,32.5,74,35.5,74.8 M27.2,8.2l3.2,3.8l1.2,1.6c-1.1,0.3-1.9,1.3-1.9,2.5v48.6h8.5v8.2h31.3
						c1.4,0,2.6-1.2,2.6-2.6V16.1c0-1.4-1.2-2.6-2.6-2.6h-15h-5.6h-2.6c0,0-4.5-5.3-5-5.6h5.9h9.3H73c1.7,0,3.1,1.4,3.1,3.1v63.6
						c0,1.7-1.4,3.1-3.1,3.1H38.1h-0.7h-0.6c-4.9,0-11.2-5.7-11.2-11.7v-0.2v-1.1V11C25.7,9.7,26.4,8.6,27.2,8.2"/>
				</g>
			</g>
		</g>
		<path style="display:inline;clip-path:url(#SVGID_00000093883974709663514280000000387788370151617194_);fill:#0073BA;" d="
			M66.3,74.8v-7.5h7.1C72.6,70.8,69.3,74,66.3,74.8 M74.6,8.2L71.4,12l-1.2,1.6c1.1,0.3,1.9,1.3,1.9,2.5v48.6h-8.5v8.2H32.3
			c-1.4,0-2.6-1.2-2.6-2.6V16.1c0-1.4,1.2-2.6,2.6-2.6h15h5.6h2.6c0,0,4.5-5.3,5-5.6h-5.9h-9.3H28.8c-1.7,0-3.1,1.4-3.1,3.1v63.6
			c0,1.7,1.4,3.1,3.1,3.1h34.9h0.7H65c4.9,0,11.2-5.7,11.2-11.7v-0.2v-1.1V11C76.1,9.7,75.4,8.6,74.6,8.2"/>
	</g>
	<path class="st82" d="M67.9,45.5H33.9v-3.1h33.9V45.5z M67.9,54.2H33.9v-3.1h33.9V54.2z M67.9,61.8H33.9v-3.1h33.9V61.8z"/>
	<g class="st24">
		<defs>
			<rect id="SVGID_00000083783957717380094630000015790885718273999540_" x="25.7" y="-4.3" width="50.5" height="82"/>
		</defs>
		<clipPath id="SVGID_00000072998290396631416530000006189951034969721768_" class="st25">
			<use xlink:href="#SVGID_00000083783957717380094630000015790885718273999540_"  style="overflow:visible;"/>
		</clipPath>
		<path style="display:inline;clip-path:url(#SVGID_00000072998290396631416530000006189951034969721768_);fill:#FFFFFF;" d="
			M50.9,30.4c-3.8,0-6.9,1.9-6.9,4.3c0,2.4,3.1,4.3,6.9,4.3c3.8,0,6.9-1.9,6.9-4.3C57.8,32.3,54.7,30.4,50.9,30.4 M50.9,26
			c1.9,0,3.5-1.1,3.5-2.5l3.4-22.8c0-2.8-3.1-5.1-6.9-5.1c-3.8,0-6.9,2.3-6.9,5.1l3.4,22.8C47.4,24.9,49,26,50.9,26"/>
		<path style="display:inline;clip-path:url(#SVGID_00000072998290396631416530000006189951034969721768_);fill:#97C3E6;" d="
			M50.9,28.8c-2,0-3.7,1.6-3.7,3.6c0,2,1.6,3.6,3.7,3.6c2,0,3.7-1.6,3.7-3.6C54.6,30.4,53,28.8,50.9,28.8 M50.9,25.2
			c1,0,1.9-0.9,1.9-2.1l1.8-18.8c0-2.3-1.6-4.2-3.7-4.2c-2,0-3.7,1.9-3.7,4.2l1.8,18.8C49.1,24.3,49.9,25.2,50.9,25.2"/>
	</g>
	<g>
		<defs>
			<rect id="SVGID_00000021093259229715967350000008533303438036883883_" x="21.3" y="0.3" width="59.2" height="77.4"/>
		</defs>
		<clipPath id="SVGID_00000182517212972573975920000010542609200250745764_">
			<use xlink:href="#SVGID_00000021093259229715967350000008533303438036883883_"  style="overflow:visible;"/>
		</clipPath>
		<path style="clip-path:url(#SVGID_00000182517212972573975920000010542609200250745764_);fill:#0073BA;" d="M70.6,23.9
			c-5.4,0-9.9-4.4-9.9-9.8V7.7l13.5,16.2H70.6z M80,24.6L60.3,1c-0.4-0.4-0.9-0.7-1.5-0.7l-23.7,0c-7.6,0-13.8,6.2-13.8,13.8v47.2
			c0,7.2,5.6,13.2,12.8,13.7V71c-4.9-0.5-8.8-4.7-8.8-9.8V14.1c0-5.4,4.4-9.8,9.9-9.8h21.7v9.8c0,7.6,6.2,13.8,13.8,13.8h5.9l0,33.4
			c0,5.4-4.4,9.8-9.9,9.8h-20V75h20c7.6,0,13.8-6.2,13.8-13.8l0-35.4C80.5,25.4,80.3,24.9,80,24.6"/>
		<path style="clip-path:url(#SVGID_00000182517212972573975920000010542609200250745764_);fill:#0073BA;" d="M44.9,61.9
			c-1.5,2.5-4.8,3.3-7.3,1.8c-2.5-1.5-3.3-4.7-1.8-7.2c1.5-2.5,4.8-3.3,7.3-1.8C45.6,56.2,46.4,59.4,44.9,61.9 M49.6,57.7
			c0-0.1,0-0.2-0.1-0.3c0-0.1-0.1-0.2-0.1-0.3c-0.2-0.5-0.6-0.9-1-1.1c-0.1-0.1-0.2-0.1-0.3-0.2l0,0c-0.1-0.1-0.3-0.3-0.4-0.4
			c-0.1-0.1-0.2-0.3-0.3-0.4c-0.1-0.2-0.2-0.5-0.2-0.7c0-0.1,0-0.2,0-0.3l0,0c0-0.3-0.1-0.7-0.2-1c-0.1-0.2-0.2-0.5-0.4-0.7
			c-0.1-0.1-0.1-0.1-0.2-0.2c-0.1-0.1-0.1-0.1-0.2-0.2c0,0,0,0-0.1,0c0,0-0.1-0.1-0.1-0.1c0,0,0,0-0.1,0c-0.1,0-0.1,0-0.2-0.1
			c0,0,0,0-0.1,0c-0.1,0-0.1-0.1-0.2-0.1c0,0,0,0,0,0c-0.1,0-0.1,0-0.2,0c0,0,0,0-0.1,0c-0.1,0-0.1,0-0.2,0c0,0-0.1,0-0.1,0
			c-0.1,0-0.1,0-0.2,0c0,0,0,0-0.1,0c-0.1,0-0.2,0-0.2,0c-0.1,0-0.2,0-0.3,0c0,0,0,0,0,0c0,0,0,0,0,0l0,0c-0.1,0-0.2,0-0.3,0
			c-0.6-0.1-1.2-0.4-1.5-0.9l0,0c-0.1-0.1-0.2-0.2-0.3-0.3c-0.1-0.1-0.1-0.1-0.2-0.2c-0.1,0-0.1-0.1-0.2-0.1
			c-0.2-0.1-0.4-0.2-0.6-0.3c-0.2,0-0.3-0.1-0.5-0.1c-0.1,0-0.1,0-0.2,0c0,0-0.1,0-0.1,0c0,0-0.1,0-0.1,0c0,0-0.1,0-0.1,0
			c0,0-0.1,0-0.1,0c0,0-0.1,0-0.1,0c0,0-0.1,0-0.1,0.1c0,0-0.1,0-0.1,0c0,0-0.1,0-0.1,0.1c0,0-0.1,0-0.1,0c0,0-0.1,0.1-0.1,0.1
			c0,0-0.1,0-0.1,0.1c0,0-0.1,0.1-0.1,0.1c0,0,0,0-0.1,0.1c-0.1,0.1-0.1,0.1-0.2,0.2v0c0,0.1-0.1,0.1-0.2,0.2c0,0,0,0,0,0
			c0,0-0.1,0.1-0.2,0.1l0,0h0l0,0c-0.1,0.1-0.1,0.1-0.2,0.1c0,0,0,0-0.1,0c0,0-0.1,0.1-0.2,0.1c0,0,0,0-0.1,0
			c-0.1,0-0.1,0.1-0.2,0.1c0,0,0,0,0,0c-0.1,0-0.1,0-0.2,0.1c0,0,0,0-0.1,0c-0.1,0-0.1,0-0.2,0c0,0,0,0-0.1,0c-0.1,0-0.1,0-0.2,0
			c0,0,0,0-0.1,0c0,0,0,0,0,0c0,0-0.1,0-0.1,0c0,0-0.1,0-0.1,0c-0.1,0-0.2,0-0.2,0h0l0,0c-0.1,0-0.2,0-0.2,0c0,0-0.1,0-0.1,0
			c-0.1,0-0.1,0-0.2,0c0,0,0,0,0,0c-0.1,0-0.1,0-0.2,0c0,0,0,0-0.1,0c-0.1,0-0.1,0-0.2,0c0,0,0,0-0.1,0c-0.1,0-0.1,0-0.2,0.1
			c0,0,0,0,0,0c-0.1,0-0.1,0-0.2,0.1c0,0,0,0-0.1,0c-0.1,0-0.1,0.1-0.2,0.1c0,0,0,0-0.1,0c-0.1,0-0.1,0.1-0.2,0.1
			c-0.1,0.1-0.3,0.2-0.4,0.4c-0.3,0.4-0.5,0.9-0.5,1.4l0,0c0,0.1,0,0.3,0,0.4l0,0c0,0.2-0.1,0.3-0.1,0.4c-0.1,0.3-0.4,0.6-0.6,0.9
			c-0.1,0.1-0.3,0.2-0.4,0.3c-0.2,0.1-0.4,0.3-0.6,0.5c-0.3,0.3-0.5,0.7-0.6,1.1c-0.1,0.4-0.1,0.7,0,1c0.1,0.3,0.2,0.6,0.5,0.9h0
			l0,0c0,0.1,0.1,0.1,0.1,0.2c0,0.1,0.1,0.1,0.1,0.2l0,0c0,0.1,0.1,0.2,0.1,0.2c0.1,0.2,0.1,0.3,0.1,0.5c0.1,0.3,0,0.7,0,1
			c0,0.1,0,0.2-0.1,0.2c-0.2,0.6-0.2,1.2,0,1.8c0,0.1,0.1,0.2,0.1,0.2c0.2,0.4,0.5,0.7,0.8,0.9c0.2,0.1,0.5,0.2,0.8,0.3l0,0l0,0
			c0.1,0,0.1,0,0.2,0c0.1,0,0.1,0,0.2,0.1v0c0.2,0.1,0.3,0.1,0.5,0.2c0.3,0.2,0.5,0.4,0.7,0.7c0,0.1,0.1,0.1,0.1,0.2
			c0,0.1,0.1,0.1,0.1,0.2c0,0.1,0.1,0.2,0.1,0.3c0,0,0,0.1,0.1,0.1c0.1,0.2,0.3,0.3,0.5,0.5v10.5l4.1-2.9l4.1,2.9V67.3
			c0.1,0,0.1-0.1,0.2-0.1c0.1-0.1,0.2-0.2,0.2-0.3c0.1-0.2,0.1-0.4,0.2-0.6c0,0,0-0.1,0-0.1c0-0.1,0.1-0.2,0.1-0.2
			c0.1-0.1,0.2-0.3,0.3-0.4c0.2-0.2,0.6-0.4,0.9-0.5c0.1,0,0.2,0,0.2-0.1c0.6-0.1,1.2-0.4,1.6-0.9c0.1-0.1,0.1-0.2,0.2-0.2
			c0,0,0,0,0,0c0,0,0,0,0,0c0,0,0,0,0,0c0,0,0,0,0,0c0.1-0.2,0.2-0.3,0.2-0.5c0.2-0.5,0.1-1.1,0-1.5c0-0.1,0-0.1,0-0.2
			c0-0.1,0-0.1,0-0.2l0,0c0-0.2,0-0.4,0-0.5s0-0.3,0.1-0.5c0-0.1,0.1-0.2,0.1-0.2c0.1-0.2,0.2-0.4,0.4-0.6l0,0
			c0.3-0.3,0.5-0.7,0.6-1.2c0-0.2,0-0.3,0-0.5c0,0,0,0,0,0C49.6,57.9,49.6,57.8,49.6,57.7"/>
	</g>
	<path class="st97" d="M31.2,20h19.7V16H31.2V20z M31.2,27.8h19.7v-3.9H31.2V27.8z M70.6,47.5H50.9v3.9h19.7V47.5z M31.2,43.5h39.4
		v-3.9H31.2V43.5z M31.2,35.7h39.4v-3.9H31.2V35.7z"/>
</g>
<g id="Layer_3" class="st24">
</g>
</svg>
