<svg id="Layer_1" data-name="Layer 1" xmlns="http://www.w3.org/2000/svg" xmlns:xlink="http://www.w3.org/1999/xlink" viewBox="0 0 231 180"><defs><style>.cls-1,.cls-10,.cls-16,.cls-2{fill:none;}.cls-1{clip-rule:evenodd;}.cls-3{clip-path:url(#clip-path);}.cls-4{clip-path:url(#clip-path-2);}.cls-5{fill:#bbbdbf;}.cls-6{clip-path:url(#clip-path-3);}.cls-7{fill:#007fb1;}.cls-8{clip-path:url(#clip-path-5);}.cls-9{fill:#fefefe;}.cls-10,.cls-16{stroke:#231f20;stroke-miterlimit:10;}.cls-10{stroke-width:1.61px;}.cls-11{clip-path:url(#clip-path-7);}.cls-12{isolation:isolate;}.cls-13{clip-path:url(#clip-path-9);}.cls-14{clip-path:url(#clip-path-10);}.cls-15{clip-path:url(#clip-path-11);}.cls-16{stroke-width:0.81px;}.cls-17{clip-path:url(#clip-path-13);}.cls-18{fill:#231f20;}.cls-19{clip-path:url(#clip-path-16);}.cls-20{clip-path:url(#clip-path-19);}.cls-21{clip-path:url(#clip-path-22);}.cls-22{clip-path:url(#clip-path-25);}.cls-23{clip-path:url(#clip-path-28);}.cls-24{clip-path:url(#clip-path-30);}.cls-25{clip-path:url(#clip-path-32);}.cls-26{clip-path:url(#clip-path-34);}.cls-27{clip-path:url(#clip-path-36);}.cls-28{clip-path:url(#clip-path-38);}.cls-29{clip-path:url(#clip-path-40);}.cls-30{clip-path:url(#clip-path-43);}.cls-31{clip-path:url(#clip-path-45);}.cls-32{clip-path:url(#clip-path-47);}.cls-33{clip-path:url(#clip-path-49);}.cls-34{clip-path:url(#clip-path-51);}.cls-35{clip-path:url(#clip-path-53);}.cls-36{clip-path:url(#clip-path-55);}.cls-37{clip-path:url(#clip-path-57);}.cls-38{clip-path:url(#clip-path-59);}.cls-39{clip-path:url(#clip-path-61);}.cls-40{clip-path:url(#clip-path-63);}.cls-41{clip-path:url(#clip-path-65);}.cls-42{clip-path:url(#clip-path-67);}.cls-43{clip-path:url(#clip-path-69);}.cls-44{clip-path:url(#clip-path-71);}.cls-45{clip-path:url(#clip-path-73);}.cls-46{clip-path:url(#clip-path-75);}.cls-47{clip-path:url(#clip-path-77);}.cls-48{clip-path:url(#clip-path-79);}.cls-49{clip-path:url(#clip-path-81);}.cls-50{clip-path:url(#clip-path-83);}.cls-51{clip-path:url(#clip-path-85);}</style><clipPath id="clip-path"><path class="cls-1" d="M230.65,147.62H202s-27.61,26.78-86.28,26.55-85.12-26.55-85.12-26.55H.35V30.39H30.26S61,4.68,115.67,4.91s85.71,25.48,85.71,25.48h29.27Z"/></clipPath><clipPath id="clip-path-2"><rect class="cls-2" x="-485.25" y="-781.09" width="1275" height="1339"/></clipPath><clipPath id="clip-path-3"><path class="cls-1" d="M222.73,141H198.09S167.93,167.61,114,167.39,33.17,141,33.17,141H7.57V38.15H32.85S63.69,11.57,114,11.78,197.2,38.15,197.2,38.15h25.53Z"/></clipPath><clipPath id="clip-path-5"><path class="cls-1" d="M211.88,87.25a2.93,2.93,0,0,1-3,2.89H21.8a2.93,2.93,0,0,1-3-2.89V57a2.93,2.93,0,0,1,3-2.89H208.91a2.93,2.93,0,0,1,3,2.89Z"/></clipPath><clipPath id="clip-path-7"><rect class="cls-2" x="0.35" y="4.91" width="230.29" height="169.26"/></clipPath><clipPath id="clip-path-9"><rect class="cls-2" x="6.75" y="10.91" width="217" height="158"/></clipPath><clipPath id="clip-path-10"><rect class="cls-2" x="179.75" y="56.73" width="29.37" height="30.66"/></clipPath><clipPath id="clip-path-11"><rect class="cls-2" x="-0.25" y="4.91" width="231" height="170"/></clipPath><clipPath id="clip-path-13"><rect class="cls-2" x="53.35" y="56.77" width="29.38" height="30.66"/></clipPath><clipPath id="clip-path-16"><rect class="cls-2" x="84.85" y="56.77" width="29.38" height="30.66"/></clipPath><clipPath id="clip-path-19"><rect class="cls-2" x="116.55" y="56.77" width="29.38" height="30.66"/></clipPath><clipPath id="clip-path-22"><rect class="cls-2" x="148.25" y="56.77" width="29.38" height="30.66"/></clipPath><clipPath id="clip-path-25"><rect class="cls-2" x="21.65" y="56.77" width="29.37" height="30.66"/></clipPath><clipPath id="clip-path-28"><path class="cls-1" d="M37,83.15c-6.25,0-9.59-4.62-9.59-10.85,0-6.77,4-10.85,9.62-10.85,5.18,0,7.23,2.22,8.67,6.18l-5.3,2.08c-.75-2-1.47-3.19-3.4-3.19-2.44,0-3.49,2.44-3.49,5.78s1,5.78,3.55,5.78c1.84,0,2.62-1,3.77-3l4.93,2.62A9.07,9.07,0,0,1,37,83.15"/></clipPath><clipPath id="clip-path-30"><path class="cls-1" d="M69.87,74.25h-3.5l.4-1.38c.75-2.67,1.08-3.84,1.35-5.25.27,1.41.6,2.55,1.35,5.25Zm8.88,8.33-7.65-21H65.2l-7.65,21h6.27L65,78.86h6.32l1.14,3.72Z"/></clipPath><clipPath id="clip-path-32"><path class="cls-1" d="M102.48,68.66c0,1.5-.75,2.34-2.65,2.34H96.4V66.4h3.52C101.76,66.4,102.48,67.34,102.48,68.66Zm6.24,14-4.21-8a6.21,6.21,0,0,0,3.79-6.15c0-5-3.28-6.85-8.22-6.85H90.65v21H96.4v-7.1h2.35l3.44,7.1Z"/></clipPath><clipPath id="clip-path-34"><polygon class="cls-1" points="128.69 66.61 128.69 69.54 135.28 69.54 135.28 74.46 128.69 74.46 128.69 82.68 122.88 82.68 122.88 61.65 139.56 61.65 139.56 66.61 128.69 66.61"/></clipPath><clipPath id="clip-path-36"><path class="cls-1" d="M164.47,74.42H161l.39-1.38c.76-2.68,1.08-3.84,1.35-5.26.28,1.42.61,2.55,1.36,5.26Zm8.88,8.33-7.64-21h-5.9l-7.65,21h6.26L159.56,79h6.33L167,82.75Z"/></clipPath><clipPath id="clip-path-38"><path class="cls-1" d="M197.38,87.68l-.93-1.43c-.82-1.32-1.65-2.72-2.21-3.86A36.79,36.79,0,0,1,192,86.25l-1,1.43h-7.15l6.93-9.59-7.28-10.34h7.41l1.28,2a35.22,35.22,0,0,1,2.21,3.83c.53-1.1,1.42-2.51,2.25-3.83l1.28-2h7.25L197.87,78l6.83,9.71Z"/></clipPath><clipPath id="clip-path-40"><path class="cls-1" d="M219.52,56.19a2.72,2.72,0,0,1-.8,2,2.63,2.63,0,0,1-1.94.82A2.78,2.78,0,0,1,214,56.2a2.74,2.74,0,0,1,.81-2,2.64,2.64,0,0,1,2-.82,2.59,2.59,0,0,1,1.94.82,2.76,2.76,0,0,1,.8,2m-.44,0a2.39,2.39,0,0,0-.68-1.69,2.16,2.16,0,0,0-1.6-.71,2.24,2.24,0,0,0-1.66.71,2.38,2.38,0,0,0-.69,1.7,2.33,2.33,0,0,0,.69,1.69,2.2,2.2,0,0,0,1.64.7,2.17,2.17,0,0,0,1.62-.7,2.4,2.4,0,0,0,.68-1.7m-.77-.73a.93.93,0,0,1-.32.74,1.16,1.16,0,0,1-.74.28l1,1.33h-.62l-1-1.33h-.56v1.33h-.5V54.5h1.63a1.17,1.17,0,0,1,.83.27.88.88,0,0,1,.29.69m-.52,0c0-.34-.25-.5-.76-.5h-1V56h1c.49,0,.73-.19.73-.57"/></clipPath><clipPath id="clip-path-43"><polygon class="cls-1" points="125.22 45.34 115.61 40.49 106.08 45.5 107.82 35.03 100.02 27.69 110.7 26.07 115.41 16.52 120.28 26 130.99 27.43 123.31 34.9 125.22 45.34"/></clipPath><clipPath id="clip-path-45"><polygon class="cls-1" points="153.14 44.52 147.04 41.43 141 44.62 142.1 37.97 137.15 33.32 143.93 32.29 146.92 26.23 150 32.24 156.8 33.15 151.93 37.89 153.14 44.52"/></clipPath><clipPath id="clip-path-47"><polygon class="cls-1" points="90.2 44.52 84.1 41.44 78.06 44.63 79.16 37.98 74.21 33.33 80.99 32.3 83.97 26.24 87.06 32.25 93.86 33.16 88.99 37.9 90.2 44.52"/></clipPath><clipPath id="clip-path-49"><polygon class="cls-1" points="177.34 48.77 172.89 46.52 168.49 48.84 169.29 44 165.68 40.61 170.62 39.86 172.8 35.44 175.05 39.82 180 40.49 176.45 43.94 177.34 48.77"/></clipPath><clipPath id="clip-path-51"><polygon class="cls-1" points="62.66 48.78 58.21 46.54 53.81 48.86 54.62 44.02 51 40.62 55.95 39.88 58.12 35.45 60.37 39.84 65.33 40.5 61.78 43.95 62.66 48.78"/></clipPath><clipPath id="clip-path-53"><path class="cls-1" d="M41.67,97.85h7l5.93,23.71h-5.8l-.86-4.51H42.24l-.84,4.51H35.61Zm3.4,4.32H45l-2,10.56H47.1Z"/></clipPath><clipPath id="clip-path-55"><path class="cls-1" d="M56.38,97.85h8.29c5.53,0,7.89,2.86,7.89,11.1,0,8.6-1.1,12.62-8.45,12.62H56.38Zm5.6,19.6h1.49c2.6,0,3.5-1,3.5-8.14,0-5.78-.47-7.34-3.43-7.34H62Z"/></clipPath><clipPath id="clip-path-57"><polygon class="cls-1" points="73.23 97.85 79.22 97.85 82.05 116.18 82.12 116.18 84.98 97.85 90.97 97.85 85.58 121.56 78.45 121.56 73.23 97.85"/></clipPath><clipPath id="clip-path-59"><path class="cls-1" d="M95.93,97.85h7l5.93,23.71h-5.8l-.86-4.51H96.5l-.83,4.51h-5.8Zm3.4,4.32h-.07l-2,10.56h4.06Z"/></clipPath><clipPath id="clip-path-61"><polygon class="cls-1" points="110.64 97.85 117.07 97.85 121.66 113.26 121.73 113.26 121.73 97.85 126.92 97.85 126.92 121.56 120.6 121.56 115.71 105.22 115.64 105.22 115.64 121.56 110.64 121.56 110.64 97.85"/></clipPath><clipPath id="clip-path-63"><polygon class="cls-1" points="133.85 102.37 128.85 102.37 128.85 97.85 144.43 97.85 144.43 102.37 139.44 102.37 139.44 121.56 133.85 121.56 133.85 102.37"/></clipPath><clipPath id="clip-path-65"><path class="cls-1" d="M148.93,97.85h7l5.92,23.71h-5.79l-.86-4.51h-5.7l-.83,4.51h-5.79Zm3.39,4.32h-.06l-2,10.56h4.06Z"/></clipPath><clipPath id="clip-path-67"><path class="cls-1" d="M173.1,105.06c0-1.53-.17-4-2.23-4-2.3,0-2.57,2.32-2.57,8.63,0,6.48.34,8.57,2.57,8.57,1.89,0,2.56-1.73,2.56-5v-.77H170.8v-3.71h7.82v12.71h-3.83l-.13-2.25h-.07c-.86,2.12-3,2.72-5.12,2.72-6,0-7-4.42-7-11.82,0-7.77.53-12.82,8.46-12.82,7.22,0,7.52,5,7.52,7.67Z"/></clipPath><clipPath id="clip-path-69"><polygon class="cls-1" points="181.55 97.85 195.3 97.85 195.3 102.37 187.14 102.37 187.14 107.12 194.8 107.12 194.8 111.64 187.14 111.64 187.14 117.05 195.66 117.05 195.66 121.56 181.55 121.56 181.55 97.85"/></clipPath><clipPath id="clip-path-71"><path class="cls-1" d="M64.72,128.3H73c5.53,0,7.89,2.85,7.89,11.09,0,8.6-1.1,12.62-8.46,12.62H64.72Zm5.6,19.59h1.49c2.6,0,3.5-1,3.5-8.13,0-5.78-.47-7.34-3.43-7.34H70.32Z"/></clipPath><clipPath id="clip-path-73"><polygon class="cls-1" points="83.83 128.3 97.58 128.3 97.58 132.82 89.42 132.82 89.42 137.56 97.08 137.56 97.08 142.08 89.42 142.08 89.42 147.49 97.94 147.49 97.94 152.01 83.83 152.01 83.83 128.3"/></clipPath><clipPath id="clip-path-75"><path class="cls-1" d="M104.87,128.3h7L117.79,152H112l-.86-4.52h-5.7L104.6,152H98.81Zm3.39,4.32h-.06l-2,10.56h4.07Z"/></clipPath><clipPath id="clip-path-77"><polygon class="cls-1" points="119.58 128.3 125.18 128.3 125.18 147.49 133.26 147.49 133.26 152.01 119.58 152.01 119.58 128.3"/></clipPath><clipPath id="clip-path-79"><polygon class="cls-1" points="135 128.3 148.75 128.3 148.75 132.82 140.59 132.82 140.59 137.56 148.25 137.56 148.25 142.08 140.59 142.08 140.59 147.49 149.11 147.49 149.11 152.01 135 152.01 135 128.3"/></clipPath><clipPath id="clip-path-81"><path class="cls-1" d="M151.64,128.3H161c4.76,0,6.39,2.92,6.39,6.18,0,3.45-1.4,5.14-4,5.77v.07c3.57.5,3.77,2.72,3.83,5.91.1,4.68.27,5.15,1.07,5.48v.3h-6c-.43-.8-.59-2.13-.59-4.82,0-4.11-.57-5-2.34-5h-2.13V152h-5.59Zm5.59,10H159c2.26,0,2.86-1.69,2.86-3.08,0-1.8-.67-3-2.9-3h-1.7Z"/></clipPath><clipPath id="clip-path-83"><path class="cls-1" d="M197.64,37.53c-2.59-2-34.2-26.17-82.52-26.37h-.6c-48,0-79.09,24.29-81.66,26.37H7.18V141.65H33.09c2.42,2.17,30.37,26.16,82,26.37h.64c51.36,0,79.95-24.2,82.41-26.37h25.42V37.53Zm0,102.92-.13.11-.07.07a61.64,61.64,0,0,1-5.18,4c-9.48,6.66-35.9,22.13-76.51,22.13h-.63c-27.77-.1-48.42-7.23-60.87-13.2a104.41,104.41,0,0,1-15.37-9,54,54,0,0,1-5.18-4.09l-.13-.11H8.42V38.77H33.14l.22,0,.13-.11a68.8,68.8,0,0,1,5.64-4.08A139.62,139.62,0,0,1,114.52,12.4h.59a145.64,145.64,0,0,1,59.75,13.21,132.32,132.32,0,0,1,16.44,9c3.76,2.43,5.69,4,5.7,4l.21.17h25.12V140.41H197.86Z"/></clipPath><clipPath id="clip-path-85"><path class="cls-1" d="M202.51,100.12a2.33,2.33,0,0,1-.68,1.68,2.31,2.31,0,0,1-3.29,0,2.28,2.28,0,0,1-.69-1.67,2.32,2.32,0,0,1,.68-1.69,2.23,2.23,0,0,1,1.66-.7,2.19,2.19,0,0,1,1.64.7,2.32,2.32,0,0,1,.68,1.68m-.38,0a2,2,0,0,0-.57-1.43,1.8,1.8,0,0,0-1.35-.6,1.9,1.9,0,0,0-1.41.6,2,2,0,0,0-.58,1.44,2,2,0,0,0,.58,1.43,1.9,1.9,0,0,0,1.39.59,1.83,1.83,0,0,0,1.37-.6,2,2,0,0,0,.57-1.43m-.64-.62a.77.77,0,0,1-.28.63,1,1,0,0,1-.62.23l.85,1.13h-.53l-.85-1.12h-.48v1.12h-.42v-2.8h1.38a1,1,0,0,1,.7.23.74.74,0,0,1,.25.58m-.45,0c0-.28-.21-.42-.64-.42h-.82V100h.85c.41,0,.61-.16.61-.49"/></clipPath></defs><title>Adv-Dealer-Logo</title><g class="cls-3"><g class="cls-4"><rect class="cls-5" x="-4.65" y="-0.09" width="240.29" height="179.26"/></g></g><g class="cls-6"><g class="cls-4"><rect class="cls-7" x="2.57" y="6.78" width="225.15" height="165.62"/></g></g><g class="cls-8"><g class="cls-4"><rect class="cls-9" x="13.83" y="49.06" width="203.05" height="46.08"/></g></g><path class="cls-10" d="M211.88,87.25a2.93,2.93,0,0,1-3,2.89H21.8a2.93,2.93,0,0,1-3-2.89V57a2.93,2.93,0,0,1,3-2.89H208.91a2.93,2.93,0,0,1,3,2.89Z"/><g class="cls-11"><g class="cls-4"><g class="cls-12"><g class="cls-13"><g class="cls-14"><g class="cls-15"><rect class="cls-9" x="174.75" y="51.73" width="39.37" height="40.66"/></g></g><g class="cls-15"><rect class="cls-16" x="179.75" y="56.73" width="29.37" height="30.66"/></g><g class="cls-17"><g class="cls-15"><rect class="cls-18" x="48.35" y="51.77" width="39.38" height="40.66"/></g></g><g class="cls-15"><rect class="cls-16" x="53.35" y="56.77" width="29.38" height="30.66"/></g><g class="cls-19"><g class="cls-15"><rect class="cls-18" x="79.85" y="51.77" width="39.38" height="40.66"/></g></g><g class="cls-15"><rect class="cls-16" x="84.85" y="56.77" width="29.38" height="30.66"/></g><g class="cls-20"><g class="cls-15"><rect class="cls-18" x="111.55" y="51.77" width="39.38" height="40.66"/></g></g><g class="cls-15"><rect class="cls-16" x="116.55" y="56.77" width="29.38" height="30.66"/></g><g class="cls-21"><g class="cls-15"><rect class="cls-18" x="143.25" y="51.77" width="39.38" height="40.66"/></g></g><g class="cls-15"><rect class="cls-16" x="148.25" y="56.77" width="29.38" height="30.66"/></g><g class="cls-22"><g class="cls-15"><rect class="cls-18" x="16.65" y="51.77" width="39.37" height="40.66"/></g></g><g class="cls-15"><rect class="cls-16" x="21.65" y="56.77" width="29.37" height="30.66"/></g><g class="cls-23"><g class="cls-15"><rect class="cls-9" x="22.44" y="56.45" width="28.35" height="31.7"/></g></g><g class="cls-24"><g class="cls-15"><rect class="cls-9" x="52.55" y="56.55" width="31.19" height="31.03"/></g></g><g class="cls-25"><g class="cls-15"><rect class="cls-9" x="85.65" y="56.65" width="28.07" height="31.02"/></g></g><g class="cls-26"><g class="cls-15"><rect class="cls-9" x="117.88" y="56.65" width="26.68" height="31.02"/></g></g><g class="cls-27"><g class="cls-15"><rect class="cls-9" x="147.16" y="56.72" width="31.19" height="31.02"/></g></g><g class="cls-28"><g class="cls-15"><rect class="cls-18" x="178.47" y="62.75" width="31.67" height="29.92"/></g></g><g class="cls-29"><g class="cls-15"><rect class="cls-9" x="209.01" y="48.38" width="15.5" height="15.61"/></g></g><g class="cls-15"><path class="cls-9" d="M219.52,56.19a2.72,2.72,0,0,1-.8,2,2.63,2.63,0,0,1-1.94.82A2.78,2.78,0,0,1,214,56.2a2.74,2.74,0,0,1,.81-2,2.64,2.64,0,0,1,2-.82,2.59,2.59,0,0,1,1.94.82A2.76,2.76,0,0,1,219.52,56.19Zm-.44,0a2.39,2.39,0,0,0-.68-1.69,2.16,2.16,0,0,0-1.6-.71,2.24,2.24,0,0,0-1.66.71,2.38,2.38,0,0,0-.69,1.7,2.33,2.33,0,0,0,.69,1.69,2.2,2.2,0,0,0,1.64.7,2.17,2.17,0,0,0,1.62-.7A2.4,2.4,0,0,0,219.08,56.19Zm-.77-.73a.93.93,0,0,1-.32.74,1.16,1.16,0,0,1-.74.28l1,1.33h-.62l-1-1.33h-.56v1.33h-.5V54.5h1.63a1.17,1.17,0,0,1,.83.27A.88.88,0,0,1,218.31,55.46Zm-.52,0c0-.34-.25-.5-.76-.5h-1V56h1C217.55,56,217.79,55.84,217.79,55.46Z"/></g><g class="cls-30"><g class="cls-15"><rect class="cls-9" x="95.02" y="11.52" width="40.97" height="38.98"/></g></g><g class="cls-31"><g class="cls-15"><rect class="cls-9" x="132.15" y="21.23" width="29.65" height="28.39"/></g></g><g class="cls-32"><g class="cls-15"><rect class="cls-9" x="69.21" y="21.24" width="29.65" height="28.39"/></g></g><g class="cls-33"><g class="cls-15"><rect class="cls-9" x="160.68" y="30.44" width="24.32" height="23.4"/></g></g><g class="cls-34"><g class="cls-15"><rect class="cls-9" x="46" y="30.46" width="24.32" height="23.4"/></g></g><g class="cls-35"><g class="cls-15"><rect class="cls-9" x="30.61" y="92.85" width="28.97" height="33.71"/></g></g><g class="cls-36"><g class="cls-15"><rect class="cls-9" x="51.38" y="92.85" width="26.18" height="33.71"/></g></g><g class="cls-37"><g class="cls-15"><rect class="cls-9" x="68.23" y="92.85" width="27.74" height="33.71"/></g></g><g class="cls-38"><g class="cls-15"><rect class="cls-9" x="84.87" y="92.85" width="28.97" height="33.71"/></g></g><g class="cls-39"><g class="cls-15"><rect class="cls-9" x="105.65" y="92.85" width="26.28" height="33.71"/></g></g><g class="cls-40"><g class="cls-15"><rect class="cls-9" x="123.85" y="92.85" width="25.58" height="33.71"/></g></g><g class="cls-41"><g class="cls-15"><rect class="cls-9" x="137.87" y="92.85" width="28.97" height="33.71"/></g></g><g class="cls-42"><g class="cls-15"><rect class="cls-9" x="157.51" y="92.39" width="26.11" height="34.64"/></g></g><g class="cls-43"><g class="cls-15"><rect class="cls-9" x="176.55" y="92.85" width="24.11" height="33.71"/></g></g><g class="cls-44"><g class="cls-15"><rect class="cls-9" x="59.72" y="123.3" width="26.18" height="33.71"/></g></g><g class="cls-45"><g class="cls-15"><rect class="cls-9" x="78.83" y="123.3" width="24.11" height="33.71"/></g></g><g class="cls-46"><g class="cls-15"><rect class="cls-9" x="93.81" y="123.3" width="28.97" height="33.71"/></g></g><g class="cls-47"><g class="cls-15"><rect class="cls-9" x="114.58" y="123.3" width="23.68" height="33.71"/></g></g><g class="cls-48"><g class="cls-15"><rect class="cls-9" x="130" y="123.3" width="24.11" height="33.71"/></g></g><g class="cls-49"><g class="cls-15"><rect class="cls-9" x="146.64" y="123.3" width="26.67" height="33.71"/></g></g><g class="cls-50"><g class="cls-15"><rect class="cls-9" x="2.18" y="6.16" width="226.4" height="166.86"/></g></g><g class="cls-51"><g class="cls-15"><rect class="cls-9" x="192.85" y="92.74" width="14.65" height="14.75"/></g></g></g></g></g></g></svg>