<?xml version="1.0" encoding="UTF-8" standalone="yes"?>
<svg fill="currentColor" height="24" preserveAspectRatio="xMidYMid meet" viewBox="0 0 24 24" width="24" xmlns="http://www.w3.org/2000/svg">
  <g>
    <path fill="#E37300" fill-rule="nonzero" d="M11.126 5.5H5.5L4 10h6.083a6.002 6.002 0 0 0 7.566 4.77L20 17.122V19c0 .51-.388.935-.884.993L19 20h-1c-.55 0-1-.45-1-1v-1H5v1c0 .55-.45 1-1 1H3c-.55 0-1-.45-1-1v-8l2.08-5.99C4.29 4.42 4.84 4 5.5 4l7.184-.002A6.033 6.033 0 0 0 11.126 5.5ZM5.5 12c-.83 0-1.5.67-1.5 1.5S4.67 15 5.5 15 7 14.33 7 13.5 6.33 12 5.5 12Z"/>
  </g>
  <g>
    <path fill="#616161" fill-rule="nonzero" d="M19.43 11.02c.36-.59.57-1.28.57-2.02 0-2.21-1.79-4-4-4s-4 1.79-4 4 1.79 4 4 4c.74 0 1.43-.22 2.02-.57L20.59 15 22 13.59l-2.57-2.57ZM16 11c-1.1 0-2-.9-2-2s.9-2 2-2 2 .9 2 2-.9 2-2 2Z"/>
  </g>
</svg>