<?xml version="1.0" encoding="UTF-8" standalone="yes"?>
<svg fill="currentColor" height="24" preserveAspectRatio="xMidYMid meet" viewBox="0 0 24 24" width="24" xmlns="http://www.w3.org/2000/svg">
  <g>
    <path fill="#919191" d="M17.005 3.5h-3.18c-.42-1.16-1.52-2-2.82-2-1.3 0-2.4.84-2.82 2h-3.18c-1.1 0-2 .9-2 2v15c0 1.1.9 2 2 2h3v-2h-3v-15h2v3h8v-3h2v5.08h2V5.5c0-1.1-.9-2-2-2Zm-6 2c-.55 0-1-.45-1-1s.45-1 1-1 1 .45 1 1-.45 1-1 1Z"/>
  </g>
  <g>
    <path fill="#D32F2F" d="M19.565 12.16c-.14-.4-.52-.66-.97-.66h-7.19c-.46 0-.83.26-.98.66l-1.42 4.11v5.51c0 .38.31.72.69.72h.62c.38 0 .68-.38.68-.76V20.5h8v1.24c0 .38.31.76.69.76h.61c.38 0 .69-.34.69-.72l.01-1.37v-4.14l-1.43-4.11Zm-8.16.34h7.19l1.03 3h-9.25l1.03-3Zm-.41 6c-.55 0-1-.45-1-1s.45-1 1-1 1 .45 1 1-.45 1-1 1Zm8 0c-.55 0-1-.45-1-1s.45-1 1-1 1 .45 1 1-.45 1-1 1Z"/>
  </g>
</svg>