<?xml version="1.0" encoding="UTF-8" standalone="yes"?>
<svg fill="currentColor" height="24" preserveAspectRatio="xMidYMid meet" viewBox="0 0 24 24" width="24" xmlns="http://www.w3.org/2000/svg">
  <g>
    <path fill="#FFFFFF" fill-rule="evenodd" d="M19.5 5.6h-15v15h15v-15ZM17 14h-3v3h3v-3Zm-4 1H7v1h6v-1Zm4-6h-3v3h3V9Zm-4 1H7v1h6v-1Z"/>
  </g>
  <g>
    <path fill="#5D4037" d="M19 4.1h-4.184A2.99 2.99 0 0 0 12 2.1a2.99 2.99 0 0 0-2.816 2H5a2 2 0 0 0-2 2v14a2 2 0 0 0 2 2h14a2 2 0 0 0 2-2v-14a2 2 0 0 0-2-2Zm-7-.6a1 1 0 1 1 0 2 1 1 0 0 1 0-2Zm7 16.6H5v-14h14v14Z"/>
  </g>
  <g>
    <rect fill="#919191" height="1" width="6" x="7" y="10"/>
  </g>
  <g>
    <rect fill="#919191" height="1" width="6" x="7" y="15"/>
  </g>
  <g>
    <rect fill="#005005" height="3" width="3" x="14" y="9"/>
  </g>
  <g>
    <rect fill="#005005" height="3" width="3" x="14" y="14"/>
  </g>
</svg>