<svg xmlns="http://www.w3.org/2000/svg" viewBox="0 0 125 80"><defs><style>.cls-1{fill:#231f20;}</style></defs><g id="Layer_15" data-name="Layer 15"><path class="cls-1" d="M9.21,39.06V27.3h2.58v9.58H16v2.18Z"/><path class="cls-1" d="M19.92,39.06H19.2l4-11.76h.72Z"/><path class="cls-1" d="M32.41,39.25c-3.57,0-6-2.37-6-6.13a5.86,5.86,0,0,1,6-6,5.45,5.45,0,0,1,4.23,1.74l-1.45,1.7a3.76,3.76,0,0,0-2.78-1.18c-2,0-3.31,1.6-3.31,3.76,0,2.41,1.18,3.88,3.35,3.88a3.89,3.89,0,0,0,3-1.34l1.48,1.69A5.61,5.61,0,0,1,32.41,39.25Z"/><path class="cls-1" d="M40.18,39.06V27.3H47v2.17H42.76v2.76h4V34.4h-4v2.48h4.51v2.18Z"/><path class="cls-1" d="M56.86,39.06,53.59,33.5v5.56H51V27.3h4.22c2.47,0,4.05,1.48,4.05,3.51a3.33,3.33,0,0,1-2.63,3.34l3.13,4.91Zm-1.63-9.59H53.59v2.84h1.64a1.38,1.38,0,0,0,1.47-1.5A1.36,1.36,0,0,0,55.23,29.47Z"/><path class="cls-1" d="M67,29.47v9.59H64.42V29.47H62.08V27.3h7.19v2.17Z"/><path class="cls-1" d="M72.65,39.06V27.3h2.58V39.06Z"/><path class="cls-1" d="M81.82,29.47v2.81H85.3v2.17H81.82v4.61H79.24V27.3h6.3v2.17Z"/><path class="cls-1" d="M89.25,39.06V27.3h2.58V39.06Z"/><path class="cls-1" d="M95.84,39.06V27.3h6.85v2.17H98.42v2.76h4V34.4h-4v2.48h4.51v2.18Z"/><path class="cls-1" d="M110.23,39.06h-3.56V27.3h3.56c3.35,0,6.12,2.06,6.12,5.86S113.36,39.06,110.23,39.06Zm0-9.59h-1v7.41h1a3.47,3.47,0,0,0,3.46-3.72A3.47,3.47,0,0,0,110.23,29.47Z"/><path class="cls-1" d="M30.14,52.82H28.2V46h1.59c1.24,0,2.13.56,2.13,1.66a1.57,1.57,0,0,1-1.17,1.54,1.78,1.78,0,0,1,1.74,1.73C32.49,52.31,31.38,52.82,30.14,52.82Zm-.35-6.43H28.62v2.66h1.24a1.44,1.44,0,0,0,1.62-1.38C31.48,46.81,30.85,46.39,29.79,46.39Zm.27,3H28.62v3h1.52c1,0,1.91-.41,1.91-1.51S31,49.43,30.06,49.43Z"/><path class="cls-1" d="M39.23,49.57v3.25h-.42V49.56L36.37,46h.48L39,49.18,41.22,46h.48Z"/><path class="cls-1" d="M52,52.82V46h.42v6.44h3.1v.37Z"/><path class="cls-1" d="M60.27,52.82V46h3.44v.38h-3V49h2.72v.38H60.69v3h3.2v.37Z"/><path class="cls-1" d="M73.61,52.82l-2.36-3.37-2.4,3.37h-.49L71,49.12,68.81,46h.48l2,2.75,2-2.75h.45l-2.18,3.11,2.62,3.7Z"/><path class="cls-1" d="M81,52.93a2.42,2.42,0,0,1-2.42-2.58V46H79v4.34a2,2,0,1,0,4,0V46h.42v4.34A2.44,2.44,0,0,1,81,52.93Z"/><path class="cls-1" d="M90.08,52.93a2.64,2.64,0,0,1-1.79-.71l.27-.3a2.24,2.24,0,0,0,1.52.62,1.38,1.38,0,0,0,1.47-1.33c0-1-.79-1.37-1.57-1.78s-1.6-.85-1.6-1.9a1.63,1.63,0,0,1,1.7-1.63,2.13,2.13,0,0,1,1.73.74l-.32.27a1.64,1.64,0,0,0-1.41-.62,1.21,1.21,0,0,0-1.26,1.24c0,.85.74,1.21,1.5,1.62S92,50,92,51.2A1.83,1.83,0,0,1,90.08,52.93Z"/></g></svg>