<?xml version="1.0" encoding="UTF-8"?>
<svg viewBox="0 0 616 154" version="1.1" xmlns="http://www.w3.org/2000/svg" xmlns:xlink="http://www.w3.org/1999/xlink">
    <title>Acura_Certified_Pre_Owned_Lockup-Stacked_K_RGB</title>
    <defs>
        <polygon id="path-1" points="0 -1.42108547e-14 39.681 -1.42108547e-14 39.681 46.717 0 46.717"></polygon>
        <polygon id="path-3" points="2.84217094e-14 0 513.778917 0 513.778917 153.308 2.84217094e-14 153.308"></polygon>
    </defs>
    <g id="Acura_Certified_Pre_Owned_Lockup-Stacked_K_RGB" stroke="none" stroke-width="1" fill="none" fill-rule="evenodd">
        <g id="Group-3" transform="translate(0.060000, 107.283000)">
            <mask id="mask-2" fill="white">
                <use xlink:href="#path-1"></use>
            </mask>
            <g id="Clip-2"></g>
            <path d="M-0.06,23.358 C-0.06,10.56 10.499,-1.42108547e-14 23.426,-1.42108547e-14 C29.57,-1.42108547e-14 34.37,1.472 39.681,6.08 L36.929,9.727 C31.297,5.248 27.906,4.544 23.426,4.544 C13.187,4.544 4.868,13.119 4.868,23.358 C4.868,33.598 13.187,42.173 23.426,42.173 C27.906,42.173 31.297,41.469 36.929,36.989 L39.681,40.638 C34.37,45.245 29.57,46.717 23.426,46.717 C10.499,46.717 -0.06,36.157 -0.06,23.358" id="Fill-1" fill="#000203" mask="url(#mask-2)"></path>
        </g>
        <path d="M60.05,124.242 C55.122,124.242 50.259,127.506 49.106,134.097 L70.225,134.097 C69.905,127.57 64.977,124.242 60.05,124.242 Z M73.744,149.264 C70.865,151.696 66.897,154 61.329,154 C51.666,154 44.115,147.024 44.115,137.041 C44.115,126.225 52.178,120.082 60.241,120.082 C67.665,120.082 75.024,125.33 75.024,136.081 C75.024,136.721 75.024,137.745 74.961,138.385 L49.042,138.385 C49.618,144.848 54.546,149.456 60.945,149.456 C65.105,149.456 67.921,148.304 70.929,145.68 L73.744,149.264 L73.744,149.264 Z" id="Fill-4" fill="#000203"></path>
        <path d="M98.181,125.522 C97.605,125.393 97.093,125.33 96.133,125.33 C91.396,125.33 86.917,129.426 86.917,135.761 L86.917,153.04 L82.31,153.04 L82.31,121.042 L86.917,121.042 L86.917,126.482 C88.389,123.154 91.653,120.786 95.301,120.786 C96.068,120.786 97.284,120.85 98.181,121.106 L98.181,125.522" id="Fill-5" fill="#000203"></path>
        <path d="M102.598,121.042 L107.27,121.042 L107.27,113.106 L111.877,113.106 L111.877,121.042 L122.116,121.042 L122.116,125.393 L111.877,125.393 L111.877,143.633 C111.877,147.728 114.245,149.072 116.933,149.072 C118.853,149.072 120.772,148.688 122.437,147.728 L122.437,152.144 C120.645,153.04 118.66,153.36 116.805,153.36 C111.941,153.36 107.27,150.992 107.27,144.913 L107.27,125.393 L102.598,125.393 L102.598,121.042" id="Fill-6" fill="#000203"></path>
        <path d="M128.223,153.04 L132.83,153.04 L132.83,121.042 L128.223,121.042 L128.223,153.04 Z M127.454,110.675 C127.454,108.947 128.67,107.603 130.462,107.603 C132.254,107.603 133.47,108.947 133.47,110.675 C133.47,112.403 132.254,113.747 130.462,113.747 C128.67,113.747 127.454,112.403 127.454,110.675 L127.454,110.675 Z" id="Fill-7" fill="#000203"></path>
        <path d="M158.998,113.043 C157.718,112.403 155.926,111.89 153.814,111.89 C149.143,111.89 147.543,115.155 147.543,119.186 L147.543,121.042 L158.678,121.042 L158.678,125.393 L147.543,125.393 L147.543,153.04 L142.935,153.04 L142.935,125.393 L138.263,125.393 L138.263,121.042 L142.935,121.042 L142.935,119.186 C142.935,112.85 146.454,107.859 153.942,107.859 C155.605,107.859 157.59,108.243 158.998,108.755 L158.998,113.043" id="Fill-8" fill="#000203"></path>
        <path d="M164.65,153.04 L169.258,153.04 L169.258,121.042 L164.65,121.042 L164.65,153.04 Z M163.882,110.675 C163.882,108.947 165.098,107.603 166.89,107.603 C168.682,107.603 169.897,108.947 169.897,110.675 C169.897,112.403 168.682,113.747 166.89,113.747 C165.098,113.747 163.882,112.403 163.882,110.675 L163.882,110.675 Z" id="Fill-9" fill="#000203"></path>
        <path d="M192.546,124.242 C187.618,124.242 182.755,127.506 181.603,134.097 L202.721,134.097 C202.401,127.57 197.474,124.242 192.546,124.242 Z M206.24,149.264 C203.361,151.696 199.394,154 193.825,154 C184.162,154 176.611,147.024 176.611,137.041 C176.611,126.225 184.674,120.082 192.737,120.082 C200.161,120.082 207.521,125.33 207.521,136.081 C207.521,136.721 207.521,137.745 207.457,138.385 L181.538,138.385 C182.114,144.848 187.042,149.456 193.441,149.456 C197.602,149.456 200.417,148.304 203.425,145.68 L206.24,149.264 L206.24,149.264 Z" id="Fill-10" fill="#000203"></path>
        <path d="M229.499,149.52 C236.986,149.52 241.274,144.081 241.274,137.105 C241.274,130.13 236.986,124.562 229.499,124.562 C222.972,124.562 217.724,128.977 217.724,137.041 C217.724,144.72 223.163,149.52 229.499,149.52 Z M245.882,153.04 L241.402,153.04 L241.402,148.112 C238.778,151.696 234.299,154 229.435,154 C220.283,154 212.925,147.6 212.925,137.041 C212.925,126.482 220.348,120.082 229.371,120.082 C234.683,120.082 238.906,122.194 241.274,125.265 L241.274,108.243 L245.882,108.243 L245.882,153.04 L245.882,153.04 Z" id="Fill-11" fill="#000203"></path>
        <path d="M282.171,112.722 L282.171,129.809 L295.481,129.809 C299.705,129.809 303.161,125.778 303.161,121.298 C303.161,116.755 299.705,112.722 295.481,112.722 L282.171,112.722 Z M277.436,108.243 L295.481,108.243 C302.394,108.243 307.896,114.066 307.896,121.298 C307.896,128.466 302.394,134.289 295.481,134.289 L282.171,134.289 L282.171,153.04 L277.436,153.04 L277.436,108.243 L277.436,108.243 Z" id="Fill-12" fill="#000203"></path>
        <path d="M329.696,125.522 C329.12,125.393 328.607,125.33 327.648,125.33 C322.912,125.33 318.433,129.426 318.433,135.761 L318.433,153.04 L313.825,153.04 L313.825,121.042 L318.433,121.042 L318.433,126.482 C319.904,123.154 323.168,120.786 326.816,120.786 C327.584,120.786 328.8,120.85 329.696,121.106 L329.696,125.522" id="Fill-13" fill="#000203"></path>
        <path d="M348.23,124.242 C343.303,124.242 338.439,127.506 337.287,134.097 L358.406,134.097 C358.086,127.57 353.158,124.242 348.23,124.242 Z M361.926,149.264 C359.046,151.696 355.078,154 349.511,154 C339.847,154 332.296,147.024 332.296,137.041 C332.296,126.225 340.359,120.082 348.423,120.082 C355.846,120.082 363.205,125.33 363.205,136.081 C363.205,136.721 363.205,137.745 363.142,138.385 L337.224,138.385 C337.799,144.848 342.727,149.456 349.127,149.456 C353.286,149.456 356.102,148.304 359.109,145.68 L361.926,149.264 L361.926,149.264 Z" id="Fill-14" fill="#000203"></path>
        <polygon id="Fill-15" fill="#000203" points="370.183 133.01 399.813 133.01 399.813 128.273 370.183 128.273"></polygon>
        <path d="M431.769,149.456 C442.008,149.456 450.327,140.881 450.327,130.641 C450.327,120.402 442.008,111.827 431.769,111.827 C421.529,111.827 413.21,120.402 413.21,130.641 C413.21,140.881 421.529,149.456 431.769,149.456 Z M431.769,107.283 C444.567,107.283 455.255,117.843 455.255,130.641 C455.255,143.44 444.567,154 431.769,154 C418.97,154 408.282,143.44 408.282,130.641 C408.282,117.843 418.97,107.283 431.769,107.283 L431.769,107.283 Z" id="Fill-16" fill="#000203"></path>
        <path d="M482.295,127.57 C481.848,129.618 481.271,131.729 480.632,133.777 L474.552,153.04 L469.624,153.04 L459.577,121.042 L464.568,121.042 L470.328,140.049 C471.096,142.48 471.608,144.976 472.12,147.408 L472.248,147.408 C472.76,144.976 473.336,142.48 474.104,140.049 L479.991,121.042 L484.855,121.042 L490.615,139.665 C491.446,142.289 492.087,144.848 492.599,147.472 L492.727,147.472 C493.303,144.848 493.879,142.224 494.711,139.6 L500.47,121.042 L505.142,121.042 L495.03,153.04 L490.103,153.04 L484.087,133.842 C483.447,131.729 482.871,129.681 482.424,127.57 L482.295,127.57" id="Fill-17" fill="#000203"></path>
        <path d="M539.19,153.04 L534.583,153.04 L534.583,131.409 C534.583,126.546 530.936,124.242 525.88,124.242 C520.376,124.242 515.32,128.466 515.32,134.481 L515.32,153.04 L510.713,153.04 L510.713,121.042 L515.192,121.042 L515.192,125.714 C517.305,122.45 520.568,120.082 526.647,120.082 C534.327,120.082 539.19,124.498 539.19,131.281 L539.19,153.04" id="Fill-18" fill="#000203"></path>
        <path d="M562.354,124.242 C557.426,124.242 552.563,127.506 551.41,134.097 L572.529,134.097 C572.209,127.57 567.281,124.242 562.354,124.242 Z M576.049,149.264 C573.169,151.696 569.201,154 563.634,154 C553.97,154 546.419,147.024 546.419,137.041 C546.419,126.225 554.482,120.082 562.546,120.082 C569.969,120.082 577.328,125.33 577.328,136.081 C577.328,136.721 577.328,137.745 577.265,138.385 L551.347,138.385 C551.922,144.848 556.85,149.456 563.25,149.456 C567.409,149.456 570.225,148.304 573.232,145.68 L576.049,149.264 L576.049,149.264 Z" id="Fill-19" fill="#000203"></path>
        <g id="Group-23" transform="translate(101.910083, 0.692000)">
            <mask id="mask-4" fill="white">
                <use xlink:href="#path-3"></use>
            </mask>
            <g id="Clip-21"></g>
            <path d="M497.396917,148.828 C504.884917,148.828 509.171917,143.389 509.171917,136.413 C509.171917,129.438 504.884917,123.87 497.396917,123.87 C490.868917,123.87 485.621917,128.285 485.621917,136.349 C485.621917,144.028 491.061917,148.828 497.396917,148.828 Z M513.778917,152.348 L509.299917,152.348 L509.299917,147.42 C506.675917,151.004 502.195917,153.308 497.332917,153.308 C488.181917,153.308 480.821917,146.908 480.821917,136.349 C480.821917,125.79 488.244917,119.39 497.268917,119.39 C502.579917,119.39 506.803917,121.502 509.171917,124.573 L509.171917,107.551 L513.778917,107.551 L513.778917,152.348 L513.778917,152.348 Z" id="Fill-20" fill="#000203" mask="url(#mask-4)"></path>
            <path d="M57.2529166,36.859 C56.4169166,46.573 52.5089166,52.461 45.9949166,55.587 C45.7189166,50.381 44.6529166,38.421 44.0659166,33.628 C43.1389166,27.772 42.1719166,25.941 41.0699166,22.697 C40.1759166,20.056 35.5209166,8.132 33.2529166,2.583 C33.2529166,2.583 39.0499166,2.688 43.9019166,4.364 C47.4099166,5.576 50.8369166,7.884 53.2129166,11.31 C58.6999166,19.213 57.5799166,33.045 57.2529166,36.859 L57.2529166,36.859 Z M45.3489166,55.878 C40.8709166,57.794 35.3129166,58.216 30.7169166,58.299 C26.1239166,58.216 20.5649166,57.794 16.0859166,55.878 L16.0699166,55.878 C17.5739166,51.9 24.7529166,34.695 28.6889166,27.976 L32.7499166,27.976 C36.6809166,34.695 43.8599166,51.9 45.3669166,55.878 L45.3489166,55.878 Z M4.1929166,36.859 C3.8639166,33.045 2.7479166,19.213 8.2299166,11.31 C10.6069166,7.884 14.0359166,5.576 17.5429166,4.364 C22.3989166,2.688 28.1899166,2.583 28.1899166,2.583 C25.9219166,8.132 21.2689166,20.056 20.3739166,22.697 C19.2739166,25.941 18.3089166,27.772 17.3779166,33.628 C16.7949166,38.421 15.7269166,50.381 15.4489166,55.587 C8.9369166,52.461 5.0299166,46.573 4.1929166,36.859 L4.1929166,36.859 Z M29.0049166,2.568 C30.0479166,2.51 30.2609166,2.52118307 30.7259166,2.524 C31.1899166,2.52118307 31.4079166,2.51 32.4469166,2.568 L32.4739166,24.66 L28.9789166,24.66 L29.0049166,2.568 Z M61.4049166,27.56 C60.8759166,17.463 57.3999166,10.038 52.6979166,5.998 C47.6059166,1.628 38.1009166,-0.028 30.7339166,-0.000348579064 C23.3739166,-0.028 13.8669166,1.628 8.7779166,5.998 C4.0699166,10.038 0.596916601,17.463 0.0699166006,27.56 C-0.423083399,37.021 1.6689166,47.375 7.0519166,53.243 C12.2419166,58.994 22.6669166,60.821 30.7279166,60.8110408 L30.7389166,60.8110408 C38.8069166,60.821 49.2349166,58.994 54.4269166,53.243 C59.8019166,47.375 61.8989166,37.021 61.4049166,27.56 L61.4049166,27.56 Z" id="Fill-22" fill="#101210" mask="url(#mask-4)"></path>
        </g>
        <polyline id="Fill-24" fill="#101210" points="200.802 5.491 214.682 5.491 245.548 56.675 230.967 56.675 207.662 18.023 195.393 38.349 215.331 38.349 221.185 48.015 189.587 48.015 184.385 56.675 169.941 56.675 200.802 5.491"></polyline>
        <path d="M391.644,56.675 L379.134,56.675 L379.134,5.491 L426.049,5.491 C442.363,5.491 446.549,27.153 435.124,34.629 C440.116,36.474 440.908,42.742 441.152,44.788 L441.551,56.675 L429.173,56.675 L428.793,46.182 C428.441,41.721 425.644,38.631 421.114,38.631 L397.285,38.631 L394.817,27.999 L422.414,27.999 C426.716,27.999 429.196,25.991 429.196,22.201 C429.196,18.598 426.716,16.431 422.414,16.431 L391.687,16.431 L391.644,56.675" id="Fill-25" fill="#101210"></path>
        <path d="M340.704,56.687 L352.143,56.687 C365.554,56.675 370.962,49.271 370.969,37.203 L370.969,5.491 L358.333,5.491 L358.333,39.379 C358.3,45.802 353.82,46.651 349.759,46.756 L331.679,46.756 C327.593,46.651 323.141,45.802 323.097,39.379 L323.097,5.491 L310.473,5.491 L310.473,37.203 C310.473,49.271 315.888,56.675 329.299,56.687 L340.704,56.687" id="Fill-26" fill="#101210"></path>
        <path d="M257.454,31.103 L257.454,24.711 C257.577,20.314 258.427,15.99 264.533,16.032 L303.066,16.032 L303.066,5.53985863 L264.382,5.53985863 C252.314,5.508 244.905,10.906 244.769,24.332 L244.769,37.867 C244.905,51.289 252.314,56.676 264.382,56.676 L303.066,56.676 L303.066,46.183 L264.533,46.183 C258.427,46.199 257.577,41.87 257.454,37.473 L257.454,31.103" id="Fill-27" fill="#101210"></path>
        <polyline id="Fill-28" fill="#101210" points="475.557 5.491 489.456 5.491 520.283 56.675 505.724 56.675 482.426 18.023 470.144 38.349 490.103 38.349 495.935 48.015 464.333 48.015 459.128 56.675 444.708 56.675 475.557 5.491"></polyline>
    </g>
</svg>