<?xml version="1.0" encoding="utf-8"?>
<!-- Generator: Adobe Illustrator 25.3.1, SVG Export Plug-In . SVG Version: 6.00 Build 0)  -->
<svg version="1.1" id="CPO_Black_x5F_png" xmlns="http://www.w3.org/2000/svg" xmlns:xlink="http://www.w3.org/1999/xlink" x="0px"
	 y="0px" viewBox="0 0 1045.2 208" style="enable-background:new 0 0 1045.2 208;" xml:space="preserve">
<g>
	<g id="INFINITI_xAE__00000121962629425898675830000007000953431667836823_">
		<g>
			<path d="M377.1,160.8v38.7c0,0-13.8-36.3-14.1-37.2c-0.3-1-1.1-1.5-2.5-1.5h-13.1V208h8.8v-38.2c0,0,13.5,35.8,13.9,36.8
				c0.3,0.9,1.2,1.5,2.3,1.5H386v-47.2H377.1z"/>
			<path d="M423.7,160.8V208h10.4c0,0,0-19,0-20.1h18.8v-8.6l-18.8,0v-9.8h19v-8.7H423.7z"/>
			<polygon points="664.4,160.8 664.4,169.9 676.1,169.9 676.1,208 686.6,208 686.6,169.9 698.2,169.9 698.2,160.8 			"/>
			<rect x="489.8" y="160.8" width="11.2" height="47.2"/>
			<rect x="617.4" y="160.8" width="11.2" height="47.2"/>
			<rect x="733.9" y="160.8" width="11.2" height="47.2"/>
			<rect x="297.3" y="160.8" width="11.2" height="47.2"/>
			<path d="M578.7,160.8h-8.9v38.7c0,0-13.8-36.3-14.1-37.2c-0.3-1-1.1-1.5-2.5-1.5h-13.1V208h8.8v-38.2c0,0,13.6,35.8,13.9,36.8
				c0.3,0.9,1.2,1.5,2.3,1.5h13.5V160.8z"/>
		</g>
		<path d="M764.3,202.2c0,2.8-2.3,5-5.1,5c-2.8,0-5.1-2.3-5.1-5c0-2.8,2.3-5,5.1-5C762,197.2,764.3,199.4,764.3,202.2 M763.2,202.2
			c0-2.7-2.6-4.7-5.4-3.9c-1.2,0.4-2.2,1.3-2.6,2.5c-0.9,2.8,1.2,5.4,3.9,5.4C761.4,206.3,763.2,204.4,763.2,202.2 M759.6,202.7
			l1.9,1.7h-1.1l-1.8-1.6h-0.1v1.6h-0.9v-4.6h0.9h1.1c0.9,0,1.6,0.4,1.6,1.5c0,0.7-0.5,1.3-1.3,1.4L759.6,202.7z M759.2,202.1
			c0.5,0,1-0.1,1-0.8c0-0.5-0.4-0.7-1.1-0.7h-0.8v1.5H759.2z"/>
	</g>
	<rect id="LINE_x5F_black_00000032608326473491721210000010457446566319375751_" x="297.3" y="103.6" width="453" height="5"/>
	<g id="CERTIFIED_PRE-OWNED_x5F_black_00000152260090509879584010000017058593706453015717_">
		<path d="M0,26.6C0,9.5,13.8,0,28.4,0C36.1,0,43,2.7,46,4.4l-2.1,3.9c-3-1.9-9.4-4-15.4-4C16.5,4.4,5,12.6,5,26.6
			c0,14.1,11.7,22.2,23.6,22.2c6.6,0,13.4-2.5,16.4-4.5l2.1,3.9c-3,1.8-10.3,5-18.6,5C13.9,53.2,0,43.7,0,26.6z"/>
		<path d="M103.8,48.1v4.4H65.9V0.7h37.3v4.4H70.7v18.8h18.6v4.4H70.7v19.8H103.8z"/>
		<path d="M158.1,52.4l-22.4-21h-7.2v21h-4.8V0.7h16.9c12.1,0,20.2,5.7,20.2,15.5c0,9-8,15.1-18.6,15.1l22.8,21H158.1z M128.6,27.4
			h12.9c9.5,0,14.4-5.5,14.4-11.1c0-6.3-4.9-11.1-15.9-11.1h-11.4V27.4z"/>
		<path d="M219.2,5.1h-19.5v47.3h-4.8V5.1h-20V0.7h44.3V5.1z"/>
		<path d="M237.2,0.7h4.8v51.7h-4.8V0.7z"/>
		<path d="M271.8,5.1v19.7h22.4v4.4h-22.4v23.3H267V0.7h38.1v4.4H271.8z"/>
		<path d="M323.5,0.7h4.8v51.7h-4.8V0.7z"/>
		<path d="M391.1,48.1v4.4h-37.9V0.7h37.3v4.4h-32.5v18.8h18.6v4.4h-18.6v19.8H391.1z"/>
		<path d="M455.4,26.2c0,15.1-11,26.2-28.3,26.2h-16V0.7h16C444.4,0.7,455.4,11.1,455.4,26.2z M450.6,26.1c0-12.7-9.6-21-23.7-21
			h-10.9v43h10.9C440.5,48.1,450.6,38.8,450.6,26.1z"/>
		<path d="M544.4,18.1c0,9.7-7,17.3-19.9,17.3h-14.8v17h-4.8V0.7h19.6C537.4,0.7,544.4,8.4,544.4,18.1z M539.4,18.1
			c0-6.9-4.4-13-16.3-13h-13.4V31h13.4C535,31,539.4,25,539.4,18.1z"/>
		<path d="M598.3,52.4l-22.4-21h-7.2v21h-4.8V0.7h16.9c12.1,0,20.2,5.7,20.2,15.5c0,9-8,15.1-18.6,15.1l22.8,21H598.3z M568.7,27.4
			h12.9c9.5,0,14.4-5.5,14.4-11.1c0-6.3-4.9-11.1-15.9-11.1h-11.4V27.4z"/>
		<path d="M660.9,48.1v4.4H623V0.7h37.3v4.4h-32.5v18.8h18.6v4.4h-18.6v19.8H660.9z"/>
		<path d="M673.1,29.3h22.9v4.2h-22.9V29.3z"/>
		<path d="M713.8,26.5c0-14.9,11.9-26.5,27-26.5c15.1,0,27,11.6,27,26.5s-11.9,26.7-27,26.7C725.7,53.2,713.8,41.4,713.8,26.5z
			 M762.9,26.5c0-11.9-10.1-22.1-22.1-22.1c-11.9,0-22.1,10.2-22.1,22.1c0,11.9,10.1,22.3,22.1,22.3
			C752.8,48.8,762.9,38.5,762.9,26.5z"/>
		<path d="M782,0.7h5l14.2,44.2l16.1-42.6h3.2l16.1,42.6l14.2-44.2h5l-16.9,51.7h-4.4L818.9,11l-15.7,41.4h-4.4L782,0.7z"/>
		<path d="M874.6,0.7h3.6l35,43.3V0.7h4.8v51.7h-3.6l-35-42.8v42.8h-4.8V0.7z"/>
		<path d="M980.9,48.1v4.4H943V0.7h37.3v4.4h-32.5v18.8h18.6v4.4h-18.6v19.8H980.9z"/>
		<path d="M1045.2,26.2c0,15.1-11,26.2-28.3,26.2h-16V0.7h16C1034.2,0.7,1045.2,11.1,1045.2,26.2z M1040.3,26.1
			c0-12.7-9.6-21-23.7-21h-10.9v43h10.9C1030.3,48.1,1040.3,38.8,1040.3,26.1z"/>
	</g>
</g>
</svg>
