<svg id="Layer_16" data-name="Layer 16" xmlns="http://www.w3.org/2000/svg" viewBox="0 0 125 80"><defs><style>.cls-1{fill:#463738;}</style></defs><title>Lincoln1</title><polygon class="cls-1" points="22.31 51.71 22.74 51.71 22.74 28.29 22.31 28.29 22.31 51.71 22.31 51.71"/><polygon class="cls-1" points="30.04 32.8 31.14 32.8 31.14 36.83 33.65 36.83 33.65 37.84 30.04 37.84 30.04 32.8 30.04 32.8"/><polygon class="cls-1" points="34.78 32.8 35.89 32.8 35.89 37.84 34.78 37.84 34.78 32.8 34.78 32.8"/><polygon class="cls-1" points="37.49 32.8 38.51 32.8 40.87 35.9 40.87 32.8 41.96 32.8 41.96 37.84 41.02 37.84 38.58 34.64 38.58 37.84 37.49 37.84 37.49 32.8 37.49 32.8"/><path class="cls-1" d="M43.3,35.34v0a2.56,2.56,0,0,1,2.62-2.6,2.61,2.61,0,0,1,2,.78l-.71.81a1.84,1.84,0,0,0-1.28-.57,1.49,1.49,0,0,0-1.46,1.57h0a1.49,1.49,0,0,0,1.46,1.58,1.83,1.83,0,0,0,1.32-.59l.7.71a2.65,2.65,0,0,1-4.64-1.68Z"/><path class="cls-1" d="M52.93,35.34v0a1.53,1.53,0,0,0-1.52-1.58,1.5,1.5,0,0,0-1.51,1.57h0a1.53,1.53,0,0,0,1.52,1.58,1.5,1.5,0,0,0,1.51-1.56Zm-4.19,0v0a2.68,2.68,0,0,1,5.35,0h0a2.68,2.68,0,0,1-5.35,0Z"/><polygon class="cls-1" points="55.42 32.8 56.52 32.8 56.52 36.83 59.03 36.83 59.03 37.84 55.42 37.84 55.42 32.8 55.42 32.8"/><polygon class="cls-1" points="60.14 32.8 61.16 32.8 63.52 35.9 63.52 32.8 64.61 32.8 64.61 37.84 63.67 37.84 61.23 34.64 61.23 37.84 60.14 37.84 60.14 32.8 60.14 32.8"/><path class="cls-1" d="M29.89,44.87h0a2.35,2.35,0,0,1,2.37-2.42,2.45,2.45,0,0,1,1.82.74l-.36.39a2,2,0,0,0-1.47-.64,1.83,1.83,0,0,0-1.81,1.92h0a1.84,1.84,0,0,0,1.81,1.93,2.06,2.06,0,0,0,1.51-.67l.35.34a2.47,2.47,0,0,1-1.88.82,2.33,2.33,0,0,1-2.34-2.41Z"/><polygon class="cls-1" points="35.34 42.52 38.73 42.52 38.73 43 35.87 43 35.87 44.6 38.43 44.6 38.43 45.08 35.87 45.08 35.87 46.72 38.76 46.72 38.76 47.2 35.34 47.2 35.34 42.52 35.34 42.52"/><path class="cls-1" d="M42,44.91c.7,0,1.2-.37,1.2-1h0c0-.58-.44-.92-1.2-.92H40.6v1.9Zm-2-2.39h2a1.85,1.85,0,0,1,1.34.47,1.3,1.3,0,0,1,.36.92h0a1.38,1.38,0,0,1-1.27,1.37l1.43,1.91h-.65l-1.35-1.82H40.6V47.2h-.53V42.52Z"/><polygon class="cls-1" points="46.35 43.01 44.77 43.01 44.77 42.52 48.45 42.52 48.45 43.01 46.88 43.01 46.88 47.2 46.35 47.2 46.35 43.01 46.35 43.01"/><polygon class="cls-1" points="49.71 42.52 50.24 42.52 50.24 47.2 49.71 47.2 49.71 42.52 49.71 42.52"/><polygon class="cls-1" points="51.93 42.52 55.3 42.52 55.3 43.01 52.46 43.01 52.46 44.68 55 44.68 55 45.16 52.46 45.16 52.46 47.2 51.93 47.2 51.93 42.52 51.93 42.52"/><polygon class="cls-1" points="56.57 42.52 57.1 42.52 57.1 47.2 56.57 47.2 56.57 42.52 56.57 42.52"/><polygon class="cls-1" points="58.79 42.52 62.18 42.52 62.18 43 59.32 43 59.32 44.6 61.88 44.6 61.88 45.08 59.32 45.08 59.32 46.72 62.21 46.72 62.21 47.2 58.79 47.2 58.79 42.52 58.79 42.52"/><path class="cls-1" d="M64.05,43v3.7h1.09a1.81,1.81,0,0,0,1.94-1.84h0A1.82,1.82,0,0,0,65.14,43Zm-.53-.49h1.62a2.33,2.33,0,0,1,2.49,2.33h0a2.34,2.34,0,0,1-2.49,2.34H63.52V42.52Z"/><path class="cls-1" d="M73,45.07c.78,0,1.29-.42,1.29-1v0c0-.67-.5-1-1.26-1H71.89v2.06Zm-1.68-2.55h1.75c1.06,0,1.75.56,1.75,1.48v0c0,1-.84,1.53-1.84,1.53H71.89V47.2h-.53V42.52Z"/><path class="cls-1" d="M78.07,44.91c.7,0,1.2-.37,1.2-1h0c0-.58-.44-.92-1.2-.92H76.63v1.9Zm-2-2.39h2a1.84,1.84,0,0,1,1.33.47,1.3,1.3,0,0,1,.36.92h0a1.38,1.38,0,0,1-1.27,1.37L80,47.2h-.65L78,45.38H76.63V47.2H76.1V42.52Z"/><polygon class="cls-1" points="81.27 42.52 84.65 42.52 84.65 43 81.8 43 81.8 44.6 84.35 44.6 84.35 45.08 81.8 45.08 81.8 46.72 84.69 46.72 84.69 47.2 81.27 47.2 81.27 42.52 81.27 42.52"/><polygon class="cls-1" points="85.69 44.92 87.55 44.92 87.55 45.46 85.69 45.46 85.69 44.92 85.69 44.92"/><path class="cls-1" d="M93.1,44.87h0a1.86,1.86,0,0,0-1.85-1.93,1.83,1.83,0,0,0-1.83,1.92h0a1.84,1.84,0,1,0,3.68,0Zm-4.23,0h0a2.39,2.39,0,1,1,4.78,0h0a2.38,2.38,0,0,1-2.4,2.42,2.35,2.35,0,0,1-2.38-2.41Z"/><polygon class="cls-1" points="94.48 42.52 95.06 42.52 96.39 46.42 97.68 42.5 98.11 42.5 99.4 46.42 100.74 42.52 101.29 42.52 99.62 47.23 99.17 47.23 97.89 43.43 96.59 47.23 96.15 47.23 94.48 42.52 94.48 42.52"/><polygon class="cls-1" points="102.52 42.52 103.01 42.52 105.96 46.27 105.96 42.52 106.48 42.52 106.48 47.2 106.06 47.2 103.03 43.36 103.03 47.2 102.52 47.2 102.52 42.52 102.52 42.52"/><polygon class="cls-1" points="108.16 42.52 111.55 42.52 111.55 43 108.69 43 108.69 44.6 111.24 44.6 111.24 45.08 108.69 45.08 108.69 46.72 111.58 46.72 111.58 47.2 108.16 47.2 108.16 42.52 108.16 42.52"/><path class="cls-1" d="M113.41,43v3.7h1.1a1.81,1.81,0,0,0,1.94-1.84h0A1.82,1.82,0,0,0,114.51,43Zm-.52-.49h1.62A2.34,2.34,0,0,1,117,44.85h0a2.34,2.34,0,0,1-2.49,2.34h-1.62V42.52Z"/><path class="cls-1" d="M13.53,49.87c-.13.61-.29.62-.75.68l-.25,0h0s-.07,0-.09.14-.06.35-.13.79a.23.23,0,0,1-.2.2c.15-3.76.21-9.84.21-10.19,0-.74.08-1,1.07-1l1.67-.12c0,.11-.07.15-.12.17l-.33.12c-.09,0-.14.06-.14.14v0h0a51.91,51.91,0,0,1-.94,9M11,51.51c-.07-.44-.09-.55-.13-.79s0-.13-.09-.14h0l-.25,0c-.46-.06-.62-.07-.74-.68a50.33,50.33,0,0,1-1-9h0v0c0-.08,0-.11-.13-.14l-.34-.12c-.05,0-.08-.06-.11-.17l1.66.12c1,.05,1.08.3,1.08,1,0,.35.06,6.42.2,10.19a.24.24,0,0,1-.2-.2M9.74,30.13c.12-.61.28-.62.74-.68l.25,0h0c.06,0,.08,0,.09-.15s.06-.34.13-.78a.24.24,0,0,1,.2-.2C11,32.1,11,38.15,11,38.48c0,.74-.08,1-1.08,1l-1.66.12c0-.11.06-.15.11-.17l.34-.12c.08,0,.13-.06.13-.14v0h0a50.33,50.33,0,0,1,1-9m2.57-1.64c.07.44.09.55.13.78s0,.14.09.15h0l.25,0c.46.06.62.07.75.68a51.91,51.91,0,0,1,.94,9h0v0c0,.08,0,.11.14.14l.33.12c.05,0,.08.06.12.17l-1.67-.12c-1-.06-1.07-.3-1.07-1,0-.35-.06-6.39-.21-10.19a.22.22,0,0,1,.2.2M15.26,40c0-.5,0-.48,0-.66h0A67.93,67.93,0,0,0,14.31,29c-.12-.71-.17-.79-.94-.9l-1-.12h0c-.3,0-.69,0-.69,0s-.39,0-.68,0h0l-1.06.12c-.76.11-.82.19-.94.9A67.93,67.93,0,0,0,8,39.33H8c0,.18,0,.16,0,.66s0,.48,0,.66H8A68,68,0,0,0,9,51c.12.71.18.78.94.9l1,.11h0c.3,0,.78,0,.78,0s.49,0,.78,0h0c.3,0,.61-.06.95-.11.77-.12.82-.19.94-.9a68,68,0,0,0,.94-10.34h0c0-.18,0-.16,0-.66"/></svg>