<svg id="Layer_1" data-name="Layer 1" xmlns="http://www.w3.org/2000/svg" viewBox="0 0 851.3 224.2">
  <defs>
    <style>
      .cls-1 {
        fill: #010101;
      }
    </style>
  </defs>
  <g>
    <path class="cls-1" d="M7.4,10.6H18V33.3H45.3V10.6H55.8v55H45.3V42.4H18V65.6H7.4Z" transform="translate(-4.2 -6.3)"/>
    <path class="cls-1" d="M78.7,60.3,62,24H73L84.1,48.9,94.4,24h11.1L81.1,79.7H70Z" transform="translate(-4.2 -6.3)"/>
    <path class="cls-1" d="M149.3,65.6H139V59.8c-2.3,3.7-6.7,6.8-13.2,6.8-10.8,0-15.9-7.4-15.9-18.1V24h10.3V47.4c0,6.6,3.2,10.1,9.2,10.1a9.69,9.69,0,0,0,9.5-7.3V24h10.3V65.6Z" transform="translate(-4.2 -6.3)"/>
    <path class="cls-1" d="M159,24h10.3v5.8c2.3-3.7,6.7-6.8,13.2-6.8,10.8,0,15.9,7.4,15.9,18.1V65.6H188V42.2c0-6.6-3.2-10.1-9.2-10.1a9.69,9.69,0,0,0-9.5,7.3V65.6H159Z" transform="translate(-4.2 -6.3)"/>
    <path class="cls-1" d="M238.3,60.9a17,17,0,0,1-13,5.7c-11.6,0-20.1-8.6-20.1-21.8S213.7,23,225.3,23a16.94,16.94,0,0,1,13,5.8V8.2h10.3V65.6H238.3Zm0-9.7V38.4c-1.9-4-6.1-6.3-10.8-6.3-6.7,0-11.9,4.6-11.9,12.7s5.2,12.6,11.9,12.6C232.2,57.5,236.5,55.1,238.3,51.2Z" transform="translate(-4.2 -6.3)"/>
    <path class="cls-1" d="M289.2,60.9a17,17,0,0,1-13,5.7c-11.6,0-20.1-8.6-20.1-21.8S264.6,23,276.2,23a16.94,16.94,0,0,1,13,5.8V24h10.3V65.7H289.2Zm0-9.7V38.4c-1.9-4-6.1-6.3-10.8-6.3-6.7,0-11.9,4.6-11.9,12.7s5.2,12.6,11.9,12.6A11.54,11.54,0,0,0,289.2,51.2Z" transform="translate(-4.2 -6.3)"/>
    <path class="cls-1" d="M309.1,6.3h10.5V17H309.1Zm.2,17.7h10.3V65.7H309.3Z" transform="translate(-4.2 -6.3)"/>
    <path class="cls-1" d="M4.2,118.4c0-16.2,11.6-28.3,27.7-28.3,11.3,0,19.7,5.3,24.4,13.4l-7.8,5.8c-3.4-5.8-8.5-9.4-16.4-9.4-10.6,0-17.2,8.1-17.2,18.6s6.6,18.6,17.2,18.6c7.9,0,13-3.7,16.4-9.4l7.8,5.8c-4.7,8.1-13.1,13.4-24.4,13.4C15.8,146.8,4.2,134.7,4.2,118.4Z" transform="translate(-4.2 -6.3)"/>
    <path class="cls-1" d="M59.9,125.2c0-12.9,8.7-21.7,20.7-21.7s19.8,8.3,19.8,20.2a31.3,31.3,0,0,1-.5,5H70.1c1,5.5,4.9,9.3,12,9.3a14.81,14.81,0,0,0,11.7-6.1l5.6,6.6a22.74,22.74,0,0,1-17.8,8.2C68.3,146.7,59.9,137.2,59.9,125.2Zm10.4-4.9H90.4c-.6-5.4-4.2-8.4-9.8-8.4C75.4,111.9,71.7,114.8,70.3,120.3Z" transform="translate(-4.2 -6.3)"/>
    <path class="cls-1" d="M107.7,104.4h10.2v6.4c2.4-4.4,6.4-7.4,11.8-7.4h1.2v9.7c-6.1.1-11,1.8-13,8v24.5H107.7Z" transform="translate(-4.2 -6.3)"/>
    <path class="cls-1" d="M139.6,129.9V112.6h-6.9v-8.2h7.2V94h9.8v10.5h9.5v8.2h-9.5v17.8c0,5.3,2.5,7.1,7.6,7.1h1.9v8.2a22.36,22.36,0,0,1-4.6.5C144.7,146.1,139.6,141.2,139.6,129.9Z" transform="translate(-4.2 -6.3)"/>
    <path class="cls-1" d="M165.9,86.9h10.4V97.5H165.9Zm.2,17.5h10.2v41.2H166.1Z" transform="translate(-4.2 -6.3)"/>
    <path class="cls-1" d="M189.4,112.6H183v-8.2h6.4V102c0-7.9,4.7-13.9,14.4-13.9,1.3,0,2.9.1,3.8.2v8.2h-1.8c-3.8,0-6.3,1.5-6.3,5.5v2.3h8.1v8.2h-8.1v33H189.3V112.6Z" transform="translate(-4.2 -6.3)"/>
    <path class="cls-1" d="M213.4,86.9h10.4V97.5H213.4Zm.2,17.5h10.2v41.2H213.6Z" transform="translate(-4.2 -6.3)"/>
    <path class="cls-1" d="M231.2,125.2c0-12.9,8.7-21.7,20.7-21.7s19.8,8.3,19.8,20.2a31.3,31.3,0,0,1-.5,5H241.4c1,5.5,4.9,9.3,12,9.3a14.81,14.81,0,0,0,11.7-6.1l5.6,6.6a22.74,22.74,0,0,1-17.8,8.2C239.6,146.7,231.2,137.2,231.2,125.2Zm10.4-4.9h20.1c-.6-5.4-4.2-8.4-9.8-8.4C246.6,111.9,243,114.8,241.6,120.3Z" transform="translate(-4.2 -6.3)"/>
    <path class="cls-1" d="M309.4,140.9a17,17,0,0,1-12.9,5.7c-11.4,0-19.8-8.5-19.8-21.5s8.4-21.6,19.8-21.6a16.88,16.88,0,0,1,12.9,5.8V88.9h10.2v56.8H309.4Zm0-9.5V118.8c-1.8-3.9-6.1-6.2-10.6-6.2-6.6,0-11.8,4.6-11.8,12.6s5.1,12.5,11.8,12.5C303.4,137.6,307.6,135.2,309.4,131.4Z" transform="translate(-4.2 -6.3)"/>
    <path class="cls-1" d="M347,122.4V91.2h10.4v30.5c0,9.3,3.7,15.4,12.7,15.4s12.6-6.1,12.6-15.4V91.2h10.4v31.2c0,14-7.7,24.3-23,24.3C354.6,146.8,347,136.4,347,122.4Z" transform="translate(-4.2 -6.3)"/>
    <path class="cls-1" d="M398.5,138.7l5.5-6.4a16.42,16.42,0,0,0,12.2,6.2c4.4,0,7.5-1.8,7.5-4.8,0-2.7-2.5-3.8-6.4-4.5l-3.7-.6c-7.7-1.3-12.3-5.5-12.3-12.2,0-7.1,6.1-12.9,16.4-12.9a18.94,18.94,0,0,1,14.5,6.2l-5.4,6.5a12.73,12.73,0,0,0-9.5-4.4c-3.8,0-5.8,1.8-5.8,4s1.6,3.2,4.6,3.7l3.7.6c9.4,1.4,14.2,5.8,14.2,13,0,7.4-6.5,13.7-18.1,13.7A22.28,22.28,0,0,1,398.5,138.7Z" transform="translate(-4.2 -6.3)"/>
    <path class="cls-1" d="M438.7,125.2c0-12.9,8.7-21.7,20.7-21.7s19.8,8.3,19.8,20.2a31.3,31.3,0,0,1-.5,5H449c1,5.5,4.9,9.3,12,9.3a14.81,14.81,0,0,0,11.7-6.1l5.6,6.6a22.74,22.74,0,0,1-17.8,8.2C447.1,146.7,438.7,137.2,438.7,125.2Zm10.4-4.9h20.1c-.6-5.4-4.2-8.4-9.8-8.4C454.2,111.9,450.5,114.8,449.1,120.3Z" transform="translate(-4.2 -6.3)"/>
    <path class="cls-1" d="M517,140.9a17,17,0,0,1-12.9,5.7c-11.4,0-19.8-8.5-19.8-21.5s8.4-21.6,19.8-21.6a16.88,16.88,0,0,1,12.9,5.8V88.9h10.2v56.8H517Zm0-9.5V118.8c-1.8-3.9-6.1-6.2-10.6-6.2-6.6,0-11.8,4.6-11.8,12.6s5.1,12.5,11.8,12.5A12.08,12.08,0,0,0,517,131.4Z" transform="translate(-4.2 -6.3)"/>
    <path class="cls-1" d="M547.2,91.2H558l15.9,42.9,15.9-42.9h10.8L580,145.6H567.8Z" transform="translate(-4.2 -6.3)"/>
    <path class="cls-1" d="M598.6,125.2c0-12.9,8.7-21.7,20.7-21.7s19.8,8.3,19.8,20.2a31.3,31.3,0,0,1-.5,5H608.8c1,5.5,4.9,9.3,12,9.3a14.81,14.81,0,0,0,11.7-6.1l5.6,6.6a22.74,22.74,0,0,1-17.8,8.2C607,146.7,598.6,137.2,598.6,125.2Zm10.4-4.9h20c-.6-5.4-4.2-8.4-9.8-8.4C614,111.9,610.3,114.8,609,120.3Z" transform="translate(-4.2 -6.3)"/>
    <path class="cls-1" d="M646.3,88.8h10.2v21.4c2.2-3.7,6.6-6.7,13-6.7,10.7,0,15.7,7.4,15.7,17.9v24.2H675V122.5c0-6.6-3.1-10-9.1-10a9.68,9.68,0,0,0-9.4,7.2v25.9H646.3Z" transform="translate(-4.2 -6.3)"/>
    <path class="cls-1" d="M694.2,86.9h10.4V97.5H694.2Zm.1,17.5h10.2v41.2H694.3Z" transform="translate(-4.2 -6.3)"/>
    <path class="cls-1" d="M711.8,125.1c0-11.3,7.8-21.6,21.4-21.6a20.47,20.47,0,0,1,18.3,10.2l-7.2,5.5c-2.2-3.9-5.7-6.7-10.6-6.7-7,0-11.7,4.9-11.7,12.6s4.6,12.5,11.7,12.5c4.9,0,8.3-2.8,10.6-6.7l7.2,5.5a20.47,20.47,0,0,1-18.3,10.2C719.6,146.6,711.8,136.3,711.8,125.1Z" transform="translate(-4.2 -6.3)"/>
    <path class="cls-1" d="M758.2,88.8h10.2v56.8H758.2Z" transform="translate(-4.2 -6.3)"/>
    <path class="cls-1" d="M775.8,125.2c0-12.9,8.7-21.7,20.7-21.7s19.8,8.3,19.8,20.2a31.3,31.3,0,0,1-.5,5H786c1,5.5,4.9,9.3,12,9.3a14.81,14.81,0,0,0,11.7-6.1l5.6,6.6a22.74,22.74,0,0,1-17.8,8.2C784.2,146.7,775.8,137.2,775.8,125.2Zm10.4-4.9h20.1c-.6-5.4-4.2-8.4-9.8-8.4C791.2,111.9,787.5,114.8,786.2,120.3Z" transform="translate(-4.2 -6.3)"/>
    <path class="cls-1" d="M820,138.7l5.5-6.4a16.42,16.42,0,0,0,12.2,6.2c4.4,0,7.5-1.8,7.5-4.8,0-2.7-2.5-3.8-6.4-4.5l-3.7-.6c-7.7-1.3-12.3-5.5-12.3-12.2,0-7.1,6.1-12.9,16.4-12.9a18.94,18.94,0,0,1,14.5,6.2l-5.4,6.5a12.73,12.73,0,0,0-9.5-4.4c-3.8,0-5.8,1.8-5.8,4s1.6,3.2,4.6,3.7l3.7.6c9.4,1.4,14.2,5.8,14.2,13,0,7.4-6.5,13.7-18.1,13.7A22.44,22.44,0,0,1,820,138.7Z" transform="translate(-4.2 -6.3)"/>
  </g>
  <g>
    <path class="cls-1" d="M23.5,194.3H10.8v-4.9H41.7v4.9H29v35.4H23.5Z" transform="translate(-4.2 -6.3)"/>
    <path class="cls-1" d="M46.8,187.6h5.3v17a11.07,11.07,0,0,1,9.8-5.3c7.7,0,11.8,5,11.8,13v17.3H68.4V212.8c0-5.7-2.8-8.7-7.9-8.7a8.63,8.63,0,0,0-8.4,6.1v19.4H46.8v-42Z" transform="translate(-4.2 -6.3)"/>
    <path class="cls-1" d="M79.8,214.9c0-9.2,6-15.5,14.6-15.5s14.2,6.3,14.2,14.6a26.35,26.35,0,0,1-.2,2.8H85.2c.7,5.4,4.1,8.9,9.9,8.9a11.8,11.8,0,0,0,9.7-5.2l3.3,3.4a16.06,16.06,0,0,1-13.2,6.6C85.8,230.4,79.8,223.7,79.8,214.9Zm5.5-2.6h18a8.43,8.43,0,0,0-8.8-8.2C89.6,204.1,86.1,207.1,85.3,212.3Z" transform="translate(-4.2 -6.3)"/>
    <path class="cls-1" d="M134.1,229.7h-5.3V187.6h5.3v16.6a12.56,12.56,0,0,1,10.1-4.9c8.4,0,14.5,6.3,14.5,15.5s-6.2,15.5-14.5,15.5a12.56,12.56,0,0,1-10.1-4.9Zm19.2-14.9c0-6.6-4.4-10.6-10-10.6a10.15,10.15,0,0,0-9.2,5.6v10.1a9.94,9.94,0,0,0,9.2,5.6C148.8,225.5,153.3,221.5,153.3,214.8Z" transform="translate(-4.2 -6.3)"/>
    <path class="cls-1" d="M163.3,214.9c0-9.2,6-15.5,14.6-15.5s14.2,6.3,14.2,14.6a26.35,26.35,0,0,1-.2,2.8H168.7c.7,5.4,4.1,8.9,9.9,8.9a11.8,11.8,0,0,0,9.7-5.2l3.3,3.4a16.06,16.06,0,0,1-13.2,6.6C169.3,230.4,163.3,223.7,163.3,214.9Zm5.4-2.6h18a8.43,8.43,0,0,0-8.8-8.2C173.1,204.1,169.6,207.1,168.7,212.3Z" transform="translate(-4.2 -6.3)"/>
    <path class="cls-1" d="M195.3,224.2l3.4-3.6a11.45,11.45,0,0,0,9.2,5c3.9,0,6.9-1.5,6.9-4.6,0-2.4-2.3-3.7-5.9-4.2l-2.6-.4c-5.3-.8-8.7-3.5-8.7-8.2s3.9-8.7,11-8.7a12.94,12.94,0,0,1,10.4,4.8l-3.3,3.6a9.09,9.09,0,0,0-7.2-3.6c-3.7,0-5.5,1.8-5.5,3.7s1.7,3,4.4,3.4l2.7.4c6.5.9,10.1,4,10.1,9,0,5.3-4.7,9.6-12.4,9.6A15.57,15.57,0,0,1,195.3,224.2Z" transform="translate(-4.2 -6.3)"/>
    <path class="cls-1" d="M227.9,219.3V204.4h-5.2V200H228v-7.7h5.2V200h7.3v4.4h-7.3v15.1c0,4.4,2,5.9,6.3,5.9h.9v4.4a16.59,16.59,0,0,1-2.4.2C231.4,230,227.9,226.7,227.9,219.3Z" transform="translate(-4.2 -6.3)"/>
    <path class="cls-1" d="M258.2,214.9c0-8.6,5.8-15.5,15.3-15.5s15.3,6.9,15.3,15.5-5.8,15.5-15.3,15.5S258.2,223.4,258.2,214.9Zm25.1,0c0-6.5-4.3-10.7-9.8-10.7s-9.8,4.1-9.8,10.7,4.3,10.7,9.8,10.7S283.3,221.4,283.3,214.9Z" transform="translate(-4.2 -6.3)"/>
    <path class="cls-1" d="M296.8,204.4h-5V200h5v-3.3c0-5.5,3.3-9.5,9.7-9.5a14.08,14.08,0,0,1,2.1.1v4.4h-.9c-3.8,0-5.6,1.5-5.6,5v3.2h6.5v4.4h-6.5v25.3h-5.3V204.4Z" transform="translate(-4.2 -6.3)"/>
    <path class="cls-1" d="M323.3,200h5.6l7.2,22.5,8.1-22.5h5.4l8.1,22.5,7.2-22.5h5.6l-10,29.7h-5.2l-8.4-23-8.5,23h-5.2Z" transform="translate(-4.2 -6.3)"/>
    <path class="cls-1" d="M375.3,187.6h5.3v17a11.07,11.07,0,0,1,9.8-5.3c7.7,0,11.8,5,11.8,13v17.3h-5.3V212.8c0-5.7-2.8-8.7-7.9-8.7a8.63,8.63,0,0,0-8.4,6.1v19.4h-5.3Z" transform="translate(-4.2 -6.3)"/>
    <path class="cls-1" d="M432.9,225.5a12.56,12.56,0,0,1-10.1,4.9c-8.4,0-14.5-6.3-14.5-15.5s6.2-15.5,14.5-15.5a12.56,12.56,0,0,1,10.1,4.9V200h5.3v29.7h-5.3Zm0-5.4V209.8a9.86,9.86,0,0,0-9.2-5.5c-5.6,0-10,4-10,10.6s4.4,10.7,10,10.7A10.2,10.2,0,0,0,432.9,220.1Z" transform="translate(-4.2 -6.3)"/>
    <path class="cls-1" d="M448.5,219.3V204.4h-5.2V200h5.3v-7.7h5.2V200h7.3v4.4h-7.3v15.1c0,4.4,2,5.9,6.3,5.9h.9v4.4a16.59,16.59,0,0,1-2.4.2C452,230,448.5,226.7,448.5,219.3Z" transform="translate(-4.2 -6.3)"/>
    <path class="cls-1" d="M469.2,196.1h-3v-6.7h6.7v5.9l-3,9.3h-3.4Z" transform="translate(-4.2 -6.3)"/>
    <path class="cls-1" d="M475.5,224.2l3.4-3.6a11.45,11.45,0,0,0,9.2,5c3.9,0,6.9-1.5,6.9-4.6,0-2.4-2.3-3.7-5.9-4.2l-2.6-.4c-5.3-.8-8.7-3.5-8.7-8.2s3.9-8.7,11-8.7a12.94,12.94,0,0,1,10.4,4.8l-3.3,3.6a9.09,9.09,0,0,0-7.2-3.6c-3.7,0-5.5,1.8-5.5,3.7s1.7,3,4.4,3.4l2.7.4c6.5.9,10.1,4,10.1,9,0,5.3-4.7,9.6-12.4,9.6A15.42,15.42,0,0,1,475.5,224.2Z" transform="translate(-4.2 -6.3)"/>
    <path class="cls-1" d="M520.3,200h5.3v4.5a11,11,0,0,1,9.8-5.2c7.7,0,11.8,5,11.8,13v17.3h-5.3V212.8c0-5.7-2.8-8.7-7.9-8.7a8.46,8.46,0,0,0-8.4,6.1v19.4h-5.3V200Z" transform="translate(-4.2 -6.3)"/>
    <path class="cls-1" d="M553.3,214.9c0-9.2,6-15.5,14.6-15.5s14.2,6.3,14.2,14.6a26.35,26.35,0,0,1-.2,2.8H558.7c.7,5.4,4.1,8.9,9.9,8.9a11.8,11.8,0,0,0,9.7-5.2l3.3,3.4a16.06,16.06,0,0,1-13.2,6.6C559.3,230.4,553.3,223.7,553.3,214.9Zm5.5-2.6h18a8.43,8.43,0,0,0-8.8-8.2C563.1,204.1,559.6,207.1,558.8,212.3Z" transform="translate(-4.2 -6.3)"/>
    <path class="cls-1" d="M583.8,229.5l10.9-15-10.3-14.3V200h6l7.8,11,7.8-11h6.1v.2l-10.3,14.3,10.9,15v.2h-6.1L598.2,218l-8.4,11.7h-6.1v-.2Z" transform="translate(-4.2 -6.3)"/>
    <path class="cls-1" d="M619.5,219.3V204.4h-5.2V200h5.3v-7.7h5.2V200h7.3v4.4h-7.3v15.1c0,4.4,2,5.9,6.3,5.9h.9v4.4a16.59,16.59,0,0,1-2.4.2C623,230,619.5,226.7,619.5,219.3Z" transform="translate(-4.2 -6.3)"/>
    <path class="cls-1" d="M637.3,222.7h7.1v7.1h-7.1Z" transform="translate(-4.2 -6.3)"/>
  </g>
</svg>
