<?xml version="1.0" encoding="UTF-8"?>
<svg viewBox="0 0 583 118" version="1.1" xmlns="http://www.w3.org/2000/svg" xmlns:xlink="http://www.w3.org/1999/xlink">
    <title>Horizontal HCPV logo (CMYK)</title>
    <defs>
        <polygon id="path-1" points="0 0 564.372 0 564.372 37.203 0 37.203"></polygon>
    </defs>
    <g id="Horizontal-HCPV-logo-(CMYK)" stroke="none" stroke-width="1" fill="none" fill-rule="evenodd">
        <path d="M224.184,34.997 C224.184,15.926 238.129,3.911 256.445,3.911 C263.25,3.911 269.887,6.012 273.836,9.372 C275.852,11.137 276.188,12.565 276.188,13.741 C276.188,16.43 274.088,18.614 271.23,18.614 C270.139,18.614 269.047,18.278 267.199,16.934 C264.846,14.917 260.898,13.237 256.445,13.237 C244.18,13.237 235.861,22.731 235.861,34.997 C235.861,47.936 243.758,56.925 256.023,56.925 C260.73,56.925 264.762,55.581 268.459,52.304 C270.223,50.792 271.316,50.54 272.406,50.54 C275.012,50.54 277.113,52.304 277.113,55.16 C277.113,56.505 276.523,58.101 274.928,59.697 C271.148,63.393 264.426,66.42 255.941,66.42 C237.373,66.42 224.184,53.564 224.184,34.997" id="Fill-28" fill="#0072AD"></path>
        <path d="M314.068,40.71 C314.068,35.501 311.129,30.964 304.574,30.964 C298.609,30.964 293.82,35.081 293.4,40.71 L314.068,40.71 Z M293.4,47.936 C293.82,53.648 299.029,57.849 304.91,57.849 C309.111,57.849 311.633,56.505 314.152,54.404 C315.58,53.229 316.504,52.977 317.598,52.977 C319.865,52.977 321.629,54.572 321.629,57.009 C321.629,57.849 321.293,59.361 319.949,60.621 C316,64.402 311.465,66.082 304.994,66.082 C292.561,66.082 283.318,58.101 283.318,44.995 C283.318,31.973 292.477,23.403 304.658,23.403 C314.404,23.403 322.301,28.948 323.898,40.794 C323.982,41.634 324.066,42.223 324.066,42.895 C324.066,46.423 322.133,47.936 318.773,47.936 L293.4,47.936 L293.4,47.936 Z" id="Fill-29" fill="#0072AD"></path>
        <path d="M337.246,65.662 C335.566,65.662 332.207,64.822 332.207,60.033 L332.207,29.2 C332.207,24.663 335.482,23.823 336.996,23.823 C338.592,23.823 341.867,24.663 341.867,29.2 L341.867,31.3 L342.035,31.3 C343.633,26.932 347.664,23.403 352.539,23.403 C355.563,23.403 357.746,24.915 357.746,27.856 C357.746,30.46 356.15,32.729 352.285,32.729 C345.9,32.729 342.289,37.518 342.289,44.238 L342.289,60.033 C342.289,64.822 338.928,65.662 337.246,65.662" id="Fill-30" fill="#0072AD"></path>
        <path d="M382.777,65.746 C372.107,65.746 369.754,59.193 369.754,51.464 L369.754,32.645 L366.479,32.645 C362.613,32.645 361.941,29.956 361.941,28.612 C361.941,27.268 362.613,24.579 366.479,24.579 L369.754,24.579 L369.754,17.606 C369.754,12.985 373.031,12.145 374.711,12.145 C376.391,12.145 379.668,12.985 379.668,17.606 L379.668,24.579 L385.969,24.579 C389.834,24.579 390.506,27.268 390.506,28.612 C390.506,29.956 389.834,32.645 385.969,32.645 L379.668,32.645 L379.668,51.38 C379.668,55.328 381.012,57.429 383.533,57.429 C383.953,57.429 384.541,57.345 385.129,57.261 C385.801,57.177 385.969,57.177 386.305,57.177 C388.826,57.177 390.17,59.025 390.17,60.959 C390.17,62.553 389.246,63.898 387.734,64.654 C386.391,65.326 384.625,65.746 382.777,65.746" id="Fill-31" fill="#0072AD"></path>
        <path d="M403.941,65.662 C402.262,65.662 398.902,64.822 398.902,60.033 L398.902,29.452 C398.902,24.663 402.262,23.823 403.941,23.823 C405.623,23.823 408.984,24.663 408.984,29.452 L408.984,60.033 C408.984,64.822 405.623,65.662 403.941,65.662 Z M403.859,16.934 C400.162,16.934 397.473,14.077 397.473,10.885 C397.473,7.692 400.162,4.836 403.859,4.836 C407.555,4.836 410.412,7.44 410.412,10.885 C410.412,14.329 407.555,16.934 403.859,16.934 L403.859,16.934 Z" id="Fill-32" fill="#0072AD"></path>
        <path d="M420.658,32.645 C416.793,32.645 416.121,29.956 416.121,28.612 C416.121,27.268 416.793,24.579 420.658,24.579 L424.521,24.579 L424.521,18.614 C424.521,8.952 428.303,0.383 439.98,0.383 C444.182,0.383 446.365,1.812 446.365,4.836 C446.365,7.105 444.854,8.952 441.662,8.952 C436.201,8.952 434.604,12.397 434.604,18.026 L434.604,24.579 L440.148,24.579 C444.014,24.579 444.686,27.268 444.686,28.612 C444.686,29.956 444.014,32.645 440.148,32.645 L434.604,32.645 L434.604,60.033 C434.604,64.822 431.244,65.662 429.563,65.662 C427.967,65.662 424.521,64.822 424.521,60.033 L424.521,32.645 L420.658,32.645" id="Fill-33" fill="#0072AD"></path>
        <path d="M459.045,65.662 C457.365,65.662 454.004,64.822 454.004,60.033 L454.004,29.452 C454.004,24.663 457.365,23.823 459.045,23.823 C460.725,23.823 464.086,24.663 464.086,29.452 L464.086,60.033 C464.086,64.822 460.725,65.662 459.045,65.662 Z M458.961,16.934 C455.264,16.934 452.576,14.077 452.576,10.885 C452.576,7.692 455.264,4.836 458.961,4.836 C462.658,4.836 465.514,7.44 465.514,10.885 C465.514,14.329 462.658,16.934 458.961,16.934 L458.961,16.934 Z" id="Fill-34" fill="#0072AD"></path>
        <path d="M504.744,40.71 C504.744,35.501 501.805,30.964 495.252,30.964 C489.287,30.964 484.498,35.081 484.078,40.71 L504.744,40.71 Z M484.078,47.936 C484.498,53.648 489.707,57.849 495.588,57.849 C499.787,57.849 502.309,56.505 504.828,54.404 C506.258,53.229 507.182,52.977 508.273,52.977 C510.541,52.977 512.307,54.572 512.307,57.009 C512.307,57.849 511.971,59.361 510.625,60.621 C506.678,64.402 502.141,66.082 495.672,66.082 C483.236,66.082 473.996,58.101 473.996,44.995 C473.996,31.973 483.152,23.403 495.336,23.403 C505.08,23.403 512.979,28.948 514.574,40.794 C514.658,41.634 514.742,42.223 514.742,42.895 C514.742,46.423 512.811,47.936 509.449,47.936 L484.078,47.936 L484.078,47.936 Z" id="Fill-35" fill="#0072AD"></path>
        <path d="M545.65,57.681 C553.043,57.681 557.496,51.044 557.496,44.743 C557.496,38.441 553.043,31.637 545.65,31.637 C537.836,31.637 534.057,38.273 534.057,44.574 C534.057,50.876 537.836,57.681 545.65,57.681 Z M562.453,65.662 C560.941,65.662 557.664,64.906 557.664,60.369 L557.664,58.857 L557.496,58.857 C554.723,63.479 549.262,66.082 543.633,66.082 C531.367,66.082 523.807,56.337 523.807,44.574 C523.807,32.645 531.871,23.403 543.381,23.403 C550.775,23.403 554.807,27.1 556.908,29.704 L557.16,29.704 L557.16,6.264 C557.16,1.475 560.52,0.635 562.201,0.635 C563.881,0.635 567.242,1.475 567.242,6.264 L567.242,60.369 C567.242,64.906 563.965,65.662 562.453,65.662 L562.453,65.662 Z" id="Fill-36" fill="#0072AD"></path>
        <path d="M232.945,96.842 L238.803,96.842 C244.18,96.842 247.107,94.682 247.107,90.65 C247.107,86.475 244.035,84.553 238.803,84.553 L232.945,84.553 L232.945,96.842 Z M239.09,81.576 C246.004,81.576 250.563,84.553 250.563,90.65 C250.563,96.748 245.906,99.772 238.996,99.772 L232.945,99.772 L232.945,113.981 C232.945,115.611 231.793,115.9 231.219,115.9 C230.641,115.9 229.49,115.611 229.49,113.981 L229.49,83.643 C229.49,82.25 230.162,81.576 231.555,81.576 L239.09,81.576 L239.09,81.576 Z" id="Fill-37" fill="#1A1919"></path>
        <path d="M270.434,115.9 C269.906,115.9 268.801,115.66 268.801,114.123 L268.801,98.043 C268.801,97.178 268.754,95.211 268.705,94.443 C268.656,93.002 269.762,92.764 270.242,92.764 C270.77,92.764 271.777,92.955 271.824,94.443 L271.922,96.939 L272.018,96.939 C273.266,94.346 276.051,92.522 279.219,92.522 C279.746,92.522 280.273,92.57 280.609,92.715 C281.33,93.002 281.521,93.578 281.521,94.01 C281.521,95.066 280.801,95.596 279.746,95.596 C279.266,95.596 278.977,95.547 278.641,95.547 C275.186,95.547 272.066,98.043 272.066,104.045 L272.066,114.123 C272.066,115.66 270.961,115.9 270.434,115.9" id="Fill-38" fill="#1A1919"></path>
        <path d="M314.02,102.604 C313.826,98.379 311.234,95.26 306.578,95.26 C302.209,95.26 298.992,98.764 298.705,102.604 L314.02,102.604 Z M298.656,105.195 C298.754,109.709 302.258,113.357 306.867,113.357 C309.986,113.357 312.051,111.869 313.348,110.428 C313.777,109.947 314.211,109.803 314.594,109.803 C315.363,109.803 316.082,110.332 316.082,111.244 C316.082,111.58 315.986,111.963 315.602,112.397 C313.348,114.893 310.322,116.141 306.867,116.141 C300.193,116.141 295.25,111.1 295.25,104.33 C295.25,97.563 300.193,92.522 306.578,92.522 C313.059,92.522 317.332,96.891 317.332,103.516 C317.332,104.619 316.754,105.195 315.555,105.195 L298.656,105.195 L298.656,105.195 Z" id="Fill-39" fill="#1A1919"></path>
        <path d="M335.184,105.291 C333.889,105.291 333.648,104.381 333.648,103.9 C333.648,103.467 333.889,102.557 335.184,102.557 L343.539,102.557 C344.834,102.557 345.074,103.467 345.074,103.9 C345.074,104.381 344.834,105.291 343.539,105.291 L335.184,105.291" id="Fill-40" fill="#1A1919"></path>
        <path d="M379.105,83.736 C370.369,83.736 365.041,90.65 365.041,98.572 C365.041,106.49 370.369,113.357 379.105,113.357 C387.844,113.357 393.172,106.49 393.172,98.572 C393.172,90.65 387.844,83.736 379.105,83.736 Z M379.105,116.428 C368.977,116.428 361.393,108.893 361.393,98.572 C361.393,88.25 368.977,80.713 379.105,80.713 C389.234,80.713 396.82,88.25 396.82,98.572 C396.82,108.893 389.234,116.428 379.105,116.428 L379.105,116.428 Z" id="Fill-41" fill="#1A1919"></path>
        <path d="M437.857,115.9 C437.186,115.9 436.129,115.66 435.602,114.029 L430.033,97.371 L429.936,97.371 L424.465,114.029 C423.936,115.66 422.879,115.9 422.207,115.9 C421.535,115.9 420.48,115.66 419.951,114.029 L413.76,95.115 C413.664,94.826 413.615,94.49 413.615,94.346 C413.615,93.338 414.383,92.764 415.344,92.764 C415.871,92.764 416.592,93.002 416.928,94.107 L422.256,111.34 L422.352,111.34 L428.016,94.395 C428.496,93.002 429.408,92.764 430.033,92.764 C430.656,92.764 431.568,93.002 432.049,94.395 L437.809,111.34 L437.904,111.34 L443.186,94.107 C443.521,93.002 444.193,92.764 444.77,92.764 C445.73,92.764 446.449,93.387 446.449,94.299 C446.449,94.443 446.402,94.826 446.307,95.115 L440.113,114.029 C439.586,115.66 438.529,115.9 437.857,115.9" id="Fill-42" fill="#1A1919"></path>
        <path d="M467.041,96.939 L467.137,96.939 C468.385,94.346 471.648,92.522 474.816,92.522 C480.529,92.522 483.361,96.219 483.361,101.787 L483.361,114.123 C483.361,115.66 482.258,115.9 481.73,115.9 C481.201,115.9 480.098,115.66 480.098,114.123 L480.098,103.131 C480.098,98.428 478.705,95.26 474,95.26 C470.545,95.26 467.184,98.043 467.184,104.045 L467.184,114.123 C467.184,115.66 466.08,115.9 465.553,115.9 C465.023,115.9 463.92,115.66 463.92,114.123 L463.92,98.043 C463.92,97.178 463.871,95.211 463.824,94.443 C463.775,93.002 464.881,92.764 465.359,92.764 C465.889,92.764 466.896,92.955 466.943,94.443 L467.041,96.939" id="Fill-43" fill="#1A1919"></path>
        <path d="M520.607,102.604 C520.416,98.379 517.824,95.26 513.168,95.26 C508.799,95.26 505.582,98.764 505.295,102.604 L520.607,102.604 Z M505.246,105.195 C505.344,109.709 508.848,113.357 513.455,113.357 C516.576,113.357 518.641,111.869 519.936,110.428 C520.369,109.947 520.801,109.803 521.184,109.803 C521.953,109.803 522.672,110.332 522.672,111.244 C522.672,111.58 522.576,111.963 522.191,112.397 C519.936,114.893 516.912,116.141 513.455,116.141 C506.783,116.141 501.838,111.1 501.838,104.33 C501.838,97.563 506.783,92.522 513.168,92.522 C519.648,92.522 523.92,96.891 523.92,103.516 C523.92,104.619 523.344,105.195 522.145,105.195 L505.246,105.195 L505.246,105.195 Z" id="Fill-44" fill="#1A1919"></path>
        <g id="Group-48" transform="translate(0.060000, 78.938000)">
            <mask id="mask-2" fill="white">
                <use xlink:href="#path-1"></use>
            </mask>
            <g id="Clip-46"></g>
            <path d="M552.85,34.419 C557.891,34.419 561.491,30.529 561.491,25.392 C561.491,20.257 557.891,16.322 552.85,16.322 C547.426,16.322 544.354,20.4 544.354,25.392 C544.354,30.386 547.426,34.419 552.85,34.419 Z M562.739,36.962 C562.211,36.962 561.108,36.722 561.108,35.185 L561.108,32.834 L561.012,32.834 C559.09,35.666 555.731,37.203 552.514,37.203 C545.506,37.203 540.897,32.017 540.897,25.392 C540.897,18.769 545.506,13.584 552.514,13.584 C555.731,13.584 559.09,15.121 561.012,18.048 L561.108,18.048 L561.108,1.775 C561.108,0.24 562.211,0 562.739,0 C563.268,0 564.372,0.24 564.372,1.775 L564.372,35.185 C564.372,36.722 563.268,36.962 562.739,36.962 L562.739,36.962 Z" id="Fill-45" fill="#1A1919" mask="url(#mask-2)"></path>
            <path d="M20.049,17.418 L22.694,17.73 C23.881,17.865 24.01,18.855 24.01,19.49 L24.01,22.63 L11.815,22.63 L11.815,19.49 C11.815,18.855 11.942,17.865 13.131,17.73 L15.776,17.418 L15.776,14.738 L-0.06,14.738 L-0.06,17.418 L2.584,17.73 C3.768,17.865 3.897,18.855 3.897,19.49 L3.897,29.794 C3.897,30.433 3.768,31.431 2.584,31.564 L-0.06,31.88 L-0.06,34.568 L15.776,34.568 L15.776,31.88 L13.131,31.564 C11.942,31.431 11.815,30.433 11.815,29.794 L11.815,26.65 L24.01,26.65 L24.01,29.794 C24.01,30.433 23.881,31.431 22.694,31.564 L20.049,31.88 L20.049,34.568 L35.891,34.568 L35.891,31.88 L33.247,31.564 C32.057,31.431 31.928,30.433 31.928,29.794 L31.928,19.49 C31.928,18.855 32.057,17.865 33.247,17.73 L35.891,17.418 L35.891,14.738 L20.049,14.738 L20.049,17.418" id="Fill-47" fill="#1A1919" mask="url(#mask-2)"></path>
        </g>
        <path d="M124.311,109.697 L117.672,109.701 L117.672,97.465 L124.311,97.465 C128.223,97.465 129.555,99.32 129.555,103.576 C129.555,107.832 128.223,109.697 124.311,109.697 Z M125.75,93.676 L106.189,93.676 L106.189,96.356 L108.527,96.602 C109.363,96.705 109.906,97.061 109.906,98.217 L109.906,108.732 C109.906,109.371 109.781,110.369 108.594,110.502 L105.949,110.818 L105.949,113.506 L125.75,113.502 C132.836,113.502 138.66,110.637 138.66,103.576 C138.66,96.531 132.836,93.676 125.75,93.676 L125.75,93.676 Z" id="Fill-49" fill="#1A1919"></path>
        <path d="M149.762,103.912 L153.502,97.805 L157.477,103.912 L149.762,103.912 Z M171.961,110.533 C170.711,110.385 170.316,109.576 169.926,108.977 C160.805,94.99 160.805,94.99 160.805,94.99 C160.148,93.99 159.676,93.676 158.703,93.676 L143.688,93.676 L143.688,96.356 L147.266,96.764 C147.758,96.82 148.465,97.506 147.898,98.428 L141.16,109.438 C140.889,109.889 140.547,110.404 139.768,110.51 L137.086,110.818 L137.086,113.506 L149.746,113.506 L149.746,110.814 L147.563,110.592 C146.633,110.492 146.137,109.838 146.6,109.076 L147.609,107.42 L159.762,107.42 L160.658,108.791 C161.445,109.998 160.453,110.492 159.594,110.582 L157.354,110.814 L157.354,113.506 L174.479,113.506 L174.479,110.818 L171.961,110.533 L171.961,110.533 Z" id="Fill-50" fill="#1A1919"></path>
        <path d="M92.047,96.356 L94.691,96.668 C95.877,96.803 96.008,97.793 96.008,98.428 L96.008,108.357 L85.551,94.516 C85.08,93.883 84.67,93.676 83.547,93.676 C82.828,93.676 69.957,93.676 69.957,93.676 L69.957,96.356 L72.602,96.668 C73.789,96.803 73.918,97.793 73.918,98.428 L73.918,108.732 C73.918,109.371 73.789,110.369 72.602,110.502 L69.957,110.818 L69.957,113.506 L82.613,113.506 L82.613,110.818 L79.969,110.502 C78.781,110.369 78.652,109.371 78.652,108.732 L78.652,98.803 L89.107,112.66 C89.584,113.301 89.988,113.506 91.115,113.506 C91.182,113.506 91.207,113.506 91.211,113.506 C91.695,113.506 93.695,113.506 100.742,113.506 L100.742,98.428 C100.742,97.793 100.871,96.803 102.059,96.668 L104.703,96.356 L104.703,93.676 L92.047,93.676 L92.047,96.356" id="Fill-51" fill="#1A1919"></path>
        <path d="M52.922,110.404 C47.934,110.404 45.853,108.303 45.853,103.576 C45.853,98.857 47.934,96.764 52.922,96.764 C57.91,96.764 59.986,98.857 59.986,103.576 C59.986,108.303 57.91,110.404 52.922,110.404 Z M52.922,92.998 C40.055,92.998 36.73,98.627 36.73,103.576 C36.73,108.531 40.055,114.189 52.922,114.189 C65.787,114.189 69.109,108.531 69.109,103.576 C69.109,98.627 65.787,92.998 52.922,92.998 L52.922,92.998 Z" id="Fill-52" fill="#1A1919"></path>
        <path d="M109.172,10.234 C106.988,19.955 106.129,24.422 104.359,31.457 C102.66,38.215 101.344,44.482 99.066,47.52 C96.756,50.602 93.672,51.275 91.576,51.51 C90.49,51.633 89.703,51.688 87.348,51.695 C84.992,51.688 84.203,51.633 83.115,51.51 C81.018,51.275 77.934,50.602 75.621,47.52 C73.346,44.482 72.031,38.215 70.332,31.457 C68.56,24.422 67.701,19.955 65.521,10.234 C65.521,10.234 63.348,10.322 62.387,10.389 C61.082,10.482 60.066,10.592 58.955,10.74 C58.955,10.74 60.207,30.731 60.771,39.199 C61.367,48.109 62.414,63.117 63.396,74.453 C63.396,74.453 65.221,74.742 68.254,74.916 C71.441,75.098 72.861,75.121 72.861,75.121 C74.172,70.125 75.795,63.197 77.637,60.244 C79.133,57.842 81.441,57.584 82.75,57.406 C84.805,57.127 86.535,57.082 87.34,57.107 C87.34,57.107 87.342,57.107 87.348,57.107 C87.348,57.107 87.352,57.107 87.355,57.107 C88.154,57.082 89.887,57.127 91.943,57.406 C93.25,57.584 95.555,57.842 97.055,60.244 C98.898,63.197 100.521,70.125 101.834,75.121 C101.834,75.121 103.252,75.098 106.438,74.916 C109.471,74.742 111.293,74.453 111.293,74.453 C112.277,63.117 113.324,48.109 113.92,39.199 C114.484,30.731 115.738,10.74 115.738,10.74 C114.625,10.592 113.609,10.482 112.309,10.389 C111.344,10.322 109.172,10.234 109.172,10.234" id="Fill-53" fill="#1A1919"></path>
        <path d="M129.703,43.365 C128.953,53.508 128.051,59.59 126.758,63.975 C125.625,67.813 124.223,70.395 122.176,72.25 C118.752,75.344 114.043,76.008 111.277,76.42 C105.303,77.305 95.25,77.613 87.348,77.617 C79.441,77.613 69.387,77.305 63.41,76.42 C60.652,76.008 55.94,75.344 52.516,72.25 C50.469,70.395 49.064,67.813 47.934,63.975 C46.641,59.59 45.738,53.508 44.988,43.365 C44.535,37.254 44.629,27.346 45.31,22.022 C46.324,14.084 50.266,10.09 58.707,8.584 C62.65,7.879 67.951,7.385 72.977,7.135 C77.008,6.859 83.641,6.729 87.348,6.758 C91.051,6.729 97.684,6.859 101.713,7.135 C106.742,7.385 112.039,7.879 115.98,8.584 C124.426,10.09 128.369,14.084 129.379,22.022 C130.063,27.346 130.156,37.254 129.703,43.365 Z M134.359,22.033 C133.066,9.34 124.594,6.658 117.158,5.414 C113.408,4.783 106.75,4.252 102.482,4.076 C98.754,3.84 89.957,3.721 87.348,3.717 C84.738,3.721 75.937,3.84 72.207,4.076 C67.938,4.252 61.281,4.783 57.531,5.414 C50.094,6.658 41.623,9.34 40.334,22.033 C39.98,25.496 39.883,30.008 39.945,34.869 C40.053,42.91 40.742,48.346 41.137,52.109 C41.41,54.689 42.488,62.449 43.873,66.461 C45.773,71.981 47.484,73.584 49.5,75.225 C53.18,78.231 59.242,79.152 60.535,79.383 C67.379,80.615 81.23,80.836 87.348,80.8301172 C93.461,80.836 107.313,80.615 114.156,79.383 C115.453,79.152 121.512,78.231 125.191,75.225 C127.207,73.584 128.916,71.981 130.82,66.461 C132.203,62.449 133.281,54.689 133.553,52.109 C133.949,48.346 134.639,42.91 134.744,34.869 C134.813,30.008 134.709,25.496 134.359,22.033 L134.359,22.033 Z" id="Fill-54" fill="#1A1919"></path>
        <line x1="200.564" y1="0.976" x2="200.564" y2="117" id="Stroke-55" stroke="#1A1919" stroke-width="2" stroke-linecap="round"></line>
    </g>
</svg>