<svg width="86" height="48" viewBox="0 0 86 48" fill="none" xmlns="http://www.w3.org/2000/svg">
<g id="HBV_Arrow_Up">
<g id="HB_Arrow_Down">
<rect id="Rectangle" width="86" height="48" rx="7.2" fill="#005CB2"/>
<g id="Group 2">
<rect id="Rectangle 3" x="57.3335" y="48" width="28.6667" height="19.2" transform="rotate(-180 57.3335 48)" fill="white"/>
<path id="Triangle 2" fill-rule="evenodd" clip-rule="evenodd" d="M43.0001 4.8L71.6667 33.6L14.3334 33.6L43.0001 4.8Z" fill="white"/>
<path id="$" d="M45.2931 30.5606C45.2931 29.984 45.1314 29.527 44.8079 29.1895C44.4915 28.8449 43.9501 28.5285 43.1837 28.2402C42.4173 27.952 41.7564 27.6672 41.2009 27.3859C40.6454 27.0977 40.1673 26.7707 39.7665 26.4051C39.3728 26.0324 39.0634 25.5965 38.8384 25.0973C38.6204 24.5981 38.5115 24.0039 38.5115 23.3148C38.5115 22.1266 38.8912 21.1527 39.6505 20.3934C40.4099 19.634 41.4189 19.191 42.6775 19.0645V16.8074H44.365V19.0961C45.6095 19.2719 46.5833 19.7922 47.2865 20.657C47.9896 21.5148 48.3412 22.6293 48.3412 24.0004H45.2931C45.2931 23.1566 45.1173 22.5273 44.7658 22.1125C44.4212 21.6906 43.9572 21.4797 43.3736 21.4797C42.797 21.4797 42.3505 21.6449 42.0341 21.9754C41.7177 22.2988 41.5595 22.7488 41.5595 23.3254C41.5595 23.8598 41.7142 24.2887 42.0236 24.6121C42.3329 24.9356 42.906 25.266 43.7427 25.6035C44.5865 25.941 45.279 26.2609 45.8204 26.5633C46.3619 26.8586 46.8189 27.1961 47.1915 27.5758C47.5642 27.9484 47.849 28.3773 48.0458 28.8625C48.2427 29.3406 48.3412 29.8996 48.3412 30.5395C48.3412 31.7348 47.9685 32.7051 47.2232 33.4504C46.4779 34.1957 45.4513 34.6352 44.1435 34.7688V36.8676H42.4665V34.7793C41.0251 34.6246 39.9072 34.1148 39.1126 33.25C38.3251 32.3781 37.9314 31.2215 37.9314 29.7801H40.9794C40.9794 30.6168 41.1763 31.2602 41.5701 31.7102C41.9708 32.1531 42.5439 32.3746 43.2892 32.3746C43.9079 32.3746 44.3966 32.2129 44.7552 31.8895C45.1138 31.559 45.2931 31.116 45.2931 30.5606Z" fill="#005CB2"/>
</g>
</g>
</g>
</svg>
