<svg width="86" height="48" viewBox="0 0 86 48" fill="none" xmlns="http://www.w3.org/2000/svg">
<g id="HBV_Arrow_Down">
<g id="HB_Arrow_Down">
<rect id="Rectangle" width="86" height="48" rx="7.2" fill="#005CB2" fill-opacity="0.7"/>
<g id="Group 2">
<g id="Group 62">
<rect id="Rectangle 3" width="28.6667" height="19.2" transform="matrix(-1 0 0 1 57.3335 0)" fill="white"/>
<path id="Triangle 2" fill-rule="evenodd" clip-rule="evenodd" d="M43.0001 43.2L71.6667 14.4L14.3334 14.4L43.0001 43.2Z" fill="white"/>
</g>
<path id="$" d="M44.7931 25.1605C44.7931 24.584 44.6314 24.1269 44.3079 23.7894C43.9915 23.4449 43.4501 23.1285 42.6837 22.8402C41.9173 22.5519 41.2564 22.2672 40.7009 21.9859C40.1454 21.6977 39.6673 21.3707 39.2665 21.0051C38.8728 20.6324 38.5634 20.1965 38.3384 19.6973C38.1204 19.198 38.0115 18.6039 38.0115 17.9148C38.0115 16.7266 38.3912 15.7527 39.1505 14.9934C39.9099 14.234 40.9189 13.791 42.1775 13.6644V11.4074H43.865V13.6961C45.1095 13.8719 46.0833 14.3922 46.7865 15.257C47.4896 16.1148 47.8412 17.2293 47.8412 18.6004H44.7931C44.7931 17.7566 44.6173 17.1273 44.2658 16.7125C43.9212 16.2906 43.4572 16.0797 42.8736 16.0797C42.297 16.0797 41.8505 16.2449 41.5341 16.5754C41.2177 16.8988 41.0595 17.3488 41.0595 17.9254C41.0595 18.4598 41.2142 18.8887 41.5236 19.2121C41.8329 19.5355 42.406 19.866 43.2427 20.2035C44.0865 20.541 44.779 20.8609 45.3204 21.1633C45.8619 21.4586 46.3189 21.7961 46.6915 22.1758C47.0642 22.5484 47.349 22.9773 47.5458 23.4625C47.7427 23.9406 47.8412 24.4996 47.8412 25.1395C47.8412 26.3348 47.4685 27.3051 46.7232 28.0504C45.9779 28.7957 44.9513 29.2352 43.6435 29.3687V31.4676H41.9665V29.3793C40.5251 29.2246 39.4072 28.7148 38.6126 27.85C37.8251 26.9781 37.4314 25.8215 37.4314 24.3801H40.4794C40.4794 25.2168 40.6763 25.8602 41.0701 26.3102C41.4708 26.7531 42.0439 26.9746 42.7892 26.9746C43.4079 26.9746 43.8966 26.8129 44.2552 26.4895C44.6138 26.159 44.7931 25.716 44.7931 25.1605Z" fill="#005CB2" fill-opacity="0.7"/>
</g>
</g>
</g>
</svg>
