<?xml version="1.0" encoding="UTF-8" standalone="yes"?>
<svg fill="currentColor" height="24" preserveAspectRatio="xMidYMid meet" viewBox="0 0 24 24" width="24" xmlns="http://www.w3.org/2000/svg">
  <g>
    <path d="M20.819 6a1 1 0 0 1 1 1v10a1 1 0 0 1-1 1h-18a1 1 0 0 1-1-1V7a1 1 0 0 1 1-1h18Zm-1 2-.761.002c-.042.738-.213 1.321-.512 1.749-.348.499-.838.749-1.471.749-.639 0-1.133-.251-1.482-.753-.3-.431-.471-1.012-.514-1.745L14.319 8v8h5.5V8Zm-13.504.5c-.636 0-1.128.25-1.476.749-.313.449-.486 1.069-.517 1.859l-.005.27v1.244c0 .914.174 1.622.524 2.125.349.502.843.753 1.482.753.633 0 1.123-.25 1.472-.749.313-.449.485-1.069.516-1.859l.006-.27v-1.24c0-.917-.175-1.626-.524-2.129-.35-.502-.843-.753-1.478-.753Zm5 0c-.636 0-1.128.25-1.476.749-.313.449-.486 1.069-.517 1.859l-.005.27v1.244c0 .914.174 1.622.524 2.125.349.502.843.753 1.482.753.633 0 1.123-.25 1.472-.749.313-.449.485-1.069.516-1.859l.006-.27v-1.24c0-.917-.175-1.626-.524-2.129-.35-.502-.843-.753-1.478-.753Zm-5 1.217c.234 0 .404.12.512.362.092.207.145.506.158.895l.004.202v1.685c-.003.49-.058.849-.166 1.079-.108.229-.274.343-.5.343-.234 0-.405-.117-.513-.353-.092-.202-.145-.504-.158-.906l-.003-.21v-1.74c.008-.456.063-.796.167-1.021.104-.224.27-.336.499-.336Zm5 0c.234 0 .404.12.512.362.092.207.145.506.158.895l.004.202v1.685c-.003.49-.058.849-.166 1.079-.108.229-.274.343-.5.343-.234 0-.405-.117-.513-.353-.092-.202-.145-.504-.158-.906l-.003-.21v-1.74c.008-.456.063-.796.167-1.021.104-.224.27-.336.499-.336ZM17.737 8l-1.334.001c.012.414.065.724.159.929.108.236.279.353.513.353.225 0 .392-.114.5-.343.092-.197.146-.489.161-.877L17.737 8Zm.848 8-.018-3.5h-.161l-2.839 1.042v1.133l1.481-.514.019 1.839h1.518Z"/>
  </g>
</svg>