<?xml version="1.0" encoding="UTF-8" standalone="yes"?>
<svg fill="currentColor" height="24" preserveAspectRatio="xMidYMid meet" viewBox="0 0 24 24" width="24" xmlns="http://www.w3.org/2000/svg">
  <g>
    <rect fill="#FFFFFF" height="3.704" width="5.516" x="14.484" y="6.002"/>
  </g>
  <g>
    <path fill="#212121" d="M21 4c.549 0 1 .451 1 1v10c0 .549-.451 1-1 1H3c-.549 0-1-.451-1-1V5c0-.549.451-1 1-1h18Zm-6.5 2v8H20V6h-5.5Z"/>
  </g>
  <g>
    <path fill="#FFFFFF" fill-rule="nonzero" d="M6.504 13.5c.633 0 1.124-.25 1.472-.749.348-.5.522-1.209.522-2.129v-1.24c0-.917-.175-1.627-.524-2.129-.35-.502-.842-.753-1.478-.753s-1.128.25-1.476.748c-.348.5-.522 1.21-.522 2.13v1.244c0 .914.175 1.622.524 2.124.35.503.843.754 1.482.754Zm0-1.217c-.234 0-.405-.118-.512-.353-.108-.236-.162-.608-.162-1.116v-1.74c.008-.456.064-.796.168-1.02.103-.225.27-.338.498-.338.234 0 .405.121.512.363.108.242.162.607.162 1.097v1.686c-.003.49-.058.849-.166 1.078-.107.23-.274.344-.5.344v-.001Zm5 1.217c.633 0 1.124-.25 1.472-.749.348-.5.522-1.209.522-2.129v-1.24c0-.917-.175-1.627-.524-2.129-.35-.502-.842-.753-1.478-.753s-1.128.25-1.476.748c-.348.5-.522 1.21-.522 2.13v1.244c0 .914.175 1.622.524 2.124.35.503.843.754 1.482.754Zm0-1.217c-.234 0-.405-.118-.512-.353-.108-.236-.162-.608-.162-1.116v-1.74c.008-.456.064-.796.168-1.02.103-.225.27-.338.498-.338.234 0 .405.121.512.363.108.242.162.607.162 1.097v1.686c-.003.49-.058.849-.166 1.078-.107.23-.274.344-.5.344v-.001Z"/>
  </g>
  <g>
    <circle fill="#FFFFFF" cx="17" cy="16" r="7"/>
  </g>
  <g>
    <path fill="#fbc02d" d="M17 11c-2.75 0-5 2.25-5 5s2.25 5 5 5 5-2.25 5-5-2.25-5-5-5Z"/>
  </g>
  <g>
    <path fill="#212121" d="M17 17.734a.666.666 0 0 1 .5.2.62.62 0 0 1 .137.216.753.753 0 0 1 0 .541.632.632 0 0 1-.354.361.759.759 0 0 1-.283.051.65.65 0 0 1-.637-.411.753.753 0 0 1 0-.541c.1-.261.358-.43.637-.417ZM16.254 13h1.494l-.166 3.986h-1.164L16.254 13Z"/>
  </g>
  <g>
    <path fill="#212121" fill-rule="nonzero" d="M19.24 5.995c-.043.74-.213 1.325-.512 1.755-.348.5-.839.75-1.472.75-.639 0-1.132-.251-1.482-.755-.299-.432-.471-1.015-.513-1.75h1.324c.012.415.065.726.159.932.107.236.278.354.512.354.226 0 .393-.114.5-.345.098-.207.152-.52.164-.941h1.32Z"/>
  </g>
</svg>