<?xml version="1.0" encoding="UTF-8" standalone="yes"?>
<svg fill="currentColor" height="24" preserveAspectRatio="xMidYMid meet" viewBox="0 0 24 24" width="24" xmlns="http://www.w3.org/2000/svg">
  <g>
    <path fill="#FFFFFF" d="M13 17h-2V9.366l-2 .703V8.455L12.75 7H13v10Z"/>
  </g>
  <g>
    <path fill="#005CB2" d="m21.228 12 .622-1.92c.465-1.437-.182-3-1.527-3.687l-1.797-.918-.918-1.797a3.076 3.076 0 0 0-3.687-1.527L12 2.772l-1.92-.622a3.077 3.077 0 0 0-3.687 1.527l-.919 1.797-1.797.919A3.077 3.077 0 0 0 2.15 10.08L2.772 12l-.622 1.92c-.465 1.437.182 3 1.527 3.687l1.797.918.918 1.797a3.076 3.076 0 0 0 3.687 1.527L12 21.228l1.92.622c1.437.465 3-.182 3.687-1.527l.918-1.797 1.797-.918a3.076 3.076 0 0 0 1.527-3.687L21.228 12ZM13 17h-2V9.366l-2 .703V8.455L12.75 7H13v10Z"/>
  </g>
</svg>