<?xml version="1.0" encoding="UTF-8" standalone="yes"?>
<svg fill="currentColor" height="24" preserveAspectRatio="xMidYMid meet" viewBox="0 0 24 24" width="24" xmlns="http://www.w3.org/2000/svg">
  <g>
    <path fill="#212121" d="M10 8v1h1v1H8.86l-.385-1.158A.5.5 0 0 0 8 8.5H6.5A.5.5 0 0 0 6 9v2a.5.5 0 0 0 .276.447L8 12.309V15.5a.5.5 0 0 0 .5.5H14a.499.499 0 0 0 .454-.29L17.32 9.5H18v-1h-1.5a.5.5 0 0 0-.407.21L14.5 10.939V10.5a.5.5 0 0 0-.5-.5h-2V9h1V8h-3ZM7 9.5h.64L8 10.581v.61l-1-.5V9.5Z"/>
  </g>
  <g>
    <path fill="#FBC02D" fill-rule="evenodd" d="M12 1 3 5v6c0 5.55 3.84 10.74 9 12 5.16-1.26 9-6.45 9-12V5l-9-4Zm2.45 14.718a.03.03 0 0 0 .004-.008L17.32 9.5H18v-1h-1.5a.5.5 0 0 0-.407.21L14.5 10.939V10.5a.5.5 0 0 0-.5-.5h-2V9h1V8h-3v1h1v1H8.86l-.385-1.158-.007-.019-.008-.019-.008-.018-.009-.018-.009-.017-.01-.017-.011-.016-.017-.024-.018-.022-.02-.021-.021-.02-.022-.019-.019-.015-.023-.016-.024-.015-.025-.013-.026-.012-.018-.008-.018-.006-.018-.006-.018-.005-.019-.005-.019-.003-.019-.003-.02-.003-.019-.001-.02-.001H6.5A.5.5 0 0 0 6 9v2a.5.5 0 0 0 .276.447L8 12.309V15.5a.5.5 0 0 0 .5.5h5.52l.019-.002.024-.002.021-.003.023-.005.026-.006.026-.008.025-.009.024-.01.024-.012.027-.015.022-.014.021-.015.02-.016.019-.017.019-.018.018-.02.016-.02.016-.021.015-.022.009-.015.008-.016.008-.016ZM8 10.581v.61l-1-.5V9.5h.64L8 10.581Z"/>
  </g>
</svg>