<svg width="158" height="25" viewBox="0 0 158 25" fill="none" xmlns="http://www.w3.org/2000/svg">
<g clip-path="url(#clip0_601_20192)">
<path fill-rule="evenodd" clip-rule="evenodd" d="M0 0H158V24.052H0V0Z" fill="url(#paint0_linear_601_20192)"/>
<path d="M15.9082 16H10.0605V14.8398L12.8203 11.8984C13.1992 11.4844 13.4785 11.123 13.6582 10.8145C13.8418 10.5059 13.9336 10.2129 13.9336 9.93555C13.9336 9.55664 13.8379 9.25977 13.6465 9.04492C13.4551 8.82617 13.1816 8.7168 12.8262 8.7168C12.4434 8.7168 12.1406 8.84961 11.918 9.11523C11.6992 9.37695 11.5898 9.72266 11.5898 10.1523H9.89062C9.89062 9.63281 10.0137 9.1582 10.2598 8.72852C10.5098 8.29883 10.8613 7.96289 11.3145 7.7207C11.7676 7.47461 12.2812 7.35156 12.8555 7.35156C13.7344 7.35156 14.416 7.5625 14.9004 7.98438C15.3887 8.40625 15.6328 9.00195 15.6328 9.77148C15.6328 10.1934 15.5234 10.623 15.3047 11.0605C15.0859 11.498 14.7109 12.0078 14.1797 12.5898L12.2402 14.6348H15.9082V16ZM22.6934 12.4727C22.6934 13.6523 22.4492 14.5547 21.9609 15.1797C21.4727 15.8047 20.7578 16.1172 19.8164 16.1172C18.8867 16.1172 18.1758 15.8105 17.6836 15.1973C17.1914 14.584 16.9395 13.7051 16.9277 12.5605V10.9902C16.9277 9.79883 17.1738 8.89453 17.666 8.27734C18.1621 7.66016 18.875 7.35156 19.8047 7.35156C20.7344 7.35156 21.4453 7.6582 21.9375 8.27148C22.4297 8.88086 22.6816 9.75781 22.6934 10.9023V12.4727ZM21 10.75C21 10.043 20.9023 9.5293 20.707 9.20898C20.5156 8.88477 20.2148 8.72266 19.8047 8.72266C19.4062 8.72266 19.1113 8.87695 18.9199 9.18555C18.7324 9.49023 18.6328 9.96875 18.6211 10.6211V12.6953C18.6211 13.3906 18.7148 13.9082 18.9023 14.248C19.0938 14.584 19.3984 14.752 19.8164 14.752C20.2305 14.752 20.5293 14.5898 20.7129 14.2656C20.8965 13.9414 20.9922 13.4453 21 12.7773V10.75ZM29.6895 16H23.8418V14.8398L26.6016 11.8984C26.9805 11.4844 27.2598 11.123 27.4395 10.8145C27.623 10.5059 27.7148 10.2129 27.7148 9.93555C27.7148 9.55664 27.6191 9.25977 27.4277 9.04492C27.2363 8.82617 26.9629 8.7168 26.6074 8.7168C26.2246 8.7168 25.9219 8.84961 25.6992 9.11523C25.4805 9.37695 25.3711 9.72266 25.3711 10.1523H23.6719C23.6719 9.63281 23.7949 9.1582 24.041 8.72852C24.291 8.29883 24.6426 7.96289 25.0957 7.7207C25.5488 7.47461 26.0625 7.35156 26.6367 7.35156C27.5156 7.35156 28.1973 7.5625 28.6816 7.98438C29.1699 8.40625 29.4141 9.00195 29.4141 9.77148C29.4141 10.1934 29.3047 10.623 29.0859 11.0605C28.8672 11.498 28.4922 12.0078 27.9609 12.5898L26.0215 14.6348H29.6895V16ZM36.5801 16H30.7324V14.8398L33.4922 11.8984C33.8711 11.4844 34.1504 11.123 34.3301 10.8145C34.5137 10.5059 34.6055 10.2129 34.6055 9.93555C34.6055 9.55664 34.5098 9.25977 34.3184 9.04492C34.127 8.82617 33.8535 8.7168 33.498 8.7168C33.1152 8.7168 32.8125 8.84961 32.5898 9.11523C32.3711 9.37695 32.2617 9.72266 32.2617 10.1523H30.5625C30.5625 9.63281 30.6855 9.1582 30.9316 8.72852C31.1816 8.29883 31.5332 7.96289 31.9863 7.7207C32.4395 7.47461 32.9531 7.35156 33.5273 7.35156C34.4062 7.35156 35.0879 7.5625 35.5723 7.98438C36.0605 8.40625 36.3047 9.00195 36.3047 9.77148C36.3047 10.1934 36.1953 10.623 35.9766 11.0605C35.7578 11.498 35.3828 12.0078 34.8516 12.5898L32.9121 14.6348H36.5801V16ZM46.8633 8.89258H44.25V16H42.4922V8.89258H39.9141V7.46875H46.8633V8.89258ZM54.7148 11.9277C54.7148 12.7676 54.5664 13.5039 54.2695 14.1367C53.9727 14.7695 53.5469 15.2578 52.9922 15.6016C52.4414 15.9453 51.8086 16.1172 51.0938 16.1172C50.3867 16.1172 49.7559 15.9473 49.2012 15.6074C48.6465 15.2676 48.2168 14.7832 47.9121 14.1543C47.6074 13.5215 47.4531 12.7949 47.4492 11.9746V11.5527C47.4492 10.7129 47.5996 9.97461 47.9004 9.33789C48.2051 8.69727 48.6328 8.20703 49.1836 7.86719C49.7383 7.52344 50.3711 7.35156 51.082 7.35156C51.793 7.35156 52.4238 7.52344 52.9746 7.86719C53.5293 8.20703 53.957 8.69727 54.2578 9.33789C54.5625 9.97461 54.7148 10.7109 54.7148 11.5469V11.9277ZM52.9336 11.541C52.9336 10.6465 52.7734 9.9668 52.4531 9.50195C52.1328 9.03711 51.6758 8.80469 51.082 8.80469C50.4922 8.80469 50.0371 9.03516 49.7168 9.49609C49.3965 9.95312 49.2344 10.625 49.2305 11.5117V11.9277C49.2305 12.7988 49.3906 13.4746 49.7109 13.9551C50.0312 14.4355 50.4922 14.6758 51.0938 14.6758C51.6836 14.6758 52.1367 14.4453 52.4531 13.9844C52.7695 13.5195 52.9297 12.8438 52.9336 11.957V11.541ZM57.75 12.9941V16H55.9922V7.46875H59.3203C59.9609 7.46875 60.5234 7.58594 61.0078 7.82031C61.4961 8.05469 61.8711 8.38867 62.1328 8.82227C62.3945 9.25195 62.5254 9.74219 62.5254 10.293C62.5254 11.1289 62.2383 11.7891 61.6641 12.2734C61.0938 12.7539 60.3027 12.9941 59.291 12.9941H57.75ZM57.75 11.5703H59.3203C59.7852 11.5703 60.1387 11.4609 60.3809 11.2422C60.627 11.0234 60.75 10.7109 60.75 10.3047C60.75 9.88672 60.627 9.54883 60.3809 9.29102C60.1348 9.0332 59.7949 8.90039 59.3613 8.89258H57.75V11.5703ZM69.8848 12.877H68.4844V16H66.7266V7.46875H69.8965C70.9043 7.46875 71.6816 7.69336 72.2285 8.14258C72.7754 8.5918 73.0488 9.22656 73.0488 10.0469C73.0488 10.6289 72.9219 11.1152 72.668 11.5059C72.418 11.8926 72.0371 12.2012 71.5254 12.4316L73.3711 15.918V16H71.4844L69.8848 12.877ZM68.4844 11.4531H69.9023C70.3438 11.4531 70.6855 11.3418 70.9277 11.1191C71.1699 10.8926 71.291 10.582 71.291 10.1875C71.291 9.78516 71.1758 9.46875 70.9453 9.23828C70.7188 9.00781 70.3691 8.89258 69.8965 8.89258H68.4844V11.4531ZM79.207 14.2422H76.125L75.5391 16H73.6699L76.8457 7.46875H78.4746L81.668 16H79.7988L79.207 14.2422ZM76.5996 12.8184H78.7324L77.6602 9.625L76.5996 12.8184ZM88.1836 8.89258H85.5703V16H83.8125V8.89258H81.2344V7.46875H88.1836V8.89258ZM94.3242 12.3027H90.9492V14.5879H94.9102V16H89.1914V7.46875H94.8984V8.89258H90.9492V10.9258H94.3242V12.3027ZM95.9414 16V7.46875H98.5664C99.3164 7.46875 99.9863 7.63867 100.576 7.97852C101.17 8.31445 101.633 8.79492 101.965 9.41992C102.297 10.041 102.463 10.748 102.463 11.541V11.9336C102.463 12.7266 102.299 13.4316 101.971 14.0488C101.646 14.666 101.188 15.1445 100.594 15.4844C100 15.8242 99.3301 15.9961 98.584 16H95.9414ZM97.6992 8.89258V14.5879H98.5488C99.2363 14.5879 99.7617 14.3633 100.125 13.9141C100.488 13.4648 100.674 12.8223 100.682 11.9863V11.5352C100.682 10.668 100.502 10.0117 100.143 9.56641C99.7832 9.11719 99.2578 8.89258 98.5664 8.89258H97.6992ZM106.734 16V7.46875H109.359C110.109 7.46875 110.779 7.63867 111.369 7.97852C111.963 8.31445 112.426 8.79492 112.758 9.41992C113.09 10.041 113.256 10.748 113.256 11.541V11.9336C113.256 12.7266 113.092 13.4316 112.764 14.0488C112.439 14.666 111.98 15.1445 111.387 15.4844C110.793 15.8242 110.123 15.9961 109.377 16H106.734ZM108.492 8.89258V14.5879H109.342C110.029 14.5879 110.555 14.3633 110.918 13.9141C111.281 13.4648 111.467 12.8223 111.475 11.9863V11.5352C111.475 10.668 111.295 10.0117 110.936 9.56641C110.576 9.11719 110.051 8.89258 109.359 8.89258H108.492ZM119.672 12.3027H116.297V14.5879H120.258V16H114.539V7.46875H120.246V8.89258H116.297V10.9258H119.672V12.3027ZM126.105 14.2422H123.023L122.438 16H120.568L123.744 7.46875H125.373L128.566 16H126.697L126.105 14.2422ZM123.498 12.8184H125.631L124.559 9.625L123.498 12.8184ZM131.121 14.5879H134.854V16H129.363V7.46875H131.121V14.5879ZM141 12.3027H137.625V14.5879H141.586V16H135.867V7.46875H141.574V8.89258H137.625V10.9258H141V12.3027ZM145.775 12.877H144.375V16H142.617V7.46875H145.787C146.795 7.46875 147.572 7.69336 148.119 8.14258C148.666 8.5918 148.939 9.22656 148.939 10.0469C148.939 10.6289 148.812 11.1152 148.559 11.5059C148.309 11.8926 147.928 12.2012 147.416 12.4316L149.262 15.918V16H147.375L145.775 12.877ZM144.375 11.4531H145.793C146.234 11.4531 146.576 11.3418 146.818 11.1191C147.061 10.8926 147.182 10.582 147.182 10.1875C147.182 9.78516 147.066 9.46875 146.836 9.23828C146.609 9.00781 146.26 8.89258 145.787 8.89258H144.375V11.4531Z" fill="#212121"/>
</g>
<defs>
<linearGradient id="paint0_linear_601_20192" x1="0" y1="24.052" x2="158" y2="24.052" gradientUnits="userSpaceOnUse">
<stop stop-color="#E6831C"/>
<stop offset="0.236291" stop-color="#F2C615"/>
<stop offset="0.493832" stop-color="#F5DF3D"/>
<stop offset="0.715568" stop-color="#F4D414"/>
<stop offset="1" stop-color="#E6861C"/>
</linearGradient>
<clipPath id="clip0_601_20192">
<rect width="158" height="24.052" fill="white"/>
</clipPath>
</defs>
</svg>
