<?xml version="1.0" encoding="UTF-8" standalone="yes"?>
<svg fill="currentColor" height="24" preserveAspectRatio="xMidYMid meet" viewBox="0 0 24 24" width="24" xmlns="http://www.w3.org/2000/svg">
  <g>
    <path fill="#BA8E12" d="M4 13c1.1 0 2-.9 2-2s-.9-2-2-2-2 .9-2 2 .9 2 2 2Z"/>
  </g>
  <g>
    <path fill="#BA8E12" d="M12 6c1.66 0 3 1.34 3 3s-1.34 3-3 3-3-1.34-3-3 1.34-3 3-3Z"/>
  </g>
  <g>
    <path fill="#BA8E12" d="M20 13c1.1 0 2-.9 2-2s-.9-2-2-2-2 .9-2 2 .9 2 2 2Z"/>
  </g>
  <g>
    <path fill="#2E7D32" d="M4 14c.39 0 .76.04 1.13.1-.4.68-.63 1.46-.63 2.29V18H0v-1.57c0-.81.48-1.53 1.22-1.85A6.95 6.95 0 0 1 4 14Zm.077-1.001L4 13h.026l.051-.001Zm.076-.005-.025.002-.025.001.05-.003Zm-.382-.007.076.007-.026-.002a.195.195 0 0 0-.025-.002l-.025-.003Zm.557-.014a1.642 1.642 0 0 1-.074.011l-.025.003.099-.014Zm.098-.019a2.669 2.669 0 0 1 .024-.005l-.024.005Zm-.924-.017-.012-.003.036.009-.024-.006Zm1.297-.104Zm-1.424.066-.015-.005.015.005Zm1.49-.097a2.609 2.609 0 0 1-.022.01l.022-.01Zm-1.752-.011.022.011-.022-.011-.013-.007.013.007Zm1.901-.069-.042.024-.021.012.063-.036Zm.07-.043-.07.043.07-.043Zm-2.18-.008-.02-.014.029.02-.009-.006Zm2.31-.084-.058.043-.02.014.078-.057Zm.038-.03-.029.023.029-.023Zm-2.602-.085c.03.028.062.055.094.082-.032-.027-.064-.054-.094-.082Zm2.813-.111Zm-3.079-.186a1.944 1.944 0 0 0-.014-.019l.014.019Zm3.305-.108Zm.033-.053-.019.032.031-.053-.012.021Zm-3.463-.034-.017-.029.012.021.005.008Zm3.543-.115a1.03 1.03 0 0 1 .01-.022l-.01.022Zm.028-.059a.858.858 0 0 1 .012-.029l-.009.022-.003.007Zm-3.689-.071.009.023-.009-.023Zm-.058-.165a1.662 1.662 0 0 0 .007.023l-.007-.023Zm3.8.102.003-.009.008-.023a.3.3 0 0 1-.011.032Zm-3.852-.322.006.033-.006-.033Zm3.947-.057.003-.014.003-.025-.006.039Zm-3.977-.222.004.064a1.293 1.293 0 0 1-.004-.064Zm0-.148L2 10.99v-.016l.001-.025v-.026Zm3.991-.098a.745.745 0 0 1 .004.047l.001.025-.005-.072Zm-3.982-.029a.571.571 0 0 1-.004.043l.002-.018.002-.025Zm3.949-.198.004.02-.004-.02Zm-3.889-.12Zm.078-.232-.018.045-.008.023.026-.068Zm3.706.007-.002-.007-.01-.023.012.03Zm-3.656-.118-.04.088c.016-.037.033-.074.051-.11l-.011.022Zm3.559-.087-.011-.02-.012-.021a.541.541 0 0 1 .023.041Zm-3.495-.034.004-.007.012-.021-.016.028Zm3.184-.392a1.935 1.935 0 0 1-.017-.017l.017.017Zm-2.789-.101Zm2.613-.063.035.029-.053-.044.018.015Zm-2.45-.07-.067.051.067-.051Zm2.392.024.007.006-.007-.006Zm-2.348-.056.021-.014-.021.014Zm2.215-.038a.479.479 0 0 1 .037.025l.02.013-.057-.038ZM3.092 9.22Zm1.922.058-.004-.003.004.003Zm-.106-.058-.021-.011-.022-.011a.578.578 0 0 1 .043.022ZM3.31 9.124Zm1.486.042.017.008-.017-.008Zm-.226-.083a1.905 1.905 0 0 1-.024-.007l.024.007Zm-.947-.047Zm.148-.023a1.733 1.733 0 0 0-.025.003l.025-.003Zm.089-.008-.039.003.039-.003Zm.213-.004.073.004-.073-.004ZM3.974 9l-.051.001L4 9h-.026Zm1.943 2.57-.015.046.008-.023.014-.047-.007.024Zm-3.852-.064.011.04-.006-.024-.005-.016Zm3.925-.302.005-.069a2.744 2.744 0 0 1-.008.094l.003-.025Zm-3.974-.458a2.011 2.011 0 0 1-.003.025l.003-.025Zm3.914-.268a.744.744 0 0 0-.018-.063l.025.087-.007-.024Zm-.242-.548.009.014.012.021-.021-.035Zm-3.372-.006.027-.04-.014.02a.905.905 0 0 1-.026.04l.013-.02Z"/>
  </g>
  <g>
    <path fill="#D32F2F" d="M12 12.75c1.63 0 3.07.39 4.24.9 1.08.48 1.76 1.56 1.76 2.73V18H6v-1.61c0-1.18.68-2.26 1.76-2.73 1.17-.52 2.61-.91 4.24-.91Z"/>
  </g>
  <g>
    <path fill="#1976D2" d="M20 14c.99 0 1.93.21 2.78.58A2.01 2.01 0 0 1 24 16.43V18h-4.5v-1.61c0-.83-.23-1.61-.63-2.29.37-.06.74-.1 1.13-.1Zm.153-1.006c-.05.004-.101.006-.153.006h.026c.043-.001.085-.003.127-.006Zm-.306 0-.026-.002-.025-.002.051.004Zm.579-.04a2.472 2.472 0 0 1-.172.03l-.025.003c.075-.009.149-.022.221-.038l-.024.005Zm-.932-.019.012.003-.012-.003Zm1.131-.036Zm-1.265-.005.015.005-.015-.005Zm1.483-.082a1.66 1.66 0 0 1-.18.074l-.023.008c.077-.026.152-.057.225-.092l-.022.01Zm-1.708-.01-.022-.011-.021-.011a.578.578 0 0 0 .043.022Zm1.931-.112a1.79 1.79 0 0 1-.094.056l-.021.012c.039-.022.078-.044.115-.068Zm-2.17-.025Zm2.374-.123Zm-2.62-.07c.023.022.048.043.072.064a1.49 1.49 0 0 1-.072-.064Zm2.79-.087-.045.044-.017.017.062-.061Zm-2.951-.078Zm3.135-.143a2.134 2.134 0 0 1-.082.106l-.016.019a1.92 1.92 0 0 0 .098-.125Zm.098-.15-.025.042-.013.02.038-.062Zm-3.468-.042.018.032-.006-.011-.012-.021Zm3.548-.107a.578.578 0 0 1-.022.043l-.011.022.033-.065Zm-3.635-.066-.009-.022-.01-.023.019.045Zm-.148-.52.003.014-.003-.014Zm3.98-.202-.004.071.001-.02.001-.025.002-.026Zm-3.998-.006v-.02L18 11.026l.001.045Zm.009-.275-.007.088.007-.088Zm3.98 0Zm-3.957-.158.003-.015.005-.025-.008.04Zm.144-.459-.003.007.003-.007Zm.139-.255a.137.137 0 0 1-.013.02l-.011.019.037-.059-.013.02Zm3.314-.08.009.014-.009-.014-.011-.015.011.015Zm-.184-.222.017.017.016.018a1.227 1.227 0 0 0-.05-.052l.017.017Zm-2.789-.101-.064.061.046-.045.018-.016Zm2.704.016.017.017-.017-.017Zm-2.556-.138c-.029.022-.058.044-.086.068.035-.029.07-.056.106-.083l-.02.015Zm2.271-.083.033.022-.053-.035.02.013Zm-2.048-.062-.059.034a2.08 2.08 0 0 1 .08-.046l-.021.012Zm1.87-.04-.011-.005-.022-.011.033.016Zm-1.603-.085Zm1.321-.031a1.08 1.08 0 0 1-.023-.008l.023.008Zm-.87-.082a2.037 2.037 0 0 0 .025-.003l-.025.003Zm.382-.012.025.002.026.002-.076-.005.025.001ZM19.974 9l-.051.001L20 9h-.026Zm-1.516 3.27-.03-.037.046.056-.016-.019Zm-.059-.075-.015-.02.015.02.014.019-.014-.019Zm-.056-.079-.027-.04.04.06-.013-.02Zm-.112-.186.011.021-.011-.021Zm3.602-.131-.01.022-.011.022a1.84 1.84 0 0 0 .021-.044Zm.019-.045-.01.023.01-.023Zm-3.73-.068a2.166 2.166 0 0 1-.065-.212l.006.024c.019.072.041.142.067.211l-.008-.023Zm-.083-.292.002.008.005.024-.007-.032Zm-.029-.19-.005-.056.008.081-.003-.025Zm3.99-.178-.001.025.001-.025Zm-4-.061V11v-.035Zm4 .009V11v-.026Zm-.019-.253a.187.187 0 0 1-.004-.025l.007.05-.003-.025Zm-.012-.074a1.069 1.069 0 0 0-.01-.049l.014.074-.004-.025Zm-.039-.169.007.024-.007-.024Zm-.013-.048a2.255 2.255 0 0 0-.039-.116l.008.023c.014.039.027.078.038.117l-.007-.024Zm-.065-.184.009.023-.009-.023Zm-3.591-.231-.007.013-.012.021.019-.034Zm.138-.21-.029.039.014-.019.015-.02Zm.059-.075-.045.056.015-.019.03-.037Zm2.823-.263.008.007.018.015-.026-.022Zm-2.39-.129-.007.005-.02.013.027-.018Z"/>
  </g>
</svg>