<?xml version="1.0" encoding="UTF-8" standalone="yes"?>
<svg fill="currentColor" height="24" preserveAspectRatio="xMidYMid meet" viewBox="0 0 24 24" width="24" xmlns="http://www.w3.org/2000/svg">
  <g>
    <path fill="#919191" d="M10.207 11.667 2.84 19.04l2.12 2.12L16.34 9.79c.36.13.75.21 1.16.21 1.93 0 3.5-1.57 3.5-3.5 0-.58-.16-1.12-.41-1.6l-2.7 2.7-1.49-1.49 2.7-2.7c-.48-.25-1.02-.41-1.6-.41C15.57 3 14 4.57 14 6.5c0 .41.08.8.21 1.16l-2.589 2.591L7.85 6.48V5.06L4.83 2.04 2 4.87 5.03 7.9h1.41l3.767 3.767Z"/>
  </g>
  <g>
    <path fill="#2E7D32" d="m21.67 18.17-5.3-5.3h-.99l-2.54 2.54v.99l5.3 5.3c.39.39 1.02.39 1.41 0l2.12-2.12a.996.996 0 0 0 0-1.41Z"/>
  </g>
</svg>