<svg width="138" height="132" viewBox="0 0 138 132" preserveAspectRatio="xMinYMin meet" xmlns="http://www.w3.org/2000/svg" xmlns:xlink="http://www.w3.org/1999/xlink"><defs><linearGradient x1="50%" y1="-191.186%" x2="50%" y2="100%" id="h"><stop stop-color="#767676" offset="0%"/><stop stop-color="#202327" offset="100%"/></linearGradient><linearGradient x1="50%" y1="2.434%" x2="50%" y2="100%" id="i"><stop stop-color="#1294EF" stop-opacity=".968" offset="0%"/><stop stop-color="#4FBCFA" offset="100%"/></linearGradient><linearGradient x1="50%" y1="22.165%" x2="103.264%" y2="90.401%" id="j"><stop stop-color="#1294EF" stop-opacity=".968" offset="0%"/><stop stop-color="#4FBCFA" offset="100%"/></linearGradient><linearGradient x1="50%" y1="2.434%" x2="50%" y2="100%" id="l"><stop stop-color="#1294EF" stop-opacity=".968" offset="0%"/><stop stop-color="#4FBCFA" offset="100%"/></linearGradient><linearGradient x1="50%" y1="0%" x2="50%" y2="100%" id="m"><stop stop-color="#F3F3F2" offset="0%"/><stop stop-color="#AAA" offset="100%"/></linearGradient><linearGradient x1="50%" y1="0%" x2="50%" y2="100%" id="n"><stop stop-color="#DADCDF" offset="0%"/><stop stop-color="#B3B7BB" offset="100%"/></linearGradient><linearGradient x1="50%" y1="0%" x2="50%" y2="100%" id="o"><stop stop-color="#C7C7C7" offset="0%"/><stop stop-color="#969696" offset="100%"/></linearGradient><linearGradient x1="50%" y1="0%" x2="50%" y2="100%" id="p"><stop stop-color="#C7C7C7" offset="0%"/><stop stop-color="#969696" offset="100%"/></linearGradient><linearGradient x1="50%" y1="0%" x2="50%" y2="100%" id="q"><stop stop-color="#C7C7C7" offset="0%"/><stop stop-color="#969696" offset="100%"/></linearGradient><linearGradient x1="50%" y1="2.434%" x2="50%" y2="100%" id="r"><stop stop-color="#1294EF" stop-opacity=".968" offset="0%"/><stop stop-color="#4FBCFA" offset="100%"/></linearGradient><filter x="-15.2%" y="-10.1%" width="130.4%" height="130.4%" filterUnits="objectBoundingBox" id="a"><feOffset dy="6" in="SourceAlpha" result="shadowOffsetOuter1"/><feGaussianBlur stdDeviation="5" in="shadowOffsetOuter1" result="shadowBlurOuter1"/><feColorMatrix values="0 0 0 0 0 0 0 0 0 0 0 0 0 0 0 0 0 0 0.03 0" in="shadowBlurOuter1"/></filter><filter x="-17.8%" y="-11.8%" width="135.5%" height="135.5%" filterUnits="objectBoundingBox" id="c"><feOffset dy="6" in="SourceAlpha" result="shadowOffsetOuter1"/><feGaussianBlur stdDeviation="5" in="shadowOffsetOuter1" result="shadowBlurOuter1"/><feComposite in="shadowBlurOuter1" in2="SourceAlpha" operator="out" result="shadowBlurOuter1"/><feColorMatrix values="0 0 0 0 1 0 0 0 0 1 0 0 0 0 1 0 0 0 0.04 0" in="shadowBlurOuter1"/></filter><filter x="-17.8%" y="-11.8%" width="135.5%" height="135.5%" filterUnits="objectBoundingBox" id="e"><feOffset dy="6" in="SourceAlpha" result="shadowOffsetOuter1"/><feGaussianBlur stdDeviation="5" in="shadowOffsetOuter1" result="shadowBlurOuter1"/><feColorMatrix values="0 0 0 0 0 0 0 0 0 0 0 0 0 0 0 0 0 0 0.04 0" in="shadowBlurOuter1"/></filter><filter x="-13.2%" y="-13.8%" width="126.5%" height="127.6%" filterUnits="objectBoundingBox" id="g"><feOffset in="SourceAlpha" result="shadowOffsetOuter1"/><feGaussianBlur stdDeviation="3.5" in="shadowOffsetOuter1" result="shadowBlurOuter1"/><feColorMatrix values="0 0 0 0 1 0 0 0 0 1 0 0 0 0 1 0 0 0 0.189985795 0" in="shadowBlurOuter1" result="shadowMatrixOuter1"/><feMerge><feMergeNode in="shadowMatrixOuter1"/><feMergeNode in="SourceGraphic"/></feMerge></filter><circle id="b" cx="59.289" cy="59.289" r="59.289"/><circle id="d" cx="59.289" cy="59.289" r="50.665"/><circle id="f" cx="59.289" cy="59.789" r="50.665"/><path id="k" d="M35.94 0h39.071v55.882h-39.07z"/></defs><g fill="none" fill-rule="evenodd"><g transform="translate(10 3.5)"><use fill="#000" filter="url(#a)" xlink:href="#b"/><use fill="#E0F6FF" xlink:href="#b"/></g><g transform="translate(10 3.5)"><use fill="#000" filter="url(#c)" xlink:href="#d"/><use fill-opacity=".153" fill="#32C5FF" xlink:href="#d"/></g><g transform="translate(10 3)"><use fill="#000" filter="url(#e)" xlink:href="#f"/><use fill="#C5EEFF" xlink:href="#f"/></g><g filter="url(#g)" transform="translate(18.84 10.63)"><path d="M26.257 80.137a17.647 17.647 0 012.746-3.717c2.535-2.635 5.727-4.038 9.368-4.618 1.5-.24 2.866-.902 4.39-.835.733.029 1.575.485 2.308.54 2.724.356 5.324.892 7.609 2.393a16.804 16.804 0 015.112 5.31c.201.337.532.971.727 1.31.703.89.743 2.009 1.122 3.032.22.589.443 1.183.58 1.798.04.17.14.342.01.516l-5.01.002c-.269-1.333-.638-2.635-1.31-3.852-2.047-3.702-5.232-6.007-9.557-6.706-4.848-.78-8.965.681-12.252 4.14-1.643 1.728-2.62 3.8-3.045 6.1-.019.101-.01.208-.012.313-1.671 0-3.339.003-5.01.003.504-1.992 1.225-3.911 2.224-5.729z" fill="url(#h)"/><ellipse fill="#6D7278" cx="42.164" cy="84.672" rx="13.296" ry="13.165"/><ellipse fill="#969696" cx="42.164" cy="84.672" rx="10.878" ry="10.771"/><ellipse fill="#202327" opacity=".72" cx="42.164" cy="84.672" rx="8.461" ry="8.378"/><ellipse fill="#D7D7D7" opacity=".72" cx="42.164" cy="84.672" rx="6.043" ry="5.984"/><path d="M82.05 26.028l17.56 13.166c.694 2.514 1.074 4.256 1.14 5.227.068.97.203 2.02.407 3.15H82.05V26.028z" fill="#714B85" opacity=".084"/><path d="M88.427 18.851c.864.943 1.63 1.84 2.3 2.69a37.924 37.924 0 011.798 2.52c.12.18-.054.535-.201.535-3.67 0-3.809 3.409-3.814 5.354v11.527c0 3.257 1.05 5.777 3.932 5.777h8.782c.031.831.047 1.666.047 2.505 0 17.824-6.645 31.56-17.814 40.902l-22.45-.001c-2.004-12.605-8.56-18.907-19.665-18.907-16.658 0-14.235-15.005-13.66-15.005h49.14V26.213c0-5.232 4.195-7.362 7.827-7.362z" fill="url(#i)"/><path d="M6.501 49.182c1.836 3.243 2.096 6.05.781 8.424-.846 1.528-3.05 2.78-6.614 3.757l-.343-2.286 4.495-4.432.984-5.463h.697z" fill="#696E78" opacity=".5"/><path d="M26.698 57.283c1.788 1.31 16.923 13.396 18.254 14.354.06.041.278.2.656.473a9.707 9.707 0 00-.845-.16c-1.095-.094-2.188-.204-3.29-.154-3.32.154-6.634.426-9.499 2.238-2.305 1.455-4.072 3.436-5.433 5.795-1.158 2.003-2.634 6.803-2.813 6.94-.288 1.12-.52 2.25-.675 3.395-.043.326-.148.495-.535.492-1.065-.004-2.663-.005-4.794-.004-3.83-3.416-6.75-6.674-8.763-9.775-2.334-3.595-4.084-6.797-5.237-9.37-1.374-3.067-1.924-5.195-1.925-5.38.142-.106 18.488-6.798 20.449-7.512.706-.257 1.169-.426 1.785-.658.78-.294 1.449-.502 2.216-.812a.673.673 0 01.449.138z" fill="url(#j)"/><path d="M53.547 55.715c-.553-1.54-1.097-3.084-1.66-4.617-.801-2.183-1.622-4.357-2.43-6.537-1.703-4.593-3.407-9.183-5.104-13.775-1.305-3.526-2.607-7.051-3.913-10.577-.82-2.222-1.65-4.444-2.477-6.663-.053-.142-.087-.309-.26-.372-.523-1.252-1.008-2.516-1.384-3.816-.037-.133-.078-.272.022-.402-.407-1.823-.637-3.65-.025-5.47.706-2.095 2.3-3.123 4.47-3.428 2.302-.324 3.962.747 5.367 2.352 1.616 1.85 2.558 4.079 3.633 6.231.833 1.663 1.7 3.311 2.568 4.962.575 1.092 1.174 2.174 1.756 3.262 1.818 3.399 3.624 6.8 5.445 10.196 1.731 3.229 3.472 6.455 5.212 9.681 1.34 2.48 2.676 4.959 4.016 7.44 1.638 3.03 3.279 6.06 4.914 9.093.44.81.876 1.623 1.314 2.437-.1.124-.245.148-.388.148-1.296.006-2.592.054-3.888-.024-.233-.055-.317-.248-.408-.43-.876-1.769-1.762-3.534-2.648-5.297-1.196-2.383-2.396-4.759-3.586-7.145-1.181-2.367-2.381-4.728-3.556-7.102-.27-.547-.531-1.1-.814-1.642-1.79-3.45-3.49-6.945-5.244-10.416-1.75-3.468-3.496-6.942-5.215-10.425-.982-1.998-2.054-3.951-2.984-5.971-.093-.2-.192-.393-.373-.538-.08-.145-.068-.3-.074-.457-.053-1.92-1.672-3.516-3.652-3.492-1.999.021-3.456 1.424-3.696 3.111-.186 1.288.234 2.359 1.213 3.226.108.097.223.182.254.33.032.414.243.774.401 1.146 1.054 2.458 1.927 4.986 2.87 7.486 1.199 3.172 2.358 6.361 3.545 9.536 1.073 2.873 2.126 5.748 3.195 8.62 1.26 3.384 2.502 6.773 3.758 10.16 1.05 2.841 2.117 5.683 3.152 8.532.087.238.298.523-.056.746-.976.118-1.952.046-2.928.043-.127 0-.255-.034-.342-.142" fill="#202327"/><path d="M37.759 12.636c.067.176.172.346.096.547L19.956 34.17c-4.03 4.726-8.06 9.449-12.079 14.184-.386.454-.792.847-1.357 1.07-.818.389-1.99-.072-2.261-.884-.444-.974-.189-1.778.514-2.581 2.414-2.776 4.78-5.588 7.167-8.389 3.047-3.573 6.094-7.142 9.14-10.715 2.712-3.178 5.424-6.358 8.135-9.539 2.377-2.784 4.75-5.572 7.126-8.36.029-.034.077-.056.115-.084.316 1.292.833 2.523 1.303 3.765z" fill="#202327"/><path d="M68.82 90.635c-3.417.004-5.66.01-6.73.02a29.25 29.25 0 01-1.103-.018c-.353-1.869-.617-3.17-.792-3.905-.223-.829-.717-2.206-1.48-4.131l10.105 8.034z" fill="url(#l)"/><path d="M5.179 45.505c.51.702 1.912.553 1.933 2.328.01.88-.391 1.45-.827 1.954.023.123.055.246.095.368.19.794.525 1.548.65 2.363.275 1.8-.145 3.406-1.31 4.839-.78.958-2.564 1.677-5.354 2.156-.09-.74-.154-1.294-.193-1.663-.04-.369-.07-.707-.093-1.015l1.454-.195a28.794 28.794 0 011.512-.856.935.935 0 00.32-.239l-.09.254c.066-.178.128-.358.187-.54a.765.765 0 00-.073-.285c.47-.758.544-1.591.478-2.453-.058-.735-.292-1.434-.472-2.144-.321-1.256 0-2.41.689-3.483.318-.501.697-.95 1.094-1.389z" fill="#5F6875"/><path d="M100.75 47.57h-8.265c-1.514 0-2.613-.588-3.3-1.766-.685-1.178-1.04-2.778-1.066-4.8l.086-12.28c-.013-1.364.342-2.474 1.067-3.33.725-.857 1.698-1.31 2.92-1.36" stroke="#555" stroke-width=".873" stroke-linecap="round" stroke-linejoin="round"/><path d="M44.34 82.052a.317.317 0 000 .452.34.34 0 00.241.098.34.34 0 00.24-.098.317.317 0 000-.452c-.061-.06-.146-.098-.48 0zM44.34 86.84a.317.317 0 000 .451.34.34 0 00.241.098.34.34 0 00.24-.098.317.317 0 000-.452c-.061-.06-.146-.098-.48 0zM39.506 86.84a.317.317 0 000 .451.34.34 0 00.24.098.34.34 0 00.24-.098.317.317 0 000-.452c-.06-.06-.146-.098-.48 0zM39.506 82.052a.317.317 0 000 .452.34.34 0 00.24.098.34.34 0 00.24-.098.317.317 0 000-.452c-.06-.06-.146-.098-.48 0z" stroke="#979797" stroke-width="1.746" fill="#202327"/><path d="M56.745 54.751c-.29-.88-.752-1.885-1.073-2.749-.632-1.695-1.164-3.35-1.818-5.038-1.343-3.48-2.544-7.109-3.89-10.588-1.464-3.781-2.726-7.42-4.187-11.2-.854-2.205-1.569-4.44-2.436-6.64-1.044-2.658-1.883-5.444-3.074-8.051-.057-.128-.448-.49-.255-.629.22-.068.515.276.69.35 2.337 1.01 4.255.119 4.948-2.201.044-.157.05-.77.21-.883.304-.113.445.351.506.461 1.27 2.41 5.507 11.16 6.466 12.995 1.15 2.19 2.33 4.688 3.48 6.881 1.33 2.53 2.393 4.785 3.717 7.319 1.217 2.329 2.242 4.499 3.458 6.828 1.991 3.808 3.712 7.59 5.696 11.402.282.544.627 1.25.894 1.8.05.103-2.997.01-6.59 0-3.387-.009-6.7.07-6.742-.057z" fill="url(#m)" opacity=".697"/><path d="M72.03 54.814c1.619.003 3.24.01 4.859.018 0 .71.003 1.53 0 2.24-.003 1.516-.8 2.463-2.09 2.463-6.085.004-12.171.004-18.255.004h-29.64c-.763 0-.763 0-.766-.925 0-.153-.006-.305-.012-.457.047-.439 0-.988.072-1.427.176-1.066.894-1.835 1.814-1.894.163-.011.324-.008.488-.008H49.65c.211 0 .422-.007.633-.01l21.746-.004z" fill="url(#n)"/><path d="M3.91 53.266c.085.777-.21 1.473-.887 2.087-.677.615-1.685.851-3.023.708l.173 1.789 2.331-.179 3.089-2.807-.264-2.872-.905-1.119-.515 2.393z" fill="#5F6875"/><path d="M5.663 47.39a.317.317 0 000 .451.34.34 0 00.24.098.34.34 0 00.24-.098.317.317 0 000-.451c-.061-.061-.146-.098-.48 0z" stroke="#979797" stroke-width="1.746" fill="#FFF" opacity=".651"/><path d="M95.13 76.298H67.546c-.795.11-1.192.511-1.192 1.202 0 .69.397 1.085 1.192 1.185h26.246a66.919 66.919 0 001.338-2.387z" fill="#969696"/><path d="M66.354 77.5a1.08 1.08 0 00.24.768c.178.224.495.363.952.417h26.246l.733-1.28-28.171.095z" fill="url(#o)"/><path d="M92.224 81.084H65.13c-.795.112-1.192.512-1.192 1.202s.397 1.086 1.192 1.186h25.343a61.06 61.06 0 001.752-2.387z" fill="#969696"/><path d="M63.937 82.286c0 .247.104.506.31.778.206.272.5.408.882.408h25.343l.99-1.32-27.525.134z" fill="url(#p)"/><path d="M88.453 85.872h-18.49c-.794.11-1.192.511-1.192 1.202 0 .69.398 1.085 1.192 1.185h16.143c.348-.32.68-.64.998-.963.317-.323.767-.797 1.35-1.424z" fill="#969696"/><path d="M68.771 87.074c.009.38.121.656.337.83.216.175.5.293.855.355h16.143l1.232-1.185H68.771z" fill="url(#q)"/><path d="M1.951 66.723h25.492c.795.11 1.192.511 1.192 1.202 0 .69-.397 1.085-1.192 1.185H2.731a26.786 26.786 0 01-.396-1.185c-.143-.458-.271-.859-.384-1.202zM3.724 71.51h20.814c.794.11 1.192.511 1.192 1.201 0 .69-.398 1.086-1.192 1.186H4.872l-1.148-2.388zM6.208 76.297h14.559c.794.11 1.192.511 1.192 1.202 0 .69-.398 1.085-1.192 1.185H7.607l-1.4-2.387z" fill="#969696"/><path d="M101.202 52.907c-1.491-.366-2.638-.55-3.439-.55-6.008 0-10.878 4.823-10.878 10.772 0 2.416.883 5.675 3.648 8.01.655.553 1.424 1.167 3.02 1.926.648.308 1.587.557 2.817.748.689-1.483 1.345-3.158 1.968-5.026.457-1.37 1.307-4.313 1.773-6.57.32-1.55.658-3.953.954-7.282.037-.42.083-1.097.137-2.028z" fill="url(#r)"/><path d="M93.693 60.035c-.203.204-.582.05-.789-.103-.43-.127-.754.238-.7.643.045.383.323.358-.018.702l-.833.838c-.255.256-.53.118-.786-.138l-.923-.924c-.255-.256-.486-.438-.23-.695l.97-.978c.271-.273.427.022.714-.003.323-.002.642-.405.55-.712a.722.722 0 01-.071-.13c-.062-.157.047-.404.194-.552 0 0 1.249-1.227 1.311-1.29 1.622-1.634 3.365-1.083 3.983-.87 0 .249.047.326-.618.252-.665-.074-2.686.994-1.713 1.965.06.061.547.393-.14 1.084l-.901.91z" fill="#D7D7D7" fill-rule="nonzero"/><path d="M93.693 60.035c-.203.204-.582.05-.789-.103-.43-.127-.754.238-.7.643.045.383.323.358-.018.702l-.833.838c-.255.256-.53.118-.786-.138l-.527-.534 5.728-5.883c.283.01.49.029.624.055.263.05.556.168.673.209 0 .248.047.325-.618.25-.665-.073-2.686.995-1.713 1.966.06.061.547.393-.14 1.084l-.901.91z" fill="#969697" fill-rule="nonzero" opacity=".514"/><path d="M95.026 59.228s.909.843 2.658 2.515c-.455.42-.95.857-1.398 1.249l-2.434-2.6 1.174-1.164z" fill="#4C4C4C" fill-rule="nonzero"/><path d="M99.713 64.02c-3.036 3.351-4.667 5.138-4.892 5.362-.45.445-.765.499-1.144.497-.381-.004-.77-.207-1.053-.488l-.007-.007-.007-.006c-.283-.281-.49-.67-.492-1.046-.001-.375.104-.754.495-1.141.39-.388 6.683-6.04 6.683-6.04s.629-.631.417-1.188c-.416-1.1-.05-2.06.83-2.934.101-.1.221-.238.362-.415-.03.414-.113 1.178-.247 2.292-.07.577-.217 1.357-.366 2.321-.082.532-.275 1.463-.579 2.794z" fill="#C8C8C8" fill-rule="nonzero"/><path d="M92.624 69.378l-.014-.014c-.283-.28-.49-.67-.492-1.046-.001-.375.104-.753.495-1.14.39-.389 6.683-6.041 6.683-6.041s.629-.63.417-1.188c-.416-1.1-.05-2.06.83-2.934.106-.105.227-.239.362-.4-.08.922-.162 1.686-.247 2.29a87.27 87.27 0 01-.471 2.85c-4.91 5.214-7.43 7.755-7.563 7.623z" fill="#969697" fill-rule="nonzero" opacity=".5"/><path d="M39.735 10.18c-.075-.045-.154-.086-.23-.126-.801-.622-1.356-1.396-1.634-2.374-.661-2.312 1.059-4.872 3.454-5.198a4.238 4.238 0 014.803 3.28c.089.418.02.835.061 1.253-.346 3.13-3.724 4.79-6.454 3.164z" fill="#546875"/><path d="M41.892 8.955c-1.293-.008-2.465-1.1-2.398-2.348.078-1.586 1.105-2.383 2.465-2.437 1.333-.058 2.37 1.077 2.367 2.441-.004 1.353-1.046 2.352-2.434 2.344z" fill="#FFF" opacity=".477"/></g></g></svg>