<svg viewbox="0 0 121 50" width="121" height="50" xmlns="http://www.w3.org/2000/svg"><g fill="none" fill-rule="evenodd"><path d="M4 0h113a4 4 0 014 4v42a4 4 0 01-4 4H4a4 4 0 01-4-4V4a4 4 0 014-4z" fill="#3879CE"/><path d="M18.994 23.22v-9.24h-2.776v4.745l-3.66-4.744H9.991v9.238h2.792V18.5l3.647 4.718h2.565l-.002.001zm6.257-9.331c-2.948 0-5.089 1.964-5.089 4.704 0 2.754 2.142 4.757 5.089 4.757 2.947 0 5.089-2.015 5.089-4.757 0-2.728-2.142-4.704-5.089-4.704zm.04 2.543c1.056 0 1.903.91 1.903 2.175 0 1.264-.847 2.2-1.904 2.2s-1.982-.935-1.982-2.2c0-1.265.911-2.175 1.982-2.175zm14.614 6.787h3.463l-1.824-3.005c.952-.58 1.467-1.58 1.467-2.925 0-2.108-1.442-3.308-3.952-3.308h-4.48v9.238h3.066v-2.4h1.148l1.112 2.4zm-2.26-4.718V16.3h1.414c.661 0 1.045.396 1.045 1.08 0 .713-.384 1.121-1.045 1.121h-1.414zM52.307 16.3v-2.32H44.47v9.24h7.957V20.9h-4.89v-1.147h4.335v-2.32h-4.335V16.3h4.771zm1.59-2.32v9.24h3.067v-2.4h1.282c2.407 0 3.794-1.292 3.794-3.532 0-2.109-1.387-3.309-3.794-3.309h-4.348v.002zm3.067 2.32h1.124c.66 0 1.044.396 1.044 1.08 0 .713-.383 1.121-1.044 1.121h-1.124V16.3zm10.935-2.411c-2.947 0-5.087 1.964-5.087 4.704 0 2.754 2.142 4.757 5.087 4.757 2.949 0 5.09-2.015 5.09-4.757 0-2.728-2.143-4.704-5.09-4.704zm.04 2.543c1.058 0 1.905.91 1.905 2.175 0 1.264-.847 2.2-1.904 2.2-1.059 0-1.983-.935-1.983-2.2 0-1.265.912-2.175 1.983-2.175zm11.544 6.787h3.463l-1.824-3.005c.952-.58 1.467-1.58 1.467-2.925 0-2.108-1.442-3.308-3.952-3.308h-4.48v9.238h3.066v-2.4h1.15l1.11 2.4zm-2.26-4.718V16.3h1.414c.661 0 1.045.396 1.045 1.08 0 .713-.384 1.121-1.045 1.121h-1.414zm14.57-2.108v-2.412h-8.34v2.412h2.63v6.826h3.065v-6.826h2.645zm8.873-.093v-2.32H92.83v9.24h7.956V20.9h-4.89v-1.147h4.336v-2.32h-4.336V16.3h4.771zm1.59-2.32v9.24h4.019c3.133 0 5.156-1.82 5.156-4.626 0-2.808-1.984-4.613-5.037-4.613H102.257zm3.067 2.373h1.005c1.19 0 1.97.896 1.97 2.266 0 1.359-.714 2.228-1.825 2.228h-1.149v-4.494h-.001zM16.298 36.106l.463 1.305h3.265l-3.766-9.239h-3.147L9.2 37.412h3.146l.476-1.306h3.476zm-.752-2.188h-1.932l.979-2.701.952 2.701h.001zm9.614-5.837c-2.908 0-5.023 1.976-5.023 4.691 0 2.754 2.062 4.77 4.904 4.77 1.428 0 3-.724 4.032-1.845l-1.772-1.885c-.608.646-1.441 1.056-2.102 1.056-1.11 0-1.916-.897-1.916-2.136 0-1.225.806-2.108 1.916-2.108.714 0 1.547.487 2.102 1.239l1.77-2.096c-.951-1.028-2.497-1.686-3.911-1.686zm9.27 0c-2.908 0-5.024 1.976-5.024 4.691 0 2.754 2.062 4.77 4.904 4.77 1.428 0 3-.724 4.032-1.845l-1.77-1.885c-.61.646-1.443 1.056-2.103 1.056-1.11 0-1.917-.897-1.917-2.136 0-1.225.806-2.108 1.918-2.108.714 0 1.546.487 2.1 1.239l1.772-2.096c-.952-1.028-2.499-1.686-3.913-1.686zm7.91 9.33v-9.239h-3.068v9.24H42.339zm1.629-9.239v9.24h4.018c3.132 0 5.155-1.82 5.155-4.626 0-2.808-1.983-4.614-5.036-4.614h-4.137zm3.066 2.372h1.004c1.19 0 1.97.896 1.97 2.267 0 1.358-.714 2.228-1.825 2.228h-1.149v-4.495zm15.112-.052v-2.32h-7.839v9.24h7.956v-2.32h-4.89v-1.148h4.336v-2.319h-4.336v-1.133h4.773zm10.592 6.92v-9.24H69.96v4.745l-3.661-4.745h-2.565v9.24h2.79v-4.719l3.647 4.718h2.568zm9.376-6.827v-2.413h-8.341v2.413h2.632v6.826h3.066v-6.828h2.643v.002zm5.054-2.543c-2.407 0-3.966 1.158-3.966 3.004 0 3.242 4.797 2.451 4.797 3.65 0 .329-.29.475-.739.475-.938 0-2.577-.646-3.53-1.438l-1.136 2.293c1.23.936 3.027 1.477 4.64 1.477 2.088 0 3.899-.91 3.899-2.965 0-3.348-4.798-2.623-4.798-3.782 0-.278.224-.382.568-.382.807 0 2.247.566 3.185 1.08l1.11-2.32c-1.044-.658-2.563-1.092-4.032-1.092h.002zm5.986 1.627v1.945h-.623v-1.945H91.8v-.502h2.094v.502h-.739zm3.229 1.945l-.003-1.589-.588 1.346h-.406l-.588-1.346v1.589h-.559v-2.447h.685l.665 1.455.665-1.455h.677v2.447h-.548z" fill="#FFF" fill-rule="nonzero"/></g></svg>