<svg id="Layer_1" enable-background="new 0 0 512 512" height="512" viewBox="0 0 512 512" width="512" xmlns="http://www.w3.org/2000/svg"><g><path d="m499.127 334.578-31.67-219.455c-44.337-62.975-117.589-104.125-200.459-104.125-135.311 0-245.002 109.691-245.002 245.002s109.691 245.002 245.002 245.002c107.827 0 199.384-69.656 232.129-166.424z" fill="#816ae2"/><path d="m28.655 266.6h11.307c-16.285 0-29.396 13.582-28.624 30.037.724 15.414 14.001 27.273 29.432 27.273h74.506c18.918 0 34.095 15.57 33.632 33.916-.129 5.114-2.219 12.314-6.514 18.215-10.56 14.508-23.375 33.382-33.278 51.936-8.898 16.67-5.556 28.296 1.501 38.194 11.072 15.529 36.558 13.148 43.394.51 19.47-35.991 49.429-56.128 71.018-66.661 9.378-4.575 29.464-27.204 46.884-49.044 16.749-20.999 40.527-34.873 66.597-39.259-.117-.661-.189-1.337-.189-2.031v-169.67c0-.222.021-.438.033-.657-29.671-1.261-52.29-12.167-52.123-12.113-51.359-22.826-132.81-32.578-188.79-32.578h-29.795c-15.43 0-28.707 11.858-29.432 27.271-.774 16.456 12.338 30.04 28.622 30.04h-26.067c-15.431 0-28.709 11.86-29.431 27.274-.771 16.455 12.339 30.037 28.624 30.037h-10.497c-15.43 0-28.707 11.858-29.432 27.271-.775 16.455 12.337 30.039 28.622 30.039z" fill="#f9ba8f"/><path d="m338.32 309.686v-169.67c0-.222.021-.439.034-.657-29.671-1.261-52.29-12.167-52.124-12.112-10.238-4.55-21.685-8.572-33.874-12.11.981 1.132 93.189 108.116 19.557 235.84 16.749-20.999 40.527-34.873 66.597-39.259-.118-.662-.19-1.339-.19-2.032z" fill="#fd995b"/><path d="m159.107 428.324c-4.221-3.108-10.148-2.241-13.312 1.938-4.258 5.625-10.038 13.685-14.492 21.48-4.927 8.622.201 17.673 4.887 23.371.9 1.094 2.338 1.61 3.731 1.349 6.668-1.252 12.473-4.676 15.234-9.78 4.87-9.002 10.397-17.007 16.284-24.121 1.441-1.742 1.113-4.333-.707-5.673z" fill="#f9dfcd"/><path d="m347.61 321.266h29.664c-.001-.072-.011-.142-.011-.214v-192.404c0-.072.01-.142.011-.214h-29.664c-6.396 0-11.581 5.185-11.581 11.581v169.67c0 6.396 5.185 11.581 11.581 11.581z" fill="#e9efff"/><path d="m347.61 321.266h29.664c-.001-.072-.011-.142-.011-.214v-93.006c-2.842-.445-5.8.137-8.264 1.815-18.802 12.805-32.97-5.011-32.97-5.011v84.835c0 6.396 5.185 11.581 11.581 11.581z" fill="#bec8f7"/><path d="m374.972 128.648v192.404c0 7.47 6.055 13.525 13.525 13.525h110.63c8.347-24.665 12.873-51.093 12.873-78.577 0-52.441-16.485-101.027-44.542-140.878h-78.96c-7.47.001-13.526 6.056-13.526 13.526z" fill="#ff4155"/><path d="m512 256c0-10.076-.614-20.008-1.797-29.765-56.016 42.784-109.51 15.767-128.218 3.62-2.123-1.379-4.585-2.033-7.013-1.939v93.137c0 7.47 6.055 13.525 13.525 13.525h110.63c8.347-24.666 12.873-51.094 12.873-78.578z" fill="#e80054"/><g><path d="m319.407 87.98c11.03 2.838 22.338 5.699 33.672 4.583 15.628-1.54 30.067-10.934 38.715-24.041 3.714-5.63 6.378-11.886 8.024-18.419-38.265-24.739-83.863-39.104-132.82-39.104-54.24 0-104.354 17.638-144.946 47.475 1.742.236 3.488.431 5.226.603 28.881 2.85 58.113.912 86.915 4.464 19.584 2.416 38.759 7.345 57.869 12.261 15.782 4.058 31.564 8.118 47.345 12.178z" fill="#9181f2"/></g><g><path d="m325.723 374.285c-14.421 9.573-22.822 26.08-36.394 36.821-19.83 15.695-48.604 17.533-66.684 35.215-12.312 12.04-17.353 30.062-15.54 47.294 19.169 4.817 39.23 7.387 59.893 7.387 81.909 0 154.422-40.202 198.907-101.943-25.63-22.988-61.278-34.661-96.086-35.071-15.325-.18-31.327 1.821-44.096 10.297z" fill="#9181f2"/></g></g></svg>