<svg width="139" height="133" viewBox="0 0 139 133" preserveAspectRatio="xMinYMin meet" xmlns="http://www.w3.org/2000/svg" xmlns:xlink="http://www.w3.org/1999/xlink"><defs><filter x="-15.2%" y="-10.1%" width="130.4%" height="130.4%" filterUnits="objectBoundingBox" id="a"><feOffset dy="6" in="SourceAlpha" result="shadowOffsetOuter1"/><feGaussianBlur stdDeviation="5" in="shadowOffsetOuter1" result="shadowBlurOuter1"/><feColorMatrix values="0 0 0 0 0 0 0 0 0 0 0 0 0 0 0 0 0 0 0.03 0" in="shadowBlurOuter1"/></filter><filter x="-17.8%" y="-11.8%" width="135.5%" height="135.5%" filterUnits="objectBoundingBox" id="c"><feOffset dy="6" in="SourceAlpha" result="shadowOffsetOuter1"/><feGaussianBlur stdDeviation="5" in="shadowOffsetOuter1" result="shadowBlurOuter1"/><feColorMatrix values="0 0 0 0 0 0 0 0 0 0 0 0 0 0 0 0 0 0 0.04 0" in="shadowBlurOuter1"/></filter><filter x="-11.8%" y="-14.3%" width="123.5%" height="128.6%" filterUnits="objectBoundingBox" id="g"><feOffset dy="2" in="SourceAlpha" result="shadowOffsetOuter1"/><feGaussianBlur stdDeviation="2" in="shadowOffsetOuter1" result="shadowBlurOuter1"/><feColorMatrix values="0 0 0 0 0 0 0 0 0 0 0 0 0 0 0 0 0 0 0.1 0" in="shadowBlurOuter1" result="shadowMatrixOuter1"/><feMerge><feMergeNode in="shadowMatrixOuter1"/><feMergeNode in="SourceGraphic"/></feMerge></filter><filter x="-13%" y="-11.7%" width="126%" height="124.3%" filterUnits="objectBoundingBox" id="k"><feOffset dy="2" in="SourceAlpha" result="shadowOffsetOuter1"/><feGaussianBlur stdDeviation="2" in="shadowOffsetOuter1" result="shadowBlurOuter1"/><feColorMatrix values="0 0 0 0 0 0 0 0 0 0 0 0 0 0 0 0 0 0 0.0366313374 0" in="shadowBlurOuter1" result="shadowMatrixOuter1"/><feMerge><feMergeNode in="shadowMatrixOuter1"/><feMergeNode in="SourceGraphic"/></feMerge></filter><path id="e" d="M0 .165h101.705V101.87H0z"/><path id="i" d="M.17.147h92.227V91.01H.171z"/><path id="l" d="M.922.409h10.142v10.485H.922z"/><circle id="b" cx="59.289" cy="59.289" r="59.289"/><circle id="d" cx="59.289" cy="59.289" r="50.665"/><linearGradient x1="105.671%" y1="7.014%" x2="35.135%" y2="79.229%" id="h"><stop stop-color="#B7EBE5" offset="0%"/><stop stop-color="#20B09B" offset="100%"/></linearGradient></defs><g fill="none" fill-rule="evenodd"><g transform="translate(10 4)"><use fill="#000" filter="url(#a)" xlink:href="#b"/><use fill="#E0F6FF" xlink:href="#b"/></g><g transform="translate(10 4)"><use fill="#000" filter="url(#c)" xlink:href="#d"/><use fill="#C5EEFF" xlink:href="#d"/></g><g transform="translate(18.509 12.6)"><mask id="f" fill="#fff"><use xlink:href="#e"/></mask><path d="M101.705 51.018c0 28.085-22.767 50.852-50.852 50.852C22.768 101.87 0 79.103 0 51.018 0 22.932 22.768.165 50.853.165s50.852 22.767 50.852 50.853" fill="#C5EEFF" mask="url(#f)"/></g><g filter="url(#g)" transform="translate(18.573 21.994)" fill="url(#h)"><path d="M12.969 41.104l.066.005c.282.042.59.043.833.167.327.168.678.3.974.527.208.161.439.26.706.288.24.026.471.068.692.202a.664.664 0 00.804-.06c.158-.131.329-.157.52-.158.257 0 .513.006.766-.074.218-.067.426.038.62.125.212.095.148.283.11.45-.032.152-.144.292-.091.455.072.224.192.423.436.495.37.111.59.372.779.694.326.553.794.91 1.47.847.508-.046.953.168 1.423.28.103.023.176.096.242.172.18.204.361.399.6.547.235.145.291.427.342.674.073.359.173.694.423.972.102.113.095.266.132.403.102.377.307.611.701.786.875.386 1.787.688 2.624 1.177.502.293 1.053.613 1.698.502.496-.116.856.153 1.211.426.125.096.237.211.338.331.26.309.574.514.982.565.386.048.594.28.715.644.3.897.124 1.72-.342 2.508a.477.477 0 01-.081.101c-.552.533-.828 1.262-1.309 1.847-.353.428-.325.944-.187 1.434.084.303.129.577.034.88-.04.132-.02.285-.025.428-.005.114.017.24-.055.334-.198.258-.212.547-.195.855.017.315-.143.584-.312.832-.136.198-.223.396-.2.638.019.186-.039.34-.21.438-.05.028-.116.062-.13.108-.143.445-.54.437-.878.451a1.84 1.84 0 00-1.04.345c-.119.086-.258.124-.393.166a1.893 1.893 0 00-.433.187c-.805.488-.958.854-.692 1.752.067.229.064.452.062.681a.61.61 0 01-.227.49c-.066.055-.122.12-.185.18-.279.262-.195.725-.535.955-.334.226-.416.602-.555.945-.152.371-.308.742-.481 1.103-.12.25-.312.457-.53.614-.426.306-.59.759-.756 1.216-.02.054-.049.109-.051.164-.024.627-.465.87-.966 1.055-.107.04-.222.062-.327.108-.277.12-.49.307-.536.622a1.51 1.51 0 01-.287.662 1.506 1.506 0 00-.28.667 1.173 1.173 0 01-.298.653c-.097.103-.178.234-.124.392.101.291-.02.529-.17.764a.715.715 0 00.305 1.036c.454.222.532.595.184.957-.19.198-.407.37-.37.69.007.05-.03.108-.055.158l-.042.084c-.171.349-.215.522.265.952.198.176.348.357.45.607.177.442.6.636.985.852.185.104.39.18.613.18.057 0 .122.003.167.031.136.082.289.17.26.357-.028.197-.185.221-.358.22-.344 0-.69.018-1.017-.119-.144-.061-.296-.057-.446-.063-.194-.139-.39-.274-.582-.414-.1-.29-.415-.512-.723-.539a51.283 51.283 0 01-2.51-2.048l-.006-.01c-.044-.072-.062-.163-.113-.228-.285-.367-.36-.806-.423-1.244a1.606 1.606 0 00-.236-.684 1.294 1.294 0 01-.2-.605c-.068-.743-.271-1.444-.765-2.015-.297-.344-.43-.744-.506-1.16-.108-.594-.202-1.186-.493-1.726a.5.5 0 01-.038-.295c.047-.44.062-.888.157-1.318.12-.547.081-1.073-.01-1.617-.089-.523-.312-1.008-.365-1.542-.043-.445-.088-.88.01-1.322.037-.165.033-.345.015-.514-.107-.997-.137-1.999-.187-2.999-.036-.696-.005-1.406-.221-2.087-.043-.138-.071-.282-.17-.388-.421-.454-.88-.863-1.447-1.129-.298-.14-.607-.256-.911-.383-.04-.016-.092-.02-.119-.048-.359-.367-.79-.704-.979-1.177-.167-.415-.395-.791-.592-1.182-.23-.455-.496-.908-.866-1.278-.188-.189-.29-.42-.359-.673-.126-.463-.32-.895-.732-1.177-.482-.328-.587-.824-.633-1.349-.015-.179.065-.335.188-.464.314-.327.396-.668.144-1.086-.168-.28-.137-.629-.07-.928.105-.47.24-.94.675-1.253.232-.167.329-.46.524-.675.163-.179.372-.3.512-.512.243-.369.28-.778.324-1.188.052-.479.006-.943-.271-1.364-.085-.127-.172-.266-.165-.436.004-.09-.026-.16-.12-.207-.23-.113-.127-.318-.116-.492.005-.084.083-.113.157-.119.158-.013.315-.015.471.016.424.086.96-.19 1.052-.593.13-.572.565-.78 1.037-.885.406-.09.772-.206 1.053-.516a.327.327 0 01.312-.1zm44.435-15.582c.208-.105.454-.064.678-.03.221.035.367.246.322.484-.042.23-.038.456-.022.684a.741.741 0 01-.103.411c-.182.345-.11.672.217.872.307.185.628.347 1.012.3.155-.02.317-.02.472.003.34.048.644.159.748.542.076.278.276.382.55.387.357.006.672.13.943.364.123.106.259.177.429.165.285-.022.423-.195.334-.464-.055-.17-.133-.326.004-.483.156-.18.282-.41.562-.427.118-.007.22-.06.331-.083.292-.063.603-.05.826.132.224.182.481.23.72.346.528.252 1.099.318 1.655.446.182.042.37.066.534.153.233.124.427.098.636-.059.316-.238.68-.354 1.043-.148.448.253.89.527.996 1.108.068.379.288.762.25 1.122-.067.634.393 1.016.57 1.525.065.184.177.36.243.55.17.495.468.91.815 1.296.298.333.455.754.49 1.173.053.627.327 1.112.733 1.553.242.264.392.582.41.928.031.58.334.936.851 1.106.253.084.404.225.552.43.182.256.412.476.624.71.213.233.393.46.405.816.015.44.533.719.995.643.624-.104 1.203-.353 1.81-.51.37-.096.765-.078 1.113-.292.137-.084.377.115.34.27-.094.396.063.802-.064 1.194-.03.095-.028.203-.07.291-.429.937-.826 1.893-1.31 2.802-.432.811-.987 1.54-1.863 1.958-.368.175-.613.518-.87.823-.284.34-.528.713-.793 1.07-.068.092-.132.196-.221.262-.506.378-.747.927-.981 1.482-.061.145-.12.288-.218.417-.148.193-.173.428-.121.656.128.56.21 1.12.185 1.7-.015.348.151.68.355.95.31.413.303.868.221 1.315a3.915 3.915 0 00-.036 1.197c.067.544-.128.98-.457 1.38-.346.419-.785.713-1.282.919-.207.085-.365.21-.497.39-.126.172-.265.33-.446.459-.422.302-.585.727-.493 1.242.02.112.05.224.09.331.228.607.073 1.185-.134 1.755-.074.208-.251.354-.443.452-.493.25-.813.616-.886 1.18-.02.155-.084.304-.135.453-.114.342-.264.65-.564.888-.255.203-.439.49-.588.787-.15.297-.33.565-.6.775-.156.121-.282.284-.411.438a2.698 2.698 0 01-1.285.878c-.523.17-1.035.319-1.588.3a.518.518 0 00-.21.034c-.526.22-1.092.204-1.64.288-.354.054-.625-.167-.916-.31-.042-.021-.075-.092-.083-.144-.052-.364-.306-.693-.203-.986.035-.392-.008-.671-.152-.931a.138.138 0 01-.015-.04c-.14-.711-.413-1.33-.962-1.85-.315-.299-.398-.786-.423-1.24a2.995 2.995 0 00-.142-.844c-.09-.261-.053-.54-.032-.812.029-.387-.036-.734-.32-1.027-.316-.33-.439-.77-.615-1.175-.132-.303-.247-.61-.442-.882-.085-.117-.164-.251-.155-.395.026-.413.025-.836.126-1.232.106-.413.27-.816.335-1.24.042-.27.143-.493.337-.676.46-.435.498-.945.262-1.496-.2-.469-.332-.945-.302-1.46.018-.297-.082-.567-.238-.813a1.71 1.71 0 01-.279-.714c-.047-.404-.236-.723-.49-1.025-.305-.361-.583-.746-.886-1.109-.161-.194-.22-.432-.324-.651-.067-.144-.012-.283.043-.416.14-.335.213-.68.193-1.047-.015-.277.135-.523.18-.793.088-.525.015-.686-.432-.938-.355-.2-.728-.231-1.12-.17-.531.086-.656.013-.827-.482-.18-.524-.506-.756-1.066-.756-.475 0-.913.078-1.363.291-.445.212-.922.385-1.378.588-.376.167-.726.026-1.043-.074-.511-.161-.956-.026-1.42.116a1.75 1.75 0 00-.36.14c-.45.258-.847.166-1.22-.16a8.873 8.873 0 00-1.173-.86c-.714-.443-1.22-1.07-1.46-1.89a1.13 1.13 0 00-.349-.53c-.244-.22-.397-.52-.649-.74-.14-.124-.335-.167-.445-.33-.356-.53-.632-1.085-.635-1.746a1.16 1.16 0 01.364-.887.925.925 0 00.295-.554c.015-.099.02-.202.052-.295.219-.61.034-1.186-.182-1.74-.217-.556-.12-1.025.13-1.55.243-.509.582-.946.854-1.43.057-.099.11-.204.138-.313.085-.339.187-.634.547-.819.175-.09.278-.357.368-.564.077-.176.19-.3.358-.342.503-.127.76-.54 1.055-.898.266-.32.447-.687.56-1.101.184-.675.644-1.162 1.246-1.499.248-.139.45-.284.55-.565.056-.158.171-.296.261-.442.144-.23.419-.337.619-.17.243.205.502.204.768.174.538-.06 1.078-.12 1.586-.333a.668.668 0 00.27-.198c.164-.196.387-.33.635-.315.498.03.964-.123 1.44-.209.26-.047.51-.082.757.035.095.045.195.072.286.007.378-.267.806-.145 1.214-.154.185-.005.357.014.539-.078zm21.781 31c.12-.178.264-.164.36.035.129.27.26.543.31.844.031.183.053.37.103.548.114.396.064.758-.158 1.108a2.213 2.213 0 00-.327.915c-.08.585-.353 1.115-.555 1.664-.241.658-.521 1.302-.694 1.984-.079.309-.252.576-.382.862a.361.361 0 01-.187.169c-.25.1-.503.211-.766.264-.379.076-.903-.325-1.01-.773-.089-.374-.188-.751-.17-1.182-.046-.308.068-.587.27-.877.275-.397.504-.83.349-1.363-.06-.2-.039-.424-.072-.637-.06-.382.18-.683.327-1.004.094-.207.323-.243.51-.277.777-.144 1.2-.656 1.51-1.331.153-.336.374-.642.582-.95zM3.59 35.58c.526-.198 1.056-.352 1.628-.235.23.047.378.243.237.388-.324.33-.268.77-.42 1.147-.13.32-.266.63-.467.914a.915.915 0 00-.118.856c.05.154.143.24.311.241.2.003.398.03.599-.004a1.736 1.736 0 011.446.375c.07.057.133.113.137.206.01.186.064.393-.025.553-.281.503-.23 1.087-.428 1.614A.913.913 0 006.8 42.72c.09.07.174.15.26.225.261.23.546.351.906.248.13-.037.306-.068.401.064.09.122.063.278-.027.403l-.045.076a.473.473 0 00-.04.247c.008.137-.014.274-.167.313-.165.042-.356.082-.48-.078-.184-.237-.423-.321-.708-.349-.239-.022-.444-.131-.546-.363-.127-.288-.379-.449-.641-.543-.47-.168-.676-.508-.736-.962-.042-.31-.197-.568-.348-.82a.834.834 0 00-.59-.396c-1.052-.182-2.027-.511-2.67-1.445-.094-.134-.224-.224-.352-.313-.16-.11-.333-.158-.53-.084-.133.051-.276.075-.412.12-.025.008-.05.011-.075.018.041-.838.105-1.67.186-2.496.282.426.765.73 1.257.648.302-.05.595-.05.897-.021.378.035.55-.08.708-.422.127-.274.243-.553.273-.856a.389.389 0 01.268-.354zM85.265 4.252c8.561 7.903 14.392 18.71 15.947 30.859-.233.05-.463.114-.707.116-.26.002-.5.112-.706.28-.08.065-.158.135-.156.245.009.433-.308.632-.615.808-.232.134-.388.318-.563.51-.325.355-.576.765-.944 1.097-.32.29-.604.636-.936.93-.154.136-.247.35-.181.547.222.677-.009 1.332-.064 1.995-.004.057-.037.115-.03.168.096.682-.309 1.103-.77 1.497-.087.073-.158.166-.241.245-.26.248-.445.238-.694-.032a.89.89 0 01-.209-.324c-.24-.738-.632-1.409-.94-2.116-.098-.222-.167-.458-.247-.688-.085-.244-.181-.482-.35-.685-.12-.145-.189-.321-.251-.498-.254-.726-.628-1.414-.663-2.212-.012-.263-.145-.515-.159-.795-.014-.28-.28-.426-.561-.365a1.009 1.009 0 00-.165.05c-.266.11-.468.034-.63-.197a1.449 1.449 0 00-.436-.41c-.19-.114-.33-.266-.386-.493-.067-.28-.257-.488-.483-.64-.342-.227-.6-.528-.85-.84a.631.631 0 00-.516-.254 3.189 3.189 0 00-.81.087c-.773.176-1.538.106-2.302-.032-.366-.067-.727-.163-1.094-.223-.274-.044-.444-.179-.522-.441a1.07 1.07 0 00-.081-.2c-.117-.221-.187-.25-.402-.133-.102.056-.21.087-.316.132-.28.12-.528.054-.82-.021-.564-.145-.965-.555-1.477-.774-.189-.08-.225-.31-.293-.503-.147-.413-.343-.793-.852-.863-.362-.05-.65.26-.523.605.217.6.62 1.05 1.185 1.349.55.289.936.667.765 1.36-.037.149.053.225.174.24.342.042.689.069 1.027-.016.186-.046.318-.177.435-.333.373-.494.754-.47 1.11.059.065.095.143.18.203.277.122.196.27.33.525.292.208-.032.357.087.48.234.167.197.322.404.484.604.104.129.077.259.037.405-.106.38-.32.703-.533 1.025-.08.121-.169.239-.196.38-.134.677-.667.977-1.177 1.331-.45.31-.935.533-1.415.778a.987.987 0 00-.427.413c-.16.307-.44.442-.756.514-.154.035-.313.049-.453.13-.72.415-1.502.688-2.277.978-.04.015-.087.018-.122.04-.17.1-.32.256-.548.151-.245-.112-.448-.293-.536-.534-.243-.671-.608-1.284-.845-1.963-.216-.62-.569-1.206-.952-1.754a.827.827 0 00-.287-.255c-.398-.205-.555-.554-.642-.964-.065-.306-.093-.624-.253-.907-.155-.276-.315-.546-.584-.73a.7.7 0 01-.28-.37 2.443 2.443 0 00-.42-.747c-.4-.51-.721-1.06-.968-1.663-.145-.355-.325-.696-.43-1.07-.085-.304-.078-.58.065-.872.111-.23.174-.486.227-.736.065-.31.164-.601.28-.896.123-.308.058-.655.025-.98-.026-.268-.345-.435-.634-.368a.932.932 0 00-.31.144c-.278.193-.57.18-.85.037-.195-.099-.398-.154-.604-.213-.15-.042-.274-.053-.396.062-.173.162-.344.122-.55.025-.242-.113-.5-.234-.778-.224-.35.013-.565-.2-.731-.447a1.583 1.583 0 01-.291-.973 4.01 4.01 0 00-.014-.517c-.03-.344-.405-.61-.776-.559-.2.028-.447.425-.42.678.004.028.005.059.016.084.274.573.064 1.107-.135 1.641-.09.244-.165.29-.42.23-.315-.072-.614-.156-.614-.584a.584.584 0 00-.193-.42c-.38-.346-.52-.855-.845-1.238-.092-.108-.064-.245-.066-.373-.01-.528-.212-.943-.696-1.196a1.059 1.059 0 01-.306-.232.79.79 0 00-.436-.253c-.254-.059-.488-.197-.622-.427-.19-.328-.526-.48-.796-.71-.148-.124-.33-.064-.472.06-.123.11-.149.395-.046.562a.719.719 0 00.173.189c.198.15.34.327.44.565.129.305.43.46.728.548.173.052.307.128.448.228.304.215.624.406.93.619.127.089.253.194.246.38-.007.166-.102.235-.254.17-.117-.048-.2-.159-.344-.165-.205-.01-.313.106-.222.289.083.164.138.3.044.48-.124.238-.183.523-.488.612-.246.073-.376.203-.375.489 0 .239-.187.346-.384.227-.308-.187-.644-.317-.954-.496-.101-.059-.207-.134-.163-.27.042-.126.165-.146.285-.145.357.002.713.032 1.067-.073.348-.102.526-.482.295-.753-.258-.301-.516-.62-.899-.78-.522-.218-.967-.548-1.384-.924-.194-.174-.371-.358-.475-.604l-.048-.096a.93.93 0 00-.21-.243c-.307-.255-.347-.232-.696-.007-.282.182-.605.299-.888.49-.12.082-.277-.015-.416-.042-.21-.04-.417-.114-.629-.13-.365-.027-.586.17-.608.504-.012.183.052.393-.105.533-.223.198-.435.442-.744.488-.228.033-.358.139-.468.322-.096.16-.217.304-.329.452-.106.14-.21.272-.106.465.029.055.032.164-.003.205-.176.209-.254.508-.429.673-.365.34-.748.723-1.34.65a1.184 1.184 0 00-.662.119c-.273.128-.58.032-.8-.16-.283-.245-.583-.351-.948-.292-.07.012-.144.002-.215.002-.207 0-.32-.09-.322-.311-.006-.28.045-.572-.197-.806-.093-.09.002-.218.049-.32.09-.195.216-.37.285-.578.077-.235.148-.458.073-.711-.064-.214.105-.444.038-.635-.178-.514.23-.622.512-.824a.36.36 0 01.247-.05c.767.06 1.54.041 2.303.16.098.016.2.013.301.014h.095c.291-.008.356-.083.403-.428.022-.157.049-.313.108-.458.125-.311.066-.6-.119-.856-.293-.406-.583-.823-1.162-.858-.167-.01-.414-.34-.407-.495.005-.101.083-.14.167-.172.192-.07.39-.094.592-.092.315.002.588-.048.763-.369.113-.208.346-.18.543-.115.137.044.277.141.406.043.234-.178.604-.16.725-.49.076-.208.242-.294.417-.402.359-.223.753-.393 1.003-.782.185-.287.478-.487.816-.607.216-.077.416-.195.627-.283.217-.09.3-.24.273-.474-.038-.34-.029-.676.088-1.008.095-.272.447-.583.722-.599.182-.01.268.104.286.258.03.27.04.533-.048.806-.132.406-.025.56.35.75.17.085.309.05.445-.028.374-.215.71-.217.983.157.104.141.215.085.344.05.468-.127.901-.372 1.397-.411.142-.012.284-.055.427-.038.5.057.822-.232.95-.79.023-.098.04-.197.058-.295.07-.377.257-.611.671-.664.311-.04.433-.222.46-.535.021-.236-.124-.451-.382-.564-.026-.012-.055-.017-.082-.025-.668-.177-.895-.68-.988-1.3-.066-.437.176-.689.506-.858.342-.175.592-.45.875-.689.061-.051.158-.098.104-.204-.034-.07-.108-.09-.183-.091-.186-.007-.374-.023-.56-.014a.667.667 0 00-.605.42c-.164.404-.482.63-.836.83-.125.07-.25.14-.377.207-.499.27-.549.77-.112 1.135.055.046.11.092.162.141.388.366.366.674-.076.99a.904.904 0 01-.266.139c-.22.062-.288.209-.286.42.003.29-.09.564-.17.839-.052.177-.144.312-.36.302-.212-.011-.38.087-.552.203-.345.23-.763.225-1.153.302-.105.02-.193-.046-.225-.157-.03-.103-.03-.208.059-.278.112-.089.234-.165.355-.24.18-.113.234-.273.103-.436-.296-.365-.541-.772-.931-1.06-.16-.117-.284-.107-.425-.004-.104.076-.2.163-.302.242a1.155 1.155 0 01-.808.234c-.36-.024-.59-.243-.66-.608-.023-.125-.066-.248-.1-.372-.052-.193-.139-.385-.15-.581-.043-.855-.068-.834.632-1.093.313-.115.526-.394.846-.498.373-.122.694-.339 1.013-.56a1.55 1.55 0 00.401-.387c.273-.393.633-.7.993-1.006.065-.056.133-.111.187-.177.475-.58 1.086-1.005 1.665-1.466.099-.078.218-.054.328-.075.399-.077.838-.013 1.162-.356.091-.096.243-.073.372-.074l.32-.002h.774c.414-.023.968.04 1.524.105.395.047.718.274 1.068.42.332.14.666.257 1.011.34.723.176 1.46.286 2.143.613.36.173.788.132 1.157.302.083.038.167-.025.235-.078.114-.088.224-.18.336-.27.32-.254.672-.288.978-.043.286.23.574.27.923.187.434-.103.864-.195 1.254-.425.345-.204.732-.137 1.097-.092.684.083 1.33.056 1.937-.331.224-.144.489-.235.776-.21.185.015.373 0 .56.001a.76.76 0 00.687-.364c.109-.167.208-.345.391-.45.136-.08.123-.218.115-.346-.01-.19.086-.302.253-.353.467-.144.936-.207 1.354.122.227.18.479.218.73.147.377-.108.76-.118 1.143-.16.3-.031.594-.082.77-.388.084-.142.25-.184.414-.194.067-.004.13-.017.196-.026zM12.582 36.505c.117-.183.317-.014.478-.044.054-.01.113.006.251.014.048-.003.175-.014.303-.016.1-.001.231-.031.294.018.32.256.748.266 1.074.501.12.087.247.162.216.333-.027.155-.158.179-.29.205-.402.08-.807.151-1.209.23-.55.108-1.099-.11-1.649-.18-.069-.009-.135-.06-.14-.142-.006-.103.068-.156.155-.175a6.19 6.19 0 01.549-.088c.181-.021.218-.107.144-.261-.063-.132-.287-.219-.176-.395zM8.16 34.302l.143.011c.384-.042.696.112 1.02.23.527.195 1.031.41 1.424.843.231.256.596.33.882.522.141.095.305.16.448.254.235.157.228.296-.017.452-.209.133-.434.169-.65.035-.218-.135-.42-.197-.686-.115-.263.08-.33.017-.4-.281a.427.427 0 00-.209-.305c-.284-.166-.568-.332-.796-.576a.297.297 0 00-.144-.09c-.474-.095-.94-.244-1.426-.264-.28-.012-.505.195-.773.235-.139.022-.314.203-.42.005-.087-.163.09-.293.195-.395.193-.189.408-.349.696-.396.295-.05.569-.21.856-.154zm14.58-29.96c.579-.068 1.174-.074 1.755.066.223.053.379.147.462.389.13.377.41.608.814.685.356.066.687.197.97.434.174.147.296.314.267.555-.059.506.22.805.632 1.012.182.091.279.238.344.419.119.33.088.455-.18.673-.188.154-.379.307-.571.456-.253.197-.453.18-.683-.043-.144-.14-.228-.332-.395-.452-.088-.064-.18-.107-.277-.047-.106.066-.087.173-.045.269.058.13.126.258.191.385.2.388.137.743-.234.972-.283.174-.526.396-.786.595-.24.184-.458.198-.717.096-.28-.11-.562-.215-.843-.32-.254-.093-.454-.232-.53-.515a1.128 1.128 0 00-.176-.343c-.095-.137-.22-.208-.406-.164-.472.113-.941.002-1.41-.042-.177-.016-.216-.116-.163-.27a.719.719 0 01.894-.448c.236.074.471.128.718.097.216-.027.43-.054.502-.321.041-.153.192-.209.319-.27.223-.108.422-.25.6-.415.235-.217.217-.398-.059-.54a1.168 1.168 0 01-.44-.383c-.187-.263-.487-.345-.795-.34-.215.005-.427.013-.642-.02-.28-.045-.511.05-.641.315-.073.146-.183.255-.294.367-.082.08-.195.147-.24.245-.176.396-.556.557-.874.79-.187.14-.383.23-.628.245-.352.02-.413.138-.32.48.05.183.117.35.278.469.085.063.133.156.085.264-.052.118-.154.162-.278.168a.728.728 0 01-.443-.145c-.152-.102-.293-.093-.444-.014-.216.113-.432.223-.649.336-.152.08-.282.091-.428-.042-.29-.266-.645-.353-1.035-.324a.982.982 0 00-.618.26c-.264.243-.554.448-.93.494-.749.094-1.387.444-1.97.897-.216.166-.458.3-.635.514-.145.176-.248.354-.083.577.108.146.098.328.128.495.04.218.134.345.372.404.401.1.742.29 1.064.594.34.32.789.58 1.307.579.248 0 .485.051.716.13.131.046.183.149.077.267-.225.25-.32.575-.502.85-.15.23-.126.467-.026.697.127.293.288.341.576.2.116-.055.232-.111.346-.174.13-.07.274-.176.272-.312-.006-.356.242-.645.22-1-.015-.217.121-.32.306-.414.396-.202.84-.281 1.222-.526.25-.159.46-.338.613-.587.223-.362.22-.46-.033-.801-.155-.207-.134-.315.089-.444.036-.021.079-.033.12-.048.433-.152.726-.406.67-.916.21-.326.319-.717.609-.99a.621.621 0 01.436-.155c.46.003.916.045 1.37.102.24.031.403.218.559.378.16.165.304.33.514.444.232.125.244.24.129.503l-.094.194c-.129.302-.108.467.074.624.2.173.473.193.718.045.368-.221.725-.46 1.067-.723.27-.207.344-.192.562.07.286.346.415.748.427 1.191.007.259-.006.517.005.775.017.431.143.788.625.909.185.046.357.133.337.377-.011.137.082.206.178.272.218.151.233.34.198.6-.056.43-.296.802-.321 1.24-.018.32.044.465.351.587.366.144.372.152.193.514-.118.238-.095.467-.004.705.147.386-.134.742-.53.656-.277-.06-.565-.09-.813-.26-.253-.172-.544-.167-.831-.099-.275.066-.54.017-.81-.03-.2-.036-.22-.131-.159-.304.079-.219.155-.431.34-.588a1.26 1.26 0 00.34-.44c.097-.22-.063-.435-.286-.363-.409.135-.809.122-1.226.059a1.882 1.882 0 00-1.017.109c-.138.057-.244.128-.195.323.072.285-.014.527-.25.725-.156.13-.245.32-.294.518-.11.438.073.72.518.81.154.032.309.064.465.085.104.014.194.049.267.124.164.168.113.397-.11.471-.094.031-.196.068-.292.064-.422-.016-.794.245-1.22.203-.138-.013-.235.095-.327.186-.123.12-.236.252-.368.363-.212.178-.407.15-.508-.107-.078-.2-.205-.279-.386-.271-.344.014-.676-.055-1.02.192-.249.179-.595.246-.841.479-.163.154-.299.309-.27.554.02.181-.071.3-.236.366-.238.097-.466.222-.728.254-.552.068-.965.352-1.34.762-.338.369-.675.74-1 1.12-.269.318-.486.666-.584 1.086-.064.274-.246.504-.387.749-.231.397-.594.543-.957.72-.645.314-1.24.712-1.81 1.139-.692.52-.94 1.229-.732 2.087.104.43.237.855.212 1.31-.02.368-.157.668-.419.912-.247.229-.376.189-.568-.089-.268-.386-.419-.81-.52-1.262a1.525 1.525 0 01-.026-.554c.065-.493-.197-.765-.689-.698-.212.03-.35-.007-.456-.212-.13-.252-.376-.295-.63-.252-.268.046-.531.116-.795.175-.228.052-.37.216-.494.393-.07.098-.13.19-.267.17-.522-.076-1.06-.073-1.559-.245-.307-.107-.566-.093-.813.077-.276.189-.58.32-.882.444-.269.11-.49.285-.716.451A50.708 50.708 0 0113.217 7.357h.037c.228-.003.438-.03.664-.119.287-.112.616-.073.93-.004.188.04.375.105.578-.022.26-.16.356-.212.266-.504-.157-.514.176-.744.492-.977.291-.213.65-.297.993-.393.196-.054.393.112.426.373.036.291.135.555.276.807.13.23.352.228.568.212.231-.018.397-.15.505-.352.033-.06.025-.117.006-.172l-.044-.113c-.148-.414-.118-.542.218-.825.263-.222.538-.43.814-.637.23-.171.512-.178.78-.203.27-.027.544-.006.817-.006.401-.005.795-.032 1.196-.08zm28.488 8.217l.104.014c.533.004.945.356.909.816-.043.531.22.933.427 1.366a.383.383 0 00.139.157c.199.123.283.304.327.527.045.23.163.388.424.47.386.12.409.326.118.626-.099.103-.216.185-.221.35-.003.114-.096.178-.188.217-.249.105-.498.205-.779.218-.497.025-1.005.027-1.439.336a.365.365 0 01-.117.052c-.295.085-.458-.057-.38-.35.085-.318.219-.62.257-.95.012-.099.044-.195.056-.294.025-.217.154-.33.358-.366.166-.03.386-.013.394-.24a.567.567 0 00-.322-.517c-.23-.121-.448-.245-.629-.44-.203-.22-.276-.46-.329-.759-.063-.365.084-.584.267-.847.204-.296.446-.436.728-.372zm-1.988 2.153c.255-.206.902-.247 1.17-.058.257.183.3.49.057.69-.153.125-.212.25-.206.435.005.179-.088.33-.156.487-.051.116-.132.183-.262.19-.31.016-.582.132-.833.31a.603.603 0 01-.37.124c-.195.028-.301-.099-.402-.25-.106-.16-.141-.299-.01-.468.154-.2.194-.428.158-.689-.044-.311-.006-.355.288-.407.246-.044.392-.222.566-.364zM43.373.117c.93-.175 1.857-.143 2.778.025.56.101 1.118.215 1.667.39.487.154 1.012.177 1.532.147.272-.015.546-.028.812.051.066.02.144.04.16.125.02.105-.054.15-.133.193-.239.133-.497.197-.76.246l-.394.068c-.504.088-.922.382-1.39.56-.186.07-.258.256-.241.464.02.254-.035.485-.231.666-.091.083-.107.2-.145.306-.255.716-.803 1.12-1.481 1.376-.38.142-.46.268-.365.67.156.664-.063 1.018-.718 1.153-.325.067-.626.207-.923.346a3.753 3.753 0 01-1.102.347c-.525.068-1.031.24-1.567.251-.283.006-.509.192-.72.362-.537.435-1.154.687-1.825.81-.307.056-.625.1-.931.115-.544.027-.887.29-1.126.729-.176.322-.39.594-.705.79a.614.614 0 00-.22.259c-.177.393-.513.648-.795.949-.303.322-.582.511-1.08-.023-.213-.229-.46-.318-.773-.247-.343.078-.39.048-.544-.243-.106-.203-.221-.402-.316-.61a2.025 2.025 0 01-.189-1.044c.035-.348-.135-.675-.085-.999-.004-.774.394-1.238 1.159-1.373.359-.063.432-.209.203-.479-.171-.202-.257-.446-.392-.664a.661.661 0 01-.005-.733c.13-.215.173-.452.158-.702-.03-.497-.346-.86-.837-.947-.606-.106-1.208-.223-1.831-.091a1.55 1.55 0 01-.89-.09c-.324-.127-.579-.482-.575-.783.003-.18.06-.293.253-.338.28-.065.557-.12.843-.155.48-.058.974-.039 1.44-.2.156-.053.333-.079.41-.275.062-.155.238-.173.37-.179.538-.023 1.022-.281 1.55-.337.314-.033.62-.103.913-.226a.392.392 0 01.166-.04C35.415.8 36.306.409 37.23.584c.244.046.483-.054.726-.057.919-.012 1.824-.15 2.728-.296A6.115 6.115 0 0142.27.2c.384.039.74-.015 1.103-.084zm3.548 8.066c.413-.052.668.19.917.453.121.127.105.258 0 .383-.11.133-.233.245-.41.295-.56.163-1.128.304-1.64.6-.06.034-.135.043-.18.056-.055-.004-.087.002-.111-.009-.35-.151-.725-.146-1.093-.179-.253-.023-.393-.165-.466-.377a1.04 1.04 0 00-.353-.521c-.147-.111-.139-.23.002-.351.306-.266.621-.439 1.05-.278.424.159.854.117 1.282.047l.365-.063c.214-.035.427-.03.637-.056z"/></g><g transform="translate(27.816 23.459)"><mask id="j" fill="#fff"><use xlink:href="#i"/></mask><path d="M92.397 40.158c0-2.208-.157-4.378-.43-6.512a50.49 50.49 0 00-5.302-16.935 50.526 50.526 0 00-1.012-1.847l-.166-.29a52.786 52.786 0 00-2.207-3.455c-.08-.116-.162-.23-.244-.344a50.46 50.46 0 00-1.09-1.486c-.06-.08-.124-.158-.186-.237A51.213 51.213 0 0072.912.147c7.093 8.783 24.443 48.33-.11 69.007-33.831 28.494-71.59 1.318-72.631.56a51.172 51.172 0 0010.613 10.931 50.622 50.622 0 0030.76 10.366c28.086 0 50.853-22.767 50.853-50.853" fill="#231F20" opacity=".025" mask="url(#j)"/></g><g><g filter="url(#k)" transform="scale(-1 1) rotate(-44 3.755 205.567)"><path d="M1.38 41.04a49.7 49.7 0 00-.708 19.784c4.48 27.168 30.134 45.56 57.303 41.079 27.168-4.48 45.559-30.136 41.08-57.303C94.573 17.433 68.917-.959 41.75 3.522a49.909 49.909 0 00-12.26 3.674" stroke="#67C0F7" stroke-width="2" stroke-linecap="round"/><g transform="translate(25.643)"><mask id="m" fill="#fff"><use xlink:href="#l"/></mask><path fill="#67C0F7" mask="url(#m)" d="M6.896.409L4.619 6.85l6.445 2.274-3.7 1.77L.921 8.62l2.273-6.442z"/></g></g></g></g></svg>