<svg width="138" height="133" xmlns="http://www.w3.org/2000/svg" xmlns:xlink="http://www.w3.org/1999/xlink"><defs><linearGradient x1="50%" y1="2.434%" x2="50%" y2="100%" id="e"><stop stop-color="#1294EF" stop-opacity=".968" offset="0%"/><stop stop-color="#4FBCFA" offset="100%"/></linearGradient><linearGradient x1="50%" y1="2.434%" x2="50%" y2="100%" id="f"><stop stop-color="#1294EF" stop-opacity=".968" offset="0%"/><stop stop-color="#4FBCFA" offset="100%"/></linearGradient><linearGradient x1="50%" y1="2.434%" x2="50%" y2="100%" id="g"><stop stop-color="#30A7F4" offset="0%"/><stop stop-color="#4FBCFA" offset="100%"/></linearGradient><linearGradient x1="50%" y1="2.434%" x2="50%" y2="100%" id="h"><stop stop-color="#1294EF" stop-opacity=".968" offset="0%"/><stop stop-color="#4FBCFA" offset="100%"/></linearGradient><linearGradient x1="32.4%" y1="-45.591%" x2="55.526%" y2="88.819%" id="i"><stop stop-color="#62D4FA" offset="0%"/><stop stop-color="#33A9F4" offset="100%"/></linearGradient><linearGradient x1="0%" y1="58.218%" x2="136.025%" y2="35.958%" id="j"><stop stop-color="#1294EF" stop-opacity=".968" offset="0%"/><stop stop-color="#4FBCFA" offset="100%"/></linearGradient><linearGradient x1="180.486%" y1="29.826%" x2="5.657%" y2="58.096%" id="k"><stop stop-color="#1294EF" stop-opacity=".968" offset="0%"/><stop stop-color="#4FBCFA" offset="100%"/></linearGradient><linearGradient x1="12.583%" y1="66.306%" x2="71.395%" y2="40.654%" id="n"><stop stop-color="#1294EF" stop-opacity=".968" offset="0%"/><stop stop-color="#4FBCFA" offset="100%"/></linearGradient><linearGradient x1="55.924%" y1="42.794%" x2="49.064%" y2="50%" id="r"><stop stop-color="#FDE500" offset="0%"/><stop stop-color="#FBC600" offset="100%"/></linearGradient><linearGradient x1="1.474%" y1="-77.178%" x2="50%" y2="100%" id="t"><stop stop-color="#FDE500" offset="0%"/><stop stop-color="#FBC600" offset="100%"/></linearGradient><linearGradient x1="50%" y1="0%" x2="50%" y2="70.898%" id="u"><stop stop-color="#FFF" offset="0%"/><stop stop-color="#FFF" stop-opacity="0" offset="100%"/></linearGradient><path id="l" d="M0 .687h13.824v13.824H0z"/><path id="o" d="M.222.233h16.733v45.625H.222z"/><path id="q" d="M.403.725h14.881v43.233H.403z"/><filter x="-15.2%" y="-10.1%" width="130.4%" height="130.4%" filterUnits="objectBoundingBox" id="a"><feOffset dy="6" in="SourceAlpha" result="shadowOffsetOuter1"/><feGaussianBlur stdDeviation="5" in="shadowOffsetOuter1" result="shadowBlurOuter1"/><feColorMatrix values="0 0 0 0 0 0 0 0 0 0 0 0 0 0 0 0 0 0 0.03 0" in="shadowBlurOuter1"/></filter><filter x="-17.8%" y="-11.8%" width="135.5%" height="135.5%" filterUnits="objectBoundingBox" id="c"><feOffset dy="6" in="SourceAlpha" result="shadowOffsetOuter1"/><feGaussianBlur stdDeviation="5" in="shadowOffsetOuter1" result="shadowBlurOuter1"/><feColorMatrix values="0 0 0 0 0 0 0 0 0 0 0 0 0 0 0 0 0 0 0.04 0" in="shadowBlurOuter1"/></filter><circle id="b" cx="59.289" cy="59.289" r="59.289"/><circle id="d" cx="59.289" cy="59.289" r="50.665"/></defs><g fill="none" fill-rule="evenodd"><g transform="translate(10 4)"><use fill="#000" filter="url(#a)" xlink:href="#b"/><use fill="#E0F6FF" xlink:href="#b"/></g><g transform="translate(10 4)"><use fill="#000" filter="url(#c)" xlink:href="#d"/><use fill="#C5EEFF" xlink:href="#d"/></g><path d="M44.01 77.526c10.067-3.632 18.6-11.357 22.921-22.042 8.071-19.956-1.49-41.386-21.498-49.462a38.973 38.973 0 00-23.824-1.76c-.155.037-.642.194-1.079.336" transform="translate(39.837 19.62)" stroke="url(#e)" stroke-width="2"/><path d="M70.991 88.692c8.323-2.915 15.192-9.456 18.09-18.371 4.984-15.342-3.681-31.907-19.355-37-5.588-1.815-11.262-2.273-16.762-.523" stroke="url(#f)" stroke-width="5" transform="translate(10)"/><path d="M57.814 81.85l2.122-.608a1.411 1.411 0 01.778 2.713l-2.122.608a1.411 1.411 0 01-.778-2.713z" fill="#DF5246"/><path d="M69.333 58.657a6.91 6.91 0 1113.214-4.047 6.91 6.91 0 01-13.214 4.047" fill="url(#g)" transform="translate(10)"/><path d="M69.126 57.981a6.203 6.203 0 014.115-7.747 6.203 6.203 0 113.632 11.862 6.203 6.203 0 01-7.747-4.115" fill="url(#h)" transform="translate(10)"/><path fill="#30A7F4" d="M64.8 98.803l-8.808 2.698-7.849-25.627 8.81-2.698z"/><path fill="url(#i)" d="M54.8 98.803l-6.707 2.054-5.855-19.12 6.707-2.054z" transform="translate(10)"/><path d="M56.434 98.413c.321 1.05-.206 2.142-1.178 2.44l-8.894 2.725c-.972.297-2.02-.313-2.342-1.364-.322-1.05.206-2.143 1.177-2.44l8.893-2.724c.973-.298 2.022.312 2.343 1.363" fill="url(#j)" transform="translate(10)"/><path d="M56.492 98.661a1.577 1.577 0 00-1.915-.884l-7.673 2.35a1.579 1.579 0 00-1.06 1.967 1.579 1.579 0 001.98 1.036l7.432-2.276c.895-.275 1.411-1.224 1.236-2.193" fill="url(#k)" transform="translate(10)"/><g transform="translate(28.874 64.394)"><mask id="m" fill="#fff"><use xlink:href="#l"/></mask><path d="M13.52 5.576A6.91 6.91 0 11.303 9.623 6.91 6.91 0 0113.52 5.576" fill="#FFF" mask="url(#m)"/></g><path d="M38.485 78.393a6.204 6.204 0 11-3.633-11.864 6.204 6.204 0 013.633 11.864z" fill="#F9F9F9"/><path d="M45.943 75.124a3.465 3.465 0 01-2.292 4.315l-4.605 1.41a3.464 3.464 0 01-4.315-2.29l-3.557-11.614a3.465 3.465 0 012.292-4.315l4.605-1.41a3.466 3.466 0 014.316 2.291l3.556 11.613z" fill="#30A7F4"/><path d="M35.955 75.163c.448 1.465-.433 3.046-1.957 3.514l-3.865 1.183c-1.524.467-3.14-.35-3.588-1.815l-2.868-9.363c-.449-1.466.432-3.046 1.957-3.513l3.865-1.184c1.524-.466 3.14.35 3.588 1.815l2.868 9.363z" fill="url(#n)" transform="translate(10)"/><path d="M56.525 56.047l2.696 8.804 2.799 9.14s5.403-1.31 12.442-.846c10.951.719 17.416 4.665 17.416 4.665l-6.326-20.653-.103-.339-6.325-20.653s-3.147 6.888-11.816 13.617c-5.572 4.326-10.783 6.265-10.783 6.265z" fill="#FBFBFB"/><path d="M71.321 52.128c-4.38 3.576-8.511 5.135-8.511 5.135l2.3 7.51 2.254 7.361c1.517-.13 3.27-.21 5.176-.174a35.944 35.944 0 014.886.102c8.761.791 13.992 4.247 13.992 4.247l-5.397-17.623-.088-.29-.584-1.904-.1-.325-4.714-15.393s-2.399 5.79-9.214 11.354" fill="#ECECEC"/><g transform="translate(77.321 33.488)"><mask id="p" fill="#fff"><use xlink:href="#o"/></mask><path d="M16.867 43.285a1.99 1.99 0 01-3.804 1.166L.31 2.805a1.99 1.99 0 013.805-1.164l12.753 41.644z" fill="#F7B500" mask="url(#p)"/></g><g transform="translate(78.992 35.159)"><mask id="s" fill="#fff"><use xlink:href="#q"/></mask><path d="M1.264.769C.546.989.21 1.976.516 2.973l12.107 39.536c.27.878.947 1.471 1.596 1.449a1.99 1.99 0 00.978-2.343L3.118 2.176C2.813 1.18 1.982.55 1.264.77" fill="url(#r)" mask="url(#s)"/></g><path d="M64.696 73.432a1.576 1.576 0 01-1.042 1.962l-19.52 5.978a1.573 1.573 0 01-1.962-1.042l-5.98-19.52a1.576 1.576 0 011.043-1.962l19.521-5.978a1.574 1.574 0 011.961 1.041l5.979 19.521z" fill="#F7B500"/><path d="M54.696 73.432l-5.518-18.019-18.12 5.549c-.771.236-1.222 1.015-1.004 1.73l5.183 16.919c.219.715 1.029 1.108 1.799.872l16.618-5.089a1.576 1.576 0 001.042-1.962" fill="url(#t)" transform="translate(10)"/><path d="M63.794 40a28.05 28.05 0 017.81 19.458c0 15.544-12.602 28.145-28.146 28.145A28.05 28.05 0 0124 79.793z" fill="url(#u)" opacity=".819" transform="rotate(7 52.802 145.55)"/></g></svg>