<svg width="138" height="133" viewBox="0 0 138 133" preserveAspectRatio="xMinYMin meet" xmlns="http://www.w3.org/2000/svg" xmlns:xlink="http://www.w3.org/1999/xlink"><defs><path id="g" d="M0 .686h28.43V72.41H0z"/><path id="i" d="M.707.595H29.14v71.723H.707z"/><path id="l" d="M0 .088h13.932v16.815H0z"/><path id="n" d="M0 .088h6.965V16.9H0z"/><path id="q" d="M0 .088h13.932v16.815H0z"/><path id="s" d="M0 .088h6.965V16.9H0z"/><filter x="-15.2%" y="-10.1%" width="130.4%" height="130.4%" filterUnits="objectBoundingBox" id="a"><feOffset dy="6" in="SourceAlpha" result="shadowOffsetOuter1"/><feGaussianBlur stdDeviation="5" in="shadowOffsetOuter1" result="shadowBlurOuter1"/><feColorMatrix values="0 0 0 0 0 0 0 0 0 0 0 0 0 0 0 0 0 0 0.03 0" in="shadowBlurOuter1"/></filter><filter x="-17.8%" y="-11.8%" width="135.5%" height="135.5%" filterUnits="objectBoundingBox" id="c"><feOffset dy="6" in="SourceAlpha" result="shadowOffsetOuter1"/><feGaussianBlur stdDeviation="5" in="shadowOffsetOuter1" result="shadowBlurOuter1"/><feComposite in="shadowBlurOuter1" in2="SourceAlpha" operator="out" result="shadowBlurOuter1"/><feColorMatrix values="0 0 0 0 0 0 0 0 0 0 0 0 0 0 0 0 0 0 0.04 0" in="shadowBlurOuter1"/></filter><filter x="-14.5%" y="-16%" width="128.9%" height="132%" filterUnits="objectBoundingBox" id="e"><feOffset dy="2" in="SourceAlpha" result="shadowOffsetOuter1"/><feGaussianBlur stdDeviation="2" in="shadowOffsetOuter1" result="shadowBlurOuter1"/><feColorMatrix values="0 0 0 0 0 0 0 0 0 0 0 0 0 0 0 0 0 0 0.1 0" in="shadowBlurOuter1" result="shadowMatrixOuter1"/><feMerge><feMergeNode in="shadowMatrixOuter1"/><feMergeNode in="SourceGraphic"/></feMerge></filter><filter x="-85.7%" y="-66.7%" width="271.4%" height="233.3%" filterUnits="objectBoundingBox" id="k"><feOffset dy="2" in="SourceAlpha" result="shadowOffsetOuter1"/><feGaussianBlur stdDeviation="2" in="shadowOffsetOuter1" result="shadowBlurOuter1"/><feColorMatrix values="0 0 0 0 0 0 0 0 0 0 0 0 0 0 0 0 0 0 0.2 0" in="shadowBlurOuter1" result="shadowMatrixOuter1"/><feMerge><feMergeNode in="shadowMatrixOuter1"/><feMergeNode in="SourceGraphic"/></feMerge></filter><filter x="-85.7%" y="-66.7%" width="271.4%" height="233.3%" filterUnits="objectBoundingBox" id="p"><feOffset dy="2" in="SourceAlpha" result="shadowOffsetOuter1"/><feGaussianBlur stdDeviation="2" in="shadowOffsetOuter1" result="shadowBlurOuter1"/><feColorMatrix values="0 0 0 0 0 0 0 0 0 0 0 0 0 0 0 0 0 0 0.2 0" in="shadowBlurOuter1" result="shadowMatrixOuter1"/><feMerge><feMergeNode in="shadowMatrixOuter1"/><feMergeNode in="SourceGraphic"/></feMerge></filter><circle id="b" cx="59.289" cy="59.289" r="59.289"/><circle id="d" cx="59.289" cy="59.289" r="50.665"/><linearGradient x1="0%" y1="-7.691%" x2="61.12%" y2="101.491%" id="f"><stop stop-color="#B7EBE5" offset="0%"/><stop stop-color="#20B09B" offset="100%"/></linearGradient></defs><g fill="none" fill-rule="evenodd"><g transform="translate(10 4)"><use fill="#000" filter="url(#a)" xlink:href="#b"/><use fill="#E0F6FF" xlink:href="#b"/><g><use fill="#000" filter="url(#c)" xlink:href="#d"/><use fill-opacity=".153" fill="#32C5FF" xlink:href="#d"/></g><circle fill="#C5EEFF" cx="59.289" cy="59.289" r="50.665"/></g><g filter="url(#e)" transform="translate(28 26)"><path fill="#FFF" d="M0 .84v65.022l28.43 6.702 25.254-5.952 28.434 6.702V8.292L53.684 1.591 28.43 7.543z"/><path fill="url(#f)" d="M3.179 63.346l25.25 5.953 25.255-5.953L78.939 69.3v-58.49L53.684 4.856 28.43 10.809 3.179 4.856z"/><g transform="translate(0 .155)"><mask id="h" fill="#fff"><use xlink:href="#g"/></mask><path fill="#223B4C" opacity=".078" mask="url(#h)" d="M0 .686L28.43 7.39v65.02L0 65.709z"/></g><g transform="translate(52.977 .996)"><mask id="j" fill="#fff"><use xlink:href="#i"/></mask><path fill="#223B4C" opacity=".121" mask="url(#j)" d="M.707.595v65.02l28.433 6.703V7.298z"/></g></g><g stroke-linecap="round" stroke-width="2"><path d="M45.295 81.931c.043-.16.088-.319.134-.478" stroke="#202327"/><path d="M47.248 76.683c5.756-12.078 19.23-21.078 35.477-22.197a48.229 48.229 0 018.83.197" stroke="#FFF" stroke-dasharray="1.022,5.112"/><path d="M94.093 55.046l.492.087" stroke="#202327"/></g><g filter="url(#k)" transform="translate(38.595 67.225)"><path d="M7.04 11.153a4.173 4.173 0 110-8.347 4.173 4.173 0 010 8.347z" fill="#FFF"/><g transform="translate(0 .057)"><mask id="m" fill="#fff"><use xlink:href="#l"/></mask><path d="M6.968 10.706l-.058.001a3.711 3.711 0 110-7.423 3.71 3.71 0 01.058 7.422m4.924-8.578A6.942 6.942 0 006.968.088h-.002a6.966 6.966 0 00-4.926 11.89l4.926 4.925.002-.002 4.924-4.923a6.945 6.945 0 002.04-4.924c0-1.783-.68-3.566-2.04-4.926" fill="#3151B7" mask="url(#m)"/></g><g transform="translate(6.968 .057)"><mask id="o" fill="#fff"><use xlink:href="#n"/></mask><path d="M6.965 7.054c0 1.781-.68 3.564-2.04 4.924L0 16.901v-6.195a3.71 3.71 0 000-7.42V.088c1.783 0 3.565.68 4.925 2.04a6.946 6.946 0 012.04 4.926" fill="#2D4B98" mask="url(#o)"/></g><path d="M6.91 10.765a3.711 3.711 0 11-.001-7.423 3.711 3.711 0 010 7.423m0-8.621a4.91 4.91 0 10-.001 9.816 4.91 4.91 0 00.002-9.816" fill="#2D4B98"/></g><g filter="url(#p)" transform="translate(87.595 40.757)"><path d="M7.04 11.153a4.173 4.173 0 110-8.347 4.173 4.173 0 010 8.347z" fill="#FFF"/><g transform="translate(0 .057)"><mask id="r" fill="#fff"><use xlink:href="#q"/></mask><path d="M6.968 10.706l-.058.001a3.711 3.711 0 110-7.423 3.71 3.71 0 01.058 7.422m4.924-8.578A6.942 6.942 0 006.968.088h-.002a6.966 6.966 0 00-4.926 11.89l4.926 4.925.002-.002 4.924-4.923a6.945 6.945 0 002.04-4.924c0-1.783-.68-3.566-2.04-4.926" fill="#F9DB53" mask="url(#r)"/></g><g transform="translate(6.968 .057)"><mask id="t" fill="#fff"><use xlink:href="#s"/></mask><path d="M6.965 7.054c0 1.781-.68 3.564-2.04 4.924L0 16.901v-6.195a3.71 3.71 0 000-7.42V.088c1.783 0 3.565.68 4.925 2.04a6.946 6.946 0 012.04 4.926" fill="#F8D548" mask="url(#t)"/></g><path d="M6.91 10.765a3.711 3.711 0 11-.001-7.423 3.711 3.711 0 010 7.423m0-8.621a4.91 4.91 0 10-.001 9.816 4.91 4.91 0 00.002-9.816" fill="#F8D548"/></g></g></svg>