<svg width="138" height="133" xmlns="http://www.w3.org/2000/svg" xmlns:xlink="http://www.w3.org/1999/xlink"><defs><filter x="-15.2%" y="-10.1%" width="130.4%" height="130.4%" filterUnits="objectBoundingBox" id="a"><feOffset dy="6" in="SourceAlpha" result="shadowOffsetOuter1"/><feGaussianBlur stdDeviation="5" in="shadowOffsetOuter1" result="shadowBlurOuter1"/><feColorMatrix values="0 0 0 0 0 0 0 0 0 0 0 0 0 0 0 0 0 0 0.03 0" in="shadowBlurOuter1"/></filter><filter x="-17.8%" y="-11.8%" width="135.5%" height="135.5%" filterUnits="objectBoundingBox" id="c"><feOffset dy="6" in="SourceAlpha" result="shadowOffsetOuter1"/><feGaussianBlur stdDeviation="5" in="shadowOffsetOuter1" result="shadowBlurOuter1"/><feComposite in="shadowBlurOuter1" in2="SourceAlpha" operator="out" result="shadowBlurOuter1"/><feColorMatrix values="0 0 0 0 0 0 0 0 0 0 0 0 0 0 0 0 0 0 0.04 0" in="shadowBlurOuter1"/></filter><filter x="-15.4%" y="-8.6%" width="130.8%" height="124%" filterUnits="objectBoundingBox" id="g"><feOffset dy="2" in="SourceAlpha" result="shadowOffsetOuter1"/><feGaussianBlur stdDeviation="2" in="shadowOffsetOuter1" result="shadowBlurOuter1"/><feComposite in="shadowBlurOuter1" in2="SourceAlpha" operator="out" result="shadowBlurOuter1"/><feColorMatrix values="0 0 0 0 0 0 0 0 0 0 0 0 0 0 0 0 0 0 0.11 0" in="shadowBlurOuter1"/></filter><filter x="-4.1%" y="-7.7%" width="107.4%" height="115.4%" filterUnits="objectBoundingBox" id="i"><feOffset in="SourceAlpha" result="shadowOffsetOuter1"/><feGaussianBlur stdDeviation="1" in="shadowOffsetOuter1" result="shadowBlurOuter1"/><feColorMatrix values="0 0 0 0 0 0 0 0 0 0 0 0 0 0 0 0 0 0 0.11366368 0" in="shadowBlurOuter1"/></filter><linearGradient x1="50%" y1="0%" x2="50%" y2="100%" id="e"><stop stop-color="#FDE500" offset="0%"/><stop stop-color="#FBC600" offset="100%"/></linearGradient><linearGradient x1="50%" y1="0%" x2="50%" y2="100%" id="f"><stop stop-color="#FFF" offset="0%"/><stop stop-color="#FFF" stop-opacity="0" offset="70.898%"/></linearGradient><linearGradient x1="50%" y1="0%" x2="50%" y2="100%" id="k"><stop stop-color="#FDE500" offset="0%"/><stop stop-color="#FBC600" offset="100%"/></linearGradient><circle id="b" cx="59.289" cy="59.29" r="59.289"/><circle id="d" cx="59.289" cy="59.29" r="50.665"/><path d="M47.446 54.173h55.185a2 2 0 011.917 2.569l-10.37 34.96a2 2 0 01-1.918 1.432H38.048c-1.3.09-2.31.04-3.03-.147-.72-.187-1.41-.579-2.068-1.177l12.607-36.293a2 2 0 011.889-1.344z" id="j"/><path id="l" d="M42.385 33.607h6.343v5.924h-6.343z"/><rect id="h" x="20.884" y="26.035" width="45.455" height="58.442" rx="2"/></defs><g fill="none" fill-rule="evenodd"><g transform="translate(10 4)"><use fill="#000" filter="url(#a)" xlink:href="#b"/><use fill="#E0F6FF" xlink:href="#b"/><use fill="#000" filter="url(#c)" xlink:href="#d"/><use fill-opacity=".153" fill="#32C5FF" xlink:href="#d"/><circle fill="#C5EEFF" cx="59.289" cy="59.29" r="50.665"/><path d="M32.706 42.21h43.455a1 1 0 011 1V56.36a1 1 0 01-1 1H32.706a1 1 0 01-1-1V43.21a1 1 0 011-1z" fill="#FAE100"/><path d="M33.76 45.515h58.77a2 2 0 012 2v43.62a2 2 0 01-2 2H33.76a2 2 0 01-2-2v-43.62a2 2 0 012-2z" fill="url(#e)"/><path d="M23.59 30.364h43.483a2 2 0 012 2v37.125a2 2 0 01-2 2H48.95a2 2 0 01-1.651-.872l-25.36-37.125a2 2 0 011.65-3.128z" fill="url(#f)" opacity=".663"/><rect stroke="#F3F3F3" fill="#F3F3F3" x="27.877" y="30.864" width="44.455" height="57.442" rx="2"/><use fill="#000" filter="url(#g)" xlink:href="#h"/><rect stroke="#FFF" stroke-linejoin="square" fill="#FFF" x="21.384" y="26.535" width="44.455" height="57.442" rx="2"/><use fill="#000" filter="url(#i)" xlink:href="#j"/><use fill="url(#k)" xlink:href="#j"/><path d="M97.604 80.153l-3.426 11.55a2 2 0 01-1.918 1.431H38.048c-1.3.09-2.31.04-3.03-.147-.72-.187-1.41-.579-2.068-1.177l4.02-11.574 60.634-.083z" fill-opacity=".624" fill="#FCE98F"/><mask id="m" fill="#fff"><use xlink:href="#l"/></mask><path d="M46.973 33.606l-.334 4.597 2.09 1.328-6.344-.094s.492-4.791 4.588-5.83" fill="#A5B2C6" mask="url(#m)" transform="rotate(-8 45.557 36.569)"/><path d="M36.842 70.953a1.613 1.613 0 11-3.001-1.187 1.613 1.613 0 013 1.187m16.474-30.761c.804-2.031-.922-5.063-3.377-6.698l-.006 4.607-3.263.97-4.703.024a.694.694 0 00-.69.719l.04 1.134c.012.354.289.642.642.668l.068.005s.431 2.608.396 3.48c-.034.873-1.405 4.115-2.122 5.928l-7.334 18.547.006.002a2.495 2.495 0 004.692 1.7l7.395-21.716c.73-1.844 1.508-3.398 3.911-5.106 2.404-1.708 3.542-2.233 4.345-4.264" fill="#A5B2C6"/><path d="M49.938 33.494l-.006 4.607-3.263.969-4.703.025a.694.694 0 00-.69.719l.039 1.11a.694.694 0 00.667.67l10.24.388c.445-.48.793-1.03 1.093-1.79.804-2.031-.922-5.063-3.377-6.698z" fill="#C8D5E8"/><path d="M46.124 43.678a.26.26 0 01-.264.256l-1.928-.03a.26.26 0 01-.256-.264l.03-1.927a.26.26 0 01.264-.256l1.928.03a.26.26 0 01.256.264l-.03 1.927z" fill="#6F7F96"/><path d="M44.433 43.36a.238.238 0 11-.477-.007l.02-1.343a.239.239 0 01.477.007l-.02 1.343zM45.143 43.37a.238.238 0 01-.477-.007l.021-1.342a.238.238 0 11.476.007l-.02 1.343zM45.853 43.382a.238.238 0 01-.476-.008l.02-1.342a.238.238 0 11.477.007l-.021 1.343zM36.343 67.422a1.122 1.122 0 01-.633-1.45l5.457-14.055a.791.791 0 011.029-.449.832.832 0 01.48 1.046l-4.932 14.265a1.067 1.067 0 01-1.401.643z" fill="#C8D5E8"/></g></g></svg>