<svg width="138" height="133" xmlns="http://www.w3.org/2000/svg" xmlns:xlink="http://www.w3.org/1999/xlink"><defs><path id="f" d="M.65.767h49.839V8H.649z"/><path id="h" d="M.345.969h14.239v2.67H.344z"/><path id="j" d="M0 .969h14.24v2.67H0z"/><filter x="-15.2%" y="-10.1%" width="130.4%" height="130.4%" filterUnits="objectBoundingBox" id="a"><feOffset dy="6" in="SourceAlpha" result="shadowOffsetOuter1"/><feGaussianBlur stdDeviation="5" in="shadowOffsetOuter1" result="shadowBlurOuter1"/><feColorMatrix values="0 0 0 0 0 0 0 0 0 0 0 0 0 0 0 0 0 0 0.03 0" in="shadowBlurOuter1"/></filter><filter x="-17.8%" y="-11.8%" width="135.5%" height="135.5%" filterUnits="objectBoundingBox" id="c"><feOffset dy="6" in="SourceAlpha" result="shadowOffsetOuter1"/><feGaussianBlur stdDeviation="5" in="shadowOffsetOuter1" result="shadowBlurOuter1"/><feColorMatrix values="0 0 0 0 0 0 0 0 0 0 0 0 0 0 0 0 0 0 0.04 0" in="shadowBlurOuter1"/></filter><circle id="b" cx="59.289" cy="59.289" r="59.289"/><circle id="d" cx="59.289" cy="59.289" r="50.665"/><linearGradient x1="50%" y1="2.434%" x2="50%" y2="100%" id="e"><stop stop-color="#1294EF" stop-opacity=".968" offset="0%"/><stop stop-color="#4FBCFA" offset="100%"/></linearGradient></defs><g fill="none" fill-rule="evenodd"><g transform="translate(10 4)"><use fill="#000" filter="url(#a)" xlink:href="#b"/><use fill="#E0F6FF" xlink:href="#b"/></g><g transform="translate(10 4)"><use fill="#000" filter="url(#c)" xlink:href="#d"/><use fill="#C5EEFF" xlink:href="#d"/></g><g><path d="M59.265 58.131V36.899c0-9.927-8.047-17.974-17.973-17.974-9.926 0-17.973 8.047-17.973 17.974v21.232h35.946z" fill="url(#e)" transform="translate(28 29.5)"/><path d="M73.487 83.526V78.57a4.195 4.195 0 00-8.391 0v4.957h8.39z" fill="#2487D2"/><path d="M91.711 89.843v-4.548a1.879 1.879 0 00-1.879-1.879H49.305a1.88 1.88 0 00-1.879 1.88v4.547h44.285z" fill="#1294EF"/><g transform="translate(44 86.488)"><mask id="g" fill="#fff"><use xlink:href="#f"/></mask><path d="M50.489 8V2.881A2.114 2.114 0 0048.374.767H2.764A2.113 2.113 0 00.65 2.881v5.12h49.839z" fill="#202327" mask="url(#g)"/></g><path d="M52.755 81.174V66.027c0-.579.436-1.086 1.013-1.121a1.08 1.08 0 011.146 1.078v15.148c0 .578-.436 1.085-1.013 1.12a1.08 1.08 0 01-1.146-1.078M59.954 53.38c-.433-.384-1.1-.333-1.508.075l-.613.613-.69.688-.641.643a1.079 1.079 0 00.049 1.572c.432.384 1.099.334 1.508-.075l.612-.613.689-.689.642-.642a1.078 1.078 0 00-.048-1.572" fill="#FFF" opacity=".186"/><path d="M91.711 87.255v-1.96a1.879 1.879 0 00-1.879-1.879h-2.567V66.399c0-9.927-8.047-17.974-17.974-17.974-1.499 0-2.954.185-4.346.531 7.826 1.944 13.627 9.015 13.627 17.443v17.017h2.568c1.038 0 1.879.841 1.879 1.879v1.96h.663c1.168 0 2.114.947 2.114 2.115v5.118h8.693V89.37a2.115 2.115 0 00-2.115-2.115h-.663z" fill="#1A1A1A" opacity=".039"/><path d="M88.421 51.663a1.336 1.336 0 010-1.888l3.63-3.629a1.334 1.334 0 111.887 1.888l-3.629 3.63a1.336 1.336 0 01-1.888 0" fill="#1294EF" opacity=".28"/><path d="M50.163 51.663a1.336 1.336 0 000-1.888l-3.629-3.629a1.334 1.334 0 10-1.888 1.888l3.63 3.63a1.336 1.336 0 001.887 0" fill="#1294EF" opacity=".282"/><path d="M54.355 48.237a1.335 1.335 0 01-1.85-.376l-6.388-9.646a1.336 1.336 0 012.226-1.475l6.388 9.647a1.335 1.335 0 01-.376 1.85" fill="#2487D2" opacity=".282"/><path d="M91.848 55.856a1.335 1.335 0 01.376-1.85l9.646-6.388a1.335 1.335 0 111.474 2.226l-9.646 6.388a1.335 1.335 0 01-1.85-.376" fill="#2487D2" opacity=".28"/><path d="M46.789 55.777a1.335 1.335 0 01-1.851.369l-9.624-6.421a1.336 1.336 0 011.482-2.221l9.624 6.421c.613.41.778 1.239.369 1.852" fill="#2487D2" opacity=".282"/><path d="M84.308 48.29a1.336 1.336 0 01-.37-1.853l6.422-9.624a1.335 1.335 0 012.22 1.482L86.16 47.92a1.334 1.334 0 01-1.851.37" fill="#2487D2" opacity=".28"/><path d="M69.292 43.74a1.335 1.335 0 01-1.335-1.336V30.835a1.335 1.335 0 112.67 0v11.57c0 .736-.598 1.334-1.335 1.334" fill="#1294EF" opacity=".5"/><g opacity=".5" transform="translate(96 68.488)"><mask id="i" fill="#fff"><use xlink:href="#h"/></mask><path d="M.345 2.304C.345 1.567.943.969 1.68.969h11.57a1.335 1.335 0 010 2.67H1.68A1.335 1.335 0 01.345 2.304" fill="#1294EF" mask="url(#i)"/></g><g opacity=".5" transform="translate(28 68.488)"><mask id="k" fill="#fff"><use xlink:href="#j"/></mask><path d="M14.24 2.304c0-.737-.598-1.335-1.335-1.335H1.335a1.335 1.335 0 000 2.67h11.57c.737 0 1.335-.598 1.335-1.335" fill="#1294EF" mask="url(#k)"/></g><path d="M74.68 44.281a1.334 1.334 0 01-1.042-1.574l1.02-5.03a1.336 1.336 0 012.618.532l-1.022 5.03a1.335 1.335 0 01-1.574 1.042M95.803 76.18a1.334 1.334 0 011.574-1.043l5.03 1.022a1.335 1.335 0 11-.532 2.616l-5.03-1.022a1.335 1.335 0 01-1.042-1.574M42.781 65.405a1.335 1.335 0 00-1.042-1.574l-5.03-1.022a1.335 1.335 0 00-.532 2.616l5.03 1.022a1.335 1.335 0 001.574-1.042M63.998 44.263a1.335 1.335 0 01-1.57-1.048l-1.005-5.033a1.335 1.335 0 012.618-.523l1.005 5.033a1.336 1.336 0 01-1.048 1.57M95.822 65.498a1.335 1.335 0 011.048-1.571l5.033-1.004a1.335 1.335 0 01.523 2.618l-5.034 1.005a1.335 1.335 0 01-1.57-1.048M42.763 76.087a1.335 1.335 0 00-1.57-1.048l-5.034 1.005a1.336 1.336 0 00.523 2.618l5.033-1.005a1.334 1.334 0 001.048-1.57" fill="#2487D2" opacity=".5"/></g></g></svg>